<svg xmlns="http://www.w3.org/2000/svg" width="56.712" height="42.535" viewBox="0 0 56.712 42.535">
  <path id="bar" d="M36.863,32.856h4.253a1.525,1.525,0,0,0,1.418-1.418V16.551a1.525,1.525,0,0,0-1.418-1.418H36.863a1.525,1.525,0,0,0-1.418,1.418V31.439a1.525,1.525,0,0,0,1.418,1.418Zm10.634,0H51.75a1.525,1.525,0,0,0,1.418-1.418V5.918A1.525,1.525,0,0,0,51.75,4.5H47.5a1.525,1.525,0,0,0-1.418,1.418V31.439A1.525,1.525,0,0,0,47.5,32.856Zm-31.9,0h4.253a1.525,1.525,0,0,0,1.418-1.418v-7.8a1.525,1.525,0,0,0-1.418-1.418H15.6a1.525,1.525,0,0,0-1.418,1.418v7.8A1.525,1.525,0,0,0,15.6,32.856Zm10.634,0h4.253A1.525,1.525,0,0,0,31.9,31.439V9.462a1.525,1.525,0,0,0-1.418-1.418H26.229a1.525,1.525,0,0,0-1.418,1.418V31.439A1.525,1.525,0,0,0,26.229,32.856ZM54.94,39.945H7.089V6.272A1.772,1.772,0,0,0,5.317,4.5H1.772A1.772,1.772,0,0,0,0,6.272V43.49a3.545,3.545,0,0,0,3.545,3.545h51.4a1.772,1.772,0,0,0,1.772-1.772V41.718A1.772,1.772,0,0,0,54.94,39.945Z" transform="translate(0 -4.5)"/>
</svg>
