<svg xmlns="http://www.w3.org/2000/svg" width="59.134" height="38.857" viewBox="0 0 59.134 38.857">
  <path id="barcode" d="M0,43.358V4.5H2.079V43.358Zm3.1-.028V4.5H4.158V43.33Zm3.135,0V4.5H7.26V43.33Zm5.181,0V4.5h1.023V43.33Zm4.158,0V4.5h2.046V43.33Zm5.181,0V4.5h1.023V43.33Zm2.079,0V4.5h1.023V43.33Zm2.079,0V4.5h1.023V43.33Zm4.125,0V4.5h2.079V43.33Zm5.181,0V4.5H36.3V43.33Zm4.158,0V4.5h2.079V43.33Zm4.158,0V4.5h2.079V43.33Zm3.1,0V4.5h2.079V43.33Zm5.214,0V4.5h3.1V43.33Zm4.125,0V4.5h1.056V43.33Zm2.079.028V4.5h2.079V43.358Z" transform="translate(0 -4.5)"/>
</svg>
