<svg xmlns="http://www.w3.org/2000/svg" width="33.055" height="33.054" viewBox="0 0 33.055 33.054">
  <g id="Close" transform="translate(0)">
    <path id="Path_858" data-name="Path 858" d="M24.717,22.922l-4.187-4.187,4.187-4.187a1.27,1.27,0,0,0-1.8-1.8l-4.187,4.187-4.187-4.187a1.27,1.27,0,1,0-1.8,1.8l4.187,4.187L12.75,22.922a1.228,1.228,0,0,0,0,1.8,1.261,1.261,0,0,0,1.8,0l4.187-4.187,4.187,4.187a1.276,1.276,0,0,0,1.8,0A1.261,1.261,0,0,0,24.717,22.922Z" transform="translate(-2.206 -2.207)"/>
    <path id="Path_859" data-name="Path 859" d="M19.9,5.6A14.3,14.3,0,1,1,9.787,9.787,14.208,14.208,0,0,1,19.9,5.6m0-2.225A16.527,16.527,0,1,0,36.43,19.9,16.525,16.525,0,0,0,19.9,3.375Z" transform="translate(-3.375 -3.375)"/>
  </g>
</svg>
