<svg xmlns="http://www.w3.org/2000/svg" width="49.449" height="62.518" viewBox="0 0 49.449 62.518">
  <path id="export_CSV" data-name="export CSV" d="M-8351.162-6304.482a2.831,2.831,0,0,1-2.838-2.839v-54.857a2.831,2.831,0,0,1,2.838-2.839h23.646v16.079a2.846,2.846,0,0,0,2.837,2.839h16.081v38.778a2.833,2.833,0,0,1-2.839,2.839Zm23.646-29.321v2.457a16.257,16.257,0,0,0,4.29,11.125,1.886,1.886,0,0,0,1.386.6,1.889,1.889,0,0,0,1.386-.6,16.263,16.263,0,0,0,4.287-11.125v-2.457a.945.945,0,0,0-.945-.948H-8319a.947.947,0,0,0-.946.948v2.457a12.908,12.908,0,0,1-1.891,6.726,12.883,12.883,0,0,1-1.894-6.726v-2.457a.945.945,0,0,0-.945-.948h-1.892A.947.947,0,0,0-8327.517-6333.8Zm-8.512,11.349v1.891a.944.944,0,0,0,.945.946h1.451a4.807,4.807,0,0,0,5.011-4.564,4.388,4.388,0,0,0-1.577-3.327l-2.587-2.22a.628.628,0,0,1-.252-.453c0-.369.528-.782,1.233-.782h1.448a.947.947,0,0,0,.948-.948v-1.891a.946.946,0,0,0-.948-.945h-1.446a4.811,4.811,0,0,0-5.016,4.566,4.389,4.389,0,0,0,1.577,3.328l2.587,2.218a.621.621,0,0,1,.252.455c0,.369-.528.782-1.23.782h-1.451A.945.945,0,0,0-8336.028-6322.455Zm-10.405-6.621v3.784a5.674,5.674,0,0,0,5.675,5.673h.946a.945.945,0,0,0,.945-.946v-1.891a.946.946,0,0,0-.945-.945h-.946a1.89,1.89,0,0,1-1.891-1.891v-3.784a1.89,1.89,0,0,1,1.891-1.891h.946a.946.946,0,0,0,.945-.946v-1.891a.947.947,0,0,0-.945-.948h-.946A5.675,5.675,0,0,0-8346.434-6329.075Zm22.7-20.809v-15.133h.724a2.838,2.838,0,0,1,2.009.828l11.575,11.586a2.829,2.829,0,0,1,.828,2v.721Zm10.139-9.191,5.014-5.011-2.912-2.915h6.943v6.946l-2.616-2.617-5.013,5.011Z" transform="translate(8354 6367)"/>
</svg>
