<svg xmlns="http://www.w3.org/2000/svg" width="56.353" height="55.191" viewBox="0 0 56.353 55.191">
  <path id="Help" d="M-8339.916-6316.642c.243-2.715.476-5.432.739-8.143a.674.674,0,0,0-.494-.807,25.987,25.987,0,0,1-10.4-7.99,18.328,18.328,0,0,1-3.929-11.743,18.368,18.368,0,0,1,4.433-11.426,27.7,27.7,0,0,1,15.332-9.2,34.586,34.586,0,0,1,19.565.791,27.452,27.452,0,0,1,11.372,7.026,18.74,18.74,0,0,1,5.638,13.8,18.229,18.229,0,0,1-4.376,11.315c-4.119,5.009-9.539,7.858-15.743,9.353a34.985,34.985,0,0,1-9.5.9,1.649,1.649,0,0,1-.384-.015c-1.26-.369-2.079.218-2.927,1.107-3.017,3.16-6.109,6.235-9.177,9.33-.155.164-.327.313-.568.541C-8340.187-6313.5-8340.063-6315.071-8339.916-6316.642Zm4.45-46.293a23.505,23.505,0,0,0-12.784,8.709c-3.73,5.25-4.277,10.856-1.307,16.624a20.111,20.111,0,0,0,9.5,8.906,6.105,6.105,0,0,1,3.2,3.092,2.153,2.153,0,0,1,.223.956c-.137,1.938-.314,3.871-.488,5.909h.008c.223-.208.382-.344.537-.493,1.57-1.583,3.155-3.157,4.707-4.759a4.581,4.581,0,0,1,3.813-1.425,31.465,31.465,0,0,0,12.957-1.715,24.038,24.038,0,0,0,11.41-7.913,15.451,15.451,0,0,0,.977-18.222,22.054,22.054,0,0,0-10.146-8.414,31.784,31.784,0,0,0-12.841-2.75A33.656,33.656,0,0,0-8335.466-6362.935Zm11.494,23.53v-10.254h2.258v8.323h4.062v1.931Zm-8.1-.01,0-10.244h6.233v1.862h-3.908v2.088h3.649v1.908h-3.654v2.472h4.129v1.915Zm-10.55,0v-10.259h2.239v3.938h3.845v-3.913h2.314v10.225h-2.281v-4.193h-3.836v4.2Zm26.373-.009v-10.2c1.845-.174,3.713-.49,5.533.237a2.754,2.754,0,0,1,1.744,2.627,2.966,2.966,0,0,1-1.594,3.12,10.914,10.914,0,0,1-2.392.625,5.4,5.4,0,0,1-1.04.01v3.585Zm2.353-8.608a.976.976,0,0,0-.086.216c0,.663-.013,1.342-.015,1.992,0,1.074.134,1.2,1.218,1a3.1,3.1,0,0,0,.434-.109,1.636,1.636,0,0,0,1.076-1.837,1.406,1.406,0,0,0-1.4-1.251c-.155-.013-.311-.017-.466-.017C-8313.393-6348.042-8313.646-6348.032-8313.9-6348.032Z" transform="translate(8354.001 6367)"/>
</svg>
