<svg xmlns="http://www.w3.org/2000/svg" width="50.406" height="50.406" viewBox="0 0 50.406 50.406">
  <path id="info_icon" data-name="info icon" d="M25.766.563a25.2,25.2,0,1,0,25.2,25.2A25.207,25.207,0,0,0,25.766.563Zm0,11.179A4.268,4.268,0,1,1,21.5,16.01,4.268,4.268,0,0,1,25.766,11.741Zm5.691,25.813a1.22,1.22,0,0,1-1.22,1.22H21.294a1.22,1.22,0,0,1-1.22-1.22V35.115a1.22,1.22,0,0,1,1.22-1.22h1.22v-6.5h-1.22a1.22,1.22,0,0,1-1.22-1.22V23.733a1.22,1.22,0,0,1,1.22-1.22h6.5a1.22,1.22,0,0,1,1.22,1.22V33.9h1.22a1.22,1.22,0,0,1,1.22,1.22Z" transform="translate(-0.563 -0.563)"/>
</svg>
