<svg xmlns="http://www.w3.org/2000/svg" width="66.383" height="66.415" viewBox="0 0 66.383 66.415">
  <g id="invite_for_training" data-name="invite for training" transform="translate(0.002 0.102)">
    <g id="Layer_1" data-name="Layer 1" transform="translate(-0.002 -0.102)">
      <path id="Path_820" data-name="Path 820" d="M29.011,73.89V78c-.143,0-.289.02-.434.02H4.548A4.506,4.506,0,0,1,0,73.451V36.924a4.516,4.516,0,0,1,4.559-4.547H6.206c0,.567-.031,1.116,0,1.66a7.374,7.374,0,0,0,.24,1.75,4.087,4.087,0,0,0,4.536,2.771,4.143,4.143,0,0,0,3.551-4.12V32.413H39.419c0,.539-.033,1.088,0,1.632a7.446,7.446,0,0,0,.255,1.788,4.143,4.143,0,0,0,8.051-1.364v-2.02c3.576-.587,6.194,1.292,6.2,4.626q.015,7.78,0,15.563v.442h-4.11V44.845H4.134V73.173c0,.641.072.71.715.71H29.013Z" transform="translate(0.002 -24.055)"/>
      <path id="Path_821" data-name="Path 821" d="M163.175,146.505a16.565,16.565,0,1,1-4.934-11.791A16.578,16.578,0,0,1,163.175,146.505Zm-4.125.084a12.46,12.46,0,1,0-12.166,12.4,12.471,12.471,0,0,0,12.166-12.4Z" transform="translate(-96.793 -96.726)"/>
      <path id="Path_822" data-name="Path 822" d="M40.845,97.59v8.227H32.61V97.59Z" transform="translate(-24.28 -72.636)"/>
      <path id="Path_823" data-name="Path 823" d="M81.4,97.57h8.22V105.8H81.4Z" transform="translate(-60.607 -72.621)"/>
      <path id="Path_824" data-name="Path 824" d="M130.08,97.57H138.3v8.222H130.08Z" transform="translate(-96.853 -72.621)"/>
      <path id="Path_825" data-name="Path 825" d="M32.59,154.577V146.37h8.222v8.207Z" transform="translate(-24.265 -108.956)"/>
      <path id="Path_826" data-name="Path 826" d="M81.4,146.31h8.207v8.222H81.4Z" transform="translate(-60.607 -108.912)"/>
      <path id="Path_827" data-name="Path 827" d="M36.67,6.172v4.066a2.059,2.059,0,1,1-4.115.01V2.075a2.066,2.066,0,1,1,4.13,0V6.182Z" transform="translate(-24.237 0.074)"/>
      <path id="Path_828" data-name="Path 828" d="M166.65,6.164V10.19a2.061,2.061,0,1,1-4.118.01V2.067a2.066,2.066,0,1,1,4.128,0V6.174Z" transform="translate(-121.014 0.102)"/>
      <path id="Path_829" data-name="Path 829" d="M190.271,173.382v4.761a2.443,2.443,0,1,1-4.881,0v-9.62a2.442,2.442,0,1,1,4.881-.013v4.853Z" transform="translate(-138.035 -123.565)"/>
      <path id="Path_830" data-name="Path 830" d="M173.505,190.131h-4.761a2.443,2.443,0,1,1,0-4.881h9.62a2.442,2.442,0,1,1,.013,4.881h-4.853Z" transform="translate(-123.739 -137.905)"/>
    </g>
  </g>
</svg>
