<svg xmlns="http://www.w3.org/2000/svg" width="56.712" height="42.535" viewBox="0 0 56.712 42.535">
  <path id="line" d="M54.94,39.945H7.089V6.272A1.772,1.772,0,0,0,5.317,4.5H1.772A1.772,1.772,0,0,0,0,6.272V43.49a3.545,3.545,0,0,0,3.545,3.545h51.4a1.772,1.772,0,0,0,1.772-1.772V41.718A1.772,1.772,0,0,0,54.94,39.945ZM51.4,8.045H38.318a2.658,2.658,0,0,0-1.88,4.538l3.589,3.589L31.9,24.3l-8.127-8.127a3.543,3.543,0,0,0-5.012,0l-7.609,7.609a1.772,1.772,0,0,0,0,2.507l2.506,2.506a1.772,1.772,0,0,0,2.507,0l5.1-5.1,8.127,8.127a3.543,3.543,0,0,0,5.012,0L45.04,21.184l3.589,3.589a2.658,2.658,0,0,0,4.538-1.88V9.817A1.77,1.77,0,0,0,51.4,8.045Z" transform="translate(0 -4.5)"/>
</svg>
