<svg id="make_payment" data-name="make payment" xmlns="http://www.w3.org/2000/svg" width="68.649" height="67.86" viewBox="0 0 68.649 67.86">
  <g id="Layer_1" data-name="Layer 1" transform="translate(0 0)">
    <path id="Path_804" data-name="Path 804" d="M74.027,119.768a5.349,5.349,0,0,1-3.557-3.723,6.455,6.455,0,0,1-.189-1.688q0-20.61-.021-41.217a5.584,5.584,0,0,1,5.717-5.68c7.688.062,15.379.021,23.067.023a5.487,5.487,0,0,1,5.376,4.228.873.873,0,0,1,.037.2v3.944l-2.642.256V74.2c0-1.229,0-1.229-1.22-1.229H73.7c-.692,0-.692,0-.692.692Q73.01,93.72,73,113.8c0,.523.127.669.657.666q13.779-.023,27.565,0c.461,0,.692-.1.613-.6-.023-.134.012-.277,0-.413-.051-.371.115-.48.461-.461.719.021,1.439,0,2.149,0,.394,2.939-.348,5.454-3.541,6.7-.03.012-.048.046-.074.069Z" transform="translate(-54.063 -51.908)"/>
    <path id="Path_805" data-name="Path 805" d="M0,19.448V0H21.414a2.342,2.342,0,0,1-.385.108c-.786.088-1.577.122-2.356.249A22.177,22.177,0,0,0,5.314,7.449,19.743,19.743,0,0,0,.473,16.711C.284,17.615.159,18.535,0,19.448Z" transform="translate(0 0)" fill="#fff"/>
    <path id="Path_806" data-name="Path 806" d="M0,19.448c.159-.922.284-1.844.48-2.736A19.743,19.743,0,0,1,5.321,7.449,22.14,22.14,0,0,1,18.673.357C19.452.231,20.243.2,21.029.108A2.342,2.342,0,0,0,21.414,0h1.033a2.713,2.713,0,0,0,.307.178,1.229,1.229,0,0,1,.807,1.395,1.316,1.316,0,0,1-1.24,1.044c-1.284.113-2.577.171-3.848.38A18.876,18.876,0,0,0,10.3,6.49a18.387,18.387,0,0,0-6.916,9.682,19.976,19.976,0,0,0-.719,4.781,1.239,1.239,0,0,1-.973,1.339A1.37,1.37,0,0,1,.115,21.6.6.6,0,0,0,0,21.5Z" transform="translate(0 0)"/>
    <path id="Path_807" data-name="Path 807" d="M184.8,140.138c-.012-.242-.025-.42-.025-.6,0-2.653-.037-5.3,0-7.965a5.552,5.552,0,0,0-5.7-5.662H164.7a1.042,1.042,0,0,1-.977-.507,3.624,3.624,0,0,1,.461-4.726c2.695-2.594,5.408-5.169,8.163-7.7a4.187,4.187,0,0,1,5.731.129q7.414,6.985,14.816,13.982a3.662,3.662,0,0,1,.076,5.388c-2.63,2.513-5.284,5-7.93,7.495A1.992,1.992,0,0,1,184.8,140.138Zm-4.864-20.979a5.406,5.406,0,0,0-.632-1.019c-.922-.922-1.89-1.807-2.845-2.7a1.555,1.555,0,0,0-2.264-.053c-.429.373-.841.765-1.24,1.171a1.353,1.353,0,0,0,.041,2.089q1.42,1.356,2.856,2.695a1.53,1.53,0,0,0,2.225.046,13.724,13.724,0,0,0,1.27-1.213,6.148,6.148,0,0,0,.588-1.005Z" transform="translate(-125.462 -86.11)"/>
    <path id="Path_808" data-name="Path 808" d="M138.347,179.169c3.55,0,7.1.032,10.651,0a3.978,3.978,0,0,1,3.944,3.919c-.076,3.41-.106,6.826,0,10.233a4.039,4.039,0,0,1-4.124,4.193H127.88a3.975,3.975,0,0,1-4.034-2.919,3.129,3.129,0,0,1-.1-.867c0-3.569.037-7.135-.021-10.7a3.961,3.961,0,0,1,3.855-3.848C131.168,179.188,134.762,179.169,138.347,179.169Zm0,6.955q-6.307,0-12.615-.012c-.461,0-.595.122-.59.581.021,2.206,0,4.41,0,6.616a2.647,2.647,0,0,0,2.886,2.845H148.6a2.693,2.693,0,0,0,2.944-2.96c0-2.137-.016-4.274.012-6.411,0-.519-.131-.675-.662-.673-4.182.023-8.371.014-12.557.014Zm13.117-3.458a2.586,2.586,0,0,0-2.677-2.2q-10.464-.014-20.932,0a2.67,2.67,0,0,0-2.059.922,1.794,1.794,0,0,0-.544,1.279Z" transform="translate(-95.205 -137.864)"/>
    <path id="Path_809" data-name="Path 809" d="M116.851,114.328l-1.844,1.752a25.422,25.422,0,0,0-1.98-1.6,8.291,8.291,0,0,0-11.955,3.343,7.354,7.354,0,0,0,2.036,8.735c.29.231.274.362.083.657-.378.586-.692,1.22-1.056,1.909-.364-.3-.765-.583-1.12-.922a9.553,9.553,0,0,1-3.156-9.042,9.974,9.974,0,0,1,6.349-7.7,11.215,11.215,0,0,1,12.228,2.393C116.561,113.991,116.681,114.136,116.851,114.328Z" transform="translate(-75.168 -85.103)"/>
    <path id="Path_810" data-name="Path 810" d="M23.862,37.925a15.583,15.583,0,0,1,8.587-13.057,16.437,16.437,0,0,1,8.039-1.992,1.275,1.275,0,0,1,1.452,1.259c.009.775-.558,1.268-1.452,1.282a14.235,14.235,0,0,0-8.693,2.944,12.853,12.853,0,0,0-5.2,9.3c-.035.36-.044.722-.065,1.081a1.338,1.338,0,0,1-2.663.009C23.848,38.476,23.862,38.2,23.862,37.925Z" transform="translate(-18.356 -17.602)"/>
    <path id="Path_811" data-name="Path 811" d="M44.993,53.48A11.185,11.185,0,0,1,51.909,43.8a12.74,12.74,0,0,1,4.763-1.035,1.36,1.36,0,0,1,1.515,1.282,1.323,1.323,0,0,1-1.475,1.307,9.12,9.12,0,0,0-6.536,2.75,7.923,7.923,0,0,0-2.437,5.475c-.032,1.06-.533,1.681-1.406,1.671S44.954,54.594,44.993,53.48Z" transform="translate(-34.619 -32.903)"/>
    <path id="Path_812" data-name="Path 812" d="M135.4,131.856a1.63,1.63,0,0,0-2.264-1.111,1.171,1.171,0,0,0-.846.95,1.058,1.058,0,0,0,.533,1.1c.48.3.991.549,1.494.811.258.134.528.249.793.373.735.348,1.236.733,1.047,1.747a5.01,5.01,0,0,0,.383,2c.118.445.044.611-.431.618-.825.012-1.655-.018-2.481.016-.666.028-1.33.141-2,.178a.692.692,0,0,1-.5-.205,2.836,2.836,0,0,1-.579-1.805c.489,0,.947-.016,1.4.014.088,0,.207.191.231.314.187.74.5,1.072,1.127,1.173a1.929,1.929,0,0,0,1.92-.731,1.261,1.261,0,0,0-.461-1.75c-.692-.408-1.443-.724-2.158-1.1a7,7,0,0,1-.971-.586,2.375,2.375,0,0,1-.947-2.462,2.231,2.231,0,0,1,1.676-1.787.634.634,0,0,0,.539-.761c-.018-.922-.06-.772.807-.788h.053c.922,0,.936,0,.941.922,0,.332.15.447.429.53a2.453,2.453,0,0,1,1.768,1.9c.069.281.032.438-.29.438Z" transform="translate(-100.454 -98.537)"/>
    <path id="Path_813" data-name="Path 813" d="M148.781,225.324H137.874c-.461,0-.613-.136-.574-.586a7.4,7.4,0,0,0,0-1.238c-.035-.445.106-.6.574-.592,1.293.03,2.584,0,3.878,0h17.836c.675,0,.675,0,.678.692,0,.413-.018.828,0,1.24.021.364-.122.477-.48.475-1.36-.016-2.723,0-4.083,0Z" transform="translate(-105.643 -171.52)"/>
  </g>
</svg>
