<svg xmlns="http://www.w3.org/2000/svg" width="69.044" height="19.55" viewBox="0 0 69.044 19.55">
  <path id="more" d="M-8346.715-6346a2.075,2.075,0,0,1-1.711-.918l-5.574-8.357,5.574-8.369a1.943,1.943,0,0,1,1.64-.906h15.458a2.065,2.065,0,0,1,2.061,2.061v14.427a2.067,2.067,0,0,1-2.061,2.063Zm10.749-9.275a1.542,1.542,0,0,0,1.545,1.545,1.545,1.545,0,0,0,1.548-1.545,1.547,1.547,0,0,0-1.548-1.547A1.544,1.544,0,0,0-8335.966-6355.274Zm-5.153,0a1.545,1.545,0,0,0,1.547,1.545,1.543,1.543,0,0,0,1.546-1.545,1.545,1.545,0,0,0-1.546-1.547A1.546,1.546,0,0,0-8341.119-6355.274Zm-5.151,0a1.542,1.542,0,0,0,1.545,1.545,1.543,1.543,0,0,0,1.546-1.545,1.545,1.545,0,0,0-1.546-1.547A1.544,1.544,0,0,0-8346.271-6355.274Zm53.893,4.267a4.191,4.191,0,0,1-1.095-2.977v-.312a4.622,4.622,0,0,1,1.036-3.1,3.437,3.437,0,0,1,2.778-1.212,3.423,3.423,0,0,1,2.656,1.031,3.974,3.974,0,0,1,.945,2.789v1.243h-5.049l-.015.046a2.186,2.186,0,0,0,.558,1.369,1.746,1.746,0,0,0,1.349.537,4.429,4.429,0,0,0,1.258-.151,5.973,5.973,0,0,0,1.095-.48l.616,1.409a4.213,4.213,0,0,1-1.353.7,5.813,5.813,0,0,1-1.857.279A3.8,3.8,0,0,1-8292.378-6351.008Zm1.72-5.359a2.5,2.5,0,0,0-.453,1.273l.022.04h2.8v-.2a1.841,1.841,0,0,0-.339-1.162,1.231,1.231,0,0,0-1.027-.432A1.186,1.186,0,0,0-8290.658-6356.367Zm-16.465,5.332a4.511,4.511,0,0,1-1.059-3.1v-.166a4.526,4.526,0,0,1,1.055-3.1,3.669,3.669,0,0,1,2.92-1.208,3.706,3.706,0,0,1,2.938,1.2,4.511,4.511,0,0,1,1.063,3.1v.166a4.511,4.511,0,0,1-1.06,3.1,3.7,3.7,0,0,1-2.925,1.2A3.708,3.708,0,0,1-8307.123-6351.035Zm1.625-5.1a3.633,3.633,0,0,0-.411,1.831v.164a3.664,3.664,0,0,0,.407,1.851,1.4,1.4,0,0,0,1.312.7,1.385,1.385,0,0,0,1.292-.7,3.641,3.641,0,0,0,.411-1.849v-.164a3.63,3.63,0,0,0-.413-1.834,1.406,1.406,0,0,0-1.307-.709A1.38,1.38,0,0,0-8305.5-6356.138Zm6.7,6.139v-8.454h2.118l.1,1.25a2.69,2.69,0,0,1,.769-1.036,1.722,1.722,0,0,1,1.091-.371,1.806,1.806,0,0,1,.316.027c.1.019.2.042.294.067l-.243,2.023-.837-.023a1.5,1.5,0,0,0-.835.212,1.332,1.332,0,0,0-.5.593V-6350Zm-13.259,0v-3.393l.221-5.023-.049-.006-3.046,8.422h-1.53l-3.032-8.391-.046.006.218,4.992V-6350h-2.281v-11.376h2.978l2.9,8.382h.046l2.923-8.382h2.983V-6350Z" transform="translate(8354.601 6365.049)" fill="#3b3b3b" stroke="rgba(0,0,0,0)" stroke-width="1"/>
</svg>
