<svg xmlns="http://www.w3.org/2000/svg" width="68.648" height="67.86" viewBox="0 0 68.648 67.86">
  <path id="payment" d="M-8337.593-6302.864a6.466,6.466,0,0,1-.188-1.688q0-20.608-.021-41.217a5.583,5.583,0,0,1,5.718-5.679c5.3.042,10.613.033,15.919.027q3.573-.006,7.147,0a5.485,5.485,0,0,1,5.378,4.227.961.961,0,0,1,.035.2v3.943l-2.642.256v-1.912c0-1.229,0-1.229-1.22-1.229h-26.893c-.692,0-.692,0-.692.692q0,20.054-.015,40.133c0,.524.126.668.656.667q13.781-.022,27.566,0c.461,0,.691-.1.614-.6-.023-.134.01-.277,0-.413-.051-.371.115-.48.461-.461.717.021,1.438,0,2.146,0,.4,2.939-.348,5.455-3.541,6.7-.029.013-.048.046-.073.069l-26.8.012A5.349,5.349,0,0,1-8337.593-6302.864Zm37.206-4.485h-20.937a3.978,3.978,0,0,1-4.036-2.918,3.237,3.237,0,0,1-.1-.868c0-3.568.037-7.135-.021-10.7a3.962,3.962,0,0,1,3.855-3.847c3.585.006,7.179-.013,10.764-.013,3.55,0,7.1.034,10.651,0a3.978,3.978,0,0,1,3.943,3.921c-.075,3.409-.1,6.824,0,10.233a4.031,4.031,0,0,1-1.155,2.985,4.048,4.048,0,0,1-2.885,1.208Zm-23.677-10.822c.021,2.208,0,4.411,0,6.617a2.647,2.647,0,0,0,2.887,2.845h20.576a2.693,2.693,0,0,0,2.943-2.96c0-2.137-.017-4.273.011-6.412,0-.518-.13-.675-.66-.673-4.183.023-8.372.015-12.557.015h.006q-6.308,0-12.615-.013C-8323.934-6318.752-8324.067-6318.63-8324.063-6318.171Zm.656-5.3a1.8,1.8,0,0,0-.545,1.281l26.211-.006a2.588,2.588,0,0,0-2.675-2.2q-10.466-.012-20.933,0h-.035A2.679,2.679,0,0,0-8323.407-6323.473Zm28.723,9.9c0-2.654-.035-5.3,0-7.965a5.552,5.552,0,0,0-5.7-5.663h-14.378a1.044,1.044,0,0,1-.979-.508,3.628,3.628,0,0,1,.461-4.726c2.7-2.593,5.409-5.168,8.164-7.7a4.187,4.187,0,0,1,5.732.128q7.412,6.984,14.816,13.982a3.664,3.664,0,0,1,.075,5.388c-2.631,2.512-5.285,5-7.931,7.5a2.32,2.32,0,0,1-.233.164C-8294.669-6313.215-8294.685-6313.391-8294.685-6313.571Zm-10.579-24.155c-.428.374-.841.766-1.239,1.17a1.353,1.353,0,0,0,.04,2.088q1.422,1.356,2.857,2.7a1.53,1.53,0,0,0,2.225.046,13.807,13.807,0,0,0,1.271-1.214,6.108,6.108,0,0,0,.587-1v-.006a5.37,5.37,0,0,0-.631-1.019c-.922-.923-1.891-1.808-2.845-2.7a1.7,1.7,0,0,0-1.159-.517A1.683,1.683,0,0,0-8305.264-6337.726Zm-16.506,24.53c-.462,0-.612-.136-.574-.585a7.294,7.294,0,0,0,0-1.239c-.034-.444.106-.6.574-.591,1.293.029,2.585,0,3.879,0h17.835c.675,0,.675,0,.678.692,0,.413-.018.826,0,1.239.021.365-.122.478-.48.476-1.358-.017-2.722,0-4.082,0l-6.921.008Zm-6.385-10.7a9.557,9.557,0,0,1-3.157-9.042,9.98,9.98,0,0,1,6.349-7.7,11.219,11.219,0,0,1,12.229,2.392c.126.132.245.277.417.467l-1.845,1.753q-.951-.846-1.981-1.6a8.292,8.292,0,0,0-11.955,3.342,7.359,7.359,0,0,0,2.036,8.736c.291.23.274.36.084.656-.38.585-.692,1.22-1.057,1.908C-8327.4-6323.272-8327.8-6323.559-8328.154-6323.9Zm4.829-3.314a2.856,2.856,0,0,1-.579-1.805c.488,0,.948-.017,1.4.013.089,0,.21.19.233.314.187.74.494,1.071,1.126,1.172a1.927,1.927,0,0,0,1.92-.729,1.268,1.268,0,0,0,.141-.973,1.267,1.267,0,0,0-.6-.778c-.692-.407-1.442-.723-2.157-1.1a7.182,7.182,0,0,1-.971-.585,2.377,2.377,0,0,1-.948-2.464,2.23,2.23,0,0,1,1.678-1.786c.461-.138.547-.344.538-.761-.017-.8-.05-.793.5-.789.086,0,.188,0,.306,0h.053c.922,0,.935,0,.941.922,0,.332.148.447.428.531a2.459,2.459,0,0,1,1.77,1.9c.066.281.031.438-.292.438l-1.214,0a1.628,1.628,0,0,0-2.262-1.111,1.172,1.172,0,0,0-.848.95,1.058,1.058,0,0,0,.533,1.094c.479.3.991.549,1.494.813.258.132.526.248.793.373.735.348,1.234.732,1.046,1.747a5,5,0,0,0,.384,2c.117.446.042.612-.432.618-.327,0-.654,0-.983,0-.5,0-1-.006-1.5.017-.667.027-1.329.14-2,.176h-.016A.689.689,0,0,1-8323.325-6327.211Zm-23.859-17.446a1.272,1.272,0,0,1-1.309-1.195c-.017-.273,0-.549,0-.824a15.585,15.585,0,0,1,8.588-13.058,16.434,16.434,0,0,1,8.038-1.992,1.275,1.275,0,0,1,1.453,1.258c.009.775-.558,1.268-1.453,1.283a14.239,14.239,0,0,0-8.694,2.944,12.853,12.853,0,0,0-5.2,9.3c-.036.358-.045.721-.065,1.08a1.282,1.282,0,0,1-1.277,1.208Zm4.9,0c-.874-.008-1.377-.654-1.34-1.767a11.181,11.181,0,0,1,6.917-9.682,12.707,12.707,0,0,1,4.764-1.036,1.359,1.359,0,0,1,1.514,1.281,1.324,1.324,0,0,1-1.477,1.309,9.128,9.128,0,0,0-6.535,2.749,7.927,7.927,0,0,0-2.436,5.476c-.033,1.052-.524,1.671-1.386,1.671Zm-11.6-.744a.677.677,0,0,0-.115-.1v-2.057c.159-.922.282-1.845.479-2.736a19.751,19.751,0,0,1,4.841-9.263,22.147,22.147,0,0,1,13.354-7.091c.777-.127,1.57-.161,2.356-.25a2.251,2.251,0,0,0,.384-.109h1.033a2.272,2.272,0,0,0,.307.178,1.229,1.229,0,0,1,.807,1.395,1.315,1.315,0,0,1-1.241,1.044c-1.283.113-2.576.172-3.847.381a18.877,18.877,0,0,0-8.175,3.493,18.4,18.4,0,0,0-6.917,9.682,20.033,20.033,0,0,0-.719,4.78,1.237,1.237,0,0,1-.973,1.34,1.484,1.484,0,0,1-.38.052A1.446,1.446,0,0,1-8353.885-6345.4Z" transform="translate(8354 6367)"/>
</svg>
