<svg xmlns="http://www.w3.org/2000/svg" width="60.257" height="56.712" viewBox="0 0 60.257 56.712">
  <path id="pie" d="M58.461,31.9H32.178l17.5,17.5a1.777,1.777,0,0,0,2.458.075,26.528,26.528,0,0,0,8.1-15.6A1.775,1.775,0,0,0,58.461,31.9Zm-1.753-7.178A26.647,26.647,0,0,0,31.989,0,1.782,1.782,0,0,0,30.129,1.8V26.584H54.915a1.782,1.782,0,0,0,1.793-1.861ZM24.812,31.9V5.617a1.775,1.775,0,0,0-1.976-1.779A26.565,26.565,0,0,0,.016,31.056,26.912,26.912,0,0,0,26.92,56.71,26.377,26.377,0,0,0,41.9,51.833a1.76,1.76,0,0,0,.174-2.667Z" transform="translate(0 0)"/>
</svg>
