<svg xmlns="http://www.w3.org/2000/svg" width="61.147" height="61.068" viewBox="0 0 61.147 61.068">
  <g id="refund" transform="translate(0.046 -0.003)">
    <g id="Layer_1" data-name="Layer 1" transform="translate(-0.046 0.003)">
      <path id="Path_814" data-name="Path 814" d="M32.164,60.938v-4.83c8.672.317,16.131-2.439,21.857-9.12A24.926,24.926,0,0,0,60,32.316,25.728,25.728,0,0,0,44.136,6.866c-9.592-3.839-21.81-1.313-27.722,6.008L21.569,17.3l-.25.543L6.54,20.309C7.087,14.991,7.611,9.868,8.182,4.3L12.46,9.36C19.475,2.7,27.255-.458,36.344.057A29.594,29.594,0,0,1,54.981,7.889,30.493,30.493,0,0,1,32.164,60.938Z" transform="translate(-3.928 -0.003)"/>
      <path id="Path_815" data-name="Path 815" d="M67.417,69.088H62.96c.547-2.133-.523-3.172-2.177-4.168-1.951-1.19-2.776-3.327-2.736-5.786,1.368,0,2.748-.075,4.108.048.373.032.761.615,1.015,1.023a2.537,2.537,0,0,0,4.362.313c.745-1.031.841-2.03-.424-2.744-1.622-.916-3.291-1.753-4.917-2.673-5.722-3.248-5.845-9.62-.143-12.923,1.586-.912.543-2.3,1.233-3.4h4.532a7,7,0,0,1,.127,1.424A1.9,1.9,0,0,0,69.2,42.281a7.088,7.088,0,0,1,3.807,6.476,39.5,39.5,0,0,1-4.084-.052c-.424-.048-.868-.642-1.15-1.087a2.571,2.571,0,0,0-4.156-.512c-1.043,1.126-1.019,2.2.278,3.037,1.515.979,3.172,1.769,4.723,2.661,5.924,3.371,6,9.354.289,13.086C68.127,66.379,67.972,67.815,67.417,69.088Z" transform="translate(-34.883 -23.403)"/>
      <path id="Path_816" data-name="Path 816" d="M25.856,123.086a2.589,2.589,0,0,1-2.5,2.542,2.379,2.379,0,0,1-2.585-2.379,2.526,2.526,0,0,1,2.514-2.689A2.653,2.653,0,0,1,25.856,123.086Z" transform="translate(-12.514 -72.754)"/>
      <path id="Path_817" data-name="Path 817" d="M2.546,70.828a2.459,2.459,0,1,1-.163,4.913,2.455,2.455,0,1,1,.163-4.905Z" transform="translate(0.046 -42.742)"/>
      <path id="Path_818" data-name="Path 818" d="M10.424,100.216a2.6,2.6,0,0,1-2.538,2.5,2.585,2.585,0,0,1-2.526-2.5A2.661,2.661,0,0,1,7.9,97.69,2.609,2.609,0,0,1,10.424,100.216Z" transform="translate(-3.216 -58.953)"/>
      <path id="Path_819" data-name="Path 819" d="M46.147,136a2.665,2.665,0,0,1,2.673,2.379,2.744,2.744,0,0,1-2.629,2.665,2.566,2.566,0,0,1-2.431-2.415A2.605,2.605,0,0,1,46.147,136Z" transform="translate(-26.389 -82.072)"/>
    </g>
  </g>
</svg>
