<svg xmlns="http://www.w3.org/2000/svg" width="49.4" height="43.537" viewBox="0 0 49.4 43.537">
  <g id="response" transform="translate(-0.007 0.003)">
    <g id="Layer_1" data-name="Layer 1" transform="translate(0.007 -0.003)">
      <path id="Path_831" data-name="Path 831" d="M24.366,0A31.844,31.844,0,0,1,38.491,2.982a20.024,20.024,0,0,1,8.924,7.682,12.645,12.645,0,0,1,1.3,10.928,16.3,16.3,0,0,1-6.093,8,29.073,29.073,0,0,1-15.429,5.423,2.229,2.229,0,0,0-.946.3C24.292,36.489,22.41,37.8,20.4,38.86A61.942,61.942,0,0,1,8.768,43.417c-.373.108-.771.263-1.017-.181s.083-.749.352-1.056c1.2-1.363,2.47-2.671,3.567-4.113A7.709,7.709,0,0,0,13.3,33.73a.684.684,0,0,0-.518-.8A22.891,22.891,0,0,1,4.65,27.847C1.3,24.528-.5,20.578.133,15.767A13.732,13.732,0,0,1,3.5,8.563,23.867,23.867,0,0,1,15.17,1.357,31.052,31.052,0,0,1,24.366,0Zm.32,19.077c1.917.2,3.724.268,5.481.6a7.924,7.924,0,0,1,5.747,3.794c.1.168.525.348.591.289a1.047,1.047,0,0,0,.382-.7,8.623,8.623,0,0,0-3.534-6.868,16.07,16.07,0,0,0-6.438-2.877c-.736-.164-1.469-.341-2.231-.519,0-1.129.018-2.231-.011-3.33-.008-.291-.1-.763-.265-.823a1.2,1.2,0,0,0-.9.211c-3.276,2.181-6.534,4.388-9.8,6.581-.883.593-.89.872-.019,1.454,3.27,2.193,6.528,4.4,9.8,6.579a1.25,1.25,0,0,0,.9.231c.163-.05.271-.524.277-.811C24.7,21.69,24.686,20.487,24.686,19.074Z" transform="translate(-0.007 0.003)"/>
    </g>
  </g>
</svg>
