<svg xmlns="http://www.w3.org/2000/svg" width="56.322" height="51.274" viewBox="0 0 56.322 51.274">
  <g id="respond" transform="translate(0.004)">
    <g id="Layer_1" data-name="Layer 1" transform="translate(-0.004)">
      <path id="Path_832" data-name="Path 832" d="M84.951,30.395c0,1.627-.02,3.177,0,4.724.02,1.135-.17,2.159-1.328,2.662a2.526,2.526,0,0,1-2.993-.807c-1.825-1.875-3.651-3.753-5.573-5.529a3.478,3.478,0,0,0-2.118-.878c-6.252-.067-12.5-.035-18.757-.041-4.429,0-6.819-2.393-6.822-6.825V6.544C47.378,2.466,49.811,0,53.863,0H83.38c3.8,0,6.351,2.411,6.395,6.213.076,6.009.061,12.02,0,18.029C89.749,27.4,88.017,29.371,84.951,30.395ZM67.9,22.865l2.776-2.718-3.32-3.057h9.736V13.164H67.378L70.3,10.1l-2.34-2.507L60.281,15.27Z" transform="translate(-33.504)"/>
      <path id="Path_833" data-name="Path 833" d="M38.849,66.169c1.17,1.191,2.384,2.34,3.475,3.6.228.263.1.939-.023,1.387a6,6,0,0,1-5.982,4.388c-6.436.023-12.9-.023-19.345.05a3.686,3.686,0,0,0-2.238.933C12.816,78.3,11,80.2,9.177,82.086c-.8.834-1.67,1.381-2.829.91a2.514,2.514,0,0,1-1.463-2.741,32.569,32.569,0,0,0-.032-3.78,1.738,1.738,0,0,0-.845-1.205,6.179,6.179,0,0,1-4-6.029C0,63.329-.02,57.414.027,51.5c.032-3.879,2.519-6.316,6.407-6.4,1.056-.023,2.112,0,3.256,0v4.271H6.606c-1.676.023-2.305.614-2.311,2.258q-.018,8.729,0,17.456c0,1.621.658,2.25,2.317,2.3.807.026,1.621,0,2.574,0v4.634a10.506,10.506,0,0,0,1.439-1.354c1.975-2.82,4.631-3.528,8.013-3.355,5.558.293,11.146.079,16.724.076,2.51,0,2.981-.474,2.984-2.955V66.441Z" transform="translate(0.004 -31.896)"/>
    </g>
  </g>
</svg>
