<svg xmlns="http://www.w3.org/2000/svg" width="40.231" height="37.559" viewBox="0 0 40.231 37.559">
  <g id="Reuse" transform="translate(0 0)">
    <g id="Layer_1" data-name="Layer 1" transform="translate(0 0)">
      <path id="Path_856" data-name="Path 856" d="M48.993,23.409,36.83,16.492l3.554-2.083c-.765-4.122-5.953-7.923-11.068-8.2C24.39,5.945,18.1,8.928,16.392,16.606a6.185,6.185,0,0,1-.7-.3c-1.282-.727-2.529-1.527-3.847-2.183-.865-.431-1.023-.877-.695-1.792a18.741,18.741,0,0,1,34.288-2.177c.162.322.338.636.539,1.012l3.021-1.65Z" transform="translate(-8.763 -0.003)"/>
      <path id="Path_857" data-name="Path 857" d="M2.942,81.9,0,83.572V69.64l12.041,6.975L8.48,78.695c1.189,4.479,6.137,8.024,11.351,8.182,6.034.182,10.341-3.317,12.756-10.47,1.751,1.012,3.491,1.988,5.188,3.037.162.1.17.664.067.946C35.312,87.3,30.429,91.574,23.186,92.818A18.436,18.436,0,0,1,3.292,82.526C3.207,82.345,3.1,82.177,2.942,81.9Z" transform="translate(0 -55.54)"/>
    </g>
  </g>
</svg>
