<svg xmlns="http://www.w3.org/2000/svg" width="60.066" height="40.546" viewBox="0 0 60.066 40.546">
  <path id="send_email" data-name="send email" d="M.072,41.023V7.659q0-.058.174-1.1l19.636,16.8L.3,42.181a4.909,4.909,0,0,1-.232-1.158ZM2.679,4.242a2.5,2.5,0,0,1,.985-.174H56.546a3.28,3.28,0,0,1,1.043.174L37.9,21.1l-2.607,2.085-5.155,4.228-5.155-4.228L22.372,21.1Zm.058,40.2L22.488,25.5l7.646,6.2,7.646-6.2L57.531,44.44a2.781,2.781,0,0,1-.985.174H3.663a2.624,2.624,0,0,1-.927-.174Zm37.65-21.084,19.578-16.8a3.457,3.457,0,0,1,.174,1.1V41.023a4.44,4.44,0,0,1-.174,1.158Z" transform="translate(-0.072 -4.068)"/>
</svg>
