<svg xmlns="http://www.w3.org/2000/svg" width="70.13" height="54.115" viewBox="0 0 70.13 54.115">
  <path id="Slider" d="M-8304.882-6314.712a1.827,1.827,0,0,1,1.826-1.828,1.827,1.827,0,0,1,1.828,1.828,1.826,1.826,0,0,1-1.828,1.826A1.826,1.826,0,0,1-8304.882-6314.712Zm-6.822,0a1.827,1.827,0,0,1,1.826-1.828,1.827,1.827,0,0,1,1.828,1.828,1.826,1.826,0,0,1-1.828,1.826A1.826,1.826,0,0,1-8311.7-6314.712Zm-7.879,0a1.827,1.827,0,0,1,1.828-1.828,1.827,1.827,0,0,1,1.826,1.828,1.826,1.826,0,0,1-1.826,1.826A1.826,1.826,0,0,1-8319.583-6314.712Zm-8.934,0a1.828,1.828,0,0,1,1.828-1.828,1.827,1.827,0,0,1,1.828,1.828,1.826,1.826,0,0,1-1.828,1.826A1.828,1.828,0,0,1-8328.517-6314.712Zm-7.877,0a1.827,1.827,0,0,1,1.826-1.828,1.827,1.827,0,0,1,1.828,1.828,1.826,1.826,0,0,1-1.828,1.826A1.826,1.826,0,0,1-8336.394-6314.712Zm-9.844-5.271V-6367h54.9v47.018Zm8.884-3.78a3.961,3.961,0,0,0,3.44-1.375c2.558-2.715,5.256-5.306,7.879-7.957.812-.815,1.574-1.654,2.3-2.4l-7.029-7.086c-3.751,3.766-7.453,7.485-11.129,11.2a1.942,1.942,0,0,0-.516,1.183c-.051,2.08-.023,4.157-.023,6.407,1.115,0,2.157-.034,3.167-.034C-8338.615-6323.821-8337.983-6323.808-8337.354-6323.763Zm8.208-.143h30.658l-16.043-14.519Zm33.835-2.524v-36.631h-47.022v26.469l11.745-11.837,9.848,10.242,5.734-6.114Zm8.159-20.62,3.281,3.973-3.281,3.2ZM-8354-6343.6l3.545-2.915v6.334Zm44.594-5.252a6.36,6.36,0,0,1-1.872-4.524,6.351,6.351,0,0,1,1.872-4.522,6.357,6.357,0,0,1,4.524-1.875,6.359,6.359,0,0,1,4.522,1.875,6.355,6.355,0,0,1,1.872,4.522,6.364,6.364,0,0,1-1.872,4.524,6.357,6.357,0,0,1-4.522,1.872A6.355,6.355,0,0,1-8309.406-6348.856Zm1.172-4.524a3.355,3.355,0,0,0,3.353,3.352,3.357,3.357,0,0,0,3.353-3.352,3.358,3.358,0,0,0-3.353-3.353A3.357,3.357,0,0,0-8308.234-6353.381Z" transform="translate(8354 6367)"/>
</svg>
