<svg xmlns="http://www.w3.org/2000/svg" width="70.673" height="92.063" viewBox="0 0 70.673 92.063">
  <path id="stop_clock" data-name="stop clock" d="M-8321.747-6274.937c-.922-.13-1.851-.235-2.77-.4a34.874,34.874,0,0,1-20.553-11.4,34.657,34.657,0,0,1-8.676-19.238c-.1-.8-.174-1.61-.255-2.416v-3.686c.088-.8.163-1.612.255-2.416a34.9,34.9,0,0,1,8.288-18.8c.923-1.082,1.943-2.082,2.941-3.141l-2.74-3.273-.64.491c-.467-.553-.905-1.086-1.36-1.6-.084-.1-.269-.208-.362-.176a1.883,1.883,0,0,1-2.223-.964,1.586,1.586,0,0,1,.187-2.2q1.67-1.449,3.386-2.845a1.47,1.47,0,0,1,1.846-.088c.968.749,1.556,1.644.748,2.9l1.556,1.864-.554.4,2.812,3.356a35.306,35.306,0,0,1,19.463-7.015v-1.654l-.468-.113a9.949,9.949,0,0,1-7.709-9.713,9.952,9.952,0,0,1,7.745-9.686c.4-.09.8-.166,1.2-.256h1.935c.512.113,1.047.206,1.561.34a9.946,9.946,0,0,1,7.4,9.749,9.946,9.946,0,0,1-7.656,9.546l-.554.134v1.652a35.311,35.311,0,0,1,19.538,7.076l2.227-2.65-.526-.44c.457-.543.881-1.065,1.323-1.57a.4.4,0,0,0,.064-.558,1.881,1.881,0,0,1,.722-2.495,1.609,1.609,0,0,1,2.183.094q1.553,1.3,3.1,2.608a1.635,1.635,0,0,1,.22,2.438,1.818,1.818,0,0,1-2.143.833c-.09-.03-.271.094-.358.19-.45.512-.889,1.057-1.346,1.6l-.64-.5-2.181,2.6c.625.644,1.25,1.254,1.843,1.891a34.94,34.94,0,0,1,9.14,18.645c.174,1.088.256,2.193.375,3.29.015.149.048.3.073.447v3.686c-.025.164-.059.327-.075.491-.139,1.191-.214,2.386-.417,3.566a34.576,34.576,0,0,1-7.894,16.972,34.876,34.876,0,0,1-21.417,12.068c-.813.134-1.633.239-2.448.356Zm-29.437-35.267a32.525,32.525,0,0,0,32.512,32.528,32.526,32.526,0,0,0,32.536-32.547,32.523,32.523,0,0,0-32.532-32.5A32.525,32.525,0,0,0-8351.185-6310.2Zm34.759-46.823a1.591,1.591,0,0,1,1.535,1.549c.084,1.063-.159,1.927-1.338,2.264v3.1l-.7.046,0,1.83a8.943,8.943,0,0,0,7.233-9.562,9.02,9.02,0,0,0-9.049-8.267,9.04,9.04,0,0,0-8.9,8.384,8.957,8.957,0,0,0,7.257,9.443v-1.826l-.722-.065v-2.522c0-.381-.037-.625-.465-.79a1.36,1.36,0,0,1-.846-1.279,6.846,6.846,0,0,1,0-.873,1.551,1.551,0,0,1,1.48-1.438q1.129-.022,2.256-.023T-8316.426-6357.027Zm-33.415,46.85a30.941,30.941,0,0,1,30.891-31,30.94,30.94,0,0,1,30.929,30.962,30.953,30.953,0,0,1-30.914,30.939A30.932,30.932,0,0,1-8349.841-6310.177Zm31.508,28.694c.024.6.052,1.2.077,1.805h.216v-1.818h.221c.012.3.022.6.044.9s.052.6.077.9l.22-.021v-1.805h.147c.024.313.035.629.084.938s-.105.644.295.855c-.027-.6-.059-1.21-.088-1.813l.208-.017.167,1.816.179.015a2.537,2.537,0,0,0,.053-.445c-.076-.918-.162-1.836-.237-2.755a2.742,2.742,0,0,1,.021-.39h.175q.17,1.764.342,3.53l.216-.015-.111-1.826.187-.021.256,1.822.178-.021c.146-.6-.23-1.233-.066-1.833h.163c.078.593.155,1.185.235,1.778h.194c.143-.6-.232-1.227-.106-1.828l.155-.017.3,1.788h.155c.146-.608-.221-1.224-.062-1.843.334.541.189,1.237.486,1.776l.183-.048q-.289-1.764-.587-3.524l.188-.031c.031.107.076.212.1.319.17.952.336,1.906.512,2.857a1.342,1.342,0,0,0,.157.337l.15-.059-.3-1.791.172-.036a2.777,2.777,0,0,1,.111.346c.078.358.128.725.218,1.08a1.224,1.224,0,0,0,.219.329,1.165,1.165,0,0,0,.044-.356c-.073-.409-.17-.812-.256-1.218a.846.846,0,0,1,.025-.253l.134-.021.453,1.789.207-.05c-.121-.6-.238-1.2-.356-1.791l.2-.048.453,1.771.152-.015a1.5,1.5,0,0,0,.02-.363c-.084-.388-.2-.767-.283-1.162a1.235,1.235,0,0,1,.017-.339h.137c.086.319.178.635.253.958.181.713.179.713.46.717-.3-1.151-.6-2.3-.906-3.432l.2-.061c.409,1.122.6,2.321,1.061,3.432.166-.648-.289-1.206-.224-1.851a.643.643,0,0,1,.232.308c.117.381.21.767.331,1.151.034.094.146.162.225.241,0-.671-.333-1.222-.358-1.828l.172-.042c.188.579.375,1.157.563,1.736l.143-.025a1.389,1.389,0,0,0,0-.382c-.108-.384-.256-.767-.36-1.141a1.222,1.222,0,0,1,.013-.327h.126l.583,1.71h.145a1.041,1.041,0,0,0,.013-.339c-.126-.409-.279-.813-.409-1.223a.861.861,0,0,1,0-.255l.13-.038c.216.572.432,1.147.65,1.719l.157-.042a2.065,2.065,0,0,0-.062-.423c-.312-.88-.637-1.759-.951-2.64a2.941,2.941,0,0,1-.08-.386l.17-.052,1.25,3.361.161-.05c.031-.635-.48-1.16-.512-1.789l.159-.065.69,1.7.134-.023a1.123,1.123,0,0,0,0-.353c-.145-.4-.318-.8-.47-1.2a.975.975,0,0,1-.023-.255l.151-.048.7,1.679.2-.057c-.067-.612-.514-1.132-.612-1.736l.155-.071.768,1.652c.069-.025.15-.055.148-.057-.194-.573-.394-1.143-.593-1.715a.281.281,0,0,1,.271.13c.178.374.333.768.511,1.13a1.136,1.136,0,0,0,.256.256,1.15,1.15,0,0,0-.019-.388c-.392-.868-.8-1.723-1.2-2.591a1.983,1.983,0,0,1-.084-.386l.151-.038,1.534,3.231.159-.05a1.57,1.57,0,0,0-.064-.367c-.177-.39-.375-.765-.554-1.164a.651.651,0,0,1,0-.253l.119-.04.835,1.642.2-.1-.768-1.687.179-.078c.285.539.57,1.071.857,1.61l.146-.048a1.3,1.3,0,0,0-.062-.344c-.189-.386-.4-.768-.592-1.145-.037-.075,0-.182,0-.274l.111-.017q.437.789.87,1.579l.143-.04a1.142,1.142,0,0,0-.057-.344c-.187-.371-.4-.726-.591-1.094a1.179,1.179,0,0,1-.06-.309l.135-.044.9,1.577.143-.078c-.069-.138-.133-.279-.21-.415l-3.248-5.625c-.143-.256-.234-.444.188-.512q1.824,3.16,3.651,6.323l.149-.075-.892-1.612.153-.082c.073.082.141.168.206.256.2.327.388.663.6.985a1.328,1.328,0,0,0,.283.225.96.96,0,0,0-.046-.348c-.2-.348-.426-.677-.629-1.023a1.428,1.428,0,0,1-.095-.317l.139-.061.983,1.535.153-.076a1.8,1.8,0,0,0-.115-.35c-.219-.352-.455-.692-.674-1.046a.854.854,0,0,1-.059-.274l.13-.055c.338.512.676,1.023,1.023,1.516l.149-.071a1.5,1.5,0,0,0-.113-.35c-.221-.35-.466-.686-.686-1.036a.733.733,0,0,1-.038-.3l.115-.025q.513.736.994,1.472l.159-.055a1.132,1.132,0,0,0-.1-.337c-.539-.784-1.088-1.562-1.629-2.344a2.839,2.839,0,0,1-.187-.384l.141-.083c.083.109.174.214.255.327.548.78,1.089,1.562,1.64,2.335a1.149,1.149,0,0,0,.285.2l.1-.125-1.055-1.47.189-.136,1.1,1.465.187-.13c-.351-.512-.7-1.006-1.055-1.507l.148-.12,1.151,1.432.126-.061a1.127,1.127,0,0,0-.111-.327c-.256-.348-.528-.679-.786-1.023a.9.9,0,0,1-.077-.269l.13-.063c.306.392.607.786.927,1.17a1.171,1.171,0,0,0,.293.2l.1-.127-1.119-1.419.14-.116a2.116,2.116,0,0,1,.241.212c.237.283.455.579.7.854a1.513,1.513,0,0,0,.371.224,1.826,1.826,0,0,0-.181-.407c-.576-.7-1.164-1.388-1.742-2.086a3.908,3.908,0,0,1-.243-.371l.159-.118,2.3,2.726.151-.09c0-.319-.321-.489-.491-.719s-.41-.514-.618-.749l.111-.117c.549.291.765,1.023,1.4,1.209a1.7,1.7,0,0,0-.369-.541c-.153-.172-.314-.335-.459-.511-.1-.132-.185-.279-.274-.417l.148-.092c.143.155.285.313.428.47s.3.35.466.512a3.652,3.652,0,0,0,.392.3l.115-.145-1.227-1.335.168-.166.614.644.6.591.15-.118c-.282-.545-.876-.88-1.2-1.4l.137-.13,1.3,1.277.133-.109a2.011,2.011,0,0,0-.227-.346c-.667-.679-1.345-1.35-2.013-2.027a1.926,1.926,0,0,1-.2-.281l.115-.107c.106.088.218.172.316.268.675.673,1.342,1.351,2.023,2.017a1.013,1.013,0,0,0,.314.149l.086-.159c-.235-.216-.477-.432-.7-.656s-.38-.416-.566-.623l.146-.122,1.3,1.244.127-.086a1.015,1.015,0,0,0-.15-.3c-.3-.3-.627-.587-.936-.889a1,1,0,0,1-.119-.256l.117-.082c.44.407.881.813,1.418,1.3.035-.531-.342-.629-.533-.839s-.474-.444-.713-.665l.137-.162,1.379,1.17.183-.151a13.212,13.212,0,0,1-1.311-1.319.42.42,0,0,1,.321.095c.316.256.62.547.943.809a1.018,1.018,0,0,0,.318.111l.065-.132-2.726-2.3.113-.153a2.844,2.844,0,0,1,.331.212c.768.627,1.506,1.264,2.267,1.887.064.055.192.036.289.053a.652.652,0,0,0-.115-.256c-.254-.222-.51-.426-.782-.642-.146-.126-.28-.256-.421-.4l.09-.113c.574.216.923.858,1.563.958-.365-.512-.959-.768-1.265-1.317a10.33,10.33,0,0,1,1.279.87.864.864,0,0,0,.318.071l.025-.132a7.725,7.725,0,0,1-1.336-1.187.481.481,0,0,1,.338.107c.335.256.66.512,1,.74.066.048.178.029.256.04-.034-.084-.047-.2-.107-.256-.289-.231-.595-.436-.891-.656-.13-.1-.254-.212-.378-.319l.095-.134a2.664,2.664,0,0,1,.313.166c.337.239.664.49,1.009.721a.39.39,0,0,0,.2.031.816.816,0,0,1,.1,0l.017-.13c-.863-.612-1.731-1.218-2.6-1.83a1.865,1.865,0,0,1-.253-.292l.113-.1,2.909,2.032c.067-.463-.32-.512-.538-.69a9.189,9.189,0,0,0-.8-.56l.068-.141a1.6,1.6,0,0,1,.349.13c.362.231.711.482,1.073.713.055.036.155,0,.23,0-.025-.073-.031-.178-.082-.22-.167-.13-.358-.237-.536-.354l-.826-.558.08-.141a1.072,1.072,0,0,1,.255.076c.3.184.585.392.894.568a3.38,3.38,0,0,0,.51.185,2.807,2.807,0,0,0-.388-.415c-.345-.241-.709-.455-1.067-.679l.088-.176c.256.141.512.277.768.423s.539.335.807.512l.137-.193-1.535-1.023.1-.183,1.578.929.084-.17-6.342-3.671.232-.34c2.132,1.233,4.23,2.443,6.327,3.648l.069-.109c-.409-.455-1.134-.511-1.466-1.08a4.2,4.2,0,0,1,.894.4c.642.356.642.358.855.164l-1.6-.864.051-.14a1.267,1.267,0,0,1,.316.065c.371.185.731.392,1.1.574a1.025,1.025,0,0,0,.34.038l.031-.143-1.6-.845.1-.2,1.625.807.117-.174c-.453-.417-1.145-.512-1.581-.981a.493.493,0,0,1,.342.027c.36.17.715.358,1.077.512a.988.988,0,0,0,.351.023c-.075-.09-.134-.212-.232-.256-.843-.4-1.694-.794-2.541-1.193-.137-.067-.256-.151-.4-.229l.088-.176,3.267,1.5.109-.185c-.48-.381-1.168-.476-1.606-.937a3.47,3.47,0,0,1,.943.308c.671.3.671.3.872.088l-1.669-.736.095-.214.874.371c.717.306.717.306.908.09l-1.68-.708.061-.172a2.758,2.758,0,0,1,.347.083c.386.149.767.317,1.155.455.083.032.2-.023.3-.038l-.018-.128-1.656-.669.055-.157c.621.017,1.147.535,1.791.512l.046-.155-3.356-1.256.054-.18a4.134,4.134,0,0,1,.428.1c.892.323,1.789.652,2.68.969a.946.946,0,0,0,.344,0v-.151l-1.691-.619.057-.166c.609.044,1.163.478,1.788.4-.5-.4-1.179-.386-1.642-.828a3.78,3.78,0,0,1,.975.218c.7.227.7.227.854,0l-1.726-.558.042-.176c.612.019,1.17.411,1.879.432-.223-.421-.608-.344-.881-.457a8.669,8.669,0,0,0-.9-.275l.071-.22c.306.083.614.166.923.255.75.214.75.214.885-.033l-3.431-.941.063-.216,3.44.9.055-.151c-.48-.4-1.221-.256-1.7-.692a1.76,1.76,0,0,1,.679.069c.21.048.418.1.625.157.4.1.4.1.512-.136-.554-.235-1.2-.2-1.707-.585a11.075,11.075,0,0,1,1.575.255c.073.015.165-.065.256-.1-.063-.052-.113-.138-.183-.155-.42-.1-.841-.181-1.258-.279a2.1,2.1,0,0,1-.314-.139l.044-.153,1.788.337.053-.216-1.791-.419.013-.132a1.079,1.079,0,0,1,.256-.031c.409.069.813.159,1.223.22a1.169,1.169,0,0,0,.352-.048c-.108-.073-.209-.193-.327-.216-.918-.172-1.843-.323-2.763-.491a3.191,3.191,0,0,1-.384-.124l.042-.174,3.508.589.039-.159c-.511-.348-1.236-.151-1.775-.459l.027-.151,1.79.229.027-.149c-.528-.337-1.224-.138-1.771-.478a.41.41,0,0,1,.294-.083c.44.052.88.127,1.322.176a.887.887,0,0,0,.256-.1l-.022-.122-1.776-.272.029-.195.961.1c.74.073.74.073.859-.17l-1.791-.211v-.2l1.82.12.015-.2c-1.159-.235-2.36-.187-3.519-.48a10.791,10.791,0,0,1,2,.053,14.325,14.325,0,0,0,1.556.082l.024-.2-1.828-.2.013-.134a2.262,2.262,0,0,1,.848-.031,1.983,1.983,0,0,0,.979-.08c-.576-.256-1.223-.084-1.788-.35a5.781,5.781,0,0,1,.956-.073,1.225,1.225,0,0,1,.245.017.668.668,0,0,0,.7-.212l-1.881-.14.015-.2h1.791v-.209l-1.828-.069v-.22h1.79V-6310h-7.221c-.146-.463.109-.451.369-.451h6.451c.146,0,.293-.021.438-.034v-.149h-1.766v-.157a2.57,2.57,0,0,1,.87-.069,2.351,2.351,0,0,0,.954-.1l-.017-.2h-1.791v-.178l1.791-.094.012-.172a1.816,1.816,0,0,0-.938-.042,1.981,1.981,0,0,1-.881-.021v-.157l1.788-.143.023-.143a1.152,1.152,0,0,0-.336-.092c-.413.015-.823.057-1.238.078a1.19,1.19,0,0,1-.281-.065v-.139c.313-.033.627-.048.933-.1a1.466,1.466,0,0,1,.256-.015.792.792,0,0,0,.715-.277h-.57c-.918.075-1.832.159-2.753.23a1.42,1.42,0,0,1-.36-.061l.025-.134c.1-.017.207-.034.313-.044.947-.088,1.9-.166,2.843-.256a1.665,1.665,0,0,0,.36-.128l-.037-.128a2.8,2.8,0,0,0-.843.04,2.407,2.407,0,0,1-.963.017v-.162l1.788-.209v-.17a2,2,0,0,0-.905,0,1.972,1.972,0,0,1-.939-.01.774.774,0,0,1,.4-.162c.367-.048.734-.08,1.1-.138.1-.015.183-.109.274-.168a.756.756,0,0,0-.293-.092c-.428.044-.85.117-1.279.163a1.5,1.5,0,0,1-.373-.132c.688-.256,1.336-.141,1.876-.4l-.039-.178-1.791.229-.029-.18a4,4,0,0,1,.4-.1c.349-.061.7-.1,1.042-.174a1.263,1.263,0,0,0,.323-.17,1.121,1.121,0,0,0-.38-.086c-.905.151-1.812.321-2.719.478a2.7,2.7,0,0,1-.453,0l-.017-.132a3.1,3.1,0,0,1,.4-.113c.905-.164,1.815-.314,2.719-.484a1.5,1.5,0,0,0,.371-.2l-.079-.128-.946.176c-.686.13-.686.13-.826-.067a18.049,18.049,0,0,0,1.762-.434l-.051-.185-1.79.314-.034-.19,1.774-.417-.025-.161a1.893,1.893,0,0,0-.96.119,2.128,2.128,0,0,1-.864.136l-.035-.155,1.773-.447-.021-.176a1.8,1.8,0,0,0-.362,0c-.419.1-.832.212-1.256.3-.071.017-.159-.048-.327-.1.644-.323,1.309-.256,1.81-.6l-.057-.178-3.435.893-.062-.22,3.446-.947-.035-.166a1.962,1.962,0,0,0-.874.132,1.848,1.848,0,0,1-.958.122,5.727,5.727,0,0,1,.891-.354c.254-.1.642-.046.742-.476l-1.755.476-.05-.19,1.733-.568c-.329-.306-.6-.044-.885.017s-.616.181-.927.272l-.073-.182,1.731-.631-.048-.182c-.623.013-1.172.465-1.813.417a.52.52,0,0,1,.256-.218c.346-.128.7-.229,1.04-.369a1.694,1.694,0,0,0,.337-.256,1.571,1.571,0,0,0-.442.025c-.868.306-1.728.631-2.593.941a2.344,2.344,0,0,1-.413.071l-.044-.164,3.36-1.243-.067-.218-1.777.537-.062-.182,1.676-.669v-.138a.875.875,0,0,0-.323-.017c-.4.149-.8.323-1.2.474a1.141,1.141,0,0,1-.293.036l-.042-.153,1.679-.7-.033-.153a1.354,1.354,0,0,0-.344.025c-.4.157-.795.335-1.193.495a.865.865,0,0,1-.256.017l-.044-.14,1.667-.736-.061-.187c-.616.061-1.126.539-1.764.576.415-.486,1.164-.5,1.535-1.021a15.7,15.7,0,0,0-1.711.688,6.61,6.61,0,0,1-1.61.665l-.061-.149,3.208-1.514v-.149a.862.862,0,0,0-.312,0c-.407.182-.8.392-1.208.577a.811.811,0,0,1-.283,0,3.219,3.219,0,0,1,.868-.566c.658-.325.658-.323.592-.581l-1.617.767-.09-.187,1.608-.859-.047-.143a1.384,1.384,0,0,0-.356.061c-.386.193-.767.407-1.143.6-.071.038-.178,0-.271,0l-.022-.122,1.585-.857-.084-.2c-.594.157-1.071.639-1.662.8l-.1-.151,1.581-.929-.093-.13-6.354,3.665-.181-.369,6.321-3.661-.075-.136c-.574.187-1.025.7-1.646.768a3.669,3.669,0,0,1,.768-.581c.629-.381.629-.377.581-.673l-.826.512c-.629.4-.629.4-.845.239.331-.209.658-.4.969-.616a4.853,4.853,0,0,0,.494-.461,4.385,4.385,0,0,0-.614.229c-.295.162-.565.369-.855.539-.059.036-.154,0-.234,0a3.487,3.487,0,0,1,.81-.667c.616-.4.618-.4.511-.637-.549.239-.96.744-1.585.847a10.293,10.293,0,0,1,1.229-.948c.079-.061.108-.191.163-.285l-.126-.067-2.9,2.015-.139-.191,2.915-2.059-.071-.147a1.267,1.267,0,0,0-.34.111c-.354.256-.7.511-1.049.749-.066.044-.172.027-.256.038a.376.376,0,0,1,.172-.275c.3-.22.6-.428.89-.656a2.11,2.11,0,0,0,.278-.348,1.582,1.582,0,0,0-.415.132c-.23.147-.442.329-.667.491-.159.115-.327.218-.49.323l-.1-.125a2.772,2.772,0,0,1,.258-.256c.327-.256.667-.493.985-.755.071-.057.084-.183.124-.277l-.117-.059-1.429,1.088-.13-.153,1.4-1.172-.061-.126a1.174,1.174,0,0,0-.327.115c-.342.256-.669.543-1.009.8a.727.727,0,0,1-.256.073l-.056-.126,1.394-1.138-.067-.143a.953.953,0,0,0-.308.1c-.488.4-.969.809-1.451,1.214-.356.3-.717.6-1.073.893l-.109-.109c.133-.373.528-.526.795-.782s.631-.534.947-.8l.923-.792-.073-.134a1.137,1.137,0,0,0-.323.132c-.331.27-.647.564-.979.838a.729.729,0,0,1-.256.073l-.051-.115c.256-.22.493-.442.744-.663.554-.482.554-.48.418-.7-.512.312-.852.868-1.449,1.059a3.8,3.8,0,0,1,.675-.738c.548-.495.548-.49.418-.731l-1.351,1.2-.143-.159c.229-.218.476-.428.688-.663s.526-.35.539-.692l-.214-.166c-.2.256-.395.512-.614.742s-.422.367-.633.551l-.147-.176,1.351-1.191-.137-.191a1.428,1.428,0,0,0-.326.182c-.678.667-1.349,1.344-2.021,2.017a3.727,3.727,0,0,1-.314.237l-.111-.117c.09-.1.17-.216.256-.311.684-.687,1.371-1.369,2.046-2.061.063-.065.053-.2.08-.3a.876.876,0,0,0-.256.107c-.3.293-.576.6-.87.891a1.952,1.952,0,0,1-.281.185l-.1-.122c.221-.235.438-.474.663-.711.511-.53.511-.53.4-.768-.514.342-.77.958-1.321,1.239l-.108-.128,1.218-1.316-.141-.155c-.532.313-.807.952-1.32,1.279l-.143-.128q.6-.683,1.207-1.371l-.092-.124a.991.991,0,0,0-.3.166c-.283.3-.545.627-.826.933a1.055,1.055,0,0,1-.271.161l-.084-.109q.318-.384.638-.768c.482-.555.482-.555.318-.792-.767.912-1.534,1.818-2.289,2.726l-.172-.14c.09-.124.174-.256.272-.369.612-.732,1.227-1.457,1.83-2.193.057-.067.038-.2.053-.3a.775.775,0,0,0-.254.122c-.256.287-.484.6-.731.889a3.846,3.846,0,0,1-.316.3l-.126-.113q.557-.72,1.113-1.434c-.442-.067-.526.3-.726.514s-.4.5-.605.75l-.13-.092c.042-.346.377-.528.525-.813s.512-.423.435-.908c-.568.478-.77,1.134-1.353,1.411a.906.906,0,0,1,.2-.4c.229-.311.466-.612.684-.929.046-.063.025-.176.035-.256-.081.04-.2.054-.256.117-.256.314-.47.646-.71.964-.084.1-.175.2-.269.3l-.128-.092a3.079,3.079,0,0,1,.176-.321c.223-.314.457-.616.671-.937a1.046,1.046,0,0,0,.075-.34c-.1.065-.232.1-.295.193-.554.768-1.093,1.558-1.64,2.338-.075.107-.174.2-.256.306l-.139-.09a3.283,3.283,0,0,1,.185-.35c.55-.795,1.107-1.583,1.654-2.382a.9.9,0,0,0,.073-.323l-.146-.044-1.009,1.48-.143-.086c.023-.327.314-.533.447-.812s.484-.474.285-.9l-1.011,1.535-.141-.08c.124-.614.746-1.023.872-1.638l-.139-.083-1,1.518-.14-.067a2.2,2.2,0,0,1,.14-.365c.21-.354.44-.7.65-1.059.038-.061.015-.157.019-.239-.086.034-.2.042-.256.107-.145.2-.256.417-.388.627-.146.256-.3.495-.45.742l-.206-.109.925-1.6-.159-.082q-1.834,3.167-3.661,6.332c-.423-.092-.308-.3-.17-.532q1.633-2.812,3.246-5.625c.073-.13.134-.269.2-.4l-.141-.073-.914,1.577-.141-.053a1.305,1.305,0,0,1,.078-.321c.19-.365.406-.723.589-1.092a.834.834,0,0,0,.027-.337h-.143l-.841,1.566-.168-.078a3.257,3.257,0,0,1,.132-.373c.181-.354.382-.7.554-1.061a.735.735,0,0,0,0-.306h-.145l-.826,1.589-.17-.071c.111-.608.638-1.1.724-1.713l-.185-.067-.824,1.629-.192-.1c.134-.292.256-.585.4-.875.336-.7.34-.7.124-.891l-1.514,3.235-.185-.076a2.95,2.95,0,0,1,.126-.377c.4-.878.817-1.75,1.218-2.631a1.064,1.064,0,0,0,.025-.325c-.093.076-.223.126-.269.22-.185.371-.336.767-.512,1.13-.042.09-.148.149-.227.22l-.1-.078c.2-.459.409-.914.6-1.373a1.173,1.173,0,0,0,.029-.354l-.141-.015a7.709,7.709,0,0,1-.863,1.593,3.407,3.407,0,0,1,.285-.95c.285-.669.287-.669.086-.857l-.729,1.671-.185-.086c.117-.306.232-.61.353-.912.272-.683.274-.681.075-.88l-.709,1.694-.183-.073c.069-.206.137-.411.21-.614a5.749,5.749,0,0,0,.239-.646c.035-.167.337-.39-.071-.553-.417,1.134-.828,2.246-1.241,3.361l-.185-.065a3.811,3.811,0,0,1,.1-.4c.314-.88.638-1.759.948-2.642a1.666,1.666,0,0,0,.039-.4l-.14-.027c-.3.533-.347,1.2-.768,1.665a9.995,9.995,0,0,1,.395-1.453,1.2,1.2,0,0,0,0-.365h-.155l-.587,1.719-.166-.05c-.015-.619.488-1.17.409-1.789l-.155-.036c-.193.577-.382,1.157-.57,1.738l-.21-.067.512-1.744-.117-.076c-.076.086-.183.162-.214.256-.133.409-.235.828-.367,1.235-.027.084-.13.141-.276.283.066-.738.434-1.279.306-1.918a5.487,5.487,0,0,0-.415,1.149c-.109.4-.212.8-.318,1.2-.256.938-.256.933-.535,1.046.313-1.181.612-2.325.914-3.464l-.123-.075c-.071.09-.177.17-.2.269-.115.4-.2.8-.308,1.205a1.369,1.369,0,0,1-.139.275l-.128-.038q.013-.186.044-.371c.093-.388.206-.768.283-1.164.021-.095-.051-.206-.077-.311l-.116.027-.452,1.734-.166-.042c-.027-.612.375-1.195.2-1.824-.362.528-.232,1.229-.646,1.73a.518.518,0,0,1-.029-.314c.086-.419.183-.839.256-1.262.015-.084-.061-.185-.095-.279l-.108.023q-.195.887-.391,1.768l-.2-.042.309-1.791-.143-.05a1.137,1.137,0,0,0-.161.313c-.181.947-.347,1.9-.512,2.853a3.325,3.325,0,0,1-.1.353l-.19-.036.591-3.529-.15-.048a1.24,1.24,0,0,0-.162.325c-.075.4-.128.82-.2,1.227a.855.855,0,0,1-.134.256l-.135-.048c.051-.325.091-.652.147-.977.121-.723.125-.723-.137-.826-.1.591-.2,1.174-.3,1.759l-.2-.036.115-.939c.088-.736.088-.736-.148-.9-.086.627-.166,1.227-.256,1.826l-.225-.021.185-1.834-.229-.021-.254,1.82-.174-.023v-.468c.033-.384.086-.767.115-1.146,0-.076-.077-.158-.117-.235-.3,1.193-.272,2.384-.57,3.528a.607.607,0,0,1-.084-.4c.077-.918.166-1.836.237-2.755a1.731,1.731,0,0,0-.063-.423l-.157.021-.19,1.807-.2-.025c.033-.6.064-1.208.1-1.812l-.219-.023c-.062.61-.119,1.22-.182,1.831l-.168-.015v-1.841l-.193-.017c-.046.6-.088,1.2-.134,1.788l-.193-.015c0-.306.021-.616,0-.92s.183-.635-.214-.878c-.029.6-.059,1.2-.088,1.789h-.205v-1.789h-.159v7.279c-.455.157-.447-.092-.447-.365v-6.451c0-.153-.021-.3-.031-.457h-.161v1.791h-.185l-.1-1.791h-.2c-.134.593.111,1.235-.134,1.828a4.36,4.36,0,0,1-.139-.906c-.038-.293.121-.644-.283-.868v1.788c-.358-.558-.1-1.241-.459-1.788a3.474,3.474,0,0,0-.038.922c0,.3.029.6.044.9l-.2.029c-.057-.608-.11-1.216-.165-1.828h-.187a2.708,2.708,0,0,0-.04.47c.071.887.157,1.771.232,2.659.013.151,0,.3,0,.451h-.2q-.167-1.764-.335-3.526h-.181c-.168.6.181,1.239.038,1.841h-.151l-.256-1.82-.19.023a3.433,3.433,0,0,0,0,.425c.04.382.1.768.132,1.143a1.521,1.521,0,0,1-.139.384c-.232-.71-.121-1.356-.375-1.914l-.174.034q.094.9.2,1.807l-.2.021-.285-1.771h-.151a1.137,1.137,0,0,0-.059.333c.053.413.13.82.187,1.231a1.191,1.191,0,0,1-.027.3h-.134c-.233-.562-.118-1.243-.51-1.755.051,1.2.377,2.354.371,3.552a12.99,12.99,0,0,1-.422-1.766,9.772,9.772,0,0,0-.362-1.736l-.19.044.289,1.805-.174.032c-.038-.118-.082-.233-.109-.354-.084-.407-.155-.815-.256-1.216-.017-.071-.123-.119-.19-.178-.027.078-.08.162-.067.233.086.449.193.9.281,1.348a.8.8,0,0,1-.036.256h-.134q-.217-.894-.437-1.789l-.209.042.346,1.81-.188.044q-.23-.887-.459-1.774l-.151.017a1.4,1.4,0,0,0-.015.373c.084.388.2.767.281,1.159a1.18,1.18,0,0,1-.021.332h-.134c-.088-.321-.177-.64-.256-.96-.181-.713-.177-.713-.457-.7q.453,1.714.9,3.422l-.2.059c-.4-1.122-.592-2.321-1.08-3.424-.084.631.256,1.2.269,1.828a.411.411,0,0,1-.229-.22c-.124-.4-.223-.8-.351-1.19a.729.729,0,0,0-.22-.256l-.115.092c.088.291.183.583.258.876s.143.57.214.858l-.174.048-.592-1.742-.2.055c.162.6.325,1.193.486,1.791l-.182.044q-.3-.862-.6-1.728l-.2.048c.042.614.43,1.174.512,1.79l-.183.059-.636-1.724-.159.034a1.873,1.873,0,0,0,.053.415c.309.88.633,1.761.943,2.642a2.392,2.392,0,0,1,.065.413l-.153.029q-.62-1.67-1.237-3.348l-.176.05c0,.629.472,1.162.53,1.791l-.172.069-.682-1.7-.174.052c0,.627.512,1.141.558,1.757l-.15.073-.745-1.694-.184.061c.083.614.511,1.147.551,1.791a.55.55,0,0,1-.256-.277c-.168-.377-.316-.767-.492-1.141-.036-.08-.162-.117-.256-.176l-.08.107.749,1.619-.1.082c-.077-.073-.182-.134-.224-.224-.177-.359-.319-.732-.5-1.086-.057-.109-.188-.174-.289-.255a1.294,1.294,0,0,0,.046.367c.395.864.8,1.723,1.2,2.589a1.8,1.8,0,0,1,.088.392l-.155.046-1.518-3.239-.155.048a1.325,1.325,0,0,0,.055.365c.172.377.362.742.536,1.12a.984.984,0,0,1,.053.285l-.15.057c-.279-.549-.561-1.1-.837-1.646l-.212.1.782,1.673-.188.1-.85-1.623-.15.046a1.166,1.166,0,0,0,.057.342c.188.386.4.768.591,1.143a.948.948,0,0,1,.029.277l-.128.034-.87-1.583-.141.034a1,1,0,0,0,.044.331c.181.356.386.7.57,1.053a1.777,1.777,0,0,1,.091.358l-.135.048-.9-1.573-.139.074c.069.138.13.279.208.411q1.616,2.815,3.245,5.625c.141.256.241.447-.18.512l-3.657-6.323-.148.078.9,1.614-.19.1-.952-1.549-.146.057a1.269,1.269,0,0,0,.077.333c.218.369.455.728.671,1.1a.734.734,0,0,1,.036.277l-.124.038c-.283-.453-.562-.906-.854-1.353-.037-.059-.138-.08-.209-.117,0,.088-.049.2,0,.256.22.367.465.721.688,1.086a1.406,1.406,0,0,1,.1.337l-.128.05-1.007-1.5-.13.046a1.082,1.082,0,0,0,.078.342c.229.365.479.713.71,1.076a.727.727,0,0,1,.053.277l-.121.046-1.023-1.491-.153.063a1.269,1.269,0,0,0,.115.348c.528.792,1.076,1.579,1.619,2.344a3.937,3.937,0,0,1,.188.359l-.132.1a2.515,2.515,0,0,1-.256-.293c-.539-.768-1.071-1.535-1.617-2.3a1.376,1.376,0,0,0-.32-.256,1.452,1.452,0,0,0,.115.411c.22.335.47.648.7.977a.817.817,0,0,1,.069.256l-.12.063-1.1-1.444-.166.1c.212.581.791.969,1.007,1.547l-.143.109-1.118-1.451-.138.071a1.13,1.13,0,0,0,.115.331c.232.323.492.627.729.95a1.355,1.355,0,0,1,.128.332l-.126.067c-.32-.4-.631-.813-.958-1.209a.932.932,0,0,0-.285-.151l-.08.118,1.122,1.419-.174.14-1.166-1.394-.145.073a1.366,1.366,0,0,0,.148.34c.606.736,1.223,1.463,1.831,2.193.077.107.148.218.216.333l-.157.12c-.768-.908-1.535-1.812-2.373-2.812-.107.524.255.667.425.9s.407.512.612.747l-.143.138a7.925,7.925,0,0,0-.662-.694c-.223-.191-.285-.635-.815-.533.459.512.857.964,1.254,1.413l-.1.124a1.353,1.353,0,0,1-.258-.17c-.285-.3-.549-.619-.839-.918a.952.952,0,0,0-.3-.143l-.077.126,1.227,1.331-.157.149-1.276-1.3-.126.107c.236.574.865.872,1.128,1.455a.516.516,0,0,1-.319-.125c-.3-.3-.591-.623-.9-.92-.061-.059-.188-.048-.287-.071l-.1.174c.311.272.627.539.929.82s.568.564.849.845c.688.692.688.692.638.958-.128-.115-.241-.206-.344-.306-.663-.663-1.321-1.329-1.99-1.985a1.113,1.113,0,0,0-.318-.157l-.1.161c.237.216.476.428.707.652.536.509.534.509.35.874a6.069,6.069,0,0,0-.642-.791c-.207-.18-.331-.566-.794-.463.39.562,1.006.837,1.276,1.388l-.107.1-1.408-1.277c-.071.509.325.6.512.807a9.275,9.275,0,0,0,.719.667l-.1.128c-.568-.243-.906-.826-1.5-1.071.258.591.905.847,1.2,1.417a.507.507,0,0,1-.331-.126c-.319-.256-.623-.547-.944-.807-.071-.059-.2-.046-.3-.069l-.035.132,2.7,2.281-.1.151a2.318,2.318,0,0,1-.329-.2c-.744-.619-1.482-1.248-2.229-1.862-.084-.069-.229-.061-.344-.088l-.025.134,1.364,1.137-.148.188c-.256-.2-.479-.415-.74-.585s-.417-.53-.893-.444c.448.543,1.083.765,1.423,1.29l-.106.125-1.428-1.1-.117.065c.041.094.057.222.13.281.333.273.686.512,1.022.787a1.281,1.281,0,0,1,.2.232l-.084.1a2.534,2.534,0,0,1-.28-.155c-.323-.235-.631-.489-.963-.713a.959.959,0,0,0-.337-.067,1.063,1.063,0,0,0,.174.274c.4.3.8.593,1.207.889l-.046.125a.916.916,0,0,1-.293-.073c-.353-.241-.694-.512-1.051-.747a.809.809,0,0,0-.314-.065l-.042.136,1,.711c.325.229.661.451.978.69a3.9,3.9,0,0,1,.9.7l-.124.143-2.925-2.044a1.132,1.132,0,0,0-.1.178c.47.369.947.728,1.51,1.155-.453.113-.631-.214-.874-.342a9.727,9.727,0,0,1-.829-.541l-.121.149c.371.5,1.063.65,1.44,1.17a.418.418,0,0,1-.3-.034c-.311-.195-.61-.415-.927-.6a1.855,1.855,0,0,0-.462-.128,4.015,4.015,0,0,0,.3.339,1.5,1.5,0,0,0,.271.17l.9.57-.071.151a1.359,1.359,0,0,1-.311-.107c-.342-.2-.675-.425-1.021-.623a.994.994,0,0,0-.351-.055c.076.1.126.225.225.288.413.256.841.509,1.263.765l-.095.187-1.612-.887-.073.145,6.351,3.68-.214.35-6.336-3.663-.09.141c.483.371,1.11.547,1.507,1.042a4.8,4.8,0,0,1-.885-.373c-.256-.12-.5-.417-.885-.193l1.594.885-.053.141a1.662,1.662,0,0,1-.318-.076c-.384-.195-.768-.407-1.143-.593-.082-.042-.2,0-.3,0l-.021.132,1.606.847-.107.2-1.746-.872c.115.511.512.511.749.663s.576.293.867.44l-.081.189c-.294-.13-.6-.256-.885-.392-.7-.333-.7-.338-.892-.132l3.223,1.535-.069.174a9.442,9.442,0,0,1-1.587-.682c-.528-.227-1.12-.512-1.682-.767l-.086.159c.419.472,1.17.459,1.572.985a7.185,7.185,0,0,1-.9-.3c-.28-.082-.532-.417-.889-.113l1.65.74-.093.21-.876-.371c-.715-.306-.715-.306-.91-.088l1.686.7-.084.209-1.7-.661-.086.174c.47.407,1.183.4,1.647.847a1.95,1.95,0,0,1-.9-.223,1.878,1.878,0,0,0-.891-.22l-.046.157,3.35,1.253-.054.181a3.565,3.565,0,0,1-.389-.09c-.909-.329-1.815-.667-2.726-.985a.9.9,0,0,0-.335,0v.149l1.688.621-.064.187-1.764-.533-.059.187c.514.325,1.212.311,1.66.768a4.218,4.218,0,0,1-.985-.227c-.691-.229-.691-.229-.809.021l1.7.539-.049.2-1.775-.493-.071.209,1.751.583-.055.143a2.461,2.461,0,0,1-.79-.153,1.9,1.9,0,0,0-1.021-.124c1.111.463,2.3.667,3.411,1.065l-.057.193-3.444-.9-.057.167c.494.373,1.224.256,1.7.686a3.938,3.938,0,0,1-.987-.157c-.711-.178-.711-.178-.837.069l1.753.444-.038.18a2.735,2.735,0,0,1-.32-.031c-.422-.092-.837-.2-1.258-.283-.073-.013-.164.065-.256.1.061.05.115.134.185.151.417.1.838.18,1.256.281a1.765,1.765,0,0,1,.314.139l-.046.153-1.791-.339-.05.218,1.79.415-.027.206-1.788-.321-.071.139a1.435,1.435,0,0,0,.386.19c.9.17,1.812.323,2.717.484a3.292,3.292,0,0,1,.393.118l-.038.18c-.327-.052-.656-.1-.983-.151-.742-.132-1.48-.272-2.223-.394a.967.967,0,0,0-.316.063.979.979,0,0,0,.281.2c.207.059.426.071.633.113.281.05.563.111.843.167l-.031.187-.861-.109-.931-.122-.036.155c.537.319,1.223.151,1.9.467-.43.189-.744,0-1.053,0s-.629-.222-.914.13l1.773.268-.027.2a6.956,6.956,0,0,0-.956-.086c-.285,0-.614-.256-.966.141l1.9.235v.166a3.1,3.1,0,0,1-.879-.008,2.766,2.766,0,0,0-.949.008c1.15.335,2.354.277,3.512.572a10.108,10.108,0,0,1-1.956-.048,12.157,12.157,0,0,0-1.6-.073l-.031.187,1.833.2v.151a2.7,2.7,0,0,1-.831.017,2.212,2.212,0,0,0-1,.071c.57.279,1.221.082,1.774.36a3.356,3.356,0,0,1-.963.063c-.729-.048-.729-.057-.828.216l1.773.117v.174h-1.788l-.029.162a1.466,1.466,0,0,0,.348.109c.415.019.828,0,1.243.025a.922.922,0,0,1,.256.107l-.031.149h-1.79v.134h7.307v.512h-7.29v.157h1.788v.128a1.768,1.768,0,0,1-.889.1,1.65,1.65,0,0,0-.931.122l.013.164h1.79v.185l-1.79.1v.222a3.44,3.44,0,0,0,.87-.008,3.242,3.242,0,0,1,.945.008l.013.178-1.791.139-.017.153a1.175,1.175,0,0,0,.336.082c.413-.013.825-.055,1.238-.071a.965.965,0,0,1,.279.067l-.013.134c-.312.031-.627.046-.935.1a1.539,1.539,0,0,1-.256.01.79.79,0,0,0-.718.279h.577c.916-.078,1.834-.162,2.753-.235a1.737,1.737,0,0,1,.362.063l-.025.134c-.1.017-.209.033-.314.044-.947.088-1.9.17-2.843.256a1.671,1.671,0,0,0-.36.13l.044.126a2.827,2.827,0,0,0,.839-.042,2.375,2.375,0,0,1,.949-.017v.16l-1.788.214v.206a2.8,2.8,0,0,0,.933-.053,2.955,2.955,0,0,1,.89-.057l.022.181-1.788.255v.178a1.071,1.071,0,0,0,.285.034c.442-.05.883-.124,1.323-.174a.99.99,0,0,1,.253.083c-.589.3-1.241.2-1.771.526a2.071,2.071,0,0,0,.9-.006,1.962,1.962,0,0,1,.936.006c-.556.287-1.227.18-1.77.465l.048.185,3.5-.589.044.18a3.736,3.736,0,0,1-.394.122c-.908.159-1.816.31-2.722.482a1.582,1.582,0,0,0-.384.19l.069.12a7.741,7.741,0,0,1,1.788-.18c-.543.333-1.216.211-1.738.556l.034.146,1.788-.31.029.138c-.057.038-.106.1-.17.109-.448.1-.9.191-1.346.3-.084.019-.151.109-.227.166.1.033.205.107.3.09.434-.088.863-.2,1.3-.293a.654.654,0,0,1,.254.038v.139l-1.742.455.027.2a16.046,16.046,0,0,1,1.832-.271.634.634,0,0,1-.34.218c-.386.1-.768.187-1.159.3-.086.025-.146.134-.218.2l.071.1,3.43-.889.055.216-3.442.946.033.224c.612-.048,1.19-.375,1.815-.367-.214.3-.574.256-.854.4s-.677.027-.895.526l1.876-.512.057.206-1.736.551.025.174c.3.113.574-.115.854-.18s.618-.185.927-.279l.077.189-1.729.629.063.2,1.763-.512.053.185-1.7.631.029.167a1.74,1.74,0,0,0,.39-.044c.894-.321,1.788-.652,2.682-.973a1.834,1.834,0,0,1,.39-.048l.025.143c-1.1.47-2.256.78-3.34,1.279l.069.2,1.761-.606.059.174c-.128.061-.256.128-.381.178-.354.141-.722.256-1.071.417-.082.036-.124.159-.187.243a.887.887,0,0,0,.278,0c.417-.155.826-.335,1.241-.491a.789.789,0,0,1,.279,0l.021.136-1.66.7.015.134a1.012,1.012,0,0,0,.339,0c.4-.153.793-.332,1.191-.489a.878.878,0,0,1,.285-.017l.029.13-1.667.753.055.145c.638,0,1.13-.547,1.79-.512a3.6,3.6,0,0,1-.84.474c-.711.314-.711.314-.656.587.157-.069.31-.132.461-.2.8-.375,1.61-.768,2.417-1.128a1.992,1.992,0,0,1,.4-.084l.033.126a3.423,3.423,0,0,1-.308.176c-.887.417-1.791.828-2.665,1.252-.084.04-.128.159-.188.243a.857.857,0,0,0,.308,0c.38-.168.745-.363,1.122-.537a1.7,1.7,0,0,1,.327-.067c-.424.512-1.135.579-1.55,1.044l.1.153,1.627-.824.105.206-1.608.843.029.145a1.052,1.052,0,0,0,.342-.04c.384-.188.768-.407,1.141-.6a.773.773,0,0,1,.3,0v.115l-1.583.851.09.191c.6-.145,1.069-.619,1.654-.792l.092.138-1.556.956.093.128,6.336-3.659.194.361-6.323,3.673.078.146a7.463,7.463,0,0,1,1.649-.786,8.661,8.661,0,0,1-1.155.82,1.5,1.5,0,0,0-.272.337,1.616,1.616,0,0,0,.395-.1c.331-.191.647-.407.981-.6a1.192,1.192,0,0,1,.306-.078l.053.134c-.369.232-.744.455-1.1.7a2.35,2.35,0,0,0-.349.392,2.722,2.722,0,0,0,.512-.185c.318-.184.618-.4.933-.591a.637.637,0,0,1,.243-.027l.049.13c-.442.29-.889.57-1.325.87-.065.046-.084.162-.122.256.093,0,.2.021.271-.023.376-.239.736-.512,1.113-.736a.781.781,0,0,1,.292-.044l.029.115c-.415.283-.837.56-1.241.854a.912.912,0,0,0-.187.285l.121.084,2.906-2.027.128.176c-.925.745-1.952,1.356-2.868,2.149a.438.438,0,0,0,.356-.019c.356-.243.7-.512,1.048-.75a.808.808,0,0,1,.271-.074l.059.128-1.459,1.082.109.166c.593-.187.971-.8,1.6-.939a.805.805,0,0,1-.256.34c-.318.254-.646.474-.952.728-.062.05-.062.185-.094.279l.121.038,1.4-1.084.109.1a1.2,1.2,0,0,1-.183.258c-.3.254-.629.486-.933.747a1.207,1.207,0,0,0-.193.3.972.972,0,0,0,.34-.09c.346-.256.671-.539,1.025-.8.063-.048.17-.036.254-.05l.044.118c-.4.325-.806.648-1.2.981-.073.063-.088.187-.132.285l.126.071,2.715-2.277a1.658,1.658,0,0,1,.1.134q-1.317,1.189-2.636,2.374l.034.1a.923.923,0,0,0,.316-.1c.331-.271.646-.564.979-.836.071-.059.19-.052.291-.078a3.38,3.38,0,0,1-.682.747c-.556.484-.556.484-.448.765.256-.22.47-.449.724-.635s.375-.512.75-.434a5.88,5.88,0,0,1-.706.723c-.577.482-.577.48-.407.694l1.314-1.2.132.122a2.11,2.11,0,0,1-.211.279c-.288.277-.59.541-.87.824a.827.827,0,0,0-.13.289,1.068,1.068,0,0,0,.324-.111,6.161,6.161,0,0,0,.468-.442c.21-.2.426-.39.64-.587l.157.151-1.3,1.279.1.14a1.37,1.37,0,0,0,.333-.193c.68-.667,1.346-1.346,2.025-2.017a2.809,2.809,0,0,1,.308-.231l.109.118c-.09.109-.172.218-.258.319-.682.683-1.369,1.365-2.044,2.057-.061.065-.055.195-.078.3a.728.728,0,0,0,.256-.1c.316-.312.619-.642.934-.954a.755.755,0,0,1,.256-.1l.066.117c-.356.371-.713.74-1.061,1.118a.753.753,0,0,0-.093.256c.1-.027.225-.025.29-.09.293-.292.568-.606.855-.9a1.616,1.616,0,0,1,.278-.189l.1.118-1.214,1.354.128.141c.537-.306.812-.943,1.319-1.279l.148.13-1.21,1.375.091.122a1.018,1.018,0,0,0,.295-.164c.292-.314.564-.65.857-.964.055-.063.179-.065.271-.1a3.613,3.613,0,0,1-.582.831c-.48.558-.48.558-.321.782.784-.891,1.512-1.828,2.38-2.64a.593.593,0,0,1-.161.4c-.621.744-1.246,1.48-1.86,2.229-.057.069-.035.2-.05.3a.8.8,0,0,0,.256-.122c.256-.3.511-.621.765-.924a2.831,2.831,0,0,1,.287-.256l.139.119-1.128,1.424.124.13c.306-.069.408-.413.6-.625s.406-.512.609-.768l.137.08a1.242,1.242,0,0,1-.13.3c-.256.331-.512.652-.768.987a.974.974,0,0,0-.088.325l.132.053c.13-.166.256-.332.388-.512s.256-.373.418-.549c.11-.128.241-.237.36-.354l.117.124c-.281.377-.57.75-.841,1.136a1.556,1.556,0,0,0-.134.384,1.507,1.507,0,0,0,.356-.256c.256-.31.472-.644.715-.962.044-.061.143-.086.216-.13l.095.1-1.023,1.468.1.126a1.343,1.343,0,0,0,.31-.256c.554-.768,1.093-1.556,1.64-2.335a3.669,3.669,0,0,1,.256-.279l.128.073a2.713,2.713,0,0,1-.194.388c-.539.784-1.089,1.56-1.63,2.346a1.18,1.18,0,0,0-.092.337l.153.048,1.021-1.484.139.069a1.169,1.169,0,0,1-.107.312c-.222.348-.467.684-.686,1.036a.969.969,0,0,0-.057.325l.135.036.947-1.459.137.061a1.323,1.323,0,0,1-.1.313c-.208.34-.438.667-.642,1.011a1.11,1.11,0,0,0-.073.352.981.981,0,0,0,.291-.208c.277-.411.535-.836.8-1.258l.141.063a1.621,1.621,0,0,1-.113.354c-.216.371-.457.728-.675,1.1-.033.057,0,.153,0,.233.073-.03.176-.04.216-.095.141-.2.256-.417.386-.627.155-.255.314-.511.472-.767l.208.115c-.311.528-.625,1.057-.937,1.585l.168.088,3.656-6.326c.4.094.323.279.187.512q-1.642,2.827-3.269,5.661c-.071.122-.122.256-.183.388l.141.067.889-1.579.159.075a1.939,1.939,0,0,1-.1.329c-.2.365-.408.721-.6,1.09a.821.821,0,0,0,0,.316h.133l.861-1.574.2.094c-.143.287-.306.57-.428.866s-.434.512-.234.858a5.03,5.03,0,0,0,.511-.831c.139-.253.285-.509.428-.749l.133.084c-.122.6-.638,1.071-.713,1.69l.163.073.843-1.629.2.092c-.132.285-.292.564-.4.862s-.442.511-.192,1.023c.556-1.185,1.061-2.264,1.565-3.342l.166.059a2.67,2.67,0,0,1-.117.411c-.4.868-.806,1.726-1.2,2.594a1,1,0,0,0,0,.35c.086-.086.205-.151.256-.256.181-.371.333-.767.512-1.13.037-.082.155-.126.236-.187l.073.077-.719,1.638c.276.048.274.048.587-.671.128-.3.272-.587.409-.881l.178.082c-.119.3-.234.6-.36.9-.3.713-.3.713-.088.857.314-.511.4-1.149.841-1.591a9.983,9.983,0,0,1-.466,1.43,1.332,1.332,0,0,0-.025.363h.149q.346-.837.694-1.671l.19.082c-.113.3-.225.61-.34.914-.274.728-.276.728-.031.859q.617-1.67,1.229-3.323l.188.065c-.037.136-.062.279-.108.413-.314.878-.64,1.759-.95,2.64a1.618,1.618,0,0,0-.031.394l.15.019.646-1.709.172.067a3.686,3.686,0,0,1-.091.365c-.123.379-.256.752-.377,1.136-.027.088.027.2.046.306l.126-.019.583-1.694.153.04c.021.625-.464,1.183-.4,1.812l.16.044.563-1.755.2.061c-.163.583-.327,1.164-.488,1.747l.1.078c.075-.082.187-.151.218-.256.135-.407.237-.826.367-1.235.027-.088.128-.149.274-.314-.042.767-.448,1.306-.3,1.945a1,1,0,0,0,.223-.434c.241-.891.47-1.79.715-2.667a1.449,1.449,0,0,1,.188-.321l.128.08q-.453,1.7-.9,3.4l.117.078c.071-.088.179-.167.21-.269.113-.4.2-.8.3-1.2a1.705,1.705,0,0,1,.139-.277l.117.04a1.669,1.669,0,0,1-.021.327c-.09.386-.2.768-.283,1.16a1.075,1.075,0,0,0,.053.356l.13-.027.453-1.732.2.046q-.189.9-.382,1.791l.222.05c.153-.6.3-1.2.46-1.791l.19.057c-.1.511-.208,1-.3,1.505a.972.972,0,0,0,.055.323h.145c.124-.591.256-1.18.377-1.77l.212.042c-.1.6-.212,1.2-.316,1.789l.221.042c.316-1.151.392-2.363.693-3.516l.2.033q-.3,1.759-.593,3.527l.143.052a1.248,1.248,0,0,0,.17-.321c.077-.423.132-.849.207-1.279.017-.076.1-.139.145-.208l.12.046c-.049.325-.095.65-.149.975-.121.723-.121.723.146.845.047-.312.087-.614.139-.912s.109-.576.166-.861l.174.033c-.061.6-.124,1.206-.187,1.81l.216.025c.095-.6.185-1.208.276-1.811l.21.015c-.062.61-.124,1.222-.188,1.832l.23.027.256-1.824.143.021c.17.6-.22,1.235-.025,1.831h.179l.337-3.518.2.017c0,.157.013.314,0,.47-.077.887-.163,1.774-.234,2.661a2.1,2.1,0,0,0,.048.444l.176-.013c.031-.31.044-.623.1-.931s-.1-.642.285-.855c-.031.6-.062,1.2-.095,1.791l.221.038c.155-.589,0-1.253.2-1.83h.143v1.8l.19.019.146-1.791.182.015c0,.311-.017.621,0,.927s-.163.627.082.876l.212-.013v-1.791h.225v1.791h.157v-7.235c.438-.157.446.078.446.352v6.451a3.657,3.657,0,0,0,.021.472h.179v-1.791Zm8.227-25.453a1.042,1.042,0,0,1-.22-.717v-6.07a.988.988,0,0,1,.24-.75,1.1,1.1,0,0,1,.77-.227h2.047a5.311,5.311,0,0,1,1.4.141,2.066,2.066,0,0,1,.834.444,2.012,2.012,0,0,1,.534.763,2.676,2.676,0,0,1,.183,1.015,2.239,2.239,0,0,1-.74,1.824,3.374,3.374,0,0,1-2.207.621h-1.462v2.229a1.039,1.039,0,0,1-.227.726.736.736,0,0,1-.567.247A.744.744,0,0,1-8310.106-6306.936Zm1.375-4.16h1.074a3.249,3.249,0,0,0,.943-.117,1.1,1.1,0,0,0,.576-.388,1.154,1.154,0,0,0,.2-.7,1.187,1.187,0,0,0-.306-.849,2.04,2.04,0,0,0-1.413-.35h-1.074Zm-8.466,4.1a3.264,3.264,0,0,1-1.218-.838,3.616,3.616,0,0,1-.738-1.306,5.224,5.224,0,0,1-.249-1.648,5.1,5.1,0,0,1,.26-1.667,3.588,3.588,0,0,1,.755-1.287,3.24,3.24,0,0,1,1.2-.815,4.353,4.353,0,0,1,1.61-.281,4.207,4.207,0,0,1,2.1.5,3.208,3.208,0,0,1,1.329,1.413,4.8,4.8,0,0,1,.453,2.151,5.3,5.3,0,0,1-.247,1.659,3.622,3.622,0,0,1-.742,1.3,3.236,3.236,0,0,1-1.214.837,4.36,4.36,0,0,1-1.65.291A4.347,4.347,0,0,1-8317.2-6306.99Zm.74-6.4a1.969,1.969,0,0,0-.7.524,2.471,2.471,0,0,0-.461.879,3.957,3.957,0,0,0-.17,1.2,4.063,4.063,0,0,0,.17,1.214,2.487,2.487,0,0,0,.476.9,2.052,2.052,0,0,0,.711.535,2.15,2.15,0,0,0,.876.176,2.164,2.164,0,0,0,1.126-.306,2.125,2.125,0,0,0,.817-.946,3.65,3.65,0,0,0,.3-1.572,3.687,3.687,0,0,0-.279-1.5,2.105,2.105,0,0,0-.8-.96,2.2,2.2,0,0,0-1.19-.323A2.156,2.156,0,0,0-8316.457-6313.387Zm-7.34,6.453a1.037,1.037,0,0,1-.225-.729v-5.719h-1.74a.877.877,0,0,1-.605-.181.609.609,0,0,1-.2-.476.6.6,0,0,1,.207-.482.889.889,0,0,1,.6-.178h5.071a.891.891,0,0,1,.614.183.613.613,0,0,1,.2.478.6.6,0,0,1-.2.476.9.9,0,0,1-.612.181h-1.74v5.719a1.057,1.057,0,0,1-.22.734.741.741,0,0,1-.57.239A.743.743,0,0,1-8323.8-6306.934Zm-8.409-.2a2.556,2.556,0,0,1-.873-.847,1.92,1.92,0,0,1-.335-1.027.692.692,0,0,1,.2-.5.688.688,0,0,1,.514-.206.6.6,0,0,1,.426.162,1.27,1.27,0,0,1,.3.478,3.254,3.254,0,0,0,.322.629,1.33,1.33,0,0,0,.493.415,1.814,1.814,0,0,0,.832.164,1.889,1.889,0,0,0,1.153-.329,1,1,0,0,0,.442-.826.87.87,0,0,0-.239-.635,1.525,1.525,0,0,0-.618-.373,10.443,10.443,0,0,0-1.013-.275,7.4,7.4,0,0,1-1.419-.463,2.3,2.3,0,0,1-.908-.726,1.88,1.88,0,0,1-.336-1.143,1.978,1.978,0,0,1,.353-1.155,2.271,2.271,0,0,1,1.027-.776,4.2,4.2,0,0,1,1.579-.271,3.907,3.907,0,0,1,1.254.181,2.634,2.634,0,0,1,.878.478,2.039,2.039,0,0,1,.512.625,1.455,1.455,0,0,1,.159.64.76.76,0,0,1-.2.514.643.643,0,0,1-.5.229.574.574,0,0,1-.417-.139,1.826,1.826,0,0,1-.309-.449,2.042,2.042,0,0,0-.516-.694,1.5,1.5,0,0,0-.967-.251,1.674,1.674,0,0,0-1,.272.787.787,0,0,0-.379.652.665.665,0,0,0,.13.409,1.087,1.087,0,0,0,.354.3,2.321,2.321,0,0,0,.455.193c.155.046.408.115.763.2a11.839,11.839,0,0,1,1.206.344,3.694,3.694,0,0,1,.918.457,1.852,1.852,0,0,1,.591.679,2.166,2.166,0,0,1,.212,1.006,2.319,2.319,0,0,1-.366,1.285,2.464,2.464,0,0,1-1.078.891,4.042,4.042,0,0,1-1.682.323A3.785,3.785,0,0,1-8332.206-6307.13Z" transform="translate(8354 6367)"/>
</svg>
