<svg xmlns="http://www.w3.org/2000/svg" width="58.737" height="40.382" viewBox="0 0 58.737 40.382">
  <path id="unshare" d="M-8333.809-6334.189a7.432,7.432,0,0,1,.181-1.644l-8.085-5.053a7.538,7.538,0,0,1-4.717,1.648,7.571,7.571,0,0,1-7.57-7.571,7.572,7.572,0,0,1,7.57-7.573,7.538,7.538,0,0,1,4.717,1.647l8.085-5.05a7.613,7.613,0,0,1-.181-1.644,7.572,7.572,0,0,1,7.571-7.573,7.572,7.572,0,0,1,7.572,7.573,7.572,7.572,0,0,1-7.572,7.571,7.539,7.539,0,0,1-4.716-1.648l-8.082,5.053a7.619,7.619,0,0,1,0,3.288l8.082,5.053a7.544,7.544,0,0,1,4.716-1.65,7.572,7.572,0,0,1,7.572,7.573,7.57,7.57,0,0,1-7.572,7.571A7.571,7.571,0,0,1-8333.809-6334.189Zm30.283-11.678-6.612,6.612-1.652-1.654,6.61-6.61-6.61-6.61,1.652-1.652,6.612,6.611,6.608-6.611,1.654,1.652-6.61,6.61,6.61,6.61-1.654,1.654Z" transform="translate(8354 6367)"/>
</svg>
