<?xml version="1.0" encoding="utf-8"?>
<!-- Generator: Adobe Illustrator 24.0.0, SVG Export Plug-In . SVG Version: 6.00 Build 0)  -->
<svg version="1.1" id="Layer_1" xmlns="http://www.w3.org/2000/svg" xmlns:xlink="http://www.w3.org/1999/xlink" x="0px" y="0px"
	 viewBox="0 0 200 200" style="enable-background:new 0 0 200 200;" xml:space="preserve">
<path d="M57.3,87.1c0-0.2,0-0.6,0-1c0-17.4,0-34.7,0-52.1c0-2.1,0.8-3.4,2.7-4.3c13.4-6.3,26.8-12.7,40.1-19.1
	c1.5-0.7,2.8-0.7,4.3,0c12.6,6.5,25.3,12.9,37.9,19.2c1.6,0.8,2.3,2,2.3,3.8c0,17.5,0,34.9,0,52.4c0,0.5,0,0.9,0,1.6
	c1.9-0.9,3.4,0.3,4.9,1c12.2,6.2,24.3,12.3,36.5,18.5c1.7,0.9,2.5,2.1,2.5,4c0,17.4,0,34.8,0,52.2c0,2-0.7,3.2-2.4,4.2
	c-13.1,7.2-26.2,14.5-39.3,21.7c-1.1,0.6-2.4,0.6-3.5,0c-13.2-7.3-26.5-14.5-39.7-21.8c-1.7-0.9-2.4-2.2-2.4-4.1
	c0-16.5,0-33.1,0-49.6c0-0.5,0-0.9,0-1.4c-0.6-0.1-1.2-0.2-1.9-0.4c0,0.5,0,1,0,1.4c0,16.5,0,33,0,49.5c0,2.3-0.8,3.7-2.9,4.8
	c-13.1,7.1-26.1,14.3-39.2,21.4c-1.2,0.6-2.4,0.7-3.6,0.1c-13.2-7.3-26.5-14.5-39.7-21.8c-1.7-0.9-2.4-2.2-2.4-4.1
	c0-17.4,0-34.9,0-52.3c0-1.9,0.8-3.1,2.5-4c13.3-6.3,26.5-12.6,39.7-18.8C54.8,87.9,56,87.6,57.3,87.1z M125.6,135.5
	c-2.6-1.2-5-2.3-7.4-3.5c-0.2-0.1-0.4-0.7-0.4-1c0-2.8,0-5.7,0-8.5c0-0.7-0.2-1.1-0.9-1.5c-2.8-1.5-5.6-3.1-8.4-4.6
	c-0.3-0.2-0.7-0.3-1.1-0.5c0,0.4-0.1,0.7-0.1,0.9c0,15,0,29.9,0,44.9c0,0.8,0.3,1.1,0.9,1.4c10.8,5.9,21.5,11.8,32.3,17.7
	c0.3,0.2,0.6,0.3,1.1,0.5c0-0.5,0.1-0.8,0.1-1.1c0-14.9,0-29.8,0-44.7c0-0.7-0.2-1.1-0.9-1.5c-4.8-2.6-9.6-5.2-14.3-7.8
	c-0.2-0.1-0.5-0.2-0.9-0.4C125.6,129,125.6,132.1,125.6,135.5z M36,125.8c0,3.2,0,6.3,0,9.7c-2.5-1.2-4.7-2.2-7-3.3
	c-0.6-0.3-0.8-0.7-0.8-1.4c0-2.8,0-5.6,0-8.4c0-0.7-0.2-1.1-0.8-1.5c-2.9-1.5-5.7-3.1-8.5-4.7c-0.3-0.2-0.6-0.3-1.1-0.5
	c0,0.6,0,1,0,1.4c0,14.7,0,29.4,0,44.1c0,0.9,0.3,1.4,1.1,1.9c10.7,5.8,21.4,11.7,32.1,17.6c0.3,0.2,0.6,0.3,1.1,0.5
	c0-0.5,0.1-0.8,0.1-1.1c0-14.9,0-29.8,0-44.7c0-0.7-0.2-1.1-0.9-1.5c-4.8-2.6-9.5-5.2-14.2-7.8C36.7,126.1,36.5,126,36,125.8z
	 M81.8,49.5c0,3.3,0,6.4,0,9.7c-2.6-1.2-5-2.3-7.3-3.5c-0.3-0.1-0.4-0.7-0.4-1.1c0-2.8,0-5.7,0-8.5c0-0.7-0.2-1.1-0.8-1.4
	c-2.1-1.1-4.1-2.3-6.2-3.4c-1.1-0.6-2.2-1.2-3.4-1.9c0,0.5-0.1,0.8-0.1,1.2c0,14.9,0,29.8,0,44.7c0,0.8,0.3,1.2,0.9,1.5
	c10.8,5.9,21.5,11.8,32.3,17.7c0.3,0.2,0.6,0.3,1.1,0.5c0-0.5,0.1-0.8,0.1-1.1c0-14.9,0-29.8,0-44.7c0-0.7-0.2-1.1-0.9-1.5
	c-4.7-2.6-9.4-5.2-14.2-7.7C82.6,49.8,82.3,49.7,81.8,49.5z M39.7,120.6c0.5,0.3,0.7,0.4,1,0.6c4.5,2.5,9,4.9,13.6,7.4
	c0.7,0.4,1.2,0.4,1.9,0c10.6-5.8,21.2-11.7,31.8-17.5c0.3-0.1,0.5-0.3,0.9-0.6c-0.4-0.2-0.7-0.4-1-0.6c-4.3-2.2-8.6-4.3-12.9-6.6
	c-0.9-0.5-1.6-0.4-2.5,0c-10,5.3-20,10.5-30,15.7C41.6,119.6,40.8,120.1,39.7,120.6z M85.5,43.2c0.3,0.2,0.4,0.3,0.5,0.4
	c4.7,2.6,9.5,5.2,14.3,7.8c0.4,0.2,1.1,0.1,1.5-0.2c10.6-5.8,21.3-11.6,31.9-17.5c0.3-0.2,0.5-0.3,0.9-0.6c-0.5-0.3-0.8-0.4-1.1-0.6
	c-4.3-2.2-8.7-4.4-13-6.6c-0.7-0.4-1.3-0.4-2,0c-10,5.2-20,10.4-30,15.7C87.6,42.1,86.6,42.6,85.5,43.2z M129.3,120.6
	c0.5,0.3,0.8,0.5,1.1,0.7c4.5,2.4,8.9,4.9,13.4,7.3c0.8,0.4,1.3,0.4,2,0c10.5-5.8,21-11.6,31.6-17.3c0.3-0.2,0.7-0.4,1.1-0.7
	c-0.3-0.2-0.4-0.3-0.6-0.4c-4.6-2.4-9.2-4.7-13.9-7c-0.4-0.2-1.1-0.1-1.5,0.1c-7.5,3.8-14.9,7.7-22.3,11.6
	C136.7,116.8,133.1,118.6,129.3,120.6z M69.5,34.3c3.3,1.8,6.4,3.5,9.5,5.1c0.3,0.2,0.9,0,1.3-0.2c10.6-5.5,21.2-11,31.8-16.6
	c0.3-0.2,0.6-0.4,1-0.6c-2.7-1.4-5.2-2.6-7.7-3.9c-0.7-0.4-1.3-0.4-2,0c-9.4,4.5-18.8,9-28.2,13.4C73.4,32.5,71.6,33.4,69.5,34.3z
	 M21.6,110.6c0.5,0.3,0.8,0.5,1.1,0.7c2.6,1.4,5.2,2.8,7.7,4.3c0.7,0.4,1.3,0.4,2,0C43.1,110,53.7,104.5,64.3,99
	c0.2-0.1,0.5-0.3,0.8-0.5c-0.4-0.2-0.7-0.4-1-0.5c-2.2-1.1-4.4-2.2-6.6-3.4c-0.8-0.4-1.4-0.4-2.1,0c-7.3,3.5-14.6,7-21.9,10.4
	C29.6,106.8,25.7,108.7,21.6,110.6z M154.8,98.5c-3-1.5-5.7-2.9-8.4-4.2c-0.3-0.1-0.8,0-1.1,0.2c-11,5.2-22,10.4-33,15.7
	c-0.3,0.1-0.6,0.3-1,0.5c0.4,0.3,0.7,0.5,1,0.6c2.5,1.4,5,2.7,7.4,4.1c0.9,0.5,1.7,0.6,2.6,0c7.8-4.1,15.5-8.1,23.3-12.2
	C148.6,101.7,151.6,100.2,154.8,98.5z"/>
</svg>
