<svg xmlns="http://www.w3.org/2000/svg" viewBox="0 0 401.35 266.49"><defs><style>.cls-1{fill:#2a89e2;}</style></defs><g id="Layer_2" data-name="Layer 2"><g id="Layer_1-2" data-name="Layer 1"><path class="cls-1" d="M306.54,101.69l-137,81.87c-.16.13-.34.25-.48.39a20.07,20.07,0,0,0,11.71,35.31,20.37,20.37,0,0,0,15.09-5.33L301.6,109.47l6-5.88C311.33,99.84,310.79,98.46,306.54,101.69Z"/><path class="cls-1" d="M200.65,0C90.35-.51.51,88.49,0,198.8a199.46,199.46,0,0,0,9.54,61.9,8.36,8.36,0,0,0,8,5.79H383.78a8.36,8.36,0,0,0,8-5.79c33.68-105-24.17-217.48-129.21-251.16A199.42,199.42,0,0,0,200.65,0ZM359.49,208.2H384a181.54,181.54,0,0,1-6.4,41.63H23.72a182.1,182.1,0,0,1-6.41-41.63h24.5a8.36,8.36,0,0,0,0-16.72H17.14a181.34,181.34,0,0,1,20.35-75.82L58.91,128a8.33,8.33,0,1,0,8.36-14.41L45.9,101.28a184.79,184.79,0,0,1,55.77-55.55L114,67a8.36,8.36,0,0,0,14.47-8.36L116.09,37.34a183.09,183.09,0,0,1,76.2-20.27V41.64a8.36,8.36,0,1,0,16.72,0V17.07A183,183,0,0,1,285.2,37.34L272.83,58.67A8.35,8.35,0,0,0,287.31,67l12.34-21.3a184.72,184.72,0,0,1,55.76,55.54L334,113.53a8.33,8.33,0,0,0,8.36,14.41l21.42-12.32a181.37,181.37,0,0,1,20.33,75.89H359.49a8.36,8.36,0,0,0,0,16.72Z"/><circle class="cls-1" cx="194.61" cy="191.43" r="33.44"/></g></g></svg>