<svg xmlns="http://www.w3.org/2000/svg" viewBox="0 0 474 398.78"><defs><style>.cls-1{fill:none;stroke:#2a89e2;stroke-miterlimit:10;stroke-width:13px;}</style></defs><g id="Layer_2" data-name="Layer 2"><g id="Layer_1-2" data-name="Layer 1"><path class="cls-1" d="M441.45,70.25H294.16l-2.42,52.67a3.47,3.47,0,0,0,.47.84,3.6,3.6,0,0,0,3.49,2.4h43.17a3.67,3.67,0,0,1,3,1.41,3.07,3.07,0,0,1,0,1.7,3,3,0,0,1-.91,3.64L237.71,219a3.92,3.92,0,0,1-5,0l-99.95-86.1a3.18,3.18,0,0,1-1-1.51c-1.63-2.1,0-5.19,3-5.19H173a3.48,3.48,0,0,0,3.51-3.35l-.81-52.56H32.55A26,26,0,0,0,6.5,96.3V366.23a26,26,0,0,0,26.05,26h408.9a26,26,0,0,0,26.05-26V96.3A26,26,0,0,0,441.45,70.25Zm-425.3,309L156.43,221.17Zm301.33-158-59,63.88a29.39,29.39,0,0,1-43,0L23.35,77,215.48,285.15a29.39,29.39,0,0,0,43,0l59-63.88-.33-.37.33.37L450.65,77,317.48,221.27,457.42,379Z"/><path class="cls-1" d="M135.52,126.17a3.38,3.38,0,0,0-3.4,4.19,4,4,0,0,0,.49.52L232.56,217a3.93,3.93,0,0,0,5,0l103.27-86.1a3.12,3.12,0,0,0,1.08-1.65,3.46,3.46,0,0,0-.39-.7,3.56,3.56,0,0,0-3.5-2.4H294.84a3.75,3.75,0,0,1-3-1.41,3.11,3.11,0,0,1-.16-1.05l0-.79a3,3,0,0,1-.2-1.2L296.67,10A3.48,3.48,0,0,0,293,6.5H178.76a3.48,3.48,0,0,0-3.65,3.36L176,69.25h.5l.82,53.55a3.49,3.49,0,0,1-3.65,3.36H135.52Z"/></g></g></svg>