<svg xmlns="http://www.w3.org/2000/svg" viewBox="0 0 149.63 204.65"><defs><style>.cls-1,.cls-2,.cls-3{fill:none;}.cls-1,.cls-2,.cls-4{stroke:#2a89e2;}.cls-1,.cls-2,.cls-3,.cls-4{stroke-miterlimit:10;stroke-width:2px;}.cls-2,.cls-3,.cls-4{stroke-linecap:round;}.cls-3{stroke:#007aff;}.cls-4{fill:#fff;}.cls-5{fill:#2a89e2;}</style></defs><g id="Layer_2" data-name="Layer 2"><g id="Layer_1-2" data-name="Layer 1"><rect id="Rectangle_583" data-name="Rectangle 583" class="cls-1" x="1" y="19.34" width="147.63" height="184.31" rx="6.73"/><rect id="Rectangle_584" data-name="Rectangle 584" class="cls-1" x="10.17" y="30.8" width="129.29" height="161.41" rx="6.73"/><line id="Line_14" data-name="Line 14" class="cls-2" x1="66.94" y1="76.6" x2="114.39" y2="76.6"/><line id="Line_15" data-name="Line 15" class="cls-2" x1="66.94" y1="114.4" x2="114.39" y2="114.4"/><line id="Line_16" data-name="Line 16" class="cls-2" x1="66.94" y1="147.57" x2="114.39" y2="147.57"/><path id="Path_414" data-name="Path 414" class="cls-3" d="M27.67,153.2l5,4.37L42.86,144"/><path id="Path_415" data-name="Path 415" class="cls-3" d="M27.86,117l5,4.37,10.2-13.52"/><path id="Path_416" data-name="Path 416" class="cls-3" d="M27.86,80.28l5,4.37,10.2-13.52"/><path id="Path_417" data-name="Path 417" class="cls-4" d="M104.6,13.84H85.34V11.55a10.55,10.55,0,1,0-21.09,0v2.29H45a11.45,11.45,0,0,0,0,22.9H104.6a11.45,11.45,0,0,0,0-22.9Z"/><path id="Rectangle_585" data-name="Rectangle 585" class="cls-5" d="M75.73,14.76h0a4.13,4.13,0,0,1,4.13,4.13V25.3a4.13,4.13,0,0,1-4.13,4.13h0a4.12,4.12,0,0,1-4.12-4.13V18.89A4.12,4.12,0,0,1,75.73,14.76Z"/></g></g></svg>