<svg xmlns="http://www.w3.org/2000/svg" viewBox="0 0 485 483.65"><defs><style>.cls-1{fill:#2a89e2;}.cls-2{fill:#fff;}</style></defs><g id="Layer_2" data-name="Layer 2"><g id="Layer_1-2" data-name="Layer 1"><path class="cls-1" d="M60.34,134H.55c-1.81-33.36.33-64.46,14.56-93.36C28.39,13.66,50-.19,81.15,0,174.4.57,267.65.19,360.9.22c43.86,0,63.27,19.47,63.32,64q.16,144.09,0,288.18v22h60.31c2.19,34.94-3.54,65.31-26.9,90.33-13.54,14.51-31.24,19-50.51,18.91-34.27-.09-68.54,0-102.8,0q-96.92,0-193.81,0c-34.95,0-50-14.72-50.11-50.24-.26-87.07-.1-174.14-.1-261.21Zm62.73,241.35h271V189.84c0-43.27.19-86.54-.09-129.81-.15-22.46-7.37-29.55-29.07-29.57q-134-.12-268.06,0c-4.35,0-8.69.47-10.45.57,1.39,23.09,3.81,45.31,3.89,67.55.4,111.27,0,222.54.54,333.81,0,6.73,5,13.44,7.72,20.17,5.23-5.29,10.79-10.3,15.53-16,2-2.41,2.86-6.19,3.26-9.46C119.34,411,121,394.8,123.07,375.35Zm29.16,30.71c-3.57,16.55-6.72,31.09-9.83,45.51,1.62.75,2.62,1.62,3.62,1.62,88.63.12,177.26.64,265.87-.09,24.29-.2,40.14-21.1,39-47ZM30.8,102.9h31c-1.85-21.25-3.56-41-5.28-60.7H50.1C35.3,59.3,32.58,80.39,30.8,102.9Z"/><path class="cls-2" d="M123.07,375.35c-2.1,19.45-3.73,35.6-5.69,51.71-.4,3.27-1.25,7.05-3.26,9.46-4.74,5.7-10.3,10.71-15.53,16-2.69-6.73-7.69-13.44-7.72-20.17-.49-111.27-.14-222.54-.54-333.81C90.25,76.3,87.83,54.08,86.44,31c1.76-.1,6.1-.57,10.45-.57q134,0,268.06,0c21.7,0,28.92,7.11,29.07,29.57.28,43.27.09,86.54.09,129.81V375.35Zm45.53-297c2.09,12.48-3,18.74-13.72,24.76-22.68,12.77-21.31,45,1.64,58.08,9.17,5.24,19.72,8,29.17,12.83,3.48,1.77,5.61,6.21,8.35,9.43-4,2.35-8.1,6.94-11.86,6.65-12.55-1-25-3.72-38.42-5.94-2.66,7.32-5.5,15.1-8.9,24.43l32.73,11.34c.74,7.05,1.37,12.94,2,18.71h25.67c3-17.16,3-17.16,18.47-28.13,15.76-11.16,20.2-34.86,6.88-48.82-8.15-8.54-20.18-13.44-30.65-19.67-5.81-3.47-12-6.31-20.13-10.53,17.12-14.35,32.4-2.35,47.75-3.51l5.78-24.48c-12.35-6.73-32.25-3.27-27.06-25.15ZM140.41,324.39H362V296.88H140.41ZM360.16,124.1V96H268.62V124.1Zm.38,38.61H268.9V190.9h91.64Zm-92.13,93.18H360V228h-91.6Z"/><path class="cls-2" d="M152.23,406.06H450.85c1.18,25.94-14.67,46.84-39,47-88.61.73-177.24.21-265.87.09-1,0-2-.87-3.62-1.62C145.51,437.15,148.66,422.61,152.23,406.06Z"/><path class="cls-2" d="M30.8,102.9c1.78-22.51,4.5-43.6,19.3-60.7h6.39c1.72,19.72,3.43,39.45,5.28,60.7Z"/><path class="cls-1" d="M168.6,78.34h27.68c-5.19,21.88,14.71,18.42,27.06,25.15L217.56,128c-15.35,1.16-30.63-10.84-47.75,3.51,8.14,4.22,14.32,7.06,20.13,10.53,10.47,6.23,22.5,11.13,30.65,19.67,13.32,14,8.88,37.66-6.88,48.82-15.48,11-15.48,11-18.47,28.13H169.57c-.61-5.77-1.24-11.66-2-18.71l-32.73-11.34c3.4-9.33,6.24-17.11,8.9-24.43,13.46,2.22,25.87,4.95,38.42,5.94,3.76.29,7.9-4.3,11.86-6.65-2.74-3.22-4.87-7.66-8.35-9.43-9.45-4.82-20-7.59-29.17-12.83-23-13.13-24.32-45.31-1.64-58.08C165.57,97.08,170.69,90.82,168.6,78.34Z"/><path class="cls-1" d="M140.41,324.39V296.88H362v27.51Z"/><path class="cls-1" d="M360.16,124.1H268.62V96h91.54Z"/><path class="cls-1" d="M360.54,162.71V190.9H268.9V162.71Z"/><path class="cls-1" d="M268.41,255.89V228H360v27.9Z"/></g></g></svg>