<svg xmlns="http://www.w3.org/2000/svg" viewBox="0 0 388.25 497"><defs><style>.cls-1{fill:none;}.cls-1,.cls-2{stroke:#2a89e2;stroke-miterlimit:10;stroke-width:10px;}.cls-2{fill:#fff;}</style></defs><g id="Layer_2" data-name="Layer 2"><g id="Layer_1-2" data-name="Layer 1"><rect class="cls-1" x="5" y="35.33" width="378.25" height="456.67" rx="9.37"/><path class="cls-2" d="M258.57,67.62H128A31.31,31.31,0,0,1,96.66,36.31h0C96.66,19,97,5.45,128,5h130.6c30.53.45,31.31,14,31.31,31.31h0A31.31,31.31,0,0,1,258.57,67.62Z"/><line class="cls-1" x1="46.52" y1="129.89" x2="337.13" y2="129.89"/><line class="cls-1" x1="46.52" y1="170.25" x2="337.13" y2="170.25"/><line class="cls-1" x1="46.52" y1="209.46" x2="337.13" y2="209.46"/><line class="cls-1" x1="46.52" y1="244.06" x2="267.93" y2="244.06"/><line class="cls-1" x1="46.52" y1="287.88" x2="337.13" y2="287.88"/><line class="cls-1" x1="46.52" y1="327.09" x2="337.13" y2="327.09"/><line class="cls-1" x1="46.52" y1="361.69" x2="157.22" y2="361.69"/><polyline class="cls-1" points="227.57 428.57 266.78 456.25 324.44 389.36"/></g></g></svg>