<svg xmlns="http://www.w3.org/2000/svg" viewBox="0 0 426.5 399.03"><defs><style>.cls-1{fill:none;stroke-width:8px;}.cls-1,.cls-2{stroke:#4a94f0;}.cls-1,.cls-2,.cls-4,.cls-5{stroke-miterlimit:10;}.cls-2{fill:#4a94f0;stroke-width:0.5px;}.cls-3,.cls-4,.cls-5{fill:#fff;}.cls-4,.cls-5{stroke:#007aff;}.cls-4{stroke-width:5px;}.cls-5{stroke-width:10px;}</style></defs><g id="Layer_2" data-name="Layer 2"><g id="Layer_1-2" data-name="Layer 1"><rect class="cls-1" x="4" y="40.66" width="412.84" height="330.27" rx="15.69"/><rect class="cls-2" x="76.91" y="0.25" width="17.57" height="79.05" rx="5"/><rect class="cls-2" x="138.61" y="1.13" width="17.57" height="79.05" rx="5"/><rect class="cls-2" x="200.32" y="1.13" width="17.57" height="79.05" rx="5"/><rect class="cls-2" x="262.02" y="1.13" width="17.57" height="79.05" rx="5"/><rect class="cls-2" x="323.73" y="1.13" width="17.57" height="79.05" rx="5"/><rect class="cls-2" x="49.68" y="108.29" width="45.68" height="40.41"/><rect class="cls-2" x="49.68" y="169.78" width="45.68" height="40.41"/><rect class="cls-2" x="49.68" y="231.26" width="45.68" height="40.41"/><rect class="cls-2" x="49.68" y="292.75" width="45.68" height="40.41"/><rect class="cls-2" x="116.43" y="108.29" width="45.68" height="40.41"/><rect class="cls-2" x="116.43" y="169.78" width="45.68" height="40.41"/><rect class="cls-2" x="116.43" y="231.26" width="45.68" height="40.41"/><rect class="cls-2" x="116.43" y="292.75" width="45.68" height="40.41"/><rect class="cls-2" x="184.95" y="108.29" width="45.68" height="40.41"/><rect class="cls-2" x="184.95" y="169.78" width="45.68" height="40.41"/><rect class="cls-2" x="184.95" y="231.26" width="45.68" height="40.41"/><rect class="cls-2" x="184.95" y="292.75" width="45.68" height="40.41"/><rect class="cls-2" x="251.7" y="108.29" width="45.68" height="40.41"/><rect class="cls-2" x="251.7" y="169.78" width="45.68" height="40.41"/><rect class="cls-2" x="251.7" y="231.26" width="45.68" height="40.41"/><rect class="cls-2" x="251.7" y="292.75" width="45.68" height="40.41"/><rect class="cls-2" x="323.73" y="108.29" width="45.68" height="40.41"/><rect class="cls-2" x="323.73" y="169.78" width="45.68" height="40.41"/><rect class="cls-2" x="323.73" y="231.26" width="45.68" height="40.41"/><rect class="cls-2" x="323.73" y="292.75" width="45.68" height="40.41"/><circle class="cls-3" cx="321.09" cy="293.63" r="105.41"/><circle class="cls-4" cx="321.09" cy="293.63" r="87.84"/><polyline class="cls-5" points="274.54 292.75 316.7 329.64 402.78 215.45"/></g></g></svg>