<svg xmlns="http://www.w3.org/2000/svg" viewBox="0 0 374.94 472.77"><defs><style>.cls-1{fill:none;}.cls-1,.cls-2{stroke:#2a89e2;stroke-miterlimit:10;stroke-width:10px;}.cls-2,.cls-3{fill:#fff;}.cls-4{fill:#2a89e2;}</style></defs><g id="Layer_2" data-name="Layer 2"><g id="Layer_1-2" data-name="Layer 1"><rect class="cls-1" x="5" y="33.51" width="364.94" height="434.27" rx="9.37"/><path class="cls-2" d="M250.68,64.87H123.45A30,30,0,0,1,93.22,35.11v-.18c0-16.53.37-29.5,30.41-29.93H250.49c29.66.43,30.42,13.4,30.42,29.93v.18A30,30,0,0,1,250.68,64.87Z"/><line class="cls-1" x1="45.55" y1="123.78" x2="325.53" y2="123.78"/><line class="cls-1" x1="45.55" y1="161.79" x2="325.53" y2="161.79"/><line class="cls-1" x1="45.55" y1="198.85" x2="325.53" y2="198.85"/><line class="cls-1" x1="45.55" y1="232.11" x2="258.92" y2="232.11"/><line class="cls-1" x1="45.55" y1="273.92" x2="325.53" y2="273.92"/><line class="cls-1" x1="45.55" y1="310.98" x2="325.53" y2="310.98"/><line class="cls-1" x1="45.55" y1="344.24" x2="152.72" y2="344.24"/><circle class="cls-3" cx="258.92" cy="347.96" r="104.43"/><path class="cls-4" d="M197.7,392.09a8.38,8.38,0,0,0-3,.52c-6.7,3.52-10,.11-12.22-5.75-1.16-3-2.71-5.9-3.87-8.93-3.62-9.45-3.58-9.46,4.52-15.69,9.78-7.52,8.89-22.86-2.29-28.55-5.43-2.77-6-5.72-3.92-10.48,2.47-5.76,4.61-11.69,7.57-17.19.82-1.54,4.38-3,6-2.47,7.52,2.45,14,1.54,19.56-4.22,5.43-5.61,6.3-12.16,3.29-19.1-1.44-3.34-.21-5,2.54-6.23,6.67-2.9,13.39-5.7,20.12-8.48,3.24-1.33,5.25-.22,6.63,3.07,3,7.06,8.45,10.81,16.17,10.68s12.82-3.93,16.22-10.86c.79-1.62,4.32-3.4,5.85-2.89,7.08,2.35,13.91,5.47,20.8,8.37,3,1.25,3.58,3.2,2.33,6.33-2.83,7-1.91,13.5,3.61,19s11.92,6.61,19,3.84c3.35-1.31,5.48-.44,6.83,2.72,2.7,6.33,5.49,12.63,8,19,1.32,3.4.61,5.91-3.36,7.67-6.44,2.85-9.87,8.09-9.9,15.42,0,7.52,3.25,13,10,15.91,4.14,1.76,4.3,4.29,3,7.74-1.53,4.18-2.9,8.44-4.72,12.5-4.15,9.28-4.25,9.24-14.24,7.92-12.07-1.59-22.48,10.11-18.64,21.78,1.82,5.52.06,7.81-4.43,9.73-3.17,1.35-6.22,3-9.42,4.25-10.43,4.12-10.45,4.07-17.55-4.29a17,17,0,0,0-28.18,3c-2.58,4.76-5.3,5.34-9.67,3.48-5.41-2.29-10.86-4.44-16.29-6.66-4-1.62-5.2-3.81-3.8-8.47A17.56,17.56,0,0,0,197.7,392.09ZM219,418.72l19,7.56c11-18.65,31.69-17.81,42.56-.14,5.13-2.13,10.46-4.06,15.47-6.62a6,6,0,0,0,2.46-5c-2.59-17.64,9.34-29.5,27.1-26.82,1.39.21,3.84-.52,4.34-1.53,2.72-5.54,5-11.29,7.31-16.77-18.86-12.37-18.73-27.1,0-43.07l-7.74-18.39c-3.24.54-5.61,1.13-8,1.31a22,22,0,0,1-23.73-22.73c.32-9.88.33-9.92-9.19-13.61-2.79-1.08-5.68-1.91-8.45-2.82-10.42,19.33-33.51,18.39-43.06,0-4.47,1.77-9,3.59-13.48,5.33-3.86,1.49-5.36,3.3-4.24,8.16,3,12.8-7.45,25.67-20.54,26.14-3.36.12-6.75-.75-10.81-1.24l-7.55,18.8c19.07,10.32,18.38,32.77.5,42.6,1.48,3.86,3.13,7.75,4.48,11.74,1.79,5.3,4.44,8.36,10.66,5.9,1.7-.68,4-.15,6,.25C215.37,390.49,221.69,401.62,219,418.72Z"/><path class="cls-4" d="M277.66,396.45,295.47,386c-6,11.61-29.47,18.35-48,14.18-21.06-4.74-39.77-23.09-39.9-40.19,1.93,5.83,5.48,8.17,10.64,6.18-.78-6.86-2.23-13.61-2.09-20.34a34.1,34.1,0,0,1,3.72-15.15c2.92-5.35,2.08-9-2.49-13.25l-8.45,14.67c.4-15,21.65-34.57,38.09-35.15-5.57,2.06-8.53,5.3-5.9,10.92,5.93-.87,11.85-2.28,17.8-2.44,4.55-.13,9.13,1.51,13.74,2,4.95.51,9.95.6,14.93.87l.56-2.6-13-7.08c12.83-2.1,35.76,22.5,35.17,38.72l-3.53-7.4-7.53.81c.92,5.3,2.27,10.18,2.52,15.11.83,16.57-5.79,29.77-19.77,38.63C277.27,387.39,276.14,390.51,277.66,396.45Zm21.8-48.21a40.61,40.61,0,1,0-40.62,40.7A40.39,40.39,0,0,0,299.46,348.24Zm-38.1,50.48c12.3.41,13.71-.7,12.71-9.73C268.32,390,262.32,390.59,261.36,398.72Zm-16.15-2.2c11.26,4.21,12.89,3.71,15.3-4.66C254.71,390.82,248.83,389.19,245.21,396.52Zm1.72-6.51c-9.92-4.29-9.92-4.29-15.89.28C240.19,397.06,241.17,397.06,246.93,390Zm35.38-78.81c4.39,5.79,9.34,7.88,15.75,4.5C293,307.86,293,307.86,282.31,311.2ZM220,380.63c5.89,8.69,8.51,9.27,14.2,3.29C230.32,379.83,226.32,376.1,220,380.63Zm4-58.69c6.53-6.15,6.53-6.15,3-14.37l-7.61,7.68Zm81.16,4.83c-3.26-9-4.7-9.72-12.87-6.38C294.93,325.49,297.43,330.81,305.19,326.77ZM225,375.41c-4.77-7.85-5.1-8-12.3-5.33C216.37,379.1,217.09,379.42,225,375.41Zm7.14-61.85c7.28-2,6.57-6.57,5.23-12.29l-7.68,4.49Z"/><path class="cls-4" d="M274.25,347.75a15.46,15.46,0,0,1-30.91.83c-.37-8.33,6.54-15.67,15-16A15.67,15.67,0,0,1,274.25,347.75Zm-2.43.24a13,13,0,1,0-12.7,13A13.23,13.23,0,0,0,271.82,348Z"/></g></g></svg>