<svg xmlns="http://www.w3.org/2000/svg" viewBox="0 0 470.23 469.49"><defs><style>.cls-1{fill:#2a89e2;}</style></defs><g id="Layer_2" data-name="Layer 2"><g id="Layer_1-2" data-name="Layer 1"><path class="cls-1" d="M61.93,359.57c-1.83.28-5.67-.05-8.54,1.46-18.94,10-28.15.33-34.55-16.26-3.3-8.54-7.68-16.68-11-25.23-10.23-26.74-10.11-26.79,12.8-44.4,27.64-21.26,25.12-64.67-6.49-80.76C-1.17,186.56-2.66,178.2,3.1,164.74c7-16.3,13.05-33.08,21.41-48.64,2.33-4.35,12.41-8.5,17.06-7,21.28,6.93,39.56,4.35,55.33-11.93,15.37-15.86,17.82-34.39,9.32-54-4.09-9.45-.61-14.24,7.16-17.61,18.89-8.19,37.9-16.13,56.93-24,9.15-3.77,14.84-.63,18.75,8.67,8.41,20,23.91,30.58,45.73,30.22,21.63-.35,36.29-11.13,45.89-30.72C282.93,5.16,292.9.1,297.22,1.54c20,6.67,39.34,15.48,58.85,23.68,8.4,3.54,10.14,9.07,6.58,17.91-8,19.83-5.4,38.18,10.21,53.89s33.72,18.71,53.75,10.86c9.47-3.71,15.51-1.25,19.33,7.7,7.63,17.9,15.52,35.71,22.57,53.84,3.74,9.64,1.72,16.72-9.52,21.7-18.2,8.07-27.91,22.89-28,43.61-.1,21.3,9.21,36.82,28.42,45,11.69,5,12.16,12.15,8.59,21.9-4.34,11.83-8.21,23.88-13.35,35.37-11.75,26.26-12,26.14-40.3,22.41-34.12-4.5-63.58,28.59-52.71,61.59,5.14,15.63.18,22.11-12.53,27.53-9,3.82-17.59,8.47-26.64,12-29.51,11.64-29.56,11.51-49.66-12.15-22.12-26-62.93-22.5-79.7,8.43-7.31,13.47-15,15.12-27.37,9.86-15.28-6.48-30.72-12.58-46.08-18.86-11.17-4.57-14.7-10.78-10.74-23.93C118.57,391.83,95.08,359.84,61.93,359.57Zm60.15,75.33,53.76,21.39c31.14-52.75,89.66-50.39,120.41-.41,14.5-6,29.59-11.48,43.76-18.72,3.87-2,7.61-9.71,7-14.14-7.34-49.89,26.42-83.43,76.64-75.87,3.93.59,10.88-1.47,12.28-4.33,7.69-15.65,14.08-31.94,20.67-47.43-53.33-35-53-76.66-.08-121.83-7.2-17.12-14.64-34.81-21.89-52-9.17,1.54-15.86,3.21-22.63,3.72A62.31,62.31,0,0,1,344.84,61c.91-27.95.94-28.05-26-38.49-7.9-3.06-16.07-5.4-23.88-8-29.49,54.68-94.8,52-121.82-.11-12.63,5-25.34,10.16-38.13,15.09-10.92,4.2-15.16,9.34-12,23.07,8.36,36.21-21.08,72.64-58.12,73.95-9.49.33-19.08-2.1-30.58-3.51C27.18,140.75,20,158.57,13,176.13c53.94,29.21,52,92.72,1.42,120.51,4.2,10.91,8.86,21.92,12.67,33.22,5.07,15,12.57,23.63,30.15,16.68,4.82-1.91,11.42-.44,16.95.7C111.92,355.05,129.79,386.54,122.08,434.9Z"/><path class="cls-1" d="M288.12,371.9l50.39-29.68c-16.84,32.84-83.39,51.89-135.84,40.09C143.09,368.9,90.18,317,89.79,268.65c5.48,16.46,15.52,23.09,30.1,17.45-2.2-19.38-6.3-38.49-5.9-57.51.31-14.47,3.65-30.29,10.51-42.85,8.26-15.14,5.89-25.4-7-37.5-7.63,13.25-15.07,26.15-23.91,41.51C94.7,147.21,154.82,92,201.31,90.32c-15.76,5.83-24.12,15-16.69,30.89,16.78-2.47,33.51-6.44,50.34-6.92,12.89-.36,25.84,4.28,38.87,5.63,14,1.47,28.15,1.7,42.24,2.47.52-2.45,1.05-4.9,1.57-7.35L280.85,95c36.28-5.94,101.17,63.66,99.49,109.53-4.14-8.68-6.65-13.95-10-20.92l-21.31,2.29c2.6,15,6.43,28.79,7.13,42.74,2.35,46.88-16.39,84.21-55.93,109.26C287,346.28,283.83,355.1,288.12,371.9Zm61.67-136.36a114.26,114.26,0,0,0-114.9-114.86c-64.39.29-115,50.86-114.84,114.84s51.08,115.21,114.83,115.15A114.69,114.69,0,0,0,349.79,235.54ZM242,378.34c34.78,1.14,38.77-2,35.94-27.54C261.71,353.57,244.74,355.34,242,378.34Zm-45.68-6.22c31.86,11.9,36.44,10.48,43.27-13.19C223.2,356,206.56,351.37,196.34,372.12Zm4.86-18.44c-28.08-12.12-28.08-12.12-45,.8C182.13,373.63,184.89,373.63,201.2,353.68ZM301.29,130.75c12.41,16.39,26.41,22.32,44.53,12.73C331.44,121.32,331.44,121.32,301.29,130.75ZM125.05,327.16c16.66,24.59,24.08,26.22,40.18,9.3C154.22,324.9,142.9,314.36,125.05,327.16Zm11.37-166c18.48-17.4,18.48-17.4,8.49-40.64l-21.54,21.7ZM366,174.8c-9.24-25.52-13.3-27.5-36.43-18C337,171.19,344,186.25,366,174.8ZM139.08,312.41c-13.5-22.23-14.42-22.63-34.8-15.09C114.74,322.84,116.79,323.73,139.08,312.41Zm20.19-175c20.61-5.68,18.58-18.58,14.79-34.76l-21.71,12.68Z"/><path class="cls-1" d="M278.48,234.17c.53,23.64-19.55,44.19-43.4,44.39-23,.2-43-18.88-44-42.07-1.06-23.55,18.5-44.33,42.55-45.19C257.18,190.45,277.93,210.28,278.48,234.17Zm-6.89.67c-.08-20.17-17.67-37.27-37.75-36.67-19.63.58-36,17.3-35.92,36.77,0,20.1,17.77,37.33,37.76,36.71C255.25,271,271.66,254.22,271.59,234.84Z"/></g></g></svg>