<svg xmlns="http://www.w3.org/2000/svg" viewBox="0 0 443 473.64"><defs><style>.cls-1{fill:none;}.cls-1,.cls-2{stroke:#2a89e2;}.cls-1,.cls-2,.cls-5,.cls-6{stroke-miterlimit:10;}.cls-1,.cls-2,.cls-6{stroke-width:10px;}.cls-2,.cls-4,.cls-6{fill:#fff;}.cls-3{fill:#2a89e2;}.cls-5{fill:#116cb7;stroke-width:2px;}.cls-5,.cls-6{stroke:#2f88d1;}</style></defs><g id="Layer_2" data-name="Layer 2"><g id="Layer_1-2" data-name="Layer 1"><rect class="cls-1" x="5" y="68.64" width="382" height="382" rx="7.13"/><circle class="cls-1" cx="105" cy="199.64" r="72"/><polyline class="cls-1" points="70.63 201.68 97.8 226.91 138.57 172.56"/><line class="cls-1" x1="32" y1="333.64" x2="190" y2="333.64"/><line class="cls-1" x1="32" y1="378.64" x2="190" y2="378.64"/><line class="cls-1" x1="32" y1="417.64" x2="186" y2="417.64"/><rect class="cls-2" x="217" y="178.64" width="214" height="290" rx="7.13"/><rect class="cls-3" x="226" y="308.64" width="194" height="153"/><line class="cls-1" x1="390" y1="209.64" x2="430" y2="209.64"/><line class="cls-1" x1="390" y1="251.64" x2="430" y2="251.64"/><line class="cls-1" x1="391" y1="292.64" x2="429" y2="292.64"/><line class="cls-1" x1="391" y1="230.64" x2="429" y2="230.64"/><line class="cls-1" x1="391" y1="271.64" x2="429" y2="271.64"/><rect class="cls-2" x="205" y="176.64" width="233" height="19" rx="5"/><rect class="cls-4" x="222" y="187.64" width="204" height="14"/><path class="cls-5" d="M405.59,130.29c-1.87-.38-3.84.93-5,3.31L267.52,409.09c-6.72,1.59-12.28,8.21-13.36,16.73-1.32,10.49,4.66,19.88,13.36,21s16.83-6.51,18.16-17a22.09,22.09,0,0,0-1-9.84L408.3,140C410.11,135.9,408.72,130.94,405.59,130.29Z"/><path class="cls-6" d="M239.92,31.64h-8.1c0-6.82-3.5-13.63-10.49-18.84-14-10.4-36.67-10.4-50.66,0-7,5.21-10.49,12-10.49,18.84h-8.1C132.71,31.64,117,43.32,117,57.73v9.82c0,14.41,15.71,26.09,35.08,26.09h87.84C259.29,93.64,275,82,275,67.55V57.73C275,43.32,259.29,31.64,239.92,31.64Z"/></g></g></svg>