<svg xmlns="http://www.w3.org/2000/svg" width="19.002" height="19" viewBox="0 0 19.002 19">
  <path id="active" d="M1769.5-7517a9.51,9.51,0,0,1-9.5-9.5,9.511,9.511,0,0,1,9.5-9.5,9.512,9.512,0,0,1,9.5,9.5A9.511,9.511,0,0,1,1769.5-7517Zm-4.706-9.9a.993.993,0,0,0-.707.292.993.993,0,0,0-.292.707.994.994,0,0,0,.292.708l2.829,2.828a.993.993,0,0,0,.431.255,1.006,1.006,0,0,0,.645.234.986.986,0,0,0,.732-.318l6.82-7.313a1,1,0,0,0-.049-1.413,1,1,0,0,0-.682-.27,1,1,0,0,0-.732.319l-6.2,6.646-2.381-2.383A1,1,0,0,0,1764.793-7526.9Z" transform="translate(-1759.999 7536)" fill="#6dc33a"/>
</svg>
