<svg xmlns="http://www.w3.org/2000/svg" width="31.448" height="23.093" viewBox="0 0 31.448 23.093">
  <path id="Exclusion_12" data-name="Exclusion 12" d="M-4349.473-6343.908a6.934,6.934,0,0,1-6.539-4.728,10.412,10.412,0,0,1-7.43,3.106,10.351,10.351,0,0,1-6.384-2.184l-3.753,2.09a18.084,18.084,0,0,1,1.543-4.4,10.781,10.781,0,0,1-1.965-6.238A10.66,10.66,0,0,1-4363.441-6367a10.429,10.429,0,0,1,7.207,2.889,10.761,10.761,0,0,1,3.326,7.059,6.817,6.817,0,0,1,3.436-.928,6.987,6.987,0,0,1,6.92,7.036,7.079,7.079,0,0,1-1.24,4.021l1.129,2.4a7.888,7.888,0,0,1-2.649-.8A6.779,6.779,0,0,1-4349.473-6343.908Zm-.313-7.366v.091a.308.308,0,0,1,.218.077.552.552,0,0,1,.056.309v1.333a.538.538,0,0,1-.049.3.3.3,0,0,1-.224.088v.088h1.232v-.088a.3.3,0,0,1-.219-.078.529.529,0,0,1-.056-.309v-1.809Zm-13.723-1.8a1.068,1.068,0,0,0-.78.321,1.068,1.068,0,0,0-.321.78,1.083,1.083,0,0,0,.321.783,1.063,1.063,0,0,0,.78.325,1.061,1.061,0,0,0,.778-.325,1.082,1.082,0,0,0,.321-.783,1.068,1.068,0,0,0-.321-.78A1.066,1.066,0,0,0-4363.509-6353.073Zm14.338.693a.359.359,0,0,0-.267.112.371.371,0,0,0-.109.267.368.368,0,0,0,.109.265.363.363,0,0,0,.267.11.365.365,0,0,0,.267-.11.365.365,0,0,0,.112-.265.365.365,0,0,0-.11-.267A.362.362,0,0,0-4349.171-6352.38Zm-14.64-7.68a1.071,1.071,0,0,1,.842.43,2.1,2.1,0,0,1,.355,1.34,3.642,3.642,0,0,1-.114.988,5.462,5.462,0,0,1-.471,1.06,4.554,4.554,0,0,0-.444,1.035,5.163,5.163,0,0,0-.072,1.135h.281a2.446,2.446,0,0,1,.262-1.076,3,3,0,0,1,.9-.8,4.757,4.757,0,0,0,1.374-1.221,2.173,2.173,0,0,0,.355-1.2,2.007,2.007,0,0,0-.693-1.529,2.917,2.917,0,0,0-2.02-.631,2.876,2.876,0,0,0-1.948.607,1.84,1.84,0,0,0-.7,1.416.992.992,0,0,0,.26.714.856.856,0,0,0,.643.27.782.782,0,0,0,.57-.225.758.758,0,0,0,.23-.561,1.943,1.943,0,0,0-.294-.9.85.85,0,0,1-.131-.342.41.41,0,0,1,.192-.315A.972.972,0,0,1-4363.811-6360.06Z" transform="translate(4374 6367)" fill="#2a89e2"/>
</svg>
