<svg xmlns="http://www.w3.org/2000/svg" width="28" height="28" viewBox="0 0 28 28">
  <path id="Exclusion_11" data-name="Exclusion 11" d="M-4360-6339a13.908,13.908,0,0,1-9.9-4.1,13.9,13.9,0,0,1-4.1-9.9,13.9,13.9,0,0,1,4.1-9.9,13.9,13.9,0,0,1,9.9-4.1,13.9,13.9,0,0,1,9.9,4.1,13.9,13.9,0,0,1,4.1,9.9,13.908,13.908,0,0,1-4.1,9.9A13.9,13.9,0,0,1-4360-6339Zm0-27a13.015,13.015,0,0,0-13,13,13.015,13.015,0,0,0,13,13,13.014,13.014,0,0,0,13-13A13.014,13.014,0,0,0-4360-6366Zm6,15a2,2,0,0,1-2-2,2,2,0,0,1,2-2,2,2,0,0,1,2,2A2,2,0,0,1-4354-6351Zm-6,0a2,2,0,0,1-2-2,2,2,0,0,1,2-2,2,2,0,0,1,2,2A2,2,0,0,1-4360-6351Zm-6,0a2,2,0,0,1-2-2,2,2,0,0,1,2-2,2,2,0,0,1,2,2A2,2,0,0,1-4366-6351Z" transform="translate(4374 6367)" fill="#2a89e2"/>
</svg>
