<svg xmlns="http://www.w3.org/2000/svg" width="17.833" height="19.668" viewBox="0 0 17.833 19.668">
  <g id="export_pdf" data-name="export pdf" transform="translate(-1844 -503.18)">
    <g id="Union_7" data-name="Union 7" transform="translate(-5716.846 5160.827) rotate(47)" fill="#fff">
      <path d="M 1762.413696289063 -8712.5 C 1762.413208007813 -8712.5 1762.4130859375 -8712.5 1762.4130859375 -8712.5 L 1762.414672851563 -8714.939453125 L 1762.414672851563 -8712.5009765625 L 1762.413696289063 -8712.5 Z" stroke="none"/>
      <path d="M 1762.413696289063 -8712 C 1762.138061523438 -8712 1761.914916992188 -8712.22265625 1761.914916992188 -8712.5009765625 L 1761.914916992188 -8715.2939453125 L 1761.061767578125 -8714.439453125 C 1760.963256835938 -8714.341796875 1760.835327148438 -8714.29296875 1760.707275390625 -8714.29296875 C 1760.579345703125 -8714.29296875 1760.451416015625 -8714.341796875 1760.352905273438 -8714.439453125 C 1760.158203125 -8714.6337890625 1760.158203125 -8714.951171875 1760.352905273438 -8715.1455078125 L 1761.768310546875 -8716.5615234375 C 1761.820556640625 -8716.61328125 1761.881591796875 -8716.6513671875 1761.946655273438 -8716.67578125 C 1762.017700195313 -8716.865234375 1762.199829101563 -8717.0009765625 1762.413696289063 -8717.0009765625 C 1762.627685546875 -8717.0009765625 1762.811279296875 -8716.865234375 1762.882690429688 -8716.6748046875 C 1762.947631835938 -8716.6513671875 1763.008666992188 -8716.61328125 1763.061279296875 -8716.5615234375 L 1764.474487304688 -8715.1455078125 C 1764.669189453125 -8714.951171875 1764.669189453125 -8714.6337890625 1764.474487304688 -8714.439453125 C 1764.377197265625 -8714.341796875 1764.249145507813 -8714.29296875 1764.121215820313 -8714.29296875 C 1763.993286132813 -8714.29296875 1763.865356445313 -8714.341796875 1763.767944335938 -8714.439453125 L 1762.914672851563 -8715.2939453125 L 1762.914672851563 -8712.5009765625 C 1762.914672851563 -8712.22265625 1762.689331054688 -8712 1762.413696289063 -8712 Z" stroke="none" fill="#707070"/>
    </g>
    <path id="Icon_metro-file-pdf" data-name="Icon metro-file-pdf" d="M16.194,5.73a2.159,2.159,0,0,1,.445.705,2.142,2.142,0,0,1,.186.817V17.943a.887.887,0,0,1-.891.891H3.462a.887.887,0,0,1-.891-.891V3.094A.887.887,0,0,1,3.462,2.2h8.315a2.142,2.142,0,0,1,.817.186,2.159,2.159,0,0,1,.705.445Zm-4.12-2.264V6.955h3.489a1.014,1.014,0,0,0-.2-.381l-2.9-2.9a1.014,1.014,0,0,0-.381-.2Zm3.564,14.18v-9.5H11.777a.887.887,0,0,1-.891-.891V3.391H3.759V17.646H15.638Zm-4.77-5.5a7.061,7.061,0,0,0,.78.52,9.209,9.209,0,0,1,1.086-.065q1.364,0,1.643.455a.449.449,0,0,1,.019.483.027.027,0,0,1-.009.019l-.019.019v.009q-.056.353-.659.353a3.828,3.828,0,0,1-1.067-.186,6.767,6.767,0,0,1-1.206-.492,16.711,16.711,0,0,0-3.638.77q-1.42,2.431-2.246,2.431a.54.54,0,0,1-.26-.065l-.223-.111q-.009-.009-.056-.046a.384.384,0,0,1-.056-.334,2.015,2.015,0,0,1,.52-.849,4.485,4.485,0,0,1,1.225-.9.135.135,0,0,1,.213.056.053.053,0,0,1,.019.037q.483-.789.993-1.828A14.164,14.164,0,0,0,8.891,9.99a7.5,7.5,0,0,1-.283-1.48,3.608,3.608,0,0,1,.06-1.183q.1-.371.39-.371h.2a.391.391,0,0,1,.325.139.741.741,0,0,1,.084.631.2.2,0,0,1-.037.074.242.242,0,0,1,.009.074v.278a12.152,12.152,0,0,1-.13,1.782,4.7,4.7,0,0,0,1.355,2.209ZM5.522,15.957a4.1,4.1,0,0,0,1.271-1.466,5.29,5.29,0,0,0-.812.78A3.085,3.085,0,0,0,5.522,15.957ZM9.215,7.419A2.759,2.759,0,0,0,9.2,8.644q.009-.065.065-.408,0-.028.065-.4a.209.209,0,0,1,.037-.074.027.027,0,0,1-.009-.019.019.019,0,0,0,0-.014.019.019,0,0,1,0-.014.534.534,0,0,0-.121-.334.027.027,0,0,1-.009.019v.019ZM8.065,13.553A13.612,13.612,0,0,1,10.7,12.8a1.4,1.4,0,0,1-.121-.088,1.662,1.662,0,0,1-.148-.125,4.916,4.916,0,0,1-1.179-1.633,12.4,12.4,0,0,1-.77,1.828q-.278.52-.418.77Zm6-.148a2.221,2.221,0,0,0-1.3-.223,3.51,3.51,0,0,0,1.151.26.9.9,0,0,0,.167-.009q0-.009-.019-.028Z" transform="translate(1841.429 504.014)" fill="#eb0e0e"/>
  </g>
</svg>
