<svg xmlns="http://www.w3.org/2000/svg" width="17.833" height="19.668" viewBox="0 0 17.833 19.668">
  <g id="export_excel" data-name="export excel" transform="translate(-1809 -501.18)">
    <path id="Icon_metro-file-excel" data-name="Icon metro-file-excel" d="M16.194,5.73a2.159,2.159,0,0,1,.445.705,2.142,2.142,0,0,1,.186.817V17.943a.887.887,0,0,1-.891.891H3.462a.887.887,0,0,1-.891-.891V3.094A.887.887,0,0,1,3.462,2.2h8.315a2.142,2.142,0,0,1,.817.186,2.159,2.159,0,0,1,.705.445Zm-4.12-2.264V6.955h3.489a1.014,1.014,0,0,0-.2-.381l-2.9-2.9a1.014,1.014,0,0,0-.381-.2Zm3.564,14.18v-9.5H11.777a.887.887,0,0,1-.891-.891V3.391H3.759V17.646H15.638ZM6.552,15.474v.984H9.16v-.984h-.7L9.42,13.98a1.33,1.33,0,0,0,.093-.153q.046-.088.07-.125t.032-.037h.019a.32.32,0,0,0,.046.093.519.519,0,0,0,.042.07q.023.032.056.074l.06.079.993,1.494h-.705v.984h2.7v-.984h-.631l-1.782-2.534,1.81-2.617h.622V9.331H10.255v.993h.687L9.986,11.8q-.037.065-.093.153t-.084.125l-.019.028H9.772a.319.319,0,0,0-.046-.093,1.107,1.107,0,0,0-.158-.213l-.984-1.476H9.29V9.331H6.6v.993h.631l1.754,2.524-1.8,2.626H6.552Z" transform="translate(1806.429 502.014)" fill="#14bf5d"/>
    <g id="Union_6" data-name="Union 6" transform="translate(-5751.846 5158.827) rotate(47)" fill="#fff">
      <path d="M 1762.413696289063 -8712.5 C 1762.413208007813 -8712.5 1762.4130859375 -8712.5 1762.4130859375 -8712.5 L 1762.414672851563 -8714.939453125 L 1762.414672851563 -8712.5009765625 L 1762.413696289063 -8712.5 Z" stroke="none"/>
      <path d="M 1762.413696289063 -8712 C 1762.138061523438 -8712 1761.914916992188 -8712.22265625 1761.914916992188 -8712.5009765625 L 1761.914916992188 -8715.2939453125 L 1761.061767578125 -8714.439453125 C 1760.963256835938 -8714.341796875 1760.835327148438 -8714.29296875 1760.707275390625 -8714.29296875 C 1760.579345703125 -8714.29296875 1760.451416015625 -8714.341796875 1760.352905273438 -8714.439453125 C 1760.158203125 -8714.6337890625 1760.158203125 -8714.951171875 1760.352905273438 -8715.1455078125 L 1761.768310546875 -8716.5615234375 C 1761.820556640625 -8716.61328125 1761.881591796875 -8716.6513671875 1761.946655273438 -8716.67578125 C 1762.017700195313 -8716.865234375 1762.199829101563 -8717.0009765625 1762.413696289063 -8717.0009765625 C 1762.627685546875 -8717.0009765625 1762.811279296875 -8716.865234375 1762.882690429688 -8716.6748046875 C 1762.947631835938 -8716.6513671875 1763.008666992188 -8716.61328125 1763.061279296875 -8716.5615234375 L 1764.474487304688 -8715.1455078125 C 1764.669189453125 -8714.951171875 1764.669189453125 -8714.6337890625 1764.474487304688 -8714.439453125 C 1764.377197265625 -8714.341796875 1764.249145507813 -8714.29296875 1764.121215820313 -8714.29296875 C 1763.993286132813 -8714.29296875 1763.865356445313 -8714.341796875 1763.767944335938 -8714.439453125 L 1762.914672851563 -8715.2939453125 L 1762.914672851563 -8712.5009765625 C 1762.914672851563 -8712.22265625 1762.689331054688 -8712 1762.413696289063 -8712 Z" stroke="none" fill="#707070"/>
    </g>
  </g>
</svg>
