<svg xmlns="http://www.w3.org/2000/svg" width="24.591" height="18.065" viewBox="0 0 24.591 18.065">
  <g id="Group_651" data-name="Group 651" transform="translate(0.75 0.75)">
    <path id="Path_473" data-name="Path 473" d="M15.945,8.064,11.306,11.1a.836.836,0,0,0-.176,0,1.165,1.165,0,1,0,1.22,1.165.55.55,0,0,0,0-.143L15.8,8.393l.209-.22C16.121,8,16.1,8,15.945,8.064Z" transform="translate(-0.195 -1.048)" fill="#fff"/>
    <line id="Line_49" data-name="Line 49" x2="2.199" transform="translate(0.862 13.817)" fill="none" stroke="#fff" stroke-linecap="round" stroke-miterlimit="10" stroke-width="1.5"/>
    <line id="Line_50" data-name="Line 50" x2="2.199" transform="translate(20.031 13.817)" fill="none" stroke="#fff" stroke-linecap="round" stroke-miterlimit="10" stroke-width="1.5"/>
    <line id="Line_51" data-name="Line 51" y1="2.199" transform="translate(11.546 0)" fill="none" stroke="#fff" stroke-linecap="round" stroke-miterlimit="10" stroke-width="1.5"/>
    <line id="Line_52" data-name="Line 52" x2="1.561" y2="1.539" transform="translate(1.985 5.557)" fill="none" stroke="#fff" stroke-linecap="round" stroke-miterlimit="10" stroke-width="1.5"/>
    <line id="Line_53" data-name="Line 53" x1="1.561" y2="1.539" transform="translate(19.417 5.274)" fill="none" stroke="#fff" stroke-linecap="round" stroke-miterlimit="10" stroke-width="1.5"/>
    <path id="Path_474" data-name="Path 474" d="M21.8,17.065A10.27,10.27,0,0,0,23.591,11.3c0-5.964-5.17-10.8-11.546-10.8S.5,5.339.5,11.3a10.271,10.271,0,0,0,1.787,5.763Z" transform="translate(-0.5 -0.5)" fill="none" stroke="#fff" stroke-miterlimit="10" stroke-width="1.5"/>
    <line id="Line_54" data-name="Line 54" x2="1.165" y2="1.858" transform="translate(5.756 1.902)" fill="none" stroke="#fff" stroke-linecap="round" stroke-miterlimit="10" stroke-width="1.5"/>
    <line id="Line_55" data-name="Line 55" x1="1.165" y2="1.858" transform="translate(16.14 1.902)" fill="none" stroke="#fff" stroke-linecap="round" stroke-miterlimit="10" stroke-width="1.5"/>
    <line id="Line_56" data-name="Line 56" x2="2.199" transform="translate(0.237 10.04)" fill="none" stroke="#fff" stroke-linecap="round" stroke-miterlimit="10" stroke-width="1.5"/>
    <line id="Line_57" data-name="Line 57" x2="2.199" transform="translate(20.655 10.04)" fill="none" stroke="#fff" stroke-linecap="round" stroke-miterlimit="10" stroke-width="1.5"/>
  </g>
</svg>
