<svg xmlns="http://www.w3.org/2000/svg" width="28" height="28" viewBox="0 0 28 28">
  <g id="Group_926" data-name="Group 926" transform="translate(-1257 -3263)">
    <path id="Path_666" data-name="Path 666" d="M-4360-6339a13.908,13.908,0,0,1-9.9-4.1,13.9,13.9,0,0,1-4.1-9.9,13.9,13.9,0,0,1,4.1-9.9,13.9,13.9,0,0,1,9.9-4.1,13.9,13.9,0,0,1,9.9,4.1,13.9,13.9,0,0,1,4.1,9.9,13.908,13.908,0,0,1-4.1,9.9A13.9,13.9,0,0,1-4360-6339Zm0-27a13.015,13.015,0,0,0-13,13,13.015,13.015,0,0,0,13,13,13.014,13.014,0,0,0,13-13A13.014,13.014,0,0,0-4360-6366Zm0,21a2,2,0,0,1-2-2,2,2,0,0,1,2-2,2,2,0,0,1,2,2A2,2,0,0,1-4360-6345Zm0-6a2,2,0,0,1-2-2,2,2,0,0,1,2-2,2,2,0,0,1,2,2A2,2,0,0,1-4360-6351Zm0-6a2,2,0,0,1-2-2,2,2,0,0,1,2-2,2,2,0,0,1,2,2A2,2,0,0,1-4360-6357Z" transform="translate(5631 9630)" fill="#2a89e2"/>
  </g>
</svg>
