<svg xmlns="http://www.w3.org/2000/svg" width="20.001" height="29" viewBox="0 0 20.001 29">
  <g id="Group_923" data-name="Group 923" transform="translate(-1198 -3311)">
    <path id="Path_659" data-name="Path 659" d="M-4374-6365.138l.767-.642.635.758,2.625-1.979.6.8-2.583,1.947.006.007-.766.643Z" transform="translate(5574.474 9689.001)" fill="#fff"/>
    <path id="Path_660" data-name="Path 660" d="M-4374-6365.138l.767-.642.635.758,2.625-1.979.6.8-2.583,1.947.006.007-.766.643Z" transform="translate(5574.474 9694.001)" fill="#fff"/>
    <path id="Path_661" data-name="Path 661" d="M-4374-6365.138l.767-.642.635.758,2.625-1.979.6.8-2.583,1.947.006.007-.766.643Z" transform="translate(5574.474 9699.001)" fill="#fff"/>
    <path id="Path_662" data-name="Path 662" d="M0,0H8V1H0Z" transform="translate(1207 3323)" fill="#fff"/>
    <path id="Path_663" data-name="Path 663" d="M0,0H8V1H0Z" transform="translate(1207 3328)" fill="#fff"/>
    <path id="Path_664" data-name="Path 664" d="M0,0H8V1H0Z" transform="translate(1207 3333)" fill="#fff"/>
    <path id="Path_657" data-name="Path 657" d="M-4355.5-6342h-17a1.5,1.5,0,0,1-1.5-1.5v-22a1.5,1.5,0,0,1,1.5-1.5h17a1.5,1.5,0,0,1,1.5,1.5v22A1.5,1.5,0,0,1-4355.5-6342Zm-16.091-24.107a1.5,1.5,0,0,0-1.5,1.5v20.213a1.5,1.5,0,0,0,1.5,1.5h15.182a1.5,1.5,0,0,0,1.5-1.5v-20.213a1.5,1.5,0,0,0-1.5-1.5Z" transform="translate(5572 9682)" fill="#2a89e2"/>
    <path id="Path_658" data-name="Path 658" d="M-4372.3-6361.723a1.7,1.7,0,0,1-1.7-1.7,1.705,1.705,0,0,1,1.7-1.7h2.859v-.34a1.576,1.576,0,0,1,1.566-1.532,1.576,1.576,0,0,1,1.566,1.532v.34h2.858a1.705,1.705,0,0,1,1.7,1.7,1.7,1.7,0,0,1-1.7,1.7Zm4.561-3.268a.613.613,0,0,0-.614.612v.954a.613.613,0,0,0,.614.612.612.612,0,0,0,.612-.612v-.954A.612.612,0,0,0-4367.737-6364.99Z" transform="translate(5575.834 9678)" fill="#fff"/>
  </g>
</svg>
