<svg xmlns="http://www.w3.org/2000/svg" width="24.591" height="21.463" viewBox="0 0 24.591 21.463">
  <g id="Group_657" data-name="Group 657" transform="translate(0.75)">
    <path id="Path_458" data-name="Path 458" d="M1.785,0H21.306a1.785,1.785,0,0,1,1.785,1.785V16.626a1.785,1.785,0,0,1-1.785,1.785H1.785A1.785,1.785,0,0,1,0,16.626V1.785A1.785,1.785,0,0,1,1.785,0Z" transform="translate(0 2.302)" fill="none" stroke="#fff" stroke-width="1.5"/>
    <rect id="Rectangle_1010" data-name="Rectangle 1010" width="1.001" height="4.504" rx="0.5" transform="translate(4.077 0)" fill="#fff"/>
    <rect id="Rectangle_1011" data-name="Rectangle 1011" width="1.001" height="4.504" rx="0.5" transform="translate(7.526 0.05)" fill="#fff"/>
    <rect id="Rectangle_1012" data-name="Rectangle 1012" width="1.001" height="4.504" rx="0.5" transform="translate(10.977 0.05)" fill="#fff"/>
    <rect id="Rectangle_1013" data-name="Rectangle 1013" width="1.001" height="4.504" rx="0.5" transform="translate(14.426 0.05)" fill="#fff"/>
    <rect id="Rectangle_1014" data-name="Rectangle 1014" width="1.001" height="4.504" rx="0.5" transform="translate(17.877 0.05)" fill="#fff"/>
    <rect id="Rectangle_1015" data-name="Rectangle 1015" width="2.602" height="1.148" transform="translate(2.87 7.181)" fill="#fff"/>
    <rect id="Rectangle_1037" data-name="Rectangle 1037" width="2.602" height="1.148" transform="translate(2.87 11.774)" fill="#fff"/>
    <rect id="Rectangle_1041" data-name="Rectangle 1041" width="2.602" height="1.148" transform="translate(2.87 16.366)" fill="#fff"/>
    <rect id="Rectangle_1023" data-name="Rectangle 1023" width="2.602" height="1.148" transform="translate(7.463 7.181)" fill="#fff"/>
    <rect id="Rectangle_1038" data-name="Rectangle 1038" width="2.602" height="1.148" transform="translate(7.463 11.774)" fill="#fff"/>
    <rect id="Rectangle_1042" data-name="Rectangle 1042" width="2.602" height="1.148" transform="translate(7.463 16.366)" fill="#fff"/>
    <rect id="Rectangle_1027" data-name="Rectangle 1027" width="2.602" height="1.148" transform="translate(13.203 7.181)" fill="#fff"/>
    <rect id="Rectangle_1031" data-name="Rectangle 1031" width="2.602" height="1.148" transform="translate(17.795 7.181)" fill="#fff"/>
    <rect id="Rectangle_1044" data-name="Rectangle 1044" width="2.602" height="1.148" transform="translate(17.795 15.218)" fill="#fff" stroke="#fff" stroke-miterlimit="10" stroke-width="1.5"/>
    <rect id="Rectangle_1033" data-name="Rectangle 1033" width="2.602" height="2.302" transform="translate(17.787 12.9)" fill="#fff" stroke="#fff" stroke-miterlimit="10" stroke-width="1.5"/>
    <ellipse id="Ellipse_123" data-name="Ellipse 123" cx="5.004" cy="5.004" rx="5.004" ry="5.004" transform="translate(12.632 10.157)" fill="#fff"/>
    <path id="Path_457" data-name="Path 457" d="M274.54,218.434l1.777,1.424,3.628-4.409" transform="translate(-259.556 -202.547)" fill="#fff" stroke="#0e71eb" stroke-miterlimit="10" stroke-width="0.5"/>
  </g>
</svg>
