<svg xmlns="http://www.w3.org/2000/svg" width="31.448" height="23.093" viewBox="0 0 31.448 23.093">
  <g id="Group_927" data-name="Group 927" transform="translate(-1122 -3370)">
    <path id="Path_668" data-name="Path 668" d="M-4356.012-6348.636a10.44,10.44,0,0,1-7.43,3.106,10.4,10.4,0,0,1-6.384-2.184l-3.753,2.089a18.19,18.19,0,0,1,1.542-4.4,10.808,10.808,0,0,1-1.964-6.238A10.648,10.648,0,0,1-4363.441-6367a10.634,10.634,0,0,1,10.532,9.948,6.8,6.8,0,0,1,3.437-.928,6.979,6.979,0,0,1,6.92,7.036,7.083,7.083,0,0,1-1.241,4.021l1.13,2.4a7.918,7.918,0,0,1-2.649-.8,6.817,6.817,0,0,1-4.161,1.414A6.933,6.933,0,0,1-4356.012-6348.636Z" transform="translate(5496 9737)" fill="#2a89e2"/>
    <path id="Path_670" data-name="Path 670" d="M3.322-3.021h-.28a5.125,5.125,0,0,1,.072-1.135,4.451,4.451,0,0,1,.444-1.036,5.54,5.54,0,0,0,.472-1.06,3.694,3.694,0,0,0,.113-.988,2.084,2.084,0,0,0-.355-1.34,1.062,1.062,0,0,0-.841-.431.977.977,0,0,0-.622.2.413.413,0,0,0-.191.314.829.829,0,0,0,.13.342,1.927,1.927,0,0,1,.294.9.755.755,0,0,1-.229.561.781.781,0,0,1-.571.226.856.856,0,0,1-.643-.27.987.987,0,0,1-.26-.714,1.831,1.831,0,0,1,.7-1.415A2.867,2.867,0,0,1,3.5-9.481a2.9,2.9,0,0,1,2.02.632,1.993,1.993,0,0,1,.694,1.528,2.168,2.168,0,0,1-.355,1.2A4.741,4.741,0,0,1,4.484-4.9a2.993,2.993,0,0,0-.9.8A2.427,2.427,0,0,0,3.322-3.021Zm-.075,1a1.061,1.061,0,0,1,.779.321,1.061,1.061,0,0,1,.321.779,1.072,1.072,0,0,1-.321.783,1.056,1.056,0,0,1-.779.325A1.056,1.056,0,0,1,2.468-.14a1.072,1.072,0,0,1-.321-.783A1.061,1.061,0,0,1,2.468-1.7,1.061,1.061,0,0,1,3.247-2.023Z" transform="translate(1129.243 3385.95)" fill="#fff"/>
    <path id="Path_669" data-name="Path 669" d="M.718-3.389a.363.363,0,0,1,.269.111.366.366,0,0,1,.11.267.36.36,0,0,1-.111.266.366.366,0,0,1-.267.11.362.362,0,0,1-.266-.11.362.362,0,0,1-.11-.266.366.366,0,0,1,.11-.267A.36.36,0,0,1,.718-3.389ZM1.06-2.283V-.474a.544.544,0,0,0,.056.309.3.3,0,0,0,.22.077V0H.1V-.088A.3.3,0,0,0,.327-.176a.545.545,0,0,0,.049-.3V-1.807A.544.544,0,0,0,.32-2.115.3.3,0,0,0,.1-2.192v-.09Z" transform="translate(1146.111 3388.009)" fill="#fff"/>
  </g>
</svg>
