<svg xmlns="http://www.w3.org/2000/svg" width="25" height="25" viewBox="0 0 25 25">
  <g id="Group_922" data-name="Group 922" transform="translate(-1140.001 -3344)">
    <path id="Path_651" data-name="Path 651" d="M-4363-6342a4,4,0,0,1-4-4v-3h-3a4,4,0,0,1-4-4v-10a4,4,0,0,1,4-4h10a4,4,0,0,1,4,4v3h3a4,4,0,0,1,4,4v10a4,4,0,0,1-4,4Z" transform="translate(5514 9711)" fill="#2d87f5"/>
    <path id="Icon_awesome-plus" data-name="Icon awesome-plus" d="M7.406,5.383H4.842V2.82a.57.57,0,0,0-.57-.57H3.7a.57.57,0,0,0-.57.57V5.383H.57a.57.57,0,0,0-.57.57v.57a.57.57,0,0,0,.57.57H3.133V9.656a.57.57,0,0,0,.57.57h.57a.57.57,0,0,0,.57-.57V7.092H7.406a.57.57,0,0,0,.57-.57v-.57A.57.57,0,0,0,7.406,5.383Z" transform="translate(1152.129 3354.137)" fill="#fff"/>
  </g>
</svg>
