<svg id="help_guide" data-name="help guide" xmlns="http://www.w3.org/2000/svg" width="58.295" height="40.705" viewBox="0 0 58.295 40.705">
  <g id="Layer_1" data-name="Layer 1" transform="translate(0 0)">
    <path id="Path_593" data-name="Path 593" d="M3.626,7.832V3.015c0-.966.14-1.2,1.052-1.528A24.84,24.84,0,0,1,11.892.051,24.42,24.42,0,0,1,24.959,2.939a32.593,32.593,0,0,1,3.575,2.292.853.853,0,0,0,1.253,0A24.818,24.818,0,0,1,38.413.919,25.1,25.1,0,0,1,50.738.65c1.052.231,2.074.594,3.107.909A1.147,1.147,0,0,1,54.7,2.824c-.022,1.633,0,3.265,0,5.019h2.128c1.183,0,1.466.288,1.469,1.487q0,11.87.024,23.743c0,2.109-.013,4.215-.024,6.324a1.135,1.135,0,0,1-1.248,1.3q-2.832.032-5.667,0c-1.286-.013-2.571-.118-3.857-.113q-18.414.043-36.831.113c-1.767,0-3.537-.1-5.307-.1-1.283,0-2.566.086-3.849.1C.407,40.712.03,40.325.03,39.206V8.991A1.02,1.02,0,0,1,1.179,7.835C1.956,7.819,2.755,7.832,3.626,7.832ZM5.584,32.82a26.891,26.891,0,0,1,11.609-.167,36.624,36.624,0,0,1,10.947,4.126V30.639c0-.742.366-1.192.966-1.221.554-.03.974.441,1.027,1.165V36.8c7.131-3.9,14.525-5.783,22.594-4.016V3.857c0-.325.051-.654-.39-.759-1.116-.269-2.216-.632-3.349-.807a24.921,24.921,0,0,0-7.429-.038A22.922,22.922,0,0,0,30.486,7.187a1.119,1.119,0,0,0-.339.767c-.038,1.2,0,2.421-.032,3.615-.022.74-.441,1.165-1.027,1.143s-.952-.468-.955-1.218c0-1.162-.024-2.324,0-3.5a1.119,1.119,0,0,0-.487-1A23.017,23.017,0,0,0,16.61,2.237a24.316,24.316,0,0,0-10.541.834.594.594,0,0,0-.495.683c.022,2,0,3.992,0,5.987V32.82Zm25.623,5.7.059.18h25.12V9.844H54.7V33.788c0,1.114-.538,1.557-1.509,1.235a22.454,22.454,0,0,0-10.366-.667,32.1,32.1,0,0,0-10.894,3.723c-.25.134-.487.288-.729.433Zm-4.15.194.038-.159a3.1,3.1,0,0,0-.371-.285A31.214,31.214,0,0,0,12.341,34.13a21.793,21.793,0,0,0-7.421.958.94.94,0,0,1-1.28-.861,5.221,5.221,0,0,1,0-.581V9.844H2.026V38.705Z" transform="translate(-0.03 -0.007)" fill="#4c94ef"/>
    <path id="Path_594" data-name="Path 594" d="M85.215,54.008V47.162c0-1.132.71-1.563,1.689-1q6.028,3.462,12.045,6.945a.99.99,0,0,1,0,1.84q-6.063,3.526-12.144,7.026c-.845.487-1.592,0-1.6-.99Q85.21,57.5,85.215,54.008ZM87.2,59.463l9.4-5.433-9.4-5.4Z" transform="translate(-62.299 -33.567)" fill="#4c95ef"/>
    <path id="Path_595" data-name="Path 595" d="M92.62,66.842V56l9.4,5.412Z" transform="translate(-67.715 -40.939)" fill="#fdfdfe"/>
  </g>
</svg>
