<svg xmlns="http://www.w3.org/2000/svg" width="21.312" height="21.312" viewBox="0 0 21.312 21.312">
  <path id="Icon_awesome-thumbs-up" data-name="Icon awesome-thumbs-up" d="M4.329,9.324H1a1,1,0,0,0-1,1v9.99a1,1,0,0,0,1,1h3.33a1,1,0,0,0,1-1v-9.99A1,1,0,0,0,4.329,9.324ZM2.664,19.647a1,1,0,1,1,1-1A1,1,0,0,1,2.664,19.647ZM15.984,3.39c0,1.766-1.081,2.756-1.385,3.935h4.234a2.487,2.487,0,0,1,2.479,2.418,3.014,3.014,0,0,1-.809,2.048l0,0A3.477,3.477,0,0,1,20.11,15.1a3.292,3.292,0,0,1-.682,3.112,2.21,2.21,0,0,1-.256,1.858c-.85,1.221-2.955,1.238-4.736,1.238h-.118a11.949,11.949,0,0,1-4.977-1.321,6.551,6.551,0,0,0-2.192-.673.5.5,0,0,1-.49-.5V9.92a.5.5,0,0,1,.148-.355c1.649-1.629,2.358-3.354,3.709-4.708a5.041,5.041,0,0,0,1.057-2.452C11.759,1.636,12.147,0,12.987,0,13.986,0,15.984.333,15.984,3.39Z" fill="#2d87f5"/>
</svg>
