<svg xmlns="http://www.w3.org/2000/svg" width="17.833" height="19.667" viewBox="0 0 17.833 19.667">
  <g id="import_excel" data-name="import excel" transform="translate(-1780 -501.181)">
    <path id="Icon_metro-file-excel" data-name="Icon metro-file-excel" d="M16.194,5.73a2.159,2.159,0,0,1,.445.705,2.142,2.142,0,0,1,.186.817V17.943a.887.887,0,0,1-.891.891H3.462a.887.887,0,0,1-.891-.891V3.094A.887.887,0,0,1,3.462,2.2h8.315a2.142,2.142,0,0,1,.817.186,2.159,2.159,0,0,1,.705.445Zm-4.12-2.264V6.955h3.489a1.014,1.014,0,0,0-.2-.381l-2.9-2.9a1.014,1.014,0,0,0-.381-.2Zm3.564,14.18v-9.5H11.777a.887.887,0,0,1-.891-.891V3.391H3.759V17.646H15.638ZM6.552,15.474v.984H9.16v-.984h-.7L9.42,13.98a1.33,1.33,0,0,0,.093-.153q.046-.088.07-.125t.032-.037h.019a.32.32,0,0,0,.046.093.519.519,0,0,0,.042.07q.023.032.056.074l.06.079.993,1.494h-.705v.984h2.7v-.984h-.631l-1.782-2.534,1.81-2.617h.622V9.331H10.255v.993h.687L9.986,11.8q-.037.065-.093.153t-.084.125l-.019.028H9.772a.319.319,0,0,0-.046-.093,1.107,1.107,0,0,0-.158-.213l-.984-1.476H9.29V9.331H6.6v.993h.631l1.754,2.524-1.8,2.626H6.552Z" transform="translate(1777.429 502.014)" fill="#14bf5d"/>
    <g id="Union_8" data-name="Union 8" transform="translate(1794.176 507.819) rotate(-133)" fill="#fff">
      <path d="M 2.207199811935425 4.500900268554688 L 2.206799983978271 4.500400066375732 C 2.206389904022217 4.500400066375732 2.206189870834351 4.500380039215088 2.206189870834351 4.500380039215088 L 2.207199811935425 1.959420204162598 L 2.207199811935425 4.500900268554688 Z M 0.4997598826885223 2.207730054855347 L 1.914149880409241 0.7936500310897827 L 1.915084362030029 0.7933006882667542 L 1.353859901428223 1.354170083999634 L 0.4997598826885223 2.207730054855347 Z" stroke="none"/>
      <path d="M 2.206799983978271 5.000400066375732 C 1.930499911308289 5.000400066375732 1.707299828529358 4.776299953460693 1.707299828529358 4.500900268554688 L 1.707299828529358 1.707840085029602 L 0.8531998991966248 2.561399936676025 C 0.7555499076843262 2.659049987792969 0.6277498602867126 2.70787501335144 0.4999498724937439 2.70787501335144 C 0.3721498847007751 2.70787501335144 0.2443498820066452 2.659049987792969 0.1466998755931854 2.561399936676025 C -0.04860011860728264 2.366100072860718 -0.04860011860728264 2.049299955368042 0.1466998755931854 1.854000091552734 L 1.56059992313385 0.4401000440120697 C 1.612829923629761 0.3878700435161591 1.673739910125732 0.3496200442314148 1.738709926605225 0.3253300189971924 C 1.809459924697876 0.1353400349617004 1.992089867591858 3.318786667705353e-08 2.206799983978271 3.318786667705353e-08 C 2.421549797058105 3.318786667705353e-08 2.604729890823364 0.1353900283575058 2.675709962844849 0.3254300355911255 C 2.740429878234863 0.3497300446033478 2.801089763641357 0.3879500329494476 2.852999925613403 0.4401000440120697 L 4.267799854278564 1.854000091552734 C 4.463099956512451 2.049299955368042 4.463099956512451 2.366100072860718 4.267799854278564 2.561399936676025 C 4.170149803161621 2.659049987792969 4.04212474822998 2.70787501335144 3.914099931716919 2.70787501335144 C 3.786074876785278 2.70787501335144 3.658049821853638 2.659049987792969 3.560399770736694 2.561399936676025 L 2.707199811935425 1.70766007900238 L 2.707199811935425 4.500900268554688 C 2.707199811935425 4.776299953460693 2.483099937438965 5.000400066375732 2.206799983978271 5.000400066375732 Z" stroke="none" fill="#707070"/>
    </g>
  </g>
</svg>
