<svg xmlns="http://www.w3.org/2000/svg" width="17.833" height="19.668" viewBox="0 0 17.833 19.668">
  <g id="import_pdf" data-name="import pdf" transform="translate(-1865 -503.181)">
    <g id="Union_7" data-name="Union 7" transform="translate(1879.176 509.819) rotate(-133)" fill="#fff">
      <path d="M 2.207199811935425 4.500900268554688 L 2.206799983978271 4.500400066375732 C 2.206389904022217 4.500400066375732 2.206189870834351 4.500380039215088 2.206189870834351 4.500380039215088 L 2.207199811935425 1.959420204162598 L 2.207199811935425 4.500900268554688 Z M 0.4997598826885223 2.207730054855347 L 1.914149880409241 0.7936500310897827 L 1.915084362030029 0.7933006882667542 L 1.353859901428223 1.354170083999634 L 0.4997598826885223 2.207730054855347 Z" stroke="none"/>
      <path d="M 2.206799983978271 5.000400066375732 C 1.930499911308289 5.000400066375732 1.707299828529358 4.776299953460693 1.707299828529358 4.500900268554688 L 1.707299828529358 1.707840085029602 L 0.8531998991966248 2.561399936676025 C 0.7555499076843262 2.659049987792969 0.6277498602867126 2.70787501335144 0.4999498724937439 2.70787501335144 C 0.3721498847007751 2.70787501335144 0.2443498820066452 2.659049987792969 0.1466998755931854 2.561399936676025 C -0.04860011860728264 2.366100072860718 -0.04860011860728264 2.049299955368042 0.1466998755931854 1.854000091552734 L 1.56059992313385 0.4401000440120697 C 1.612829923629761 0.3878700435161591 1.673739910125732 0.3496200442314148 1.738709926605225 0.3253300189971924 C 1.809459924697876 0.1353400349617004 1.992089867591858 3.318786667705353e-08 2.206799983978271 3.318786667705353e-08 C 2.421549797058105 3.318786667705353e-08 2.604729890823364 0.1353900283575058 2.675709962844849 0.3254300355911255 C 2.740429878234863 0.3497300446033478 2.801089763641357 0.3879500329494476 2.852999925613403 0.4401000440120697 L 4.267799854278564 1.854000091552734 C 4.463099956512451 2.049299955368042 4.463099956512451 2.366100072860718 4.267799854278564 2.561399936676025 C 4.170149803161621 2.659049987792969 4.04212474822998 2.70787501335144 3.914099931716919 2.70787501335144 C 3.786074876785278 2.70787501335144 3.658049821853638 2.659049987792969 3.560399770736694 2.561399936676025 L 2.707199811935425 1.70766007900238 L 2.707199811935425 4.500900268554688 C 2.707199811935425 4.776299953460693 2.483099937438965 5.000400066375732 2.206799983978271 5.000400066375732 Z" stroke="none" fill="#707070"/>
    </g>
    <path id="Icon_metro-file-pdf" data-name="Icon metro-file-pdf" d="M16.194,5.73a2.159,2.159,0,0,1,.445.705,2.142,2.142,0,0,1,.186.817V17.943a.887.887,0,0,1-.891.891H3.462a.887.887,0,0,1-.891-.891V3.094A.887.887,0,0,1,3.462,2.2h8.315a2.142,2.142,0,0,1,.817.186,2.159,2.159,0,0,1,.705.445Zm-4.12-2.264V6.955h3.489a1.014,1.014,0,0,0-.2-.381l-2.9-2.9a1.014,1.014,0,0,0-.381-.2Zm3.564,14.18v-9.5H11.777a.887.887,0,0,1-.891-.891V3.391H3.759V17.646H15.638Zm-4.77-5.5a7.061,7.061,0,0,0,.78.52,9.209,9.209,0,0,1,1.086-.065q1.364,0,1.643.455a.449.449,0,0,1,.019.483.027.027,0,0,1-.009.019l-.019.019v.009q-.056.353-.659.353a3.828,3.828,0,0,1-1.067-.186,6.767,6.767,0,0,1-1.206-.492,16.711,16.711,0,0,0-3.638.77q-1.42,2.431-2.246,2.431a.54.54,0,0,1-.26-.065l-.223-.111q-.009-.009-.056-.046a.384.384,0,0,1-.056-.334,2.015,2.015,0,0,1,.52-.849,4.485,4.485,0,0,1,1.225-.9.135.135,0,0,1,.213.056.053.053,0,0,1,.019.037q.483-.789.993-1.828A14.164,14.164,0,0,0,8.891,9.99a7.5,7.5,0,0,1-.283-1.48,3.608,3.608,0,0,1,.06-1.183q.1-.371.39-.371h.2a.391.391,0,0,1,.325.139.741.741,0,0,1,.084.631.2.2,0,0,1-.037.074.242.242,0,0,1,.009.074v.278a12.152,12.152,0,0,1-.13,1.782,4.7,4.7,0,0,0,1.355,2.209ZM5.522,15.957a4.1,4.1,0,0,0,1.271-1.466,5.29,5.29,0,0,0-.812.78A3.085,3.085,0,0,0,5.522,15.957ZM9.215,7.419A2.759,2.759,0,0,0,9.2,8.644q.009-.065.065-.408,0-.028.065-.4a.209.209,0,0,1,.037-.074.027.027,0,0,1-.009-.019.019.019,0,0,0,0-.014.019.019,0,0,1,0-.014.534.534,0,0,0-.121-.334.027.027,0,0,1-.009.019v.019ZM8.065,13.553A13.612,13.612,0,0,1,10.7,12.8a1.4,1.4,0,0,1-.121-.088,1.662,1.662,0,0,1-.148-.125,4.916,4.916,0,0,1-1.179-1.633,12.4,12.4,0,0,1-.77,1.828q-.278.52-.418.77Zm6-.148a2.221,2.221,0,0,0-1.3-.223,3.51,3.51,0,0,0,1.151.26.9.9,0,0,0,.167-.009q0-.009-.019-.028Z" transform="translate(1862.429 504.014)" fill="#eb0e0e"/>
  </g>
</svg>
