<svg xmlns="http://www.w3.org/2000/svg" width="21.001" height="19" viewBox="0 0 21.001 19">
  <path id="inactive" d="M1770.5-7517c-5.79,0-10.5-4.261-10.5-9.5s4.71-9.5,10.5-9.5,10.5,4.262,10.5,9.5S1776.29-7517,1770.5-7517Zm-.017-7.83h0l2.337,2.507a.985.985,0,0,0,.73.317,1,1,0,0,0,.683-.269.989.989,0,0,0,.318-.695.992.992,0,0,0-.268-.718l-2.432-2.61,2.432-2.608a1,1,0,0,0-.049-1.415,1,1,0,0,0-.681-.268,1,1,0,0,0-.731.317l-2.338,2.508-2.338-2.508a1,1,0,0,0-.732-.317.993.993,0,0,0-.681.268,1,1,0,0,0-.318.7.986.986,0,0,0,.269.713l2.432,2.61-2.432,2.61a.988.988,0,0,0-.269.715.991.991,0,0,0,.318.7,1,1,0,0,0,.683.269.985.985,0,0,0,.73-.317l2.337-2.507Z" transform="translate(-1759.999 7536)" fill="#fb3838"/>
</svg>
