<svg id="Invoice" xmlns="http://www.w3.org/2000/svg" width="14.266" height="22" viewBox="0 0 14.266 22">
  <g id="Layer_2" data-name="Layer 2">
    <path id="Path_576" data-name="Path 576" d="M6.1,22V19.775c-.354-.061-.707-.11-1.053-.185a6.38,6.38,0,0,1-3.688-2.082A6.485,6.485,0,0,1,0,14.421l3.8-.346a4.043,4.043,0,0,0,.829,1.631,3.814,3.814,0,0,0,1.465,1.082V11.679c-.6-.2-1.209-.376-1.793-.6a6,6,0,0,1-2.866-2.1A4.742,4.742,0,0,1,.588,6.1,4.534,4.534,0,0,1,3,2.128a6.847,6.847,0,0,1,2.866-.892c.076-.008.152-.021.246-.034V0H8.225c0,.339.01.667,0,.995-.007.179.059.225.228.245A6.658,6.658,0,0,1,11.833,2.48a4.876,4.876,0,0,1,1.832,3.005l-3.67.4c-.517-1.221-.984-1.737-1.761-1.934,0,.08-.01.155-.01.232,0,1.433,0,2.866-.006,4.3,0,.2.058.271.245.314a14.231,14.231,0,0,1,3.182,1.08A4.423,4.423,0,0,1,13.9,12.164a5.021,5.021,0,0,1,.3,2.7,5.227,5.227,0,0,1-3.019,3.994,8.329,8.329,0,0,1-2.767.811c-.16.021-.2.079-.2.229.007.623,0,1.247,0,1.87,0,.078-.012.156-.018.234ZM8.24,12.189v4.778a3.045,3.045,0,0,0,2.039-1.176,2.11,2.11,0,0,0-.026-2.519A3.557,3.557,0,0,0,8.24,12.189ZM6.095,3.95A2.339,2.339,0,0,0,4.228,6.055a2.355,2.355,0,0,0,1.867,2.08Z" fill="#fff"/>
  </g>
</svg>
