<svg xmlns="http://www.w3.org/2000/svg" width="26.502" height="8.135" viewBox="0 0 26.502 8.135">
  <path id="More_Description_" data-name="More Description " d="M-8349.2-6357.415a.8.8,0,0,1-.657-.353l-2.145-3.214,2.145-3.219a.746.746,0,0,1,.63-.348h5.945a.794.794,0,0,1,.793.792v5.549a.8.8,0,0,1-.793.793Zm4.135-3.567a.593.593,0,0,0,.594.594.6.6,0,0,0,.6-.594.6.6,0,0,0-.6-.6A.594.594,0,0,0-8345.063-6360.982Zm-1.982,0a.594.594,0,0,0,.595.594.594.594,0,0,0,.595-.594.6.6,0,0,0-.595-.6A.6.6,0,0,0-8347.046-6360.982Zm-1.981,0a.594.594,0,0,0,.595.594.594.594,0,0,0,.595-.594.6.6,0,0,0-.595-.6A.6.6,0,0,0-8349.027-6360.982Zm19.959,1.641a1.614,1.614,0,0,1-.421-1.146v-.12a1.78,1.78,0,0,1,.4-1.192,1.322,1.322,0,0,1,1.068-.466,1.319,1.319,0,0,1,1.022.4,1.531,1.531,0,0,1,.363,1.072v.479h-1.942l0,.018a.838.838,0,0,0,.214.526.67.67,0,0,0,.519.207,1.7,1.7,0,0,0,.484-.058,2.275,2.275,0,0,0,.421-.185l.237.542a1.636,1.636,0,0,1-.521.27,2.242,2.242,0,0,1-.715.107A1.463,1.463,0,0,1-8329.068-6359.341Zm.662-2.062a.951.951,0,0,0-.175.49l.009.015h1.075v-.078a.707.707,0,0,0-.13-.447.474.474,0,0,0-.4-.166A.454.454,0,0,0-8328.406-6361.4Zm-6.333,2.051a1.732,1.732,0,0,1-.407-1.194v-.063a1.746,1.746,0,0,1,.405-1.191,1.412,1.412,0,0,1,1.123-.464,1.425,1.425,0,0,1,1.13.463,1.735,1.735,0,0,1,.409,1.192v.063a1.737,1.737,0,0,1-.407,1.194,1.424,1.424,0,0,1-1.125.461A1.426,1.426,0,0,1-8334.739-6359.352Zm.625-1.963a1.4,1.4,0,0,0-.158.7v.063a1.414,1.414,0,0,0,.156.712.538.538,0,0,0,.5.269.531.531,0,0,0,.5-.269,1.392,1.392,0,0,0,.158-.711v-.063a1.393,1.393,0,0,0-.158-.705.542.542,0,0,0-.5-.273A.53.53,0,0,0-8334.114-6361.314Zm2.576,2.361v-3.251h.814l.039.48a1.028,1.028,0,0,1,.3-.4.659.659,0,0,1,.419-.143.725.725,0,0,1,.122.01c.037.007.074.016.113.026l-.094.778-.322-.009a.579.579,0,0,0-.321.082.507.507,0,0,0-.192.229v2.2Zm-5.1,0v-1.3l.085-1.932-.02,0-1.171,3.239h-.589l-1.166-3.227-.018,0,.084,1.92v1.3h-.878v-4.375h1.146l1.114,3.224h.018l1.124-3.224h1.147v4.375Z" transform="translate(8352.601 6365.049)" fill="#3b3b3b" stroke="rgba(0,0,0,0)" stroke-width="1"/>
</svg>
