<svg xmlns="http://www.w3.org/2000/svg" width="37.7" height="19.707" viewBox="0 0 37.7 19.707">
  <g id="msg" transform="translate(-1247 -3320)">
    <path id="Path_412" data-name="Path 412" d="M130.116,19.706h19.794a3.118,3.118,0,0,0,3.118-3.118V3.118A3.118,3.118,0,0,0,149.909,0H130.116A3.118,3.118,0,0,0,127,3.118v13.47a3.118,3.118,0,0,0,3.116,3.118Z" transform="translate(1131.673 3320)" fill="#2a89e2"/>
    <path id="Path_677" data-name="Path 677" d="M1,0H9A1,1,0,0,1,9,2H1A1,1,0,0,1,1,0Z" transform="translate(1247 3323)" fill="#2a89e2"/>
    <path id="Path_678" data-name="Path 678" d="M1,0H8A1,1,0,0,1,8,2H1A1,1,0,0,1,1,0Z" transform="translate(1248 3328)" fill="#2a89e2"/>
    <path id="Path_679" data-name="Path 679" d="M1,0H7A1,1,0,0,1,7,2H1A1,1,0,0,1,1,0Z" transform="translate(1249 3333)" fill="#2a89e2"/>
  </g>
</svg>
