<svg xmlns="http://www.w3.org/2000/svg" width="39.999" height="51.263" viewBox="0 0 39.999 51.263">
  <path id="order" d="M-10307.036-6315.807a.739.739,0,0,1-.291-.96l1.057-2.313a12.142,12.142,0,0,1-5.937,2.2c-3.123,0-7.151-2.913-7.151-3.476a1,1,0,0,1,.986-1.015s3.042,2.591,6.165,2.591a10.473,10.473,0,0,0,5.158-1.778l-2.5-.584a.7.7,0,0,1-.534-.825.687.687,0,0,1,.836-.5l4.111.965a.726.726,0,0,1,.524.494.742.742,0,0,1,.252.935l-1.791,3.92a.685.685,0,0,1-.61.415A.59.59,0,0,1-10307.036-6315.807Zm-15.877-.005h-12.952a4.431,4.431,0,0,1-4.673-4.125v-25.187a13.154,13.154,0,0,0-3.388-8.684.268.268,0,0,1-.039-.319.353.353,0,0,1,.312-.174h20.781l3.795-9.418a2.3,2.3,0,0,1-.207-1.137,2.209,2.209,0,0,1,2.1-2.145c.031,0,.06,0,.088,0a1.9,1.9,0,0,1,1.335.644,2.3,2.3,0,0,1,.553,1.682,2.287,2.287,0,0,1-1.578,2.069l-3.7,8.3h14.338a1.175,1.175,0,0,1,1.163.769.993.993,0,0,1-.509,1.2l-3.635,2.054a1.189,1.189,0,0,0-.639,1.028v14.385c-.28-.019-.565-.026-.846-.026a13.515,13.515,0,0,0-13.5,13.5,13.383,13.383,0,0,0,1.2,5.576l0,0Zm-5.333-21.087h17.785v-.631h-4.285a.342.342,0,0,1-.346-.345.345.345,0,0,1,.346-.345h4.285v-6.417h-4.285a.342.342,0,0,1-.346-.345.34.34,0,0,1,.346-.345h4.285v-3.92a1.787,1.787,0,0,1,.958-1.544l3.635-2.051a.417.417,0,0,0,.218-.514.5.5,0,0,0-.5-.33h-14.61Zm-11.046-12.728a12.82,12.82,0,0,1,.831,4.527v8.2h8.577l6.765-16.788h-18.574A13.794,13.794,0,0,1-10339.292-6349.627Zm25.177,25.786-4.11-.966a.715.715,0,0,1-.524-.491.743.743,0,0,1-.251-.937l1.791-3.915a.654.654,0,0,1,.888-.35.737.737,0,0,1,.288.96l-1.057,2.315a12.137,12.137,0,0,1,5.939-2.2c3.123,0,7.149,2.91,7.149,3.476a1,1,0,0,1-.986,1.018s-3.04-2.591-6.163-2.591a10.458,10.458,0,0,0-5.158,1.775l2.5.584a.7.7,0,0,1,.535.823.68.68,0,0,1-.67.521A.736.736,0,0,1-10314.115-6323.841Zm-22.962-15.371v-2.077a.345.345,0,0,1,.348-.345.345.345,0,0,1,.346.345v2.077a.347.347,0,0,1-.346.345A.347.347,0,0,1-10337.077-6339.212Z" transform="translate(10344.001 6367)"/>
</svg>
