<svg xmlns="http://www.w3.org/2000/svg" width="47.78" height="47.78" viewBox="0 0 47.78 47.78">
  <path id="Path_884" data-name="Path 884" d="M-11657.241-6321.22c-4.318,0-7.853-1.572-10.692-2.836a14.085,14.085,0,0,0-4.708-1.446,1.075,1.075,0,0,1-1.053-1.074v-19.113a1.068,1.068,0,0,1,.319-.763c3.541-3.5,5.063-7.2,7.967-10.114,1.323-1.326,1.8-3.33,2.271-5.266.4-1.654,1.229-5.168,3.033-5.168,2.147,0,6.438.716,6.438,7.284,0,3.792-2.32,5.919-2.975,8.454h9.1a5.345,5.345,0,0,1,5.324,5.195,6.467,6.467,0,0,1-1.74,4.4l-.009.012a7.244,7.244,0,0,1,.539,2.845,7.212,7.212,0,0,1-1.372,4.259,6.123,6.123,0,0,1,.306,1.923,7.089,7.089,0,0,1-1.77,4.762,6.358,6.358,0,0,1,.2,1.539,4.226,4.226,0,0,1-.746,2.45c-1.825,2.623-6.348,2.661-10.173,2.661Zm-28.614,0a2.148,2.148,0,0,1-2.145-2.147v-21.457a2.147,2.147,0,0,1,2.145-2.147h7.154a2.148,2.148,0,0,1,2.146,2.147v21.457a2.148,2.148,0,0,1-2.146,2.147Zm3.578-3.576a2.146,2.146,0,0,0,2.145-2.147,2.143,2.143,0,0,0-2.145-2.144,2.146,2.146,0,0,0-2.147,2.144A2.149,2.149,0,0,0-11682.277-6324.8Z" transform="translate(11689 6368)" fill="none" stroke="#2a89e2" stroke-width="2"/>
</svg>
