<svg xmlns="http://www.w3.org/2000/svg" width="37.699" height="23.548" viewBox="0 0 37.699 23.548">
  <path id="Path_680" data-name="Path 680" d="M-4355.859-6347.293h-3.351a3.119,3.119,0,0,1-3.116-3.119v-13.469a3.117,3.117,0,0,1,3.116-3.119h19.793a3.117,3.117,0,0,1,3.117,3.119v13.469a3.118,3.118,0,0,1-3.117,3.119H-4351l-4.854,3.841ZM-4371-6352a1,1,0,0,1-1-1,1,1,0,0,1,1-1h6a1,1,0,0,1,1,1,1,1,0,0,1-1,1Zm-1-5a1,1,0,0,1-1-1,1,1,0,0,1,1-1h7a1,1,0,0,1,1,1,1,1,0,0,1-1,1Zm-1-5a1,1,0,0,1-1-1,1,1,0,0,1,1-1h8a1,1,0,0,1,1,1,1,1,0,0,1-1,1Z" transform="translate(4373.999 6367)" fill="#2a89e2"/>
</svg>
