<svg xmlns="http://www.w3.org/2000/svg" width="43.566" height="54.799" viewBox="0 0 43.566 54.799">
  <path id="Path_649" data-name="Path 649" d="M-4373.2-6313.015a2.747,2.747,0,0,1-.8-1.989q.029-22.964.013-45.924a2.664,2.664,0,0,1,2.859-2.86h6.738c.259,0,.475.027.561-.339a3.251,3.251,0,0,1,3.554-2.852c4.279-.016,8.563,0,12.834,0a34.214,34.214,0,0,1,3.8.064,3.066,3.066,0,0,1,2.976,2.814.656.656,0,0,0,.046.167,1.144,1.144,0,0,0,.083.143h7.349a2.651,2.651,0,0,1,2.751,2.79v46.042a2.734,2.734,0,0,1-.8,1.955,2.733,2.733,0,0,1-1.954.8q-19.014-.06-38.029,0h-.035A2.744,2.744,0,0,1-4373.2-6313.015Zm1.067-47.667v45.4c0,1.02.222,1.25,1.222,1.25h37.4c1.005,0,1.223-.23,1.223-1.25.04-3.521.1-7.041.118-10.564,0-1.659-.11-3.32-.115-4.981-.014-5.715,0-11.433,0-17.15v-12.863c0-.733-.271-1.074-.927-1.077q-3.545-.02-7.095,0a.582.582,0,0,0-.417.331,4.439,4.439,0,0,1-4.538,3.265h-13.766c-2.6.009-4.054-1.053-4.862-3.6h-7C-4371.9-6361.921-4372.135-6361.691-4372.135-6360.683Zm12.192-4.457c-1.9.157-2.135.447-2.12,2.368a2.5,2.5,0,0,0,2.539,2.584q7.26.021,14.52,0a2.444,2.444,0,0,0,2.474-2.007,8.438,8.438,0,0,0-.035-1.807,1.024,1.024,0,0,0-.89-.96,10.187,10.187,0,0,0-1.852-.219c-2.293-.022-4.594-.008-6.9-.008h-4.8c-.43,0-.861-.006-1.291-.006C-4358.845-6365.195-4359.394-6365.185-4359.943-6365.139Zm12.932,47.642q-.733-.3-1.467-.6c-.764-.315-.823-.425-.662-1.24a1.935,1.935,0,0,0-1.366-2.327,1.848,1.848,0,0,0-1.016.032.836.836,0,0,1-1.155-.475c-.235-.489-.432-1.047-.676-1.558a1.032,1.032,0,0,1,.365-1.373,3.382,3.382,0,0,0,.958-1.334,1.761,1.761,0,0,0-.939-2.074c-.641-.4-.713-.6-.437-1.3.2-.508.433-1,.636-1.515a.9.9,0,0,1,1.192-.612,1.937,1.937,0,0,0,2.446-1.56,2.626,2.626,0,0,0-.137-1.085c-.112-.411-.039-.674.372-.84.705-.284,1.41-.575,2.1-.88.425-.188.734-.094.89.342a1.98,1.98,0,0,0,3.562.139.792.792,0,0,1,1.165-.4c.624.276,1.258.532,1.894.78.416.162.489.433.374.839-.489,1.846.718,3.068,2.554,2.562a.627.627,0,0,1,.869.427c.267.65.534,1.3.82,1.956a.715.715,0,0,1-.392,1.05,1.842,1.842,0,0,0-.954,2.417,2.75,2.75,0,0,0,.978,1.082c.38.271.556.516.373.964-.245.577-.467,1.158-.687,1.742a.868.868,0,0,1-1.1.622,3,3,0,0,0-.76-.037,1.911,1.911,0,0,0-1.79,1.911v.176c.1,1.25.105,1.252-1.056,1.785-.176.082-.354.161-.535.233-1.064.418-1.128.4-1.9-.468a1.933,1.933,0,0,0-3.223.23c-.268.4-.417.569-.668.569A1.9,1.9,0,0,1-4347.011-6317.5Zm5.231-.7c.079.108.272.244.35.22a6.811,6.811,0,0,0,1.683-.783c.216-.167.166-.719.179-1.1a2.315,2.315,0,0,1,2.392-2.429,1.47,1.47,0,0,0,1.724-1.264,1.1,1.1,0,0,1,.113-.269c.245-.4.12-.631-.245-.908-1.329-1.024-1.612-2.377-.473-3.528a1.913,1.913,0,0,0,.276-2.671c-.193-.349-.31-.472-.733-.389a2.5,2.5,0,0,1-3.11-2.47c-.022-1.207.123-1.193-1.285-1.713-.231-.084-.471-.152-.695-.222-1.486,2.3-3.8,1.956-5.01,0-.428.166-.853.364-1.3.489-.607.186-.754.56-.658,1.165a2.354,2.354,0,0,1-2.4,2.793c-1.179-.144-1.5.367-1.732,1.265a1.065,1.065,0,0,1-.11.27c-.208.352-.117.561.224.809a2.562,2.562,0,0,1,.305,4.1,5.966,5.966,0,0,1-.649.548h-.006c.2.537.393,1.067.612,1.585a.716.716,0,0,0,.9.454,2.264,2.264,0,0,1,2.72,1.619,13.581,13.581,0,0,1,.147,1.507.745.745,0,0,0,.3.512,9.436,9.436,0,0,0,1.467.584.58.58,0,0,0,.519-.137,2.7,2.7,0,0,1,2.237-1.269A2.8,2.8,0,0,1-4341.779-6318.2Zm-3.437-2.624c-2.3-.411-4.644-2.593-4.618-4.21l1.1.471c-.055-.559-.07-.923-.123-1.281a4.872,4.872,0,0,1,.378-3.085.964.964,0,0,0-.315-1.327l-.864,1.357c0-1.432,2.408-3.67,3.7-3.613l-.224.938.107.174a6.7,6.7,0,0,1,3.387-.15,11.88,11.88,0,0,0,1.931.139l.062-.206-1.392-.824c1.467-.1,3.881,2.446,3.8,3.806l-1.109-.272a18.34,18.34,0,0,1,.267,2.083,4.577,4.577,0,0,1-2.167,4.11,1.03,1.03,0,0,0-.539,1.375l1.681-.979c-.339.943-2.148,1.6-3.911,1.6A6.387,6.387,0,0,1-4345.216-6320.824Zm-.3-.5v0c.911.582,1.4.452,1.571-.419h0c-.176.868-.66,1-1.57.416Zm2.414.307h0Zm.055,0c.564-.017.925-.294.677-1.036h0C-4342.12-6321.318-4342.48-6321.04-4343.044-6321.023Zm-.2,0-.04,0Zm-.321-.041-.141-.028Zm-.141-.028Zm-1.782-.278a1.688,1.688,0,0,1,.1-.152A1.688,1.688,0,0,0-4345.486-6321.374Zm.1-.153.022-.028Zm.024-.031.021-.025Zm.027-.032.017-.019Zm.025-.027.016-.017Zm.026-.028.013-.013Zm.031-.03.006-.005Zm.027-.024,0,0Zm-.282-.287h0c-.116-.066-.22-.123-.315-.171C-4345.724-6322.11-4345.62-6322.053-4345.5-6321.986Zm-1.613,0h0c.04-.038.078-.073.116-.1C-4347.039-6322.06-4347.077-6322.025-4347.118-6321.987Zm.117-.1,0,0Zm-1.337-6.476a4.635,4.635,0,0,0,1.008,5.061,4.631,4.631,0,0,0,5.062.991,4.632,4.632,0,0,0,2.841-4.305,4.576,4.576,0,0,0-1.347-3.264,4.585,4.585,0,0,0-3.27-1.338h-.016A4.635,4.635,0,0,0-4348.338-6328.568Zm-.074,5.539c.529.813.811.93,1.365.441-.553.488-.834.372-1.362-.443Zm2.231.718a.712.712,0,0,0-.442-.013.6.6,0,0,1,.188-.029A.886.886,0,0,1-4346.181-6322.312Zm-3.073-1.959,0,.006c.275.949.489,1.045,1.246.556l0,0c-.747.485-.965.388-1.239-.558Zm.323-.134h0Zm0,0a.642.642,0,0,1,.357-.033.419.419,0,0,0-.109-.014A.82.82,0,0,0-4348.926-6324.406Zm8.8-5.529c.232.644.451.858.928.773-.471.083-.695-.131-.926-.775Zm-7.912.045c.415-.284.606-.485.606-.743,0,.254-.193.451-.606.735Zm-.151-.189c-.172-.21-.265-.347-.262-.478C-4348.451-6330.428-4348.359-6330.291-4348.186-6330.08Zm6.9-.926h0c.579.733,1,.833,1.612.431v0c-.613.4-1.033.292-1.611-.431a4.122,4.122,0,0,1,.639-.23A4.176,4.176,0,0,0-4341.284-6331.006Zm-5.792.161c.635-.208.721-.351.567-1.206.144.856.067,1-.562,1.2-.213-.467-.3-.688-.182-.851C-4347.381-6331.54-4347.292-6331.319-4347.076-6330.845Zm1.23,4.051a1.8,1.8,0,0,1,1.793-1.8,1.8,1.8,0,0,1,1.783,1.8,1.788,1.788,0,0,1-1.788,1.788A1.788,1.788,0,0,1-4345.846-6326.794Zm1.743-1.505a1.467,1.467,0,0,0-1.43,1.505,1.485,1.485,0,0,0,1.484,1.427l0,0a1.476,1.476,0,0,0,1.04-.446,1.469,1.469,0,0,0,.416-1.053,1.467,1.467,0,0,0-1.464-1.429Zm-24.3,1.929v-1.791h12.182v1.791Zm.1-3.77a.56.56,0,0,1-.1-.04v-1.777h13.528c-.211.574-.389,1.1-.607,1.624a.451.451,0,0,1-.344.208Q-4362.065-6330.125-4368.3-6330.14Zm.15-4.227a1.389,1.389,0,0,1-.245-.048v-1.8l16.85,0c-.562.58-1.083,1.13-1.624,1.661a.725.725,0,0,1-.465.18Zm-.219-4.84v-1.774h24.325c0,.147.021.261.021.375v1.4Zm-.042-3.793v-1.822h31.967V-6343Zm.008-4.268v-1.806h31.968v1.806Zm.013-4.345v-1.806h31.938v1.806Z" transform="translate(4374 6367.001)" fill="#2d89e1"/>
</svg>
