<svg xmlns="http://www.w3.org/2000/svg" width="11.319" height="11.333" viewBox="0 0 11.319 11.333">
  <path id="Path_431" data-name="Path 431" d="M615.245,684.7h5.017a.579.579,0,0,1,.534.242.531.531,0,0,1-.109.743l-3.723,3.723a.511.511,0,0,0-.159.4c.008,1.862,0,3.715.008,5.577a.555.555,0,0,1-.342.6.563.563,0,0,1-.668-.184c-.626-.643-1.269-1.277-1.9-1.9a.7.7,0,0,1-.234-.568c.008-1.185,0-2.379.008-3.565a.441.441,0,0,0-.133-.326c-1.244-1.235-2.479-2.479-3.723-3.715a.566.566,0,0,1-.192-.66.583.583,0,0,1,.618-.351C611.9,684.708,613.567,684.7,615.245,684.7Z" transform="translate(-609.584 -684.7)" fill="#fff"/>
</svg>
