<svg xmlns="http://www.w3.org/2000/svg" width="62" height="45" viewBox="0 0 62 45">
  <path id="Path_648" data-name="Path 648" d="M-4371.5-6322a2.5,2.5,0,0,1-2.5-2.5v-40a2.5,2.5,0,0,1,2.5-2.5h57a2.5,2.5,0,0,1,2.5,2.5v40a2.5,2.5,0,0,1-2.5,2.5Zm2-2h53a2.486,2.486,0,0,0,.828-.141l-22.052-18.5-3.942,3.308a.975.975,0,0,1-.116.171,1,1,0,0,1-.826.355,1,1,0,0,1-.816-.355,1.007,1.007,0,0,1-.114-.169l-4.27-3.583a.963.963,0,0,1-.1.093l-22.311,18.72A2.5,2.5,0,0,0-4369.5-6324Zm-2.5-38.5v36a2.488,2.488,0,0,0,.244,1.077l22.4-18.794-22.177-18.608a.993.993,0,0,1-.323-.5A2.491,2.491,0,0,0-4372-6362.5Zm57.8,36.982a2.486,2.486,0,0,0,.2-.982v-36c0-.016,0-.033,0-.049l-22.167,18.6Zm-56.049-38.838,27.646,23.2,27.647-23.2q.034-.028.069-.053a2.489,2.489,0,0,0-1.611-.589h-53a2.486,2.486,0,0,0-1.371.41A.992.992,0,0,1-4370.25-6364.356Z" transform="translate(4374 6367)" fill="#0e71eb"/>
</svg>
