<svg xmlns="http://www.w3.org/2000/svg" width="67.554" height="49.605" viewBox="0 0 67.554 49.605">
  <path id="Path_887" data-name="Path 887" d="M-11635.312-6317.4a14.893,14.893,0,0,1-14.044-10.155,22.372,22.372,0,0,1-15.961,6.673,22.25,22.25,0,0,1-13.716-4.693l-8.06,4.488a38.925,38.925,0,0,1,3.313-9.46,23.153,23.153,0,0,1-4.221-13.4,23.089,23.089,0,0,1,6.644-16.3,22.353,22.353,0,0,1,16.039-6.755,22.4,22.4,0,0,1,15.482,6.208,23.141,23.141,0,0,1,7.123,14.9c-.339.161-.676.34-1,.533a21.352,21.352,0,0,0-6.51-13.939,20.314,20.314,0,0,0-14.105-5.706,20.279,20.279,0,0,0-14.614,6.21A21.334,21.334,0,0,0-11685-6343.8a21.414,21.414,0,0,0,3.845,12.32,36,36,0,0,0-3.021,8.7l7.346-4.127a20.162,20.162,0,0,0,12.5,4.312,20.277,20.277,0,0,0,14.54-6.133,13.588,13.588,0,0,0,12.8,9.336,13.225,13.225,0,0,0,8.146-2.79,15.361,15.361,0,0,0,5.184,1.584l-2.212-4.749a14.078,14.078,0,0,0,2.429-7.94,13.992,13.992,0,0,0-3.969-9.827,13.29,13.29,0,0,0-9.577-4.068,13.259,13.259,0,0,0-3.158.382,14.641,14.641,0,0,1,4.836-.819,14.65,14.65,0,0,1,10.514,4.426,15.143,15.143,0,0,1,4.353,10.686,15.217,15.217,0,0,1-2.663,8.639l2.426,5.163a16.884,16.884,0,0,1-5.687-1.722A14.6,14.6,0,0,1-11635.312-6317.4Zm.12-12.038h-2.414v-.173a.577.577,0,0,0,.44-.173,1.056,1.056,0,0,0,.1-.589V-6333a1.079,1.079,0,0,0-.111-.61.584.584,0,0,0-.426-.152v-.179h1.875v3.573a1.088,1.088,0,0,0,.108.61.6.6,0,0,0,.431.153v.172Zm-29.273-3.7a2.073,2.073,0,0,1-1.525-.64,2.134,2.134,0,0,1-.628-1.546,2.118,2.118,0,0,1,.628-1.54,2.075,2.075,0,0,1,1.525-.633,2.074,2.074,0,0,1,1.524.633,2.108,2.108,0,0,1,.628,1.54,2.134,2.134,0,0,1-.628,1.546A2.063,2.063,0,0,1-11664.466-6333.135Zm28.065-1.5a.717.717,0,0,1-.522-.217.733.733,0,0,1-.214-.528.742.742,0,0,1,.214-.528.719.719,0,0,1,.522-.22.725.725,0,0,1,.525.22.742.742,0,0,1,.214.528.724.724,0,0,1-.217.528A.72.72,0,0,1-11636.4-6334.634Zm-27.919-4.831h-.549a10.259,10.259,0,0,1,.141-2.241,8.936,8.936,0,0,1,.871-2.044,11.388,11.388,0,0,0,.924-2.094,7.478,7.478,0,0,0,.221-1.951,4.151,4.151,0,0,0-.7-2.646,2.082,2.082,0,0,0-1.646-.851,1.907,1.907,0,0,0-1.218.393.823.823,0,0,0-.375.619,1.671,1.671,0,0,0,.255.675,3.842,3.842,0,0,1,.575,1.769,1.51,1.51,0,0,1-.446,1.108,1.543,1.543,0,0,1-1.12.446,1.683,1.683,0,0,1-1.256-.534,1.977,1.977,0,0,1-.51-1.411,3.648,3.648,0,0,1,1.366-2.8,5.6,5.6,0,0,1,3.813-1.2,5.688,5.688,0,0,1,3.954,1.247,3.976,3.976,0,0,1,1.358,3.018,4.324,4.324,0,0,1-.7,2.37,9.4,9.4,0,0,1-2.687,2.408,5.913,5.913,0,0,0-1.761,1.587,4.847,4.847,0,0,0-.516,2.126Z" transform="translate(11688 6367)" fill="#2a89e2"/>
</svg>
