<svg xmlns="http://www.w3.org/2000/svg" width="22.813" height="16.565" viewBox="0 0 22.813 16.565">
  <path id="Path_630" data-name="Path 630" d="M-4372.233-6350.435A10.337,10.337,0,0,1-4374-6356.2c0-5.957,5.118-10.8,11.409-10.8s11.4,4.846,11.4,10.8a10.314,10.314,0,0,1-1.762,5.762Zm.834-1h17.612a8.924,8.924,0,0,0,1.117-2.165h-1.432v-.8h1.67a8.814,8.814,0,0,0,.259-2.1c0-.148,0-.3-.011-.442l-1.887.131-.056-.8,1.866-.129a8.866,8.866,0,0,0-1.208-3.346l-1.435.522-.275-.751,1.251-.455a10.028,10.028,0,0,0-2.616-2.459l-1.067.9-.515-.614.855-.717a11.074,11.074,0,0,0-4.431-1.3V-6364h-.8v-2h-.091a11.123,11.123,0,0,0-5.333,1.34l.848.711-.514.614-1.06-.89a10.059,10.059,0,0,0-2.608,2.458l1.235.451-.273.751-1.42-.516a8.882,8.882,0,0,0-1.205,3.34l1.848.129-.056.8-1.868-.131c-.008.147-.011.294-.011.442a8.814,8.814,0,0,0,.259,2.1h1.65v.8h-1.411A8.91,8.91,0,0,0-4371.4-6351.436Zm7.375-4.289a1.063,1.063,0,0,1,1.013-1.1.684.684,0,0,1,.161,0l4.236-2.772c.141-.059.161-.059.061.1l-.19.2-3.153,3.4a.586.586,0,0,1,0,.131,1.065,1.065,0,0,1-1.05,1.063h-.018A1.063,1.063,0,0,1-4364.025-6355.724Z" transform="translate(4374 6367)" fill="#1900ff"/>
</svg>
