<svg xmlns="http://www.w3.org/2000/svg" width="46.133" height="55.132" viewBox="0 0 46.133 55.132">
  <path id="Path_893" data-name="Path 893" d="M-11662.465-6315.4a11.988,11.988,0,0,1-3.534-8.533,11.986,11.986,0,0,1,3.534-8.533,11.989,11.989,0,0,1,8.533-3.535,11.982,11.982,0,0,1,8.53,3.535,11.986,11.986,0,0,1,3.534,8.533,11.988,11.988,0,0,1-3.534,8.533,11.991,11.991,0,0,1-8.53,3.532A12,12,0,0,1-11662.465-6315.4Zm-2.534-8.6a11.012,11.012,0,0,0,11,11,11.012,11.012,0,0,0,11-11,11.012,11.012,0,0,0-11-11A11.012,11.012,0,0,0-11665-6324Zm-14.473,8.882a8.2,8.2,0,0,1-7.1-3.781,8.6,8.6,0,0,1-1.426-4.726,29.26,29.26,0,0,1,1.8-11.237c1.279-3.262,3.039-5.245,5.541-6.242a15.321,15.321,0,0,1,3.863-.833,1.241,1.241,0,0,1,.149-.009,2.043,2.043,0,0,1,.7.144,12.843,12.843,0,0,0-3.168.707c-2.212.88-3.767,2.631-4.9,5.518a25.828,25.828,0,0,0-1.6,9.941,7.587,7.587,0,0,0,1.262,4.18,7.247,7.247,0,0,0,6.277,3.344c1.71.023,3.561.035,5.661.035,1.334,0,2.675,0,3.928-.006h.006q1.425,0,2.851-.006a20.443,20.443,0,0,0,1.954,2.939c-.067.009-.132.018-.193.024l-.023,0h-.006a2.527,2.527,0,0,1-.347.029c-1.517,0-3.112.006-4.394.009-1.35.006-2.881.009-4.392.009C-11675.538-6315.077-11677.589-6315.088-11679.472-6315.118Zm25.543-3.854h-2.857a1.157,1.157,0,0,1-1.331-1.3c0-1.173-.044-2.346.026-3.514a1.5,1.5,0,0,1,.552-1.068.952.952,0,0,0,.469-1.015,3.138,3.138,0,0,1,2.752-3.18,3.2,3.2,0,0,1,3.388,2.347,1.8,1.8,0,0,1,.073.575c-.05.592,0,1.079.651,1.387a1.023,1.023,0,0,1,.372.769c.035,1.3.023,2.6,0,3.9a1.083,1.083,0,0,1-1.176,1.112C-11651.986-6318.963-11652.955-6318.972-11653.929-6318.972Zm2.455-1.027c.429,0,.631-.111.619-.586-.029-.951-.023-1.9,0-2.854,0-.4-.108-.6-.558-.589q-2.556.026-5.112,0c-.432,0-.555.161-.531.586.038.948.047,1.9,0,2.852-.023.493.161.6.593.589.824-.012,1.646,0,2.464,0,.555,0,1.117-.006,1.681-.006C-11652.039-6320-11651.755-6320-11651.474-6320Zm-2.81-7.961c-1.209.252-1.654.9-1.729,2.429-.021.4.121.507.47.5.537-.012,1.079-.012,1.619-.012v0c.52,0,1.038.021,1.555,0a.556.556,0,0,0,.446-.246,2.174,2.174,0,0,0-2.013-2.708A1.738,1.738,0,0,0-11654.283-6327.96Zm.3,6.946a1.062,1.062,0,0,1-1.026-.977,1.047,1.047,0,0,1,1.047-1.015,1,1,0,0,1,.9.493,1,1,0,0,1-.012,1.026,1,1,0,0,1-.851.476A.433.433,0,0,1-11653.981-6321.014Zm-13.271-4.274a10.527,10.527,0,0,1,2.136-7.207c2.435-3.394,5.427-5.116,8.9-5.116a12.852,12.852,0,0,1,4.112.727,13.462,13.462,0,0,0-2.666-.281c-3.925,0-7.31,1.948-10.062,5.787a12.483,12.483,0,0,0-2.414,6.09Zm20.724-9.442a23.694,23.694,0,0,0-2.6-1.241c-.006-.018-.015-.035-.021-.053-1.246-2.71-2.73-4.3-4.819-5.145a8.284,8.284,0,0,0-2.651-.672,5.045,5.045,0,0,1,1.076-.114,8.908,8.908,0,0,1,3.312.771c2.361.954,4.042,2.746,5.45,5.814.062.135.114.273.179.434.026.064.053.132.079.2l0,0Zm-16.206-7.949a11.034,11.034,0,0,0,7-10.261,10.908,10.908,0,0,0-3.355-7.952,10.432,10.432,0,0,0-6.551-3.095c-.246-.009-.486-.012-.716-.012a10.763,10.763,0,0,0-8.134,3.115,10.9,10.9,0,0,0-3.288,8.078,10.826,10.826,0,0,0,6.251,9.827,13.023,13.023,0,0,1-5.579-4.582,11.273,11.273,0,0,1-2.045-6.782,12.317,12.317,0,0,1,3.717-9.134,12.175,12.175,0,0,1,9.193-3.523c.264,0,.536.006.81.015a11.806,11.806,0,0,1,7.412,3.5,12.316,12.316,0,0,1,3.79,8.988,12.535,12.535,0,0,1-8.5,11.818Z" transform="translate(11688 6367)" fill="#2b89e1"/>
</svg>
