<svg xmlns="http://www.w3.org/2000/svg" width="51.353" height="55.336" viewBox="0 0 51.353 55.336">
  <path id="Path_650" data-name="Path 650" d="M-4337.517-6311.665a14.811,14.811,0,0,1-10.538-4.362,14.819,14.819,0,0,1-4.378-10.535,14.825,14.825,0,0,1,4.354-10.558,14.831,14.831,0,0,1,10.544-4.386,14.816,14.816,0,0,1,10.53,4.378,14.8,14.8,0,0,1,4.357,10.538,14.844,14.844,0,0,1-4.365,10.529,14.714,14.714,0,0,1-10.478,4.4Zm-8.777-15.788a1.23,1.23,0,0,0-.23.171.9.9,0,0,0-.31.65,1.35,1.35,0,0,0,.458.924c1.759,1.769,3.506,3.52,5.195,5.2a1.294,1.294,0,0,0,.876.486h.029a1.339,1.339,0,0,0,.861-.487l1.164-1.163.972-.973,1.924-1.927c2.524-2.528,4.727-4.739,6.732-6.759a1.209,1.209,0,0,0,.407-.844.96.96,0,0,0-.332-.688.869.869,0,0,0-.622-.27.971.971,0,0,0-.328.061,1.472,1.472,0,0,0-.537.345c-.457.444-.861.847-1.233,1.232l-9.027,9.071c-.1-.1-.2-.2-.3-.3-1.373-1.377-2.712-2.724-4.345-4.372a1.372,1.372,0,0,0-.932-.478A.857.857,0,0,0-4346.294-6327.453Zm-27.665,9.257a6.661,6.661,0,0,1-.04-.837v-43.084a4.509,4.509,0,0,1,3.215-4.688,5.4,5.4,0,0,1,1.462-.157q5.736-.005,11.471,0c8.793,0,17.588.01,26.382-.039a4.65,4.65,0,0,1,4.81,4.821c-.016,4.739,0,9.479,0,14.215l0,5.626h-3.91v-19.641c0-1.052-.04-1.092-1.077-1.092h-37.468c-.919,0-.989.064-.989.991v41.327a5.588,5.588,0,0,0,.46-.342c2.353-2.154,4.695-4.308,7.062-6.433a1.684,1.684,0,0,1,1.01-.4c2.081-.027,4.163-.027,6.292-.027v3.888c-1.4,0-2.795.051-4.182-.02a2.569,2.569,0,0,0-2.049.793q-3.643,3.434-7.368,6.756a4.206,4.206,0,0,1-1.778.967,2.809,2.809,0,0,1-.611.068A2.815,2.815,0,0,1-4373.959-6318.2Zm8.343-22.748v-3.021h20.793v3.021Zm.016-7.4v-3.035h30.466v3.035Zm-.006-7.419v-3.007h30.446v3.007Z" transform="translate(4374 6367.001)" fill="#2b89e1"/>
</svg>
