<svg xmlns="http://www.w3.org/2000/svg" width="27" height="27.001" viewBox="0 0 27 27.001">
  <path id="pending" d="M-4360.5-6340a13.41,13.41,0,0,1-9.546-3.955A13.411,13.411,0,0,1-4374-6353.5a13.41,13.41,0,0,1,3.955-9.546A13.41,13.41,0,0,1-4360.5-6367a13.408,13.408,0,0,1,9.545,3.955A13.411,13.411,0,0,1-4347-6353.5a13.411,13.411,0,0,1-3.954,9.546A13.408,13.408,0,0,1-4360.5-6340Zm-5.623-7.833v1.355h11.075v-1.377h-1.369v-.559c0-.527,0-1.026-.011-1.531a.759.759,0,0,0-.193-.465c-.656-.68-1.319-1.338-1.938-1.948-.335-.333-.678-.654-1.059-1.01l.126-.134.029-.032c.044-.047.082-.087.121-.126l.506-.507.2-.2c.612-.617,1.245-1.254,1.887-1.874a1,1,0,0,0,.337-.829c-.019-.444-.015-.894-.011-1.328,0-.188,0-.378,0-.572h1.373v-1.355h-11.075v1.377h1.368c0,.172,0,.343,0,.511v.083c0,.455.008.884-.01,1.327a.923.923,0,0,0,.32.767c.68.659,1.335,1.313,2.028,2.007l.84.839-.125.135-.091.1-.04.042q-.385.383-.767.768l-.038.039c-.6.6-1.22,1.224-1.839,1.827a.862.862,0,0,0-.286.713c.013.439.01.874.007,1.334v.014c0,.2,0,.408,0,.616Zm8.322-.039h-5.562c0-.146,0-.29,0-.435v-.092c0-.372,0-.757,0-1.134a.329.329,0,0,1,.095-.2c.787-.8,1.559-1.57,2.376-2.388l.307-.308.306.306c.764.767,1.568,1.576,2.363,2.375a.374.374,0,0,1,.109.23c.007.4.006.779.005,1.236q0,.2,0,.411Zm-2.855-6.438h0c-.023-.038-.044-.075-.065-.112l-.015-.026a1.325,1.325,0,0,0-.188-.278c-.318-.323-.649-.655-.96-.967-.462-.461-.877-.878-1.285-1.3a.713.713,0,0,1-.182-.433c-.017-.349-.015-.694-.012-1.059v-.033q0-.214,0-.435l5.558,0q0,.207,0,.412c0,.421,0,.857,0,1.286a.3.3,0,0,1-.086.171c-.982.987-1.833,1.841-2.76,2.77Z" transform="translate(4374 6367)" fill="#ffc041"/>
</svg>
