<svg xmlns="http://www.w3.org/2000/svg" width="62.199" height="57.189" viewBox="0 0 62.199 57.189">
  <g id="Product_Default_Img" data-name="Product Default Img" transform="translate(-363 -216.872)">
    <g id="Group_1320" data-name="Group 1320" transform="translate(8 13.501)">
      <path id="Path_744" data-name="Path 744" d="M0,0H36.3V29.989H0Z" transform="translate(382.994 204.693) rotate(30)" fill="#fff"/>
      <path id="Icon_metro-image" data-name="Icon metro-image" d="M2.427,2.256l0,0V29.319l0,0h33.9l0,0V2.26l0,0ZM2.422,0H36.333a2.35,2.35,0,0,1,2.422,2.256V29.323a2.35,2.35,0,0,1-2.422,2.256H2.422A2.35,2.35,0,0,1,0,29.323V2.256A2.35,2.35,0,0,1,2.422,0ZM7.267,7.895A3.515,3.515,0,0,0,10.9,11.278a3.515,3.515,0,0,0,3.633-3.383A3.515,3.515,0,0,0,10.9,4.511,3.515,3.515,0,0,0,7.267,7.895ZM4.844,27.067H33.911V22.556L25.433,9.022,15.744,20.3H13.322L4.844,13.534Z" transform="translate(382.307 203.371) rotate(30)" fill="#afafaf"/>
      <path id="Path_745" data-name="Path 745" d="M0,0H36.3V29.989H0Z" transform="translate(355.789 222.019)" fill="#fff"/>
      <path id="Icon_metro-image-2" data-name="Icon metro-image" d="M5,6.112l0,0V33.175l0,0H38.9l0,0V6.116l0,0Zm0-2.256H38.9a2.35,2.35,0,0,1,2.422,2.256V33.179A2.35,2.35,0,0,1,38.9,35.435H4.993a2.35,2.35,0,0,1-2.422-2.256V6.112A2.35,2.35,0,0,1,4.993,3.856Zm4.844,7.895a3.515,3.515,0,0,0,3.633,3.383A3.515,3.515,0,0,0,17.1,11.751a3.515,3.515,0,0,0-3.633-3.383,3.515,3.515,0,0,0-3.633,3.383ZM7.415,30.924H36.482V26.412L28,12.879,18.315,24.157H15.893L7.415,17.39Z" transform="translate(352.429 216.609)" fill="#afafaf"/>
    </g>
    <path id="Path_746" data-name="Path 746" d="M-27.6,0h-.577l-2.054-3.3-.018.006V0h-.577V-4.266h.577L-28.19-.973l.018-.006V-4.266h.577Zm4.4-1.752a1.82,1.82,0,0,1-.485,1.3,1.649,1.649,0,0,1-1.258.516A1.563,1.563,0,0,1-26.15-.454a1.86,1.86,0,0,1-.467-1.3v-.759a1.866,1.866,0,0,1,.467-1.3,1.559,1.559,0,0,1,1.214-.519,1.646,1.646,0,0,1,1.258.517,1.825,1.825,0,0,1,.485,1.3Zm-.577-.765a1.439,1.439,0,0,0-.316-.961,1.055,1.055,0,0,0-.85-.375.977.977,0,0,0-.8.375,1.489,1.489,0,0,0-.3.961v.765a1.5,1.5,0,0,0,.3.967.977.977,0,0,0,.8.375,1.055,1.055,0,0,0,.851-.374,1.451,1.451,0,0,0,.315-.968ZM-19.99,0h-.58V-4.266h.58Zm1.945-4.266L-16.686-.8h.018l1.359-3.466h.738V0h-.577V-1.687l.059-1.734-.015,0L-16.486,0h-.384l-1.377-3.416-.015,0,.056,1.726V0h-.577V-4.266ZM-11.028-1.1h-1.787l-.4,1.1h-.589l1.649-4.266h.5L-10.041,0h-.589Zm-1.608-.483H-11.2l-.7-1.942h-.018ZM-6.244-.565a1.365,1.365,0,0,1-.529.431,2.1,2.1,0,0,1-.974.2A1.732,1.732,0,0,1-9.011-.428a1.694,1.694,0,0,1-.5-1.266v-.879a1.76,1.76,0,0,1,.466-1.266,1.585,1.585,0,0,1,1.2-.489,1.708,1.708,0,0,1,1.151.36,1.2,1.2,0,0,1,.428.929l-.006.018h-.551A.894.894,0,0,0-7.1-3.633a1.042,1.042,0,0,0-.74-.24.967.967,0,0,0-.788.366,1.419,1.419,0,0,0-.3.928V-1.7A1.337,1.337,0,0,0-8.6-.76a1.1,1.1,0,0,0,.85.367,1.561,1.561,0,0,0,.595-.1.832.832,0,0,0,.331-.219v-.968h-.935V-2.13h1.512Zm3.65-1.412H-4.548V-.454H-2.3V0h-2.83V-4.266h2.8v.454H-4.548v1.38h1.954ZM2.424-1.1H.637L.233,0H-.356L1.293-4.266h.5L3.412,0H2.823ZM.816-1.582H2.251l-.7-1.942H1.531Zm4.567.521.1.337H5.5l.1-.337L6.7-4.266H7.32L5.735,0h-.5L3.655-4.266h.627Zm4.74-.038H8.336L7.932,0H7.343L8.992-4.266h.5L11.111,0h-.589ZM8.515-1.582H9.95l-.7-1.942H9.23ZM12.426,0h-.58V-4.266h.58ZM14.21-.454h2.019V0h-2.6V-4.266h.577ZM19.36-1.1H17.573l-.4,1.1H16.58l1.649-4.266h.5L20.347,0h-.589Zm-1.608-.483h1.436l-.7-1.942h-.018ZM21.053,0V-4.266h1.392a1.687,1.687,0,0,1,1.046.289,1.021,1.021,0,0,1,.378.866.786.786,0,0,1-.182.508,1.076,1.076,0,0,1-.478.333.986.986,0,0,1,.608.378,1.118,1.118,0,0,1,.221.688,1.087,1.087,0,0,1-.379.9A1.583,1.583,0,0,1,22.63,0Zm.577-2V-.454h1a.894.894,0,0,0,.612-.194.7.7,0,0,0,.22-.55.871.871,0,0,0-.183-.587A.7.7,0,0,0,22.715-2Zm0-.454h.935a.766.766,0,0,0,.524-.177.622.622,0,0,0,.2-.494.617.617,0,0,0-.218-.517,1,1,0,0,0-.628-.171h-.814Zm3.955,2H27.6V0h-2.6V-4.266h.577ZM30.9-1.978H28.946V-.454H31.2V0h-2.83V-4.266h2.8v.454H28.946v1.38H30.9Z" transform="translate(394 274)" fill="#afafaf"/>
  </g>
</svg>
