<svg xmlns="http://www.w3.org/2000/svg" width="23.193" height="23.312" viewBox="0 0 23.193 23.312">
  <g id="Report" transform="translate(-9.807 -353.9)">
    <path id="Path_565" data-name="Path 565" d="M1.147.468c.23-.4.5-.536.861-.436a.768.768,0,0,1,.5.778c.006.65,0,1.3,0,1.95q0,9.326-.008,18.653c0,.347.1.427.436.427q6.348-.013,12.695,0c2.541,0,5.082.029,7.622.032a1.315,1.315,0,0,1,1.023.373v1.064h-.425c-.064-.039-.125-.107-.191-.111-.127-.007-.256.034-.384.034q-5.639,0-11.278,0-5.069,0-10.143.008c-.309-.063-.6-.157-.709-.5l0-8.727Z" transform="translate(8.726 353.899)" fill="#fff"/>
    <path id="Path_566" data-name="Path 566" d="M14.8,444.009,24.943,444l11.278,0c.128,0,.257-.041.384-.034.065,0,.127.072.191.111H14.806A.167.167,0,0,1,14.8,444.009Z" transform="translate(-4.219 -66.863)" fill="#fff"/>
    <path id="Path_567" data-name="Path 567" d="M.066,8.939l0,13.554H0V8.942a.566.566,0,0,1,.066,0Z" transform="translate(9.807 345.428)" fill="#fff"/>
    <path id="Path_568" data-name="Path 568" d="M0,268.28H.062q0,4.363,0,8.727-.033,0-.066,0Z" transform="translate(9.807 99.64)" fill="#fff"/>
    <path id="Path_570" data-name="Path 570" d="M364.788,109.318v-.4q0-5.407-.006-10.813a2.415,2.415,0,0,1,.339-1.28c.705-1.188,1.4-2.382,2.1-3.573.035-.059.078-.112.178-.256a6.537,6.537,0,0,1,.082.684q.043,7.568.079,15.135c0,.5,0,.5-.519.5Z" transform="translate(-335.913 265.76)" fill="#fff"/>
    <path id="Path_571" data-name="Path 571" d="M55.9,19.388l-.523-.112,2.172-1.656.12.062c-.12.871-.24,1.742-.37,2.69l-.4-.353c-.247.41-.485.8-.715,1.189Q54,24.937,51.813,28.669c-.314.53-.486.594-1.082.407-.888-.279-1.781-.557-2.665-.855a.447.447,0,0,0-.647.271c-.665,1.423-1.345,2.84-2.019,4.26-.036.075-.07.15-.109.223-.279.526-.438.6-.986.375-1.169-.48-2.33-.98-3.5-1.469-.437-.184-.439-.181-.657.25l-2.665,5.286c-.052.1-.114.2-.172.3l-.1-.008a14.112,14.112,0,0,1-.006-1.862,4.183,4.183,0,0,1,.46-1.284c.585-1.2,1.2-2.386,1.8-3.577.314-.621.484-.694,1.116-.429,1.111.467,2.216.946,3.326,1.416.5.209.5.2.723-.27q1.029-2.16,2.06-4.318c.267-.557.409-.62,1-.438q1.338.413,2.673.831c.55.171.565.169.865-.342q1.848-3.149,3.693-6.3c.251-.428.5-.854.751-1.286C55.757,19.708,55.818,19.556,55.9,19.388Z" transform="translate(-25.422 337.201)" fill="#fff"/>
    <path id="Path_572" data-name="Path 572" d="M290.574,236.032H287.94v-8.079a3.918,3.918,0,0,1,.475.089,1.24,1.24,0,0,0,1.5-.558c.187-.261.385-.516.578-.774l.081.039Z" transform="translate(-263.086 139.037)" fill="#fff"/>
    <path id="Path_573" data-name="Path 573" d="M210.564,242.189c0,1.288-.008,2.577.006,3.867,0,.294-.085.39-.381.382q-.993-.028-1.986,0c-.3.009-.413-.067-.407-.391.018-1.1,0-2.195,0-3.292a4.86,4.86,0,0,1,.506-2.182c.418-.846.818-1.7,1.232-2.547.088-.18.14-.431.446-.314.27.1.6.08.591.545-.027,1.311-.009,2.623-.009,3.935Z" transform="translate(-187.13 128.639)" fill="#fff"/>
    <path id="Path_574" data-name="Path 574" d="M130.072,317.61c.475.192.931.374,1.385.56.317.129.627.277.951.387a.39.39,0,0,1,.314.433c-.013.957-.01,1.914,0,2.871,0,.239-.062.338-.319.332-.7-.014-1.394-.006-2.09,0-.164,0-.3.005-.3-.23.008-1.406.007-2.811.01-4.217A.672.672,0,0,1,130.072,317.61Z" transform="translate(-113.409 52.887)" fill="#fff"/>
    <path id="Path_575" data-name="Path 575" d="M58.448,314.418v4.7H56l2.358-4.726Z" transform="translate(-43.267 55.939)" fill="#fff"/>
  </g>
</svg>
