<svg xmlns="http://www.w3.org/2000/svg" width="66.218" height="55.466" viewBox="0 0 66.218 55.466">
  <g id="report_issue" data-name="report issue" transform="translate(-1260 -3346)">
    <path id="Path_335" data-name="Path 335" d="M50.188,128.051A19.547,19.547,0,0,1,41.92,121.7c.289-.018.469-.043.649-.043,2.379,0,4.765-.058,7.144.04,1.2.046,2.382.42,3.583.567,3.388.408,6.7.235,9.655-1.606.088,2.239.177,4.469.274,6.894l-3.184,1.1a5.855,5.855,0,0,1-.277,4.57h4.347c1.807,0,2.559.756,2.562,2.574v1.389a2.057,2.057,0,0,1-2.209,2.175H44.924a2.07,2.07,0,0,1-2.267-2.264v-1.682a2.076,2.076,0,0,1,2.209-2.184h5.295A5.737,5.737,0,0,1,50.188,128.051Z" transform="translate(1230.853 3262.1)" fill="#2b89e1"/>
    <path id="Path_336" data-name="Path 336" d="M8.244,34.884a2.647,2.647,0,0,0-1.615,2.273c-.07.643-.3.8-.9.8-.941,0-1.88.1-2.9.155a7.28,7.28,0,0,1,2.078-5.328,14.7,14.7,0,0,1,4.6-3.022c1.59-.719,3.178-1.444,4.759-2.187a1.98,1.98,0,0,0,.756-.658c-.692.03-1.383.049-2.072.11-.107,0-.18.235-.3.3a2.766,2.766,0,0,1-.551.3q-2.107.914-4.223,1.779a.786.786,0,0,1-.609,0A22.764,22.764,0,0,1,4.509,27.8a6.428,6.428,0,0,1-.74-9.862,15.852,15.852,0,0,1,5.079-3.351,2.7,2.7,0,0,0,.762-.448H7l-.07-1.011,3.29-.2.119,1.115,3.635-1.779-.085-.189c-2.58.14-5.179.314-7.76.445a2.614,2.614,0,0,1-.719-.168v-.862l6.294-.427c.749-.049,1.5-.131,2.254-.125a3.25,3.25,0,0,1,.96.372c.387-.759,1.3-.521,2.133-.582s1.569-.11,2.483-.171c-.107.347-.161.609-.256.829a8.022,8.022,0,0,1-3.525,4.055C13.9,16.483,11.921,17.3,10,18.219c-.609.289-1.2.585-1.8.874l.079.259a24.717,24.717,0,0,0,2.769-.649c1.255-.442,2.459-1.027,3.689-1.542a.53.53,0,0,1,.4-.021c1.721.865,3.449,1.733,4.552,3.412,1.886,2.879,1.243,6.419-1.569,8.835a19.615,19.615,0,0,1-5.7,3.178,1.691,1.691,0,0,0-.7.463l2.236-.143,2.325-.168.158.143v1.018l-5.484.323-.165-1.146L8.222,34.884Zm7.068-8.25.207.119a16.3,16.3,0,0,0,1.1-1.578,2.407,2.407,0,0,0-.363-2.9c-1.6-1.621-3.686-2.233-5.862-2.8l-.122.762-2.267.107-.183-1.155a19.382,19.382,0,0,0-1.6,1.74A2.642,2.642,0,0,0,6.7,24.809a11.605,11.605,0,0,0,4.765,2.166v-.984l3.735-.222Z" transform="translate(1258.744 3338.657)" fill="#2d8ae2"/>
    <path id="Path_337" data-name="Path 337" d="M77.471,0a20.165,20.165,0,0,1,2.7,1.185c.82.481.932,1.478.536,2.568q-2.19,6.032-4.387,12.064-1.73,4.768-3.461,9.53c-.609,1.657-1.59,2.108-3.254,1.493-.408-.152-.823-.3-1.219-.454a2.111,2.111,0,0,1-1.347-2.928q2.044-5.731,4.128-11.452,1.88-5.179,3.766-10.358A2.321,2.321,0,0,1,77.471,0Z" transform="translate(1213.508 3346)" fill="#2b89e1"/>
    <path id="Path_338" data-name="Path 338" d="M110.807,50.265a13.427,13.427,0,0,0-5.59-10.249.879.879,0,0,1-.344-1.194c.679-2,1.31-4.018,2-6.172.832.506,1.639.914,2.373,1.45a18.957,18.957,0,0,1,7.312,11.01.765.765,0,0,1-.2.655c-.963.7-2,1.292-2.931,2.035S111.7,49.415,110.807,50.265Z" transform="translate(1187.149 3323.297)" fill="#2b89e1"/>
    <path id="Path_339" data-name="Path 339" d="M15.84,108.8V105.81H39.116V108.8Z" transform="translate(1248.987 3272.426)" fill="#2c8ae1"/>
    <path id="Path_340" data-name="Path 340" d="M28.091,77.66l-.158-.143-.448-.558L30.379,75a6.493,6.493,0,0,1,2.587,6.376.832.832,0,0,1-.609.42c-1.6.14-3.2.241-4.8.338q-4.073.256-8.147.494h-.78l-.052-1.082L29.5,80.852c-.037-.375-.07-.707-.1-1.039-.091-.232-.183-.463-.271-.692C28.777,78.628,28.433,78.144,28.091,77.66Z" transform="translate(1247.082 3293.849)" fill="#2e8be2"/>
    <path id="Path_341" data-name="Path 341" d="M5.742,16.394h.015a2.215,2.215,0,0,1-.411.527c-.914.609-1.828,1.2-2.775,1.828A5.627,5.627,0,0,1,.012,13.981a27.984,27.984,0,0,1,3.047-.161c.3,0,.576.533.865.823A2.851,2.851,0,0,0,5.742,16.394Z" transform="translate(1260.005 3336.39)" fill="#2e8be2"/>
    <path id="Path_342" data-name="Path 342" d="M32.143,88.51c.088.228.18.46.271.692-.2.57-.661.588-1.173.609-2.468.128-4.932.3-7.4.442h-.856c-.021-.417-.04-.8-.058-1.176h0c2.288-.116,4.57-.222,6.867-.353C30.568,88.693,31.357,88.586,32.143,88.51Z" transform="translate(1244.057 3284.455)" fill="#328de2"/>
    <path id="Path_346" data-name="Path 346" d="M16.22,50.507V49.379l9.648-.609L26,49.882Z" transform="translate(1248.723 3312.088)" fill="#318de2"/>
    <path id="Path_347" data-name="Path 347" d="M22.4,56V54.878l8.134-.518.055,1.109Z" transform="translate(1244.426 3308.201)" fill="#318de2"/>
    <path id="Path_348" data-name="Path 348" d="M17.185,45.246l-.055-1.112,6.836-.484.146,1.106Z" transform="translate(1248.09 3315.648)" fill="#318ce2"/>
    <path id="Path_682" data-name="Path 682" d="M-4358.63-6349h-9.741a2.97,2.97,0,0,1-2.6-1.5,2.972,2.972,0,0,1,.007-3l4.871-8.38a2.97,2.97,0,0,1,2.593-1.492,2.972,2.972,0,0,1,2.594,1.492l4.87,8.38a2.969,2.969,0,0,1,.007,3A2.97,2.97,0,0,1-4358.63-6349Zm-5.273-3.156v1.184h1.21v-1.184Zm0-7.887v6.311h1.21v-6.311Z" transform="translate(5674 9740)"/>
    <path id="Path_683" data-name="Path 683" d="M-4358.784-6336.565a15.115,15.115,0,0,1-10.759-4.458,15.119,15.119,0,0,1-4.458-10.761,15.115,15.115,0,0,1,4.458-10.759,15.115,15.115,0,0,1,10.759-4.458,15.119,15.119,0,0,1,10.761,4.458,15.115,15.115,0,0,1,4.458,10.759,15.117,15.117,0,0,1-4.458,10.761A15.117,15.117,0,0,1-4358.784-6336.565Zm0-28.829a13.626,13.626,0,0,0-13.611,13.611,13.627,13.627,0,0,0,13.611,13.612,13.628,13.628,0,0,0,13.612-13.612A13.627,13.627,0,0,0-4358.784-6365.395Z" transform="translate(5669.783 9736.783)"/>
  </g>
</svg>
