<svg xmlns="http://www.w3.org/2000/svg" width="22.553" height="29.6" viewBox="0 0 22.553 29.6">
  <path id="Request_access" data-name="Request access" d="M25.733,11.367h-1.41V8.548a7.048,7.048,0,0,0-14.1,0v2.819H8.819A2.827,2.827,0,0,0,6,14.186v14.1A2.827,2.827,0,0,0,8.819,31.1H25.733a2.827,2.827,0,0,0,2.819-2.819v-14.1A2.827,2.827,0,0,0,25.733,11.367ZM17.276,24.053A2.819,2.819,0,1,1,20.1,21.233,2.827,2.827,0,0,1,17.276,24.053Zm4.37-12.686H12.907V8.548a4.37,4.37,0,0,1,8.739,0Z" transform="translate(-6 -1.5)" fill="#f00101"/>
</svg>
