<svg xmlns="http://www.w3.org/2000/svg" width="23" height="19.363" viewBox="0 0 23 19.363">
  <path id="schduler" d="M-4372-6347.637a2,2,0,0,1-2-2v-14a2,2,0,0,1,2-2h2.077v-.861a.5.5,0,0,1,.5-.5.5.5,0,0,1,.5.5v.861h2.45v-.812a.5.5,0,0,1,.5-.5.5.5,0,0,1,.5.5v.812h2.45v-.812a.5.5,0,0,1,.5-.5.5.5,0,0,1,.5.5v.812h2.449v-.812a.5.5,0,0,1,.5-.5.5.5,0,0,1,.5.5v.812h2.45v-.812a.5.5,0,0,1,.5-.5.5.5,0,0,1,.5.5v.812H-4353a2,2,0,0,1,2,2v14a2,2,0,0,1-2,2Zm15.317-1H-4354a2,2,0,0,0,2-2v-2.685A5.007,5.007,0,0,1-4356.683-6348.638Zm-16.318-14v12a2,2,0,0,0,2,2h13.69a5.011,5.011,0,0,1-4.691-4.995,5.01,5.01,0,0,1,5-5,5.01,5.01,0,0,1,5,4.691v-8.692a2,2,0,0,0-2-2h-1.122v.417a.5.5,0,0,1-.5.5.5.5,0,0,1-.5-.5v-.417h-2.45v.417a.5.5,0,0,1-.5.5.5.5,0,0,1-.5-.5v-.417h-2.449v.417a.5.5,0,0,1-.5.5.5.5,0,0,1-.5-.5v-.417h-2.45v.417a.5.5,0,0,1-.5.5.5.5,0,0,1-.5-.5v-.417h-2.45v.366a.5.5,0,0,1-.5.5.5.5,0,0,1-.5-.5v-.366H-4371A2,2,0,0,0-4373-6362.638Zm14,9.568,1.209.846.029.032,2.157-2.085-.347-.358-1.855,1.79-.906-.635Zm7-.252c.006-.1.009-.2.009-.31s0-.214-.009-.312Zm-12.935,2.2h-2.6v-1.149h2.6v1.149Zm-4.592,0h-2.6v-1.149h2.6v1.149Zm4.592-4.592h-2.6v-1.147h2.6v1.146h0Zm-4.592,0h-2.6v-1.147h2.6v1.146h0Zm14.924-4.592h-2.6v-1.147h2.6v1.146h0Zm-4.592,0h-2.6v-1.147h2.6v1.146h0Zm-5.74,0h-2.6v-1.147h2.6v1.146h0Zm-4.592,0h-2.6v-1.147h2.6v1.146h0Z" transform="translate(4374 6367)" fill="#fff"/>
</svg>
