<svg xmlns="http://www.w3.org/2000/svg" width="21.113" height="22.242" viewBox="0 0 21.113 22.242">
  <g id="Service_Request" data-name="Service Request" transform="translate(16.003 37)">
    <g id="Layer_2" data-name="Layer 2" transform="translate(-16.003 -37)">
      <path id="Path_561" data-name="Path 561" d="M3.928,22.242H3.415c-.544-.429-.54-.7.026-1.1a2.225,2.225,0,0,0,.932-1.486c.068-.4.07-.811.113-1.216.023-.226-.061-.3-.287-.3q-.851.019-1.7,0A2.5,2.5,0,0,1,0,15.6Q-.006,9.065,0,2.526a2.292,2.292,0,0,1,1.033-2A6.714,6.714,0,0,1,2.327,0c.107,0,.214.01.321.01H18.267c.169,0,.343-.006.514-.01A2.571,2.571,0,0,1,21.11,2.309c0,.107-.01.214-.01.321V15.444c0,.139.007.279.011.418a2.542,2.542,0,0,1-2.72,2.286q-4.61,0-9.219,0a.44.44,0,0,0-.456.291,10.808,10.808,0,0,1-.949,1.636,4.935,4.935,0,0,1-3.6,2.047C4.082,22.126,4.007,22.2,3.928,22.242Zm1.019-1.3a3.23,3.23,0,0,0,1.644-.9,5.919,5.919,0,0,0,1.4-2.325c.181-.506.26-.56.794-.56h9.741a1.506,1.506,0,0,0,1.594-1.567q.008-6.5,0-12.994a1.5,1.5,0,0,0-1.584-1.576q-7.989,0-15.977,0A1.5,1.5,0,0,0,.984,2.566q-.01,6.514,0,13.026a1.5,1.5,0,0,0,1.57,1.56c.772,0,1.543,0,2.315,0,.471,0,.643.17.643.64a6.084,6.084,0,0,1-.561,3.149Z" transform="translate(0.003)" fill="#fff"/>
      <path id="Path_562" data-name="Path 562" d="M105.076,64.99a2.947,2.947,0,0,1-.728,3.626,2.87,2.87,0,0,1-2.71.6.442.442,0,0,0-.5.136q-2.789,2.81-5.591,5.607A1.251,1.251,0,1,1,93.8,73.174c1.68-1.688,3.352-3.384,5.054-5.051a1.547,1.547,0,0,0,.595-1.569,2.668,2.668,0,0,1,1.28-2.733,2.926,2.926,0,0,1,2.971-.235l-2.274,2.166,1.492,1.5Z" transform="translate(-88.83 -60.22)" fill="#fff"/>
      <path id="Path_563" data-name="Path 563" d="M233.77,205.3l1.736-1.765c.082.078.175.164.264.253q1.421,1.423,2.84,2.848a1.254,1.254,0,0,1-.7,2.168,1.123,1.123,0,0,1-.975-.317c-1.054-1.038-2.1-2.091-3.139-3.139A.1.1,0,0,1,233.77,205.3Z" transform="translate(-222.427 -193.664)" fill="#fff"/>
      <path id="Path_564" data-name="Path 564" d="M99.385,69.456l-.674.724c-.668-.669-1.328-1.313-1.965-1.979a.776.776,0,0,0-.728-.3.406.406,0,0,1-.459-.253c-.251-.45-.519-.891-.792-1.327a.263.263,0,0,1,.049-.385c.527-.545.523-.55,1.16-.166.3.182.6.376.912.542a.4.4,0,0,1,.257.458.784.784,0,0,0,.291.731C98.1,68.144,98.739,68.807,99.385,69.456Z" transform="translate(-90.108 -62.328)" fill="#fff"/>
    </g>
  </g>
</svg>
