<svg xmlns="http://www.w3.org/2000/svg" width="65.001" height="53.276" viewBox="0 0 65.001 53.276">
  <path id="Setup_in" data-name="Setup in" d="M-4362.465-6313.741a4.538,4.538,0,0,1-4.734-4.142,14.945,14.945,0,0,1-.115-2.02v-31.353c0-1.034,0-1.037-1.01-1.037-1.64,0-3.279-.021-4.918,0-.572,0-.748-.188-.73-.748a27.741,27.741,0,0,1,.083-3.792c.513-2.918,1.028-5.952,3.391-8.175a6.7,6.7,0,0,1,4.771-1.968c10.808.03,21.612.08,32.417-.021a5.7,5.7,0,0,1,5.889,5.387c.165,2.384.105,4.789.105,7.183a.857.857,0,0,1-.439.643c-.922.356-1.875.641-2.948.991v-8.226a2.507,2.507,0,0,0-2.694-2.629c-10.158.043-20.319.019-30.48.019-.286,0-.569.024-.957.042a9.354,9.354,0,0,1,.508,1.527,24.057,24.057,0,0,1,.337,3.367q.038,19.434.021,38.868a6.573,6.573,0,0,0,.144,1.685,1.469,1.469,0,0,0,.7.878c.2.09.643-.176.877-.391a4.66,4.66,0,0,0,1.313-2.963,39.334,39.334,0,0,0,.31-4.178c0-.718.249-.91.942-.91q9.031.022,18.063-.03a1.132,1.132,0,0,1,1.192.7c.422.858.933,1.683,1.465,2.613-.364,0-.643.04-.925.04-5.456,0-10.912.03-16.371,0-.758,0-1.068.192-1.183,1.01a31.3,31.3,0,0,1-.855,3.589c-.1.408-.034.635.425.63h23.548a3.232,3.232,0,0,1,1.531.337,22.061,22.061,0,0,0,5.97,2.357.678.678,0,0,1,.428.377,30.674,30.674,0,0,1-3.169.337q-8.227.017-16.452.017T-4362.465-6313.741Zm-6.34-48.2a12.263,12.263,0,0,0-1.761,5.794c-.051.441.155.643.606.633q1.047-.026,2.091,0c.448,0,.63-.192.619-.633-.013-.643,0-1.29,0-1.937l.174-.031c-.212-1.232-.337-2.484-.672-3.7-.109-.417-.261-.616-.448-.616S-4368.575-6362.269-4368.805-6361.946Zm34.2,38.552A14.9,14.9,0,0,1-4339-6334a14.9,14.9,0,0,1,4.394-10.607A14.9,14.9,0,0,1-4324-6349a14.9,14.9,0,0,1,10.605,4.394A14.9,14.9,0,0,1-4309-6334a14.9,14.9,0,0,1-4.395,10.605A14.9,14.9,0,0,1-4324-6319,14.9,14.9,0,0,1-4334.606-6323.394Zm1.414-19.8A12.921,12.921,0,0,0-4337-6334a12.921,12.921,0,0,0,3.808,9.191A12.917,12.917,0,0,0-4324-6321a12.916,12.916,0,0,0,9.191-3.81A12.915,12.915,0,0,0-4311-6334a12.915,12.915,0,0,0-3.81-9.193A12.909,12.909,0,0,0-4324-6347,12.915,12.915,0,0,0-4333.192-6343.192Zm6.232,17.15a14.293,14.293,0,0,0-1.547-.62.747.747,0,0,1-.506-1,1.82,1.82,0,0,0-.264-1.545,1.416,1.416,0,0,0-1.146-.5,2.489,2.489,0,0,0-.617.084,1.389,1.389,0,0,1-.361.053c-.323,0-.529-.167-.689-.558-.23-.575-.494-1.171-.805-1.822-.2-.422-.1-.711.334-1a1.835,1.835,0,0,0,1.043-1.465,1.766,1.766,0,0,0-1.043-1.4c-.444-.262-.542-.545-.334-.977.1-.224.2-.465.267-.641l.006-.019c.053-.13.116-.291.182-.444l0-.01c.419-.973.505-1.174,1.167-1.174.147,0,.325.011.529.024l.1.006h.016c.043,0,.088,0,.132,0a1.57,1.57,0,0,0,1.3-.607,1.518,1.518,0,0,0,.181-1.389c-.192-.6-.053-.911.5-1.1.678-.235,1.323-.52,1.892-.772l.018-.008a.7.7,0,0,1,.348-.093.72.72,0,0,1,.224.037.712.712,0,0,1,.425.389,1.941,1.941,0,0,0,1.5,1.058,2.042,2.042,0,0,0,1.537-1.058,1.039,1.039,0,0,1,.77-.34.964.964,0,0,1,.126.008,19.485,19.485,0,0,1,2.074.794c.427.169.551.444.432.951a1.837,1.837,0,0,0,.2,1.6,1.4,1.4,0,0,0,1.15.479,3,3,0,0,0,.657-.08,1.594,1.594,0,0,1,.353-.043.771.771,0,0,1,.771.61c.094.254.212.527.316.764.038.088.077.176.113.264.513,1.2.513,1.2-.478,2.02a1.446,1.446,0,0,0-.57,1.294,1.446,1.446,0,0,0,.813,1.157c.652.34.775.733.439,1.406-.125.243-.237.506-.328.721l-.021.049c-.117.273-.238.553-.38.816a2.39,2.39,0,0,1-.538.532l-.664-.107a2.219,2.219,0,0,0-.417-.037,1.5,1.5,0,0,0-1.23.538,1.707,1.707,0,0,0-.2,1.512c.134.5.007.769-.437.933s-.813.325-1.234.512l-.009,0-.013,0a3.169,3.169,0,0,1-1,.313c-.326,0-.539-.229-1.053-.783a1.532,1.532,0,0,0-1.157-.531c-.044,0-.088,0-.125,0a1.545,1.545,0,0,0-1.178.727c-.273.441-.548.639-.892.639A1.541,1.541,0,0,1-4326.96-6326.042Zm-1.764-3.964a2.4,2.4,0,0,1,.764,1.932c-.034.534.134.775.617.9a1.956,1.956,0,0,1,.326.12l.007,0,.014,0a1.213,1.213,0,0,0,.46.131.762.762,0,0,0,.577-.338,2.4,2.4,0,0,1,1.8-.9h.078a2.4,2.4,0,0,1,1.777.786,1.04,1.04,0,0,0,.759.418,1.28,1.28,0,0,0,.595-.184,7.5,7.5,0,0,1,.773-.333,2.8,2.8,0,0,1,.5-2.315,2.9,2.9,0,0,1,2.285-.872c.157,0,.323.006.494.022a8.21,8.21,0,0,0,.474-1.139.753.753,0,0,0-.169-.631,2.742,2.742,0,0,1-1.045-1.984,2.712,2.712,0,0,1,1.026-1.974.736.736,0,0,0,.281-.494c-.061-.752-.506-1.154-1.4-1.262a3.742,3.742,0,0,1-1.66-.628,2.248,2.248,0,0,1-.775-2.619,8.708,8.708,0,0,0-1.24-.494.719.719,0,0,0-.139-.013.789.789,0,0,0-.524.2,3.015,3.015,0,0,1-2.079,1.061,2.936,2.936,0,0,1-2.038-1.039.823.823,0,0,0-.548-.211.623.623,0,0,0-.119.008,8.554,8.554,0,0,0-1.211.515,3.041,3.041,0,0,1-.551,2.467,2.327,2.327,0,0,1-1.832.767c-.075,0-.165,0-.274-.011a1.076,1.076,0,0,0-.131-.006c-.519,0-.646.3-.78.62a2.19,2.19,0,0,1-.134.285c-.227.406-.148.712.267,1.064a2.406,2.406,0,0,1,.932,1.843,2.341,2.341,0,0,1-.932,1.786c-.492.4-.379.692-.155,1.133.037.073.069.15.1.229l0,.008c.122.3.227.553.649.553a1.525,1.525,0,0,0,.2-.016,2.476,2.476,0,0,1,.348-.024A2.4,2.4,0,0,1-4328.725-6330.006Zm3.508.956a6.54,6.54,0,0,1-3.094-1.66,3,3,0,0,1-1.168-2.4l.92.521.174-.152a4.572,4.572,0,0,1,.248-3.848c.053-.1.006-.254-.058-.47l0-.018c-.049-.155-.089-.3-.122-.449l-.856,1.373-.262-.1a7.551,7.551,0,0,1,.6-1.232,4.866,4.866,0,0,1,3.348-2.2l.1.2a1.461,1.461,0,0,0-.361.275,2.045,2.045,0,0,0-.187.465,1.152,1.152,0,0,1,.118.046l.008,0,.027.013a.7.7,0,0,0,.257.078.294.294,0,0,0,.061-.008,4.935,4.935,0,0,1,1.385-.2,4.9,4.9,0,0,1,1.8.339.748.748,0,0,0,.23.03,3.188,3.188,0,0,0,.471-.053c.184-.032.35-.054.513-.069l-1.438-.859a1.239,1.239,0,0,1,.193-.015,3.862,3.862,0,0,1,2.526,1.443,3.367,3.367,0,0,1,1.063,2.313l-1-.595c.013.3.037.582.06.849l0,.043v.015a8.38,8.38,0,0,1,.034,1.619,4.158,4.158,0,0,1-1.948,3.042,5.049,5.049,0,0,0-.708.711l.206.281,1.724-.9c-.092.87-1.9,1.661-3.779,1.661A5.674,5.674,0,0,1-4325.217-6329.051Zm2.489-1.192-1.064.709.181.278a.587.587,0,0,1,.422-.182.583.583,0,0,0,.411-.176.86.86,0,0,0,.051-.638Zm-2.179.791.018,0a1.442,1.442,0,0,0,.331.054c.28,0,.446-.2.54-.634l-1.35.246.048.289a.438.438,0,0,1,.1-.011A1.318,1.318,0,0,1-4324.907-6329.452Zm-1.9-.513,1.2.142.029-.475-1.2-.061Zm-.2-7.271a4.113,4.113,0,0,0-1.237,2.862,3.879,3.879,0,0,0,1.2,2.827,4.234,4.234,0,0,0,2.953,1.143h.016a4.155,4.155,0,0,0,2.974-1.187,3.952,3.952,0,0,0,1.142-2.828,4.127,4.127,0,0,0-4.14-4h-.024A4.116,4.116,0,0,0-4327.016-6337.235Zm-1,6.393,1.069.331.131-.374-1.053-.406Zm7.478-6.169.956.626.267-.441-1-.554Zm-7.435-.764c-.04.177.1.409.437.708l.252-1.133C-4327.615-6338.106-4327.927-6337.99-4327.975-6337.775Zm6.545-.123,1.158.367.125-.441-1.173-.312Zm-36.133,6.752c-1.011,0-1.061-.07-1.064-1.046,0-.486.027-.97,0-1.451-.054-.708.245-.957.939-.946,2.2.025,4.4,0,6.6,0h8.417l-.024.013c.075,1.186.146,2.247.221,3.394-.337,0-.58.037-.839.037Zm32.3-2.106a1.611,1.611,0,0,1-.332-1.767,1.612,1.612,0,0,1,1.482-.978h.029a1.625,1.625,0,0,1,1.588,1.624,1.612,1.612,0,0,1-1.008,1.489,1.6,1.6,0,0,1-.605.118A1.613,1.613,0,0,1-4325.267-6333.252Zm1.14-2.434a1.269,1.269,0,0,0-1.207,1.325,1.266,1.266,0,0,0,1.267,1.211h.054a1.276,1.276,0,0,0,1.214-1.323,1.251,1.251,0,0,0-.407-.887,1.247,1.247,0,0,0-.845-.33A.572.572,0,0,0-4324.127-6335.686Zm-20.46-4.8c0-1.761-.141-1.683,1.644-1.683l1.838.013c-.337,1.1-.615,2.05-.949,2.983a.821.821,0,0,1-.55.431,10.22,10.22,0,0,1-1.1.1C-4344.557-6338.642-4344.584-6339.026-4344.587-6340.482Zm-9.188-.168c-1.582,0-1.6,0-1.63-1.583a.764.764,0,0,0-.672-.837c-.876-.243-1.731-.543-2.592-.829-.382-.128-.473-.335-.291-.747.256-.559.452-1.148.653-1.735.176-.518.42-.578.973-.417a22.613,22.613,0,0,0,3.367.694c.5.067,1.171.07,1.323-.619s-.5-.97-1-1.2c-.809-.358-1.654-.623-2.466-.97-2.531-1.091-3.384-3.594-1.879-5.821a5.445,5.445,0,0,1,1.943-1.478c.371-.206.6-.313.62-.775.049-1.549.067-1.549,1.6-1.549h.484c1.085,0,1.122,0,1.085,1.111-.024.69.289.956.9,1.091,2.062.447,2.058.46,1.56,2.512-.043.182-.054.369-.1.554-.1.441-.286.566-.8.444a20.206,20.206,0,0,0-3.232-.475c-.336-.022-.673.371-1.008.577.244.283.436.673.746.834.937.458,1.946.765,2.876,1.237,2.383,1.2,3.206,3.7,1.808,5.794a4.834,4.834,0,0,1-1.962,1.518,1.042,1.042,0,0,0-.765,1.119c0,1.446.174,1.548-.91,1.548C-4353.314-6340.647-4353.524-6340.65-4353.775-6340.65Zm14.219-5.212h-4.185c-.623,0-.879-.231-.849-.858s.021-1.237,0-1.855c0-.435.158-.65.605-.65l7.795.021c-.968,1.144-1.813,2.168-2.692,3.161a1.011,1.011,0,0,1-.586.186C-4339.5-6345.859-4339.527-6345.86-4339.557-6345.863Zm4.613-7.381c-1.475-.019-2.953,0-4.431,0s-2.957-.02-4.435,0c-.6,0-.824-.208-.784-.8a13.853,13.853,0,0,0,0-1.778c-.04-.617.229-.791.805-.788q4.434.023,8.869,0c.582,0,.757.231.733.775a17.035,17.035,0,0,0,0,1.855c.036.562-.2.744-.71.744Z" transform="translate(4374 6367)" fill="#318ce2"/>
</svg>
