<svg xmlns="http://www.w3.org/2000/svg" width="69" height="49.5" viewBox="0 0 69 49.5">
  <g id="Setup_image" data-name="Setup image" transform="translate(-1244 -252.75)">
    <g id="Icon_ionic-ios-image" data-name="Icon ionic-ios-image" transform="translate(1240.625 249.375)">
      <path id="Path_878" data-name="Path 878" d="M8.191,29.971H30.882a.663.663,0,0,0,.535-1.047L20.066,10.671a.656.656,0,0,0-1.083,0L7.643,28.924A.667.667,0,0,0,8.191,29.971Z" transform="translate(0.871 4.853)"/>
      <path id="Path_879" data-name="Path 879" d="M21.613,19.867l4.165,6.628a.645.645,0,0,0,.535.286h6.33a.663.663,0,0,0,.535-1.047L25.849,15.3a.656.656,0,0,0-1.083,0L21.6,19.117A.686.686,0,0,0,21.613,19.867Z" transform="translate(10.545 8.056)"/>
      <path id="Path_880" data-name="Path 880" d="M26.188,14.524a3.331,3.331,0,1,0-3.653-3.653A3.343,3.343,0,0,0,26.188,14.524Z" transform="translate(11.253 3.118)"/>
      <path id="Path_881" data-name="Path 881" d="M49.067,3.375H7.183A3.8,3.8,0,0,0,3.375,7.183V49.067a3.8,3.8,0,0,0,3.808,3.808H49.067a3.8,3.8,0,0,0,3.808-3.808V7.183A3.8,3.8,0,0,0,49.067,3.375Zm-.321,33.317a.955.955,0,0,1-.952.952H8.456a.955.955,0,0,1-.952-.952V8.456A.955.955,0,0,1,8.456,7.5h39.35a.955.955,0,0,1,.952.952V36.692Z" transform="translate(0 0)"/>
    </g>
    <path id="Path_882" data-name="Path 882" d="M17.5,0A17.5,17.5,0,1,1,0,17.5,17.5,17.5,0,0,1,17.5,0Z" transform="translate(1278 265)" fill="#fff"/>
    <path id="Path_883" data-name="Path 883" d="M-4359-6337a14.9,14.9,0,0,1-10.607-4.394A14.9,14.9,0,0,1-4374-6352a14.9,14.9,0,0,1,4.394-10.607A14.9,14.9,0,0,1-4359-6367a14.9,14.9,0,0,1,10.606,4.394A14.9,14.9,0,0,1-4344-6352a14.9,14.9,0,0,1-4.394,10.606A14.9,14.9,0,0,1-4359-6337Zm0-28a12.917,12.917,0,0,0-9.193,3.808A12.919,12.919,0,0,0-4372-6352a12.917,12.917,0,0,0,3.808,9.191A12.918,12.918,0,0,0-4359-6339a12.916,12.916,0,0,0,9.191-3.809A12.915,12.915,0,0,0-4346-6352a12.916,12.916,0,0,0-3.809-9.193A12.91,12.91,0,0,0-4359-6365Zm-2.282,21.153a1.544,1.544,0,0,1-.679-.195,14.578,14.578,0,0,0-1.547-.62.747.747,0,0,1-.506-1,1.821,1.821,0,0,0-.264-1.545,1.415,1.415,0,0,0-1.146-.5,2.468,2.468,0,0,0-.617.085,1.429,1.429,0,0,1-.361.053c-.323,0-.529-.167-.689-.558-.23-.575-.494-1.17-.805-1.821-.2-.422-.1-.711.334-1a1.835,1.835,0,0,0,1.043-1.465,1.766,1.766,0,0,0-1.043-1.4c-.445-.262-.542-.545-.334-.976.1-.223.2-.465.267-.641l.006-.019c.052-.129.116-.29.182-.444l0-.01c.419-.972.506-1.174,1.167-1.174.146,0,.324.011.529.024l.1.006h.016c.043,0,.088,0,.132,0a1.569,1.569,0,0,0,1.3-.607,1.518,1.518,0,0,0,.181-1.389c-.192-.6-.052-.91.5-1.1.678-.234,1.323-.52,1.892-.772l.018-.008a.7.7,0,0,1,.348-.093.7.7,0,0,1,.224.037.713.713,0,0,1,.425.388,1.94,1.94,0,0,0,1.5,1.058,2.04,2.04,0,0,0,1.538-1.058,1.043,1.043,0,0,1,.77-.34.864.864,0,0,1,.126.008,19.809,19.809,0,0,1,2.074.794c.427.169.552.445.432.951a1.84,1.84,0,0,0,.2,1.6,1.4,1.4,0,0,0,1.151.479,3.009,3.009,0,0,0,.657-.08,1.568,1.568,0,0,1,.353-.043.77.77,0,0,1,.77.61c.094.254.212.527.316.764.039.088.077.176.113.264.513,1.2.513,1.2-.478,2.02a1.444,1.444,0,0,0-.57,1.294,1.442,1.442,0,0,0,.813,1.157c.652.34.776.734.439,1.406-.125.243-.236.507-.327.721l-.021.049c-.117.273-.238.553-.381.817a2.35,2.35,0,0,1-.539.532l-.663-.107a2.353,2.353,0,0,0-.417-.037,1.5,1.5,0,0,0-1.23.539,1.708,1.708,0,0,0-.2,1.511c.134.5.007.769-.438.934s-.813.325-1.233.511l-.01,0-.013.005a3.154,3.154,0,0,1-1,.313c-.326,0-.539-.229-1.053-.783a1.531,1.531,0,0,0-1.157-.531c-.045,0-.087,0-.125,0a1.547,1.547,0,0,0-1.178.727C-4360.662-6344.044-4360.937-6343.847-4361.281-6343.847Zm-4.08-4.8a2.4,2.4,0,0,1,1.636.641,2.4,2.4,0,0,1,.764,1.932c-.034.533.134.776.617.9a2.042,2.042,0,0,1,.326.12l.006,0,.014.006a1.208,1.208,0,0,0,.46.13.759.759,0,0,0,.577-.339,2.4,2.4,0,0,1,1.8-.9h.079a2.4,2.4,0,0,1,1.777.786,1.038,1.038,0,0,0,.759.419,1.272,1.272,0,0,0,.595-.184,7.641,7.641,0,0,1,.773-.332,2.8,2.8,0,0,1,.5-2.315,2.9,2.9,0,0,1,2.285-.873c.157,0,.323.007.494.022a8.068,8.068,0,0,0,.475-1.14.749.749,0,0,0-.169-.631,2.742,2.742,0,0,1-1.045-1.985,2.71,2.71,0,0,1,1.026-1.973.737.737,0,0,0,.281-.494c-.061-.752-.506-1.154-1.4-1.263a3.735,3.735,0,0,1-1.66-.628,2.246,2.246,0,0,1-.775-2.619,8.79,8.79,0,0,0-1.24-.494.726.726,0,0,0-.139-.013.788.788,0,0,0-.524.2,3.015,3.015,0,0,1-2.079,1.061,2.935,2.935,0,0,1-2.037-1.039.825.825,0,0,0-.548-.211.668.668,0,0,0-.119.008,8.611,8.611,0,0,0-1.211.515,3.04,3.04,0,0,1-.551,2.467,2.326,2.326,0,0,1-1.832.767c-.075,0-.165,0-.274-.011a1.2,1.2,0,0,0-.131-.006c-.519,0-.646.3-.78.62a2.128,2.128,0,0,1-.134.285c-.226.406-.148.714.267,1.064a2.4,2.4,0,0,1,.932,1.842,2.341,2.341,0,0,1-.932,1.787c-.492.4-.379.691-.155,1.133.038.074.069.15.1.228l0,.008c.122.3.227.553.649.553a1.544,1.544,0,0,0,.2-.016A2.482,2.482,0,0,1-4365.361-6348.647Zm6.229,1.7a5.639,5.639,0,0,1-1.085-.1,6.517,6.517,0,0,1-3.094-1.66,3,3,0,0,1-1.168-2.4l.92.521.174-.151a4.569,4.569,0,0,1,.248-3.848c.053-.1.007-.253-.057-.469l-.005-.019c-.049-.155-.089-.3-.122-.449l-.856,1.373-.262-.1a7.536,7.536,0,0,1,.6-1.232,4.868,4.868,0,0,1,3.348-2.2l.1.2a1.444,1.444,0,0,0-.361.274,2.047,2.047,0,0,0-.187.465,1.088,1.088,0,0,1,.118.046l.008,0,.027.012a.688.688,0,0,0,.257.079.267.267,0,0,0,.061-.008,4.932,4.932,0,0,1,1.385-.2,4.919,4.919,0,0,1,1.8.338.749.749,0,0,0,.23.03,3.123,3.123,0,0,0,.471-.053c.183-.031.351-.054.513-.068l-1.438-.86a1.36,1.36,0,0,1,.193-.014,3.861,3.861,0,0,1,2.526,1.443,3.37,3.37,0,0,1,1.063,2.312l-1-.594c.013.3.037.582.059.849l0,.043v.015a8.371,8.371,0,0,1,.034,1.618,4.156,4.156,0,0,1-1.948,3.042,5.21,5.21,0,0,0-.708.711l.206.281,1.724-.895C-4355.446-6347.742-4357.248-6346.952-4359.132-6346.952Zm1.4-1.3v.008l-1.064.709.18.278a.593.593,0,0,1,.422-.182.57.57,0,0,0,.41-.176A.857.857,0,0,0-4357.728-6348.25Zm-2.489.746a1.286,1.286,0,0,1,.31.053l.018,0a1.424,1.424,0,0,0,.331.054c.279,0,.446-.2.54-.634l-1.35.246.048.29A.435.435,0,0,1-4360.217-6347.5Zm-1.564-.854-.03.393,1.2.142.029-.475Zm2.646-8.066a4.124,4.124,0,0,0-2.881,1.189,4.113,4.113,0,0,0-1.237,2.862,3.878,3.878,0,0,0,1.2,2.827,4.234,4.234,0,0,0,2.953,1.143h.016a4.156,4.156,0,0,0,2.974-1.187,3.954,3.954,0,0,0,1.143-2.829,4.128,4.128,0,0,0-4.14-4Zm-3.736,7.133h0l-.147.449,1.069.331.131-.374-1.053-.406Zm7.558-6.089h0l-.227.369.956.626.267-.441-1-.555Zm-6.973-.819h0c-.329.095-.64.211-.688.425-.04.178.1.41.437.708Zm5.966-.083h0l-.11.385,1.159.368.125-.441-1.173-.312Zm-2.793,5.518a1.614,1.614,0,0,1-1.154-.485,1.612,1.612,0,0,1-.333-1.768,1.614,1.614,0,0,1,1.483-.978h.029a1.625,1.625,0,0,1,1.588,1.624,1.61,1.61,0,0,1-1.008,1.489A1.59,1.59,0,0,1-4359.113-6350.766Zm.062-2.922a.583.583,0,0,0-.077,0,1.269,1.269,0,0,0-1.206,1.324,1.266,1.266,0,0,0,1.267,1.211h.054a1.275,1.275,0,0,0,1.214-1.323,1.256,1.256,0,0,0-.407-.887A1.249,1.249,0,0,0-4359.051-6353.688Z" transform="translate(5655 6635)" fill="#2e8be2"/>
  </g>
</svg>
