<svg xmlns="http://www.w3.org/2000/svg" width="64" height="53.275" viewBox="0 0 64 53.275">
  <g id="Setup" transform="translate(-1170 -252)">
    <path id="Path_873" data-name="Path 873" d="M15,0A15,15,0,1,1,0,15,15,15,0,0,1,15,0Z" transform="translate(1204 270)" fill="#2e8be2"/>
    <path id="Path_875" data-name="Path 875" d="M-4361-6341a12.917,12.917,0,0,1-9.192-3.808A12.917,12.917,0,0,1-4374-6354a12.917,12.917,0,0,1,3.808-9.192A12.915,12.915,0,0,1-4361-6367a12.915,12.915,0,0,1,9.192,3.808A12.917,12.917,0,0,1-4348-6354a12.917,12.917,0,0,1-3.808,9.192A12.917,12.917,0,0,1-4361-6341Zm-6.423-8.7a1.415,1.415,0,0,1,1.146.5,1.82,1.82,0,0,1,.263,1.544.747.747,0,0,0,.508,1,14.983,14.983,0,0,1,1.545.62,1.539,1.539,0,0,0,.679.2c.343,0,.618-.2.892-.639a1.54,1.54,0,0,1,1.178-.727c.04,0,.081,0,.125,0a1.527,1.527,0,0,1,1.155.528c.516.555.729.785,1.055.785a3.218,3.218,0,0,0,1.016-.317l.01,0c.416-.183.774-.34,1.234-.512.445-.163.571-.434.437-.933a1.709,1.709,0,0,1,.2-1.51,1.5,1.5,0,0,1,1.23-.54,2.475,2.475,0,0,1,.417.037l.663.107a2.3,2.3,0,0,0,.539-.532c.153-.279.279-.576.4-.863.1-.239.207-.487.328-.724.337-.671.213-1.066-.439-1.406a1.444,1.444,0,0,1-.813-1.157,1.447,1.447,0,0,1,.571-1.294c.991-.821.991-.821.479-2.02l-.114-.263c-.1-.227-.223-.508-.317-.765a.77.77,0,0,0-.769-.61,1.653,1.653,0,0,0-.354.043,2.958,2.958,0,0,1-.657.08,1.4,1.4,0,0,1-1.15-.479,1.843,1.843,0,0,1-.2-1.6c.121-.507,0-.783-.432-.952a20.25,20.25,0,0,0-2.073-.794.976.976,0,0,0-.127-.008,1.05,1.05,0,0,0-.771.34,2.035,2.035,0,0,1-1.537,1.059,1.945,1.945,0,0,1-1.5-1.059.718.718,0,0,0-.425-.388.719.719,0,0,0-.223-.036.711.711,0,0,0-.349.092c-.576.256-1.226.544-1.91.78-.55.193-.689.5-.5,1.1a1.515,1.515,0,0,1-.18,1.389,1.57,1.57,0,0,1-1.3.608c-.044,0-.089,0-.134,0h-.015c-.258-.017-.462-.03-.631-.03-.662,0-.749.2-1.17,1.184-.062.146-.123.3-.182.443l-.008.02c-.08.2-.17.426-.267.64-.207.432-.11.715.334.976a1.774,1.774,0,0,1,1.044,1.4,1.835,1.835,0,0,1-1.044,1.465c-.438.284-.535.573-.334,1,.319.668.583,1.265.805,1.821.16.392.366.559.69.559a1.391,1.391,0,0,0,.36-.054A2.479,2.479,0,0,1-4367.423-6349.7Zm3.887,2.781a1.222,1.222,0,0,1-.475-.136l-.007,0a2.107,2.107,0,0,0-.327-.12c-.483-.119-.65-.362-.617-.9a2.4,2.4,0,0,0-.764-1.932,2.4,2.4,0,0,0-1.636-.641,2.558,2.558,0,0,0-.348.024,1.353,1.353,0,0,1-.2.016c-.421,0-.526-.256-.648-.553-.032-.079-.065-.159-.1-.237-.224-.441-.336-.731.155-1.133a2.342,2.342,0,0,0,.932-1.786,2.4,2.4,0,0,0-.932-1.843c-.416-.351-.493-.659-.266-1.063a2.688,2.688,0,0,0,.134-.285c.134-.319.261-.621.78-.621.042,0,.085,0,.13.006.095.007.188.011.276.011a2.33,2.33,0,0,0,1.831-.766,3.039,3.039,0,0,0,.551-2.468,8.867,8.867,0,0,1,1.212-.514.814.814,0,0,1,.118-.008.818.818,0,0,1,.547.211,2.932,2.932,0,0,0,2.039,1.039,3.009,3.009,0,0,0,2.078-1.062.8.8,0,0,1,.525-.2.8.8,0,0,1,.138.012,8.808,8.808,0,0,1,1.24.494,2.248,2.248,0,0,0,.775,2.619,3.736,3.736,0,0,0,1.66.628c.9.109,1.341.51,1.4,1.262a.735.735,0,0,1-.281.494,2.712,2.712,0,0,0-1.025,1.973,2.738,2.738,0,0,0,1.044,1.985.745.745,0,0,1,.169.631,7.962,7.962,0,0,1-.475,1.14c-.165-.015-.33-.022-.493-.022a2.89,2.89,0,0,0-2.285.874,2.791,2.791,0,0,0-.5,2.314,8.267,8.267,0,0,0-.773.333,1.261,1.261,0,0,1-.594.185,1.037,1.037,0,0,1-.759-.42,2.4,2.4,0,0,0-1.777-.786h-.077a2.4,2.4,0,0,0-1.8.9A.752.752,0,0,1-4363.536-6346.92Zm-2.943-6.192h0a3,3,0,0,0,1.168,2.4,6.507,6.507,0,0,0,3.093,1.66,5.628,5.628,0,0,0,1.085.1c1.885,0,3.687-.792,3.779-1.66l-1.724.9-.206-.283a5.348,5.348,0,0,1,.708-.711,4.15,4.15,0,0,0,1.948-3.042,8.409,8.409,0,0,0-.035-1.632c-.021-.252-.047-.567-.062-.893l1,.594a3.363,3.363,0,0,0-1.062-2.311,3.868,3.868,0,0,0-2.526-1.443,1.4,1.4,0,0,0-.194.013l1.439.86c-.195.018-.372.046-.514.069a3.129,3.129,0,0,1-.472.054.742.742,0,0,1-.23-.032,4.933,4.933,0,0,0-1.8-.337,4.979,4.979,0,0,0-1.386.2.2.2,0,0,1-.061.009.684.684,0,0,1-.257-.079,1.37,1.37,0,0,0-.154-.062,2.067,2.067,0,0,1,.188-.465,1.464,1.464,0,0,1,.36-.275l-.1-.2a4.874,4.874,0,0,0-3.349,2.2,7.839,7.839,0,0,0-.6,1.232l.262.1.856-1.373c.039.177.084.329.122.45.068.226.117.387.062.487a4.564,4.564,0,0,0-.246,3.848l-.175.153Zm5.869,3.857h0l-.181-.278,1.064-.709v-.008a.867.867,0,0,1-.05.638.568.568,0,0,1-.41.176.585.585,0,0,0-.421.182Zm-.948-.139a1.442,1.442,0,0,1-.332-.055l-.017,0a1.356,1.356,0,0,0-.311-.053.47.47,0,0,0-.1.011l-.048-.289,1.351-.246C-4361.113-6349.589-4361.279-6349.394-4361.558-6349.394Zm-1.051-.43h0l-1.2-.142.031-.393,1.2.061-.027.474Zm1.521-.582h-.016a4.236,4.236,0,0,1-2.953-1.142,3.878,3.878,0,0,1-1.2-2.828,4.118,4.118,0,0,1,1.237-2.861,4.12,4.12,0,0,1,2.881-1.19h.024a4.127,4.127,0,0,1,4.14,4,3.958,3.958,0,0,1-1.142,2.829A4.156,4.156,0,0,1-4361.088-6350.4Zm-.028-5.591a1.613,1.613,0,0,0-1.482.977,1.607,1.607,0,0,0,.331,1.767,1.613,1.613,0,0,0,1.154.486,1.592,1.592,0,0,0,.605-.118,1.61,1.61,0,0,0,1.008-1.489,1.622,1.622,0,0,0-1.588-1.622Zm-2.833,5.486h0l-1.069-.332.147-.449,1.053.406-.129.375Zm2.882-2.639a1.268,1.268,0,0,1-1.269-1.212,1.271,1.271,0,0,1,1.207-1.325.679.679,0,0,1,.077,0,1.249,1.249,0,0,1,.845.329,1.256,1.256,0,0,1,.408.888,1.275,1.275,0,0,1-1.214,1.322Zm4.482-3.235h0l-.956-.627.227-.368,1,.553-.265.441Zm-7.955-.682h0c-.333-.3-.476-.53-.436-.708.044-.2.307-.314.688-.426l-.251,1.133Zm7.268-.463h0l-1.159-.369.11-.385,1.173.312-.123.442Z" transform="translate(5580 6639)" fill="#fff"/>
    <path id="Path_866" data-name="Path 866" d="M43.357,14.2V5.97a2.507,2.507,0,0,0-2.694-2.63c-10.158.044-20.32.02-30.481.02-.286,0-.569.024-.956.04a9.528,9.528,0,0,1,.508,1.529A24.084,24.084,0,0,1,10.071,8.3q.037,19.434.02,38.868a6.5,6.5,0,0,0,.145,1.683,1.468,1.468,0,0,0,.7.879c.2.091.643-.175.879-.391a4.67,4.67,0,0,0,1.313-2.963,39.436,39.436,0,0,0,.31-4.178c0-.717.249-.909.943-.909q9.03.02,18.064-.03a1.131,1.131,0,0,1,1.192.7c.421.859.933,1.683,1.465,2.613-.364,0-.643.04-.926.04-5.454,0-10.912.03-16.37,0-.758,0-1.067.192-1.182,1.01a31.753,31.753,0,0,1-.855,3.589c-.1.407-.034.633.424.63H39.737a3.232,3.232,0,0,1,1.532.337,22.057,22.057,0,0,0,5.97,2.357.673.673,0,0,1,.428.377,30.615,30.615,0,0,1-3.168.337q-16.454.034-32.9,0a4.537,4.537,0,0,1-4.734-4.141,14.842,14.842,0,0,1-.114-2.02q0-15.677,0-31.353c0-1.034,0-1.037-1.01-1.037-1.64,0-3.279-.02-4.919,0-.572,0-.747-.189-.731-.747a27.832,27.832,0,0,1,.084-3.791C.684,7.239,1.2,4.205,3.563,1.983A6.69,6.69,0,0,1,8.334.014c10.808.03,21.613.081,32.417-.02A5.7,5.7,0,0,1,46.64,5.381c.165,2.384.1,4.788.1,7.182a.859.859,0,0,1-.438.643C45.384,13.562,44.431,13.845,43.357,14.2ZM6.808,8.9l.175-.03c-.212-1.232-.337-2.485-.673-3.7-.209-.8-.572-.8-1.054-.125A12.271,12.271,0,0,0,3.5,10.838c-.051.441.155.643.606.633q1.047-.027,2.091,0c.448,0,.63-.192.62-.633C6.8,10.2,6.808,9.549,6.808,8.9Z" transform="translate(1169.938 252.01)" fill="#318ce2"/>
    <path id="Path_867" data-name="Path 867" d="M49.693,25.2h.485c1.084,0,1.121,0,1.084,1.111-.024.69.29.956.9,1.091,2.061.448,2.057.461,1.559,2.512-.044.182-.054.37-.1.556-.1.441-.286.566-.8.444a20.117,20.117,0,0,0-3.232-.475c-.337-.024-.673.37-1.01.576.246.283.438.673.747.835.936.458,1.946.764,2.875,1.236,2.384,1.2,3.205,3.7,1.808,5.795A4.821,4.821,0,0,1,52.05,40.4a1.041,1.041,0,0,0-.764,1.118c0,1.683.236,1.545-1.549,1.545-1.582,0-1.6,0-1.63-1.582a.764.764,0,0,0-.673-.838c-.875-.242-1.731-.542-2.593-.828-.38-.128-.471-.337-.29-.747.256-.559.451-1.148.653-1.734.175-.519.421-.579.973-.418a22.667,22.667,0,0,0,3.367.694c.495.067,1.172.071,1.323-.62s-.5-.97-1-1.2c-.808-.357-1.653-.623-2.465-.97C44.875,33.732,44.024,31.23,45.529,29a5.462,5.462,0,0,1,1.943-1.478c.37-.205.6-.313.62-.774C48.141,25.2,48.158,25.2,49.693,25.2Z" transform="translate(1140.488 235.288)" fill="#338ee2"/>
    <path id="Path_872" data-name="Path 872" d="M61.644,96.263c.074,1.185.145,2.246.219,3.394-.337,0-.579.037-.838.037H46.772c-1.01,0-1.061-.071-1.064-1.047,0-.485.027-.97,0-1.451-.054-.707.246-.956.939-.946,2.2.027,4.4,0,6.6,0h8.417Z" transform="translate(1139.665 188.161)" fill="#338ee2"/>
    <path id="Path_869" data-name="Path 869" d="M92.61,34.2c-1.478,0-2.956-.02-4.434,0-.6,0-.825-.209-.784-.8a13.621,13.621,0,0,0,0-1.778c-.04-.616.229-.791.8-.788q4.434.024,8.869,0c.583,0,.758.232.734.774a17.054,17.054,0,0,0,0,1.855c.037.579-.212.754-.758.744C95.566,34.183,94.088,34.2,92.61,34.2Z" transform="translate(1112.016 231.554)" fill="#358fe3"/>
    <path id="Path_870" data-name="Path 870" d="M95.806,52.8c-.97,1.145-1.815,2.168-2.694,3.162a1.01,1.01,0,0,1-.673.182H88.254c-.623,0-.879-.232-.848-.859s.02-1.236,0-1.855c0-.434.158-.65.606-.65Z" transform="translate(1112.005 216.994)" fill="#328de2"/>
    <path id="Path_871" data-name="Path 871" d="M90.9,73.762c-.337,1.1-.616,2.05-.949,2.983a.818.818,0,0,1-.549.431c-1.933.232-1.98.178-1.983-1.744,0-1.761-.141-1.683,1.643-1.683Z" transform="translate(1111.999 203.086)" fill="#3a91e3"/>
  </g>
</svg>
