<svg xmlns="http://www.w3.org/2000/svg" width="67.002" height="49.5" viewBox="0 0 67.002 49.5">
  <path id="setupimage" d="M-4370.191-6317.5a3.813,3.813,0,0,1-3.809-3.808v-41.883a3.814,3.814,0,0,1,3.809-3.809h41.883a3.813,3.813,0,0,1,3.808,3.809v8.555a17.474,17.474,0,0,0-4.118.986v-8.27a.952.952,0,0,0-.951-.951h-39.35a.952.952,0,0,0-.951.951v28.237a.952.952,0,0,0,.951.952h29.509a17.416,17.416,0,0,0,14.642,12.834,3.791,3.791,0,0,1-3.54,2.4Zm37.584-9.642A14.9,14.9,0,0,1-4337-6337.75a14.9,14.9,0,0,1,4.393-10.607A14.906,14.906,0,0,1-4322-6352.75a14.9,14.9,0,0,1,10.605,4.394A14.906,14.906,0,0,1-4307-6337.75a14.9,14.9,0,0,1-4.395,10.607A14.9,14.9,0,0,1-4322-6322.75,14.9,14.9,0,0,1-4332.607-6327.143Zm1.414-19.8a12.92,12.92,0,0,0-3.806,9.192,12.918,12.918,0,0,0,3.806,9.191,12.923,12.923,0,0,0,9.194,3.809,12.918,12.918,0,0,0,9.191-3.809,12.913,12.913,0,0,0,3.81-9.191,12.915,12.915,0,0,0-3.81-9.192,12.915,12.915,0,0,0-9.191-3.808A12.922,12.922,0,0,0-4331.193-6346.942Zm6.234,17.15a14.8,14.8,0,0,0-1.549-.62.747.747,0,0,1-.5-1,1.823,1.823,0,0,0-.264-1.545,1.416,1.416,0,0,0-1.146-.5,2.484,2.484,0,0,0-.618.085,1.4,1.4,0,0,1-.36.053c-.324,0-.53-.167-.69-.558-.23-.575-.492-1.17-.8-1.822-.2-.422-.105-.711.334-1a1.836,1.836,0,0,0,1.043-1.465,1.766,1.766,0,0,0-1.043-1.4c-.446-.262-.542-.544-.334-.976.1-.222.2-.465.267-.641l.006-.02c.051-.129.115-.289.182-.444l0-.01c.418-.972.506-1.174,1.168-1.174.146,0,.323.011.529.024l.1.006h.016c.043,0,.088,0,.133,0a1.569,1.569,0,0,0,1.3-.607,1.519,1.519,0,0,0,.18-1.389c-.191-.6-.053-.909.5-1.1.678-.233,1.322-.52,1.892-.772l.018-.008a.7.7,0,0,1,.348-.093.712.712,0,0,1,.224.037.716.716,0,0,1,.425.388,1.939,1.939,0,0,0,1.5,1.058,2.041,2.041,0,0,0,1.539-1.058,1.044,1.044,0,0,1,.77-.34.911.911,0,0,1,.125.008,19.9,19.9,0,0,1,2.076.794c.427.169.551.446.432.951a1.828,1.828,0,0,0,.2,1.6,1.4,1.4,0,0,0,1.15.479,3.026,3.026,0,0,0,.657-.08,1.594,1.594,0,0,1,.353-.043.77.77,0,0,1,.77.61c.093.254.211.527.316.764.039.088.077.176.112.264.515,1.2.515,1.2-.476,2.02a1.442,1.442,0,0,0-.57,1.294,1.444,1.444,0,0,0,.812,1.157.89.89,0,0,1,.441,1.406c-.125.243-.237.508-.328.721l-.021.05c-.117.273-.238.553-.38.816a2.372,2.372,0,0,1-.539.532l-.663-.107a2.412,2.412,0,0,0-.417-.037,1.5,1.5,0,0,0-1.23.539,1.708,1.708,0,0,0-.2,1.512c.134.5.006.769-.439.933s-.813.326-1.232.511l-.011,0-.013,0a3.117,3.117,0,0,1-1,.313c-.326,0-.538-.229-1.053-.781a1.531,1.531,0,0,0-1.157-.532c-.046,0-.088,0-.125,0a1.546,1.546,0,0,0-1.178.727c-.273.442-.548.639-.892.639A1.539,1.539,0,0,1-4324.959-6329.792Zm-1.766-3.964a2.4,2.4,0,0,1,.766,1.932c-.034.534.133.776.617.9a2.007,2.007,0,0,1,.324.12l.007,0,.014.006a1.217,1.217,0,0,0,.46.129.757.757,0,0,0,.579-.339,2.394,2.394,0,0,1,1.8-.9c.029,0,.053,0,.08,0a2.41,2.41,0,0,1,1.777.786,1.039,1.039,0,0,0,.759.419,1.263,1.263,0,0,0,.594-.184c.235-.116.5-.228.771-.332a2.8,2.8,0,0,1,.5-2.315,2.9,2.9,0,0,1,2.285-.873c.157,0,.323.008.494.022a8.178,8.178,0,0,0,.475-1.139.753.753,0,0,0-.169-.631,2.742,2.742,0,0,1-1.045-1.984,2.71,2.71,0,0,1,1.026-1.974.74.74,0,0,0,.281-.494c-.061-.753-.506-1.154-1.4-1.262a3.737,3.737,0,0,1-1.66-.628,2.241,2.241,0,0,1-.775-2.619,8.708,8.708,0,0,0-1.24-.494.736.736,0,0,0-.141-.013.788.788,0,0,0-.522.2,3.015,3.015,0,0,1-2.081,1.061,2.93,2.93,0,0,1-2.036-1.039.828.828,0,0,0-.548-.211.809.809,0,0,0-.12.008,8.811,8.811,0,0,0-1.209.515,3.041,3.041,0,0,1-.551,2.467,2.329,2.329,0,0,1-1.833.767c-.075,0-.165,0-.273-.011a1.1,1.1,0,0,0-.131-.007c-.52,0-.646.3-.78.62a2.116,2.116,0,0,1-.136.285c-.225.406-.147.714.269,1.064a2.41,2.41,0,0,1,.932,1.842,2.341,2.341,0,0,1-.932,1.787c-.492.4-.38.692-.157,1.133a2.334,2.334,0,0,1,.1.229l0,.008c.122.3.227.553.649.553a1.473,1.473,0,0,0,.2-.016,2.483,2.483,0,0,1,.349-.024A2.4,2.4,0,0,1-4326.725-6333.756Zm3.509.956a6.5,6.5,0,0,1-3.094-1.66,3,3,0,0,1-1.168-2.4l.92.521.172-.152a4.572,4.572,0,0,1,.25-3.848c.053-.1.006-.252-.058-.468l0-.02c-.049-.155-.089-.3-.121-.449l-.856,1.373-.262-.1a7.664,7.664,0,0,1,.6-1.232,4.873,4.873,0,0,1,3.348-2.2l.1.2a1.444,1.444,0,0,0-.363.275,2.053,2.053,0,0,0-.185.465c.037.011.077.029.118.046l.008,0,.027.013a.675.675,0,0,0,.257.078.332.332,0,0,0,.061-.008,4.935,4.935,0,0,1,1.385-.2,4.944,4.944,0,0,1,1.8.339.735.735,0,0,0,.23.03,3.209,3.209,0,0,0,.471-.053c.182-.03.35-.055.511-.069l-1.437-.86a1.509,1.509,0,0,1,.193-.014,3.862,3.862,0,0,1,2.526,1.443,3.379,3.379,0,0,1,1.063,2.312l-1-.594c.013.3.035.582.06.849l0,.043v.016a8.484,8.484,0,0,1,.034,1.617,4.157,4.157,0,0,1-1.948,3.042,5.241,5.241,0,0,0-.708.711l.206.281,1.724-.9c-.092.871-1.9,1.66-3.779,1.66A5.674,5.674,0,0,1-4323.216-6332.8Zm2.489-1.192-1.064.709.179.278a.6.6,0,0,1,.424-.182.56.56,0,0,0,.409-.176.854.854,0,0,0,.053-.637Zm-2.181.791.018,0a1.437,1.437,0,0,0,.333.055c.278,0,.446-.2.54-.634l-1.35.246.048.29a.409.409,0,0,1,.1-.011A1.274,1.274,0,0,1-4322.908-6333.2Zm-1.9-.513,1.2.143.028-.475-1.2-.061Zm-.2-7.271a4.115,4.115,0,0,0-1.237,2.862,3.879,3.879,0,0,0,1.2,2.827,4.235,4.235,0,0,0,2.951,1.142h.018a4.16,4.16,0,0,0,2.974-1.187,3.957,3.957,0,0,0,1.142-2.828,4.128,4.128,0,0,0-4.14-4h-.024A4.123,4.123,0,0,0-4325.015-6340.985Zm-1,6.394,1.069.331.129-.374-1.051-.406Zm7.478-6.169.956.626.267-.441-1-.554Zm-7.435-.764c-.042.178.1.411.437.708l.252-1.133h0C-4325.616-6341.854-4325.926-6341.738-4325.974-6341.525Zm6.543-.123,1.16.368.125-.441-1.173-.312h0Zm-21.086,6.11a.645.645,0,0,1-.537-.288l-4.164-6.626a.688.688,0,0,1-.011-.749l3.166-3.821a.648.648,0,0,1,.542-.285.643.643,0,0,1,.54.285l2.255,3.21a17.382,17.382,0,0,0-1.274,6.563c0,.569.029,1.144.083,1.711Zm-27.8-.013a.657.657,0,0,1-.591-.361.655.655,0,0,1,.044-.687l11.339-18.253a.651.651,0,0,1,.542-.285.649.649,0,0,1,.542.285l11.352,18.253a.659.659,0,0,1,.048.693.645.645,0,0,1-.583.354Zm45.048-1.451a1.613,1.613,0,0,1-.334-1.768,1.617,1.617,0,0,1,1.485-.978h.028a1.625,1.625,0,0,1,1.588,1.624,1.612,1.612,0,0,1-1.008,1.489,1.605,1.605,0,0,1-.605.118A1.615,1.615,0,0,1-4323.266-6337Zm1.138-2.434a1.27,1.27,0,0,0-1.2,1.325,1.265,1.265,0,0,0,1.267,1.211h.054a1.275,1.275,0,0,0,1.214-1.323,1.264,1.264,0,0,0-.407-.887,1.25,1.25,0,0,0-.847-.329A.6.6,0,0,0-4322.128-6339.435Zm-20.6-14.367a3.331,3.331,0,0,1-.854-2.584,3.331,3.331,0,0,1,2.975-2.975c.115-.011.231-.018.348-.018a3.325,3.325,0,0,1,2.466,1.1,3.293,3.293,0,0,1,.839,2.573,3.323,3.323,0,0,1-2.975,2.975,3.346,3.346,0,0,1-.347.018A3.323,3.323,0,0,1-4342.733-6353.8Z" transform="translate(4374 6367)"/>
</svg>
