<svg xmlns="http://www.w3.org/2000/svg" width="64" height="53.275" viewBox="0 0 64 53.275">
  <g id="Setup_invoice" data-name="Setup invoice" transform="translate(-1170 -252)">
    <path id="Path_873" data-name="Path 873" d="M15,0A15,15,0,1,1,0,15,15,15,0,0,1,15,0Z" transform="translate(1204 270)" fill="#2e8be2"/>
    <path id="Path_874" data-name="Path 874" d="M13,0A13,13,0,1,1,0,13,13,13,0,0,1,13,0Z" transform="translate(1206 272)" fill="#fff"/>
    <path id="Path_866" data-name="Path 866" d="M43.357,14.2V5.97a2.507,2.507,0,0,0-2.694-2.63c-10.158.044-20.32.02-30.481.02-.286,0-.569.024-.956.04a9.528,9.528,0,0,1,.508,1.529A24.084,24.084,0,0,1,10.071,8.3q.037,19.434.02,38.868a6.5,6.5,0,0,0,.145,1.683,1.468,1.468,0,0,0,.7.879c.2.091.643-.175.879-.391a4.67,4.67,0,0,0,1.313-2.963,39.436,39.436,0,0,0,.31-4.178c0-.717.249-.909.943-.909q9.03.02,18.064-.03a1.131,1.131,0,0,1,1.192.7c.421.859.933,1.683,1.465,2.613-.364,0-.643.04-.926.04-5.454,0-10.912.03-16.37,0-.758,0-1.067.192-1.182,1.01a31.753,31.753,0,0,1-.855,3.589c-.1.407-.034.633.424.63H39.737a3.232,3.232,0,0,1,1.532.337,22.057,22.057,0,0,0,5.97,2.357.673.673,0,0,1,.428.377,30.615,30.615,0,0,1-3.168.337q-16.454.034-32.9,0a4.537,4.537,0,0,1-4.734-4.141,14.842,14.842,0,0,1-.114-2.02q0-15.677,0-31.353c0-1.034,0-1.037-1.01-1.037-1.64,0-3.279-.02-4.919,0-.572,0-.747-.189-.731-.747a27.832,27.832,0,0,1,.084-3.791C.684,7.239,1.2,4.205,3.563,1.983A6.69,6.69,0,0,1,8.334.014c10.808.03,21.613.081,32.417-.02A5.7,5.7,0,0,1,46.64,5.381c.165,2.384.1,4.788.1,7.182a.859.859,0,0,1-.438.643C45.384,13.562,44.431,13.845,43.357,14.2ZM6.808,8.9l.175-.03c-.212-1.232-.337-2.485-.673-3.7-.209-.8-.572-.8-1.054-.125A12.271,12.271,0,0,0,3.5,10.838c-.051.441.155.643.606.633q1.047-.027,2.091,0c.448,0,.63-.192.62-.633C6.8,10.2,6.808,9.549,6.808,8.9Z" transform="translate(1169.938 252.01)" fill="#318ce2"/>
    <path id="Path_867" data-name="Path 867" d="M49.693,25.2h.485c1.084,0,1.121,0,1.084,1.111-.024.69.29.956.9,1.091,2.061.448,2.057.461,1.559,2.512-.044.182-.054.37-.1.556-.1.441-.286.566-.8.444a20.117,20.117,0,0,0-3.232-.475c-.337-.024-.673.37-1.01.576.246.283.438.673.747.835.936.458,1.946.764,2.875,1.236,2.384,1.2,3.205,3.7,1.808,5.795A4.821,4.821,0,0,1,52.05,40.4a1.041,1.041,0,0,0-.764,1.118c0,1.683.236,1.545-1.549,1.545-1.582,0-1.6,0-1.63-1.582a.764.764,0,0,0-.673-.838c-.875-.242-1.731-.542-2.593-.828-.38-.128-.471-.337-.29-.747.256-.559.451-1.148.653-1.734.175-.519.421-.579.973-.418a22.667,22.667,0,0,0,3.367.694c.495.067,1.172.071,1.323-.62s-.5-.97-1-1.2c-.808-.357-1.653-.623-2.465-.97C44.875,33.732,44.024,31.23,45.529,29a5.462,5.462,0,0,1,1.943-1.478c.37-.205.6-.313.62-.774C48.141,25.2,48.158,25.2,49.693,25.2Z" transform="translate(1140.488 235.288)" fill="#338ee2"/>
    <path id="Path_872" data-name="Path 872" d="M61.644,96.263c.074,1.185.145,2.246.219,3.394-.337,0-.579.037-.838.037H46.772c-1.01,0-1.061-.071-1.064-1.047,0-.485.027-.97,0-1.451-.054-.707.246-.956.939-.946,2.2.027,4.4,0,6.6,0h8.417Z" transform="translate(1139.665 188.161)" fill="#338ee2"/>
    <path id="Path_869" data-name="Path 869" d="M92.61,34.2c-1.478,0-2.956-.02-4.434,0-.6,0-.825-.209-.784-.8a13.621,13.621,0,0,0,0-1.778c-.04-.616.229-.791.8-.788q4.434.024,8.869,0c.583,0,.758.232.734.774a17.054,17.054,0,0,0,0,1.855c.037.579-.212.754-.758.744C95.566,34.183,94.088,34.2,92.61,34.2Z" transform="translate(1112.016 231.554)" fill="#358fe3"/>
    <path id="Path_870" data-name="Path 870" d="M95.806,52.8c-.97,1.145-1.815,2.168-2.694,3.162a1.01,1.01,0,0,1-.673.182H88.254c-.623,0-.879-.232-.848-.859s.02-1.236,0-1.855c0-.434.158-.65.606-.65Z" transform="translate(1112.005 216.994)" fill="#328de2"/>
    <path id="Path_871" data-name="Path 871" d="M90.9,73.762c-.337,1.1-.616,2.05-.949,2.983a.818.818,0,0,1-.549.431c-1.933.232-1.98.178-1.983-1.744,0-1.761-.141-1.683,1.643-1.683Z" transform="translate(1111.999 203.086)" fill="#3a91e3"/>
    <g id="Group_872" data-name="Group 872" transform="translate(523.486 4.116)">
      <path id="Path_50" data-name="Path 50" d="M114.174,91.337l-.664-.106a1.5,1.5,0,0,0-1.847,2.013c.13.478.03.761-.435.933s-.831.332-1.246.515c-1.189.482-1.189.482-2.07-.468a1.528,1.528,0,0,0-2.458.206,1.026,1.026,0,0,1-1.571.442,15.623,15.623,0,0,0-1.545-.621.75.75,0,0,1-.508-1c.306-1.442-.6-2.325-2.026-1.957a.752.752,0,0,1-1.05-.5c-.246-.615-.518-1.223-.8-1.82-.216-.452-.076-.731.332-1,1.4-.884,1.392-2.033,0-2.86-.429-.252-.548-.528-.332-.977.163-.362.3-.737.455-1.1.532-1.236.532-1.236,1.817-1.153a1.484,1.484,0,0,0,1.608-1.993c-.179-.568-.086-.9.5-1.1.664-.229,1.282-.5,1.91-.781a.708.708,0,0,1,1,.332c.963,1.428,2.046,1.4,3.036,0a1.043,1.043,0,0,1,.9-.332,20.155,20.155,0,0,1,2.073.794c.462.183.542.492.432.953-.359,1.515.475,2.345,2.01,1.993.561-.123.924,0,1.123.568.123.332.286.684.432,1.027.512,1.2.512,1.2-.478,2.02A1.438,1.438,0,0,0,115,87.812c.694.362.757.771.439,1.405-.262.518-.448,1.076-.728,1.588A2.368,2.368,0,0,1,114.174,91.337Zm-.236-1.06a8.059,8.059,0,0,0,.475-1.139.744.744,0,0,0-.169-.631,2.41,2.41,0,0,1-.02-3.957.734.734,0,0,0,.282-.495c-.066-.814-.588-1.163-1.4-1.262a3.724,3.724,0,0,1-1.661-.628,2.257,2.257,0,0,1-.774-2.618,8.734,8.734,0,0,0-1.239-.495.807.807,0,0,0-.664.183c-1.392,1.409-2.747,1.415-4.116.023a.817.817,0,0,0-.664-.2,8.853,8.853,0,0,0-1.213.515c.3,2.02-.784,3.372-2.658,3.222-.8-.066-.8.472-1.043.9s-.123.734.266,1.063a2.231,2.231,0,0,1,0,3.628c-.5.409-.369.714-.156,1.133s.226.884.953.774a2.405,2.405,0,0,1,2.747,2.548c-.033.545.143.781.618.9s.857.561,1.382-.08a2.405,2.405,0,0,1,3.654-.116.946.946,0,0,0,1.352.236,8.329,8.329,0,0,1,.774-.332c-.339-2.136.943-3.375,3.282-3.166Z" transform="translate(588.671 193.97)" fill="#338de2"/>
      <path id="Path_51" data-name="Path 51" d="M112.481,88.1a1.511,1.511,0,0,0-.359.276,1.994,1.994,0,0,0-.189.465c.159.05.332.176.472.133a4.983,4.983,0,0,1,3.186.14,3.935,3.935,0,0,0,1.216-.09l-1.438-.86c1.541-.213,3.93,2.229,3.781,3.741l-1-.595a17,17,0,0,1,.1,2.525,4.169,4.169,0,0,1-1.947,3.043,5.315,5.315,0,0,0-.708.711l.206.282,1.724-.9c-.116,1.083-2.8,1.967-4.864,1.561-2.306-.455-4.521-2.618-4.262-4.06l.92.522.176-.153a4.575,4.575,0,0,1,.246-3.847c.086-.156-.08-.455-.183-.937l-.857,1.372-.262-.1a7.827,7.827,0,0,1,.6-1.232,4.921,4.921,0,0,1,3.349-2.2Zm1.309,9.083a3.979,3.979,0,0,0,4.116-4.016,4.143,4.143,0,0,0-8.282.047A4,4,0,0,0,113.79,97.179Zm4.5-5.98.266-.442-1-.555-.226.369Zm-3.146,6.139-1.063.711.183.279c.276-.382,1.083.123.88-1Zm2.458-7.285.123-.442-1.173-.312-.11.385Zm-5.339,7.707.027-.475-1.2-.06-.03.392Zm.239.04.05.289c.429-.1,1.07.545,1.3-.535Zm-2.169-7.279.252-1.139c-.618.183-1.07.4-.252,1.133Zm-.332,5.77-.146.448,1.07.332.13-.375Z" transform="translate(581.636 187.301)" fill="#4195e4"/>
      <path id="Path_52" data-name="Path 52" d="M122.959,100.621A1.615,1.615,0,1,1,121.371,99,1.615,1.615,0,0,1,122.959,100.621Zm-1.628-1.312a1.269,1.269,0,1,0,1.329,1.216,1.252,1.252,0,0,0-1.329-1.216Z" transform="translate(574.055 179.889)" fill="#509ee6"/>
    </g>
  </g>
</svg>
