<svg xmlns="http://www.w3.org/2000/svg" width="65.27" height="50.699" viewBox="0 0 65.27 50.699">
  <g id="supply_setup" data-name="supply setup" transform="translate(-1001.948 -666)">
    <g id="Group_1194" data-name="Group 1194" transform="translate(1001.948 666)">
      <g id="Group_671" data-name="Group 671" transform="translate(0 12.678)">
        <g id="Group_659" data-name="Group 659" transform="translate(0.342 0.342)">
          <path id="Path_496" data-name="Path 496" d="M22.279,37.573V12.745A13.163,13.163,0,0,0,18.859,4h-1.71a13.163,13.163,0,0,1,3.42,8.745V37.573a4.044,4.044,0,0,0,4.275,3.764h1.71A4.044,4.044,0,0,1,22.279,37.573Z" transform="translate(-17.149 -4)"/>
        </g>
        <g id="Group_661" data-name="Group 661" transform="translate(3.762 17.532)">
          <path id="Path_498" data-name="Path 498" d="M37.149,134.174v15.872a4.275,4.275,0,0,0,4.275,4.275H62.589a4.275,4.275,0,0,0,4.275-4.275V134.174Z" transform="translate(-37.149 -134.174)"/>
        </g>
        <g id="Group_664" data-name="Group 664" transform="translate(28.557 8.862)">
          <path id="Path_501" data-name="Path 501" d="M186.908,61.546H182.5a.342.342,0,1,1,0-.684h4.406a.342.342,0,1,1,0,.684Z" transform="translate(-182.16 -60.862)"/>
        </g>
        <g id="Group_665" data-name="Group 665" transform="translate(28.557 15.883)">
          <path id="Path_502" data-name="Path 502" d="M186.908,108.184H182.5a.342.342,0,1,1,0-.684h4.406a.342.342,0,1,1,0,.684Z" transform="translate(-182.16 -107.5)"/>
        </g>
        <g id="Group_666" data-name="Group 666" transform="translate(28.557 22.905)">
          <path id="Path_503" data-name="Path 503" d="M186.908,154.822H182.5a.342.342,0,1,1,0-.684h4.406a.342.342,0,1,1,0,.684Z" transform="translate(-182.16 -154.138)"/>
        </g>
        <g id="Group_667" data-name="Group 667" transform="translate(28.557 29.926)">
          <path id="Path_504" data-name="Path 504" d="M186.908,201.459H182.5a.342.342,0,0,1,0-.684h4.406a.342.342,0,1,1,0,.684Z" transform="translate(-182.16 -200.775)"/>
        </g>
        <g id="Group_668" data-name="Group 668" transform="translate(3.42 17.19)">
          <path id="Path_505" data-name="Path 505" d="M60.931,153.005H39.766a4.622,4.622,0,0,1-4.617-4.617V132.516a.342.342,0,0,1,.342-.342H65.206a.342.342,0,0,1,.342.342v15.872A4.622,4.622,0,0,1,60.931,153.005Zm-25.1-20.147v15.53a3.937,3.937,0,0,0,3.933,3.933H60.931a3.937,3.937,0,0,0,3.933-3.933v-15.53Z" transform="translate(-35.149 -132.174)"/>
        </g>
        <g id="Group_669" data-name="Group 669" transform="translate(0 0)">
          <path id="Path_506" data-name="Path 506" d="M44.351,40.021H23.186a4.376,4.376,0,0,1-4.617-4.074V11.066a12.986,12.986,0,0,0-3.347-8.579.273.273,0,0,1-.038-.318A.349.349,0,0,1,15.491,2H52.543a1.163,1.163,0,0,1,1.149.76.982.982,0,0,1-.5,1.186L49.6,5.973a1.175,1.175,0,0,0-.63,1.017V35.947A4.376,4.376,0,0,1,44.351,40.021ZM16.174,2.6a13.479,13.479,0,0,1,3.079,8.463V35.947a3.728,3.728,0,0,0,3.933,3.47H44.351a3.728,3.728,0,0,0,3.933-3.47V6.99a1.762,1.762,0,0,1,.946-1.525L52.82,3.437a.415.415,0,0,0,.216-.508.491.491,0,0,0-.492-.326Z" transform="translate(-15.149 -2)"/>
        </g>
        <g id="Group_670" data-name="Group 670" transform="translate(6.84 12.511)">
          <path id="Path_507" data-name="Path 507" d="M45.491,88.412a.342.342,0,0,1-.342-.342V86.018a.342.342,0,0,1,.684,0V88.07A.342.342,0,0,1,45.491,88.412Z" transform="translate(-45.149 -85.676)"/>
        </g>
      </g>
      <path id="Path_508" data-name="Path 508" d="M19.277.007a.63.63,0,0,0-.636.382L1.722,32.171a2.264,2.264,0,0,0-1.7,1.93,2.064,2.064,0,0,0,1.7,2.423,2.183,2.183,0,0,0,2.309-1.961A2.326,2.326,0,0,0,3.9,33.427l15.718-32.3C19.851.655,19.675.082,19.277.007Z" transform="matrix(-0.998, 0.07, -0.07, -0.998, 30.847, 36.447)"/>
    </g>
    <g id="Group_1195" data-name="Group 1195" transform="translate(299 20.217)">
      <g id="Group_890" data-name="Group 890" transform="translate(235 400)">
        <path id="Exclusion_1" data-name="Exclusion 1" d="M-4358.784-6336.565a15.115,15.115,0,0,1-10.759-4.458,15.119,15.119,0,0,1-4.458-10.761,15.115,15.115,0,0,1,4.458-10.759,15.115,15.115,0,0,1,10.759-4.458,15.119,15.119,0,0,1,10.761,4.458,15.115,15.115,0,0,1,4.458,10.759,15.117,15.117,0,0,1-4.458,10.761A15.117,15.117,0,0,1-4358.784-6336.565Zm0-28.829a13.626,13.626,0,0,0-13.611,13.611,13.627,13.627,0,0,0,13.611,13.612,13.628,13.628,0,0,0,13.612-13.612A13.627,13.627,0,0,0-4358.784-6365.395Z" transform="translate(4876.783 6632.783)"/>
        <g id="Group_872" data-name="Group 872" transform="translate(-177.514 0.116)">
          <path id="Path_50" data-name="Path 50" d="M114.174,91.337l-.664-.106a1.5,1.5,0,0,0-1.847,2.013c.13.478.03.761-.435.933s-.831.332-1.246.515c-1.189.482-1.189.482-2.07-.468a1.528,1.528,0,0,0-2.458.206,1.026,1.026,0,0,1-1.571.442,15.623,15.623,0,0,0-1.545-.621.75.75,0,0,1-.508-1c.306-1.442-.6-2.325-2.026-1.957a.752.752,0,0,1-1.05-.5c-.246-.615-.518-1.223-.8-1.82-.216-.452-.076-.731.332-1,1.4-.884,1.392-2.033,0-2.86-.429-.252-.548-.528-.332-.977.163-.362.3-.737.455-1.1.532-1.236.532-1.236,1.817-1.153a1.484,1.484,0,0,0,1.608-1.993c-.179-.568-.086-.9.5-1.1.664-.229,1.282-.5,1.91-.781a.708.708,0,0,1,1,.332c.963,1.428,2.046,1.4,3.036,0a1.043,1.043,0,0,1,.9-.332,20.155,20.155,0,0,1,2.073.794c.462.183.542.492.432.953-.359,1.515.475,2.345,2.01,1.993.561-.123.924,0,1.123.568.123.332.286.684.432,1.027.512,1.2.512,1.2-.478,2.02A1.438,1.438,0,0,0,115,87.812c.694.362.757.771.439,1.405-.262.518-.448,1.076-.728,1.588A2.368,2.368,0,0,1,114.174,91.337Zm-.236-1.06a8.059,8.059,0,0,0,.475-1.139.744.744,0,0,0-.169-.631,2.41,2.41,0,0,1-.02-3.957.734.734,0,0,0,.282-.495c-.066-.814-.588-1.163-1.4-1.262a3.724,3.724,0,0,1-1.661-.628,2.257,2.257,0,0,1-.774-2.618,8.734,8.734,0,0,0-1.239-.495.807.807,0,0,0-.664.183c-1.392,1.409-2.747,1.415-4.116.023a.817.817,0,0,0-.664-.2,8.853,8.853,0,0,0-1.213.515c.3,2.02-.784,3.372-2.658,3.222-.8-.066-.8.472-1.043.9s-.123.734.266,1.063a2.231,2.231,0,0,1,0,3.628c-.5.409-.369.714-.156,1.133s.226.884.953.774a2.405,2.405,0,0,1,2.747,2.548c-.033.545.143.781.618.9s.857.561,1.382-.08a2.405,2.405,0,0,1,3.654-.116.946.946,0,0,0,1.352.236,8.329,8.329,0,0,1,.774-.332c-.339-2.136.943-3.375,3.282-3.166Z" transform="translate(588.671 193.97)"/>
          <path id="Path_51" data-name="Path 51" d="M112.481,88.1a1.511,1.511,0,0,0-.359.276,1.994,1.994,0,0,0-.189.465c.159.05.332.176.472.133a4.983,4.983,0,0,1,3.186.14,3.935,3.935,0,0,0,1.216-.09l-1.438-.86c1.541-.213,3.93,2.229,3.781,3.741l-1-.595a17,17,0,0,1,.1,2.525,4.169,4.169,0,0,1-1.947,3.043,5.315,5.315,0,0,0-.708.711l.206.282,1.724-.9c-.116,1.083-2.8,1.967-4.864,1.561-2.306-.455-4.521-2.618-4.262-4.06l.92.522.176-.153a4.575,4.575,0,0,1,.246-3.847c.086-.156-.08-.455-.183-.937l-.857,1.372-.262-.1a7.827,7.827,0,0,1,.6-1.232,4.921,4.921,0,0,1,3.349-2.2Zm1.309,9.083a3.979,3.979,0,0,0,4.116-4.016,4.143,4.143,0,0,0-8.282.047A4,4,0,0,0,113.79,97.179Zm4.5-5.98.266-.442-1-.555-.226.369Zm-3.146,6.139-1.063.711.183.279c.276-.382,1.083.123.88-1Zm2.458-7.285.123-.442-1.173-.312-.11.385Zm-5.339,7.707.027-.475-1.2-.06-.03.392Zm.239.04.05.289c.429-.1,1.07.545,1.3-.535Zm-2.169-7.279.252-1.139c-.618.183-1.07.4-.252,1.133Zm-.332,5.77-.146.448,1.07.332.13-.375Z" transform="translate(581.636 187.301)"/>
          <path id="Path_52" data-name="Path 52" d="M122.959,100.621A1.615,1.615,0,1,1,121.371,99,1.615,1.615,0,0,1,122.959,100.621Zm-1.628-1.312a1.269,1.269,0,1,0,1.329,1.216,1.252,1.252,0,0,0-1.329-1.216Z" transform="translate(574.055 179.889)"/>
        </g>
      </g>
    </g>
  </g>
</svg>
