<svg xmlns="http://www.w3.org/2000/svg" width="15.467" height="13" viewBox="0 0 15.467 13">
  <g id="swift" transform="translate(-1849 -56)">
    <path id="Icon_awesome-long-arrow-alt-left" data-name="Icon awesome-long-arrow-alt-left" d="M10.839,13.666H.414c-.229,0-.414-.122-.414-.272V12.122c0-.15.186-.272.414-.272H10.839V10.8c0-.485.892-.729,1.415-.385l2.971,1.954a.427.427,0,0,1,0,.771L12.253,15.1c-.522.343-1.415.1-1.415-.385Z" transform="translate(1849 53.742)" fill="#0e71eb"/>
    <path id="Icon_awesome-long-arrow-alt-left-2" data-name="Icon awesome-long-arrow-alt-left" d="M4.628,13.666H15.053c.229,0,.414-.122.414-.272V12.122c0-.15-.186-.272-.414-.272H4.628V10.8c0-.485-.892-.729-1.415-.385L.243,12.373a.427.427,0,0,0,0,.771L3.214,15.1c.522.343,1.415.1,1.415-.385Z" transform="translate(1849 45.742)" fill="#0e71eb"/>
  </g>
</svg>
