<svg xmlns="http://www.w3.org/2000/svg" width="13.328" height="12" viewBox="0 0 13.328 12">
  <path id="unfavourite" d="M13.115,3.938h-.032A3.711,3.711,0,0,0,10.039,5.5,3.711,3.711,0,0,0,7,3.938H6.963a3.51,3.51,0,0,0-3.588,3.39,7.012,7.012,0,0,0,1.531,3.981,26.226,26.226,0,0,0,5.133,4.629,26.226,26.226,0,0,0,5.133-4.629A7.012,7.012,0,0,0,16.7,7.328,3.51,3.51,0,0,0,13.115,3.938Zm1.333,6.876a23.915,23.915,0,0,1-4.409,4.068A23.949,23.949,0,0,1,5.631,10.81,6.215,6.215,0,0,1,4.272,7.328,2.458,2.458,0,0,1,5.06,5.533a2.8,2.8,0,0,1,1.91-.753H7A2.83,2.83,0,0,1,8.315,5.1a2.734,2.734,0,0,1,.974.855.934.934,0,0,0,1.506,0,2.762,2.762,0,0,1,.974-.855,2.83,2.83,0,0,1,1.317-.324h.029a2.806,2.806,0,0,1,1.91.753,2.451,2.451,0,0,1,.788,1.794A6.3,6.3,0,0,1,14.448,10.814Z" transform="translate(-3.375 -3.938)" fill="#7e7e7e"/>
</svg>
