<?xml version="1.0" encoding="utf-8"?>
<!-- Generator: Adobe Illustrator 24.1.2, SVG Export Plug-In . SVG Version: 6.00 Build 0)  -->
<svg version="1.1" id="Layer_1" xmlns="http://www.w3.org/2000/svg" xmlns:xlink="http://www.w3.org/1999/xlink" x="0px" y="0px"
	 viewBox="0 0 30 30" style="enable-background:new 0 0 30 30;" xml:space="preserve">
<style type="text/css">
	.st0{fill:#4286F4;}
</style>
<path class="st0" d="M15.2,1.5C7.6,1.5,1.5,7.6,1.5,15.2S7.6,29,15.2,29S29,22.8,29,15.2S22.8,1.5,15.2,1.5z M21.3,16.4h-4.9v4.9
	c0,0.6-0.5,1.1-1.1,1.1c-0.6,0-1.1-0.5-1.1-1.1v-4.9H9.2c-0.6,0-1.1-0.5-1.1-1.1c0-0.6,0.5-1.1,1.1-1.1h4.9V9.2
	c0-0.6,0.5-1.1,1.1-1.1c0.6,0,1.1,0.5,1.1,1.1v4.9h4.9c0.6,0,1.1,0.5,1.1,1.1C22.4,15.9,21.9,16.4,21.3,16.4z"/>
</svg>
