<?xml version="1.0" encoding="utf-8"?>
<!-- Generator: Adobe Illustrator 24.1.2, SVG Export Plug-In . SVG Version: 6.00 Build 0)  -->
<svg version="1.1" id="Layer_1" xmlns="http://www.w3.org/2000/svg" xmlns:xlink="http://www.w3.org/1999/xlink" x="0px" y="0px"
	 viewBox="0 0 30 30" style="enable-background:new 0 0 30 30;" xml:space="preserve">
<style type="text/css">
	.st0{fill:#4286F4;}
</style>
<g>
	<g>
		<path class="st0" d="M15.5,1.4C15.5,1.4,15.4,1.4,15.5,1.4C7.9,1.4,1.8,7.5,1.8,15c0,3.1,1,6,3,8.4l-2,4.6c-0.2,0.4,0,0.8,0.4,1
			c0.1,0.1,0.3,0.1,0.4,0.1l7.3-1.3c1.5,0.5,3,0.8,4.5,0.8C22.9,28.6,29,22.5,29,15C29,7.5,23,1.4,15.5,1.4z M10.8,12.3h4
			c0.4,0,0.7,0.3,0.7,0.7s-0.3,0.7-0.7,0.7h-4c-0.4,0-0.7-0.3-0.7-0.7S10.4,12.3,10.8,12.3z M20,17.4h-9.2c-0.4,0-0.7-0.3-0.7-0.7
			s0.3-0.7,0.7-0.7H20c0.4,0,0.7,0.3,0.7,0.7S20.4,17.4,20,17.4z"/>
	</g>
</g>
</svg>
