<?xml version="1.0" encoding="utf-8"?>
<!-- Generator: Adobe Illustrator 24.1.2, SVG Export Plug-In . SVG Version: 6.00 Build 0)  -->
<svg version="1.1" id="Layer_1" xmlns="http://www.w3.org/2000/svg" xmlns:xlink="http://www.w3.org/1999/xlink" x="0px" y="0px"
	 viewBox="0 0 30 30" style="enable-background:new 0 0 30 30;" xml:space="preserve">
<style type="text/css">
	.st0{fill:#4286F4;}
</style>
<g>
	<g>
		<path class="st0" d="M19.3,6.2C10,3.2,1.5,10.1,1.5,19.1c0,1.2,0.1,3.5,0.5,4.9c0,0.3,0.3,0.5,0.5,0.5h24.7c0.3,0,0.5-0.3,0.7-0.5
			c0.3-1.4,0.5-3.7,0.5-4.9C28.5,13.3,24.9,8,19.3,6.2z M15,8.3c0.8,0,1.4,0.5,1.4,1.4S15.8,11,15,11s-1.4-0.5-1.4-1.4
			S14.2,8.3,15,8.3z M5.5,20.4c-0.8,0-1.4-0.5-1.4-1.4c0-0.8,0.5-1.4,1.4-1.4s1.4,0.5,1.4,1.4S6.3,20.4,5.5,20.4z M9.3,13.4
			c-0.5,0.5-1.4,0.5-1.9,0s-0.5-1.5-0.1-2c0.5-0.5,1.4-0.5,1.9,0S9.7,12.8,9.3,13.4z M15,21.8c-1.5,0-2.8-1.4-2.4-2.7
			c0.4-1.4,2.4-5.4,2.4-5.4s2,4.1,2.4,5.4C17.8,20.4,16.5,21.8,15,21.8z M22.7,13.4c-0.5,0.5-1.4,0.5-1.9,0c-0.5-0.5-0.5-1.4,0-1.9
			c0.5-0.5,1.4-0.5,1.9,0C23.1,11.9,23.1,12.8,22.7,13.4z M24.5,20.4c-0.8,0-1.4-0.5-1.4-1.4c0-0.8,0.5-1.4,1.4-1.4
			c0.8,0,1.4,0.5,1.4,1.4S25.3,20.4,24.5,20.4z"/>
	</g>
</g>
</svg>
