<?xml version="1.0" encoding="utf-8"?>
<!-- Generator: Adobe Illustrator 24.1.2, SVG Export Plug-In . SVG Version: 6.00 Build 0)  -->
<svg version="1.1" id="Layer_1" xmlns="http://www.w3.org/2000/svg" xmlns:xlink="http://www.w3.org/1999/xlink" x="0px" y="0px"
	 viewBox="0 0 30 30" style="enable-background:new 0 0 30 30;" xml:space="preserve">
<style type="text/css">
	.st0{fill:#4286F4;}
</style>
<path class="st0" d="M15,1.4C7.5,1.4,1.4,7.5,1.4,15S7.5,28.6,15,28.6S28.6,22.5,28.6,15S22.5,1.4,15,1.4z M15,22.9
	c-0.6,0-1.1-0.5-1.1-1.1c0-0.6,0.5-1.1,1.1-1.1s1.1,0.5,1.1,1.1C16.1,22.4,15.6,22.9,15,22.9z M16.8,15.7c-0.4,0.2-0.7,0.6-0.7,1
	v0.5c0,0.6-0.5,1.1-1.1,1.1s-1.1-0.5-1.1-1.1v-0.5c0-1.3,0.8-2.5,2-3.1c1.2-0.5,2-1.9,2-2.6c0-1.6-1.3-2.8-2.8-2.8s-2.8,1.3-2.8,2.8
	c0,0.6-0.5,1.1-1.1,1.1c-0.6,0-1.1-0.5-1.1-1.1C9.9,8.2,12.2,6,15,6s5.1,2.3,5.1,5.1C20.1,12.6,18.8,14.8,16.8,15.7z"/>
</svg>
