<?xml version="1.0" encoding="utf-8"?>
<!-- Generator: Adobe Illustrator 24.1.2, SVG Export Plug-In . SVG Version: 6.00 Build 0)  -->
<svg version="1.1" id="Layer_1" xmlns="http://www.w3.org/2000/svg" xmlns:xlink="http://www.w3.org/1999/xlink" x="0px" y="0px"
	 viewBox="0 0 30 30" style="enable-background:new 0 0 30 30;" xml:space="preserve">
<style type="text/css">
	.st0{fill:#4286F4;}
</style>
<g>
	<path class="st0" d="M29.7,8.1c0-0.3-0.1-0.7-0.2-1c-0.3-0.8-1-1.1-1.8-1.1c-6.7,0-13.4,0-20,0c-1.3,0-2.1,0.8-2.1,2
		c0,2.2,0,4.5,0,6.7c0.3-0.2,0.7-0.3,1-0.3c1.1-0.1,2.1,0.5,2.7,1.5c0.5,1,0.4,2.1-0.4,3l0,0l-0.4,0.4c-0.2,0.2-0.5,0.6-0.9,0.9
		c0,0,0.1,0,0.1,0c3.7,0,7.3,0,11,0c0.2,0,0.3,0.1,0.5,0.2c1.2,1.3,2.4,2.6,3.5,3.9c0.1,0.1,0.2,0.2,0.3,0.3
		c0.5-1.4,0.9-2.8,1.4-4.2c0.1-0.2,0.2-0.3,0.4-0.3c1,0,2,0,3,0c1.2,0,2-0.8,2-2C29.7,14.8,29.7,11.4,29.7,8.1z M15.9,7.4
		c2,0,3.5,1.6,3.5,3.6c0,1.9-1.6,3.5-3.6,3.4c-1.9,0-3.5-1.6-3.5-3.6C12.4,8.9,14,7.3,15.9,7.4z M9.6,18.4c0.2-0.7,0.3-1.4,0.5-2.1
		c0.1-0.3,0.2-0.5,0.4-0.7c0.2-0.2,0.4-0.3,0.7-0.3c3,0,6,0,8.9,0h0.5c0.6,0,0.9,0.2,1.1,0.8c0.2,0.7,0.4,1.5,0.6,2.3L9.6,18.4
		L9.6,18.4z"/>
	<path class="st0" d="M6.5,14.6c-0.5,0.1-1,0.2-1.4,0.6c-0.1,0.1-0.2,0.1-0.3,0c-2.4-2.1-5.5,1.2-3.5,3.6c0,0,2.2,2.3,3.2,3.3
		c0.2,0.3,0.7,0.3,0.9,0c0.7-0.7,2.1-2.2,2.8-2.9c0.2-0.3,0.4-0.4,0.4-0.4C10.3,16.7,8.5,14.4,6.5,14.6z"/>
</g>
</svg>
