<?xml version="1.0" encoding="utf-8"?>
<!-- Generator: Adobe Illustrator 24.1.2, SVG Export Plug-In . SVG Version: 6.00 Build 0)  -->
<svg version="1.1" id="Layer_1" xmlns="http://www.w3.org/2000/svg" xmlns:xlink="http://www.w3.org/1999/xlink" x="0px" y="0px"
	 viewBox="0 0 30 30" style="enable-background:new 0 0 30 30;" xml:space="preserve">
<style type="text/css">
	.st0{fill:#4286F4;}
</style>
<path class="st0" d="M8.4,12.9c0,0,0-0.1,0-0.2c0-2.7,0-5.5,0-8.2c0-0.3,0.1-0.5,0.4-0.7c2.1-1,4.2-2,6.3-3c0.2-0.1,0.4-0.1,0.7,0
	c2,1,4,2,6,3C22,4,22.1,4.2,22.1,4.5c0,2.8,0,5.5,0,8.2c0,0.1,0,0.1,0,0.3c0.3-0.1,0.5,0,0.8,0.2c1.9,1,3.8,1.9,5.7,2.9
	c0.3,0.1,0.4,0.3,0.4,0.6c0,2.7,0,5.5,0,8.2c0,0.3-0.1,0.5-0.4,0.7c-2.1,1.1-4.1,2.3-6.2,3.4c-0.2,0.1-0.4,0.1-0.6,0
	c-2.1-1.1-4.2-2.3-6.2-3.4c-0.3-0.1-0.4-0.3-0.4-0.6c0-2.6,0-5.2,0-7.8c0-0.1,0-0.1,0-0.2c-0.1,0-0.2,0-0.3-0.1c0,0.1,0,0.2,0,0.2
	c0,2.6,0,5.2,0,7.8c0,0.4-0.1,0.6-0.5,0.8c-2.1,1.1-4.1,2.2-6.2,3.4C8.2,29,8,29,7.8,28.9c-2.1-1.1-4.2-2.3-6.2-3.4
	c-0.3-0.1-0.4-0.3-0.4-0.6c0-2.7,0-5.5,0-8.2c0-0.3,0.1-0.5,0.4-0.6c2.1-1,4.2-2,6.2-3C8,13,8.2,13,8.4,12.9z M19.1,20.5
	c-0.4-0.2-0.8-0.4-1.2-0.6c0,0-0.1-0.1-0.1-0.2c0-0.4,0-0.9,0-1.3c0-0.1,0-0.2-0.1-0.2c-0.4-0.2-0.9-0.5-1.3-0.7c0,0-0.1,0-0.2-0.1
	c0,0.1,0,0.1,0,0.1c0,2.4,0,4.7,0,7.1c0,0.1,0,0.2,0.1,0.2c1.7,0.9,3.4,1.9,5.1,2.8c0,0,0.1,0,0.2,0.1c0-0.1,0-0.1,0-0.2
	c0-2.3,0-4.7,0-7c0-0.1,0-0.2-0.1-0.2c-0.8-0.4-1.5-0.8-2.2-1.2c0,0-0.1,0-0.1-0.1C19.1,19.5,19.1,20,19.1,20.5z M5,19
	c0,0.5,0,1,0,1.5c-0.4-0.2-0.7-0.3-1.1-0.5c-0.1,0-0.1-0.1-0.1-0.2c0-0.4,0-0.9,0-1.3c0-0.1,0-0.2-0.1-0.2c-0.5-0.2-0.9-0.5-1.3-0.7
	c0,0-0.1,0-0.2-0.1c0,0.1,0,0.2,0,0.2c0,2.3,0,4.6,0,6.9c0,0.1,0,0.2,0.2,0.3c1.7,0.9,3.4,1.8,5,2.8c0,0,0.1,0,0.2,0.1
	c0-0.1,0-0.1,0-0.2c0-2.3,0-4.7,0-7c0-0.1,0-0.2-0.1-0.2c-0.8-0.4-1.5-0.8-2.2-1.2C5.1,19,5.1,19,5,19z M12.2,7c0,0.5,0,1,0,1.5
	c-0.4-0.2-0.8-0.4-1.1-0.6c0,0-0.1-0.1-0.1-0.2c0-0.4,0-0.9,0-1.3c0-0.1,0-0.2-0.1-0.2c-0.3-0.2-0.6-0.4-1-0.5
	C9.7,5.6,9.6,5.5,9.4,5.4c0,0.1,0,0.1,0,0.2c0,2.3,0,4.7,0,7c0,0.1,0,0.2,0.1,0.2c1.7,0.9,3.4,1.9,5.1,2.8c0,0,0.1,0,0.2,0.1
	c0-0.1,0-0.1,0-0.2c0-2.3,0-4.7,0-7c0-0.1,0-0.2-0.1-0.2c-0.7-0.4-1.5-0.8-2.2-1.2C12.3,7,12.3,7,12.2,7z M5.6,18.1
	c0.1,0,0.1,0.1,0.2,0.1c0.7,0.4,1.4,0.8,2.1,1.2c0.1,0.1,0.2,0.1,0.3,0c1.7-0.9,3.3-1.8,5-2.8c0,0,0.1,0,0.1-0.1
	c-0.1,0-0.1-0.1-0.2-0.1c-0.7-0.3-1.4-0.7-2-1c-0.1-0.1-0.3-0.1-0.4,0c-1.6,0.8-3.1,1.7-4.7,2.5C5.9,18,5.8,18.1,5.6,18.1z M12.8,6
	C12.9,6,12.9,6,12.8,6c0.8,0.5,1.6,0.9,2.3,1.3c0.1,0,0.2,0,0.2,0c1.7-0.9,3.3-1.8,5-2.8c0,0,0.1,0,0.1-0.1c-0.1,0-0.1-0.1-0.2-0.1
	c-0.7-0.3-1.4-0.7-2-1c-0.1-0.1-0.2-0.1-0.3,0c-1.6,0.8-3.1,1.6-4.7,2.5C13.1,5.8,13,5.9,12.8,6z M19.7,18.1c0.1,0,0.1,0.1,0.2,0.1
	c0.7,0.4,1.4,0.8,2.1,1.1c0.1,0.1,0.2,0.1,0.3,0c1.7-0.9,3.3-1.8,5-2.7c0,0,0.1-0.1,0.2-0.1c0,0-0.1,0-0.1-0.1
	c-0.7-0.4-1.4-0.7-2.2-1.1c-0.1,0-0.2,0-0.2,0c-1.2,0.6-2.3,1.2-3.5,1.8C20.9,17.5,20.3,17.8,19.7,18.1z M10.3,4.6
	c0.5,0.3,1,0.6,1.5,0.8c0,0,0.1,0,0.2,0c1.7-0.9,3.3-1.7,5-2.6c0,0,0.1-0.1,0.2-0.1c-0.4-0.2-0.8-0.4-1.2-0.6C15.8,2,15.7,2,15.6,2
	c-1.5,0.7-3,1.4-4.4,2.1C10.9,4.3,10.6,4.4,10.3,4.6z M2.8,16.6c0.1,0,0.1,0.1,0.2,0.1c0.4,0.2,0.8,0.4,1.2,0.7
	c0.1,0.1,0.2,0.1,0.3,0c1.7-0.9,3.3-1.7,5-2.6c0,0,0.1,0,0.1-0.1c-0.1,0-0.1-0.1-0.2-0.1c-0.3-0.2-0.7-0.3-1-0.5
	c-0.1-0.1-0.2-0.1-0.3,0c-1.1,0.6-2.3,1.1-3.4,1.6C4,16,3.4,16.3,2.8,16.6z M23.7,14.7c-0.5-0.2-0.9-0.5-1.3-0.7c0,0-0.1,0-0.2,0
	c-1.7,0.8-3.5,1.6-5.2,2.5c0,0-0.1,0-0.2,0.1c0.1,0,0.1,0.1,0.2,0.1c0.4,0.2,0.8,0.4,1.2,0.6c0.1,0.1,0.3,0.1,0.4,0
	c1.2-0.6,2.4-1.3,3.7-1.9C22.7,15.2,23.2,14.9,23.7,14.7z"/>
</svg>
