<?xml version="1.0" encoding="utf-8"?>
<!-- Generator: Adobe Illustrator 24.1.2, SVG Export Plug-In . SVG Version: 6.00 Build 0)  -->
<svg version="1.1" id="Layer_1" xmlns="http://www.w3.org/2000/svg" xmlns:xlink="http://www.w3.org/1999/xlink" x="0px" y="0px"
	 viewBox="0 0 30 30" style="enable-background:new 0 0 30 30;" xml:space="preserve">
<style type="text/css">
	.st0{fill:#4286F4;}
</style>
<g>
	<path class="st0" d="M23,23.8c0,0.9,0,1.8,0,2.7c-5.2,0-10.4,0-15.6,0c0-0.9,0-1.8,0-2.7c3.2,0,6.4,0,9.7,0c0-0.4,0-0.8,0.1-1.2
		c0-0.7,0.1-1.5,0.1-2.2c0-0.7,0.5-1.2,1-1.3c0.6-0.1,1.2,0.1,1.6,0.7c0.7,1.2,1.4,2.5,2.1,3.7c0.2,0.3,0.4,0.5,0.7,0.4
		C22.8,23.8,22.9,23.8,23,23.8z M19.3,20.4c0-0.4-0.3-0.7-0.7-0.7c-0.4,0-0.7,0.3-0.7,0.7c0,0.4,0.3,0.7,0.7,0.7
		C19,21,19.3,20.7,19.3,20.4z"/>
	<path class="st0" d="M18.8,1.9c-0.1,0.3-0.1,0.5-0.2,0.7c0,0.1-0.1,0.1-0.2,0.2c0,0-0.1,0.1-0.1,0.1c-0.2,0.8-0.5,1.7-0.7,2.5
		c0.5,0.2,1,0.3,1.6,0.5c-0.1,0.5-0.3,1-0.4,1.5c-0.2-0.1-0.4-0.1-0.6-0.2c0,0-0.2,0.3-0.4,0.3c-1.2,0-2.1,0.7-2.4,1.8
		c-0.3,1.1,0.2,2.1,1.1,2.7c0,0,0.1,0.1,0.2,0.1c-0.2,0.6-0.3,1.1-0.5,1.7c0.1,0.1,0.2,0.1,0.4,0.2c-0.2,0.7-0.4,1.3-0.6,2
		c-0.4-0.1-0.8-0.2-1.2-0.3c-0.1,0.2-0.1,0.5-0.2,0.7c-0.2,0-0.3-0.1-0.5-0.1c-0.1,0.2-0.1,0.4-0.2,0.6c-0.5-0.1-0.9-0.3-1.4-0.4
		c0.1-0.2,0.1-0.4,0.1-0.6c-0.1-0.1-0.3-0.1-0.4-0.2c0.1-0.2,0.1-0.5,0.2-0.7c-0.4-0.1-0.8-0.2-1.2-0.4c0.2-0.7,0.4-1.3,0.6-2
		c0.1,0,0.2,0,0.4,0.1c0.6-2.2,1.3-4.4,1.9-6.6c-0.2-0.1-0.4-0.1-0.7-0.2c0.1-0.5,0.3-1,0.4-1.5c0.5,0.1,1,0.3,1.6,0.4
		c0.2-0.9,0.5-1.7,0.7-2.5c0,0,0-0.1,0-0.1c-0.4-0.3,0.1-0.6,0-1C17,1.4,17.9,1.7,18.8,1.9z"/>
	<path class="st0" d="M19.7,18.7c0,0,0.1-0.1,0.2-0.3c1.8-2.1,1.4-5.3-1-6.8c-0.2-0.1-0.3-0.1-0.5,0c-0.7,0.4-1.6,0.2-2.2-0.4
		C15.8,10.6,15.6,9.7,16,9c0.4-0.7,1.2-1.1,2-1c0.8,0.1,1.4,0.8,1.5,1.6c0,0.2,0.1,0.3,0.3,0.4c3.5,2.1,4,7,1.1,9.9
		c-0.1,0.1-0.2,0.2-0.2,0.2C20.4,19.7,20.1,19.2,19.7,18.7z M17.6,9.1c-0.4,0-0.8,0.3-0.8,0.8c0,0.4,0.3,0.8,0.8,0.8
		c0.4,0,0.8-0.3,0.8-0.8C18.4,9.5,18.1,9.1,17.6,9.1z"/>
	<path class="st0" d="M15.6,19.1c-0.1,0.2-0.1,0.4-0.2,0.6c0.3,0.4,0.8,0.3,1.2,0.3c0,0.6,0,1.1,0,1.7c-1.3,0.1-2.5-0.5-3.8-0.7
		c0.1-0.2,0.1-0.4,0.2-0.5c-1.7-0.5-3.4-1-5.2-1.5c0.2-0.6,0.4-1.3,0.6-2C10.8,17.8,13.2,18.4,15.6,19.1z"/>
	<path class="st0" d="M8.2,28c0-0.3,0-0.6,0-1c1,0,2,0,3.1,0c0,0.3,0,0.6,0,1C10.3,28,9.3,28,8.2,28z"/>
	<path class="st0" d="M22.1,27c0,0.3,0,0.6,0,1c-1,0-2,0-3.1,0c0-0.3,0-0.6,0-1C20.1,27,21.1,27,22.1,27z"/>
</g>
</svg>
