<?xml version="1.0" encoding="utf-8"?>
<!-- Generator: Adobe Illustrator 24.1.2, SVG Export Plug-In . SVG Version: 6.00 Build 0)  -->
<svg version="1.1" id="Layer_1" xmlns="http://www.w3.org/2000/svg" xmlns:xlink="http://www.w3.org/1999/xlink" x="0px" y="0px"
	 viewBox="0 0 30 30" style="enable-background:new 0 0 30 30;" xml:space="preserve">
<style type="text/css">
	.st0{fill:#4286F4;}
</style>
<g>
	<g>
		<path class="st0" d="M11.4,15.9c0-0.3-0.3-0.6-0.6-0.6H8.6c-0.3,0-0.6,0.3-0.6,0.6V18c0,0.3,0.3,0.6,0.6,0.6h2.1
			c0.3,0,0.6-0.3,0.6-0.6L11.4,15.9L11.4,15.9z"/>
		<path class="st0" d="M16.7,15.9c0-0.3-0.3-0.6-0.6-0.6H14c-0.3,0-0.6,0.3-0.6,0.6V18c0,0.3,0.3,0.6,0.6,0.6h2.1
			c0.3,0,0.6-0.3,0.6-0.6V15.9z"/>
		<path class="st0" d="M22.1,15.9c0-0.3-0.3-0.6-0.6-0.6h-2.1c-0.3,0-0.6,0.3-0.6,0.6V18c0,0.3,0.3,0.6,0.6,0.6h2.1
			c0.3,0,0.6-0.3,0.6-0.6V15.9z"/>
		<path class="st0" d="M11.4,21.2c0-0.3-0.3-0.6-0.6-0.6H8.6c-0.3,0-0.6,0.3-0.6,0.6v2.1C8,23.7,8.3,24,8.6,24h2.1
			c0.3,0,0.6-0.3,0.6-0.6L11.4,21.2L11.4,21.2z"/>
		<path class="st0" d="M16.7,21.2c0-0.3-0.3-0.6-0.6-0.6H14c-0.3,0-0.6,0.3-0.6,0.6v2.1c0,0.3,0.3,0.6,0.6,0.6h2.1
			c0.3,0,0.6-0.3,0.6-0.6V21.2z"/>
		<path class="st0" d="M22.1,21.2c0-0.3-0.3-0.6-0.6-0.6h-2.1c-0.3,0-0.6,0.3-0.6,0.6v2.1c0,0.3,0.3,0.6,0.6,0.6h2.1
			c0.3,0,0.6-0.3,0.6-0.6V21.2L22.1,21.2z"/>
		<path class="st0" d="M25.9,4v3.3c0,1.5-1.2,2.7-2.7,2.7h-1.7c-1.5,0-2.7-1.2-2.7-2.7V4h-7.6v3.3c0,1.5-1.2,2.7-2.7,2.7H6.9
			c-1.5,0-2.7-1.2-2.7-2.7V4C2.9,4,1.8,5.1,1.8,6.4v19.2c0,1.3,1.1,2.4,2.4,2.4h21.6c1.3,0,2.4-1.1,2.4-2.4V6.4
			C28.3,5.1,27.2,4,25.9,4z M25.1,24.4c0,0.6-0.5,1-1,1H6c-0.6,0-1-0.5-1-1v-9.9c0-0.6,0.5-1,1-1h18.1c0.6,0,1,0.5,1,1L25.1,24.4
			L25.1,24.4z"/>
		<path class="st0" d="M6.9,8.2h1.7c0.5,0,0.9-0.4,0.9-0.9V1.9C9.5,1.4,9,1,8.5,1H6.9C6.4,1,6,1.4,6,1.9v5.4C6,7.8,6.4,8.2,6.9,8.2z
			"/>
		<path class="st0" d="M21.5,8.2h1.7c0.5,0,0.9-0.4,0.9-0.9V1.9c0-0.5-0.4-0.9-0.9-0.9h-1.7c-0.5,0-0.9,0.4-0.9,0.9v5.4
			C20.6,7.8,21,8.2,21.5,8.2z"/>
	</g>
</g>
</svg>
