<?xml version="1.0" encoding="utf-8"?>
<!-- Generator: Adobe Illustrator 24.1.2, SVG Export Plug-In . SVG Version: 6.00 Build 0)  -->
<svg version="1.1" id="Layer_1" xmlns="http://www.w3.org/2000/svg" xmlns:xlink="http://www.w3.org/1999/xlink" x="0px" y="0px"
	 viewBox="0 0 30 30" style="enable-background:new 0 0 30 30;" xml:space="preserve">
<style type="text/css">
	.st0{fill:#4286F4;}
</style>
<path class="st0" d="M29.4,7.8c0-0.4-0.1-0.8-0.2-1.2C28.8,5.7,28,5.3,27,5.3c-7.7,0-15.5,0-23.2,0c-1.5,0-2.4,0.9-2.4,2.4
	c0,3.9,0,7.9,0,11.8c0,1.2,0.9,2.4,2.4,2.4c4.2,0,8.5,0,12.7,0c0.2,0,0.4,0.1,0.5,0.2c1.4,1.5,2.7,3,4.1,4.6
	c0.1,0.1,0.2,0.2,0.3,0.4c0.5-1.7,1.1-3.2,1.6-4.8c0.1-0.2,0.2-0.3,0.4-0.3c1.2,0,2.3,0,3.5,0c1.4,0,2.3-0.9,2.3-2.3
	C29.4,15.6,29.4,11.7,29.4,7.8z M13.5,7c2.3,0,4.1,1.9,4,4.2c0,2.2-1.9,4-4.2,4c-2.3,0-4-1.9-4-4.1C9.4,8.7,11.2,6.9,13.5,7z
	 M6.2,19.7c0.2-0.8,0.3-1.6,0.6-2.4c0.1-0.3,0.2-0.6,0.4-0.8c0.2-0.2,0.5-0.3,0.8-0.3c3.5,0,6.9,0,10.3,0c0.2,0,0.4,0,0.6,0
	c0.7,0,1,0.2,1.2,0.9c0.3,0.9,0.4,1.7,0.7,2.6C15.8,19.7,11,19.7,6.2,19.7z"/>
</svg>
