<?xml version="1.0" encoding="utf-8"?>
<!-- Generator: Adobe Illustrator 24.1.2, SVG Export Plug-In . SVG Version: 6.00 Build 0)  -->
<svg version="1.1" id="Layer_1" xmlns="http://www.w3.org/2000/svg" xmlns:xlink="http://www.w3.org/1999/xlink" x="0px" y="0px"
	 viewBox="0 0 30 30" style="enable-background:new 0 0 30 30;" xml:space="preserve">
<style type="text/css">
	.st0{fill:#4286F4;}
</style>
<g>
	<g>
		<g>
			<path class="st0" d="M1.1,13.3c0,1.1,0.6,2,1.6,2.4v-4.6c0-0.1,0-0.2,0-0.2C1.8,11.3,1.1,12.3,1.1,13.3z"/>
			<path class="st0" d="M10.1,19H5.7l1.6,5.8c0.2,0.9,1,1.5,2,1.5c0.7,0,1.3-0.3,1.7-0.8c0.4-0.5,0.5-1.2,0.3-1.8L10.1,19z"/>
			<path class="st0" d="M2.8,10.9L2.8,10.9L2.8,10.9C2.8,10.9,2.8,10.9,2.8,10.9z"/>
			<path class="st0" d="M26.3,10.4h-0.3v5.9h0.3c1.6,0,3-1.3,3-3C29.3,11.8,28,10.4,26.3,10.4z"/>
			<path class="st0" d="M3.7,11.2v4.7c0,1.2,1,2.2,2.2,2.2h6V9.1h-6C4.8,9.1,3.7,10,3.7,11.2z"/>
			<polygon class="st0" points="12.9,18.1 25.1,23 25.1,4 12.9,8.9 			"/>
		</g>
	</g>
</g>
</svg>
