<?xml version="1.0" encoding="utf-8"?>
<!-- Generator: Adobe Illustrator 24.1.2, SVG Export Plug-In . SVG Version: 6.00 Build 0)  -->
<svg version="1.1" id="Layer_1" xmlns="http://www.w3.org/2000/svg" xmlns:xlink="http://www.w3.org/1999/xlink" x="0px" y="0px"
	 viewBox="0 0 20 20" style="enable-background:new 0 0 20 20;" xml:space="preserve">
<style type="text/css">
	.st0{fill:#4286F3;}
	.st1{fill:#4889F3;}
	.st2{fill:#4789F3;}
</style>
<path class="st0" d="M9.7,19c-2.7,0-5.4,0-8.2,0c-0.4,0-0.8-0.1-1-0.5c-0.1-0.3-0.1-0.6,0.2-0.9c0.2-0.2,0.5-0.3,0.7-0.3
	c5.5,0,10.9,0,16.4,0c0.6,0,1,0.2,1,0.8c0,0.6-0.4,0.8-1,0.8C15.1,19,12.4,19,9.7,19z"/>
<path class="st1" d="M7.6,2.9C7,2.8,6.5,3,6,3.1C5.6,3.1,5.3,3,5.2,2.5C5.1,2.1,5.4,1.8,5.8,1.8c1-0.1,2-0.3,3-0.4
	C9.3,1.3,9.7,1.5,9.7,2C9.9,3,10,3.9,10.1,4.9c0.1,0.5,0.1,0.9-0.5,1C9,5.9,8.9,5.5,8.9,5c0-0.4-0.1-0.8-0.2-1.3
	C7.8,4.9,7,5.8,6.1,6.6C4.8,7.8,3.2,8.1,1.6,8.3C1.2,8.4,1,8.2,0.9,7.8C0.8,7.5,1,7.2,1.4,7.1C1.7,7,2,7,2.3,6.9
	C4.8,6.6,6.2,4.9,7.6,2.9z"/>
<g>
	<path class="st2" d="M11.2,16.2h-3c-0.3,0-0.5-0.2-0.5-0.5V10c0-0.9,0.7-1.6,1.6-1.6H10c0.9,0,1.6,0.7,1.6,1.6v5.7
		C11.6,16,11.4,16.2,11.2,16.2z"/>
	<path class="st2" d="M17,16.2h-3c-0.3,0-0.5-0.2-0.5-0.5V4.4c0-0.9,0.7-1.6,1.6-1.6h0.7c0.9,0,1.6,0.7,1.6,1.6v11.3
		C17.5,16,17.3,16.2,17,16.2z"/>
	<path class="st2" d="M5.3,16.2h-3c-0.3,0-0.5-0.2-0.5-0.5v-1.6c0-0.9,0.7-1.6,1.6-1.6h0.7c0.9,0,1.6,0.7,1.6,1.6v1.6
		C5.8,16,5.5,16.2,5.3,16.2z"/>
</g>
</svg>
