<?xml version="1.0" encoding="utf-8"?>
<!-- Generator: Adobe Illustrator 24.1.2, SVG Export Plug-In . SVG Version: 6.00 Build 0)  -->
<svg version="1.1" id="Layer_1" xmlns="http://www.w3.org/2000/svg" xmlns:xlink="http://www.w3.org/1999/xlink" x="0px" y="0px"
	 viewBox="0 0 30 30" style="enable-background:new 0 0 30 30;" xml:space="preserve">
<style type="text/css">
	.st0{fill:#4286F4;}
</style>
<g>
	<g id="Layer_1_87_">
		<g>
			<path class="st0" d="M25.2,5.9c0-0.5-0.5-0.6-0.9-0.7v1.4C24.7,6.6,25.2,6.4,25.2,5.9z"/>
			<path class="st0" d="M23.8,2.9c-0.5,0-0.8,0.3-0.8,0.6c0,0.4,0.3,0.6,0.8,0.7L23.8,2.9L23.8,2.9z"/>
			<path class="st0" d="M24.1,9.1c2.4,0,4.4-2,4.4-4.4s-2-4.4-4.4-4.4c-2.4,0-4.4,2-4.4,4.4C19.7,7.2,21.6,9.1,24.1,9.1z M22.1,3.6
				c0-1,0.8-1.5,1.7-1.5V1.8c0-0.1,0.1-0.2,0.2-0.2c0.1,0,0.2,0.1,0.2,0.2v0.4c0.6,0,1.7,0.4,1.7,1.1c0,0.3-0.2,0.4-0.5,0.4
				c-0.5,0-0.5-0.8-1.3-0.8v1.4c1,0.2,1.8,0.5,1.8,1.6c0,1-0.7,1.5-1.8,1.5v0.4c0,0.1-0.1,0.2-0.2,0.2c-0.1,0-0.2-0.1-0.2-0.2V7.4
				C22.6,7.3,22,6.6,22,6c0-0.3,0.2-0.5,0.4-0.5c0.8,0,0.2,1,1.4,1V5.1C22.8,4.9,22.1,4.5,22.1,3.6z"/>
			<path class="st0" d="M6.5,19.8H2.7c-0.7,0-1.3,0.6-1.3,1.3v5.6C1.5,27.4,2,28,2.7,28h3.8c0.7,0,1.3-0.6,1.3-1.3v-5.6
				C7.7,20.4,7.2,19.8,6.5,19.8z"/>
			<path class="st0" d="M16.2,15.5h-3.8c-0.7,0-1.3,0.6-1.3,1.3v10c0,0.7,0.6,1.3,1.3,1.3h3.8c0.7,0,1.3-0.6,1.3-1.3v-10
				C17.5,16,16.9,15.5,16.2,15.5z"/>
			<path class="st0" d="M25.9,10.4h-3.8c-0.7,0-1.3,0.6-1.3,1.3v15c0,0.7,0.6,1.3,1.3,1.3h3.8c0.7,0,1.3-0.6,1.3-1.3v-15
				C27.2,11,26.6,10.4,25.9,10.4z"/>
			<path class="st0" d="M18.4,6.9l-3.1-0.7c-0.2,0-0.5,0-0.6,0.2c-0.1,0.2-0.2,0.5-0.1,0.7l0.7,1.3L1.5,15.5
				c-0.3,0.2-0.4,0.5-0.3,0.8c0.1,0.2,0.3,0.3,0.6,0.3c0.1,0,0.2,0,0.3-0.1l13.8-7.1l0.6,1.2c0.1,0.2,0.3,0.3,0.6,0.3c0,0,0,0,0,0
				c0.2,0,0.5-0.2,0.5-0.4l1.2-2.9c0.1-0.2,0.1-0.4,0-0.5C18.7,7,18.6,6.9,18.4,6.9z"/>
		</g>
	</g>
</g>
</svg>
