<?xml version="1.0" encoding="utf-8"?>
<!-- Generator: Adobe Illustrator 24.1.2, SVG Export Plug-In . SVG Version: 6.00 Build 0)  -->
<svg version="1.1" id="Layer_1" xmlns="http://www.w3.org/2000/svg" xmlns:xlink="http://www.w3.org/1999/xlink" x="0px" y="0px"
	 viewBox="0 0 30 30" style="enable-background:new 0 0 30 30;" xml:space="preserve">
<style type="text/css">
	.st0{fill:#4286F4;}
</style>
<g>
	<g>
		<g>
			<path class="st0" d="M24.3,6.7c0-0.6-0.5-1.1-1.1-1.1H20V3.6h-2.1v2.1h-3.2V3.6h-2.1v2.1H9.4V3.6H7.3v2.1H4.1
				c-0.6,0-1.1,0.5-1.1,1.1v2.1h21.2V6.7z"/>
			<path class="st0" d="M20,15.5c0.7-0.2,1.4-0.3,2.1-0.3c0.7,0,1.4,0.1,2.1,0.3V9.9H3.1v13.8c0,0.6,0.5,1.1,1.1,1.1H15
				C13.9,20.8,16.1,16.7,20,15.5z M17.9,12H20v2.1h-2.1V12z M12.6,12h2.1v2.1h-2.1V12z M9.4,22.6H7.3v-2.1h2.1V22.6z M9.4,18.4H7.3
				v-2.1h2.1V18.4z M9.4,14.2H7.3V12h2.1V14.2z M12.6,16.3h2.1v2.1h-2.1V16.3z"/>
			<path class="st0" d="M22.2,16.3c-3.5,0-6.4,2.8-6.4,6.4s2.8,6.4,6.4,6.4s6.4-2.8,6.4-6.4C28.5,19.1,25.7,16.3,22.2,16.3z
				 M22.9,23.4c-0.3,0.3-0.7,0.4-1.1,0.3l-3.2-1.1l0.7-2l2.6,0.8l2.7-2.7l1.5,1.5L22.9,23.4z"/>
		</g>
	</g>
</g>
</svg>
