<?xml version="1.0" encoding="utf-8"?>
<!-- Generator: Adobe Illustrator 24.1.2, SVG Export Plug-In . SVG Version: 6.00 Build 0)  -->
<svg version="1.1" id="Layer_1" xmlns="http://www.w3.org/2000/svg" xmlns:xlink="http://www.w3.org/1999/xlink" x="0px" y="0px"
	 viewBox="0 0 30 30" style="enable-background:new 0 0 30 30;" xml:space="preserve">
<style type="text/css">
	.st0{fill:#4286F4;}
</style>
<g>
	<g>
		<path class="st0" d="M28.4,12.6l-3.3-0.8c-0.2-0.6-0.4-1.1-0.7-1.7l1.7-2.8c0.2-0.3,0.1-0.7-0.1-1L23.6,4c-0.3-0.3-0.7-0.3-1-0.1
			l-2.8,1.7c-0.5-0.3-1.1-0.5-1.7-0.7l-0.8-3.3C17.3,1.3,17,1,16.6,1h-3.3c-0.4,0-0.7,0.3-0.8,0.6l-0.8,3.3
			c-0.6,0.2-1.1,0.4-1.7,0.7L7.3,3.9C6.9,3.7,6.5,3.8,6.3,4L3.9,6.4C3.7,6.6,3.6,7,3.8,7.4l1.7,2.8c-0.3,0.5-0.5,1.1-0.7,1.7
			l-3.2,0.8C1.3,12.7,1,13,1,13.4v3.3c0,0.4,0.3,0.7,0.6,0.8l3.2,0.8C5,18.9,5.2,19.4,5.5,20l-1.7,2.8c-0.2,0.3-0.1,0.7,0.1,1
			l2.3,2.3c0.3,0.3,0.7,0.3,1,0.1l2.8-1.7c0.5,0.3,1.1,0.5,1.7,0.7l0.8,3.2c0.1,0.4,0.4,0.6,0.8,0.6h3.3c0.4,0,0.7-0.3,0.8-0.6
			l0.8-3.2c0.6-0.2,1.1-0.4,1.7-0.7l2.8,1.7c0.3,0.2,0.7,0.1,1-0.1l2.3-2.3c0.3-0.3,0.3-0.7,0.1-1L24.4,20c0.3-0.5,0.5-1.1,0.7-1.7
			l3.3-0.8c0.4-0.1,0.6-0.4,0.6-0.8v-3.3C29,13,28.7,12.7,28.4,12.6z M14.9,19.2c-2.3,0-4.1-1.8-4.1-4.1s1.8-4.1,4.1-4.1
			s4.1,1.8,4.1,4.1S17.2,19.2,14.9,19.2z"/>
	</g>
</g>
</svg>
