<?xml version="1.0" encoding="utf-8"?>
<!-- Generator: Adobe Illustrator 24.1.2, SVG Export Plug-In . SVG Version: 6.00 Build 0)  -->
<svg version="1.1" id="Layer_1" xmlns="http://www.w3.org/2000/svg" xmlns:xlink="http://www.w3.org/1999/xlink" x="0px" y="0px"
	 viewBox="0 0 30 30" style="enable-background:new 0 0 30 30;" xml:space="preserve">
<style type="text/css">
	.st0{fill:#4286F4;}
</style>
<g>
	<path class="st0" d="M2.1,24.2c0,2.3,1.9,4.2,4.2,4.2h18.5c2.3,0,4.2-1.9,4.2-4.2V7.6H2.1V24.2z M6.7,13.8h15.5
		c0.4,0,0.8,0.4,0.8,0.8c0,0.4-0.4,0.8-0.8,0.8H6.7c-0.4,0-0.8-0.4-0.8-0.8C5.9,14.1,6.3,13.8,6.7,13.8z M6.7,16.9h12.6
		c0.4,0,0.8,0.4,0.8,0.8c0,0.4-0.4,0.8-0.8,0.8H6.7c-0.4,0-0.8-0.4-0.8-0.8C5.9,17.3,6.3,16.9,6.7,16.9z M6.7,20.1h14.1
		c0.4,0,0.8,0.4,0.8,0.8c0,0.4-0.4,0.8-0.8,0.8H6.7c-0.4,0-0.8-0.4-0.8-0.8C5.9,20.4,6.3,20.1,6.7,20.1z"/>
	<path class="st0" d="M24.8,1.5H6.3C4,1.5,2.1,3.4,2.1,5.7V6H29V5.7C29,3.4,27.1,1.5,24.8,1.5z M6.6,4.6c-0.4,0-0.8-0.4-0.8-0.8
		C5.8,3.3,6.1,3,6.6,3C7,3,7.4,3.3,7.4,3.8C7.4,4.2,7,4.6,6.6,4.6z M8.7,4.6c-0.4,0-0.8-0.4-0.8-0.8C7.9,3.3,8.2,3,8.7,3
		c0.4,0,0.8,0.4,0.8,0.8C9.5,4.2,9.1,4.6,8.7,4.6z M10.8,4.6c-0.4,0-0.8-0.4-0.8-0.8C10,3.3,10.3,3,10.8,3c0.4,0,0.8,0.4,0.8,0.8
		C11.6,4.2,11.2,4.6,10.8,4.6z"/>
</g>
</svg>
