<?xml version="1.0" encoding="utf-8"?>
<!-- Generator: Adobe Illustrator 24.1.2, SVG Export Plug-In . SVG Version: 6.00 Build 0)  -->
<svg version="1.1" id="Layer_1" xmlns="http://www.w3.org/2000/svg" xmlns:xlink="http://www.w3.org/1999/xlink" x="0px" y="0px"
	 viewBox="0 0 30 30" style="enable-background:new 0 0 30 30;" xml:space="preserve">
<style type="text/css">
	.st0{fill:#4286F4;}
</style>
<g id="XMLID_2_">
	<g>
		<g>
			<path class="st0" d="M22.4,19.6c-1.1,1.5-2.9,2.5-5,2.5h-2.9c-1,0-1.8-0.6-2.2-1.5c-0.4-0.1-0.8-0.3-1.2-0.5
				c-0.8-0.4-1.5-0.9-2.2-1.6c-4.2,0.9-7.3,4.6-7.3,9.1v0.6c0,0.8,0.6,1.4,1.4,1.4h22.4c0.8,0,1.4-0.6,1.4-1.4v-0.6
				C27,24.2,25.1,21.2,22.4,19.6z"/>
			<path class="st0" d="M7.5,15.6c0.6,0,1.2-0.3,1.4-0.9c0,0,0,0,0,0.1c0,0,0,0,0,0c0.7,1.7,1.9,3.2,3.6,3.8
				c0.4-0.6,1.1-1.1,1.9-1.1h2.9c0.3,0,0.6-0.1,0.8-0.2c0.4-0.2,0.7-0.8,0.9-1.1c0.3-0.5,0.5-1,0.7-1.5c0.1,0.2,0.3,0.4,0.5,0.5v0.7
				c0,1.6-1.3,2.9-2.9,2.9h-2.9c-0.5,0-1,0.4-1,1c0,0.5,0.4,1,1,1h2.9c2.7,0,4.9-2.2,4.9-4.9v-0.7c0.4-0.3,0.7-0.8,0.7-1.3v-3V9.8
				c0-0.5-0.3-1-0.7-1.3c-0.3-4.1-3.7-7.3-7.9-7.3c-4.1,0-7.5,3.2-7.9,7.3C6.1,8.8,5.8,9.3,5.8,9.8v4.1C5.8,14.8,6.6,15.6,7.5,15.6z
				 M14.4,3.2c3.1,0,5.6,2.3,5.9,5.3c-0.2,0.2-0.4,0.3-0.5,0.6c-0.9-2.4-3-4.1-5.4-4.1C11.9,5,9.9,6.7,9,9.1c0,0,0,0,0,0
				C8.8,8.9,8.7,8.7,8.5,8.5C8.8,5.5,11.3,3.2,14.4,3.2z"/>
		</g>
	</g>
</g>
</svg>
