<?xml version="1.0" encoding="utf-8"?>
<!-- Generator: Adobe Illustrator 24.1.2, SVG Export Plug-In . SVG Version: 6.00 Build 0)  -->
<svg version="1.1" id="Layer_1" xmlns="http://www.w3.org/2000/svg" xmlns:xlink="http://www.w3.org/1999/xlink" x="0px" y="0px"
	 viewBox="0 0 30 30" style="enable-background:new 0 0 30 30;" xml:space="preserve">
<style type="text/css">
	.st0{fill:#4286F4;}
</style>
<g>
	<path class="st0" d="M14.2,3c0.4,0,0.8,0.1,1.2,0.1c2,0.2,3.9,0.5,5.7,1.4c0.5,0.2,1,0.5,1.4,0.9c0.8,0.7,0.8,1.4,0,2.1
		c-0.7,0.6-1.5,1-2.4,1.3c-1.6,0.6-3.2,0.8-4.8,1c-1.9,0.2-3.9,0.1-5.8-0.1C7.7,9.4,6,9,4.5,8.2C4,7.9,3.7,7.6,3.3,7.2
		C3.2,7.1,3.1,6.8,3,6.7c0-0.1,0-0.3,0-0.4C3.2,5.7,3.6,5.3,4,5c0.3-0.2,0.6-0.4,1-0.5c1.8-0.8,3.7-1.2,5.7-1.4
		C11,3.1,11.4,3,11.8,3C12.6,3,13.4,3,14.2,3z"/>
	<path class="st0" d="M3,13.1c1,0.9,2.2,1.4,3.4,1.7c2.8,0.8,5.6,1,8.5,0.8c1.8-0.1,3.6-0.4,5.3-1c1-0.3,1.9-0.8,2.7-1.4
		c0,0,0,0,0.1,0c0,0,0,0,0,0c0,1.2,0,2.5,0,3.7c0,0.2-0.1,0.3-0.3,0.3c-1.6,0.2-3,0.9-4.1,2.2c-0.1,0.1-0.2,0.1-0.2,0.1
		c-2.3,0.5-4.7,0.7-7,0.5c-1.8-0.1-3.6-0.3-5.2-0.9c-0.7-0.2-1.3-0.5-1.9-0.9c-0.6-0.3-1-0.7-1.3-1.4C3,15.6,3,14.3,3,13.1z"/>
	<path class="st0" d="M3,8.2c1.1,1,2.5,1.5,3.9,1.8c2.5,0.7,5.1,0.8,7.8,0.7c1.8-0.1,3.6-0.4,5.4-0.9c1.1-0.3,2.1-0.8,3-1.5
		c0,0,0,0,0.1,0c0,0.1,0,0.2,0,0.3c0,0.8,0,1.7,0,2.5c0,0.6-0.2,1.1-0.7,1.5c-0.6,0.5-1.3,0.9-2.1,1.2c-1.6,0.6-3.2,0.9-4.9,1
		c-1.7,0.2-3.5,0.1-5.2-0.1c-1.8-0.2-3.5-0.5-5.2-1.3c-0.5-0.2-0.9-0.5-1.3-0.8c-0.3-0.2-0.6-0.6-0.7-1C3,10.4,3,9.3,3,8.2z"/>
	<path class="st0" d="M3,18.4c1.5,1.2,3.2,1.7,5,2.1c2,0.4,4.1,0.5,6.2,0.4c1.2-0.1,2.3-0.2,3.5-0.4c0,0,0.1,0,0.2,0
		c-0.7,1.3-0.9,2.7-0.6,4.2c-0.5,0.1-1,0.1-1.6,0.2c-1.7,0.2-3.5,0.2-5.2,0c-2-0.2-3.9-0.6-5.7-1.5c-0.5-0.2-1-0.5-1.3-1
		C3.2,22.2,3.1,22,3,21.8C3,20.7,3,19.5,3,18.4z"/>
	<path class="st0" d="M23.5,18c-3,0-5.5,2.5-5.5,5.5s2.5,5.5,5.5,5.5s5.5-2.5,5.5-5.5S26.5,18,23.5,18z M21.1,21.6
		c0.3,0,0.6,0.3,0.6,0.6c0,0,0,0,0,0.1l0.6,0.3c0.1-0.1,0.2-0.2,0.4-0.2c0.1,0,0.2,0,0.2,0.1l0.7-0.7c0-0.1-0.1-0.2-0.1-0.2
		c0-0.3,0.3-0.6,0.6-0.6c0.1,0,0.2,0,0.3,0.1l0.7-0.5c0-0.1,0-0.1,0-0.2c0-0.3,0.3-0.6,0.6-0.6c0.3,0,0.6,0.3,0.6,0.6
		c0,0.3-0.3,0.6-0.6,0.6c-0.1,0-0.2,0-0.3-0.1l-0.7,0.5c0,0.1,0,0.1,0,0.2c0,0.3-0.3,0.6-0.6,0.6c-0.1,0-0.2,0-0.2-0.1l-0.7,0.7
		c0,0.1,0.1,0.2,0.1,0.2c0,0.3-0.3,0.6-0.6,0.6c-0.3,0-0.6-0.3-0.6-0.6c0,0,0,0,0-0.1l-0.6-0.3c-0.1,0.1-0.2,0.2-0.4,0.2
		c-0.3,0-0.6-0.3-0.6-0.6C20.5,21.8,20.8,21.6,21.1,21.6z M26.3,26.1h-6c-0.1,0-0.2-0.1-0.2-0.2c0-0.1,0.1-0.2,0.2-0.2h0.2v-2.1
		c0-0.1,0.1-0.2,0.2-0.2h0.7c0.1,0,0.2,0.1,0.2,0.2v2.1H22v-1.3c0-0.1,0.1-0.2,0.2-0.2h0.7c0.1,0,0.2,0.1,0.2,0.2v1.3h0.4v-2.8
		c0-0.1,0.1-0.2,0.2-0.2h0.7c0.1,0,0.2,0.1,0.2,0.2v2.8H25v-3.9c0-0.1,0.1-0.2,0.2-0.2h0.7c0.1,0,0.2,0.1,0.2,0.2v3.9h0.2
		c0.1,0,0.2,0.1,0.2,0.2C26.5,26,26.4,26.1,26.3,26.1z"/>
</g>
</svg>
