<svg xmlns="http://www.w3.org/2000/svg" width="40" height="40" viewBox="0 0 40 40">
  <g id="Group_7819" data-name="Group 7819" transform="translate(-669 -166)">
    <circle id="Ellipse_28" data-name="Ellipse 28" cx="20" cy="20" r="20" transform="translate(669 166)" fill="#fff" opacity="0.1"/>
    <g id="Group_7496" data-name="Group 7496" transform="translate(679 174)">
      <path id="Path_425" data-name="Path 425" d="M-167.584-44.437h-7.51l.993-2.3a1.864,1.864,0,0,0,1.563-1.384,1.723,1.723,0,0,0-.867-2.244,1.723,1.723,0,0,0-2,1.338,1.966,1.966,0,0,0,.275,1.828l-1.193,2.758h-10.8a.376.376,0,0,0-.36.271.376.376,0,0,0,.158.422c.019.012,1.893,1.228,1.893,2.689v15.03a.376.376,0,0,0,.376.376h15.03a.376.376,0,0,0,.376-.376v-15.03a2.959,2.959,0,0,1,2.158-2.642.376.376,0,0,0,.282-.41A.376.376,0,0,0-167.584-44.437Zm-18.469.752h9.405l-3.331,7.7h-4.7v-5.073A3.841,3.841,0,0,0-186.053-43.685Zm15.651,2.63v.376h-1.879v1.127h1.879v1.5h-1.879v1.127h1.879v.939h-8.348l3.331-7.7h6.327A3.663,3.663,0,0,0-170.4-41.055Z" transform="translate(187.499 50.418)" fill="#fff"/>
      <rect id="Rectangle_2624" data-name="Rectangle 2624" width="1.127" height="1.503" transform="translate(4.133 11.806)" fill="#fff"/>
    </g>
  </g>
</svg>
