<svg id="Group_7403" data-name="Group 7403" xmlns="http://www.w3.org/2000/svg" width="40" height="40" viewBox="0 0 40 40">
  <circle id="Ellipse_28" data-name="Ellipse 28" cx="20" cy="20" r="20" fill="#fff" opacity="0.1"/>
  <g id="calendar_1_" data-name="calendar (1)" transform="translate(11.066 11.06)">
    <g id="Group_7490" data-name="Group 7490">
      <path id="Path_901" data-name="Path 901" d="M119.34,258.661a.42.42,0,0,0-.42-.419h-1.465a.42.42,0,0,0-.42.419v1.465a.42.42,0,0,0,.42.42h1.465a.42.42,0,0,0,.42-.42v-1.465Z" transform="translate(-112.805 -248.457)" fill="#ffd817"/>
      <path id="Path_902" data-name="Path 902" d="M215.974,258.661a.419.419,0,0,0-.419-.419H214.09a.42.42,0,0,0-.42.419v1.465a.42.42,0,0,0,.42.42h1.465a.42.42,0,0,0,.419-.42Z" transform="translate(-205.779 -248.457)" fill="#ffd817"/>
      <path id="Path_903" data-name="Path 903" d="M312.6,258.661a.42.42,0,0,0-.42-.419h-1.465a.42.42,0,0,0-.42.419v1.465a.42.42,0,0,0,.42.42h1.465a.42.42,0,0,0,.42-.42Z" transform="translate(-298.745 -248.457)" fill="#ffd817"/>
      <path id="Path_904" data-name="Path 904" d="M119.34,355.295a.42.42,0,0,0-.42-.42h-1.465a.42.42,0,0,0-.42.42v1.465a.42.42,0,0,0,.42.42h1.465a.42.42,0,0,0,.42-.42v-1.465Z" transform="translate(-112.805 -341.428)" fill="#ffd817"/>
      <path id="Path_905" data-name="Path 905" d="M215.974,355.295a.419.419,0,0,0-.419-.42H214.09a.419.419,0,0,0-.42.42v1.465a.42.42,0,0,0,.42.42h1.465a.42.42,0,0,0,.419-.42Z" transform="translate(-205.779 -341.428)" fill="#ffd817"/>
      <path id="Path_906" data-name="Path 906" d="M312.6,355.295a.42.42,0,0,0-.419-.42h-1.465a.42.42,0,0,0-.42.42v1.465a.42.42,0,0,0,.42.42h1.465a.42.42,0,0,0,.419-.42v-1.465Z" transform="translate(-298.745 -341.428)" fill="#ffd817"/>
      <path id="Path_907" data-name="Path 907" d="M21.888,54.15v2.238a1.828,1.828,0,0,1-1.832,1.826H18.9a1.837,1.837,0,0,1-1.843-1.826V54.142H11.851v2.246a1.837,1.837,0,0,1-1.842,1.826H8.853a1.827,1.827,0,0,1-1.832-1.826V54.15a1.666,1.666,0,0,0-1.61,1.657V68.92a1.666,1.666,0,0,0,1.658,1.668H21.84A1.668,1.668,0,0,0,23.5,68.92V55.807A1.666,1.666,0,0,0,21.888,54.15ZM21.352,68.1a.717.717,0,0,1-.717.717H8.243a.717.717,0,0,1-.717-.717V61.33a.717.717,0,0,1,.717-.717H20.635a.717.717,0,0,1,.717.717V68.1Z" transform="translate(-5.411 -52.09)" fill="#ffd817"/>
      <path id="Path_908" data-name="Path 908" d="M80.178,4.924h1.143a.628.628,0,0,0,.628-.628V.628A.628.628,0,0,0,81.321,0H80.178a.628.628,0,0,0-.628.628V4.3A.628.628,0,0,0,80.178,4.924Z" transform="translate(-76.741)" fill="#ffd817"/>
      <path id="Path_909" data-name="Path 909" d="M345.086,4.924h1.143a.628.628,0,0,0,.628-.628V.628A.628.628,0,0,0,346.229,0h-1.143a.628.628,0,0,0-.628.628V4.3A.628.628,0,0,0,345.086,4.924Z" transform="translate(-331.611)" fill="#ffd817"/>
    </g>
  </g>
</svg>
