<svg id="delete" xmlns="http://www.w3.org/2000/svg" width="18" height="23.138" viewBox="0 0 18 23.138">
  <path id="Path_387" data-name="Path 387" d="M126.994,1.53h4.235v.713h1.529V1.43A1.431,1.431,0,0,0,131.33,0h-4.436a1.431,1.431,0,0,0-1.429,1.43v.812h1.53Zm0,0" transform="translate(-120.112 0)" fill="#eb1717"/>
  <path id="Path_388" data-name="Path 388" d="M53.882,167.75H41.091a.647.647,0,0,0-.6.728l1.069,14.843a1.5,1.5,0,0,0,1.415,1.467H52a1.5,1.5,0,0,0,1.415-1.467l1.069-14.843a.647.647,0,0,0-.6-.728ZM44.188,183.2l-.043,0a.72.72,0,0,1-.679-.718L42.8,170.3a.739.739,0,0,1,.638-.81.715.715,0,0,1,.722.716l.67,12.185a.739.739,0,0,1-.638.81Zm3.987-.763a.686.686,0,1,1-1.363,0V170.256a.686.686,0,1,1,1.363,0Zm4-12.14-.64,12.185a.721.721,0,0,1-.679.72h-.041a.739.739,0,0,1-.64-.809l.64-12.185a.714.714,0,0,1,.72-.718.739.739,0,0,1,.64.809Zm0,0" transform="translate(-38.487 -161.65)" fill="#eb1717"/>
  <path id="Path_389" data-name="Path 389" d="M17.97,78.382l-.459-1.506a.9.9,0,0,0-.842-.665H1.331a.9.9,0,0,0-.842.665L.03,78.382a.66.66,0,0,0,.241.734.535.535,0,0,0,.305.1H17.424a.533.533,0,0,0,.305-.1.66.66,0,0,0,.241-.734Zm0,0" transform="translate(0 -72.44)" fill="#eb1717"/>
</svg>
