<svg id="delivery-note_1_" data-name="delivery-note (1)" xmlns="http://www.w3.org/2000/svg" width="24.402" height="25.162" viewBox="0 0 24.402 25.162">
  <path id="Path_5085" data-name="Path 5085" d="M375.048,311.882h2.576v9.835h-2.576Z" transform="translate(-356.996 -296.555)" fill="#c6cdd8"/>
  <path id="Path_5086" data-name="Path 5086" d="M292.634,311.882h2.576v9.835h-2.576Z" transform="translate(-278.632 -296.555)" fill="#c6cdd8"/>
  <path id="Path_5087" data-name="Path 5087" d="M84.537,250.071h8.752v1.563H84.537Z" transform="translate(-80.762 -237.781)" fill="#c6cdd8"/>
  <path id="Path_5088" data-name="Path 5088" d="M292.634,250.071h2.576v1.563h-2.576Z" transform="translate(-278.632 -237.781)" fill="#c6cdd8"/>
  <path id="Path_5089" data-name="Path 5089" d="M84.537,311.882h8.752v9.835H84.537Z" transform="translate(-80.762 -296.555)" fill="#c6cdd8"/>
  <path id="Path_5090" data-name="Path 5090" d="M375.048,250.071h2.576v1.563h-2.576Z" transform="translate(-356.996 -237.781)" fill="#c6cdd8"/>
  <path id="Path_5091" data-name="Path 5091" d="M309.235,76.811h5.81V79.8h-5.81Z" transform="translate(-294.418 -73.036)" fill="#c6cdd8"/>
  <path id="Path_5092" data-name="Path 5092" d="M7.726,0V25.162h2.3V10.815h19.8V25.162h2.3V0ZM10,2.3h4.354V3.775H10Zm5.367,4.512H10V5.338h5.366V6.812Zm3.015,0H16.912V5.338h1.474ZM29.828,8.239H21.069V2.3h8.759Z" transform="translate(-7.726)" fill="#c6cdd8"/>
</svg>
