<?xml version="1.0" encoding="utf-8"?>
<!-- Generator: Adobe Illustrator 25.0.1, SVG Export Plug-In . SVG Version: 6.00 Build 0)  -->
<svg version="1.1" id="Layer_1" xmlns="http://www.w3.org/2000/svg" xmlns:xlink="http://www.w3.org/1999/xlink" x="0px" y="0px"
	 viewBox="0 0 30 30" style="enable-background:new 0 0 30 30;" xml:space="preserve">
<style type="text/css">
	.st0{fill:#FFFFFF;}
</style>
<g>
	<path class="st0" d="M18.84,1.99c0,1.43,0,2.79,0,4.15c0,1.3,0.32,1.61,1.64,1.61c1.34,0,2.67,0,4.1,0c0,0.32,0,0.57,0,0.82
		c0,5.93,0,11.86,0,17.8c0,1.32-0.31,1.63-1.61,1.63c-5.56,0-11.11,0-16.67,0c-1.26,0-1.58-0.32-1.58-1.59c0-7.6,0-15.21,0-22.81
		c0-1.31,0.31-1.61,1.63-1.61c3.88,0,7.77,0,11.65,0C18.26,1.99,18.51,1.99,18.84,1.99z M14.67,10.05c-1.72,0-3.44,0.02-5.15-0.01
		C8.9,10.03,8.7,10.2,8.7,10.83c0.03,2.89,0.03,5.79,0,8.68c0,0.57,0.14,0.79,0.75,0.78c3.46-0.02,6.92-0.02,10.38,0
		c0.57,0,0.78-0.15,0.77-0.76c-0.03-2.92-0.03-5.84,0-8.75c0.01-0.62-0.22-0.75-0.78-0.74C18.1,10.07,16.38,10.05,14.67,10.05z
		 M14.66,24.91c-2.02,0-4.04,0-6.07,0c-0.16,0-0.34-0.03-0.49,0.02c-0.11,0.04-0.28,0.2-0.26,0.26C7.87,25.31,8,25.46,8.12,25.5
		c0.17,0.06,0.37,0.02,0.56,0.02c3.97,0,7.95,0,11.92,0c0.19,0,0.39,0.03,0.56-0.02c0.13-0.04,0.22-0.19,0.32-0.3
		c-0.11-0.1-0.21-0.24-0.34-0.29c-0.15-0.05-0.33-0.02-0.49-0.02C18.66,24.9,16.66,24.91,14.66,24.91z M14.73,22.46
		c-2.09,0-4.18-0.01-6.28,0.01c-0.21,0-0.42,0.17-0.63,0.26c0.19,0.11,0.39,0.31,0.58,0.31c4.16,0.02,8.32,0.02,12.48,0
		c0.2,0,0.39-0.2,0.59-0.3c-0.21-0.09-0.41-0.27-0.62-0.27C18.82,22.45,16.77,22.46,14.73,22.46z"/>
	<path class="st0" d="M24.07,7.11c-1.26,0-2.62,0-3.98,0c-0.44,0-0.64-0.22-0.63-0.65c0.01-1.36,0-2.72,0-3.95
		C20.97,4.02,22.52,5.57,24.07,7.11z"/>
	<path class="st0" d="M9.37,10.7c1.3,0,2.53,0,3.85,0c0,0.81-0.01,1.58,0.01,2.35c0.01,0.18,0.13,0.36,0.19,0.55
		c0.17-0.06,0.35-0.1,0.5-0.2c0.25-0.17,0.47-0.38,0.73-0.59c0.25,0.21,0.45,0.4,0.68,0.55c0.16,0.11,0.37,0.16,0.55,0.24
		c0.06-0.19,0.18-0.37,0.18-0.56c0.02-0.75,0.01-1.5,0.01-2.32c1.29,0,2.55,0,3.85,0c0,2.96,0,5.91,0,8.91c-3.52,0-7.02,0-10.57,0
		C9.37,16.68,9.37,13.73,9.37,10.7z"/>
	<path class="st0" d="M13.84,12.78c0-0.87,0-1.44,0-2.07c0.53,0,1.03,0,1.59,0c0,0.6,0,1.19,0,1.87
		C14.93,12.14,14.41,11.86,13.84,12.78z"/>
</g>
</svg>
