<svg id="income_1_" data-name="income (1)" xmlns="http://www.w3.org/2000/svg" width="24.023" height="24.361" viewBox="0 0 24.023 24.361">
  <path id="Path_5078" data-name="Path 5078" d="M184.775,12.053a6.026,6.026,0,1,0-6.026-6.026A6.033,6.033,0,0,0,184.775,12.053Zm-.714-9.569V2.32a.714.714,0,1,1,1.427,0v.165a1.887,1.887,0,0,1,1.488,1.842.714.714,0,0,1-1.427,0,.457.457,0,0,0-.457-.457h-.64a.457.457,0,0,0-.272.824l.594.44L186.218,6.2a1.892,1.892,0,0,1,.763,1.5v.007a1.885,1.885,0,0,1-1.492,1.856v.167a.714.714,0,1,1-1.427,0V9.568a1.884,1.884,0,0,1-1.487-1.83.714.714,0,0,1,.709-.718h0a.714.714,0,0,1,.714.709.456.456,0,0,0,.459.454l.639,0a.456.456,0,0,0,.454-.46V7.712a.459.459,0,0,0-.185-.364l-.593-.439-1.443-1.068a1.884,1.884,0,0,1,.729-3.357Z" transform="translate(-170.413)" fill="#c6cdd8"/>
  <path id="Path_5079" data-name="Path 5079" d="M8.146,318.734a.665.665,0,0,0-.908-.243l-3.357,1.938a.666.666,0,0,0-.243.909l3.431,5.943a.665.665,0,0,0,.908.243l3.357-1.938a.665.665,0,0,0,.243-.908Z" transform="translate(-3.548 -303.252)" fill="#c6cdd8"/>
  <path id="Path_5080" data-name="Path 5080" d="M153.787,273.307a1,1,0,0,0-1.4-.227l-4.178,3.011a2.534,2.534,0,0,1-.3.22,2.589,2.589,0,0,1-1.384.4h-3.419a.714.714,0,0,1,0-1.427h3.656a.946.946,0,0,0,.945-.985.961.961,0,0,0-.968-.906h-2.783a4.63,4.63,0,0,0-.616-.545,4.565,4.565,0,0,0-2.719-.893,5.036,5.036,0,0,0-4.356,2.662l2.919,5.056h5.476a6.147,6.147,0,0,0,3.067-.811,12.275,12.275,0,0,0,1.044-.678c1.571-1.129,4.783-3.473,4.786-3.475A1,1,0,0,0,153.787,273.307Z" transform="translate(-129.953 -259.011)" fill="#c6cdd8"/>
</svg>
