<svg xmlns="http://www.w3.org/2000/svg" width="34.195" height="30.413" viewBox="0 0 34.195 30.413">
  <g id="inreview" transform="translate(0 0)">
    <path id="Path_5224" data-name="Path 5224" d="M542.846,271.069l3.655,2.352c.066.043.16.072.193.132.078.145.2.323.169.454a.514.514,0,0,1-.36.309.716.716,0,0,0-.578.393A7.488,7.488,0,0,1,544,276.966a6.648,6.648,0,0,1-2.241,1.1c-.561.152-1.123.3-1.685.453-.514.14-.653.433-.559.953a11.729,11.729,0,0,1,.342,3.365,7.083,7.083,0,0,1-1.333,3.369.752.752,0,0,0-.146.794.45.45,0,0,1-.129.407.808.808,0,0,1-.459.069c-.067,0-.135-.075-.2-.117l-7.385-4.753c-.058-.037-.144-.063-.167-.116-.066-.151-.173-.33-.14-.467a.487.487,0,0,1,.352-.283.7.7,0,0,0,.579-.39,7.127,7.127,0,0,1,2.694-2.754,10.462,10.462,0,0,1,2.477-.862c.3-.08.61-.151.91-.24a.575.575,0,0,0,.342-.642c-.1-.622-.21-1.244-.309-1.867a6.5,6.5,0,0,1,.932-4.588c.115-.184.226-.371.353-.546a.75.75,0,0,0,.146-.794.461.461,0,0,1,.13-.408.7.7,0,0,1,.432-.078c.077,0,.153.082.228.13Zm-5.531,15.009c.028-.024.055-.047.082-.072a3.18,3.18,0,0,0-.394-.48c-.491-.411-1-.8-1.5-1.2-.431-.337-.48-.576-.188-1.03q1.366-2.128,2.735-4.253a4.749,4.749,0,0,1,3.269-2.225q.408-.072.81-.169a2.336,2.336,0,0,0,1.429-.979.832.832,0,0,0-.23-1.236q-1.859-1.209-3.73-2.4a.83.83,0,0,0-1.22.3,2.332,2.332,0,0,0-.3,1.734c.073.357.166.71.237,1.068a4.434,4.434,0,0,1-.55,3.3c-.953,1.542-1.953,3.054-2.934,4.578a.619.619,0,0,1-.969.253c-.577-.3-1.152-.6-1.738-.885a2.98,2.98,0,0,0-.6-.15l-.03.094Z" transform="translate(-521.284 -263.098)" fill="#c6cdd8"/>
    <g id="Group_7969" data-name="Group 7969" transform="translate(0 0)">
      <path id="Path_5225" data-name="Path 5225" d="M643.948,223.139c-.048-.039-.088-.068-.125-.1l-2.6-2.625-1.284,4.738c-.634,2.192-1.273,4.4-1.922,6.64l11.479-2.827c-.9-.934-1.726-1.809-2.573-2.665a.54.54,0,0,1-.131-.719,15.1,15.1,0,0,0,.142-12.679,15.293,15.293,0,0,0-12.236-9.332,1.788,1.788,0,1,0-.56,3.529c.537.1,1.079.182,1.605.321a12.1,12.1,0,0,1,8.845,12.99C644.562,220.659,644.09,222.692,643.948,223.139Z" transform="translate(-615.303 -203.547)" fill="#c6cdd8"/>
      <path id="Path_5226" data-name="Path 5226" d="M433.237,238.977c.049.038.09.066.126.093l2.651,2.572,1.188-4.764,1.786-6.678-11.419,3.06c.917.915,1.762,1.774,2.627,2.612a.539.539,0,0,1,.146.715,15.1,15.1,0,0,0,.116,12.679,15.292,15.292,0,0,0,12.423,9.081,1.788,1.788,0,1,0,.489-3.54c-.539-.087-1.082-.16-1.611-.289a12.1,12.1,0,0,1-9.108-12.808C432.674,241.469,433.105,239.427,433.237,238.977Z" transform="translate(-427.57 -227.957)" fill="#c6cdd8"/>
    </g>
  </g>
</svg>
