<svg id="instrument" xmlns="http://www.w3.org/2000/svg" width="19.852" height="34.147" viewBox="0 0 19.852 34.147">
  <path id="Path_5261" data-name="Path 5261" d="M567.588,484.907c.46.083.709-.121.935-.524.886-1.579,1.813-3.136,2.723-4.7a1.808,1.808,0,0,1,1.983-.85,1.766,1.766,0,0,1,1.333,1.675c-.015.941.065,1.883.109,2.825.023.51.056,1.019.087,1.584h12.295v3.48H567.2V484.9A2.474,2.474,0,0,1,567.588,484.907Zm5.185-3.552a.879.879,0,1,0-.869-.873A.885.885,0,0,0,572.774,481.355Z" transform="translate(-567.2 -456.048)" fill="#00188f"/>
  <path id="Path_5262" data-name="Path 5262" d="M624.564,214.486c.091.322.147.589.245.84.037.093.171.147.257.223.057.05.14.1.158.16.305,1.054.6,2.111.914,3.212l-2.008.588.549,1.931.8-.2c-.01.035-.021.069-.032.1.174.086.346.241.522.245a3.1,3.1,0,0,1,3.019,2.279,3.07,3.07,0,0,1-1.448,3.452l-.225.135.6,2.178-.444.2.728,2.572,1.527-.434c.087.3.17.582.262.9l.594-.12.267.8,1.773-.5c-.067-.283-.127-.539-.192-.817l.553-.212c-.071-.3-.139-.58-.217-.906l1.5-.448c-.245-.869-.483-1.711-.725-2.567l-.483.09-2.393-8.426.844-.262c-.182-.644-.358-1.269-.547-1.936l-2.02.558c-.311-1.1-.614-2.166-.915-3.233-.011-.039-.028-.1-.01-.12.483-.44-.1-.8-.024-1.261Z" transform="translate(-619.251 -213.51)" fill="#00188f"/>
  <path id="Path_5263" data-name="Path 5263" d="M572.566,331.263c-.093-.087-.209-.188-.317-.3a8.054,8.054,0,0,1,1.446-12.542.69.69,0,0,0,.4-.546,2.334,2.334,0,0,1,1.943-2.01,2.379,2.379,0,0,1,2.115,3.992,2.337,2.337,0,0,1-2.754.485.565.565,0,0,0-.654.05,5.84,5.84,0,0,0-1.2,8.69c.12.139.241.276.284.325Zm2.926-13.094a1.008,1.008,0,1,0,.988-1.025A1.02,1.02,0,0,0,575.492,318.168Z" transform="translate(-569.656 -307.066)" fill="#00188f"/>
  <path id="Path_5264" data-name="Path 5264" d="M662.937,452.789l.2.766c-.422.529-1.036.334-1.576.426v2.19c1.707.087,3.2-.581,4.8-.9-.081-.252-.143-.451-.22-.693l6.59-1.876c-.231-.824-.457-1.627-.7-2.489Z" transform="translate(-653.474 -429.926)" fill="#00188f"/>
  <path id="Path_5265" data-name="Path 5265" d="M744.131,598.793V597.56H740.2v1.233Z" transform="translate(-725.375 -564.649)" fill="#00188f"/>
  <path id="Path_5266" data-name="Path 5266" d="M580.07,597.54v1.237H584V597.54Z" transform="translate(-578.967 -564.63)" fill="#00188f"/>
</svg>
