<svg id="receipt" xmlns="http://www.w3.org/2000/svg" width="14.502" height="15.249" viewBox="0 0 14.502 15.249">
  <path id="Path_5102" data-name="Path 5102" d="M27,128.073v-.947l-1.381-1.736L27,124.444v-.794l-1.385-1.108L27,120.959V120H12.5v8.073Zm-6.877-6.279h3.14v.9h-3.14Zm0,1.794h3.14v.9h-3.14Zm-3.887,2.683v.906h-.9v-.9h-.9v-.9h1.645a.449.449,0,1,0,0-.9H15.64a1.345,1.345,0,0,1-.3-2.657V120.9h.9v.9h.748v.9H15.64a.449.449,0,1,0,0,.9h.449a1.345,1.345,0,0,1,.15,2.683Zm2.99.008h-.9v-.9h.9Zm0-1.794h-.9v-.9h.9Zm0-1.794h-.9v-.9h.9Zm.9,2.691h3.14v.9h-3.14Z" transform="translate(-12.5 -116.412)" fill="#fff"/>
  <path id="Path_5103" data-name="Path 5103" d="M21.47,1.591A1.593,1.593,0,0,0,19.879,0h-.216L19.61.085,18.585,1.794h-3.2L14.351.068,14.313,0h-.222A1.593,1.593,0,0,0,12.5,1.591v1.1h8.97Z" transform="translate(-12.5 0)" fill="#fff"/>
  <path id="Path_5104" data-name="Path 5104" d="M110.714.9l.538-.9h-3.26l.538.9Z" transform="translate(-105.138 0)" fill="#fff"/>
  <path id="Path_5105" data-name="Path 5105" d="M12.5,420v1.1a1.593,1.593,0,0,0,1.591,1.591h5.788A1.593,1.593,0,0,0,21.47,421.1V420Zm5.382,1.794H16.088v-.9h1.794Z" transform="translate(-12.5 -407.442)" fill="#fff"/>
</svg>
