<svg xmlns="http://www.w3.org/2000/svg" width="36" height="36" viewBox="0 0 36 36">
  <g id="Group_8223" data-name="Group 8223" transform="translate(-210 -150)">
    <g id="Group_7642" data-name="Group 7642" transform="translate(210 150)">
      <circle id="Ellipse_786" data-name="Ellipse 786" cx="18" cy="18" r="18" fill="#dbe8fc"/>
    </g>
    <g id="Group_7723" data-name="Group 7723" transform="translate(-6410 16634)">
      <g id="invoice" transform="translate(6632 -16474)">
        <g id="Group_7720" data-name="Group 7720" transform="translate(8.469)">
          <g id="Group_7719" data-name="Group 7719">
            <path id="Path_5010" data-name="Path 5010" d="M320,0V4.234h4.234Z" transform="translate(-320)" fill="#4286f4"/>
          </g>
        </g>
        <g id="Group_7722" data-name="Group 7722">
          <g id="Group_7721" data-name="Group 7721">
            <path id="Path_5011" data-name="Path 5011" d="M72.469,5.293A1.06,1.06,0,0,1,71.41,4.234V0H65.059A1.06,1.06,0,0,0,64,1.059v14.82a1.06,1.06,0,0,0,1.059,1.059H75.645A1.059,1.059,0,0,0,76.7,15.879V5.293ZM67.705,3.241V2.646a.529.529,0,0,1,1.059,0v.6a2.176,2.176,0,0,1,.9.422.529.529,0,0,1-.668.82,1.2,1.2,0,0,0-.757-.251c-.574,0-1.059.363-1.059.794s.485.794,1.059.794a2,2,0,0,1,2.117,1.853,1.916,1.916,0,0,1-1.588,1.787v.595a.529.529,0,0,1-1.059,0v-.6a2.176,2.176,0,0,1-.9-.422.529.529,0,0,1,.668-.821,1.2,1.2,0,0,0,.757.252c.574,0,1.059-.363,1.059-.794s-.485-.794-1.059-.794a2,2,0,0,1-2.117-1.853A1.916,1.916,0,0,1,67.705,3.241ZM74.057,14.82h-7.41a.529.529,0,1,1,0-1.059h7.41a.529.529,0,1,1,0,1.059Zm0-2.117h-7.41a.529.529,0,1,1,0-1.059h7.41a.529.529,0,1,1,0,1.059Zm0-2.117H71.939a.529.529,0,0,1,0-1.059h2.117a.529.529,0,1,1,0,1.059Zm0-2.117H71.939a.529.529,0,0,1,0-1.059h2.117a.529.529,0,0,1,0,1.059Z" transform="translate(-64)" fill="#4286f4"/>
          </g>
        </g>
      </g>
    </g>
  </g>
</svg>
