<svg xmlns="http://www.w3.org/2000/svg" width="36" height="36" viewBox="0 0 36 36">
  <g id="Group_8221" data-name="Group 8221" transform="translate(-230 -426)">
    <g id="Group_7748" data-name="Group 7748" transform="translate(230 426)">
      <circle id="Ellipse_786" data-name="Ellipse 786" cx="18" cy="18" r="18" fill="#dbe8fc"/>
    </g>
    <g id="lifeline-hand-drawn-status-line" transform="translate(237 439)">
      <g id="Group_7732" data-name="Group 7732">
        <path id="Path_5033" data-name="Path 5033" d="M21.093,143.773c0-.091-.008-.181-.018-.238a.64.64,0,0,0-.06-.183,1.784,1.784,0,0,0-1.635-1.026,2.2,2.2,0,0,0-.838.172.8.8,0,0,0-.183.1c-.034.026-.077.062-.123.1s-.126.107-.182.148a1.727,1.727,0,0,0-.53.587h-.009c-.436-.033-.952-.07-1.469-.086a.354.354,0,0,1-.247-.138,8.749,8.749,0,0,1-.666-1.253.489.489,0,0,0-.3-.266.781.781,0,0,0-.272-.038.381.381,0,0,0-.047,0H12.154a.607.607,0,0,0-.237.046.774.774,0,0,0-.264.209.6.6,0,0,0-.062.089c-.208.363-.436.747-.7,1.175l-.009.014-.009-.014a36.365,36.365,0,0,1-1.576-3.5.612.612,0,0,0-.584-.4.593.593,0,0,0-.565.349,1.213,1.213,0,0,0-.054.243,1.18,1.18,0,0,1-.038.183,38.781,38.781,0,0,0-1.589,5.973q-.38-.628-.763-1.256c-.522-.857-1.061-1.742-1.577-2.622a.548.548,0,0,0-.484-.288.65.65,0,0,0-.43.169.756.756,0,0,0-.217.3c-.124.3-.251.59-.378.884l-.107.248a.249.249,0,0,1-.2.133H.579a.6.6,0,0,0,0,1.191h2.2l.05,0a.6.6,0,0,0,.22-.039.682.682,0,0,0,.365-.385q.133-.317.27-.633.483.8.972,1.605c.483.794.983,1.615,1.463,2.429.016.028.033.062.052.1a.915.915,0,0,0,.2.3.578.578,0,0,0,.361.118.648.648,0,0,0,.656-.556A35.735,35.735,0,0,1,8.8,141.57c.426.971.912,1.969,1.484,3.048a.59.59,0,0,0,.139.177.8.8,0,0,0,.448.155.569.569,0,0,0,.489-.276c.334-.523.673-1.078,1.034-1.7a.312.312,0,0,1,.232-.134h1.458a.274.274,0,0,1,.213.135,9.735,9.735,0,0,0,.719,1.217.784.784,0,0,0,.064.078.743.743,0,0,0,.232.2.586.586,0,0,0,.262.059c.592,0,1.19.042,1.7.079a.234.234,0,0,1,.18.151,2.987,2.987,0,0,0,.312.636.631.631,0,0,0,.127.146.744.744,0,0,0,.16.1l.009.008a2.011,2.011,0,0,0,2.027.255.636.636,0,0,0,.063-.03l.041-.018a1.244,1.244,0,0,0,.124-.06.617.617,0,0,0,.115-.086,2.15,2.15,0,0,0,.667-1.789C21.1,143.876,21.1,143.824,21.093,143.773Zm-2.476.712a.647.647,0,0,1-.064-.453c.069-.255.51-.4.758-.489a.2.2,0,0,0,.034-.014.369.369,0,0,1,.077-.006.505.505,0,0,1,.111.012.556.556,0,0,1,.282.163.4.4,0,0,1,.1.185.712.712,0,0,0,.009.1.915.915,0,0,1-.153.676.555.555,0,0,1-.279.185.844.844,0,0,1-.633-.1A.709.709,0,0,1,18.617,144.485Z" transform="translate(0 -139.27)" fill="#4286f4"/>
      </g>
    </g>
  </g>
</svg>
