<svg id="Group_7756" data-name="Group 7756" xmlns="http://www.w3.org/2000/svg" width="10.128" height="13.306" viewBox="0 0 10.128 13.306">
  <path id="Path_5101" data-name="Path 5101" d="M60.324.342a.557.557,0,0,0-.606.092l-.873.773a.062.062,0,0,1-.083,0L57.574.144a.566.566,0,0,0-.755,0L55.632,1.206a.063.063,0,0,1-.084,0L54.362.144a.566.566,0,0,0-.755,0L52.419,1.207a.063.063,0,0,1-.084,0L51.461.434a.562.562,0,0,0-.935.424v11.59a.563.563,0,0,0,.937.424l.873-.773a.062.062,0,0,1,.083,0l1.188,1.062a.566.566,0,0,0,.755,0L55.549,12.1a.063.063,0,0,1,.084,0l1.187,1.061a.566.566,0,0,0,.755,0L58.762,12.1a.063.063,0,0,1,.084,0l.874.773a.562.562,0,0,0,.935-.424V.858A.557.557,0,0,0,60.324.342ZM52.609,4.514h3.132a.252.252,0,1,1,0,.5H52.609a.252.252,0,1,1,0-.5Zm5.963,4.278H52.609a.252.252,0,1,1,0-.5h5.963a.252.252,0,1,1,0,.5Zm0-1.887H52.609a.252.252,0,1,1,0-.5h5.963a.252.252,0,1,1,0,.5Z" transform="translate(-50.526)" fill="#fff"/>
</svg>
