<svg id="invoice" xmlns="http://www.w3.org/2000/svg" width="10.947" height="14.596" viewBox="0 0 10.947 14.596">
  <g id="Group_7720" data-name="Group 7720" transform="translate(7.298)">
    <g id="Group_7719" data-name="Group 7719">
      <path id="Path_5010" data-name="Path 5010" d="M320,0V3.649h3.649Z" transform="translate(-320)" fill="#fff"/>
    </g>
  </g>
  <g id="Group_7722" data-name="Group 7722">
    <g id="Group_7721" data-name="Group 7721">
      <path id="Path_5011" data-name="Path 5011" d="M71.3,4.561a.914.914,0,0,1-.912-.912V0H64.912A.914.914,0,0,0,64,.912V13.684a.913.913,0,0,0,.912.912h9.123a.913.913,0,0,0,.912-.912V4.561ZM67.193,2.793V2.281a.456.456,0,1,1,.912,0v.514a1.875,1.875,0,0,1,.772.364.456.456,0,0,1-.576.707,1.035,1.035,0,0,0-.652-.216c-.494,0-.912.313-.912.684s.418.684.912.684a1.724,1.724,0,0,1,1.825,1.6,1.652,1.652,0,0,1-1.368,1.54v.513a.456.456,0,1,1-.912,0V8.153a1.875,1.875,0,0,1-.772-.364A.456.456,0,0,1,67,7.081a1.031,1.031,0,0,0,.652.217c.494,0,.912-.313.912-.684s-.418-.684-.912-.684a1.724,1.724,0,0,1-1.825-1.6A1.652,1.652,0,0,1,67.193,2.793Zm5.474,9.978H66.281a.456.456,0,0,1,0-.912h6.386a.456.456,0,0,1,0,.912Zm0-1.825H66.281a.456.456,0,0,1,0-.912h6.386a.456.456,0,0,1,0,.912Zm0-1.825H70.842a.456.456,0,1,1,0-.912h1.825a.456.456,0,0,1,0,.912Zm0-1.825H70.842a.456.456,0,1,1,0-.912h1.825a.456.456,0,0,1,0,.912Z" transform="translate(-64)" fill="#fff"/>
    </g>
  </g>
</svg>
