<svg xmlns="http://www.w3.org/2000/svg" width="36" height="36" viewBox="0 0 36 36">
  <g id="Group_7528" data-name="Group 7528" transform="translate(-230 -881)">
    <circle id="Ellipse_789" data-name="Ellipse 789" cx="18" cy="18" r="18" transform="translate(230 881)" fill="#4286f4" opacity="0.2"/>
    <g id="line-chart" transform="translate(242.032 890.957)">
      <g id="Group_7436" data-name="Group 7436" transform="translate(0.001)">
        <path id="Path_437" data-name="Path 437" d="M15.3,14.787H1.354c.3-.7.682-1.746,1.181-3.146.421-1.182.885-2.483,1.217-3.229A1.487,1.487,0,0,0,5.2,8.405c.2.416.4.925.591,1.424a13.413,13.413,0,0,0,.829,1.884,1.528,1.528,0,0,0-.089.5A1.548,1.548,0,1,0,9.5,11.593a13.787,13.787,0,0,0,.887-4,17.253,17.253,0,0,1,.626-3.288,1.494,1.494,0,0,0,1.448-.049A14.682,14.682,0,0,1,13.519,7.77a1.543,1.543,0,1,0,1.016-.178,13.779,13.779,0,0,0-1.376-4.2,1.527,1.527,0,0,0,.082-.472,1.548,1.548,0,1,0-2.986.561,13.4,13.4,0,0,0-.89,3.977A17.1,17.1,0,0,1,8.72,10.8a1.5,1.5,0,0,0-1.383.058c-.2-.41-.392-.91-.58-1.4a13.485,13.485,0,0,0-.834-1.894,1.529,1.529,0,0,0,.1-.516,1.547,1.547,0,0,0-3.095,0,1.529,1.529,0,0,0,.095.514,34.43,34.43,0,0,0-1.455,3.731c-.174.488-.355,1-.531,1.476V.516A.516.516,0,1,0,0,.516V15.3c0,.011,0,.022,0,.033a.516.516,0,0,0,.006.065c0,.016.009.032.013.047s.009.033.015.048.015.03.023.045.015.03.024.044.021.027.031.04.02.026.031.038A.519.519,0,0,0,.2,15.7c.009.007.016.016.026.022h0a.514.514,0,0,0,.125.061l.031.01a.509.509,0,0,0,.134.02H15.3a.516.516,0,0,0,0-1.032Z" transform="translate(-0.001)" fill="#3883f1"/>
      </g>
    </g>
  </g>
</svg>
