<svg xmlns="http://www.w3.org/2000/svg" width="24" height="20.583" viewBox="0 0 24 20.583">
  <path id="Path_386" data-name="Path 386" d="M-524.342,868.495q4.589,0,9.178,0a2.723,2.723,0,0,1,2.036.8,2.645,2.645,0,0,1,.772,1.822c.011.3,0,.6,0,.9q0,5.65,0,11.3a2.664,2.664,0,0,1-1.166,2.313,2.308,2.308,0,0,1-1.306.447c-1.042.015-2.084.017-3.126.017q-4.126,0-8.253-.007a.492.492,0,0,0-.494.278c-.405.7-.833,1.387-1.252,2.08a1.191,1.191,0,0,1-1.038.634,1.147,1.147,0,0,1-1.041-.579c-.459-.717-.922-1.431-1.371-2.153a.424.424,0,0,0-.419-.231c-.617.013-1.234.008-1.851,0a2.65,2.65,0,0,1-2.605-2.075,2.885,2.885,0,0,1-.072-.645q-.006-6.088,0-12.176a2.648,2.648,0,0,1,2.083-2.651,3.505,3.505,0,0,1,.769-.072Q-528.919,868.49-524.342,868.495Zm-.017,7.217h1.1c.975,0,1.95,0,2.925,0a.8.8,0,0,0,.79-.7.808.808,0,0,0-.579-.883,1.243,1.243,0,0,0-.345-.038q-3.825,0-7.65,0c-.1,0-.2,0-.3,0a.821.821,0,0,0-.732.651.781.781,0,0,0,.412.861,1.16,1.16,0,0,0,.479.1C-526.958,875.715-525.658,875.711-524.358,875.711Zm.035,2.832h-.275c-1.258,0-2.517,0-3.775,0a.792.792,0,0,0-.783.7.813.813,0,0,0,.632.894,1.359,1.359,0,0,0,.3.021q3.875,0,7.75,0a1.491,1.491,0,0,0,.2,0,.791.791,0,0,0,.7-.563.771.771,0,0,0-.224-.844.832.832,0,0,0-.619-.215C-521.724,878.545-523.024,878.543-524.324,878.543Z" transform="translate(536.349 -868.493)" fill="#1890ff"/>
</svg>
