<svg id="bell" xmlns="http://www.w3.org/2000/svg" width="13.378" height="16.053" viewBox="0 0 13.378 16.053">
  <path id="Path_5106" data-name="Path 5106" d="M14.962,11.313a4.48,4.48,0,0,1-1.591-3.428V6.02A4.686,4.686,0,0,0,9.358,1.391V.669a.669.669,0,0,0-1.338,0v.722A4.685,4.685,0,0,0,4.007,6.02V7.885a4.485,4.485,0,0,1-1.6,3.433,1.17,1.17,0,0,0,.761,2.059H14.207a1.17,1.17,0,0,0,.755-2.065Z" transform="translate(-2 0)" fill="#fff"/>
  <path id="Path_5107" data-name="Path 5107" d="M10.783,23.007A2.512,2.512,0,0,0,13.241,21H8.326A2.512,2.512,0,0,0,10.783,23.007Z" transform="translate(-4.095 -6.954)" fill="#fff"/>
</svg>
