<svg id="Group_8039" data-name="Group 8039" xmlns="http://www.w3.org/2000/svg" width="27.968" height="27.917" viewBox="0 0 27.968 27.917">
  <g id="Group_8034" data-name="Group 8034" transform="translate(19.92 17.645)">
    <path id="Path_5231" data-name="Path 5231" d="M804.5,331.279q0-.663,0-1.326c0-.158.06-.217.218-.217h.614a.174.174,0,0,1,.2.194q0,1.352,0,2.7a.173.173,0,0,1-.2.194H804.7a.174.174,0,0,1-.2-.2Q804.5,331.953,804.5,331.279Z" transform="translate(-800.038 -328.191)" fill="#33a85a"/>
    <path id="Path_5232" data-name="Path 5232" d="M490.173,221.819c-.209.146-.42.292-.628.441a.092.092,0,0,0-.017.077.517.517,0,1,1-.223-.314l.062.043c.212-.148.425-.295.635-.445.014-.01.016-.049.011-.072a.515.515,0,1,1,1.015-.148.08.08,0,0,0,.066.088c.145.047.289.1.434.148a.075.075,0,0,0,.064-.012.519.519,0,0,1,.747-.08c.01-.006.022-.012.033-.019.2-.135.39-.271.587-.405.03-.02.046-.037.036-.079a.514.514,0,0,1,.927-.416.515.515,0,0,1-.744.692l-.025-.017-.664.46a.534.534,0,0,1-.009.375.513.513,0,0,1-.56.312.508.508,0,0,1-.43-.481c0-.061-.027-.079-.076-.095-.156-.052-.311-.107-.465-.16A.533.533,0,0,1,490.173,221.819Zm-.888.634a.263.263,0,0,0-.265-.255.256.256,0,0,0,.005.513A.252.252,0,0,0,489.285,222.453Zm3.948-1.545a.256.256,0,1,0,.255-.257A.258.258,0,0,0,493.233,220.908Zm-2.721.773a.256.256,0,1,0-.257-.256A.258.258,0,0,0,490.512,221.681ZM492,222.2a.257.257,0,1,0-.258-.253A.259.259,0,0,0,492,222.2Z" transform="translate(-488.508 -220.393)" fill="#33a85a"/>
    <path id="Path_5233" data-name="Path 5233" d="M593.906,367.574q0-.543,0-1.087c0-.144.058-.2.2-.2h.635a.174.174,0,0,1,.192.193q0,1.076,0,2.152a.465.465,0,0,1-.006.1.163.163,0,0,1-.162.131c-.231,0-.461,0-.692,0a.166.166,0,0,1-.17-.184q0-.551,0-1.1Z" transform="translate(-592.411 -364.223)" fill="#33a85a"/>
    <path id="Path_5234" data-name="Path 5234" d="M700.164,403.634q0,.413,0,.826c0,.14-.063.2-.2.2h-.636a.173.173,0,0,1-.192-.192q0-.837,0-1.674a.176.176,0,0,1,.2-.2h.643a.174.174,0,0,1,.191.193C700.165,403.074,700.164,403.354,700.164,403.634Z" transform="translate(-696.157 -400.025)" fill="#33a85a"/>
    <path id="Path_5235" data-name="Path 5235" d="M489.508,440.018c0,.188,0,.377,0,.565a.175.175,0,0,1-.2.2h-.635a.173.173,0,0,1-.2-.195q0-.579,0-1.158a.171.171,0,0,1,.192-.191h.65a.169.169,0,0,1,.189.187C489.509,439.623,489.508,439.82,489.508,440.018Z" transform="translate(-488.476 -436.145)" fill="#33a85a"/>
  </g>
  <path id="Path_5243" data-name="Path 5243" d="M192,351.2h4v1h-4Zm0,0" transform="translate(-180.014 -329.274)" fill="#33a85a"/>
  <path id="Path_5244" data-name="Path 5244" d="M32,351.2h4v1H32Zm0,0" transform="translate(-30.003 -329.274)" fill="#33a85a"/>
  <path id="Path_5245" data-name="Path 5245" d="M16,143.2H41.97v1H16Zm0,0" transform="translate(-15.002 -134.259)" fill="#33a85a"/>
  <path id="Path_5246" data-name="Path 5246" d="M33.52,383.2H16v1H34.669a6,6,0,0,1-1.149-1Zm0,0" transform="translate(-15.002 -359.276)" fill="#33a85a"/>
  <path id="Path_5247" data-name="Path 5247" d="M48,207.2h2v7.991H48Zm0,0" transform="translate(-45.003 -194.264)" fill="#33a85a"/>
  <path id="Path_5248" data-name="Path 5248" d="M208,207.2h2v7.991h-2Zm0,0" transform="translate(-195.016 -194.264)" fill="#33a85a"/>
  <path id="Path_5249" data-name="Path 5249" d="M32,175.2h4v1H32Zm0,0" transform="translate(-30.003 -164.262)" fill="#33a85a"/>
  <path id="Path_5250" data-name="Path 5250" d="M370,208.548V207.2h-2v1A5.954,5.954,0,0,1,370,208.548Zm0,0" transform="translate(-345.027 -194.264)" fill="#33a85a"/>
  <path id="Path_5251" data-name="Path 5251" d="M352,175.2h4v1h-4Zm0,0" transform="translate(-330.026 -164.262)" fill="#33a85a"/>
  <path id="Path_5252" data-name="Path 5252" d="M203,48.7a1.5,1.5,0,1,1-1.5-1.5A1.5,1.5,0,0,1,203,48.7Zm0,0" transform="translate(-187.514 -44.253)" fill="#33a85a"/>
  <path id="Path_5253" data-name="Path 5253" d="M192,175.2h4v1h-4Zm0,0" transform="translate(-180.014 -164.262)" fill="#33a85a"/>
  <path id="Path_5255" data-name="Path 5255" d="M292.994,239.2a4.994,4.994,0,1,0,4.994,4.994A4.994,4.994,0,0,0,292.994,239.2Zm0,9.489a4.495,4.495,0,1,1,4.495-4.495A4.495,4.495,0,0,1,292.994,248.688Zm0,0" transform="translate(-270.021 -224.266)" fill="#33a85a"/>
  <path id="Path_5258" data-name="Path 5258" d="M0,6.266V7.941H27.968V6.266L13.984,0ZM16.481,4.445a2.5,2.5,0,1,1-2.5-2.5A2.5,2.5,0,0,1,16.481,4.445Zm0,0" fill="#33a85a"/>
  <path id="Path_5259" data-name="Path 5259" d="M.5,417.2H27.468a.5.5,0,0,0,.5-.5v-1.5H0v1.5A.5.5,0,0,0,.5,417.2Zm0,0" transform="translate(0 -389.279)" fill="#33a85a"/>
  <path id="Path_5260" data-name="Path 5260" d="M420.953,391.09h.69v-.54A6.015,6.015,0,0,1,420.953,391.09Zm0,0" transform="translate(-394.674 -366.17)" fill="#33a85a"/>
</svg>
