<svg id="Group_8041" data-name="Group 8041" xmlns="http://www.w3.org/2000/svg" width="31.502" height="34.147" viewBox="0 0 31.502 34.147">
  <g id="Group_8040" data-name="Group 8040" transform="translate(21.505 21.918)">
    <path id="Path_5231" data-name="Path 5231" d="M804.5,331.653q0-.823,0-1.647c0-.2.074-.269.27-.269h.763a.217.217,0,0,1,.247.24q0,1.679,0,3.359a.215.215,0,0,1-.245.241h-.789a.217.217,0,0,1-.246-.249Q804.5,332.49,804.5,331.653Z" transform="translate(-798.956 -327.817)" fill="#37c5e2"/>
    <path id="Path_5232" data-name="Path 5232" d="M490.576,222.164c-.26.181-.522.362-.78.548a.114.114,0,0,0-.021.1.643.643,0,1,1-.277-.39l.077.053c.263-.183.527-.366.788-.553.017-.012.02-.061.013-.089a.64.64,0,1,1,1.26-.183.1.1,0,0,0,.082.109c.181.059.359.124.539.184a.093.093,0,0,0,.08-.015.644.644,0,0,1,.928-.1c.012-.007.028-.014.041-.024.243-.168.485-.337.729-.5.037-.025.057-.046.044-.1a.639.639,0,0,1,1.151-.516.64.64,0,0,1-.925.859l-.031-.021-.825.571a.663.663,0,0,1-.011.466.638.638,0,0,1-.7.387.631.631,0,0,1-.534-.6c0-.076-.033-.1-.094-.118-.194-.064-.386-.133-.577-.2A.662.662,0,0,1,490.576,222.164Zm-1.1.788a.327.327,0,0,0-.329-.317.319.319,0,0,0,.007.637A.313.313,0,0,0,489.473,222.952Zm4.9-1.919a.318.318,0,1,0,.317-.319A.321.321,0,0,0,494.377,221.033Zm-3.38.96a.318.318,0,1,0-.319-.318A.321.321,0,0,0,491,221.993Zm1.852.639a.319.319,0,1,0-.321-.315A.321.321,0,0,0,492.848,222.632Z" transform="translate(-488.508 -220.393)" fill="#37c5e2"/>
    <path id="Path_5233" data-name="Path 5233" d="M593.907,367.886q0-.675,0-1.35c0-.179.072-.251.248-.252h.789a.216.216,0,0,1,.238.24q0,1.336,0,2.673a.579.579,0,0,1-.007.122.2.2,0,0,1-.2.163c-.286,0-.573,0-.859,0a.207.207,0,0,1-.212-.228q0-.684,0-1.368Z" transform="translate(-592.051 -363.724)" fill="#37c5e2"/>
    <path id="Path_5234" data-name="Path 5234" d="M700.414,403.884q0,.513,0,1.026c0,.174-.078.251-.252.251h-.789a.216.216,0,0,1-.239-.239q0-1.039,0-2.079a.219.219,0,0,1,.244-.244q.4,0,.8,0a.216.216,0,0,1,.238.24Q700.415,403.362,700.414,403.884Z" transform="translate(-695.436 -399.402)" fill="#37c5e2"/>
    <path id="Path_5235" data-name="Path 5235" d="M489.758,440.207c0,.234,0,.468,0,.7a.217.217,0,0,1-.247.247h-.789a.215.215,0,0,1-.244-.242q0-.719,0-1.438a.212.212,0,0,1,.239-.238q.4,0,.807,0a.21.21,0,0,1,.235.232C489.759,439.716,489.758,439.962,489.758,440.207Z" transform="translate(-488.476 -435.396)" fill="#37c5e2"/>
  </g>
  <path id="Path_5267" data-name="Path 5267" d="M294.2,239.2a6.2,6.2,0,1,0,6.2,6.2A6.2,6.2,0,0,0,294.2,239.2Zm0,11.787a5.583,5.583,0,1,1,5.583-5.583A5.583,5.583,0,0,1,294.2,250.986Zm0,0" transform="translate(-268.905 -220.65)" fill="#37c5e2"/>
  <g id="instrument">
    <path id="Path_5261" data-name="Path 5261" d="M567.588,484.907c.46.083.709-.121.935-.524.886-1.579,1.813-3.136,2.723-4.7a1.808,1.808,0,0,1,1.983-.85,1.766,1.766,0,0,1,1.333,1.675c-.015.941.065,1.883.109,2.825.023.51.056,1.019.087,1.584h12.295v3.48H567.2V484.9A2.474,2.474,0,0,1,567.588,484.907Zm5.185-3.552a.879.879,0,1,0-.869-.873A.885.885,0,0,0,572.774,481.355Z" transform="translate(-567.2 -456.048)" fill="#37c5e2"/>
    <path id="Path_5262" data-name="Path 5262" d="M624.564,214.486c.091.322.147.589.245.84.037.093.171.147.257.223.057.05.14.1.158.16.305,1.054.6,2.111.914,3.212l-2.008.588.549,1.931.8-.2c-.01.035-.021.069-.032.1.174.086.346.241.522.245a3.1,3.1,0,0,1,3.019,2.279,3.07,3.07,0,0,1-1.448,3.452l-.225.135.6,2.178-.444.2.728,2.572,1.527-.434c.087.3.17.582.262.9l.594-.12.267.8,1.773-.5c-.067-.283-.127-.539-.192-.817l.553-.212c-.071-.3-.139-.58-.217-.906l1.5-.448c-.245-.869-.483-1.711-.725-2.567l-.483.09-2.393-8.426.844-.262c-.182-.644-.358-1.269-.547-1.936l-2.02.558c-.311-1.1-.614-2.166-.915-3.233-.011-.039-.028-.1-.01-.12.483-.44-.1-.8-.024-1.261Z" transform="translate(-619.251 -213.51)" fill="#37c5e2"/>
    <path id="Path_5263" data-name="Path 5263" d="M572.566,331.263c-.093-.087-.209-.188-.317-.3a8.054,8.054,0,0,1,1.446-12.542.69.69,0,0,0,.4-.546,2.334,2.334,0,0,1,1.943-2.01,2.379,2.379,0,0,1,2.115,3.992,2.337,2.337,0,0,1-2.754.485.565.565,0,0,0-.654.05,5.84,5.84,0,0,0-1.2,8.69c.12.139.241.276.284.325Zm2.926-13.094a1.008,1.008,0,1,0,.988-1.025A1.02,1.02,0,0,0,575.492,318.168Z" transform="translate(-569.656 -307.066)" fill="#37c5e2"/>
    <path id="Path_5264" data-name="Path 5264" d="M662.937,452.789l.2.766c-.422.529-1.036.334-1.576.426v2.19c1.707.087,3.2-.581,4.8-.9-.081-.252-.143-.451-.22-.693l6.59-1.876c-.231-.824-.457-1.627-.7-2.489Z" transform="translate(-653.474 -429.926)" fill="#37c5e2"/>
    <path id="Path_5265" data-name="Path 5265" d="M744.131,598.793V597.56H740.2v1.233Z" transform="translate(-725.375 -564.649)" fill="#37c5e2"/>
    <path id="Path_5266" data-name="Path 5266" d="M580.07,597.54v1.237H584V597.54Z" transform="translate(-578.967 -564.63)" fill="#37c5e2"/>
  </g>
</svg>
