<svg xmlns="http://www.w3.org/2000/svg" width="24" height="13.696" viewBox="0 0 24 13.696">
  <g id="speedometer" transform="translate(0 -109.908)">
    <path id="Path_406" data-name="Path 406" d="M0,265.338H3.036a7.45,7.45,0,0,1,.781-2.99L1,260.655a11.349,11.349,0,0,0-1,4.683Z" transform="translate(0 -143.344)" fill="#4286f4"/>
    <path id="Path_407" data-name="Path 407" d="M283.565,113.059l-.589,4.409a7.48,7.48,0,0,1,3.012,1.7l3.443-3.292A11.351,11.351,0,0,0,283.565,113.059Z" transform="translate(-269.445 -3.011)" fill="#4286f4"/>
    <path id="Path_408" data-name="Path 408" d="M36.539,161.79l2.893,1.742a7.527,7.527,0,0,1,2.384-2.076l-2.184-3.03A11.448,11.448,0,0,0,36.539,161.79Z" transform="translate(-34.913 -46.168)" fill="#4286f4"/>
    <path id="Path_409" data-name="Path 409" d="M374.3,197.776l-3.48,3.328a7.455,7.455,0,0,1,1.5,4.153H377.1a11.346,11.346,0,0,0-2.8-7.481Z" transform="translate(-353.104 -83.263)" fill="#4286f4"/>
    <path id="Path_410" data-name="Path 410" d="M136.805,114.2l.572-4.287c-.153-.006-.306-.01-.46-.01a11.338,11.338,0,0,0-5.545,1.439l2.307,3.2a7.484,7.484,0,0,1,2.367-.382A7.572,7.572,0,0,1,136.805,114.2Z" transform="translate(-125.103 0)" fill="#4286f4"/>
    <path id="Path_411" data-name="Path 411" d="M209.981,219.448a2.048,2.048,0,1,0,4.1,0c0-1.131-2.048-6.362-2.048-6.362S209.981,218.317,209.981,219.448Z" transform="translate(-200.029 -97.891)" fill="#4286f4"/>
  </g>
</svg>
