<svg id="start-up" xmlns="http://www.w3.org/2000/svg" width="25.855" height="25.855" viewBox="0 0 25.855 25.855">
  <path id="Path_5093" data-name="Path 5093" d="M73.23,284.112a.758.758,0,0,0,.141.876l.185.185c.535-.634,1.159-1.322,1.915-2.079.053-.053.108-.079.162-.129l-1.192-1.192C73.749,283.026,73.345,283.882,73.23,284.112Zm0,0" transform="translate(-69.455 -267.544)" fill="#c6cdd8"/>
  <path id="Path_5094" data-name="Path 5094" d="M164.966,389.724c-.758.758-1.445,1.383-2.075,1.919l.251.251a.757.757,0,0,0,.882.138c.392-.2,1.009-.493,2.319-1.222l-1.248-1.248C165.045,389.616,165.019,389.671,164.966,389.724Zm0,0" transform="translate(-154.665 -369.89)" fill="#c6cdd8"/>
  <path id="Path_5095" data-name="Path 5095" d="M66.476,311.536c-.547-.547-2.087-.057-2.81.666a20.144,20.144,0,0,0-4,5.147.758.758,0,0,0,1.013,1.012,20.291,20.291,0,0,0,5.132-4.016c.8-.8,1.187-2.289.668-2.808Zm0,0" transform="translate(-56.579 -295.582)" fill="#c6cdd8"/>
  <path id="Path_5096" data-name="Path 5096" d="M2.365,165.6.223,167.74a.758.758,0,0,0,.732,1.267,6.225,6.225,0,0,1,2.863-.266,40.647,40.647,0,0,1,3.136-4.784c-.642-.412-2.766-.182-4.588,1.64Zm0,0" transform="translate(-0.001 -155.513)" fill="#c6cdd8"/>
  <path id="Path_5097" data-name="Path 5097" d="M246.057,383.254a.756.756,0,0,0,.876-.141l2.143-2.142c1.659-1.659,1.951-3.8,1.574-4.479a43.235,43.235,0,0,1-4.787,3.112,9.282,9.282,0,0,1-.214,2.863A.756.756,0,0,0,246.057,383.254Zm0,0" transform="translate(-233.236 -357.48)" fill="#c6cdd8"/>
  <path id="Path_5098" data-name="Path 5098" d="M285.308,137.973a2.272,2.272,0,1,0,3.214,0A2.275,2.275,0,0,0,285.308,137.973Zm0,0" transform="translate(-270.27 -130.375)" fill="#c6cdd8"/>
  <path id="Path_5099" data-name="Path 5099" d="M394,.74a.756.756,0,0,0-.7-.7,14.975,14.975,0,0,0-5.53.644,6.359,6.359,0,0,0,1.884,3.7,6.339,6.339,0,0,0,3.772,1.881A15.665,15.665,0,0,0,394,.74Zm0,0" transform="translate(-368.191 -0.001)" fill="#c6cdd8"/>
  <path id="Path_5100" data-name="Path 5100" d="M128.96,28.24A7.958,7.958,0,0,1,126.683,24c-4.549,1.865-8.9,5.939-12.344,11.662l1.709,1.709a3.19,3.19,0,0,1,3.485.3,3.187,3.187,0,0,1,.3,3.484l1.766,1.766c4.4-2.654,9.53-6.835,11.709-12.4a7.92,7.92,0,0,1-4.348-2.28Zm-1.072,6.427a3.787,3.787,0,1,1,0-5.356A3.792,3.792,0,0,1,127.888,34.668Zm0,0" transform="translate(-108.565 -22.784)" fill="#c6cdd8"/>
</svg>
