<svg xmlns="http://www.w3.org/2000/svg" width="36" height="36" viewBox="0 0 36 36">
  <g id="Group_7599" data-name="Group 7599" transform="translate(-1085 -1226)">
    <circle id="Ellipse_786" data-name="Ellipse 786" cx="18" cy="18" r="18" transform="translate(1085 1226)" fill="#dbe8fc"/>
    <g id="customer-service" transform="translate(1014.08 1234)">
      <g id="Group_7592" data-name="Group 7592" transform="translate(82.184 14.729)">
        <g id="Group_7591" data-name="Group 7591">
          <path id="Path_935" data-name="Path 935" d="M98.4,377.07H92.043a3.363,3.363,0,0,0-3.359,3.359v1.911h13.072v-1.911A3.363,3.363,0,0,0,98.4,377.07Z" transform="translate(-88.684 -377.07)" fill="#4286f4"/>
        </g>
      </g>
      <g id="Group_7594" data-name="Group 7594" transform="translate(81.92)">
        <g id="Group_7593" data-name="Group 7593">
          <path id="Path_936" data-name="Path 936" d="M95.507,6.377a6.8,6.8,0,0,0-13.573,0H81.92v5.037A2.779,2.779,0,0,0,84.7,14.19h1.155V13.018H84.7a1.606,1.606,0,0,1-1.6-1.6V11.3h1.033a3.684,3.684,0,0,1-.163-1.088V6.377h-.854a5.628,5.628,0,0,1,11.225,0h-.854v3.83a3.684,3.684,0,0,1-.163,1.088h2.2V6.377Z" transform="translate(-81.92 0)" fill="#4286f4"/>
        </g>
      </g>
      <g id="Group_7596" data-name="Group 7596" transform="translate(85.133 3.421)">
        <g id="Group_7595" data-name="Group 7595">
          <path id="Path_937" data-name="Path 937" d="M168.826,87.59h-2.12a2.527,2.527,0,0,0-2.527,2.527V91.56c.2.006.392,0,.586-.006a7.377,7.377,0,0,0,4.125-1.545,8.54,8.54,0,0,0,1.7-1.7A2.517,2.517,0,0,0,168.826,87.59Z" transform="translate(-164.18 -87.59)" fill="#4286f4"/>
        </g>
      </g>
      <g id="Group_7598" data-name="Group 7598" transform="translate(85.133 5.215)">
        <g id="Group_7597" data-name="Group 7597">
          <path id="Path_938" data-name="Path 938" d="M171.245,133.5a10.047,10.047,0,0,1-1.613,1.535,8.651,8.651,0,0,1-4.866,1.809c-.126.006-.252.009-.379.009-.069,0-.138,0-.207,0v1.644a2.525,2.525,0,0,0,2.527,2.527h2.12a2.525,2.525,0,0,0,2.527-2.527v-4.259A2.529,2.529,0,0,0,171.245,133.5Z" transform="translate(-164.18 -133.5)" fill="#4286f4"/>
        </g>
      </g>
    </g>
  </g>
</svg>
