<svg xmlns="http://www.w3.org/2000/svg" width="16" height="16" viewBox="0 0 16 16">
  <g id="technics" transform="translate(-0.001 0)">
    <g id="Group_1789" data-name="Group 1789" transform="translate(0.001 0)">
      <g id="Group_1788" data-name="Group 1788" transform="translate(0 0)">
        <path id="Path_403" data-name="Path 403" d="M4.8,2.811l.331-.331a.469.469,0,0,0-.09-.733L2.53.24A1.67,1.67,0,0,0,.239,2.531l1.506,2.51a.469.469,0,0,0,.733.09L2.811,4.8,5.347,7.332,7.333,5.346Z" transform="translate(-0.001 -0.002)" fill="#4286f4"/>
      </g>
    </g>
    <g id="Group_1791" data-name="Group 1791" transform="translate(0.001 0)">
      <g id="Group_1790" data-name="Group 1790" transform="translate(0 0)">
        <path id="Path_404" data-name="Path 404" d="M15.681,1.867a.469.469,0,0,0-.754-.13L13.714,2.95a.479.479,0,0,1-.663,0,.469.469,0,0,1,0-.663l1.213-1.213a.469.469,0,0,0-.13-.754A3.283,3.283,0,0,0,9.628,4.383L4.384,9.628A3.283,3.283,0,0,0,.32,14.134a.469.469,0,0,0,.754.13l1.213-1.213a.469.469,0,0,1,.663.663L1.738,14.926a.469.469,0,0,0,.13.754,3.282,3.282,0,0,0,4.506-4.064l5.244-5.244a3.283,3.283,0,0,0,4.064-4.506Z" transform="translate(-0.001 0)" fill="#4286f4"/>
      </g>
    </g>
    <g id="Group_1793" data-name="Group 1793" transform="translate(8.329 8.37)">
      <g id="Group_1792" data-name="Group 1792">
        <path id="Path_405" data-name="Path 405" d="M273.481,271.52a38.348,38.348,0,0,0-4.329-3.666l-2.651,2.651a39.732,39.732,0,0,0,3.594,4.258,2.489,2.489,0,0,0,1.771.714,2.222,2.222,0,0,0,1.316-.39,2.345,2.345,0,0,0,.3-3.568Zm-1.35,1.923a.477.477,0,0,1-.656-.025l-1.856-1.856a.477.477,0,0,1-.025-.656.469.469,0,0,1,.678-.016l1.875,1.875A.469.469,0,0,1,272.131,273.443Z" transform="translate(-266.501 -267.854)" fill="#4286f4"/>
      </g>
    </g>
  </g>
</svg>
