<svg xmlns="http://www.w3.org/2000/svg" width="36" height="36" viewBox="0 0 36 36">
  <g id="Group_8221" data-name="Group 8221" transform="translate(-230 -900)">
    <circle id="Ellipse_816" data-name="Ellipse 816" cx="18" cy="18" r="18" transform="translate(230 900)" fill="#dbe8fc"/>
    <g id="Group_8018" data-name="Group 8018" transform="translate(0 -15)">
      <g id="Group_7841" data-name="Group 7841" transform="translate(236.937 929.419)">
        <g id="Group_7749" data-name="Group 7749" transform="translate(0 0)">
          <path id="Path_5075" data-name="Path 5075" d="M19.149,171.823a1.914,1.914,0,0,1-1.578-.83l-.937-1.363a6.387,6.387,0,0,1-11.921-2.488h.607a.638.638,0,0,0,.526-1l-.93-1.353L3.5,162.738a.639.639,0,0,0-.6-.272.646.646,0,0,0-.076.014.639.639,0,0,0-.372.258l-2.34,3.4a.638.638,0,0,0,.526,1H1.3a9.788,9.788,0,0,0,16.688,6.282,9.854,9.854,0,0,0,1.3-1.607C19.24,171.821,19.195,171.823,19.149,171.823Z" transform="translate(0 -162.461)" fill="#4286f4"/>
        </g>
      </g>
      <g id="Group_7842" data-name="Group 7842" transform="translate(245.903 929.42)">
        <g id="Group_7751" data-name="Group 7751" transform="translate(0 0)">
          <path id="Path_5076" data-name="Path 5076" d="M210.057,165.867h-.973a.335.335,0,0,1-.334-.334v-.486a.335.335,0,0,1,.334-.334h.973a.335.335,0,0,1,.334.334.638.638,0,0,0,1.277,0,1.613,1.613,0,0,0-1.459-1.6V163.1a.638.638,0,1,0-1.277,0v.342a1.613,1.613,0,0,0-1.459,1.6v.486a1.613,1.613,0,0,0,1.611,1.611h.973a.335.335,0,0,1,.334.334v.486a.335.335,0,0,1-.334.334h-.973a.335.335,0,0,1-.334-.334.638.638,0,1,0-1.277,0,1.613,1.613,0,0,0,1.459,1.6v.342a.638.638,0,1,0,1.277,0v-.342a1.613,1.613,0,0,0,1.459-1.6v-.486A1.613,1.613,0,0,0,210.057,165.867Z" transform="translate(-207.473 -162.463)" fill="#4286f4"/>
        </g>
      </g>
      <g id="Group_7843" data-name="Group 7843" transform="translate(239.779 923.675)">
        <g id="Group_7753" data-name="Group 7753" transform="translate(0 0)">
          <path id="Path_5077" data-name="Path 5077" d="M85,39.029a.638.638,0,0,0-.565-.341h-.659a9.788,9.788,0,0,0-16.687-6.282,9.853,9.853,0,0,0-1.3,1.607c.045,0,.09-.005.136-.005a1.914,1.914,0,0,1,1.578.83l.937,1.363a6.387,6.387,0,0,1,11.921,2.488h-.607a.638.638,0,0,0-.526,1l.93,1.353,1.41,2.051a.638.638,0,0,0,1.052,0l.845-1.229,1.5-2.175A.638.638,0,0,0,85,39.029Z" transform="translate(-65.784 -29.539)" fill="#4286f4"/>
        </g>
      </g>
    </g>
  </g>
</svg>
