<svg xmlns="http://www.w3.org/2000/svg" viewBox="0 0 213.15 146.22">
  <defs>
    <style>
      .cls-1 {
        fill: #2c8ae1;
      }

      .cls-2 {
        fill: #2b89e1;
      }

      .cls-3 {
        fill: #2c89e1;
      }

      .cls-4 {
        fill: #2d8ae2;
      }

      .cls-5 {
        fill: #2f8ce2;
      }

      .cls-6 {
        fill: #5fa0f1;
      }

      .cls-7 {
        fill: #fdfdfe;
        stroke: #4a94f0;
        stroke-width: 2px;
      }

      .cls-8 {
        fill: #328de2;
      }

      .cls-9 {
        fill: #3f94e4;
      }

      .cls-10 {
        fill: #e5f0fb;
      }

      .cls-11 {
        fill: #eff6fc;
      }

      .cls-12 {
        fill: #ebf4fb;
      }

      .cls-13 {
        fill: #f2f7fc;
      }

      .cls-14 {
        fill: #f7fafd;
      }

      .cls-15 {
        fill: #4f9de6;
      }
    </style>
  </defs>
  <g id="Layer_2" data-name="Layer 2">
    <g id="Layer_1-2" data-name="Layer 1">
      <path class="cls-1" d="M4.43,44.85c11-8.43,21.52-16.49,32.05-24.53C45,13.78,53.64,7.28,62.19.71c1-.8,1.75-1,2.9-.14Q93.32,22.2,121.63,43.76c.29.23.54.51,1.16,1.09Z"/>
      <path class="cls-2" d="M127.56,146.22H.1V132.34H2.57q57.22,0,114.44,0a4.82,4.82,0,0,1,4.41,2.16,20,20,0,0,0,3.84,4.25C127.89,140.7,128.16,143.2,127.56,146.22Z"/>
      <path class="cls-3" d="M0,66.16V52.36H127.55c.55,1.72.06,2.94-1.21,4.25-2.5,2.57-4.68,5.45-7.13,8.07a4.62,4.62,0,0,1-2.87,1.55q-57.46.12-114.94.06C1,66.29.62,66.22,0,66.16Z"/>
      <path class="cls-1" d="M72.51,72.91v52.6H65.29c-2.71,0-5.43-.07-8.14,0-1.64.06-2.23-.46-2.19-2.18.1-5,.06-9.92,0-14.88-.07-11-.09-21.91-.3-32.87,0-2.32.72-2.81,2.84-2.74C62.46,73,67.4,72.91,72.51,72.91Z"/>
      <path class="cls-4" d="M13.78,73.06h17v52.33h-17Z"/>
      <path class="cls-5" d="M96.67,73.06h16.8c-1.46,5.76-3.53,11.41-4.19,17.22a70.56,70.56,0,0,0,.3,17.84c.82,5.8,3,11.41,4.57,17.34H96.67Z"/>
      <path class="cls-6" d="M213.15,98.38c-.1,26.18-21.46,47.49-47.45,47.34s-47.31-21.58-47.22-47.43a47.34,47.34,0,1,1,94.67.09ZM166,144.52a46.36,46.36,0,1,0-46.31-46.28A46.25,46.25,0,0,0,166,144.52Z"/>
      <path class="cls-7" d="M166,144.52a46.36,46.36,0,1,1,46.19-46.46A46.16,46.16,0,0,1,166,144.52Zm19.67-61c-3.32,0-5.43-2.9-4.42-6.37.56-1.9,0-2.88-1.68-3.52-2-.76-4-1.52-6-2.34-1.44-.6-2.33-.22-3.16,1.13-2.63,4.29-6.69,4.32-9.4.08-.9-1.42-1.86-1.77-3.38-1.1-2,.88-4,1.69-6,2.43-1.71.62-2,1.64-1.53,3.36,1.1,3.71-1.25,6.61-5,6.4-4.15-.23-4.15-.23-5.82,3.64-.51,1.17-1,2.37-1.48,3.53-.61,1.35-.25,2.2,1,3,4.54,2.68,4.57,6.27.1,9.08-1.19.75-1.71,1.57-1,3,.95,2,1.82,4.09,2.71,6.14.61,1.43,1.58,1.75,3.08,1.36,4.68-1.21,7.63,1.54,6.58,6.18-.36,1.57,0,2.46,1.45,3,2.07.82,4.16,1.61,6.22,2.47a2.33,2.33,0,0,0,3.24-1c2.9-4.18,6.35-4.18,9.33,0,.88,1.23,1.81,1.65,3.25,1,1.89-.84,3.82-1.63,5.77-2.31s2.37-1.63,1.75-3.64a4.78,4.78,0,0,1,5.07-6.1c4.12.23,4.13.23,5.87-3.71.49-1.09.93-2.21,1.45-3.28.69-1.44.28-2.37-1.07-3.16-4.38-2.57-4.35-6.14-.06-9,.65-.43,1.55-1.5,1.39-1.93a37.09,37.09,0,0,0-3.58-8c-.46-.71-2.88-.14-4.4-.15A1.77,1.77,0,0,0,185.62,83.51Z"/>
      <path class="cls-8" d="M185.62,83.51a1.77,1.77,0,0,1,.23,0c1.52,0,3.94-.56,4.4.15a37.09,37.09,0,0,1,3.58,8c.16.43-.74,1.5-1.39,1.93-4.29,2.9-4.32,6.47.06,9,1.35.79,1.76,1.72,1.07,3.16-.52,1.07-1,2.19-1.45,3.28-1.74,3.94-1.75,3.94-5.87,3.71a4.78,4.78,0,0,0-5.07,6.1c.62,2,.13,3-1.75,3.64s-3.88,1.47-5.77,2.31c-1.44.64-2.37.22-3.25-1-3-4.13-6.43-4.13-9.33,0a2.33,2.33,0,0,1-3.24,1c-2.06-.86-4.15-1.65-6.22-2.47-1.42-.55-1.81-1.44-1.45-3,1.05-4.64-1.9-7.39-6.58-6.18-1.5.39-2.47.07-3.08-1.36-.89-2-1.76-4.11-2.71-6.14-.66-1.39-.14-2.21,1-3,4.47-2.81,4.44-6.4-.1-9.08-1.28-.76-1.64-1.61-1-3,.52-1.16,1-2.36,1.48-3.53,1.67-3.87,1.67-3.87,5.82-3.64,3.79.21,6.14-2.69,5-6.4-.51-1.72-.18-2.74,1.53-3.36,2-.74,4-1.55,6-2.43,1.52-.67,2.48-.32,3.38,1.1,2.71,4.24,6.77,4.21,9.4-.08.83-1.35,1.72-1.73,3.16-1.13,2,.82,4,1.58,6,2.34,1.7.64,2.24,1.62,1.68,3.52C180.19,80.61,182.3,83.47,185.62,83.51ZM153.39,120l1.69.79c2,1,3.59,1.42,5.5-.82a7.12,7.12,0,0,1,10.34,0c2.29,2.68,4.09,1.36,6.16.45a2,2,0,0,0,.93-1.56c-.13-5.92,3.1-9.08,9.14-9a2.67,2.67,0,0,0,1.92-1.12,21,21,0,0,0,1.52-3.43c-5.79-4.16-5.8-10-.13-14.27-1.26-4.33-1.26-4.33-5.47-4.63-4-.28-7.49-4.1-7.19-7.88.1-1.22.88-2.58-1.14-3-1.72-.33-3.2-2.34-5.15.21-2.77,3.61-8.28,4-11.18.58-2.25-2.67-4-1.54-6.07-.52a2.2,2.2,0,0,0-.91,1.78c.5,5-2.69,8.75-7.67,8.85-1,0-1.9,0-3,0l-2,4.65c6.06,5.65,6.08,9,.11,14.34.69,1.54,1.39,3.13,2.08,4.68C149.78,108.85,154.6,113.66,153.39,120Z"/>
      <path class="cls-9" d="M174.54,84.52l-4-2.25c5.27-.47,12.53,7,12.26,11.94l-3.26-2A58.43,58.43,0,0,1,180,99.5c-.28,4.44-2.59,7.78-6.24,10.23-1,.69-2.35,1.24-1.53,3.31l5.53-3.15c-.49,3.39-7.39,5.86-14.47,5.25s-15-7.53-14.75-13l3.54,2.23c-.22-1.59-.28-2.43-.46-3.24a13.21,13.21,0,0,1,1-9.07c.41-.83.06-2,.06-3.05l-.7-.07-2.84,4.36c-.32-5,7.21-11.68,12.36-11.59l-1.69,2.76,14.77.69Zm-8.9,26.31a12.84,12.84,0,0,0,13.21-12.61,13,13,0,0,0-13.11-12.8c-7.38.07-13.18,5.65-13.21,12.69A12.81,12.81,0,0,0,165.64,110.83ZM178,88.15c-1.54-2.65-2.31-2.77-4.19-.85Zm-7.66,22.72-3.64,2.66.57.79C168.08,113.16,171,114.9,170.29,110.87Zm-4.14,1-4.41.82.18.89C163.27,113.38,165,115.22,166.15,111.85Zm14-20.09.42-.83c-1.14-2.27-1.44-2.38-3.75-.92ZM157,109.68c-1.58-2-1.77-2.06-3.6-.87C155,110.68,155.13,110.71,157,109.68Zm.21,1.43c1.36,1.65,2.65,2.32,4.42,0Zm-6-6.33c.14,2.61,1.22,2.84,3,1.32Z"/>
      <path class="cls-10" d="M178,88.15l-4.19-.85C175.64,85.38,176.41,85.5,178,88.15Z"/>
      <path class="cls-11" d="M170.29,110.87c.67,4-2.21,2.29-3.07,3.45l-.57-.79Z"/>
      <path class="cls-12" d="M166.15,111.85c-1.15,3.37-2.88,1.53-4.23,1.71l-.18-.89Z"/>
      <path class="cls-11" d="M180.11,91.76,176.78,90c2.31-1.46,2.61-1.35,3.75.92Z"/>
      <path class="cls-13" d="M157,109.68c-1.86,1-2,1-3.6-.87C155.22,107.62,155.41,107.67,157,109.68Z"/>
      <path class="cls-14" d="M157.2,111.11h4.42C159.85,113.43,158.56,112.76,157.2,111.11Z"/>
      <path class="cls-11" d="M151.18,104.78l3,1.32C152.4,107.62,151.32,107.39,151.18,104.78Z"/>
      <path class="cls-15" d="M165.7,103.11a5,5,0,1,1,5.18-4.92A5.28,5.28,0,0,1,165.7,103.11Zm4.21-4.93a4.25,4.25,0,1,0-4.32,4A4.26,4.26,0,0,0,169.91,98.18Z"/>
    </g>
  </g>
</svg>
