<svg xmlns="http://www.w3.org/2000/svg" viewBox="0 0 192.58 198.93"><defs><style>.cls-1{fill:#2d8ae2;}.cls-2{fill:#2e8be2;}</style></defs><g id="Layer_2" data-name="Layer 2"><g id="Layer_1-2" data-name="Layer 1"><path class="cls-1" d="M32.76,53.18c-1.27,1.48-2.09,3.17-3.42,3.82C27,58.14,24.7,55.89,24.8,52.88c.28-8.36,8.48-16.64,16.84-16.79,7.82-.14,15.64-.05,23.46,0A3.6,3.6,0,0,1,69,39.46a3.66,3.66,0,0,1-3.9,3.66c-7.5.05-15,0-22.51,0a10.43,10.43,0,0,0-7.46,2.68l74.42,64.37,73.61-63.69a7.59,7.59,0,0,0-6.7-3.37H159.22c-.56,0-1.12,0-1.68,0-2.36-.1-3.95-1.61-3.89-3.64a3.52,3.52,0,0,1,3.83-3.42c6.62,0,13.25-.11,19.87,0s12.47,5.63,14.36,13.15a26.54,26.54,0,0,1,.83,6.39q.08,46.32,0,92.62c0,9.67-5.4,15-15,15q-18.43,0-36.87,0c-3,0-4.75-1.28-4.75-3.5s1.81-3.61,4.72-3.61q17.72,0,35.44,0h3.11a20.6,20.6,0,0,0-1.59-1.51Q154,136.87,130.4,119.08c-.38-.29-.78-.56-1.15-.86-2.18-1.71-2.67-3.58-1.42-5.34s3.44-2,5.66-.38c3.32,2.48,6.63,5,9.94,7.49l40.76,30.69a11.26,11.26,0,0,0,1.08.65v-97a10.41,10.41,0,0,0-1.22.77Q149,85.45,113.93,115.78c-4.2,3.63-4.59,3.64-8.79,0L33.58,53.86C33.17,53.5,32.75,53.16,32.76,53.18Z"/><path class="cls-2" d="M81.16,161.43c2,.29,3.13-.42,4.2-2.26A56.72,56.72,0,0,1,92,149.84c4.64-5.19,10.69-6.62,17-4,13,5.38,21.56,15,25.38,28.66,1.09,3.9-.24,7.43-3.15,10.27a52.77,52.77,0,0,1-27,14.07,10,10,0,0,1-4.21-.4,133.83,133.83,0,0,1-54.12-27.55A138,138,0,0,1,2.55,107.18c-.46-1.36-.75-2.79-1.29-4.11C-1.27,96.93.42,91.22,2.77,85.48a55,55,0,0,1,10.7-16.89c3.65-3.91,8.1-5.22,13.06-3.5,12.64,4.4,21.9,12.64,26.62,25.34C55.58,97,54,103,48.64,107.55a76.72,76.72,0,0,1-9.26,6.32,3.22,3.22,0,0,0-1.83,3,25.29,25.29,0,0,0,3.78,13.21c7.15,12,16.63,21.64,28.93,28.27,3.29,1.77,7.14,2.5,10.74,3.71Zm.14,7.28-.13.32c-3.31-.82-6.82-1.18-9.89-2.55-17.22-7.67-29.78-20.28-38.07-37.16a24.33,24.33,0,0,1-2.34-15.62c.5-2.58,1.55-4.49,4.18-5.63a34.41,34.41,0,0,0,6.94-4.2c6-4.48,6.92-9,3-15.31A46.46,46.46,0,0,0,28.64,73a14.14,14.14,0,0,0-3.08-1.29,6.41,6.41,0,0,0-7.15,1.92,51.78,51.78,0,0,0-10.09,17,16.39,16.39,0,0,0-.14,11A129.66,129.66,0,0,0,33.94,149c17.85,21,40,35.23,66.68,42.22a10,10,0,0,0,4.7.09,45.3,45.3,0,0,0,19.86-10.6c2.71-2.47,3.49-4.63,1.91-7.88A43.24,43.24,0,0,0,108,152.69c-4.11-2.15-8-1.37-11,2.19a50.69,50.69,0,0,0-6.17,9.34,6.42,6.42,0,0,1-5,3.85C84.29,168.3,82.8,168.5,81.3,168.71Z"/><path class="cls-2" d="M124.27,54.45c-3.26,1.34-6.4,3.29-9.79,3.91-7,1.29-12.41-1.6-16-7.82-5.74-9.81-3.2-22.08,5.76-27.56,8.16-5,20.58-.95,23.31,7.58.83,2.6,0,4.59-2.08,5.32-2,.67-3.64-.44-4.59-3-1.52-4.08-5-4.8-8.73-5s-6.86,1.25-8.35,4.8a16.81,16.81,0,0,0,.83,15c2.48,4.53,11.08,5.29,14.45,1.33a7.92,7.92,0,0,0,1.5-4.12c.32-3,1.69-4.94,3.87-4.91s3.67,2.06,3.71,5c0,3.69,1.37,5.66,4.25,6.33,3.27.77,5.89-.57,7.41-3.76,4.63-9.76,1.08-26.74-7-33.7C122.57,5.08,98.6,3.14,87.69,18c-8.3,11.33-9.18,35.51,4.72,46.74a35.81,35.81,0,0,0,10.35,5.77c7.26,2.57,14.78,2.27,22.18.32a20.34,20.34,0,0,0,10-6.22c1.91-2.1,4-2.31,5.6-.73s1.47,3.55-.35,5.52c-5.37,5.8-12.31,8.35-19.9,9.49-16.67,2.5-31.77-4.44-40.3-18.58-9-14.86-7.75-41.22,10.09-53.75S135.77-.06,145,18.77c5.3,10.77,4.89,22.09-.41,32.86-3.6,7.31-11.23,9.14-17.56,4.84a31.8,31.8,0,0,1-3-2.65Z"/><path class="cls-2" d="M58,142.61c-1-1-2.3-1.8-2.89-2.93-.77-1.48-.13-3,1.21-4l9.4-7.42q9.87-7.78,19.75-15.56c2.3-1.81,4.27-1.77,5.66,0s1,3.76-1.27,5.54Q75.48,129.6,61.07,140.91A24.29,24.29,0,0,1,58,142.61Z"/></g></g></svg>