<svg xmlns="http://www.w3.org/2000/svg" viewBox="0 0 190.89 182.07"><defs><style>.cls-1{fill:#2d8ae2;}.cls-2{fill:#2e8be2;}.cls-3{fill:#2b89e1;}.cls-4{fill:#2a89e1;}</style></defs><g id="Layer_2" data-name="Layer 2"><g id="Layer_1-2" data-name="Layer 1"><path class="cls-1" d="M73.76,129c-5.15-.5-10.3-1-15.46-1.45a5.06,5.06,0,0,0-2.64.64c-10.39,5.55-21,10.5-32.77,12.28-5,.76-10.14.39-15.22.35a7.53,7.53,0,0,1-3.32-1.23c-2.47-1.38-4-3.39-3.85-6.4s2-4.58,4.33-5.86a74,74,0,0,0,6.88-3.81,22.94,22.94,0,0,0,7.86-10.08,3.79,3.79,0,0,0-1-4.83C8.64,98.68,2.24,86.83.5,72.72c-2.23-18.14,3-34.09,15-47.66C29.35,9.36,47.15,1.4,67.89.16,89-1.1,107.72,5,123.76,19,145,37.55,151.1,67.86,138.05,92.27c-9,16.84-23.54,27-41.43,32.67A97.91,97.91,0,0,1,73.76,129Zm-61,3.5.1.71a80.09,80.09,0,0,0,8.08-.82A109.76,109.76,0,0,0,53.8,119.68a5.79,5.79,0,0,1,3.52-.77c19.95,3.55,38.7.58,55.56-11,15-10.28,23.63-24.56,23.7-43.12,0-13.24-4.73-24.89-13.53-34.73-11.61-13-26.34-19.92-43.59-21.42C59,6.89,40.53,12.2,25.55,26.59,9.53,42,4.26,60.72,11.19,82.22c3.09,9.58,9,17.39,16.53,24,.68.6,1.52,1.68,1.41,2.43C28,116.89,24.62,123.93,17.85,129,16.21,130.28,14.45,131.36,12.75,132.52Z"/><path class="cls-1" d="M178.24,173.08c-2.3-1.55-4.68-3-6.9-4.67a21,21,0,0,1-7.91-11.67,2.52,2.52,0,0,1,1.16-3.17,44.57,44.57,0,0,0,12.33-12.93c9.07-14.81,6.7-31.94-6.12-44.63a57.19,57.19,0,0,0-17.67-11.7l-2.45-1.08c.61-2.74,1.19-5.35,1.85-8.28C171.2,82.71,185.85,94,190,115c2.62,13.26-1.55,25-9.86,35.29-2.18,2.72-4.76,5.12-7.62,8.18,2.65,2,5.18,4.18,7.91,6,2.37,1.61,5,2.83,7.44,4.33,4.32,2.64,3.92,8.37-.57,10.64-4.66,2.35-9.64,2.82-14.67,2.59-12.48-.57-24.08-3.68-33.76-12.17a4.44,4.44,0,0,0-3.07-.61c-14.47,1.4-28.7.45-42.48-4.47-12.1-4.31-22.5-11-29.39-22.25-1.14-1.88-2-3.91-3.21-6.21,3.16.21,5.85.34,8.52.62a2.52,2.52,0,0,1,1.67,1c6.58,10.34,16.43,16.15,27.73,19.67a84.22,84.22,0,0,0,40.44,2.61,3.56,3.56,0,0,1,2.88.83c6.24,7.28,14.54,10.47,23.64,11.9,4.12.64,8.34.6,12.52.87Z"/><path class="cls-2" d="M102.19,132.31c4.85-2.36,10.47-5.12,16.11-7.85a3.24,3.24,0,0,1,1.37-.32H153.3v8.18Z"/><path class="cls-3" d="M153.33,103.39v8H134.68c1.95-2.46,3.83-4.89,5.81-7.24a2.73,2.73,0,0,1,1.84-.74C145.91,103.35,149.48,103.39,153.33,103.39Z"/><path class="cls-1" d="M107.36,37.53v7.9H37.23v-7.9Z"/><path class="cls-1" d="M107.44,58.18v8H37.31v-8Z"/><path class="cls-4" d="M86.83,79V87H37.56V79Z"/></g></g></svg>