<svg xmlns="http://www.w3.org/2000/svg" viewBox="0 0 164.73 176.05"><defs><style>.cls-1{fill:#2b89e1;}.cls-2{fill:#2e8be2;}.cls-3{fill:#308ce2;}.cls-4{fill:#2c8ae1;}.cls-5{fill:#2c89e1;}.cls-6{fill:#3e93e4;}.cls-7{fill:#fafcfd;}.cls-8{fill:#fff;stroke:#60a1f1;stroke-miterlimit:10;stroke-width:2px;}</style></defs><g id="Layer_2" data-name="Layer 2"><g id="Layer_1-2" data-name="Layer 1"><path class="cls-1" d="M10.76,49.37v90.87H56.41l.67,10a13.39,13.39,0,0,1-1.94.3c-15.25,0-30.49.13-45.74.11-4.33,0-8.92-4.86-9-9.36C.27,122.37.1,103.4,0,84.44,0,63.4,0,42.35,0,21.31A9.87,9.87,0,0,1,9,11.27c3.47-.27,7,0,10.51,0,.25-2.35.32-4.25.67-6.1C20.75,1.81,23,.07,26.2.25s5.13,2.2,5.46,5.58c.15,1.59.22,3.19.34,4.95h69.35a49.3,49.3,0,0,1,.71-5.7c.77-3.17,3.36-5.28,5.87-5.07,3.31.28,5.41,2.62,5.63,6.34.08,1.42,0,2.85,0,4.6h8.59c7.1,0,11,3.75,11.1,10.85.18,15.28.25,30.56.36,45.84,0,.55-.05,1.09-.07,1.45H123V49.37Zm8.7-24.68A10.1,10.1,0,0,0,16,36.11c1.49,4.11,6,7.3,10.09,7.16s8.69-3.75,9.88-7.87a9.52,9.52,0,0,0-3.84-10.7A40.24,40.24,0,0,1,31,30.92a5,5,0,0,1-5.19,3.48C21.86,34.37,20.49,32.29,19.46,24.69Zm81.85,0c-4.85,3.76-5.28,10.47-1.15,15.12a10.27,10.27,0,0,0,15.11,0c4.39-4.76,3.84-11.12-1.31-15.19-1.25,8-2.35,9.75-6.19,9.75C103.73,34.4,102.39,32.42,101.31,24.71Z"/><path class="cls-2" d="M73.63,77.57v13.6H59.86c0-4.26,0-8.3.06-12.34a1.81,1.81,0,0,1,1.31-1.2C65.34,77.53,69.45,77.57,73.63,77.57Z"/><path class="cls-2" d="M17.87,91.06V77.58H31.5V91.06Z"/><path class="cls-3" d="M52.56,91H39V77.51H52.56Z"/><path class="cls-3" d="M18,98.46H31.51V112H18Z"/><path class="cls-2" d="M38.89,112c0-4.12-.06-8.11.06-12.09,0-.52.84-1.47,1.31-1.48,4-.12,8.08-.07,12.3-.07V112Z"/><path class="cls-4" d="M18.06,119.33H31.48v13.5H18.06Z"/><path class="cls-1" d="M38.86,69.81V56.73H52.55V69.81Z"/><path class="cls-5" d="M73.63,69.88H59.93V56.66h13.7Z"/><path class="cls-3" d="M81.18,69.83V56.67H94.54V69.83Z"/><path class="cls-1" d="M38.89,132.8c0-4.09-.06-8,.07-11.89a2.15,2.15,0,0,1,1.47-1.52c4-.13,7.94-.07,12.11-.07V132.8Z"/><path class="cls-5" d="M102.22,56.65h13.2V69.8h-13.2Z"/><path class="cls-2" d="M69,98.35l-7.79,13.9-.67-.08a9.71,9.71,0,0,1-.65-2.29c-.09-3.19-.15-6.38,0-9.56,0-.68.86-1.84,1.39-1.88C63.78,98.24,66.3,98.35,69,98.35Z"/><path class="cls-6" d="M81.19,77.3h9.67c.44,0,.88,0,1.38.08-.13.34-.14.53-.24.6-3.54,2.41-7.09,4.8-10.81,7.31Z"/><path class="cls-7" d="M19.46,24.69c1,7.6,2.4,9.68,6.35,9.71A5,5,0,0,0,31,30.92a40.24,40.24,0,0,0,1.08-6.22,9.52,9.52,0,0,1,3.84,10.7c-1.19,4.12-5.72,7.73-9.88,7.87S17.44,40.22,16,36.11A10.1,10.1,0,0,1,19.46,24.69Z"/><path class="cls-7" d="M101.31,24.71c1.08,7.71,2.42,9.69,6.46,9.7,3.84,0,4.94-1.73,6.19-9.75,5.15,4.07,5.7,10.43,1.31,15.19a10.27,10.27,0,0,1-15.11,0C96,35.18,96.46,28.47,101.31,24.71Z"/><path class="cls-1" d="M97.13,113.72c0-4.93-.07-9.87,0-14.8.11-5.6,4.55-8.62,9.7-6.4,2.16.93,3.62,2.39,3.68,4.74q.28,11.61.48,23.24c.06,4.66,0,4.65,4.28,6.32,6.61,2.58,13.22,5.13,19.79,7.8,3.92,1.59,5.35,5,4,8.95-1.17,3.39-4.27,5.12-8.12,3.74q-15.18-5.42-30.15-11.43c-3-1.2-3.58-4.31-3.62-7.29-.08-5,0-9.91,0-14.87Z"/><path class="cls-8" d="M112.08,71.05a52,52,0,1,1-52.17,51.52C60,94.12,83.44,71,112.08,71.05ZM61.29,122.76a50.64,50.64,0,0,0,101.28.59c.24-27.73-22.55-51-50.14-51.14A50.63,50.63,0,0,0,61.29,122.76Z"/></g></g></svg>