<svg xmlns="http://www.w3.org/2000/svg" viewBox="0 0 196.41 197.76"><defs><style>.cls-1{fill:#2e8be2;}.cls-2{fill:#2b89e1;}.cls-3{fill:#f9fbfd;}</style></defs><g id="Layer_2" data-name="Layer 2"><g id="Layer_1-2" data-name="Layer 1"><path class="cls-1" d="M19.06,186.24h3.06c23.56,0,47.11-.06,70.66,0a74.61,74.61,0,0,0,32.48-7.43c18.67-8.83,32-22.83,40.22-41.77a71.18,71.18,0,0,0,6.24-30.18c-.06-2.64,0-5.28,0-7.92a5.64,5.64,0,0,1,5.92-5.85,5.46,5.46,0,0,1,5.29,5.47c-.21,7.58,0,15.25-1.21,22.7a87.78,87.78,0,0,1-19.85,43.25A90,90,0,0,1,120.39,193a97.12,97.12,0,0,1-31.49,4.81c-27.54-.18-55.08,0-82.63-.07-4.18,0-6.88-3-6-6.92a8.22,8.22,0,0,1,2.11-3.63q9.18-9.79,18.53-19.42c1.24-1.27,1.46-2.09.24-3.56A90.52,90.52,0,0,1,.67,116.43c-4.79-38.8,16.4-77.55,51.51-94.16A94,94,0,0,1,98.43,13.5a5.87,5.87,0,0,1,5.73,5.9c0,2.9-2.86,5.44-6.15,5.45-3,0-6.06,0-9.1,0-13,0-25.11,3.74-36.35,10.08A79.88,79.88,0,0,0,16.47,76.86c-3.23,8.34-5.32,17-5,26.08.21,5.81.15,11.7,1.13,17.39a76.33,76.33,0,0,0,14.29,33c1.95,2.61,4.11,5.08,6.31,7.5,3.61,4,3.68,6.63,0,10.52-4.06,4.28-8.17,8.53-12.26,12.8C20.45,184.63,20,185.17,19.06,186.24Z"/><path class="cls-2" d="M158.36,0c20.94-.22,38.23,17.54,38,38.34-.17,20.17-14.85,38.15-38,38.13-21.63,0-37.78-16.1-37.91-38.2C120.32,15.64,138,0,158.36,0Zm-5.91,38.13c0,4.64,0,9.27,0,13.91A5.8,5.8,0,0,0,158,57.76c3.27.05,6.21-2.51,6.23-5.64q.09-13.78,0-27.57c0-3.24-2.72-5.52-6.23-5.46a5.61,5.61,0,0,0-5.55,5.61C152.44,29.18,152.45,33.65,152.45,38.13Z"/><path class="cls-2" d="M91.55,94.06H59.25a5.53,5.53,0,0,1-5.2-3.2C53,88.82,53,86.63,54.5,85c1.16-1.21,3-2.45,4.57-2.46,21.7-.16,43.39-.13,65.09-.09A5.77,5.77,0,0,1,124.1,94C113.25,94.09,102.4,94.05,91.55,94.06Z"/><path class="cls-2" d="M77.4,117c5.83,0,11.65,0,17.47,0,3.8,0,6.25,2.3,6.29,5.72s-2.46,5.86-6.4,5.87q-17.46,0-34.94,0c-3.86,0-6.52-2.46-6.45-5.86S56,117,59.69,117C65.59,117,71.5,117,77.4,117Z"/><path class="cls-1" d="M124.85,128.63c-3.45,0-5.7-1.45-6.48-4.16a5.68,5.68,0,0,1,2.78-6.74,8.22,8.22,0,0,1,7.78.11,5.36,5.36,0,0,1,2.78,5.43C131.51,126.65,129,128.65,124.85,128.63Z"/><path class="cls-3" d="M152.45,38.13c0-4.48,0-9,0-13.43A5.61,5.61,0,0,1,158,19.09c3.51-.06,6.21,2.22,6.23,5.46q.07,13.79,0,27.57c0,3.13-3,5.69-6.23,5.64A5.8,5.8,0,0,1,152.46,52C152.44,47.4,152.45,42.77,152.45,38.13Z"/></g></g></svg>