<svg xmlns="http://www.w3.org/2000/svg" viewBox="0 0 233.04 169.75"><defs><style>.cls-1{fill:#2a89e2;}.cls-2{fill:none;stroke:#60a1f1;stroke-miterlimit:10;stroke-width:2px;}</style></defs><g id="Layer_2" data-name="Layer 2"><g id="Layer_1-2" data-name="Layer 1"><g id="Group_768" data-name="Group 768"><path id="Path_561" data-name="Path 561" class="cls-1" d="M115.77,131.54a54.09,54.09,0,0,1-70.18-16l25.31.08s42.37,12.62,50.71-19.94a41.19,41.19,0,0,0-17.53-44.07l6.8-21a55.74,55.74,0,0,1,30,39c6,24.89-.33,49.76-25.17,62Z"/><path id="Path_562" data-name="Path 562" class="cls-1" d="M108,10.76,83.22,79a6.49,6.49,0,0,1-8.3,3.83l-5.53-2.07a6.46,6.46,0,0,1-3.82-8.3L90.39,4.22A6.47,6.47,0,0,1,98.69.4l5.53,2a6.47,6.47,0,0,1,3.83,8.3h0Z"/><path id="Path_563" data-name="Path 563" class="cls-1" d="M111.5,169.75H50.56a6.45,6.45,0,0,1-6.47-6.38v-5.81a6.43,6.43,0,0,1,6.47-6.38H111.5a6.43,6.43,0,0,1,6.47,6.37v5.82A6.46,6.46,0,0,1,111.5,169.75Z"/><path id="Path_564" data-name="Path 564" class="cls-1" d="M82,160a16.67,16.67,0,1,1,16.66-16.67v0A16.67,16.67,0,0,1,82,160Z"/><path id="Path_565" data-name="Path 565" class="cls-1" d="M17.2,108V98.52h72V108Z"/><path id="Path_566" data-name="Path 566" class="cls-1" d="M8.34,22.41A20.39,20.39,0,0,1,0,7.42l10.63-.67a56.75,56.75,0,0,0,3.6,5.73c1.57,1.67,3,1.8,3.95,3.17A40.05,40.05,0,0,0,8.34,22.41Z"/><path id="Path_567" data-name="Path 567" class="cls-1" d="M61.64,84.76l-10.39.65a19.27,19.27,0,0,0-1.08-8.48,20.22,20.22,0,0,0-5.45-7,45.85,45.85,0,0,0,8.78-5.89c0-.14.56-.58.52-.21A20.51,20.51,0,0,1,61.64,84.76Z"/><path id="Path_568" data-name="Path 568" class="cls-1" d="M42.38,67.85c-8.52,4.34-21.87,7.29-25.33,15.84a11.18,11.18,0,0,0-.48,3.9L5.08,88.3c.32-12.38,7.06-18.23,15.85-23.25,9.84-5.63,24.14-7.48,27.49-18.67l-.15.18a7.36,7.36,0,0,0,.17-1.81h.05a3,3,0,0,0-.11-.62,7.31,7.31,0,0,0-.69-2.32,5.24,5.24,0,0,0-1.58-2.3A24.32,24.32,0,0,0,37,33.94a44.38,44.38,0,0,0-10.65-3.09c4.83-2.81,11.39-4.1,16-7.13,8.05,4.06,16.1,8.24,17.6,18.9,1.82,13-8.5,20.65-17.53,25.26Z"/><path id="Path_569" data-name="Path 569" class="cls-1" d="M36.87,23.31c-9.15,4.16-20.14,6.37-23.14,16.23a7.71,7.71,0,0,0,.54,4.19h0A17.46,17.46,0,0,0,25,52h0a70.75,70.75,0,0,0,11,3.27,155.66,155.66,0,0,0-16.15,7c-8.6-4-17.9-9.31-17.77-21.59.1-10.69,8-17.2,16.09-21.75,9.22-5.2,20-6.85,25.61-14.23l12.75-.8A32,32,0,0,1,36.86,23.31Z"/><path id="Path_570" data-name="Path 570" class="cls-1" d="M15.5,44.87l-.22-3.46,30-1.86L45.47,43l-30,1.86Z"/><path id="Path_571" data-name="Path 571" class="cls-1" d="M16.51,39.69l-.24-3.46,21.23-1.5.24,3.46L16.51,39.68Z"/><path id="Path_572" data-name="Path 572" class="cls-1" d="M20.93,34l-.21-3.43,7.42-.46.22,3.46L20.93,34Z"/><path id="Path_573" data-name="Path 573" class="cls-1" d="M21.26,49.8,21,46.34l25.2-1.57.21,3.45Z"/><path id="Path_574" data-name="Path 574" class="cls-1" d="M31.81,54.59l-.21-3.45,11.68-.74.22,3.46Z"/><path id="Path_575" data-name="Path 575" class="cls-1" d="M22,82.15l-.22-3.46,28.32-1.78.22,3.46Z"/><path id="Path_576" data-name="Path 576" class="cls-1" d="M17.88,87.54l-.21-3.46L51.25,82l.22,3.46L17.89,87.54Z"/><path id="Path_577" data-name="Path 577" class="cls-1" d="M30,76.36l-.22-3.46,17-1.07L47,75.29,30,76.36Z"/><path id="Path_578" data-name="Path 578" class="cls-1" d="M13.15,10.15l-.22-3.44L41.25,4.92l.22,3.46L13.15,10.16Z"/><path id="Path_579" data-name="Path 579" class="cls-1" d="M17.91,15.14l-.21-3.46,10.23-.62.21,3.46-10.23.62Z"/><g id="Group_767" data-name="Group 767"><path id="Path_580" data-name="Path 580" class="cls-1" d="M17.91,15.14l-.21-3.46,10.23-.62.21,3.46-10.23.62Z"/><path id="Path_581" data-name="Path 581" class="cls-1" d="M13.15,10.15l-.22-3.44L41.25,4.92l.22,3.46L13.15,10.16Z"/><path id="Path_582" data-name="Path 582" class="cls-1" d="M30,76.36l-.22-3.46,17-1.07L47,75.29,30,76.36Z"/><path id="Path_583" data-name="Path 583" class="cls-1" d="M17.85,87.54l-.22-3.46L51.21,82l.22,3.46L17.84,87.54Z"/><path id="Path_584" data-name="Path 584" class="cls-1" d="M22,82.16l-.22-3.46,28.32-1.78.22,3.46Z"/><path id="Path_585" data-name="Path 585" class="cls-1" d="M31.81,54.6l-.22-3.46,11.69-.73.22,3.46Z"/><path id="Path_586" data-name="Path 586" class="cls-1" d="M21.27,49.8l-.22-3.46,25.19-1.57.22,3.45Z"/><path id="Path_587" data-name="Path 587" class="cls-1" d="M20.93,34l-.21-3.43,7.42-.46.22,3.46L20.93,34Z"/><path id="Path_588" data-name="Path 588" class="cls-1" d="M16.51,39.69l-.24-3.46,21.22-1.5.25,3.46L16.51,39.68Z"/><path id="Path_589" data-name="Path 589" class="cls-1" d="M15.5,44.87l-.22-3.46,30-1.86L45.46,43l-30,1.86Z"/><path id="Path_590" data-name="Path 590" class="cls-1" d="M36.87,23.31c-9.15,4.16-20.14,6.37-23.14,16.23a7.71,7.71,0,0,0,.54,4.19h0A17.46,17.46,0,0,0,25,52h0a70.75,70.75,0,0,0,11,3.27,155.66,155.66,0,0,0-16.15,7c-8.6-4-17.9-9.31-17.77-21.59.1-10.69,8-17.2,16.09-21.75,9.22-5.2,20-6.85,25.61-14.23l12.75-.8A32,32,0,0,1,36.86,23.31Z"/><path id="Path_591" data-name="Path 591" class="cls-1" d="M42.38,67.85c-8.52,4.34-21.87,7.29-25.33,15.84a10.94,10.94,0,0,0-.47,3.9l-11.5.71c.32-12.38,7.06-18.23,15.85-23.25,9.84-5.63,24.14-7.48,27.49-18.67l-.15.18a7.36,7.36,0,0,0,.17-1.81h.06a3.07,3.07,0,0,0-.12-.62,7.31,7.31,0,0,0-.69-2.32,5.24,5.24,0,0,0-1.58-2.3A24.32,24.32,0,0,0,37,33.94a44.25,44.25,0,0,0-10.65-3.09c4.83-2.81,11.39-4.1,16-7.13,8,4.06,16.09,8.24,17.59,18.9,1.82,13-8.5,20.65-17.53,25.26Z"/><path id="Path_592" data-name="Path 592" class="cls-1" d="M61.64,84.76l-10.39.65a19.27,19.27,0,0,0-1.08-8.48,20.22,20.22,0,0,0-5.45-7,45.85,45.85,0,0,0,8.78-5.89c0-.14.56-.58.52-.21A20.51,20.51,0,0,1,61.64,84.76Z"/><path id="Path_593" data-name="Path 593" class="cls-1" d="M8.34,22.42A20.43,20.43,0,0,1,0,7.42l10.63-.66a56.61,56.61,0,0,0,3.6,5.72c1.57,1.68,3,1.81,3.95,3.18A39.51,39.51,0,0,0,8.34,22.42Z"/></g></g><circle class="cls-2" cx="187.54" cy="121.41" r="44.5"/><g id="Layer_2-2" data-name="Layer 2"><g id="Layer_2-2-2" data-name="Layer 2-2"><path id="Path_594" data-name="Path 594" class="cls-1" d="M198.07,95.51c.25.3.5.59.74.89a14.5,14.5,0,0,1-2.16,20.38c-.35.28-.71.54-1.08.79a.31.31,0,0,0-.17.32l.08,5.25a.46.46,0,0,1-.14.38l-4.88,5,2.6,2.52-2.53,2.62,2.62,2.52-2.52,2.61,2.46,2.38a.4.4,0,0,1,.15.34c0,1.57,0,3.15.07,4.74a.46.46,0,0,1-.14.36l-4.75,4.91a.47.47,0,0,1-.35.15l-4.66.07-.23,0-2.67-2.58a1.77,1.77,0,0,0,0-.23l-.18-11.57L180,118.11a.3.3,0,0,0-.16-.29,14.51,14.51,0,0,1,15.4-24.59c.34.21.66.43,1,.67s.59.46.88.69Zm-12.4,53.67V149q-.22-12.62-.44-25.23a.5.5,0,0,0-.15-.32l-2.27-2.19-.17-.17v.22l.44,25.21a.51.51,0,0,0,.15.33l2.27,2.19Zm4.27-51.35a3.61,3.61,0,1,0,1.11,2.54A3.62,3.62,0,0,0,189.94,97.83Z"/></g></g></g></g></svg>