<svg xmlns="http://www.w3.org/2000/svg" viewBox="0 0 233.04 169.75"><defs><style>.cls-1{fill:#2a89e2;}.cls-2{fill:none;stroke:#60a1f1;stroke-miterlimit:10;stroke-width:2px;}.cls-3{fill:#f2f7fc;}.cls-4{fill:#f2f8fc;}.cls-5{fill:#338de2;}.cls-6{fill:#4195e4;}.cls-7{fill:#509ee6;}</style></defs><g id="Layer_2" data-name="Layer 2"><g id="Layer_1-2" data-name="Layer 1"><g id="Group_768" data-name="Group 768"><path id="Path_561" data-name="Path 561" class="cls-1" d="M115.77,131.54a54.09,54.09,0,0,1-70.18-16l25.31.08s42.37,12.62,50.71-19.94a41.19,41.19,0,0,0-17.53-44.07l6.8-21a55.74,55.74,0,0,1,30,39c6,24.89-.33,49.76-25.17,62Z"/><path id="Path_562" data-name="Path 562" class="cls-1" d="M108,10.76,83.22,79a6.49,6.49,0,0,1-8.3,3.83l-5.53-2.07a6.46,6.46,0,0,1-3.82-8.3L90.39,4.22A6.47,6.47,0,0,1,98.69.4l5.53,2a6.47,6.47,0,0,1,3.83,8.3h0Z"/><path id="Path_563" data-name="Path 563" class="cls-1" d="M111.5,169.75H50.56a6.45,6.45,0,0,1-6.47-6.38v-5.81a6.43,6.43,0,0,1,6.47-6.38H111.5a6.43,6.43,0,0,1,6.47,6.37v5.82A6.46,6.46,0,0,1,111.5,169.75Z"/><path id="Path_564" data-name="Path 564" class="cls-1" d="M82,160a16.67,16.67,0,1,1,16.66-16.67v0A16.67,16.67,0,0,1,82,160Z"/><path id="Path_565" data-name="Path 565" class="cls-1" d="M17.2,108V98.52h72V108Z"/><path id="Path_566" data-name="Path 566" class="cls-1" d="M8.34,22.41A20.39,20.39,0,0,1,0,7.42l10.63-.67a56.75,56.75,0,0,0,3.6,5.73c1.57,1.67,3,1.8,3.95,3.17A40.05,40.05,0,0,0,8.34,22.41Z"/><path id="Path_567" data-name="Path 567" class="cls-1" d="M61.64,84.76l-10.39.65a19.27,19.27,0,0,0-1.08-8.48,20.22,20.22,0,0,0-5.45-7,45.85,45.85,0,0,0,8.78-5.89c0-.14.56-.58.52-.21A20.51,20.51,0,0,1,61.64,84.76Z"/><path id="Path_568" data-name="Path 568" class="cls-1" d="M42.38,67.85c-8.52,4.34-21.87,7.29-25.33,15.84a11.18,11.18,0,0,0-.48,3.9L5.08,88.3c.32-12.38,7.06-18.23,15.85-23.25,9.84-5.63,24.14-7.48,27.49-18.67l-.15.18a7.36,7.36,0,0,0,.17-1.81h.05a3,3,0,0,0-.11-.62,7.31,7.31,0,0,0-.69-2.32,5.24,5.24,0,0,0-1.58-2.3A24.32,24.32,0,0,0,37,33.94a44.38,44.38,0,0,0-10.65-3.09c4.83-2.81,11.39-4.1,16-7.13,8.05,4.06,16.1,8.24,17.6,18.9,1.82,13-8.5,20.65-17.53,25.26Z"/><path id="Path_569" data-name="Path 569" class="cls-1" d="M36.87,23.31c-9.15,4.16-20.14,6.37-23.14,16.23a7.71,7.71,0,0,0,.54,4.19h0A17.46,17.46,0,0,0,25,52h0a70.75,70.75,0,0,0,11,3.27,155.66,155.66,0,0,0-16.15,7c-8.6-4-17.9-9.31-17.77-21.59.1-10.69,8-17.2,16.09-21.75,9.22-5.2,20-6.85,25.61-14.23l12.75-.8A32,32,0,0,1,36.86,23.31Z"/><path id="Path_570" data-name="Path 570" class="cls-1" d="M15.5,44.87l-.22-3.46,30-1.86L45.47,43l-30,1.86Z"/><path id="Path_571" data-name="Path 571" class="cls-1" d="M16.51,39.69l-.24-3.46,21.23-1.5.24,3.46L16.51,39.68Z"/><path id="Path_572" data-name="Path 572" class="cls-1" d="M20.93,34l-.21-3.43,7.42-.46.22,3.46L20.93,34Z"/><path id="Path_573" data-name="Path 573" class="cls-1" d="M21.26,49.8,21,46.34l25.2-1.57.21,3.45Z"/><path id="Path_574" data-name="Path 574" class="cls-1" d="M31.81,54.59l-.21-3.45,11.68-.74.22,3.46Z"/><path id="Path_575" data-name="Path 575" class="cls-1" d="M22,82.15l-.22-3.46,28.32-1.78.22,3.46Z"/><path id="Path_576" data-name="Path 576" class="cls-1" d="M17.88,87.54l-.21-3.46L51.25,82l.22,3.46L17.89,87.54Z"/><path id="Path_577" data-name="Path 577" class="cls-1" d="M30,76.36l-.22-3.46,17-1.07L47,75.29,30,76.36Z"/><path id="Path_578" data-name="Path 578" class="cls-1" d="M13.15,10.15l-.22-3.44L41.25,4.92l.22,3.46L13.15,10.16Z"/><path id="Path_579" data-name="Path 579" class="cls-1" d="M17.91,15.14l-.21-3.46,10.23-.62.21,3.46-10.23.62Z"/><g id="Group_767" data-name="Group 767"><path id="Path_580" data-name="Path 580" class="cls-1" d="M17.91,15.14l-.21-3.46,10.23-.62.21,3.46-10.23.62Z"/><path id="Path_581" data-name="Path 581" class="cls-1" d="M13.15,10.15l-.22-3.44L41.25,4.92l.22,3.46L13.15,10.16Z"/><path id="Path_582" data-name="Path 582" class="cls-1" d="M30,76.36l-.22-3.46,17-1.07L47,75.29,30,76.36Z"/><path id="Path_583" data-name="Path 583" class="cls-1" d="M17.85,87.54l-.22-3.46L51.21,82l.22,3.46L17.84,87.54Z"/><path id="Path_584" data-name="Path 584" class="cls-1" d="M22,82.16l-.22-3.46,28.32-1.78.22,3.46Z"/><path id="Path_585" data-name="Path 585" class="cls-1" d="M31.81,54.6l-.22-3.46,11.69-.73.22,3.46Z"/><path id="Path_586" data-name="Path 586" class="cls-1" d="M21.27,49.8l-.22-3.46,25.19-1.57.22,3.45Z"/><path id="Path_587" data-name="Path 587" class="cls-1" d="M20.93,34l-.21-3.43,7.42-.46.22,3.46L20.93,34Z"/><path id="Path_588" data-name="Path 588" class="cls-1" d="M16.51,39.69l-.24-3.46,21.22-1.5.25,3.46L16.51,39.68Z"/><path id="Path_589" data-name="Path 589" class="cls-1" d="M15.5,44.87l-.22-3.46,30-1.86L45.46,43l-30,1.86Z"/><path id="Path_590" data-name="Path 590" class="cls-1" d="M36.87,23.31c-9.15,4.16-20.14,6.37-23.14,16.23a7.71,7.71,0,0,0,.54,4.19h0A17.46,17.46,0,0,0,25,52h0a70.75,70.75,0,0,0,11,3.27,155.66,155.66,0,0,0-16.15,7c-8.6-4-17.9-9.31-17.77-21.59.1-10.69,8-17.2,16.09-21.75,9.22-5.2,20-6.85,25.61-14.23l12.75-.8A32,32,0,0,1,36.86,23.31Z"/><path id="Path_591" data-name="Path 591" class="cls-1" d="M42.38,67.85c-8.52,4.34-21.87,7.29-25.33,15.84a10.94,10.94,0,0,0-.47,3.9l-11.5.71c.32-12.38,7.06-18.23,15.85-23.25,9.84-5.63,24.14-7.48,27.49-18.67l-.15.18a7.36,7.36,0,0,0,.17-1.81h.06a3.07,3.07,0,0,0-.12-.62,7.31,7.31,0,0,0-.69-2.32,5.24,5.24,0,0,0-1.58-2.3A24.32,24.32,0,0,0,37,33.94a44.25,44.25,0,0,0-10.65-3.09c4.83-2.81,11.39-4.1,16-7.13,8,4.06,16.09,8.24,17.59,18.9,1.82,13-8.5,20.65-17.53,25.26Z"/><path id="Path_592" data-name="Path 592" class="cls-1" d="M61.64,84.76l-10.39.65a19.27,19.27,0,0,0-1.08-8.48,20.22,20.22,0,0,0-5.45-7,45.85,45.85,0,0,0,8.78-5.89c0-.14.56-.58.52-.21A20.51,20.51,0,0,1,61.64,84.76Z"/><path id="Path_593" data-name="Path 593" class="cls-1" d="M8.34,22.42A20.43,20.43,0,0,1,0,7.42l10.63-.66a56.61,56.61,0,0,0,3.6,5.72c1.57,1.68,3,1.81,3.95,3.18A39.51,39.51,0,0,0,8.34,22.42Z"/></g></g><circle class="cls-2" cx="187.54" cy="121.41" r="44.5"/><path class="cls-3" d="M188.3,132c-2,1.3-3.19.51-4.3-1C185.87,129.45,187,130.52,188.3,132Z"/><path class="cls-4" d="M186.65,107c-.32,1.11-.63,2.22-1,3.59C183.44,108.6,183.49,108.36,186.65,107Z"/><path class="cls-5" d="M210,136l-2-.33c-4.11-.69-6.64,2-5.56,6.06.39,1.44.09,2.3-1.3,2.82s-2.51,1-3.76,1.55c-3.58,1.45-3.58,1.45-6.22-1.41a4.6,4.6,0,0,0-7.41.62c-1.32,2.13-2.67,2.36-4.72,1.33a47.17,47.17,0,0,0-4.66-1.87c-1.45-.55-1.85-1.5-1.53-3,.92-4.34-1.82-7-6.09-5.89-1.67.44-2.55,0-3.17-1.53-.74-1.85-1.56-3.67-2.42-5.47-.65-1.36-.22-2.21,1-3,4.2-2.66,4.19-6.12-.05-8.61-1.28-.76-1.65-1.59-1-2.94.5-1.09.9-2.22,1.37-3.32,1.6-3.72,1.6-3.72,5.47-3.47,3.56.23,5.93-2.61,4.85-6-.55-1.72-.27-2.71,1.49-3.32,2-.69,3.86-1.51,5.76-2.36a2.13,2.13,0,0,1,3,1c2.91,4.3,6.16,4.2,9.14,0a3.15,3.15,0,0,1,2.71-1,61.38,61.38,0,0,1,6.23,2.39c1.39.54,1.64,1.48,1.3,2.87-1.08,4.55,1.43,7.06,6.06,6.05,1.68-.37,2.77,0,3.37,1.71.37,1,.86,2.06,1.3,3.09,1.54,3.6,1.54,3.6-1.44,6.07a4.33,4.33,0,0,0,.73,7.38c2.09,1.1,2.29,2.33,1.32,4.23-.79,1.57-1.35,3.25-2.18,4.79A7.15,7.15,0,0,1,210,136Zm-.7-3.19a25.46,25.46,0,0,0,1.42-3.43,2.27,2.27,0,0,0-.5-1.9c-4.16-3.74-4.2-8.16-.07-11.91a2.21,2.21,0,0,0,.82-1.49c-.2-2.45-1.77-3.5-4.21-3.81a11.12,11.12,0,0,1-5-1.88c-2.63-1.92-3.19-4.79-2.33-7.88A26.3,26.3,0,0,0,195.71,99a2.43,2.43,0,0,0-2,.55c-4.19,4.24-8.27,4.26-12.39.07a2.43,2.43,0,0,0-2-.61,25.11,25.11,0,0,0-3.66,1.55c.9,6.07-2.36,10.14-8,9.69-2.41-.19-2.41,1.43-3.14,2.72s-.37,2.2.8,3.2c3.72,3.14,3.77,7.85,0,10.92-1.51,1.22-1.1,2.15-.47,3.41s.68,2.66,2.87,2.33a7.23,7.23,0,0,1,8.27,7.67c-.09,1.63.43,2.35,1.86,2.69s2.58,1.7,4.16-.23a7.24,7.24,0,0,1,11-.35c1.4,1.51,2.5,1.56,4.07.7a25,25,0,0,1,2.33-1C198.4,135.92,202.25,132.19,209.3,132.82Z"/><path class="cls-6" d="M183.71,106.18a4.7,4.7,0,0,0-1.08.83,6.42,6.42,0,0,0-.57,1.4c.48.15,1,.53,1.42.4a15,15,0,0,1,9.59.41c.87.29,2-.11,3.67-.26l-4.34-2.59c4.64-.65,11.83,6.7,11.38,11.26l-3-1.8c.14,2.94.55,5.31.3,7.6a12.61,12.61,0,0,1-5.87,9.17,16.57,16.57,0,0,0-2.13,2.14l.62.85,5.2-2.71c-.36,3.27-8.44,5.93-14.64,4.71-7-1.37-13.62-7.88-12.84-12.22l2.77,1.57.53-.46a13.8,13.8,0,0,1,.74-11.58c.27-.47-.24-1.37-.55-2.82l-2.58,4.13-.78-.3a23.52,23.52,0,0,1,1.79-3.71c2.51-3.51,5.76-6,10.08-6.62Zm3.95,27.34c7.07,0,12.39-5.22,12.38-12.1a12.47,12.47,0,0,0-24.93.15C175.13,128.35,180.57,133.54,187.66,133.52Zm13.55-18,.8-1.33-3-1.68-.67,1.12ZM191.74,134l-3.2,2.14.55.84C189.92,135.83,192.36,137.35,191.74,134Zm7.41-21.93.36-1.33L196,109.8l-.33,1.16Zm-16.08,23.2.08-1.43-3.61-.18-.09,1.18Zm.72.12.16.87c1.28-.3,3.21,1.64,3.91-1.61Zm-6.53-21.91L178,110C176.16,110.59,174.8,111.26,177.26,113.46Zm-.95,17.37-.44,1.35,3.23,1,.38-1.13Z"/><path class="cls-7" d="M192.43,121.57a4.86,4.86,0,1,1-4.78-4.91A4.85,4.85,0,0,1,192.43,121.57Zm-4.89-3.95a3.82,3.82,0,1,0,3.94,3.66A3.77,3.77,0,0,0,187.54,117.62Z"/></g></g></svg>