<svg xmlns="http://www.w3.org/2000/svg" viewBox="0 0 166.85 199.07"><defs><style>.cls-1{fill:#2c8ae1;}.cls-2{fill:#2b89e1;}.cls-3{fill:#3d93e4;}.cls-4{fill:#3991e3;}.cls-5{fill:none;stroke:#60a1f1;stroke-miterlimit:10;stroke-width:2px;}</style></defs><g id="Layer_2" data-name="Layer 2"><g id="Layer_1-2" data-name="Layer 1"><path class="cls-1" d="M87.59,186.58c-.84.09-1.45.2-2.06.2-18.28,0-36.56.18-54.84-.08C20,186.54,11.2,182.19,5.15,173.09a31,31,0,0,1-5.13-17c-.2-13.84,1.4-27.47,6.48-40.44,3.87-9.87,9.69-18.38,19.94-22.46,4.36-1.74,9.2-2.45,13.9-3,1.92-.23,4.18.86,6,1.85,3.15,1.7,6,3.88,9.12,5.72,15.31,9.16,30.53,8.78,45.62-.58a30.65,30.65,0,0,0,3.79-2.5c7.52-6.46,15.63-5.09,23.82-1.78,9.73,3.93,15.41,11.76,19.61,20.93.33.7.59,1.43.94,2.3-25.42-14-48.56-12.11-65.88,12.06C69.42,147.65,72.75,167.8,87.59,186.58Z"/><path class="cls-2" d="M31.82,45.55c0-13.54,4.59-24.07,13.38-32.87,10-10,22.11-13.16,36-12.62C98.31.72,121.76,18,121.51,45A45.11,45.11,0,0,1,76.25,89.92C51.78,90,31,68.69,31.82,45.55Z"/><path class="cls-3" d="M122.6,172.83c-3.43,0-6.86,0-10.28,0-3.22,0-4.78-1.53-4.79-4.67,0-4.22-.16-8.44.09-12.64a5.38,5.38,0,0,1,2-3.85c1.65-1,1.69-2.13,1.68-3.65a11.28,11.28,0,0,1,9.9-11.44c5.21-.77,10.75,3.05,12.19,8.44a6.37,6.37,0,0,1,.26,2.07c-.18,2.14,0,3.89,2.35,5a3.65,3.65,0,0,1,1.33,2.76c.13,4.68.09,9.36,0,14.05,0,2.43-1.65,3.93-4.23,4C129.6,172.86,126.1,172.83,122.6,172.83Zm-.25-3.7c3,0,6.06-.06,9.08,0,1.55,0,2.28-.4,2.23-2.11-.1-3.42-.08-6.85,0-10.27,0-1.45-.39-2.14-2-2.12q-9.2.09-18.4,0c-1.55,0-2,.58-1.91,2.11.14,3.41.17,6.84,0,10.26-.09,1.77.58,2.16,2.13,2.12C116.45,169.08,119.4,169.12,122.35,169.13Zm.27-18.14c1.87,0,3.74.07,5.6,0,.57,0,1.45-.45,1.6-.89,1.69-5-3.39-10.67-8.5-9.61-4.35.9-5.95,3.25-6.22,8.74-.07,1.42.44,1.82,1.69,1.81C118.73,151,120.68,151,122.62,151Z"/><path class="cls-4" d="M122.41,165.48a3.81,3.81,0,0,1-3.69-3.51,3.77,3.77,0,0,1,3.77-3.66,3.59,3.59,0,1,1-.08,7.17Z"/><circle class="cls-5" cx="122.43" cy="154.66" r="43.42"/></g></g></svg>