<svg xmlns="http://www.w3.org/2000/svg" viewBox="0 0 145.73 206.03"><defs><style>.cls-1{fill:#2d8ae2;}.cls-2{fill:#318ce2;}.cls-3{fill:#328de2;}.cls-4{fill:#308ce2;}.cls-5{fill:#3890e3;}</style></defs><g id="Layer_2" data-name="Layer 2"><g id="Layer_1-2" data-name="Layer 1"><path class="cls-1" d="M53.52,20a47.72,47.72,0,0,1-6.43-1A9.48,9.48,0,0,1,40.6,8.32,9.68,9.68,0,0,1,49.8.05c6.29,0,12.58.14,18.87.19C69.77.25,70.88,0,72,0Q83.67,0,95.35,0a9.72,9.72,0,0,1,9.93,10.06c0,5.37-4.29,9.54-9.91,9.56-3.28,0-3.28,0-3.28,3.26,0,6.78,0,13.57,0,20.35,0,5.44.21,10.87.2,16.3a2.26,2.26,0,0,0,2,2.49,69,69,0,0,1,25.39,14,73.3,73.3,0,0,1,21.91,32.28c6,17.64,5.54,35.07-1.52,52.15-8.2,19.86-22.6,33.66-42.73,41.1a68.22,68.22,0,0,1-46.45.78c-23-7.79-38.71-23.39-46.81-46.47a69.19,69.19,0,0,1-2.81-36.38c4.42-23,16.85-40.6,37.44-52,4-2.22,8.47-3.64,12.78-5.27,1.57-.6,2.27-1.31,2.24-3.08-.13-8.54-.15-17.08-.19-25.62C53.5,29,53.52,24.45,53.52,20Zm26-.48c-4.28,0-8,0-11.76,0-1.23,0-1.68.48-1.58,1.75.16,2.3.26,4.62.24,6.92,0,5.27-.2,10.54-.23,15.81,0,8.77,0,17.55-.07,26.32A2.16,2.16,0,0,1,65,71.91a53.72,53.72,0,0,1-5.73,1.67c-8,2-15.54,5.16-21.92,10.33-20.86,16.92-29,38.67-21.83,64.79C22,172.1,38,186.42,61.68,191.61a55.08,55.08,0,0,0,38.26-5.46c18.2-9.59,28.69-25,32.2-45A57,57,0,0,0,130.29,115a61.25,61.25,0,0,0-16-26.55C105.17,79.54,94,74.78,81.87,72c-2.1-.48-2.62-1.39-2.56-3.44.15-5,0-10.05,0-15.07,0-6.15.15-12.3.19-18.45C79.58,30,79.56,25,79.56,19.51Zm-6.93-6.34h22c2.68,0,4.09-1.14,4.15-3.22.07-2.33-1.18-3.35-4.16-3.36h-44c-2.18,0-3.47,1.07-3.52,3.32,0,2,1.34,3.23,3.87,3.24C58.14,13.21,65.39,13.17,72.63,13.17Z"/><path class="cls-2" d="M90.68,137.11c-7.86-.11-13-5.57-12.85-13.82.07-6.51,6-12.29,12.62-12.24,7.66,0,13.19,5.77,13.06,13.48A12.41,12.41,0,0,1,90.68,137.11Zm-.2-6.47a6.38,6.38,0,0,0,6.68-6.1c.23-3.13-3.93-6.94-7.32-6.93a6.2,6.2,0,0,0-6,6.39A6.65,6.65,0,0,0,90.48,130.64Z"/><path class="cls-3" d="M28.88,122.29c-2.17,0-3.34-1.83-2.72-4.06,2.7-9.83,8.44-17.69,16.19-24A78.34,78.34,0,0,1,53.2,87.26c2.09-1.21,4.14-.54,4.93,1.18.71,1.56-.14,3.31-2.3,4.38a43.93,43.93,0,0,0-23,26A4.54,4.54,0,0,1,28.88,122.29Z"/><path class="cls-4" d="M71,163.15a8.69,8.69,0,0,1-9.2-8.29c-.22-6.44,3.34-10.84,8.93-11.05a9.7,9.7,0,0,1,10.16,9.53C81,158.68,76.71,163,71,163.15Zm.17-12.89a3.46,3.46,0,0,0-3.07,3.57c.1,1.65,1.78,3.29,3.3,3.08a3.57,3.57,0,0,0,3.17-3.35C74.78,152,72.82,150.2,71.16,150.26Z"/><path class="cls-5" d="M24.81,143.13a3.51,3.51,0,0,1-3.42-3.31,3.62,3.62,0,0,1,3.22-3.31A3.62,3.62,0,0,1,28,139.86,3.52,3.52,0,0,1,24.81,143.13Z"/></g></g></svg>