<svg xmlns="http://www.w3.org/2000/svg" viewBox="0 0 177.4 213.19"><defs><style>.cls-1{fill:#2a89e1;}</style></defs><g id="Layer_2" data-name="Layer 2"><g id="Layer_1-2" data-name="Layer 1"><path class="cls-1" d="M88.82,213.16c-17.8,0-35.6.07-53.4,0-15.71-.08-28.89-9.52-33.32-23.77A46.3,46.3,0,0,1,0,173.53c.56-13.31,2.08-26.46,6.59-39.08,2.74-7.67,6.61-14.73,12.47-20.52,7.68-7.61,17.17-10.83,27.77-10.91a12.14,12.14,0,0,1,5.59,1.84c3.34,1.86,6.48,4.08,9.73,6.1q26.84,16.74,53.62-.1c2.37-1.48,4.81-2.89,7-4.58,4.5-3.44,9.44-3.68,14.77-2.82,13.49,2.19,22.91,9.79,29.38,21.54a80.23,80.23,0,0,1,9.16,30.58c.9,8.55,1.66,17.26,1,25.79-1.43,18.82-15.84,31.66-34.71,31.77C124.57,213.24,106.69,213.16,88.82,213.16Z"/><path class="cls-1" d="M87.63,0c25.63-1.1,51.24,21.24,51.2,51.11a51.23,51.23,0,0,1-51.4,51.56c-28.33-.07-50.87-22.92-51.08-51.39C36.13,22,61.5-1.1,87.63,0Z"/></g></g></svg>