<svg xmlns="http://www.w3.org/2000/svg" viewBox="0 0 188.12 161.6"><defs><style>.cls-1{fill:#2a89e1;}.cls-2{fill:#2b89e1;}.cls-3{fill:#087fb8;}.cls-4{fill:#0a80b8;}.cls-5{fill:none;stroke:#60a1f1;stroke-miterlimit:10;stroke-width:2px;}</style></defs><g id="Layer_2" data-name="Layer 2"><g id="Layer_1-2" data-name="Layer 1"><path class="cls-1" d="M103.94,76.7c-17.85,26.94-17.6,53.37.84,79.83H26.22C10.83,156.52.13,145.66,0,130.21c-.1-11.45,1-22.69,5.34-33.39,3.59-8.9,9-16.28,18.59-19.41a39.43,39.43,0,0,1,9.84-1.72c1.67-.09,3.52.85,5.1,1.68,5,2.63,9.69,6,14.89,8.06,10.44,4.2,20.51,2.27,30-3.36a57.44,57.44,0,0,0,6-3.91C94.25,74.7,99,75.43,103.94,76.7Z"/><path class="cls-2" d="M64.14.05c18.63-1,37.71,15.75,37.56,37.56C101.55,58.67,85,75.44,64,75.41a37.64,37.64,0,0,1-37.58-37.7C26.29,15.53,45.59-1,64.14.05Z"/><path class="cls-3" d="M166.48,140H156.7c-.06-.7-.16-1.38-.16-2.05,0-4.56,0-9.12,0-13.67a25,25,0,0,0-.34-4c-.37-2.27-1.58-3.81-4-4.07-2.89-.3-5,.68-5.83,3.08a17.71,17.71,0,0,0-.79,5.17c-.1,5.1,0,10.21,0,15.51h-9.76V108.26H145v4.17c2.76-3.73,6-5.19,10-5.12,6.54.13,10.29,3.3,11.05,9.88.44,3.79.35,7.65.41,11.48C166.53,132.34,166.48,136,166.48,140Z"/><path class="cls-4" d="M119.52,108.23h9.69V140h-9.69Z"/><path class="cls-3" d="M118.75,98a5.6,5.6,0,0,1,5.71-5.78,5.76,5.76,0,0,1,0,11.51A5.58,5.58,0,0,1,118.75,98Z"/><circle class="cls-5" cx="142.62" cy="116.1" r="44.5"/></g></g></svg>