<svg xmlns="http://www.w3.org/2000/svg" viewBox="0 0 209.81 150.38"><defs><style>.cls-1{fill:#2b89e1;}.cls-2{fill:#2d8ae2;}.cls-3{fill:#2c8ae1;}.cls-4{fill:#308ce2;}.cls-5{fill:none;stroke:#60a1f1;stroke-miterlimit:10;stroke-width:2px;}.cls-6{fill:#2f8be2;}.cls-7{fill:#2e8be2;}.cls-8{fill:#3890e3;}.cls-9{fill:#eef5fc;}.cls-10{fill:#f0f6fc;}.cls-11{fill:#eff6fc;}.cls-12{fill:#fefefe;}.cls-13{fill:#348ee2;}.cls-14{fill:#338de2;}.cls-15{fill:#4195e4;}.cls-16{fill:#509ee6;}</style></defs><g id="Layer_2" data-name="Layer 2"><g id="Layer_1-2" data-name="Layer 1"><path class="cls-1" d="M33.46,97c8.78.55,17.59-.71,26.36,1.24a41.36,41.36,0,0,0,18.29-.11C89.19,95.56,96,87.78,97.37,76.42,99,63.15,93.79,52.91,83.76,44.77c-1.39-1.13-1.78-2-1.18-3.72,1.74-5,3.29-10,5-15.34,1.32.68,2.54,1.19,3.64,1.88,12,7.54,18.79,18.6,21.84,32.2,2,8.95,2.22,17.93-.56,26.77-4.26,13.49-13.86,21.64-26.75,26.37-2,.74-4.06,1.35-6.24,2.07,1.53,4,1.19,7.74-.62,11.83,4,0,7.69,0,11.38,0,4.34,0,6.4,2.08,6.46,6.47.1,8.14-1.08,9.34-9.16,9.34h-46c-4.82,0-6.57-1.87-6.76-6.62-.3-7.31,1.07-9.65,9.18-9.22,3.26.17,6.54,0,10.09,0-1.91-4.51-2-8.9-.1-13-3.91-2.41-7.89-4.46-11.41-7.14s-6.43-5.9-9.62-8.89Z"/><path class="cls-2" d="M14.47,75.45l-1,3-9.11.59A17.49,17.49,0,0,1,6.82,69c3-5.21,8-8.19,13.17-10.73,3.57-1.75,7.31-3.16,10.93-4.83a16.57,16.57,0,0,0,4.3-2.89,34.91,34.91,0,0,0-5.32.08c-.8.13-1.38,1.33-2.21,1.71-3.41,1.54-6.87,3-10.34,4.36a2.6,2.6,0,0,1-2-.07,58,58,0,0,1-7.15-4.31A16.32,16.32,0,0,1,5.5,28.55c4.28-5.2,10-8.37,16.18-10.67l1.91-1,9.21-4.1-.22-.74L11.09,13.53l0,0-.39-1c-.25-1.57.52-2.08,2-2.16,6.69-.36,13.37-.82,20-1.16a8,8,0,0,1,2.44.87c3.19-2.69,7.59-1,12.24-2.13-.85,2-1.33,3.42-2.08,4.74-2.73,4.84-7,8.06-11.85,10.43-4.15,2-8.44,3.74-12.65,5.62-.78.34-1.53.77-2.29,1.15l.15.68a37.67,37.67,0,0,0,5.75-1.09c3.37-1.2,6.61-2.75,9.94-4.07a2.54,2.54,0,0,1,2,0,55.55,55.55,0,0,1,8.06,5.07c7.31,6.18,7.86,16.46,1.5,23.7-3.84,4.36-8.79,7.06-14,9.32a25.38,25.38,0,0,0-4.6,2.37l11.14-.49.9.29-.23,2.45L25.28,69l-.68-2.8-7.29,5-2.88,4.35ZM37.9,38l0,0c-.15-.33-.22-.78-.48-1a34,34,0,0,0-13.6-5.84c-.67,2.19-1.69,2.46-6.28,1.85L17,30.51a46.26,46.26,0,0,0-4,4.37c-2.48,3.58-2.08,7.06,1,9.83,3.49,3.17,7.85,4.42,12.34,5.71l.27-2.54,9.22-.53,1,2.89A45,45,0,0,0,40,45,5.46,5.46,0,0,0,37.9,38Z"/><path class="cls-3" d="M88.76,7.42c-.21.71-.42,1.64-.74,2.53q-10,27.45-19.94,54.87c-1.69,4.66-4.06,5.73-8.7,4.05C52,66.19,51.31,64.82,54,57.41L73,5c1.76-4.84,4.25-6,9-4.22,1.2.44,2.42.84,3.56,1.39C87.69,3.17,88.63,4.92,88.76,7.42Z"/><path class="cls-4" d="M12.59,90.57V82.83H72.5v7.74Z"/><path class="cls-5" d="M163.82,58.8a45.29,45.29,0,1,1-45.44,44.87A45.19,45.19,0,0,1,163.82,58.8Zm-44.24,45a44.11,44.11,0,0,0,88.22.51C208,80.2,188.15,60,164.12,59.81A44.09,44.09,0,0,0,119.58,103.84Z"/><path class="cls-6" d="M39.34,65.69l-.9-.29c-.24-.6-.47-1.21-.69-1.77Q41.4,61.15,45,58.71c4.86,3.07,8,10.35,6.69,16a2.81,2.81,0,0,1-2.12,1.49c-8.65.63-17.31,1.13-26,1.67l-8.59.54c-.22-1.12-.41-2-.59-3l0,0q9.3-.55,18.58-1.11c2.78-.17,5.56-.33,8.33-.61.52,0,1-.64,1.48-1l-.39-.42L18.36,73.91l-.14-2.78,24-1.68Z"/><path class="cls-7" d="M14.45,18.35,6.73,23.54A16.17,16.17,0,0,1,0,11.24a76.15,76.15,0,0,1,7.7-.46c.82,0,1.61,1.18,2.41,1.82l1,1,0,0,3.36,4Z"/><path class="cls-8" d="M14.45,18.35v-.84c.23-.86.47-1.73.78-2.86h8l.35,2.24-1.91,1Z"/><path class="cls-9" d="M11.12,13.56l-1-1,.62,0Z"/><path class="cls-10" d="M37.9,38A5.46,5.46,0,0,1,40,45a45,45,0,0,1-3.27,5.27l-1-2.89-9.22.53-.27,2.54c-4.49-1.29-8.85-2.54-12.34-5.71-3.07-2.77-3.47-6.25-1-9.83a46.26,46.26,0,0,1,4-4.37l.6,2.58c4.59.61,5.61.34,6.28-1.85a34,34,0,0,1,13.6,5.84c.26.19.33.64.48,1-7.62.5-15.24,1.05-22.87,1.45-2.18.11-2.63.91-1.78,3.07L37.9,41Zm.67,7.41.62-.93c-.62-.6-1.26-1.75-1.85-1.73-6.51.25-13,.69-19.7,1.08l.24,2.89ZM31.19,34.12,13.54,35.4l.24,2.83L31.49,37Z"/><path class="cls-9" d="M23.59,16.89l-.35-2.24h-8c-.31,1.13-.55,2-.78,2.86l-3.36-4,21.49-1.48.22.74Z"/><path class="cls-11" d="M39.34,65.69l2.84,3.76-24,1.68h-.91l7.29-5,.68,2.8,13.83-.81Z"/><path class="cls-12" d="M17.31,71.14h.91c0,.86.08,1.72.14,2.78l24.07-1.54.39.42c-.49.34-1,.93-1.48,1-2.77.28-5.55.44-8.33.61q-9.28.57-18.58,1.11Z"/><path class="cls-13" d="M37.9,38v3L13.28,42.57c-.85-2.16-.4-3,1.78-3.07,7.63-.4,15.25-1,22.87-1.45Z"/><path class="cls-13" d="M38.57,45.43,17.88,46.74l-.24-2.89c6.69-.39,13.19-.83,19.7-1.08.59,0,1.23,1.13,1.85,1.73Z"/><path class="cls-13" d="M31.19,34.12l.3,2.88L13.78,38.23l-.24-2.83Z"/><path class="cls-14" d="M185.72,118.52l-2-.33c-4.12-.69-6.65,2-5.56,6.06.38,1.44.08,2.3-1.31,2.82s-2.5,1-3.76,1.55c-3.58,1.45-3.58,1.45-6.22-1.41a4.59,4.59,0,0,0-7.4.62c-1.32,2.13-2.67,2.36-4.73,1.33a47.17,47.17,0,0,0-4.66-1.87c-1.45-.55-1.85-1.5-1.52-3,.92-4.34-1.82-7-6.1-5.89-1.66.44-2.55,0-3.16-1.53-.75-1.85-1.57-3.67-2.43-5.47-.65-1.36-.22-2.21,1-3,4.2-2.66,4.19-6.12,0-8.61-1.29-.76-1.66-1.59-1-2.94.5-1.09.91-2.22,1.38-3.32,1.59-3.72,1.6-3.72,5.47-3.47,3.56.23,5.92-2.61,4.84-6-.55-1.72-.27-2.71,1.5-3.32,2-.69,3.86-1.51,5.75-2.36a2.13,2.13,0,0,1,3,1c2.91,4.3,6.17,4.2,9.15,0a3.13,3.13,0,0,1,2.7-1,59.62,59.62,0,0,1,6.23,2.39c1.4.54,1.64,1.48,1.31,2.87-1.08,4.55,1.42,7.06,6.05,6,1.69-.37,2.78,0,3.37,1.71.37,1,.87,2.06,1.31,3.09,1.54,3.6,1.54,3.6-1.44,6.08a4.32,4.32,0,0,0,.72,7.37c2.1,1.1,2.29,2.33,1.33,4.23-.8,1.57-1.36,3.25-2.19,4.79A6.94,6.94,0,0,1,185.72,118.52Zm-.7-3.19a25.5,25.5,0,0,0,1.43-3.43,2.27,2.27,0,0,0-.51-1.9c-4.16-3.74-4.2-8.16-.06-11.91a2.24,2.24,0,0,0,.81-1.49c-.2-2.45-1.77-3.5-4.21-3.8a11.25,11.25,0,0,1-5-1.89c-2.63-1.92-3.19-4.79-2.32-7.88a26.3,26.3,0,0,0-3.73-1.49,2.45,2.45,0,0,0-2,.55c-4.18,4.24-8.26,4.26-12.38.07a2.47,2.47,0,0,0-2-.61,24.54,24.54,0,0,0-3.65,1.55c.9,6.07-2.36,10.14-8,9.69-2.41-.19-2.41,1.43-3.13,2.72s-.38,2.2.8,3.2c3.71,3.14,3.76,7.85,0,10.92-1.52,1.22-1.11,2.15-.47,3.41s.67,2.66,2.87,2.33a7.22,7.22,0,0,1,8.26,7.67c-.09,1.64.43,2.35,1.86,2.7s2.59,1.69,4.16-.24a7.24,7.24,0,0,1,11-.35c1.4,1.51,2.51,1.56,4.07.7.76-.41,1.58-.69,2.33-1C174.12,118.43,178,114.7,185,115.33Z"/><path class="cls-15" d="M159.44,88.69a4.31,4.31,0,0,0-1.08.83,6,6,0,0,0-.57,1.4c.47.15,1,.53,1.42.4a15,15,0,0,1,9.58.41c.87.29,2-.11,3.67-.26l-4.33-2.59c4.64-.65,11.83,6.7,11.37,11.26l-2.95-1.8c.13,2.94.54,5.31.29,7.6a12.55,12.55,0,0,1-5.86,9.17,15.39,15.39,0,0,0-2.13,2.14l.61.85,5.2-2.71c-.35,3.27-8.43,5.93-14.64,4.71-6.94-1.37-13.62-7.88-12.84-12.22l2.78,1.57.53-.46a13.76,13.76,0,0,1,.74-11.58c.26-.47-.24-1.37-.55-2.82l-2.59,4.13-.78-.3a23.56,23.56,0,0,1,1.8-3.71c2.51-3.51,5.75-6,10.07-6.61ZM163.38,116c7.07,0,12.4-5.22,12.39-12.09a12.48,12.48,0,0,0-24.94.14C150.85,110.86,156.3,116.05,163.38,116Zm13.56-18,.8-1.33-3-1.68-.67,1.12Zm-9.47,18.48-3.2,2.14.54.84C165.64,118.34,168.08,119.86,167.47,116.49Zm7.4-21.93.36-1.33-3.56-.92-.32,1.16Zm-16.08,23.2.09-1.43-3.61-.18-.1,1.18Zm.73.12.15.87c1.29-.3,3.21,1.64,3.92-1.61ZM153,96l.77-3.43C151.89,93.1,150.53,93.77,153,96ZM152,113.34l-.45,1.35,3.23,1,.38-1.13Z"/><path class="cls-16" d="M168.16,104.08a4.87,4.87,0,1,1-4.78-4.91A4.86,4.86,0,0,1,168.16,104.08Zm-4.9-4a3.82,3.82,0,1,0,3.94,3.66A3.77,3.77,0,0,0,163.26,100.13Z"/></g></g></svg>