<svg xmlns="http://www.w3.org/2000/svg" viewBox="0 0 204.07 192.92"><defs><style>.cls-1{fill:#2d8ae1;}.cls-2{fill:#2b89e1;}.cls-3{fill:#2a89e1;}.cls-4{fill:#308ce2;}.cls-5{fill:#2d8ae2;}</style></defs><g id="Layer_2" data-name="Layer 2"><g id="Layer_1-2" data-name="Layer 1"><path class="cls-1" d="M141.88,83V53.31c-2.49,0-4.78,0-7.06,0-5.66-.11-11.41.35-17-.49C106.43,51.09,98.48,41.5,98.23,29.89c-.14-6.06,0-12.13,0-18.45-1,0-1.86-.13-2.7-.13H25.32c-9.12,0-14,4.93-14,14.09q0,70.92,0,141.85c0,9.31,4.92,14.26,14.16,14.26H127.71c9.2,0,14.15-5,14.17-14.28,0-3.76-.86-7.82.28-11.19s4.29-6,6.56-9l4.34-5.69c.06,1.21.12,1.89.12,2.56,0,8,0,16,0,24-.05,14.8-10.26,25-25.05,25H24.91C10.25,192.9,0,182.68,0,168Q0,96.51,0,25C0,10.29,10.2.05,24.83,0c25.23,0,50.46,0,75.68,0A12.9,12.9,0,0,1,110,3.79q19.2,18.6,38.51,37.08c3.25,3.09,4.34,6.67,4.75,11.05.88,9.19-1.18,17.3-6.9,24.56a63.41,63.41,0,0,0-4.05,6.63Z"/><path class="cls-2" d="M194.22,59.73c2,1.19,4.35,2.54,6.67,3.92,3.52,2.08,4,3.92,2,7.5-8.6,14.87-17.24,29.71-25.79,44.6-.94,1.63-1.88,1.67-3.28.82-2.65-1.62-3.31-4.82-1.5-8,3.5-6.1,7.05-12.16,10.58-18.24,4.07-7,8.15-14.08,12.34-21.31l-4.69-2.76c-3.79,6.37-7.43,12.56-11.13,18.71-13.24,22.08-27.09,43.76-43.37,63.75-4.72,5.8-10.11,11.06-15.35,16.41-1.24,1.26-2.88,3.07-5,1.87s-1.3-3.62-.93-5.45c1.85-9.08,5.62-17.48,9.52-25.79,14-29.79,30.64-58.06,49-85.3a57.12,57.12,0,0,1,8.52-9.29c2.58-2.4,5.75-2.07,8.7-.42,3.24,1.81,6.3,4.07,5.95,8.23C196.19,52.45,195.08,55.83,194.22,59.73Z"/><path class="cls-3" d="M76.66,97.83H121.9a18.15,18.15,0,0,1,2.86.11,5.58,5.58,0,0,1-.18,11,13.5,13.5,0,0,1-1.91.08H30.52a10.74,10.74,0,0,1-2.84-.25,5.61,5.61,0,0,1,.88-10.88,20.79,20.79,0,0,1,2.62-.09Z"/><path class="cls-3" d="M121.82,120.37c-1.77,3.72-3.29,7.13-5.06,10.41-.3.55-1.63.76-2.48.76q-21.43.08-42.88,0-20.72,0-41.43,0c-3.74,0-6.15-2.22-6.18-5.55a5.46,5.46,0,0,1,5.11-5.6c.63-.06,1.27,0,1.91,0h91Z"/><path class="cls-4" d="M111.47,142.91c-1.23,3.42-2.47,6.61-3.49,9.87-.51,1.6-1.62,1.26-2.67,1.26H62.46q-16.27,0-32.56,0c-3.6,0-6.16-2.38-6.21-5.61s2.5-5.68,6.14-5.68q40.33,0,80.68,0A7.28,7.28,0,0,1,111.47,142.91Z"/><path class="cls-5" d="M45.34,86c-3.44,0-3.61,0-3.56-3.42,0-2.11-.57-3.19-2.86-3.47a34.31,34.31,0,0,1-6.18-1.74c-1.48-.47-1.82-1.53-1.5-3,1.23-5.6,1.18-5.54,6.76-3.85,2.9.89,6,1.69,8.87.3,1.21-.59,2.68-1.94,2.83-3.1a5.48,5.48,0,0,0-1.77-4c-1.31-1.17-3.22-1.67-4.86-2.48a54.89,54.89,0,0,1-6.8-3.45c-7.64-5.18-6.94-15.86,1.42-19.84,2.8-1.33,4.53-2.63,3.92-6-.27-1.51.64-2.19,2.12-2.16.8,0,1.6,0,2.39,0,1.57-.07,2.54.61,2.38,2.23-.31,3.07,1.23,4,4,4.5,5.8,1,6.63,3.06,3.65,8.18-.29.48-1.56.65-2.32.54C51,44.8,48.12,44,45.22,43.84c-1.81-.11-3.95.68-4,2.92a4.87,4.87,0,0,0,1.94,3.65c2.86,1.71,6,2.89,9,4.33,7.58,3.63,10.18,12,5.45,18.56a15.76,15.76,0,0,1-5.91,4.59c-2.05,1-2.94,2-2.83,4.27C49.1,86,49,86,45.34,86Z"/><path class="cls-2" d="M98,86.55c-8.62,0-17.24,0-25.86,0-3.49,0-5.77-1.88-6.11-4.82-.4-3.55,2-6.31,5.83-6.36,5.43-.08,10.86,0,16.28,0,11.66,0,23.31,0,35,0a9.53,9.53,0,0,1,4.5,1.19,5.28,5.28,0,0,1,2,6.15,5.47,5.47,0,0,1-5.51,3.8C115.41,86.58,106.71,86.55,98,86.55Z"/></g></g></svg>