<svg xmlns="http://www.w3.org/2000/svg" viewBox="0 0 186.06 196"><defs><style>.cls-1{fill:#2c8ae1;}</style></defs><g id="Layer_2" data-name="Layer 2"><g id="Layer_1-2" data-name="Layer 1"><g id="Service_Request" data-name="Service Request"><g id="Layer_2-2" data-name="Layer 2"><path id="Path_561" data-name="Path 561" class="cls-1" d="M34.64,196H30.12c-4.79-3.78-4.76-6.17.23-9.69a19.64,19.64,0,0,0,8.21-13.1c.6-3.52.62-7.14,1-10.71.2-2-.54-2.65-2.53-2.65q-7.5.17-15,0a22,22,0,0,1-22-22c0-.12,0-.23,0-.35Q0,79.88,0,22.26A20.18,20.18,0,0,1,9.13,4.64,58.77,58.77,0,0,1,20.53,0c.95,0,1.89.09,2.83.09H161c1.49,0,3,0,4.53-.09a22.65,22.65,0,0,1,20.52,20.35c0,.94-.09,1.88-.09,2.83V136.09c0,1.23.06,2.46.1,3.69a22.4,22.4,0,0,1-24,20.14H80.85a3.89,3.89,0,0,0-4,2.57,95.31,95.31,0,0,1-8.36,14.41,43.48,43.48,0,0,1-31.72,18C36,195,35.34,195.63,34.64,196Zm9-11.46a28.41,28.41,0,0,0,14.49-7.93,52.13,52.13,0,0,0,12.33-20.49c1.6-4.45,2.3-4.93,7-4.93h85.84a13.27,13.27,0,0,0,14-12.46c0-.45,0-.9,0-1.35q.06-57.27,0-114.5A13.23,13.23,0,0,0,164.82,9a14,14,0,0,0-1.45,0H22.58A13.22,13.22,0,0,0,8.71,21.52c0,.37,0,.73,0,1.09Q8.61,80,8.7,137.4a13.22,13.22,0,0,0,12.66,13.75c.39,0,.78,0,1.17,0h20.4c4.15,0,5.67,1.49,5.67,5.64a53.63,53.63,0,0,1-4.94,27.75Z"/><path id="Path_562" data-name="Path 562" class="cls-1" d="M143.16,42a26,26,0,0,1-6.41,32,25.29,25.29,0,0,1-23.88,5.28,3.9,3.9,0,0,0-4.41,1.2q-24.57,24.77-49.27,49.41a11,11,0,1,1-16.32-14.82,11.43,11.43,0,0,1,.93-.91C58.6,99.28,73.33,84.33,88.33,69.64a13.62,13.62,0,0,0,5.25-13.82,23.51,23.51,0,0,1,11.28-24.09A25.79,25.79,0,0,1,131,29.66L111,48.75,124.15,62Z"/><path id="Path_563" data-name="Path 563" class="cls-1" d="M100,102.54,115.25,87c.73.69,1.55,1.45,2.33,2.23q12.53,12.54,25,25.1a11.05,11.05,0,0,1-6.17,19.11,9.91,9.91,0,0,1-8.59-2.8c-9.29-9.14-18.51-18.42-27.66-27.66A.8.8,0,0,1,100,102.54Z"/><path id="Path_564" data-name="Path 564" class="cls-1" d="M81.75,62.81l-5.94,6.38C69.92,63.3,64.11,57.62,58.5,51.75a6.85,6.85,0,0,0-6.42-2.64,3.57,3.57,0,0,1-4-2.23c-2.22-4-4.58-7.85-7-11.69a2.32,2.32,0,0,1,.26-3.27l.17-.13C46.13,27,46.1,27,51.71,30.33c2.64,1.61,5.29,3.31,8,4.78a3.52,3.52,0,0,1,2.26,4,6.93,6.93,0,0,0,2.57,6.45C70.43,51.25,76.06,57.09,81.75,62.81Z"/></g></g></g></g></svg>