<svg xmlns="http://www.w3.org/2000/svg" viewBox="0 0 214.87 202.27"><defs><style>.cls-1{fill:#2d8ae2;}.cls-2{fill:#2d8ae1;}.cls-3{fill:#2f8be2;}.cls-4{fill:#2b89e1;}.cls-5{fill:#fcfdfe;}</style></defs><g id="Layer_2" data-name="Layer 2"><g id="Layer_1-2" data-name="Layer 1"><path class="cls-1" d="M131.3,47.62h2.88c18.92,0,37.84,0,56.75,0a23.64,23.64,0,0,1,23,17.83,31.73,31.73,0,0,1,.82,7.85c0,13.59,0,27.18,0,40.76s.09,27.18.07,40.77c0,8.87.27,17.77-.39,26.59-.82,11.11-10.58,20.23-21.7,20.64-9.33.35-18.67.13-28,.14H121.4q-45.36,0-90.73,0A65.74,65.74,0,0,1,19,201.63,23.54,23.54,0,0,1,0,178.81c-.06-16.55.06-33.1.06-49.64C.08,112,0,94.8,0,77.61a66.67,66.67,0,0,1,.39-9.8A23.31,23.31,0,0,1,23.19,47.7c19.15-.21,38.31-.07,57.47-.08,3.06,0,3,0,3-3,0-11.11-.08-22.22.06-33.32A11.51,11.51,0,0,1,95,.1q12.45-.21,24.91,0a11.46,11.46,0,0,1,11.25,10.7c.33,5.82.15,11.66.16,17.5C131.31,34.6,131.3,40.91,131.3,47.62Zm-48,11.88H25c-8,0-13,5-13,13q0,52.44,0,104.88c0,8.06,5,12.93,13.06,12.93H189.54c8.56,0,13.36-4.8,13.36-13.37V136.85c0-21.6,0-43.2,0-64.8,0-7.24-5-12.5-12-12.52-19.08-.06-38.16,0-57.24,0-.76,0-1.52.08-2.22.13-1.18,7.52-5.51,11.68-12.21,11.75q-11.73.12-23.47,0a11.77,11.77,0,0,1-11.34-7.71A39.8,39.8,0,0,1,83.27,59.5Zm35.91-23.66H95.69V59.38h23.49Z"/><path class="cls-2" d="M47.75,166.44H36v-83h71.31v82.93H95.43c0-3.81,0-7.47,0-11.13,0-7.46-5-12.5-12.46-12.55s-15,0-22.51,0c-7.74.05-12.67,5.08-12.69,12.84C47.75,159.15,47.75,162.73,47.75,166.44ZM71.6,130.82a17.82,17.82,0,1,0-.08-35.64,18,18,0,0,0-17.83,17.65A17.86,17.86,0,0,0,71.6,130.82Z"/><path class="cls-3" d="M131.46,107.14h47.33v11.74H131.46Z"/><path class="cls-3" d="M178.93,154.79v11.62H131.37V154.79Z"/><path class="cls-3" d="M178.89,83.25V95H131.24c0-3.51,0-7,0-10.49,0-1.72,1.36-1.24,2.28-1.25,8.29,0,16.59,0,24.88,0Z"/><path class="cls-4" d="M178.92,131.09v11.44H131.44V131.09Z"/><path class="cls-5" d="M71.6,130.82a17.86,17.86,0,0,1-17.91-18,17.91,17.91,0,0,1,35.81.29A17.77,17.77,0,0,1,71.6,130.82Z"/></g></g></svg>