<svg xmlns="http://www.w3.org/2000/svg" viewBox="0 0 212.58 213.26"><defs><style>.cls-1{fill:#2a89e1;}.cls-2{fill:#4e96ef;}.cls-3{fill:none;stroke:#60a1f1;stroke-miterlimit:10;stroke-width:2px;}</style></defs><g id="Layer_2" data-name="Layer 2"><g id="Layer_1-2" data-name="Layer 1"><path class="cls-1" d="M133.6,103.3c-44.62,21.94-46.68,85.49-.89,110H131q-47.55,0-95.09,0c-16.51,0-29.85-9.91-34.12-25A52.41,52.41,0,0,1,.15,170.39c.72-10.86,2-21.66,5.21-32.12,2.52-8.18,6.18-15.78,11.86-22.27C25,107.14,35,103.27,46.53,103.06a12.48,12.48,0,0,1,5.84,1.79c3.36,1.83,6.5,4.06,9.75,6.09q27,16.88,53.85-.09c3.17-2,6.3-4.08,9.51-6A10.11,10.11,0,0,1,133.6,103.3Z"/><path class="cls-1" d="M87.51,0C113.33-1.13,139,21.36,138.88,51.26a51.24,51.24,0,0,1-51.25,51.49c-28.45,0-51.08-22.89-51.25-51.49C36.21,21.86,61.6-1,87.51,0Z"/><path class="cls-2" d="M154.41,179.59l-19-15.14,3-3.77,14.76,11.67c8.79-13.25,16.31-27.32,28-38.54,2.43,3.89,2.12,3.95-.16,7q-8.4,11.05-16.3,22.5C161.08,168.45,157.94,173.93,154.41,179.59Z"/><circle class="cls-3" cx="158.97" cy="158.62" r="52.61"/></g></g></svg>