<svg xmlns="http://www.w3.org/2000/svg" viewBox="0 0 218.8 198.9"><defs><style>.cls-1{fill:#4c95ef;}.cls-2{fill:#2c8ae1;}.cls-3{fill:#4b94ef;}.cls-4{fill:#2e8be2;}.cls-5{fill:#328de2;}.cls-6{fill:#2f8ce2;}.cls-7{fill:#2f8be2;}</style></defs><g id="Layer_2" data-name="Layer 2"><g id="Layer_1-2" data-name="Layer 1"><path class="cls-1" d="M175.92,100.6l-7.78,37.78,37.68-7.78c7.71,18.07,2.66,44.28-18.54,59.29-19.62,13.89-47,11.53-64.55-5.8a50.83,50.83,0,0,1-6.14-64.63C131.13,98.43,157.06,92.72,175.92,100.6Zm-9.9,6c-14.86-3.38-34.42,3.27-44.42,20.87A42.27,42.27,0,0,0,129,178.21c13.68,13.38,34.59,16,50.56,6.55,17.64-10.43,23.65-30.1,20.35-44.24l-42.63,8.79C160.21,134.82,163.11,120.7,166,106.6Z"/><path class="cls-2" d="M25,153.18c3.1,10.36,13.68,13.3,21.35,6.62a5.66,5.66,0,0,1,.56,1c3.23,9.7,10.33,14.53,20.13,14.89,7,.26,14.15-.63,21.22-1.07,3-.18,6-.6,9.06-.71a2.54,2.54,0,0,1,2,1.27c1.21,4.6,1.71,9.29.34,13.94a2.56,2.56,0,0,1-1.9,1.46q-43.2.09-86.4,0a3.62,3.62,0,0,1-.73-.19A21.15,21.15,0,0,1,10.51,180C12.75,169.7,18.5,161.36,25,153.18Z"/><path class="cls-2" d="M32.28,139.18a13.29,13.29,0,0,0-7.22,9.8C-4.77,132.39-9.58,84.28,19.38,58c0,10.14,4.53,17.13,13.84,20.9C13.52,96.73,15.59,125.91,32.28,139.18Z"/><path class="cls-2" d="M38.78,39.55c-1.71.68-2.28-.45-2.87-1.83-1.49-3.54-3.13-7-4.64-10.53-1-2.39-.46-4,1.89-5.14C37,20.17,41,18.37,44.89,16.62c2.33-1,4-.31,5.16,2.26,3,6.62,6,13.27,8.92,19.91q10.69,24,21.37,47.94C82.19,90.87,81.78,92,77.59,94q-4.87,2.28-9.79,4.49c-2.8,1.27-4.44.66-5.73-2.22-2.93-6.48-5.77-13-8.76-19.45-.72-1.54-.47-2.45.62-3.75C59.5,66.41,60.66,59,57,51.11,53.49,43.48,47.12,39.94,38.78,39.55Z"/><path class="cls-3" d="M183.55,87.7c15.3,2.62,31.68,19,35.25,35.23l-44.51,9.29C177.43,117.15,180.49,102.42,183.55,87.7Z"/><path class="cls-4" d="M99.71,109.13c1.4,3.13,2.68,6,4.08,9.07l-35,16.16-1.4-2.24-1.87.69L70,143c1.29-1.39,2.24-2.47,3.25-3.48a10.47,10.47,0,0,1,2.59-2.32c6.41-3.05,12.87-6,19.33-8.95,2.33-1.07,4.19-.43,5.23,1.68s.4,4.05-1.92,5.14c-6.78,3.21-13.6,6.33-20.43,9.44a2.73,2.73,0,0,1-2,.21c-1.84-1-3.14,0-4.6.81a3.26,3.26,0,0,0,.07.77c1.88,4.66,1,7.07-3.68,9.05-6.22,2.63-12.72,2.44-18.8,1.75l.94-10.45,7.37.46c-2.41-5.51-4.66-10.64-7.05-16.08l11.85-5.5,1.64,3c3-.16.93-2,1-3.34Z"/><path class="cls-4" d="M22.43,59.73A16.83,16.83,0,1,1,38.91,76.85C29.87,76.76,22.39,69,22.43,59.73Zm16.81-8.9A8.7,8.7,0,0,0,30.5,59.7a8.75,8.75,0,1,0,17.5,0A8.74,8.74,0,0,0,39.24,50.83Z"/><path class="cls-5" d="M37.43,160.45a9.62,9.62,0,0,1-9.58-9.59,9.56,9.56,0,1,1,19.11,0A9.61,9.61,0,0,1,37.43,160.45Zm5.39-9.64a5.43,5.43,0,1,0-5.38,5.5A5.37,5.37,0,0,0,42.82,150.81Z"/><path class="cls-6" d="M80.89,93.9c.7,1.66,2.42,2.87.33,4.53-.28.22-.07,1.34.2,1.92.85,1.87,1.83,3.68,2.84,5.67L73.1,111.24c-2.37-2.12-.76-7-5.73-7.35L66.06,101Z"/><path class="cls-7" d="M33,20.68l-4.4-10L39.22,5.77c1.6,3.34,3.17,6.6,4.83,10.05Z"/><path class="cls-5" d="M40.19,0c.45.48,1.42,1,1.44,1.64A3.06,3.06,0,0,1,40.49,4,58.57,58.57,0,0,1,34.9,6.64c-2.54,1.16-5.08,2.3-7.6,3.47-1.32.62-2.74,1-3.56-.52s.4-2.51,1.69-3.11Q32,3.4,38.67.4A11.61,11.61,0,0,1,40.19,0Z"/></g></g></svg>