<svg xmlns="http://www.w3.org/2000/svg" viewBox="0 0 199.52 190.59"><defs><style>.cls-1{fill:#2c8ae1;}.cls-2{fill:#2e8be2;}.cls-3{fill:#328de2;}.cls-4{fill:#2f8ce2;}.cls-5{fill:#2f8be2;}.cls-6{fill:#338ee2;}.cls-7{fill:#3890e3;}.cls-8{fill:none;stroke:#60a1f1;stroke-miterlimit:10;stroke-width:2px;}</style></defs><g id="Layer_2" data-name="Layer 2"><g id="Layer_1-2" data-name="Layer 1"><path class="cls-1" d="M25.06,153c2.3,9.14,12.47,14,21.34,6.69A13.31,13.31,0,0,1,47,161c3.23,9.34,10.11,14.16,19.63,14.57,7.13.3,14.31-.59,21.46-1,3.1-.18,6.2-.5,9.29-.81,1.28-.13,2.06.37,2.12,1.62.22,4.28.42,8.55.48,12.83,0,1.82-1,2.41-2.94,2.41-24.26-.08-48.52-.05-72.78-.05-3.83,0-7.66-.11-11.49,0-1.75.07-2.37-.55-2.59-2.2a28.78,28.78,0,0,1,1.92-14.11C15,166.48,19.63,159.71,25.06,153Z"/><path class="cls-1" d="M19.41,57.91c0,10.26,4.55,17.18,13.83,20.9-19.73,17.87-17.63,47-1,60.22-3.82,2.23-6.43,5.37-7.15,9.85C-4.87,132.17-9.51,84.05,19.41,57.91Z"/><path class="cls-1" d="M38.83,39.44c-1.72.71-2.33-.4-2.91-1.79-1.43-3.39-3-6.73-4.44-10.1-1.31-3.05-.78-4.48,2.27-5.93,3.54-1.67,7.11-3.27,10.66-4.9,2.81-1.28,4.42-.69,5.73,2.23q6.49,14.43,12.91,28.88,8.7,19.49,17.38,39c1.74,3.9,1.3,5.1-2.59,6.92q-5,2.34-10,4.62c-2.79,1.27-4.5.65-5.77-2.18-2.93-6.48-5.77-13-8.74-19.46a3,3,0,0,1,.56-3.76c5.66-6.68,6.8-14.21,3-22.12C53.39,43.32,47.07,39.82,38.83,39.44Z"/><path class="cls-2" d="M99.72,109l4,9.09L68.7,134.27l-1.38-2.35-1.8.87c1.42,3.22,2.8,6.32,4.53,10.22,1.33-1.54,2.25-2.66,3.23-3.71a8.58,8.58,0,0,1,2.22-2.05c6.56-3.11,13.16-6.14,19.77-9.15,2.28-1,4.19-.3,5.16,1.84a3.48,3.48,0,0,1-1.86,5q-10.17,4.82-20.42,9.45a3.05,3.05,0,0,1-2.27.22c-1.88-1-3.13.11-4.45.85,0,.25-.09.34-.06.4,1.9,5.67.81,8-5,10S54.61,157.66,49,157c.32-3.58.62-7,.93-10.51l7.37.48-7.05-16.09,11.88-5.49,1.59,3c1.86-.58,1.86-.58.94-3.28Z"/><path class="cls-2" d="M22.43,59.58A16.83,16.83,0,1,1,38.87,76.73C29.83,76.62,22.38,68.85,22.43,59.58Zm25.57,0a8.75,8.75,0,1,0-17.5,0,8.75,8.75,0,1,0,17.5,0Z"/><path class="cls-3" d="M37.61,160.33a9.6,9.6,0,0,1-9.76-9.41,9.56,9.56,0,1,1,19.11-.4A9.61,9.61,0,0,1,37.61,160.33Zm5.21-9.69a5.43,5.43,0,1,0-5.33,5.56A5.38,5.38,0,0,0,42.82,150.64Z"/><path class="cls-4" d="M80.94,93.78l1.41,2.94c-3.09,3.85,1.35,6,1.7,9.27l-11,5.15c-2.26-2.08-.89-6.84-5.76-7.4l-1.29-2.89Z"/><path class="cls-5" d="M35.16,6.74l4.24-.67,4.65,9.62L33,20.58l-4.45-10C30.37,9.73,32.1,9,33.75,8.13A6.94,6.94,0,0,0,35.2,6.71Z"/><path class="cls-3" d="M35.16,6.74l0,0L28.41,9.48c-.59.24-1.19.79-1.74.73a18,18,0,0,1-3.06-.89c.45-.91.67-2.23,1.4-2.65,2.34-1.34,4.87-2.35,7.33-3.48L38.41.39c1.32-.61,2.77-.64,3.14.89.2.78-.65,2.19-1.43,2.76A37.58,37.58,0,0,1,35.16,6.74Z"/><path class="cls-6" d="M159.25,171.05H149c0-.75-.12-1.51-.12-2.27,0-10.4,0-20.79-.05-31.18,0-1.92.43-2.81,2.51-2.64s4.16-.08,6.22.13a2.4,2.4,0,0,1,1.67,1.61C159.28,148.05,159.25,159.4,159.25,171.05Z"/><path class="cls-7" d="M159.32,124.63c0,3.42-2.28,6-5.41,6a6,6,0,0,1-5.91-5.95,5.65,5.65,0,0,1,5.85-5.8C157.18,118.88,159.29,121.1,159.32,124.63Z"/><circle class="cls-8" cx="154.02" cy="145.08" r="44.5"/></g></g></svg>