<svg xmlns="http://www.w3.org/2000/svg" viewBox="0 0 204.5 190.58"><defs><style>.cls-1{fill:#2c8ae1;}.cls-2{fill:#2e8be2;}.cls-3{fill:#328de2;}.cls-4{fill:#2f8ce2;}.cls-5{fill:#2f8be2;}.cls-6{fill:none;stroke:#60a1f1;stroke-miterlimit:10;stroke-width:2px;}.cls-7{fill:#2a89e2;}</style></defs><g id="Layer_2" data-name="Layer 2"><g id="Layer_1-2" data-name="Layer 1"><path class="cls-1" d="M10.65,190.36c-1.36-5.25-.6-10.24,1.11-15.15C14.63,167,19.42,160,25,153c1.42,4.82,4.09,8.29,8.8,9.7s8.81.15,12.49-3.16A15.27,15.27,0,0,1,47,161c3.22,9.34,10.09,14.18,19.61,14.59,7.12.3,14.31-.58,21.46-1,3.1-.19,6.19-.63,9.3-.74a2.54,2.54,0,0,1,2,1.3,27.72,27.72,0,0,1,.46,13.75c-.29,1.2-.73,1.71-2,1.71q-43.1-.06-86.18,0A6.5,6.5,0,0,1,10.65,190.36Z"/><path class="cls-1" d="M19.41,57.88c0,10.29,4.57,17.17,13.79,20.93-19.66,17.62-17.63,47-1,60.2-3.78,2.26-6.44,5.36-7.13,9.84C-4.52,132.55-9.8,84.48,19.41,57.88Z"/><path class="cls-1" d="M38.87,39.44c-1.68.69-2.34-.32-2.94-1.75-1.49-3.53-3.12-7-4.63-10.53-1.07-2.5-.49-4.11,2-5.3,3.81-1.83,7.65-3.59,11.52-5.32,2.45-1.09,4.08-.37,5.31,2.36C53.75,27,57.34,35.1,61,43.2L80.3,86.54c1.89,4.23,1.5,5.33-2.63,7.26-3.33,1.55-6.66,3.1-10,4.6-2.59,1.16-4.31.56-5.47-2-3.07-6.77-6-13.59-9.14-20.33-.68-1.48.06-2.13.84-3.08,5.59-6.73,6.79-14.21,3.06-22.14C53.42,43.35,47.1,39.84,38.87,39.44Z"/><path class="cls-2" d="M50.21,130.91l11.88-5.47,1.6,3c1.89-.51,1.89-.51.92-3.23L99.69,109c1.34,3,2.66,5.92,4.09,9.08L68.71,134.26,67.33,132l-1.83.8L70,143c1.31-1.49,2.23-2.6,3.24-3.63a10.24,10.24,0,0,1,2.62-2.28c6.34-3,12.73-5.93,19.11-8.85,2.47-1.13,4.39-.52,5.41,1.68s.3,4-2.22,5.22q-9.86,4.63-19.77,9.12a3.36,3.36,0,0,1-2.48.35c-1.91-1-3.13.16-4.51.8a2.14,2.14,0,0,0,0,.64c2,5,1,7.47-4.11,9.45-6,2.35-12.31,2.2-18.31,1.55l.93-10.49,7.39.48C54.86,141.5,52.6,136.36,50.21,130.91Z"/><path class="cls-2" d="M22.42,59.55A16.83,16.83,0,1,1,38.84,76.74C29.8,76.61,22.37,68.83,22.42,59.55ZM48,59.91a8.75,8.75,0,1,0-8.83,8.62A8.89,8.89,0,0,0,48,59.91Z"/><path class="cls-3" d="M47,150.71a9.56,9.56,0,1,1-19.11,0,9.56,9.56,0,1,1,19.11,0Zm-4.14-.07a5.49,5.49,0,0,0-5.38-5.56A5.55,5.55,0,0,0,32,150.56a5.48,5.48,0,0,0,5.54,5.64A5.37,5.37,0,0,0,42.81,150.64Z"/><path class="cls-4" d="M65.59,101.06l13.87-6.58c.42-.19.86-.34,1.48-.6l1.42,2.81c-3.28,3.76,1.33,6,1.69,9.3l-11.2,5.27a61.48,61.48,0,0,0-2.32-5.72c-.37-.7-1.49-1-2.15-1.57C67.49,103.17,66.71,102.25,65.59,101.06Z"/><path class="cls-5" d="M35.15,6.74l4.24-.67c1.43,2.94,3,6.13,4.65,9.62L33,20.58l-4.45-10c1.79-.82,3.51-1.56,5.16-2.43A6.75,6.75,0,0,0,35.2,6.71Z"/><path class="cls-3" d="M35.15,6.74l.05,0L28.4,9.48c-.59.24-1.19.79-1.73.73a17.88,17.88,0,0,1-3.07-.89c.45-.91.67-2.27,1.4-2.65,3.31-1.73,6.77-3.18,10.17-4.74,1.09-.5,2.16-1,3.24-1.53,1.32-.63,2.76-.64,3.14.88.19.78-.65,2.19-1.43,2.76A38.34,38.34,0,0,1,35.15,6.74Z"/><circle class="cls-6" cx="159" cy="145.08" r="44.5"/><g id="Layer_2-2" data-name="Layer 2-2"><g id="Layer_2-2-2" data-name="Layer 2-2-2"><path id="Path_594" data-name="Path 594" class="cls-7" d="M169.53,119.18c.25.3.5.59.74.89a14.5,14.5,0,0,1-2.16,20.38c-.35.28-.71.54-1.08.79a.31.31,0,0,0-.17.32l.08,5.25a.49.49,0,0,1-.14.38l-4.88,5,2.6,2.52L162,157.33l2.62,2.52-2.52,2.61,2.46,2.38a.43.43,0,0,1,.15.34c0,1.57,0,3.15.07,4.74a.51.51,0,0,1-.14.36l-4.75,4.91a.47.47,0,0,1-.35.15l-4.66.07h-.23L152,172.83v-.23L151.79,161l-.33-19.25a.32.32,0,0,0-.16-.29,14.51,14.51,0,0,1,15.4-24.59c.34.21.66.43,1,.67s.59.46.88.69Zm-12.4,53.67v-.18q-.23-12.61-.44-25.23a.56.56,0,0,0-.15-.32l-2.27-2.19-.17-.17V145l.44,25.21a.45.45,0,0,0,.15.33l2.27,2.19Zm4.27-51.35a3.61,3.61,0,1,0,.1,5.11,3.61,3.61,0,0,0-.1-5.11Z"/></g></g></g></g></svg>