<svg xmlns="http://www.w3.org/2000/svg" viewBox="0 0 203.49 190.87"><defs><style>.cls-1{fill:#2c8ae1;}.cls-2{fill:#2e8be2;}.cls-3{fill:#328de2;}.cls-4{fill:#2f8ce2;}.cls-5{fill:#2f8be2;}.cls-6{fill:none;stroke:#60a1f1;stroke-miterlimit:10;stroke-width:2px;}.cls-7{fill:#f2f7fc;}.cls-8{fill:#338de2;}.cls-9{fill:#4195e4;}.cls-10{fill:#509ee6;}</style></defs><g id="Layer_2" data-name="Layer 2"><g id="Layer_1-2" data-name="Layer 1"><path class="cls-1" d="M25,153.05c3.05,10.33,13.63,13.34,21.35,6.64a6.45,6.45,0,0,1,.56,1c3.19,9.59,10.19,14.47,19.9,14.86,7.13.28,14.31-.62,21.46-1,3-.19,6-.61,9.06-.71a2.53,2.53,0,0,1,2,1.28c1.19,4.61,1.72,9.29.33,13.95a2.58,2.58,0,0,1-1.89,1.44q-43.21.09-86.42,0a4.35,4.35,0,0,1-.69-.18A22.15,22.15,0,0,1,10.93,178C13.49,168.61,18.83,160.8,25,153.05Z"/><path class="cls-1" d="M19.41,57.88c0,10.29,4.56,17.17,13.78,20.92-19.64,17.53-17.63,47-1,60.21-3.78,2.26-6.44,5.35-7.13,9.84C-4.42,132.65-9.88,84.59,19.41,57.88Z"/><path class="cls-1" d="M39.06,39.39c-2,.8-2.58-.41-3.2-1.86-1.43-3.39-3-6.72-4.44-10.09-1.25-2.91-.69-4.38,2.22-5.77,3.61-1.71,7.25-3.35,10.88-5,2.74-1.24,4.34-.59,5.67,2.39,3.6,8,7.16,16.05,10.74,24.08q9.72,21.78,19.45,43.55c1.8,4,1.37,5.21-2.66,7.08-3.32,1.56-6.65,3.11-10,4.61-2.69,1.2-4.39.57-5.61-2.13-3-6.55-5.84-13.14-8.84-19.67A2.77,2.77,0,0,1,53.83,73C64,61.57,58.44,43.66,43.73,40.09,42.19,39.71,40.59,39.61,39.06,39.39Z"/><path class="cls-2" d="M70,143c1.31-1.49,2.23-2.61,3.24-3.63a10.12,10.12,0,0,1,2.63-2.28c6.33-3,12.72-5.93,19.1-8.85,2.47-1.13,4.39-.52,5.41,1.68s.33,4-2,5.11q-10.06,4.76-20.2,9.34a3,3,0,0,1-2.27.25c-1.89-1.06-3.12.16-4.5.79a2.14,2.14,0,0,0,0,.64c2,5,.94,7.36-4.1,9.48-4.45,1.87-12.92,2.48-18.73,1.31a32.35,32.35,0,0,0,1.19-5,35.11,35.11,0,0,0-.28-5.33l7.82.5-7.07-16.08,11.87-5.51,1.6,3c1.89-.51,1.89-.51.92-3.23L99.69,109c1.34,3,2.66,5.92,4.09,9.08L68.71,134.26,67.33,132l-1.83.8Z"/><path class="cls-2" d="M22.43,59.44A16.83,16.83,0,1,1,39,76.74C29.83,76.68,22.34,68.84,22.43,59.44Zm16.89-8.72a8.7,8.7,0,0,0-8.83,8.78,8.75,8.75,0,1,0,17.5.18A8.73,8.73,0,0,0,39.32,50.72Z"/><path class="cls-3" d="M47,150.72a9.56,9.56,0,1,1-19.11,0,9.56,9.56,0,1,1,19.11,0Zm-4.14-.12a5.49,5.49,0,0,0-5.42-5.52A5.55,5.55,0,0,0,32,150.6a5.47,5.47,0,0,0,5.58,5.6A5.38,5.38,0,0,0,42.81,150.6Z"/><path class="cls-4" d="M67.35,103.83l-1.28-3,14.66-7c.88,1.49,2.55,2.67.48,4.46-.29.25-.06,1.35.2,1.93.86,1.86,1.84,3.67,2.85,5.65l-11.15,5.22C70.7,109,72.39,104,67.35,103.83Z"/><path class="cls-5" d="M35.15,6.74l4.24-.67c1.42,2.94,3,6.13,4.65,9.62L33,20.58l-4.45-10c1.78-.82,3.51-1.56,5.16-2.43A6.75,6.75,0,0,0,35.2,6.71Z"/><path class="cls-3" d="M35.15,6.74l.05,0L28.4,9.48c-.59.24-1.19.79-1.73.73a17.88,17.88,0,0,1-3.07-.89c.45-.91.67-2.27,1.4-2.65,3.31-1.73,6.77-3.18,10.17-4.74,1.08-.5,2.16-1,3.24-1.53,1.32-.63,2.76-.64,3.14.88.19.78-.65,2.19-1.43,2.76A38.34,38.34,0,0,1,35.15,6.74Z"/><circle class="cls-6" cx="157.99" cy="145.37" r="44.5"/><path class="cls-7" d="M158.75,156c-2,1.3-3.19.51-4.3-1C156.32,153.41,157.45,154.48,158.75,156Z"/><path class="cls-8" d="M180.45,160l-2-.33c-4.11-.69-6.64,2-5.56,6.06.39,1.44.09,2.3-1.3,2.82s-2.51,1-3.76,1.55c-3.58,1.45-3.58,1.45-6.22-1.41a4.59,4.59,0,0,0-6.48-.47,4.41,4.41,0,0,0-.93,1.09c-1.32,2.13-2.67,2.36-4.72,1.33a44.84,44.84,0,0,0-4.66-1.87,2.26,2.26,0,0,1-1.53-3c.92-4.34-1.82-7-6.09-5.89-1.67.44-2.55,0-3.17-1.53-.74-1.85-1.56-3.67-2.42-5.47-.65-1.36-.22-2.21,1-3,4.2-2.66,4.19-6.12-.05-8.61-1.28-.76-1.65-1.59-1-2.94.5-1.09.9-2.22,1.37-3.32,1.6-3.72,1.6-3.72,5.47-3.47,3.56.23,5.93-2.61,4.85-6-.55-1.72-.27-2.71,1.49-3.32,2-.69,3.86-1.51,5.76-2.36a2.13,2.13,0,0,1,2.91.81,1.11,1.11,0,0,1,.09.19c2.91,4.3,6.16,4.2,9.14,0a3.15,3.15,0,0,1,2.71-1,60.14,60.14,0,0,1,6.23,2.39c1.39.54,1.64,1.48,1.3,2.87-1.08,4.55,1.43,7.06,6.06,6,1.68-.37,2.77,0,3.37,1.71.37,1,.86,2.06,1.3,3.09,1.54,3.6,1.54,3.6-1.44,6.07a4.34,4.34,0,0,0-.88,6.06,4.47,4.47,0,0,0,1.61,1.32c2.09,1.1,2.29,2.33,1.32,4.23-.79,1.57-1.35,3.25-2.18,4.79A6.92,6.92,0,0,1,180.45,160Zm-.7-3.19a23.83,23.83,0,0,0,1.42-3.43,2.25,2.25,0,0,0-.5-1.9c-4.16-3.74-4.2-8.16-.07-11.91a2.16,2.16,0,0,0,.82-1.49c-.2-2.45-1.77-3.5-4.21-3.81a11.17,11.17,0,0,1-5-1.88c-2.63-1.92-3.19-4.79-2.33-7.88a25.64,25.64,0,0,0-3.72-1.51,2.47,2.47,0,0,0-2,.55c-4.19,4.24-8.27,4.26-12.39.07a2.43,2.43,0,0,0-2-.61,26.07,26.07,0,0,0-3.66,1.55c.9,6.07-2.36,10.14-8,9.69-2.41-.19-2.41,1.43-3.14,2.72s-.37,2.2.8,3.2c3.72,3.14,3.77,7.85,0,10.92-1.51,1.22-1.1,2.15-.47,3.41s.68,2.66,2.87,2.33a7.24,7.24,0,0,1,8.22,6.09,7.58,7.58,0,0,1,.05,1.58c-.09,1.63.43,2.35,1.86,2.69s2.58,1.7,4.16-.23a7.24,7.24,0,0,1,10.18-1.12,6,6,0,0,1,.82.77c1.4,1.51,2.5,1.56,4.07.7a25.12,25.12,0,0,1,2.33-1c-1-6.39,2.84-10.12,9.89-9.49Z"/><path class="cls-9" d="M154.16,130.14a4.79,4.79,0,0,0-1.08.83,6.85,6.85,0,0,0-.57,1.4c.48.15,1,.53,1.42.4a15,15,0,0,1,9.59.41c.87.29,2-.11,3.67-.26l-4.34-2.59c4.64-.65,11.83,6.7,11.38,11.26l-3-1.8c.14,2.94.55,5.31.3,7.6a12.56,12.56,0,0,1-5.87,9.17,17.22,17.22,0,0,0-2.13,2.14l.62.85,5.2-2.71c-.36,3.27-8.44,5.93-14.64,4.71-7-1.37-13.62-7.88-12.84-12.22l2.77,1.57.53-.46a13.85,13.85,0,0,1,.74-11.58c.27-.47-.24-1.37-.55-2.82l-2.58,4.13-.78-.3a23.92,23.92,0,0,1,1.79-3.71c2.51-3.51,5.76-6,10.08-6.62Zm4,27.34c7.07,0,12.39-5.22,12.38-12.1a12.47,12.47,0,0,0-24.93.15C145.58,152.31,151,157.5,158.11,157.48Zm13.55-18,.8-1.33-3-1.68-.67,1.12ZM162.19,158,159,160.1l.55.84C160.37,159.79,162.81,161.31,162.19,158ZM169.6,136l.36-1.33-3.51-.94-.33,1.16Zm-16.08,23.2.08-1.43-3.61-.18-.09,1.18Zm.72.12.16.87c1.28-.3,3.21,1.64,3.91-1.61Zm-6.53-21.91.74-3.48c-1.84.59-3.2,1.26-.74,3.46Zm-1,17.37-.44,1.35,3.23,1,.38-1.13Z"/><path class="cls-10" d="M162.88,145.53a4.86,4.86,0,1,1-4.8-4.91h0A4.84,4.84,0,0,1,162.88,145.53ZM158,141.58a3.82,3.82,0,1,0,3.95,3.69v0a3.76,3.76,0,0,0-3.87-3.66Z"/></g></g></svg>