<svg xmlns="http://www.w3.org/2000/svg" viewBox="0 0 171.1 165.18"><defs><style>.cls-1{fill:#2e8be2;}.cls-2{fill:#328de2;}.cls-3{fill:#308ce2;}.cls-4{fill:#3890e3;}.cls-5{fill:#f6fafd;}.cls-6{fill:#f0f6fc;}.cls-7{fill:none;stroke:#60a1f1;stroke-miterlimit:10;stroke-width:2px;}.cls-8{fill:#338de2;}.cls-9{fill:#4195e4;}.cls-10{fill:#509ee6;}</style></defs><g id="Layer_2" data-name="Layer 2"><g id="Layer_1-2" data-name="Layer 1"><path class="cls-1" d="M42.57,16a37.78,37.78,0,0,1-5.08-.77,7.53,7.53,0,0,1-5.22-8.39A7.7,7.7,0,0,1,39.66,0C44.71,0,49.75.16,54.8.19c1.33,0,2.67-.17,4-.17Q67.41,0,76,0c4.78,0,8.33,3.42,8.11,8.09S80.78,16,75.81,15.76c-.63,0-1.26,0-2.21,0v5.13c0,4,0,8.06,0,12.09,0,5.07.07,10.14.25,15.2,0,.54.88,1.35,1.51,1.55a58.65,58.65,0,0,1,19,10.17c.81.64,1.58,1.32,2.35,2a8.85,8.85,0,0,1,.76.8l-7.42,7c-1.47-1.13-2.92-2.28-4.4-3.37-6.09-4.52-13.15-6.78-20.39-8.55-1.45-.35-2-.87-2-2.41.07-8.33,0-16.67,0-25,0-4.29,0-8.59,0-12.88,0-.49-.06-1-.12-1.81-3.15,0-6.21-.05-9.26.05-.37,0-1,.83-1,1.28,0,3.59.1,7.17.11,10.75q0,10.86,0,21.72c0,2.36-.05,4.73-.26,7.08,0,.47-.84,1.11-1.4,1.26-7.1,2-14.12,4.13-20.26,8.48-9.44,6.71-16,15.5-19,26.69-4.82,17.86-.64,33.65,11.85,47.13A45.24,45.24,0,0,0,44.7,152.73a46,46,0,0,0,20.48,1.5,47.22,47.22,0,0,0,25.5-12.43c.41-.39.84-.76,1.27-1.16l8.08,6.8c-2.07,1.82-4,3.74-6.17,5.41a58.5,58.5,0,0,1-23.24,10.9,56,56,0,0,1-29.91-1.31A57,57,0,0,1,9.25,138.21,55.74,55.74,0,0,1,0,109.08c-.68-25,10.22-43.31,31.74-55.47A59.9,59.9,0,0,1,41,49.9c1.27-.46,1.87-1,1.79-2.46-.16-2.94-.2-5.89-.21-8.83,0-6.92,0-13.83,0-20.75Zm15.52-5.46H75.52c2.29,0,3.43-.93,3.42-2.7s-1-2.58-3.45-2.58H50.81c-3.49,0-7-.11-10.47,0-2.09.08-3,1.12-2.92,2.75s1.13,2.48,3.23,2.49C46.46,10.6,52.27,10.57,58.09,10.57Z"/><path class="cls-2" d="M77.51,98.34c-4-4.32-6.79-5-9.23-2.31a5.18,5.18,0,0,0,.63,7.52c2.79,2.28,6,1.62,8.48-2,0,2.34.09,4.37-.06,6.38a2.22,2.22,0,0,1-1.21,1.58,10.45,10.45,0,0,1-12.23-3.87,10.81,10.81,0,0,1,1-13.17,10.2,10.2,0,0,1,12.8-1.88,2.42,2.42,0,0,1,.88,1.92C78.32,94.43,77.87,96.34,77.51,98.34Z"/><path class="cls-2" d="M44.34,69.27c.62.59,1.87,1.22,2,2A3.61,3.61,0,0,1,45,74.1c-2,1.52-4.46,2.53-6.49,4.06a34.58,34.58,0,0,0-12.4,17,4.41,4.41,0,0,1-1.7,2.4,4,4,0,0,1-3,.07c-1.13-.47-1.13-1.62-.75-2.82,3.6-11.61,11.21-19.64,22-24.92A17.63,17.63,0,0,1,44.34,69.27Z"/><path class="cls-3" d="M49.26,123.25c-.48-4.14,3.37-7.85,7.39-7.91a7.92,7.92,0,0,1,8,7.9c0,4.55-3.94,8-9.23,7.85C52.12,131,49.26,127.37,49.26,123.25Zm5.07,0a2.79,2.79,0,0,0,2.5,2.65,3.15,3.15,0,0,0,2.73-2.75A3,3,0,0,0,57,120.58,2.76,2.76,0,0,0,54.33,123.3Z"/><path class="cls-4" d="M22.16,112.41a2.64,2.64,0,1,1-2.5-2.86A2.8,2.8,0,0,1,22.16,112.41Z"/><path class="cls-5" d="M58.09,10.57c-5.82,0-11.63,0-17.44,0-2.1,0-3.15-.9-3.23-2.49s.83-2.67,2.92-2.75c3.49-.13,7,0,10.47,0H75.49c2.46,0,3.43.74,3.45,2.58s-1.13,2.69-3.42,2.7Z"/><path class="cls-6" d="M54.33,123.3A2.76,2.76,0,0,1,57,120.58a3,3,0,0,1,2.61,2.62A3.15,3.15,0,0,1,56.83,126,2.79,2.79,0,0,1,54.33,123.3Z"/><path class="cls-7" d="M125.11,58.6a45.3,45.3,0,1,1-45.44,44.87A45.17,45.17,0,0,1,125.11,58.6Zm-44.23,45a44.11,44.11,0,0,0,88.21.51c.21-24.15-19.64-44.39-43.67-44.54A44.1,44.1,0,0,0,80.88,103.64Z"/><path class="cls-8" d="M147,118.32l-2-.32c-4.12-.7-6.65,2-5.56,6.06.39,1.44.09,2.29-1.31,2.81s-2.5,1-3.75,1.55c-3.58,1.45-3.58,1.45-6.23-1.41a4.6,4.6,0,0,0-7.4.62c-1.32,2.13-2.67,2.36-4.73,1.33a47,47,0,0,0-4.65-1.87c-1.45-.55-1.85-1.5-1.53-3,.92-4.34-1.82-7-6.1-5.89-1.66.44-2.54,0-3.16-1.52-.74-1.85-1.56-3.68-2.42-5.48-.65-1.36-.23-2.2,1-3,4.2-2.66,4.19-6.12,0-8.61-1.29-.76-1.65-1.59-1-2.94.49-1.09.9-2.22,1.37-3.32,1.6-3.72,1.6-3.72,5.47-3.47,3.56.23,5.93-2.61,4.84-6-.54-1.71-.26-2.7,1.5-3.32,2-.69,3.86-1.51,5.75-2.35a2.13,2.13,0,0,1,3,1c2.9,4.3,6.16,4.2,9.14,0a3.14,3.14,0,0,1,2.7-1,60.65,60.65,0,0,1,6.24,2.39c1.39.55,1.63,1.48,1.3,2.87-1.08,4.56,1.43,7.06,6.05,6,1.69-.37,2.78,0,3.38,1.71.37,1,.86,2.06,1.3,3.09,1.54,3.61,1.54,3.61-1.44,6.08a4.33,4.33,0,0,0,.73,7.38c2.09,1.09,2.28,2.32,1.32,4.23-.79,1.56-1.35,3.24-2.19,4.78A7.13,7.13,0,0,1,147,118.32Zm-.71-3.19a24.26,24.26,0,0,0,1.43-3.43,2.24,2.24,0,0,0-.51-1.9c-4.16-3.74-4.2-8.16-.06-11.91A2.21,2.21,0,0,0,148,96.4c-.2-2.45-1.77-3.5-4.22-3.8a11.21,11.21,0,0,1-5-1.89c-2.64-1.92-3.19-4.79-2.33-7.88a26.3,26.3,0,0,0-3.73-1.49,2.43,2.43,0,0,0-2,.55c-4.19,4.24-8.27,4.26-12.39.07a2.46,2.46,0,0,0-2-.61,26.65,26.65,0,0,0-3.65,1.55c.9,6.08-2.36,10.15-8,9.7-2.41-.2-2.41,1.42-3.14,2.71s-.37,2.21.8,3.2c3.72,3.14,3.76,7.85,0,10.92-1.51,1.23-1.11,2.15-.47,3.41s.68,2.66,2.87,2.33a7.24,7.24,0,0,1,8.27,7.67c-.1,1.64.43,2.35,1.86,2.7s2.58,1.69,4.16-.24a7.24,7.24,0,0,1,11-.35c1.4,1.52,2.5,1.56,4.07.71a25.06,25.06,0,0,1,2.33-1C135.41,118.23,139.27,114.5,146.31,115.13Z"/><path class="cls-9" d="M120.73,88.49a4.55,4.55,0,0,0-1.08.83,6,6,0,0,0-.57,1.4c.48.15,1,.53,1.42.4a15,15,0,0,1,9.59.42c.87.28,2-.12,3.66-.27l-4.33-2.59c4.64-.64,11.83,6.71,11.38,11.26l-3-1.79c.14,2.93.55,5.3.29,7.6a12.55,12.55,0,0,1-5.86,9.16,16,16,0,0,0-2.13,2.14l.62.85,5.19-2.7c-.35,3.26-8.43,5.92-14.64,4.7-6.94-1.37-13.61-7.88-12.83-12.22l2.77,1.57.53-.46a13.77,13.77,0,0,1,.74-11.58c.26-.47-.24-1.37-.55-2.82l-2.58,4.13-.79-.3a23.56,23.56,0,0,1,1.8-3.71c2.51-3.51,5.76-6,10.08-6.61Zm3.94,27.34c7.07,0,12.4-5.22,12.39-12.09a12.47,12.47,0,0,0-24.93.14C112.14,110.66,117.59,115.85,124.67,115.83Zm13.56-18,.8-1.33-3-1.67-.68,1.11Zm-9.47,18.48-3.2,2.14.55.84C126.94,118.14,129.37,119.66,128.76,116.29Zm7.4-21.93.37-1.33L133,92.11l-.33,1.16Zm-16.07,23.2.08-1.43-3.61-.18-.09,1.18Zm.72.12.15.87c1.29-.3,3.22,1.64,3.92-1.61Zm-6.53-21.91.76-3.43C113.18,92.91,111.82,93.57,114.28,95.77Zm-1,17.37-.44,1.35,3.22,1,.39-1.13Z"/><path class="cls-10" d="M129.45,103.88A4.86,4.86,0,1,1,124.67,99,4.86,4.86,0,0,1,129.45,103.88Zm-4.9-3.95a3.82,3.82,0,1,0,4,3.66A3.77,3.77,0,0,0,124.55,99.93Z"/></g></g></svg>