<svg xmlns="http://www.w3.org/2000/svg" viewBox="0 0 222.38 172.78"><defs><style>.cls-1{fill:#4b94ef;}.cls-2{fill:#4e96ef;}</style></defs><g id="Layer_2" data-name="Layer 2"><g id="Layer_1-2" data-name="Layer 1"><path class="cls-1" d="M148,154.94c0,2.91.16,5.2,0,7.46a5.37,5.37,0,0,1-6.7,5.06c-2.3-.46-4-1.73-4.31-4.2-.32-2.67-.43-5.36-.65-8.32a17.08,17.08,0,0,0-1.42,1.18c-4.53,4.61-9,9.3-13.63,13.82a10.87,10.87,0,0,1-4.39,2.68c-2.33.67-4.88-.84-6-3s-.62-4.51,1.42-6.51c6.9-6.77,13.71-13.63,20.8-20.2,3-2.76,4.67-5.53,4.19-9.76a72.5,72.5,0,0,1,0-11c.09-2-.5-2.6-2.52-2.56-12.37.19-24.74.28-37.12.36-7,0-14,0-21.07,0a13.16,13.16,0,0,1-5-25.51c1.8-.72,2.29-1.62,2.27-3.5-.09-11.28,0-22.56,0-33.84v-2.7l11.45-.84V92.52h113c.05-.87.12-1.64.12-2.41,0-25.28,0-50.56.06-75.84,0-2.43-.83-2.87-3-2.87q-43.83.09-87.66,0H85.36V29.12H73.77V11.44c-2.88,0-5.49-.1-8.1,0-2.26.12-3-.87-2.85-3a37.67,37.67,0,0,0,0-5.52C62.66.76,63.48,0,65.7,0c6.7.11,13.41,0,20.12,0H218c3.14,0,3.23.1,3.23,3.24,0,2,0,4,0,6a1.89,1.89,0,0,1-2.21,2.16c-2.46,0-4.94,0-7.69,0,0,.89-.11,1.66-.11,2.42q0,38.76,0,77.52a2.83,2.83,0,0,0,2.1,3.12c10,4.31,12.17,16,4.34,22.52a12.37,12.37,0,0,1-8.33,3.06c-19.4-.2-38.8-.28-58.19-.51-2.33,0-3.26.45-3.13,3,.22,4.47-.13,9,.15,13.43a8.1,8.1,0,0,0,2,4.8c6.94,7.07,14.07,13.94,21.13,20.9a15,15,0,0,1,2.18,2.53c1.73,2.72,1.44,5.42-.62,7.12a5.67,5.67,0,0,1-7.66-.15c-4.75-4.5-9.38-9.13-14.09-13.69C150.29,156.73,149.34,156.06,148,154.94Zm-5.52-50.69q-32.19,0-64.39,0a7,7,0,0,0-2.8.36,2.7,2.7,0,0,0-1.5,1.78,2.79,2.79,0,0,0,1.17,2.25,11.07,11.07,0,0,0,4.16.75q63.68,0,127.33,0c.72,0,1.61.2,2.12-.14,1-.64,2.18-1.51,2.39-2.48.13-.61-1.28-1.88-2.23-2.28a9.63,9.63,0,0,0-3.54-.25Z"/><path class="cls-1" d="M19.81,78.34q-2.19,9.24-4.38,18.48c-.67,2.8-1.31,5.6-2,8.4-1,4.28-4.1,6.63-7.86,6s-6.17-3.94-5.49-8.4C1.66,92.71,3.36,82.64,5,72.55Q6.83,61,8.63,49.37c.85-5.44,3.6-9.31,9-11,2.59-.8,5.19-1.56,7.78-2.34,1.41-.42,2.24,0,3.12,1.32,2.74,4,5.69,7.84,8.64,11.85,1.74-4.55,1.66-8.7-2.34-12,1.28-1.06,7.63-1.76,8.58-.93a2,2,0,0,1,0,1.9c-3.27,3.32-2.56,7.08-1.36,11.21,3.18-4.46,6.36-8.66,9.22-13.07A3.9,3.9,0,0,1,55.1,34.1c14.77.09,29.54.22,44.3.08,6.2,0,9.2,5.25,7.47,9.4-1.19,2.87-3.45,4.06-6.36,4.26Q84.76,48.95,69,50c-2.3.16-4.59.37-7.2.58-.29,2.67-.56,5.33-.88,8a221,221,0,0,0-1.47,35.63c.54,12.13,1.2,24.26,1.74,36.39.45,10.13.78,20.28,1.19,30.42.05,1.27.26,2.55.29,3.82a7.48,7.48,0,0,1-6.56,7.84c-4.25.44-7.52-1.92-8.19-6.24-1.66-10.73-3.19-21.48-4.77-32.23-1-6.87-2-13.74-3-20.61a12.72,12.72,0,0,0-.62-1.71c-1.08,7.29-2.08,13.87-3,20.44-1.66,11.38-3.24,22.76-4.95,34.13a7.13,7.13,0,0,1-7.79,6.24,7.12,7.12,0,0,1-7-7.39c.11-6.87.55-13.73.85-20.59q.78-18,1.55-35.91Q19.84,94,20.42,79.13a2.54,2.54,0,0,0-.22-.78Z"/><path class="cls-2" d="M154.72,18.17c11.16,0,22.33.06,33.5-.05,2.28,0,3,.76,2.82,2.92a35.61,35.61,0,0,0,0,5.75c.18,2.19-.9,2.83-2.81,2.8-2.24,0-4.47,0-6.7,0-9.49-.08-19-.23-28.46-.23-10.29,0-20.57.16-30.85.23-4,0-4,0-4-3.94,0-1.59.11-3.2,0-4.79-.19-2.13.68-2.75,2.75-2.74,11.25.08,22.5,0,33.75,0Z"/><path class="cls-1" d="M39.45,0A15.26,15.26,0,0,1,54.92,15.8,15.26,15.26,0,0,1,39.25,31.11c-8.91,0-15.24-6.35-15.56-14.66C23.32,6.83,30.22,0,39.45,0Z"/><path class="cls-2" d="M166.94,36.59c7.1,0,14.21.06,21.31,0,2.07,0,2.94.64,2.79,2.76a41.43,41.43,0,0,0,0,6c.17,2.19-.79,2.74-2.8,2.73-11.66-.06-23.31,0-35,0-2.79,0-5.59-.08-8.38,0-2,.08-2.68-.81-2.57-2.74a52,52,0,0,0,0-6c-.12-2.12.8-2.79,2.85-2.77,7.26.08,14.52,0,21.79,0Z"/></g></g></svg>