<svg xmlns="http://www.w3.org/2000/svg" viewBox="0 0 205.74 206.34"><defs><style>.cls-1{fill:#2c89e1;}.cls-2{fill:#2b89e1;}</style></defs><g id="Layer_2" data-name="Layer 2"><g id="Layer_1-2" data-name="Layer 1"><path class="cls-1" d="M0,105.8C-.5,76.54,8.7,53.25,26.68,33.71,49.37,9,78-2.08,111.27.32,136,2.1,157.47,12.25,175,29.79c22.24,22.19,32.39,49.33,30.47,80.67A98.56,98.56,0,0,1,178.68,173c-22.52,24.26-50.52,34.85-83.53,33.21C46.87,203.77-1.3,160.52,0,105.8ZM102.8,192.09c50.36.36,89.52-40.43,88.4-93.45-.51-24.36-11-45.14-29.17-61.47S122.28,13.21,98,14.49c-22.57,1.2-42.27,9.88-58.11,26.09-19.58,20-28,44.36-25.36,72.29C18.26,152.13,51.89,191.85,102.8,192.09Z"/><path class="cls-2" d="M133.7,95v15.21q0,14.63,0,29.27c0,5.85-2.8,8.66-8.65,8.66H69.77c-5,0-7.89-2.83-7.89-7.87q0-36.09,0-72.2c0-4.73,2.89-7.5,7.71-7.5H107.1c3.48-13.94,17-23.28,30.48-21.74a28.64,28.64,0,0,1,25.1,30.87C161.9,80,152.11,95.08,133.7,95Zm-2.81-32c-2.92,0-5.67.05-8.42,0-2.15-.06-4.6,1.61-4.84,3.45-.28,2.09,1.33,3.89,3.93,4.12a37.18,37.18,0,0,0,6.91.16c2.22-.23,2.6.72,2.54,2.56-.09,2.3-.07,4.61,0,6.91a3.57,3.57,0,0,0,3.11,3.7A3.33,3.33,0,0,0,138,81.26a16.86,16.86,0,0,0,.27-4c0-2.09,0-4.18,0-6.46,1.64,0,2.67,0,3.69,0a34.3,34.3,0,0,0,6.83-.56,4.7,4.7,0,0,0,2.58-2.91,3.22,3.22,0,0,0-1.32-2.88,18.31,18.31,0,0,0-5.6-1.36,55.35,55.35,0,0,0-6.07,0c0-2.43,0-4.63,0-6.83a14.28,14.28,0,0,0-.3-3.53,3.73,3.73,0,0,0-4.25-3c-1.55.31-3,2.48-3,4.37C130.92,56.92,130.89,59.77,130.89,63.05ZM98.09,92.81h-18c-2.55,0-4.1,1.13-4.15,3S77.62,99,80.22,99h35.43c2.47,0,4-1.24,3.95-3.16s-1.36-3-4-3C109.74,92.8,103.91,92.81,98.09,92.81Zm-5.23,23.07c4.39,0,8.78,0,13.17,0,2.56,0,4.09-1.17,4.07-3s-1.63-3.14-4-3.15q-13,0-26.11,0c-2.35,0-4,1.43-4,3.24s1.54,2.92,3.94,2.93C84.23,115.9,88.54,115.88,92.86,115.88Zm17.57-34.13a33.56,33.56,0,0,1-2-4.44c-.41-1.45-1.18-1.8-2.58-1.77-3.59.09-7.18,0-10.77,0-5.18,0-10.37,0-15.55,0-2,0-3.67,1.5-3.53,3.15a3,3,0,0,0,3.12,3C89.43,81.76,99.71,81.75,110.43,81.75Z"/></g></g></svg>