<svg xmlns="http://www.w3.org/2000/svg" viewBox="0 0 210.67 211.26"><defs><style>.cls-1{fill:#2e8be2;}.cls-2{fill:#2b89e1;}.cls-3{fill:#2d8ae2;}.cls-4{fill:#2c8ae1;}.cls-5{fill:#fcfdfe;}.cls-6{fill:#fbfcfe;}</style></defs><g id="Layer_2" data-name="Layer 2"><g id="Layer_1-2" data-name="Layer 1"><path class="cls-1" d="M164.6,134.54a18.11,18.11,0,0,0-8.89-7.54c-.5-.2-.85-1.4-.85-2.14q-.06-29.17,0-58.35V9.91H56.05v2.54q0,18.72,0,37.45c0,4.22-1.92,6.14-6.14,6.14H10.18v145.1c.71,0,1.41.11,2.1.11q70,0,139.92,0a4.67,4.67,0,0,1,4.08,1.82c2,2.42,4.08,4.69,6.58,7.52a31.23,31.23,0,0,1-4.23.66q-29.22,0-58.46,0H6.74c-5.12,0-6.69-1.59-6.69-6.74q0-76,0-152a8,8,0,0,1,2.56-6.14q22-21.93,43.87-44A7.38,7.38,0,0,1,52.12,0Q105.55.11,159,.05c4.16,0,5.81,1.6,5.81,5.75q0,63.87,0,127.74A8.09,8.09,0,0,1,164.6,134.54ZM46,17.82,17.93,46H46Z"/><path class="cls-2" d="M170.15,158.67c1.7-2.16,1.56-4.25,1.34-6.57-.52-5.45-.66-10.93-.91-16.41-.08-1.81,0-3.62,0-5.92,1,.63,1.64,1,2.25,1.44,5.43,3.94,10.69,8.13,16.31,11.77,5.83,3.79,8.83,8.67,9.24,15.75.65,11.48,1.88,22.93,3,34.38a15.14,15.14,0,0,0,1.84,5.56c1.88,3.43,4.06,6.68,6.11,10,.41.66.77,1.34,1.33,2.34-1,.08-1.72.18-2.39.18-11.25,0-22.51,0-33.76,0-1.7,0-2.42-.68-3.31-2-2.32-3.5-4.58-7.16-7.54-10.08-4.37-4.33-6.24-9.41-6.89-15.33-.7-6.27-1.74-12.5-2.74-18.73a9.69,9.69,0,0,0-1.34-3.51c-2.92-4.77-5.93-9.48-8.94-14.19a8.37,8.37,0,0,1-1.14-7.54,7.53,7.53,0,0,1,6.22-5.33,7.8,7.8,0,0,1,8.26,3.64c4.15,6.45,8.21,13,12.31,19.44C169.61,157.92,169.84,158.22,170.15,158.67Z"/><path class="cls-3" d="M66.61,147.65c0,10.48-8.53,19.6-18.56,19.72-11.47.14-20.79-8.38-20.79-19,0-12,8.37-20.52,20.2-20.57C58,127.75,66.56,136.67,66.61,147.65Zm-22-.08c-1.41-1.89-2.73-3.76-4.16-5.56a4.13,4.13,0,1,0-6.69,4.83c2.52,3.59,5.09,7.16,7.8,10.61,2,2.51,4.88,2.22,6.88-.29,3.78-4.73,7.68-9.36,11.44-14.1.64-.81,1.42-2.16,1.15-2.91a8.39,8.39,0,0,0-2.74-3.8c-1.44-1-3.1-.29-4.28,1C50.86,140.63,47.82,144,44.56,147.57Z"/><path class="cls-3" d="M66.67,91.39c.49,10.07-8.26,19.39-18.71,19.92-10.61.54-20.16-8-20.69-18.43C26.7,81.51,35,72.12,46.11,71.67A19.7,19.7,0,0,1,66.67,91.39Zm-22-.06c-.16-.07-.26-.08-.3-.14-1.24-1.66-2.46-3.33-3.72-5-1.79-2.33-4.2-2.8-6.2-1.26s-2.1,3.88-.47,6.17q3.48,4.86,7.07,9.65c2.4,3.19,5.16,3,7.57-.1,3.46-4.47,7.06-8.84,10.72-13.15,2-2.34,2.28-4.46.49-6.33s-4.15-1.86-6.41.53C50.47,84.83,47.64,88.07,44.69,91.33Z"/><path class="cls-3" d="M105.44,115.37q12.21,0,24.42,0c3.29,0,5.26,1.59,5.26,4.22s-2,4.12-5.12,4.12H81.64c-.55,0-1.12,0-1.67,0-2.6-.25-4.29-2-4.18-4.32a4.23,4.23,0,0,1,4.52-4C88.69,115.34,97.07,115.37,105.44,115.37Z"/><path class="cls-4" d="M105.71,171.51c8.29,0,16.59,0,24.88,0,3.41,0,5.63,3.08,4,5.76a5.26,5.26,0,0,1-3.71,2.36c-17,.15-34,.12-50.95.08a4,4,0,0,1-4.16-4c0-2.38,1.84-4.16,4.56-4.17C88.8,171.49,97.26,171.51,105.71,171.51Z"/><path class="cls-3" d="M111.51,151.74c-6.14,0-12.28,0-18.42,0-3.13,0-5-1.66-4.93-4.26s1.84-3.95,4.94-4q18-.08,36.09-.09c4,0,6,1.5,5.91,4.27s-2,4-5.89,4.05Z"/><path class="cls-4" d="M111.57,95.6c-6.31,0-12.63.14-18.93-.11a5.81,5.81,0,0,1-4-2.38A4.29,4.29,0,0,1,89,89.2a5,5,0,0,1,3.61-1.76c12.7-.12,25.39-.09,38.09-.06,2.64,0,4.37,1.7,4.37,4.08a4.13,4.13,0,0,1-4.37,4.12C124.34,95.63,118,95.6,111.57,95.6Z"/><path class="cls-5" d="M46,17.82V46h-28Z"/><path class="cls-6" d="M44.56,147.57c3.26-3.57,6.3-6.94,9.4-10.25,1.18-1.26,2.84-2,4.28-1a8.39,8.39,0,0,1,2.74,3.8c.27.75-.51,2.1-1.15,2.91-3.76,4.74-7.66,9.37-11.44,14.1-2,2.51-4.91,2.8-6.88.29-2.71-3.45-5.28-7-7.8-10.61A4.13,4.13,0,1,1,40.4,142C41.83,143.81,43.15,145.68,44.56,147.57Z"/><path class="cls-6" d="M44.69,91.33c3-3.26,5.78-6.5,8.75-9.61,2.26-2.39,4.52-2.49,6.41-.53s1.49,4-.49,6.33c-3.66,4.31-7.26,8.68-10.72,13.15-2.41,3.12-5.17,3.29-7.57.1S36.32,94.36,34,91.12c-1.63-2.29-1.41-4.71.47-6.17s4.41-1.07,6.2,1.26c1.26,1.65,2.48,3.32,3.72,5C44.43,91.25,44.53,91.26,44.69,91.33Z"/></g></g></svg>