<svg xmlns="http://www.w3.org/2000/svg" viewBox="0 0 165.72 204.62"><defs><style>.cls-1{fill:#2a88e1;}.cls-2{fill:#2a89e1;}</style></defs><g id="Layer_2" data-name="Layer 2"><g id="Layer_1-2" data-name="Layer 1"><path class="cls-1" d="M0,89.17V38.52c.61,0,1.15-.1,1.69-.1q68.37,0,136.72,0a4.26,4.26,0,0,1,2.71,1c8.2,7.94,16.33,15.94,24.6,24.05-.58.67-1,1.21-1.5,1.7-7.56,7.58-15.09,15.18-22.72,22.7a4.8,4.8,0,0,1-3.05,1.29Q70.22,89.33,2,89.28C1.42,89.28.87,89.22,0,89.17ZM63.54,77c8,0,15.85,0,23.65,0,1.8,0,2.31-.53,2.28-2.31-.09-7.28,0-14.55,0-21.82,0-.61-.13-1.22-.19-1.79H63.54Z"/><path class="cls-2" d="M63.92,102.6H89v102h-25Z"/><path class="cls-1" d="M89.22,0c0,8,0,15.9,0,23.78,0,.48-.75,1.36-1.16,1.36-7.94.08-15.88.06-24,.06V0Z"/></g></g></svg>