<svg xmlns="http://www.w3.org/2000/svg" viewBox="0 0 177.48 223.89"><defs><style>.cls-1{fill:#2f8ae1;}.cls-2{fill:#2a88e0;}.cls-3{fill:#338ce1;}.cls-4{fill:#328ce1;}.cls-5{fill:#338de1;}</style></defs><g id="Layer_2" data-name="Layer 2"><g id="Layer_1-2" data-name="Layer 1"><path class="cls-1" d="M41.46,13.36a12.83,12.83,0,0,0,.29-1.43C42.33,4.9,46.35.26,55.68.17q32.8-.34,65.62,0c8,.08,13.21,3.14,14.34,13.08.79,0,1.63.11,2.47.11q15.21,0,30.42,0c6.42,0,8.94,2.58,8.94,9.06q0,96.34,0,192.7c0,2.36-.15,4.64-1.91,6.48a7.17,7.17,0,0,1-5.58,2.21q-28.62-.06-57.24,0c-34.73,0-69.46-.09-104.18.09-5.76,0-8.58-3.54-8.57-8.69Q.14,123.42.06,31.62c0-3.28,0-6.56,0-9.84,0-5.63,2.71-8.37,8.39-8.4,10.3-.05,20.6,0,30.9,0ZM5.16,118.66V213c0,5.88,0,5.88,6,5.88h155.2c.8,0,1.6,0,2.39,0,3.15-.14,3.61-.6,3.61-3.69V22.18c0-3.09-.48-3.57-3.67-3.57-10.37,0-20.75,0-31.13,0-1.52,0-2.22.38-2.6,2a16.08,16.08,0,0,1-15.68,12.72q-30.76.18-61.55,0a16.11,16.11,0,0,1-15.55-12.6c-.41-1.74-1.11-2.11-2.71-2.1-10.06.06-20.12,0-30.18,0-3.81,0-4.14.33-4.14,4.07ZM88.64,5.3V5C82.5,5,76.36,5,70.22,5c-5.1,0-10.21.09-15.3.37-2.7.15-5.48.67-7,3.38-2.44,4.33-1.14,12.67,2.43,16.13,2.78,2.69,6.21,3.38,9.91,3.38q28.23,0,56.46,0a29,29,0,0,0,4.05-.31,11.24,11.24,0,0,0,9.34-9.34,35.09,35.09,0,0,0-.07-7.17c-.27-3.06-2.13-4.9-5.1-5.57a15.84,15.84,0,0,0-3.52-.56C110.48,5.29,99.56,5.3,88.64,5.3Z"/><path class="cls-1" d="M21.81,79.14V74.23H153.87v4.91Z"/><path class="cls-1" d="M21.82,149.7v-4.91h132v4.91Z"/><path class="cls-2" d="M21.89,61.07V56.33h132v4.74Z"/><path class="cls-2" d="M21.83,96.55v-4.7h132v4.7Z"/><path class="cls-2" d="M21.83,132.07v-4.7h132v4.7Z"/><path class="cls-3" d="M122.47,107.28v5H22a2,2,0,0,1-.26-.57c-.34-4.45-.34-4.45,4.09-4.45h96.69Z"/><path class="cls-4" d="M21.74,165.45v-4.9H72.2v4.9Z"/><path class="cls-5" d="M123.8,202.64l-17-13,1.53-2.11L123.43,199l24.44-28.14,2,1.67Z"/></g></g></svg>