<svg xmlns="http://www.w3.org/2000/svg" viewBox="0 0 193.89 210.24"><defs><style>.cls-1{fill:#2c8ae1;}.cls-2{fill:#2b89e1;}.cls-3{fill:#2a89e1;}.cls-4{fill:#2e8be2;}.cls-5{fill:#2d8ae1;}</style></defs><g id="Layer_2" data-name="Layer 2"><g id="Layer_1-2" data-name="Layer 1"><path class="cls-1" d="M13.26,172.68V146H7.52C2,146,0,144.76,0,141.32s2-4.55,7.4-4.55h5.82V109.4c-2.71,0-5.39,0-8.07,0-3.24,0-5.2-1.68-5.15-4.34s1.87-4.16,5.05-4.18c2.69,0,5.38,0,8.18,0V73.48H6.09C1.92,73.47,0,72,0,68.79s2-4.56,6.21-4.57h7V37.57c-2.8,0-5.49,0-8.19,0-3.09,0-5-1.76-5-4.52s2-4.72,5.11-4.74c2.63,0,5.26,0,8.23,0V20.13A19.69,19.69,0,0,1,33.49,0H156.61c11.69,0,20.15,8.59,20.14,20.33q0,40.2,0,80.4a3.6,3.6,0,0,1-1.81,3.51c-2.39,1.51-4.64,3.24-7.37,5.18v-2.86q0-43.08,0-86.16a11.09,11.09,0,0,0-2.78-7.69,10.72,10.72,0,0,0-8.36-3.48q-51.25,0-102.51,0c-.54,0-1.08.09-1.75.16V200.89c.7.05,1.39.13,2.08.13q51,0,102,0c6.73,0,11.26-4.54,11.27-11.3q0-18,0-36a3.64,3.64,0,0,1,1.8-3.53c2.38-1.54,4.62-3.29,7.37-5.28v2.62c0,14.16,0,28.32,0,42.48,0,11.79-8.5,20.22-20.27,20.22H33.83c-12.11,0-20.44-8.33-20.48-20.49,0-2.47,0-4.94,0-7.83-2.77,0-5.45,0-8.13,0C2,181.9,0,180.14,0,177.29s2-4.59,5.21-4.61C7.83,172.66,10.44,172.68,13.26,172.68Zm9.39-99.07v27.85c2.13-.69,4.16-.91,5.63-1.93,3.17-2.19,7.1-2.07,9.75.78a7.37,7.37,0,0,1,.14,9.64,6.82,6.82,0,0,1-9.67.72c-1.93-1.75-3.84-1.28-5.88-1.07v27.69c2-.6,4-.69,5.4-1.67,3.19-2.3,7.12-2.35,9.79.37a7.44,7.44,0,0,1,.39,10c-2.51,3-6.68,3.73-9.64,1.33-1.95-1.59-3.84-1.43-5.92-1.08v26.32c2.26.13,4.16.31,6.08-1.38,2.69-2.37,6.85-1.71,9.29,1a7.46,7.46,0,0,1,.27,9.67c-2.34,2.88-6.57,3.78-9.44,1.55-2-1.57-3.95-1.62-6.35-1.26,0,2.79,0,5.49,0,8.19.1,5.41,3.45,9.7,8.79,10.32,4.65.54,9.39.3,14.09.38.77,0,1.53-.1,2.28-.15V9.3C42.33,9.3,37.13,9,32,9.39a9.69,9.69,0,0,0-9.19,8.39c-.49,3.41-.1,6.94-.1,10.41,2.3.24,4.22.21,6.16-1.32,2.73-2.14,7.07-1.29,9.3,1.37A7.51,7.51,0,0,1,38,38.1c-2.46,2.63-6.61,3.24-9.33.91-1.92-1.64-3.8-1.56-5.95-1.27V64.9c2.26-.81,4.24-1.21,5.9-2.16a7.42,7.42,0,0,1,9.54,11.15c-2.28,2.63-6.4,3.43-9.06,1.23C27.08,73.49,25.11,73.37,22.65,73.61Z"/><path class="cls-2" d="M117.16,182.33c1.09-3,1.57-5.34-.8-7.29-.38-.31-.36-1.19-.39-1.81a8.56,8.56,0,0,0-3.3-6.39c-1.78-1.5-4-2.31-5.29-4.63-.47-.87-2.46-.92-4.1-1.46,1-.71,2-1.36,2.86-2l72.1-51.88c.38-.27.94-.77,1.2-.65,2.43,1.08,5.31,1.79,7.11,3.56a30.69,30.69,0,0,1,6.31,9c1.1,2.47.84,5.57,1,8.41,0,.39-.79.91-1.29,1.27q-15.24,11-30.49,22-21.56,15.51-43.13,31A16,16,0,0,1,117.16,182.33Z"/><path class="cls-2" d="M125,75.84h25.36c3.29,0,5.31,1.63,5.43,4.41.13,2.93-1.73,4.83-5.17,4.88-8,.12-15.94.1-23.92.11q-13,0-26,0a12,12,0,0,1-4-.5,4.67,4.67,0,0,1,2.24-8.84c8.69,0,17.39,0,26.09,0Z"/><path class="cls-3" d="M125.22,41.69h25.11c3.44,0,5.41,1.68,5.42,4.62s-2,4.63-5.44,4.64q-25.59,0-51.18,0C96.05,51,94,49,94.06,46.19c0-2.65,2.07-4.49,5.09-4.49Z"/><path class="cls-4" d="M121.4,118.57h-22c-3.2,0-5.28-1.78-5.34-4.53s2.07-4.85,5.32-4.85q22,0,44.06,0c3.25,0,5.28,2,5.18,4.95-.09,2.76-2.16,4.44-5.4,4.44Z"/><path class="cls-4" d="M74.47,114.19c2.81-3,5.28-5.63,7.84-8.21,2.19-2.2,5.4-1.8,6.41,1a4.9,4.9,0,0,1-.63,4.09c-3,3.55-6.36,6.89-9.71,10.18-3.18,3.12-4.67,3.06-7.84,0-2.16-2.12-4.28-4.29-6.3-6.55s-1.84-4.24,0-5.88,3.7-1.49,5.68.48C71.36,110.71,72.71,112.28,74.47,114.19Z"/><path class="cls-4" d="M74.4,46.41c2.89-3,5.39-5.67,8-8.22,1.89-1.85,4-1.78,5.67,0a3.68,3.68,0,0,1,.18,5.17c-3.49,3.72-7,7.41-10.67,11-2.18,2.11-3.89,2.11-6.09.06-2.67-2.5-5.2-5.16-7.67-7.88a3.59,3.59,0,0,1,.37-5.33c1.7-1.6,3.51-1.65,5.29.06C71.09,42.74,72.55,44.43,74.4,46.41Z"/><path class="cls-5" d="M74.34,80.15c2.86-2.91,5.39-5.57,8-8.12,2.24-2.16,5.13-1.59,6.51,1.13a3.39,3.39,0,0,1-.69,4.17c-3.42,3.58-6.8,7.2-10.38,10.6-2.66,2.52-4.11,2.4-6.78-.17-2.36-2.26-4.63-4.63-6.85-7-1.8-2-1.75-4.1,0-5.72s3.95-1.51,5.89.5C71.43,77,72.81,78.51,74.34,80.15Z"/><path class="cls-4" d="M96.91,170.73c4.69,1.65,9.91,8.61,9.85,13.07a1.91,1.91,0,0,1-1.17,1.34c-4.66,1-9.33,2-14,2.79-2.19.4-3.62-1.18-2.81-3.05a46.94,46.94,0,0,1,2.54-4.6C93.16,177.08,95.05,173.89,96.91,170.73Z"/></g></g></svg>