<svg xmlns="http://www.w3.org/2000/svg" viewBox="0 0 204.08 196.95"><defs><style>.cls-1{fill:#f2f7fc;}.cls-2{fill:#f2f8fc;}.cls-3{fill:#338de2;}.cls-4{fill:#4195e4;}.cls-5{fill:#509ee6;}</style></defs><g id="Layer_2" data-name="Layer 2"><g id="Layer_1-2" data-name="Layer 1"><path class="cls-1" d="M105,138.7c-7.73,5-12.17,2-16.4-3.87C95.69,129.11,100,133.18,105,138.7Z"/><path class="cls-2" d="M98.64,43.55c-1.2,4.24-2.4,8.47-3.88,13.71C86.41,49.61,86.61,48.72,98.64,43.55Z"/><path class="cls-3" d="M187.68,154.13c-4-.66-5.81-.94-7.6-1.25-15.71-2.66-25.35,7.64-21.2,23.11,1.47,5.49.32,8.75-5,10.74-4.83,1.82-9.54,4-14.32,5.91-13.65,5.52-13.65,5.51-23.73-5.39-8-8.65-21.75-8.1-28.23,2.36-5,8.13-10.17,9-18,5.06-5.67-2.85-11.78-4.87-17.75-7.12-5.53-2.09-7.05-5.71-5.82-11.5,3.5-16.54-6.94-26.75-23.25-22.45-6.34,1.67-9.72,0-12.07-5.82-2.83-7.06-5.95-14-9.23-20.87C-1,121.7.61,118.49,5.24,115.56c16-10.13,16-23.33-.17-32.83-4.91-2.88-6.31-6.06-3.95-11.2C3,67.39,4.56,63.08,6.36,58.89c6.09-14.21,6.11-14.2,20.85-13.24,13.58.88,22.6-9.95,18.47-22.9-2.09-6.56-1-10.33,5.72-12.69,7.44-2.61,14.72-5.75,21.93-9,5.12-2.29,8.37-1,11.48,3.63,11.09,16.4,23.5,16,34.87-.11C121.46,2.1,127,.15,130,1c8.15,2.19,15.85,6.05,23.77,9.13,5.31,2.07,6.23,5.65,5,11-4.13,17.35,5.43,26.91,23.07,23,6.43-1.41,10.59.11,12.86,6.53,1.41,4,3.3,7.85,5,11.77,5.88,13.75,5.88,13.75-5.49,23.17-9.68,8-8.73,22.14,2.77,28.14,8,4.17,8.72,8.88,5.05,16.12-3,6-5.16,12.39-8.34,18.26C192.13,150.81,189.11,152.72,187.68,154.13ZM185,142c1.82-4.19,4.22-8.48,5.44-13.08.57-2.15-.32-5.81-1.93-7.25-15.86-14.26-16-31.13-.24-45.4,1.56-1.4,3.27-3.88,3.12-5.71-.77-9.32-6.75-13.32-16.07-14.49a42.41,42.41,0,0,1-19-7.2c-10-7.29-12.15-18.26-8.86-30-5.23-2.18-9.58-4.57-14.23-5.69a9.39,9.39,0,0,0-7.6,2.1c-16,16.16-31.51,16.26-47.22.29-1.67-1.7-5.32-2.92-7.51-2.34C66,14.47,61.48,17.07,57,19.08c3.44,23.15-9,38.67-30.55,37-9.18-.73-9.19,5.41-11.95,10.34-2.95,5.24-1.43,8.42,3,12.21,14.17,12,14.35,29.93-.07,41.63-5.77,4.67-4.22,8.2-1.8,13,2.33,4.62,2.59,10.12,11,8.88a27.56,27.56,0,0,1,31.52,29.22c-.35,6.25,1.63,9,7.08,10.29s9.86,6.46,15.87-.9a27.6,27.6,0,0,1,41.9-1.32c5.34,5.77,9.55,5.93,15.53,2.68,2.87-1.57,6-2.67,8.88-3.92C143.44,153.77,158.15,139.57,185,142Z"/><path class="cls-4" d="M87.47,40.38c-1.41,1-3.16,1.82-4.13,3.17-1.09,1.52-1.48,3.55-2.18,5.35,1.83.55,3.94,2,5.43,1.52C99,46.42,111,48,123.14,52c3.31,1.09,7.5-.46,14-1l-16.52-9.86C138.28,38.65,165.7,66.67,164,84L152.69,77.2c.53,11.2,2.09,20.23,1.13,29-1.65,15-9.89,26.42-22.36,34.94-3.11,2.12-5.43,5.4-8.11,8.15l2.34,3.24,19.81-10.3c-1.34,12.45-32.15,22.6-55.81,17.93-26.48-5.21-51.93-30-48.95-46.58l10.57,6,2-1.75c-5.2-15.25-5-29.92,2.82-44.14,1-1.82-.92-5.25-2.1-10.78L44.21,78.63l-3-1.14c2.24-4.74,3.84-9.94,6.84-14.14C57.65,50,70,40.62,86.5,38.12,86.82,38.87,87.14,39.63,87.47,40.38Zm15,104.26c27-.09,47.28-19.93,47.24-46.13,0-25.77-21-45.88-47.78-45.74S54.6,73.07,54.66,99.06,75.49,144.72,102.49,144.64Zm51.7-68.73q1.51-2.53,3.05-5.07L145.9,64.46l-2.57,4.26Zm-36.11,70.46-12.21,8.17,2.08,3.19C111.12,153.44,120.42,159.23,118.08,146.37Zm28.23-83.59c.45-1.69.91-3.39,1.37-5.08l-13.57-3.51c-.41,1.47-.83,2.94-1.24,4.41ZM85,151.22l.33-5.45-13.76-.69-.36,4.5Zm2.77.46c.19,1.11.39,2.22.58,3.33,4.9-1.15,12.26,6.24,14.94-6.15ZM62.85,68.15l2.91-13.09C58.68,57.22,53.49,59.77,62.85,68.15Zm-3.6,66.21c-.57,1.73-1.13,3.45-1.7,5.17l12.31,3.7,1.45-4.33Z"/><path class="cls-5" d="M120.71,99.08c-.24,10-9.13,18.16-19.27,17.69a18.4,18.4,0,0,1-17.78-19.2c.43-9.62,8.93-17.41,18.82-17.24A18.38,18.38,0,0,1,120.71,99.08ZM102,84c-8.32.08-14.58,6.13-14.73,14.23-.15,8.46,6.41,15,15,14.88s15-6.68,14.75-15.16C116.79,89.93,110.31,83.92,102,84Z"/></g></g></svg>