<svg xmlns="http://www.w3.org/2000/svg" viewBox="0 0 192.24 205.84"><defs><style>.cls-1{fill:#2e8be2;}.cls-2{fill:#358fe3;}.cls-3{fill:#368fe3;}.cls-4{fill:#2f8be2;}</style></defs><g id="Layer_2" data-name="Layer 2"><g id="Layer_1-2" data-name="Layer 1"><path class="cls-1" d="M92.39,94.76V80.66H89.57c-17.72,0-35.45,0-53.17,0A7.37,7.37,0,0,1,30,77.88c-2.86-3.54-6-6.86-9.06-10.22-1.25-1.36-1.85-2.88-1.1-4.59S22.2,60.94,24,61c9.09,0,18.19,0,27.66,0v-2.4q0-26.76,0-53.53c0-3.9,1.1-5,4.93-5H135c3.86,0,5,1.15,5,5q0,26.78,0,53.53c0,.71.06,1.41.11,2.33.87,0,1.63.11,2.4.11,8.39,0,16.77,0,25.15,0,1.92,0,3.88,0,4.68,2.08s0,3.59-1.48,5.16c-3.23,3.32-6.29,6.81-9.26,10.35a5.61,5.61,0,0,1-4.77,2.14q-27.19-.06-54.37,0H99.83v14c.89,0,1.8.13,2.72.13q22.88,0,45.75,0c4.16,0,4.63.45,6,4.29q8.46,22.93,17,45.83,10.29,27.75,20.53,55.52c1.17,3.17-.55,5.4-4.15,5.41q-24.19,0-48.38,0l-134.14,0c-4.86,0-6.19-1.95-4.53-6.44q11.48-31,22.9-62c4.85-13.11,9.76-26.2,14.56-39.32,1-2.71,2.88-3.28,5.42-3.27,15.41,0,30.82,0,46.23,0Zm90.93,103.7c-.3-1-.49-1.72-.76-2.43-3.93-10.56-7.9-21.1-11.8-31.66q-11.2-30.33-22.33-60.7A2.13,2.13,0,0,0,146,102c-17.08.07-34.16.06-51.24.07q-24.19,0-48.38,0c-1.31,0-2.15.19-2.68,1.66-2.93,8.11-6,16.17-9,24.26q-10.93,29.55-21.84,59.11c-1.37,3.71-2.68,7.44-4.08,11.34ZM59,7.38V60.82h73.62V7.38Zm-27.45,61c2.21,3.6,4.73,5.28,9.15,5.25q55.67-.34,111.34,0c4.35,0,6.41-2,8.6-5.25Z"/><path class="cls-1" d="M138.51,150.56a42.66,42.66,0,0,1-43.12,42.5c-23-.22-42.08-19.85-41.78-42.89.31-23.37,19.6-42.36,42.78-42.13S138.77,127.64,138.51,150.56Zm-7.19.17a35.26,35.26,0,1,0-35.38,35.1A35.27,35.27,0,0,0,131.32,150.73Z"/><path class="cls-2" d="M108.59,19c-.65-.9-1.91-1.91-2.12-3.1-.3-1.69,1-2.81,2.74-2.85a2.62,2.62,0,0,1,2.88,2.8C112.13,17.63,111,18.51,108.59,19Z"/><path class="cls-2" d="M118.81,26.58c.13-1.82,1.13-2.92,2.82-3a2.63,2.63,0,0,1,2.93,2.75,2.67,2.67,0,0,1-2.75,2.94C120.11,29.38,119.08,28.27,118.81,26.58Z"/><path class="cls-3" d="M124.61,16a2.8,2.8,0,0,1-2.87,2.77,2.65,2.65,0,0,1-2.86-2.82,2.63,2.63,0,0,1,2.83-2.85C123.42,13,124.47,14.05,124.61,16Z"/><path class="cls-4" d="M116,132.93a14.79,14.79,0,0,1-1.52,2.88q-7.64,8.44-15.37,16.78c-1.76,1.89-3.9,2-5.44.56s-1.59-3.54.06-5.36c5.1-5.61,10.19-11.24,15.47-16.68a4.88,4.88,0,0,1,4-1.07C114.21,130.3,115,131.86,116,132.93Z"/></g></g></svg>