<svg xmlns="http://www.w3.org/2000/svg" viewBox="0 0 178.24 222.47"><defs><style>.cls-1{fill:#2a89e1;}.cls-2{fill:#2b89e1;}.cls-3{fill:#2d8ae2;}.cls-4{fill:#2f8be2;}.cls-5{fill:#2c89e1;}.cls-6{fill:#2c8ae1;}.cls-7{fill:#308ce2;}.cls-8{fill:#2f8ce2;}</style></defs><g id="Layer_2" data-name="Layer 2"><g id="Layer_1-2" data-name="Layer 1"><path class="cls-1" d="M178.23,111.42c0,32.25.05,64.5-.08,96.75a17.43,17.43,0,0,1-2,7.74A11.85,11.85,0,0,1,165,222.47q-75.69,0-151.39,0A13.4,13.4,0,0,1,0,209.26c0-.56,0-1.12,0-1.68Q0,111.19.07,14.8A17.64,17.64,0,0,1,1.63,7.41,12,12,0,0,1,13.26.08C63.8.13,114.35.2,164.89,0a13.81,13.81,0,0,1,13.34,13.23c0,1.6,0,3.2,0,4.8ZM8.72,111.21v95.53c0,5,1.47,6.45,6.4,6.45h148c5,0,6.43-1.44,6.43-6.4V15.73c0-5-1.43-6.44-6.38-6.44H15.41c-5.32,0-6.69,1.37-6.69,6.63Z"/><path class="cls-2" d="M46.78,67.39c1.66,11.24,3.32,22.51,5,34.1l33.84-4.9c2.08,7.27-1.26,22-12.51,30.68a34.35,34.35,0,0,1-40.08,1A33.9,33.9,0,0,1,19.85,90.83C23.53,78.43,35.87,67.6,46.78,67.39Z"/><path class="cls-3" d="M138.54,164.81V135.3c0-3.93,2-6.18,5.88-6.34,3.18-.14,6.39-.13,9.57,0,3.88.16,5.87,2.39,5.88,6.35v59.51c0,3.71-1.64,5.8-5.31,6.07a68.76,68.76,0,0,1-10.74,0c-3.7-.3-5.27-2.36-5.27-6.09Q138.53,179.81,138.54,164.81Z"/><path class="cls-4" d="M87.67,32.72c-19.73,0-39.45.05-59.17-.06a19.8,19.8,0,0,1-7.17-1.44,4.74,4.74,0,0,1-2.61-3.47c0-1.2,1.41-2.92,2.62-3.48a16,16,0,0,1,6.45-1.44q60-.12,120,0a16.21,16.21,0,0,1,6.87,1.64c3.36,1.63,3.36,5,0,6.53a18.48,18.48,0,0,1-7.35,1.64C127.43,32.78,107.55,32.72,87.67,32.72Z"/><path class="cls-2" d="M134.31,172.05q0,11.52,0,23c0,3.57-1.71,5.61-5.24,5.82a97.15,97.15,0,0,1-10.52,0c-3.61-.18-5.43-2.31-5.43-5.92V149c0-3.75,1.85-6,5.5-6.15a90.39,90.39,0,0,1,10.28,0c3.61.22,5.4,2.36,5.41,6Q134.32,160.43,134.31,172.05Z"/><path class="cls-5" d="M108.93,177.73c0,5.84,0,11.68,0,17.52,0,3.39-1.73,5.44-5.15,5.64a94.21,94.21,0,0,1-10.76,0c-3.47-.2-5.28-2.35-5.28-5.84q0-17.28,0-34.55c0-3.46,1.59-5.57,5-5.85a70.61,70.61,0,0,1,11-.06c3.73.29,5.22,2.29,5.23,6.1C108.94,166.38,108.93,172.05,108.93,177.73Z"/><path class="cls-6" d="M87.6,92.65,55.05,97.38c-1.61-11-3.19-21.77-4.77-32.52C64.31,59.59,86.53,76,87.6,92.65Z"/><path class="cls-7" d="M52.46,52.41h-28c-3.88,0-6-1.71-6-4.9s2.13-5,5.91-5q28.26,0,56.52,0c4.22,0,6.64,3.74,4.82,7.36-1,2-2.61,2.6-4.72,2.59C71.46,52.38,62,52.41,52.46,52.41Z"/><path class="cls-7" d="M130.8,108.11c-7.82,0-15.64,0-23.46,0-3.53,0-5.4-1.73-5.41-4.93s1.85-5,5.36-5q23.46,0,46.91,0c3.54,0,5.71,2,5.64,5.08s-2.17,4.86-5.59,4.86C146.43,108.12,138.61,108.11,130.8,108.11Z"/><path class="cls-8" d="M47.43,182.51c-7.89,0-15.79,0-23.69,0-2.31,0-4-.81-4.93-3a4.9,4.9,0,0,1,4.52-6.91q24.06-.06,48.1,0a5,5,0,0,1-.07,9.92C63.39,182.54,55.41,182.51,47.43,182.51Z"/><path class="cls-2" d="M128.4,43.24c7.74,0,15.49,0,23.23,0,3.53,0,5.47,1.77,5.46,4.89s-2,4.9-5.47,4.9H104.67c-3.51,0-5.46-1.79-5.46-4.91s1.94-4.87,5.48-4.88Q116.54,43.22,128.4,43.24Z"/><path class="cls-6" d="M130.55,90.56H107.33c-3.56,0-5.41-1.71-5.4-4.91s1.91-4.85,5.47-4.85h46.93c3.47,0,5.43,1.8,5.41,4.93s-1.93,4.83-5.49,4.83Z"/><path class="cls-2" d="M47.43,201H24c-3.61,0-5.44-1.67-5.45-4.87s1.9-5,5.42-5H70.87c3.54,0,5.43,1.73,5.44,4.91S74.49,201,70.9,201Z"/><path class="cls-2" d="M47.35,165c-8,0-16,0-23.94,0-2,0-3.87-.72-4.33-2.67a8.12,8.12,0,0,1,.46-5.16,4.92,4.92,0,0,1,3.76-1.91c16-.13,32.08-.1,48.12-.07a4.54,4.54,0,0,1,4.88,5c0,3-1.83,4.81-5,4.82C63.31,165,55.33,165,47.35,165Z"/></g></g></svg>