<svg xmlns="http://www.w3.org/2000/svg" viewBox="0 0 213.25 215.92"><defs><style>.cls-1{fill:#2a89e1;}.cls-2{fill:#2b89e1;}.cls-3{fill:#2e8be2;}.cls-4{fill:#2c8ae1;}.cls-5{fill:#308ce2;}.cls-6{fill:#2f8be2;}</style></defs><g id="Layer_2" data-name="Layer 2"><g id="Layer_1-2" data-name="Layer 1"><path class="cls-1" d="M201.34,79.51H178.83V22.91H22.7v158.6H78.24v23H11.7c-7,0-11.7-4.68-11.7-11.7V11.65C0,4.71,4.61,0,11.49,0H189.92c6.78,0,11.42,4.66,11.42,11.43V79.51Z"/><path class="cls-2" d="M122.56,215.63a78.18,78.18,0,0,1-19.08-36.43c-2.31-10.41-2.27-20.79,1.23-30.94,5-14.44,15.23-23.63,29.35-28.78,8.1-3,16.54-4,25.11-4.2,1.26,0,2.52,0,4,0V83.37l50.11,49.29-49.79,50.6V150.32c-3.33,0-6.5-.2-9.63,0-7.34.54-14.53,1.86-21.24,5.11-10.26,5-16.27,13.09-17.64,24.45-1.54,12.72,2.32,24.27,7.93,35.41A3,3,0,0,0,122.56,215.63Z"/><path class="cls-3" d="M78.19,56.82V45.68h78.35V56.82Z"/><path class="cls-4" d="M78.18,79.5V68.35H123V79.5Z"/><path class="cls-5" d="M45.07,124V112.54H67.39V124Z"/><path class="cls-6" d="M67.24,45.66V56.79H44.76V45.66Z"/><path class="cls-3" d="M44.77,79.54V68.3H67.16V79.54Z"/><path class="cls-3" d="M67.24,91v11.15H44.77V91Z"/><path class="cls-3" d="M78.73,90.94H96.05v11.19H78.73Z"/><path class="cls-2" d="M122.88,215.33l.12.59-.44-.29A3,3,0,0,1,122.88,215.33Z"/></g></g></svg>