<svg xmlns="http://www.w3.org/2000/svg" viewBox="0 0 194.67 163.12"><defs><style>.cls-1{fill:#2b89e1;}.cls-2{fill:#f2f7fc;}.cls-3{fill:#eff6fc;}.cls-4{fill:#f2f8fc;}.cls-5{fill:none;stroke:#60a1f1;stroke-miterlimit:10;stroke-width:2px;}.cls-6{fill:#338de2;}.cls-7{fill:#4195e4;}.cls-8{fill:#509ee6;}</style></defs><g id="Layer_2" data-name="Layer 2"><g id="Layer_1-2" data-name="Layer 1"><path class="cls-1" d="M105.42,79.42c-7.77,13.68-10.18,28.07-7.11,43.22S109.42,150,121.9,159.58a29.34,29.34,0,0,1-14.7,3.52q-37,0-74,0a64.12,64.12,0,0,1-11.44-.67C9.17,160.06.89,151,.17,137.82c-.75-13.76.89-27.33,6.88-40,5.15-10.9,13.37-17.69,25.69-18.93a12.5,12.5,0,0,1,8,1.72c4.87,2.87,9.63,6.06,14.82,8.21,11.25,4.66,22,2.55,32.23-3.62,2.12-1.28,4.24-2.58,6.22-4C97.44,78.61,101.14,78.25,105.42,79.42Z"/><path class="cls-1" d="M105.87,39.49a39.11,39.11,0,1,1-78.22-.42,39.11,39.11,0,1,1,78.22.42Z"/><path class="cls-2" d="M148.89,122.66c-2,1.3-3.19.51-4.3-1C146.45,120.14,147.59,121.21,148.89,122.66Z"/><path class="cls-3" d="M145.05,119.72c-1.7.65-2.82.24-3.19-2.64l3.64,1.72Z"/><path class="cls-4" d="M147.23,97.7c-.31,1.11-.63,2.22-1,3.6C144,99.29,144.07,99.06,147.23,97.7Z"/><path class="cls-5" d="M148.68,67a45.3,45.3,0,1,1-45.44,44.88A45.19,45.19,0,0,1,148.68,67Zm-44.24,45a44.11,44.11,0,0,0,88.22.52C192.86,88.38,173,68.14,149,68A44.11,44.11,0,0,0,104.44,112Z"/><path class="cls-6" d="M170.58,126.7l-2-.32c-4.12-.7-6.65,2-5.56,6.06.38,1.44.08,2.29-1.31,2.82s-2.5,1-3.76,1.54c-3.58,1.45-3.58,1.45-6.22-1.41a4.6,4.6,0,0,0-7.4.62c-1.32,2.13-2.67,2.36-4.73,1.33a47.17,47.17,0,0,0-4.66-1.87c-1.45-.55-1.85-1.5-1.52-3,.92-4.34-1.82-7-6.1-5.89-1.66.44-2.55,0-3.16-1.52-.75-1.85-1.57-3.68-2.43-5.47-.65-1.37-.22-2.21,1-3,4.2-2.66,4.19-6.12,0-8.61-1.29-.76-1.66-1.59-1-2.94.5-1.09.91-2.22,1.38-3.32,1.59-3.72,1.6-3.72,5.47-3.47,3.56.23,5.92-2.61,4.84-6-.55-1.72-.27-2.71,1.5-3.33,1.95-.69,3.86-1.51,5.75-2.35a2.12,2.12,0,0,1,3,1c2.91,4.3,6.17,4.21,9.15,0a3.13,3.13,0,0,1,2.7-1,61.93,61.93,0,0,1,6.23,2.39c1.4.55,1.64,1.48,1.31,2.88-1.08,4.55,1.42,7,6,6,1.69-.37,2.78,0,3.37,1.71.37,1.06.87,2.06,1.31,3.09,1.54,3.61,1.54,3.61-1.44,6.08a4.33,4.33,0,0,0,.72,7.38c2.1,1.09,2.29,2.33,1.33,4.23-.8,1.56-1.36,3.25-2.19,4.78A6.94,6.94,0,0,1,170.58,126.7Zm-.7-3.19a25,25,0,0,0,1.43-3.43,2.27,2.27,0,0,0-.51-1.9c-4.16-3.74-4.2-8.16-.06-11.9a2.28,2.28,0,0,0,.81-1.5c-.2-2.45-1.77-3.5-4.21-3.8a11.13,11.13,0,0,1-5-1.89c-2.63-1.91-3.19-4.79-2.32-7.88a25.93,25.93,0,0,0-3.74-1.49,2.44,2.44,0,0,0-2,.55c-4.18,4.24-8.26,4.26-12.38.07a2.47,2.47,0,0,0-2-.61,26.84,26.84,0,0,0-3.65,1.55c.9,6.08-2.36,10.15-8,9.7-2.41-.19-2.41,1.42-3.13,2.71s-.38,2.21.8,3.2c3.71,3.15,3.76,7.85,0,10.92-1.52,1.23-1.11,2.15-.48,3.41s.68,2.66,2.88,2.34a7.22,7.22,0,0,1,8.26,7.66c-.09,1.64.43,2.35,1.86,2.7s2.59,1.69,4.16-.24a7.25,7.25,0,0,1,11-.35c1.4,1.52,2.51,1.56,4.07.71.76-.41,1.58-.7,2.33-1C159,126.61,162.84,122.89,169.88,123.51Z"/><path class="cls-7" d="M144.3,96.87a4.55,4.55,0,0,0-1.08.83,5.87,5.87,0,0,0-.57,1.41c.47.14,1,.52,1.42.39a15,15,0,0,1,9.58.42c.87.28,2-.12,3.67-.27L153,97.06c4.64-.64,11.83,6.71,11.37,11.26l-3-1.79c.14,2.94.55,5.3.3,7.6a12.55,12.55,0,0,1-5.86,9.16,15.39,15.39,0,0,0-2.13,2.14l.61.85,5.2-2.7c-.35,3.26-8.43,5.92-14.64,4.7-6.94-1.37-13.62-7.88-12.84-12.22l2.78,1.57.53-.46a13.74,13.74,0,0,1,.74-11.57c.26-.48-.24-1.38-.55-2.83L133,106.9l-.78-.3a24,24,0,0,1,1.8-3.71c2.51-3.51,5.75-6,10.07-6.61Zm3.94,27.34c7.07,0,12.4-5.22,12.39-12.09a12.48,12.48,0,0,0-24.94.14C135.71,119.05,141.16,124.24,148.24,124.21Zm13.56-18,.8-1.33c-1-.56-2-1.12-3-1.67L159,104.3Zm-9.47,18.48-3.2,2.14.54.84C150.5,126.52,152.94,128,152.33,124.67Zm7.4-21.92.36-1.34-3.56-.92-.32,1.16Zm-16.08,23.19.09-1.43-3.61-.18-.1,1.18Zm.73.12.15.87c1.28-.3,3.21,1.64,3.92-1.61Zm-6.54-21.91.77-3.43C136.75,101.29,135.39,102,137.84,104.15Zm-.94,17.37-.45,1.36,3.23,1,.38-1.14Z"/><path class="cls-8" d="M153,112.27a4.87,4.87,0,1,1-4.78-4.92A4.82,4.82,0,0,1,153,112.27Zm-4.9-4a3.82,3.82,0,1,0,3.94,3.66A3.77,3.77,0,0,0,148.12,108.31Z"/></g></g></svg>