<svg xmlns="http://www.w3.org/2000/svg" viewBox="0 0 220.91 217.06"><defs><style>.cls-1{fill:#2b89e1;}</style></defs><g id="Layer_2" data-name="Layer 2"><g id="Layer_1-2" data-name="Layer 1"><path class="cls-1" d="M179.17,148.18V123.76c0-5.44,0-10.88,0-16.32,0-3.42-1.57-5-5-5q-64.67,0-129.34,0c-3.81,0-5.17,1.41-5.18,5.23q0,18,0,36c0,.7.06,1.41.1,2.22a37.29,37.29,0,0,1,15.85,6.46c11.5,8.52,16.78,23.06,13.17,36.48A34.53,34.53,0,0,1,38.9,214.68,34.93,34.93,0,0,1,.17,183.58C-1.44,168,8.71,152.34,23.75,147.53c1.86-.6,2.4-1.35,2.38-3.29-.1-12.48-.05-25-.05-37.44,0-10.37,7.59-18,18-18h58.38c.06-.79.15-1.48.15-2.16,0-5.28-.05-10.56,0-15.84,0-1.62-.35-2.3-2-2.74a34.85,34.85,0,0,1-25.92-30.9A34.76,34.76,0,0,1,108.66,0c17.27-.16,31.81,11.34,35.07,28A34.63,34.63,0,0,1,118.6,68c-1.73.47-2.27,1.11-2.24,2.87.11,5.9,0,11.8,0,18h58.12c10.89,0,18.27,7.45,18.27,18.42v41c21.88,5.12,29.58,24.4,27.89,37.84a35,35,0,0,1-68.78,4.27A35.28,35.28,0,0,1,179.17,148.18Z"/></g></g></svg>