<svg xmlns="http://www.w3.org/2000/svg" viewBox="0 0 178.13 223.98"><defs><style>.cls-1{fill:#2d89e1;}.cls-2{fill:#fdfdfe;}.cls-3{fill:#fbfdfe;}.cls-4{fill:#308be1;}.cls-5{fill:#2e8ae1;}.cls-6{fill:#358de2;}.cls-7{fill:#2f8be1;}.cls-8{fill:#2c89e0;}.cls-9{fill:#fbfcfe;}.cls-10{fill:#3d92e3;}.cls-11{fill:#fcfdfe;}.cls-12{fill:#f3f8fc;}.cls-13{fill:#f1f7fc;}.cls-14{fill:#f4f8fd;}.cls-15{fill:#f2f8fc;}.cls-16{fill:#f4f9fd;}.cls-17{fill:#f3f8fd;}.cls-18{fill:#f5f9fd;}.cls-19{fill:#3f93e3;}.cls-20{fill:#fafcfd;}</style></defs><g id="Layer_2" data-name="Layer 2"><g id="Layer_1-2" data-name="Layer 1"><path class="cls-1" d="M136.79,13.12h18.78c3.76,0,7.51,0,11.26,0,6.7.1,11.25,4.66,11.25,11.4q0,94.11,0,188.2A11.2,11.2,0,0,1,166.82,224q-77.73-.25-155.45,0A11.25,11.25,0,0,1,0,212.54Q.12,118.67.05,24.82c0-7.17,4.51-11.67,11.69-11.69,9.18,0,18.36,0,27.54,0,1.06,0,1.94.11,2.29-1.38C43.41,3.78,47.92.12,56.1.09c17.49-.07,35,0,52.46,0C113.74.06,119-.2,124.1.35c6.7.73,11.17,4.41,12.16,11.5a2.83,2.83,0,0,0,.19.69A4.75,4.75,0,0,0,136.79,13.12ZM41.31,20.77H12.69c-4.13,0-5.07.94-5.07,5.06V211.41c0,4.17.91,5.11,5,5.11H165.49c4.11,0,5-.94,5-5.11.16-14.39.42-28.78.48-43.18,0-6.78-.45-13.57-.47-20.36-.06-23.36,0-46.73,0-70.1V25.19c0-3-1.11-4.39-3.79-4.4q-14.49-.08-29,0a2.36,2.36,0,0,0-1.7,1.35c-2.94,8.74-9.27,13.34-18.55,13.34H61.19C50.55,35.52,44.62,31.18,41.31,20.77ZM89.08,7.41c-6.54,0-13.08,0-19.62,0-4,0-8-.13-12,.2-7.78.64-8.73,1.83-8.67,9.68.05,6,4.34,10.54,10.38,10.56q29.67.09,59.35,0c5.07,0,9.43-3.48,10.11-8.2a34.54,34.54,0,0,0-.14-7.39,4.18,4.18,0,0,0-3.64-3.92,41.08,41.08,0,0,0-7.57-.9C107.91,7.35,98.5,7.41,89.08,7.41Z"/><path class="cls-2" d="M41.31,20.77c3.31,10.41,9.24,14.75,19.88,14.76h56.3c9.28,0,15.61-4.6,18.55-13.34a2.36,2.36,0,0,1,1.7-1.35q14.49-.13,29,0c2.68,0,3.78,1.39,3.79,4.4V77.77c0,23.37,0,46.74,0,70.1,0,6.79.5,13.58.47,20.36-.06,14.4-.32,28.79-.48,43.18-.05,4.17-.93,5.11-5,5.11H12.65c-4.12,0-5-.94-5-5.11V25.83c0-4.12.94-5.06,5.07-5.06ZM22.83,98.11H153.49V90.66H22.83Zm130.7-24.83H22.86v7.38H153.53ZM22.91,62.9H153.46V55.52H22.91Zm99.52,43.46H23v7.25h99.54c0-2,0-3.88,0-5.71C122.51,107.43,122.46,107,122.43,106.36Zm20.66,86.4a7.81,7.81,0,0,1,7.44-7.86,12.42,12.42,0,0,1,3.11.15c2.27.45,3.67-.43,4.48-2.54.9-2.38,1.85-4.76,2.81-7.12.75-1.83,0-2.83-1.52-3.94a11.23,11.23,0,0,1-4-4.42c-1.61-4.09,0-7.75,3.9-9.88,1.9-1,2.49-2.28,1.6-4.29-1.17-2.63-2.26-5.29-3.35-8-.68-1.67-1.69-2.26-3.55-1.74-7.51,2.07-12.48-2.93-10.44-10.47.45-1.66.17-2.77-1.53-3.43-2.6-1-5.19-2.06-7.74-3.19-2.15-.94-3.74-.41-4.76,1.65-2.88,5.81-12.19,5.79-14.56-.57-.66-1.78-1.9-2.17-3.64-1.4-2.84,1.25-5.72,2.44-8.6,3.6-1.68.68-2,1.76-1.52,3.44a10.79,10.79,0,0,1,.56,4.43c-.76,4.67-5.1,7.47-10,6.38-2.54-.55-4,.23-4.87,2.5-.83,2.08-1.78,4.11-2.6,6.19-1.13,2.87-.84,3.66,1.78,5.31,3.26,2,5,5.13,3.84,8.48a13.78,13.78,0,0,1-3.92,5.45c-1.89,1.7-2.61,3.25-1.49,5.61,1,2.09,1.77,4.29,2.77,6.37s2.43,2.7,4.72,1.94a7.51,7.51,0,0,1,4.15-.13,7.91,7.91,0,0,1,5.59,9.51c-.66,3.33-.42,3.78,2.7,5.07,2,.82,4,1.64,6,2.44,3,1.22,3.55,1.06,5.33-1.59,3.34-5,9.19-5.42,13.17-.94,3.15,3.55,3.41,3.62,7.76,1.91.74-.29,1.47-.62,2.19-.95,4.75-2.18,4.74-2.19,4.32-7.3C143.11,193.24,143.1,193,143.09,192.76ZM91.77,125.87H22.85v7.34a6,6,0,0,0,1,.2q29.67,0,59.34,0a3,3,0,0,0,1.9-.74C87.34,130.49,89.47,128.24,91.77,125.87Zm-13.6,17.38H22.87v7.26a2.05,2.05,0,0,0,.41.16q25.5,0,51,.06a1.84,1.84,0,0,0,1.41-.85C76.58,147.76,77.31,145.59,78.17,143.25ZM22.88,166.08h49.8v-7.32H22.88Z"/><path class="cls-3" d="M89.08,7.41c9.42,0,18.83-.06,28.24,0a41.08,41.08,0,0,1,7.57.9,4.18,4.18,0,0,1,3.64,3.92,34.54,34.54,0,0,1,.14,7.39c-.68,4.72-5,8.19-10.11,8.2q-29.67.08-59.35,0c-6,0-10.33-4.53-10.38-10.56-.06-7.85.89-9,8.67-9.68,4-.33,8-.19,12-.2C76,7.39,82.54,7.41,89.08,7.41Z"/><path class="cls-4" d="M22.83,98.11V90.66H153.49v7.45Z"/><path class="cls-5" d="M153.53,73.28v7.38H22.86V73.28Z"/><path class="cls-1" d="M22.91,62.9V55.52H153.46V62.9Z"/><path class="cls-1" d="M122.43,106.36c0,.6.08,1.07.08,1.54,0,1.83,0,3.67,0,5.71H23v-7.25Z"/><path class="cls-6" d="M143.09,192.76c0,.24,0,.48,0,.72.42,5.11.43,5.12-4.32,7.3-.72.33-1.45.66-2.19.95-4.35,1.71-4.61,1.64-7.76-1.91-4-4.48-9.83-4.07-13.17.94-1.78,2.65-2.28,2.81-5.33,1.59-2-.8-4-1.62-6-2.44-3.12-1.29-3.36-1.74-2.7-5.07a7.91,7.91,0,0,0-5.59-9.51,7.51,7.51,0,0,0-4.15.13c-2.29.76-3.76.06-4.72-1.94s-1.77-4.28-2.77-6.37c-1.12-2.36-.4-3.91,1.49-5.61a13.78,13.78,0,0,0,3.92-5.45c1.13-3.35-.58-6.44-3.84-8.48-2.62-1.65-2.91-2.44-1.78-5.31.82-2.08,1.77-4.11,2.6-6.19.91-2.27,2.33-3.05,4.87-2.5,4.93,1.09,9.27-1.71,10-6.38a10.79,10.79,0,0,0-.56-4.43c-.46-1.68-.16-2.76,1.52-3.44,2.88-1.16,5.76-2.35,8.6-3.6,1.74-.77,3-.38,3.64,1.4,2.37,6.36,11.68,6.38,14.56.57,1-2.06,2.61-2.59,4.76-1.65,2.55,1.13,5.14,2.18,7.74,3.19,1.7.66,2,1.77,1.53,3.43-2,7.54,2.93,12.54,10.44,10.47,1.86-.52,2.87.07,3.55,1.74,1.09,2.66,2.18,5.32,3.35,8,.89,2,.3,3.26-1.6,4.29-3.9,2.13-5.51,5.79-3.9,9.88a11.23,11.23,0,0,0,4,4.42c1.55,1.11,2.27,2.11,1.52,3.94-1,2.36-1.91,4.74-2.81,7.12-.81,2.11-2.21,3-4.48,2.54a12.42,12.42,0,0,0-3.11-.15A7.81,7.81,0,0,0,143.09,192.76Zm-57-18.16c.84,2.19,1.61,4.36,2.5,6.48a2.93,2.93,0,0,0,3.68,1.85,9.26,9.26,0,0,1,11.12,6.62c.53,2,.29,4.12.6,6.16a3.06,3.06,0,0,0,1.23,2.09,38.75,38.75,0,0,0,6,2.39,2.37,2.37,0,0,0,2.12-.56c4.55-6.78,13.36-7,18.36-.15.32.44,1.11,1,1.43.9,2.37-.93,4.92-1.7,6.88-3.2.88-.68.68-2.94.73-4.49.19-5.71,4.11-10.27,9.78-9.93,4.34.26,6-1.61,7.05-5.16a4.27,4.27,0,0,1,.46-1.1c1-1.62.49-2.58-1-3.71-5.43-4.19-6.59-9.72-1.93-14.42,3.82-3.86,3.32-6.92,1.13-10.92-.79-1.43-1.27-1.93-3-1.59-6.86,1.35-12.59-3.17-12.71-10.1-.09-4.93.5-4.88-5.25-7-.95-.35-1.93-.62-2.84-.91-6.08,9.41-15.55,8-20.48,0-1.75.68-3.49,1.49-5.3,2-2.48.76-3.08,2.29-2.69,4.76,1,6-3.83,12.15-9.82,11.42-4.82-.59-6.13,1.5-7.08,5.17a4.46,4.46,0,0,1-.45,1.11c-.85,1.43-.48,2.29.91,3.3,6,4.37,6.48,11.87,1.25,16.75C88,173.18,87.09,173.82,86.12,174.6Z"/><path class="cls-7" d="M91.77,125.87c-2.3,2.37-4.43,4.62-6.64,6.79a3,3,0,0,1-1.9.74q-29.67,0-59.34,0a6,6,0,0,1-1-.2v-7.34Z"/><path class="cls-5" d="M78.17,143.25c-.86,2.34-1.59,4.51-2.48,6.63a1.84,1.84,0,0,1-1.41.85q-25.5,0-51-.06a2.05,2.05,0,0,1-.41-.16v-7.26Z"/><path class="cls-8" d="M22.88,166.08v-7.32h49.8v7.32Z"/><path class="cls-9" d="M86.12,174.6c1-.78,1.89-1.42,2.69-2.17,5.23-4.88,4.72-12.38-1.25-16.75-1.39-1-1.76-1.87-.91-3.3a4.46,4.46,0,0,0,.45-1.11c1-3.67,2.26-5.76,7.08-5.17,6,.73,10.77-5.43,9.82-11.42-.39-2.47.21-4,2.69-4.76,1.81-.56,3.55-1.37,5.3-2,4.93,8,14.4,9.4,20.48,0,.91.29,1.89.56,2.84.91,5.75,2.11,5.16,2.06,5.25,7,.12,6.93,5.85,11.45,12.71,10.1,1.73-.34,2.21.16,3,1.59,2.19,4,2.69,7.06-1.13,10.92-4.66,4.7-3.5,10.23,1.93,14.42,1.47,1.13,2,2.09,1,3.71a4.27,4.27,0,0,0-.46,1.1c-1,3.55-2.71,5.42-7.05,5.16-5.67-.34-9.59,4.22-9.78,9.93,0,1.55.15,3.81-.73,4.49-2,1.5-4.51,2.27-6.88,3.2-.32.12-1.11-.46-1.43-.9-5-6.81-13.81-6.63-18.36.15a2.37,2.37,0,0,1-2.12.56,38.75,38.75,0,0,1-6-2.39,3.06,3.06,0,0,1-1.23-2.09c-.31-2-.07-4.2-.6-6.16a9.26,9.26,0,0,0-11.12-6.62,2.93,2.93,0,0,1-3.68-1.85C87.73,179,87,176.79,86.12,174.6Zm12.66-3.06c-.11,6.61,9.48,15.53,18.87,17.24,8.34,1.53,19-1.4,20.68-6.11l-6.87,4c-1-2.83.24-4.33,2.2-5.62a18.72,18.72,0,0,0,8.86-16.8,75.49,75.49,0,0,0-1.09-8.51l4.53,1.11c.35-5.53-9.53-16-15.52-15.56l5.69,3.37-.25.84c-7.25.29-14.49-2.75-21.74.05l-.44-.71.92-3.84c-5.27-.2-15.13,8.92-15.11,14.77L103,150.2c2,1.59,2.35,3.42,1.29,5.42-2.12,4-2.19,8.26-1.55,12.61.22,1.46.28,3,.5,5.24Z"/><path class="cls-10" d="M98.78,171.54l4.5,1.93c-.22-2.29-.28-3.78-.5-5.24-.64-4.35-.57-8.58,1.55-12.61,1.06-2,.71-3.83-1.29-5.42l-3.53,5.54c0-5.85,9.84-15,15.11-14.77l-.92,3.84.44.71c7.25-2.8,14.49.24,21.74-.05l.25-.84-5.69-3.37c6-.41,15.87,10,15.52,15.56l-4.53-1.11a75.49,75.49,0,0,1,1.09,8.51,18.72,18.72,0,0,1-8.86,16.8c-2,1.29-3.24,2.79-2.2,5.62l6.87-4c-1.69,4.71-12.34,7.64-20.68,6.11C108.26,187.07,98.67,178.15,98.78,171.54Zm23.67-26.11a18.94,18.94,0,1,0,18.87,18.81A18.73,18.73,0,0,0,122.45,145.43Zm6.85,38.27c-3.5.11-4.83,1.07-5.47,3.94C127.47,188.44,130.67,187.81,129.3,183.7Zm-12.86,3c3.72,2.38,5.7,1.85,6.42-1.71C119.52,183.8,117.86,184.24,116.44,186.69Zm17.29-39.56c2.36,3,4.08,3.4,6.59,1.76C138.7,145.64,137.81,145.39,133.73,147.13ZM116.48,184c-3.52-2-4.45-2-6.6,0C113,187.07,114.2,187.09,116.48,184Zm27.27-29.71c-.88-4-2.14-4.6-5.28-2.78C139.63,154.73,140.71,155.32,143.75,154.26Zm-33.1,26.84c-2.35-2.84-3.9-3.17-6.06-1.39C106.9,183.29,108.06,183.59,110.65,181.1Zm-4.52-29.44c2.93-2,3.13-3,1.29-5.9C103.7,148.77,103.7,148.77,106.13,151.66Zm-5,23c1.12,3.88,2,4.27,5.09,2.27C104.72,173.64,104,173.32,101.15,174.66Zm11.2-31.9c-3.78,1.38-3.85,1.56-2.28,5C112.67,146.94,113,146.35,112.35,142.76Z"/><path class="cls-11" d="M122.45,145.43a18.94,18.94,0,1,1-19,18.76A18.7,18.7,0,0,1,122.45,145.43Zm0,11.59a7.35,7.35,0,0,0-7.33,7.31,7.31,7.31,0,0,0,14.62,0A7.34,7.34,0,0,0,122.41,157Z"/><path class="cls-12" d="M129.3,183.7c1.37,4.11-1.83,4.74-5.47,3.94C124.47,184.77,125.8,183.81,129.3,183.7Z"/><path class="cls-13" d="M116.44,186.69c1.42-2.45,3.08-2.89,6.42-1.71C122.14,188.54,120.16,189.07,116.44,186.69Z"/><path class="cls-12" d="M133.73,147.13c4.08-1.74,5-1.49,6.59,1.76C137.81,150.53,136.09,150.09,133.73,147.13Z"/><path class="cls-14" d="M116.48,184c-2.28,3.12-3.52,3.1-6.6,0C112,182,113,182,116.48,184Z"/><path class="cls-15" d="M143.75,154.26c-3,1.06-4.12.47-5.28-2.78C141.61,149.66,142.87,150.3,143.75,154.26Z"/><path class="cls-16" d="M110.65,181.1c-2.59,2.49-3.75,2.19-6.06-1.39C106.75,177.93,108.3,178.26,110.65,181.1Z"/><path class="cls-12" d="M106.13,151.66c-2.43-2.89-2.43-2.89,1.29-5.9C109.26,148.7,109.06,149.65,106.13,151.66Z"/><path class="cls-17" d="M101.15,174.66c2.87-1.34,3.57-1,5.09,2.27C103.17,178.93,102.27,178.54,101.15,174.66Z"/><path class="cls-18" d="M112.35,142.76c.61,3.59.32,4.18-2.28,5C108.5,144.32,108.57,144.14,112.35,142.76Z"/><path class="cls-19" d="M122.41,157a7.34,7.34,0,0,1,7.29,7.35,7.31,7.31,0,0,1-14.62,0A7.35,7.35,0,0,1,122.41,157Zm0,13.16a6,6,0,0,0,5.95-6.12,6,6,0,1,0-12,.31A6.06,6.06,0,0,0,122.43,170.18Z"/><path class="cls-20" d="M122.43,170.18a6.06,6.06,0,0,1-6-5.81,6,6,0,1,1,12-.31A6,6,0,0,1,122.43,170.18Z"/></g></g></svg>