<svg xmlns="http://www.w3.org/2000/svg" viewBox="0 0 211.8 195.37"><defs><style>.cls-1{fill:#2c89e1;}.cls-2{fill:#2c8ae1;}.cls-3{fill:#2d8ae2;}.cls-4{fill:#2e8be2;}.cls-5{fill:#328de2;}.cls-6{fill:#2f8be2;}.cls-7{fill:#338ee2;}.cls-8{fill:#348ee2;}.cls-9{fill:#348ee3;}.cls-10{fill:#e8f2fb;}.cls-11{fill:#eaf3fb;}.cls-12{fill:#eef5fc;}.cls-13{fill:#f1f7fc;}.cls-14{fill:none;stroke:#60a1f1;stroke-miterlimit:10;stroke-width:2px;}</style></defs><g id="Layer_2" data-name="Layer 2"><g id="Layer_1-2" data-name="Layer 1"><path class="cls-1" d="M47.54,163.51a13,13,0,0,1,.56,1.2c3.27,9.85,10.47,14.82,20.45,15.2,7.2.28,14.46-.61,21.69-1,3.1-.19,6.2-.52,9.29-.84a2,2,0,0,1,2.49,1.81,32.19,32.19,0,0,1,.27,13.78c-.25,1.16-.69,1.75-2,1.75q-44.27-.08-88.54-.06a4.18,4.18,0,0,1-.69-.15c-1.37-4.23-.95-8.51.2-12.79,2.13-8,8-18.35,14.5-25.4,1.4,4.79,4.11,8.31,8.92,9.79S43.73,166.84,47.54,163.51Z"/><path class="cls-2" d="M34.16,80.78c-20.28,18.51-18.22,48.38-1.3,61.66-5.08,4.05-5.08,4.05-7.41,10.05-31.4-17.82-34.32-67.7-5.55-93a22.08,22.08,0,0,0,3.45,13A21,21,0,0,0,34.16,80.78Z"/><path class="cls-2" d="M40.31,40.52c-2.14.69-3-.5-3.67-2.27-1.37-3.4-3-6.71-4.46-10.08-1.21-2.76-.67-4.42,2-5.7q5.93-2.85,12-5.51c2.42-1.07,4.07-.2,5.38,2.73q6.06,13.58,12.09,27.14Q73,68.07,82.52,89.29c1.63,3.66,1.09,5-2.62,6.74-3.49,1.59-7,3.22-10.44,4.8-2.77,1.24-4.57.58-5.81-2.17-3-6.7-6-13.44-9-20.1-.72-1.55-.48-2.46.62-3.75,5.65-6.64,6.89-14.19,3.37-22.13C55.14,44.9,48.78,41,40.31,40.52Z"/><path class="cls-3" d="M63.27,128.72c1.67.69.88,4.06,3.82,2.33l-.86-2.75,36-16.56,4.13,9.31L70.49,137.57l-1.84-2.77c-.47.94-1.23,1.76-1.06,2.2,1.17,2.95,2.53,5.82,4.18,9.5C73.1,145,74,143.9,75,142.87a9.93,9.93,0,0,1,2.59-2.32c6.63-3.15,13.31-6.19,20-9.23,2.28-1,4.27-.36,5.23,1.68a4.18,4.18,0,0,1-1.87,5.32q-10.4,4.88-20.86,9.6a6.55,6.55,0,0,1-2.32.32c-1.53.09-3.07.1-4.9.16.33,1.15.41,1.6.58,2,1.59,3.76,1,6.12-2.65,7.9a27.82,27.82,0,0,1-8.86,2.56c-4,.43-8.06.1-11.75.1l.93-10.82,7.58.5-7.24-16.48Z"/><path class="cls-4" d="M57.43,61.24A17.36,17.36,0,0,1,39.9,78.67c-9.25-.06-17-8.08-17-17.55a17.26,17.26,0,1,1,34.52.12Zm-8.22-.18a9,9,0,1,0-8.82,9.15A9,9,0,0,0,49.21,61.06Z"/><path class="cls-5" d="M38.44,164.26a9.69,9.69,0,0,1-9.86-9.82,9.8,9.8,0,0,1,9.54-9.95,9.94,9.94,0,0,1,10,10A9.79,9.79,0,0,1,38.44,164.26Zm-5.69-10a5.83,5.83,0,0,0,5.47,5.88,5.8,5.8,0,0,0,5.72-5.63,5.65,5.65,0,0,0-5.48-5.79A5.56,5.56,0,0,0,32.75,154.28Z"/><path class="cls-6" d="M74.64,114c-.89-2.27-1.59-4.22-2.43-6.11-.25-.57-1-1.45-1.34-1.39-2.68.5-2.29-1.71-3.12-3.18l15.16-7.22,1.57,3.19c-2.28,1.39-1.44,3-.44,4.79.78,1.36,1.45,2.79,2.3,4.43Z"/><path class="cls-6" d="M29.32,10.86,40.18,5.91l4.94,10.24-11.29,5Z"/><path class="cls-7" d="M25.75,11c-.41-.35-1.29-.73-1.48-1.34a2.92,2.92,0,0,1,.52-2.12,3.67,3.67,0,0,1,1.57-1L39.58.32c1.3-.6,2.59-.39,3,1a3.1,3.1,0,0,1-1,2.74C36.7,6.4,31.72,8.57,26.78,10.8A5.36,5.36,0,0,1,25.75,11Z"/><path class="cls-8" d="M178.53,171.66V131.77h8.57v39.89Z"/><path class="cls-5" d="M139.32,151.75a4.42,4.42,0,0,1-4.43-4.16,4.63,4.63,0,0,1,4.15-4.5,6.13,6.13,0,0,0,3.14-1.54c1.79-1.81,3.33-3.87,5-5.81,1.42-1.66,3-3.08,2.38-5.78-.42-2,1.53-3.72,3.63-4s4.5,1,4.71,3.14,1.45,2.81,2.9,3.62c.56.31,1.11.64,1.66,1,3.8,2.24,6.86,1.69,9.75-1.74,1.49-1.77,3-3.51,4.51-5.29,1.19-1.42,2.51-2.58,1.83-5-.58-2.06,1.83-4.25,4.12-4.37a4.6,4.6,0,0,1,4.6,4c.2,2.21-1.7,4.61-4,4.48-1.86-.11-2.75.79-3.73,2-2,2.41-4.09,4.71-6,7.19a5.16,5.16,0,0,0-.92,3.1c.1,2.61-1.3,4.69-3.73,5a4.55,4.55,0,0,1-5-3.79,4.47,4.47,0,0,0-1.39-2.17c-.84-.71-2.08-1-2.83-1.76-2.27-2.35-4.91-.66-7.36-.89-3,3.58-6.07,7.15-9,10.77-.17.21.23.88.32,1.34A4.36,4.36,0,0,1,139.32,151.75ZM183,119.58c-.73.93-1.45,1.46-1.51,2.06-.05.4.8,1.24,1.28,1.27s1.45-.68,1.46-1.09C184.23,121.22,183.59,120.61,183,119.58Zm-27.2,10.68c-.93-.66-1.49-1.33-2.09-1.38-.41,0-1.32,1-1.23,1.26a2.25,2.25,0,0,0,1.41,1.38C154.29,131.61,154.89,130.88,155.78,130.26Zm14.48,8.57c-.87-.66-1.41-1.37-1.89-1.34s-1,.77-1.52,1.2c.5.51.93,1.28,1.52,1.45C168.75,140.24,169.38,139.47,170.26,138.83Zm-29,8.51c-.87-.58-1.53-1.32-1.93-1.2-.56.16-.93,1-1.37,1.52.51.39,1,1.11,1.52,1.09S140.46,148,141.24,147.34Z"/><path class="cls-2" d="M149.56,171.7V140.38h8.37V171.7Z"/><path class="cls-2" d="M164,148.94h8.42V171.7H164Z"/><path class="cls-9" d="M134.92,171.63v-14h8.57v14Z"/><path class="cls-10" d="M183,119.58c.61,1,1.25,1.64,1.23,2.24,0,.41-1,1.12-1.46,1.09s-1.33-.87-1.28-1.27C181.53,121,182.25,120.51,183,119.58Z"/><path class="cls-11" d="M155.78,130.26c-.89.62-1.49,1.35-1.91,1.26a2.25,2.25,0,0,1-1.41-1.38c-.09-.3.82-1.29,1.23-1.26C154.29,128.93,154.85,129.6,155.78,130.26Z"/><path class="cls-12" d="M170.26,138.83c-.88.64-1.51,1.41-1.89,1.31-.59-.17-1-.94-1.52-1.45.5-.43,1-1.15,1.52-1.2S169.39,138.17,170.26,138.83Z"/><path class="cls-13" d="M141.24,147.34c-.78.66-1.27,1.39-1.78,1.41s-1-.7-1.52-1.09c.44-.54.81-1.36,1.37-1.52C139.71,146,140.37,146.76,141.24,147.34Z"/><circle class="cls-14" cx="161.08" cy="144.48" r="49.72"/></g></g></svg>