<svg xmlns="http://www.w3.org/2000/svg" viewBox="0 0 217.62 182.11"><defs><style>.cls-1{fill:#2b89e1;}.cls-2{fill:#2d8ae2;}.cls-3{fill:#2c8ae1;}.cls-4{fill:#2e8be2;}.cls-5{fill:#328de2;}.cls-6{fill:#f3f8fc;}.cls-7{fill:#fdfefe;}.cls-8{fill:#318de2;}.cls-9{fill:#318ce2;}.cls-10{fill:#348ee2;}.cls-11{fill:#348ee3;}.cls-12{fill:#e8f2fb;}.cls-13{fill:#eaf3fb;}.cls-14{fill:#eef5fc;}.cls-15{fill:#f1f7fc;}.cls-16{fill:none;stroke:#60a1f1;stroke-miterlimit:10;stroke-width:2px;}</style></defs><g id="Layer_2" data-name="Layer 2"><g id="Layer_1-2" data-name="Layer 1"><path class="cls-1" d="M69.06,144.92a64.16,64.16,0,0,1-27.14-20.84c.95-.06,1.54-.14,2.13-.14,7.81,0,15.64-.19,23.45.13,3.94.15,7.82,1.38,11.76,1.86,11.12,1.34,22,.77,31.69-5.27.29,7.35.58,14.67.9,22.63l-10.45,3.62a19.22,19.22,0,0,1-.91,15h14.27c5.93,0,8.4,2.48,8.41,8.45,0,1.52,0,3,0,4.56-.12,4.43-2.83,7.13-7.25,7.14q-19.74,0-39.49,0-12.33,0-24.65,0c-4.71,0-7.37-2.68-7.44-7.43,0-1.84,0-3.68,0-5.52.1-4.38,2.85-7.14,7.25-7.17,5.66,0,11.32,0,17.38,0A18.83,18.83,0,0,1,69.06,144.92Z"/><path class="cls-2" d="M22.93,90.4a8.69,8.69,0,0,0-5.3,7.46c-.23,2.11-1,2.62-2.94,2.63-3.09,0-6.17.32-9.52.51,0-6.9,2.15-12.71,6.82-17.49,4.3-4.4,9.54-7.41,15.11-9.92,5.22-2.36,10.43-4.74,15.62-7.18a6.5,6.5,0,0,0,2.48-2.16c-2.27.1-4.54.16-6.8.36-.35,0-.59.77-1,1a9.08,9.08,0,0,1-1.81,1c-4.61,2-9.22,3.94-13.86,5.84a2.58,2.58,0,0,1-2,0,74.72,74.72,0,0,1-9.06-5.29C-.14,59.08-1.19,44.63,8.24,34.79c4.73-4.93,10.53-8.23,16.67-11a8.85,8.85,0,0,0,2.5-1.47h-8.5l-.05,0L18.63,19l10.8-.66L29.82,22l11.93-5.84-.28-.62C33,16,24.47,16.57,16,17a8.58,8.58,0,0,1-2.36-.55V13.62l20.66-1.4c2.46-.16,4.93-.43,7.4-.41.92,0,1.84.69,3.15,1.22,1.27-2.49,4.27-1.71,7-1.91S57,10.76,60,10.56c-.35,1.14-.53,2-.84,2.72A26.33,26.33,0,0,1,47.59,26.59C41.48,30,35,32.69,28.68,35.7c-2,.95-3.94,1.92-5.91,2.87l.26.85a81.13,81.13,0,0,0,9.09-2.13c4.12-1.45,8.07-3.37,12.11-5.06a1.74,1.74,0,0,1,1.3-.07c5.65,2.84,11.32,5.69,14.94,11.2,6.19,9.45,4.08,21.07-5.15,29-5.54,4.74-12,7.78-18.7,10.43a5.55,5.55,0,0,0-2.31,1.52l7.34-.47,7.63-.55.52.47V87.1l-18,1.06-.54-3.76-8.4,6Zm23.2-27.08.68.39a53.49,53.49,0,0,0,3.62-5.18A7.9,7.9,0,0,0,49.24,49C44,43.68,37.14,41.67,30,39.8l-.4,2.5-7.44.35-.6-3.79a63.62,63.62,0,0,0-5.24,5.71c-3.27,4.57-2.74,9.11,1.53,12.76,4.44,3.79,9.85,5.58,15.64,7.11V61.21l12.26-.73Z"/><path class="cls-1" d="M101.68,0a66.19,66.19,0,0,1,8.87,3.89c2.69,1.58,3.06,4.85,1.76,8.43q-7.19,19.8-14.4,39.6Q92.23,67.57,86.55,83.2c-2,5.44-5.22,6.92-10.68,4.9-1.34-.5-2.7-1-4-1.49-4.34-1.66-6-5.17-4.42-9.61Q74.16,58.19,81,39.41q6.17-17,12.36-34C94.71,1.78,96.87.06,101.68,0Z"/><path class="cls-1" d="M124.58,90.47c-.76-14.24-7.42-25.16-18.35-33.64-1.61-1.24-1.72-2.18-1.13-3.92,2.23-6.56,4.3-13.19,6.58-20.26,2.73,1.66,5.38,3,7.79,4.76,12.53,9,20.12,21.35,24,36.14a2.51,2.51,0,0,1-.65,2.15c-3.16,2.3-6.58,4.24-9.62,6.68S127.51,87.68,124.58,90.47Z"/><path class="cls-3" d="M15.84,115.64v-9.83h76.4v9.83Z"/><path class="cls-4" d="M49.8,83.73l-.52-.47-1.47-1.83L57.31,75c6.12,3.71,10.43,14.12,8.49,20.93a2.73,2.73,0,0,1-2,1.38c-5.24.46-10.49.79-15.75,1.11q-13.37.84-26.74,1.62c-.78,0-1.56,0-2.56,0l-.17-3.55,35.83-2.28c-.12-1.23-.23-2.32-.33-3.41-.3-.76-.6-1.52-.89-2.27C52.05,86.91,50.92,85.32,49.8,83.73Z"/><path class="cls-4" d="M18.86,22.27l.05,0A7.27,7.27,0,0,1,17.56,24c-3,2-6,3.94-9.11,6-4.61-2.34-9-10.19-8.4-15.65a91.86,91.86,0,0,1,10-.53c1,0,1.89,1.75,2.84,2.7C14.09,19.22,15.84,21.4,18.86,22.27Z"/><path class="cls-5" d="M53.17,88.51c.29.75.59,1.51.89,2.27-.67,1.87-2.17,1.93-3.85,2-8.1.42-16.19,1-24.28,1.45-.86,0-1.72,0-2.81,0-.07-1.37-.13-2.61-.19-3.86l0,0c7.51-.38,15-.73,22.54-1.16C48,89.11,50.59,88.76,53.17,88.51Z"/><path class="cls-6" d="M18.86,22.27c-3-.87-4.77-3.05-6-5.77l.76,0A8.58,8.58,0,0,0,16,17c8.51-.46,17-1,25.51-1.51l.28.62L29.82,22l-.39-3.69L18.63,19Z"/><path class="cls-6" d="M46.13,63.32l-.35-2.84-12.26.73v3.23c-5.79-1.53-11.2-3.32-15.64-7.11-4.27-3.65-4.8-8.19-1.53-12.76a63.62,63.62,0,0,1,5.24-5.71l.6,3.79,7.44-.35.4-2.5C37.14,41.67,44,43.68,49.24,49a7.9,7.9,0,0,1,1.19,9.53,53.49,53.49,0,0,1-3.62,5.18ZM16.22,54.47l32.1-2-.43-3.65-31.67,2Zm6.18,5.28L49.28,58l-.18-3.68-26.7,1.7ZM17.31,48.89l22.74-1.61-.48-3.63L17.13,45.24Z"/><path class="cls-7" d="M53.17,88.51c-2.58.25-5.16.6-7.74.75-7.51.43-15,.78-22.54,1.16l8.4-6,.54,3.76,18-1.06V83.73C50.92,85.32,52.05,86.91,53.17,88.51Z"/><path class="cls-8" d="M16.22,54.47v-3.7l31.67-2,.43,3.65Z"/><path class="cls-8" d="M22.4,59.75V56.06l26.7-1.7L49.28,58Z"/><path class="cls-9" d="M17.31,48.89l-.18-3.65,22.44-1.59.48,3.63Z"/><path class="cls-10" d="M184.35,155.14V115.26h8.57v39.88Z"/><path class="cls-5" d="M145.14,135.24a4.42,4.42,0,0,1-4.43-4.17,4.62,4.62,0,0,1,4.15-4.49A6.13,6.13,0,0,0,148,125c1.79-1.81,3.33-3.87,5-5.81,1.42-1.66,3-3.08,2.38-5.78-.42-2,1.53-3.72,3.63-4s4.5,1,4.71,3.15,1.45,2.8,2.91,3.61c.55.31,1.1.65,1.65,1,3.8,2.24,6.86,1.69,9.75-1.74,1.5-1.77,3-3.51,4.51-5.29,1.19-1.42,2.51-2.58,1.84-5-.59-2.07,1.83-4.26,4.12-4.38a4.6,4.6,0,0,1,4.59,4c.2,2.2-1.69,4.61-4,4.48-1.86-.11-2.75.79-3.73,2-2,2.41-4.09,4.71-6,7.19a5.14,5.14,0,0,0-.92,3.1c.1,2.61-1.3,4.69-3.73,5a4.57,4.57,0,0,1-5-3.79,4.43,4.43,0,0,0-1.39-2.17c-.83-.72-2.08-1-2.83-1.76-2.27-2.35-4.91-.66-7.36-.89-3,3.58-6.06,7.14-9,10.76-.17.22.24.89.32,1.35A4.36,4.36,0,0,1,145.14,135.24Zm43.66-32.18c-.73.94-1.45,1.47-1.51,2.07,0,.4.8,1.24,1.28,1.27s1.45-.68,1.46-1.09C190.05,104.71,189.41,104.09,188.8,103.06Zm-27.2,10.68c-.93-.65-1.49-1.33-2.09-1.37-.41,0-1.32,1-1.23,1.26a2.25,2.25,0,0,0,1.41,1.38C160.11,115.1,160.71,114.37,161.6,113.74Zm14.48,8.58c-.87-.66-1.41-1.38-1.88-1.34s-1,.77-1.53,1.2c.5.51.93,1.27,1.52,1.44C174.57,123.73,175.2,123,176.08,122.32Zm-29,8.5c-.87-.57-1.53-1.31-1.93-1.2-.56.17-.92,1-1.37,1.53.51.39,1,1.11,1.52,1.09S146.28,131.49,147.06,130.82Z"/><path class="cls-3" d="M155.39,155.18V123.87h8.37v31.31Z"/><path class="cls-3" d="M169.86,132.43h8.42v22.75h-8.42Z"/><path class="cls-11" d="M140.74,155.12v-14h8.57v14Z"/><path class="cls-12" d="M188.8,103.06c.61,1,1.25,1.65,1.23,2.25,0,.41-1,1.12-1.46,1.09s-1.33-.87-1.28-1.27C187.35,104.53,188.07,104,188.8,103.06Z"/><path class="cls-13" d="M161.6,113.74c-.89.63-1.49,1.36-1.91,1.27a2.25,2.25,0,0,1-1.41-1.38c-.09-.3.82-1.29,1.23-1.26C160.11,112.41,160.67,113.09,161.6,113.74Z"/><path class="cls-14" d="M176.08,122.32c-.88.64-1.51,1.41-1.89,1.3-.59-.17-1-.93-1.52-1.44.5-.43,1-1.16,1.53-1.2S175.21,121.66,176.08,122.32Z"/><path class="cls-15" d="M147.06,130.82c-.78.67-1.27,1.4-1.78,1.42s-1-.7-1.52-1.09c.45-.54.81-1.36,1.37-1.53C145.53,129.51,146.19,130.25,147.06,130.82Z"/><circle class="cls-16" cx="166.9" cy="127.97" r="49.72"/></g></g></svg>