<svg xmlns="http://www.w3.org/2000/svg" viewBox="0 0 216.98 199.49"><defs><style>.cls-1{fill:#2c8ae1;}.cls-2{fill:#2f8be2;}.cls-3{fill:#2d8ae2;}.cls-4{fill:#2e8be2;}.cls-5{fill:#348ee2;}.cls-6{fill:#328de2;}.cls-7{fill:#348ee3;}.cls-8{fill:#e8f2fb;}.cls-9{fill:#eaf3fb;}.cls-10{fill:#eef5fc;}.cls-11{fill:#f1f7fc;}.cls-12{fill:none;stroke:#60a1f1;stroke-miterlimit:10;stroke-width:2px;}</style></defs><g id="Layer_2" data-name="Layer 2"><g id="Layer_1-2" data-name="Layer 1"><path class="cls-1" d="M6.23,61.14c5.95-4.58,11.3-8.71,16.67-12.82l55-42C80.26,4.57,82.67,2.86,85,1c1.7-1.37,3.14-1.35,4.9,0Q112.4,18.29,135,35.44q15.9,12.12,31.82,24.21a9.11,9.11,0,0,0,1.45.77l-.47.72Z"/><path class="cls-2" d="M175,71.2V81.38c-4.79,0-9.47-.17-14.13,0A59.31,59.31,0,0,0,135.13,89a12.27,12.27,0,0,1-5.62,1.46Q66,90.54,2.57,90.49H.05V71.2Z"/><path class="cls-3" d="M0,199.49V180.61c.88,0,1.65-.1,2.42-.1q56.16,0,112.31,0a6.37,6.37,0,0,1,5.34,2.33A58.43,58.43,0,0,0,142,198.23c.85.34,1.68.71,3,1.26Z"/><path class="cls-4" d="M99.41,135.42c0,11.19,0,22.39,0,33.58,0,1.59-.28,2.28-2.07,2.26-6.62-.09-13.24-.08-19.86,0-1.66,0-2.1-.43-2.09-2.19q.17-22.18.06-44.37,0-11.49-.36-23c-.06-2,.76-2.4,2.53-2.38,6.54.08,13.09.09,19.63,0,1.78,0,2.32.5,2.31,2.3-.07,11.27,0,22.54,0,33.81Z"/><path class="cls-1" d="M42.47,135.28c0,11.19,0,22.39,0,33.58,0,1.74-.39,2.41-2.24,2.39q-9.45-.06-18.91.16c-1.85,0-2.46-.43-2.45-2.41q.12-33.7,0-67.42c0-1.87.64-2.28,2.35-2.26q9.57.14,19.15,0c1.88,0,2.25.66,2.24,2.37-.06,11.2,0,22.39,0,33.59Z"/><path class="cls-5" d="M183.71,167.86V128h8.57v39.89Z"/><path class="cls-6" d="M144.5,148a4.42,4.42,0,0,1-4.43-4.16,4.63,4.63,0,0,1,4.15-4.5,6.13,6.13,0,0,0,3.14-1.54c1.79-1.81,3.33-3.87,5-5.81,1.42-1.66,3-3.08,2.38-5.78-.42-2,1.53-3.71,3.63-4s4.5,1,4.71,3.14,1.45,2.81,2.91,3.62c.55.31,1.1.64,1.65,1,3.8,2.24,6.86,1.69,9.75-1.74,1.5-1.77,3-3.51,4.51-5.29,1.19-1.42,2.51-2.58,1.84-5-.59-2.06,1.82-4.25,4.12-4.37a4.59,4.59,0,0,1,4.59,4c.2,2.21-1.7,4.61-4,4.48-1.86-.11-2.75.79-3.73,2-2,2.41-4.09,4.71-6,7.19a5.16,5.16,0,0,0-.92,3.1c.1,2.61-1.3,4.69-3.73,5a4.55,4.55,0,0,1-5-3.79,4.47,4.47,0,0,0-1.39-2.17c-.83-.71-2.08-1-2.83-1.76-2.27-2.35-4.91-.66-7.36-.89-3,3.58-6.07,7.15-9,10.77-.17.21.23.88.32,1.34A4.36,4.36,0,0,1,144.5,148Zm43.66-32.17c-.73.93-1.45,1.46-1.51,2.06-.05.4.8,1.25,1.28,1.27s1.45-.68,1.46-1.09C189.41,117.43,188.77,116.81,188.16,115.78ZM161,126.46c-.93-.66-1.49-1.33-2.09-1.38-.41,0-1.32,1-1.23,1.26a2.25,2.25,0,0,0,1.41,1.38C159.47,127.81,160.07,127.08,161,126.46ZM175.44,135c-.87-.65-1.41-1.37-1.88-1.34s-1,.77-1.53,1.2c.5.51.93,1.28,1.52,1.45C173.93,136.44,174.56,135.67,175.44,135Zm-29,8.51c-.87-.58-1.53-1.32-1.93-1.2-.56.16-.92,1-1.37,1.52.51.39,1,1.11,1.52,1.09S145.64,144.2,146.42,143.54Z"/><path class="cls-1" d="M154.75,167.9V136.58h8.36V167.9Z"/><path class="cls-1" d="M169.22,145.14h8.42V167.9h-8.42Z"/><path class="cls-7" d="M140.1,167.83v-14h8.57v14Z"/><path class="cls-8" d="M188.16,115.78c.61,1,1.25,1.65,1.23,2.24,0,.41-1,1.12-1.46,1.09s-1.33-.87-1.28-1.27C186.71,117.24,187.43,116.71,188.16,115.78Z"/><path class="cls-9" d="M161,126.46c-.89.62-1.49,1.35-1.91,1.26a2.25,2.25,0,0,1-1.41-1.38c-.09-.3.82-1.29,1.23-1.26C159.47,125.13,160,125.8,161,126.46Z"/><path class="cls-10" d="M175.44,135c-.88.64-1.51,1.41-1.89,1.31-.59-.17-1-.94-1.52-1.45.5-.43,1-1.15,1.53-1.2S174.57,134.38,175.44,135Z"/><path class="cls-11" d="M146.42,143.54c-.78.66-1.27,1.39-1.78,1.41s-1-.7-1.52-1.09c.45-.54.81-1.36,1.37-1.52C144.89,142.22,145.55,143,146.42,143.54Z"/><circle class="cls-12" cx="166.26" cy="140.68" r="49.72"/></g></g></svg>