<svg xmlns="http://www.w3.org/2000/svg" viewBox="0 0 216.69 200.58"><defs><style>.cls-1{fill:#308ce2;}.cls-2{fill:#348ee2;}.cls-3{fill:#2f8be2;}.cls-4{fill:#328de2;}.cls-5{fill:#2c8ae1;}.cls-6{fill:#348ee3;}.cls-7{fill:#e8f2fb;}.cls-8{fill:#eaf3fb;}.cls-9{fill:#eef5fc;}.cls-10{fill:#f1f7fc;}.cls-11{fill:none;stroke:#60a1f1;stroke-miterlimit:10;stroke-width:2px;}</style></defs><g id="Layer_2" data-name="Layer 2"><g id="Layer_1-2" data-name="Layer 1"><path class="cls-1" d="M47.46,200.58c-.13-1.49-.39-3-.39-4.48,0-12.64,0-25.27,0-37.91a3.05,3.05,0,0,0-1.87-3.13A84.48,84.48,0,0,1,8,114.78C-2.07,92.18-2.68,69.14,6.44,46.05c7.88-20,21.47-34.91,40.37-45C50.73-1,52.18-.08,52.18,4.39v66c0,4.53,1.09,5.61,5.66,5.61h56.27c4.42,0,5.71-1.28,5.71-5.68V4.08c0-4.14,1.49-5,5.15-3.1A86.18,86.18,0,0,1,161.35,37,85.29,85.29,0,0,1,171,66.67h-5c-4.39-26.11-17.71-46.14-41.06-60v8.44c0,5.75.09,11.52,0,17.27a5.24,5.24,0,0,0,1.92,4.34,60,60,0,0,1,16.72,26.94c.8,2.58,1.23,5.27,1.87,8.08l-4.53,2.24c-4.65-17.29-8.48-25-15.93-31.85v2.25q0,13.2,0,26.4c0,6.67-3.71,10.35-10.4,10.35H57.25c-6.49,0-10.19-3.75-10.2-10.29V42.46c-9.33,4.39-17.81,28.76-15.83,45.59,2.9,24.6,21,41.71,38.51,46.52.86-5.18,3.32-9.39,7.92-12.13a15.52,15.52,0,0,1,9.38-2.3c7.89.66,13.22,5.72,15.25,14.63l6.6-2.41a24,24,0,0,1,.38,3.83,3.62,3.62,0,0,1-1.07,1.77c-.23.27-.71.35-1.08.5-4.81,1.95-4.81,1.95-4.81,7.07q0,25.68,0,51.35a19.88,19.88,0,0,1-.68,3.7H97.76a36,36,0,0,1-.42-4c0-20.26,0-40.51-.06-60.77,0-5.57-5.44-10.6-11.24-10.63-6,0-11.28,5-11.37,10.7,0,2.06,0,4.12,0,6.17q0,27.45,0,54.89a17.54,17.54,0,0,1-.81,3.63H70.46a16.92,16.92,0,0,1-.81-3.63q-.08-27.24,0-54.48c0-1.85-.58-2.59-2.3-3.17a58.75,58.75,0,0,1-33.77-28.12,61.42,61.42,0,0,1,12-75.06A5,5,0,0,0,47,32.9c.12-7.92.07-15.84.06-23.76,0-.67-.11-1.33-.19-2.27-1,.55-1.8.92-2.52,1.37A81.6,81.6,0,0,0,14.65,40.09a80.45,80.45,0,0,0-7,58.15C13.49,122,27.39,139.8,49.05,151.31a5.27,5.27,0,0,1,3.19,5.43c-.12,13,0,26.08-.07,39.12,0,1.57-.26,3.15-.4,4.72Z"/><path class="cls-2" d="M120.28,200.58a13.44,13.44,0,0,1-.47-2.55q0-17,0-34a4.84,4.84,0,0,1,.19-.84c3,3.13,5.34,6,5,10.77-.49,7.72-.1,15.49-.17,23.24a16.69,16.69,0,0,1-.75,3.41Z"/><path class="cls-3" d="M63.53,43.27C61,41.85,57.7,41,56.38,39s-1.06-5.5-1-8.33c.09-5.3,4.63-5.3,7.91-6.3-.79-2.78-2.61-5.75-2.06-8.18s3.33-4.65,5.3-6.8a4.4,4.4,0,0,1,5.26-1.14C73.44,9,75,10,76.23,10.64c1.46-2.59,2.3-5.91,4.41-7.31s5.34-.94,8.09-.89c5.44.11,5.1,5,6.46,8.67,3.81-2.63,7.38-5.21,11.57-.57,5,5.58,5.23,5.42,1.59,13.12,2.45,1.3,5.76,2,7.08,4s.86,5.48,1.08,8.3a4.63,4.63,0,0,1-2.7,4.93,42.84,42.84,0,0,1-5.24,1.71c.86,2.74,2.59,5.48,2.22,7.89-.34,2.25-2.84,4.23-4.53,6.19-3.88,4.5-7.42,1.28-10.55-.58-1.48,2.65-2.32,6-4.41,7.36s-5.35,1-8.1.92c-5.37-.08-5.09-4.79-6.33-8.37-2.85.73-5.13,4.21-8.27,2.6a23.25,23.25,0,0,1-6.28-5.38C58.87,49.43,62.07,46.19,63.53,43.27ZM101.72,13c-2.17,1.3-4.27,2.61-6.42,3.82-2.33,1.31-3.69.72-4.43-1.89C90.19,12.48,89.6,10,88.94,7.5a35.45,35.45,0,0,1-3.74,0c-1.73-.18-2.64.37-2.91,2.2A46.09,46.09,0,0,1,81,14.78c-.76,2.84-2,3.38-4.51,2-2.13-1.22-4.23-2.48-6.3-3.7l-4.42,4.3c1.3,2.21,2.56,4.33,3.78,6.47,1.43,2.48.91,3.8-1.85,4.6-2.41.7-4.85,1.32-7.29,2,0,1.55.1,2.84,0,4.1-.15,1.57.39,2.31,2,2.58a53.93,53.93,0,0,1,5.56,1.42c2.42.7,3,2.11,1.76,4.34S67.06,47.33,66,49.23l4.09,4.71c1.59-1,3-1.79,4.32-2.6,5.31-3.13,5.65-3,7.2,3,1.4,5.48,1.4,5.48,7.11,4.94.07,0,.14-.07.34-.18.53-2.13,1.07-4.37,1.65-6.6.87-3.37,2.16-3.93,5.13-2.21,2,1.15,4,2.36,5.86,3.51l4.53-4.25c-1.29-2.22-2.55-4.34-3.77-6.48-1.48-2.58-.9-4,2-4.74,1.92-.52,3.88-.93,5.77-1.54a2.16,2.16,0,0,0,1.34-1.3c.81-4.26.21-5.15-4-6.26L106.4,29c-5.69-1.5-5.91-2.05-2.86-7.19C106.47,16.86,106.47,16.86,101.72,13Z"/><path class="cls-3" d="M85.93,45.11A11.72,11.72,0,0,1,74.36,33.52a11.61,11.61,0,1,1,23.22-.19A11.73,11.73,0,0,1,85.93,45.11ZM79.46,33.39a6.56,6.56,0,0,0,6.31,6.76,6.78,6.78,0,0,0,6.74-6.66,6.7,6.7,0,0,0-6.64-6.71A6.39,6.39,0,0,0,79.46,33.39Z"/><path class="cls-2" d="M183.43,154.36V114.47H192v39.89Z"/><path class="cls-4" d="M144.22,134.46a4.43,4.43,0,0,1-4.43-4.17,4.62,4.62,0,0,1,4.15-4.49,6.06,6.06,0,0,0,3.13-1.54c1.8-1.81,3.33-3.87,5-5.82,1.42-1.66,3-3.07,2.37-5.77-.42-2,1.54-3.72,3.63-4s4.51,1.05,4.71,3.15,1.46,2.8,2.91,3.61c.56.31,1.1.64,1.65,1,3.8,2.24,6.87,1.69,9.76-1.74,1.49-1.77,3-3.52,4.5-5.29,1.19-1.43,2.52-2.58,1.84-5-.59-2.07,1.83-4.26,4.12-4.38a4.6,4.6,0,0,1,4.59,4c.2,2.2-1.69,4.61-4,4.47-1.85-.1-2.74.8-3.72,2-2,2.4-4.1,4.71-6,7.19a5.12,5.12,0,0,0-.93,3.09c.11,2.62-1.3,4.69-3.72,5a4.54,4.54,0,0,1-5-3.78,4.45,4.45,0,0,0-1.4-2.17c-.83-.72-2.07-1-2.82-1.77-2.27-2.35-4.91-.66-7.37-.88-3,3.58-6.06,7.14-9,10.76-.18.22.23.88.32,1.35A4.37,4.37,0,0,1,144.22,134.46Zm43.65-32.18c-.73.94-1.44,1.46-1.51,2.06,0,.41.8,1.25,1.29,1.28s1.44-.68,1.46-1.1C189.13,103.93,188.48,103.31,187.87,102.28ZM160.68,113c-.94-.65-1.49-1.33-2.1-1.38-.4,0-1.32,1-1.23,1.26a2.29,2.29,0,0,0,1.41,1.39C159.19,114.32,159.78,113.59,160.68,113Zm14.48,8.58c-.88-.66-1.41-1.38-1.89-1.34s-1,.77-1.53,1.2c.5.51.93,1.27,1.53,1.44C173.65,123,174.28,122.18,175.16,121.54Zm-29,8.5c-.87-.57-1.53-1.32-1.94-1.2s-.92,1-1.37,1.52c.51.4,1,1.11,1.52,1.09S145.35,130.7,146.14,130Z"/><path class="cls-5" d="M154.46,154.4V123.09h8.37V154.4Z"/><path class="cls-5" d="M168.94,131.65h8.42V154.4h-8.42Z"/><path class="cls-6" d="M139.81,154.33v-14h8.57v14Z"/><path class="cls-7" d="M187.87,102.28c.61,1,1.26,1.65,1.24,2.24,0,.42-1,1.13-1.46,1.1s-1.33-.87-1.29-1.28C186.43,103.74,187.14,103.22,187.87,102.28Z"/><path class="cls-8" d="M160.68,113c-.9.63-1.49,1.36-1.92,1.27a2.29,2.29,0,0,1-1.41-1.39c-.09-.29.83-1.29,1.23-1.26C159.19,111.63,159.74,112.31,160.68,113Z"/><path class="cls-9" d="M175.16,121.54c-.88.64-1.51,1.41-1.89,1.3-.6-.17-1-.93-1.53-1.44.51-.43,1-1.16,1.53-1.2S174.28,120.88,175.16,121.54Z"/><path class="cls-10" d="M146.14,130c-.79.66-1.27,1.39-1.79,1.41s-1-.69-1.52-1.09c.45-.54.81-1.35,1.37-1.52S145.27,129.47,146.14,130Z"/><circle class="cls-11" cx="165.97" cy="127.19" r="49.72"/></g></g></svg>