<svg xmlns="http://www.w3.org/2000/svg" viewBox="0 0 222.5 187.85"><defs><style>.cls-1{fill:#2e8be2;}.cls-2{fill:#2f8be2;}.cls-3{fill:#bbd9f5;}.cls-4{fill:#3790e3;}.cls-5{fill:#348ee2;}.cls-6{fill:#348ee3;}.cls-7{fill:#328de2;}.cls-8{fill:#2c8ae1;}.cls-9{fill:#e8f2fb;}.cls-10{fill:#eaf3fb;}.cls-11{fill:#eef5fc;}.cls-12{fill:#f1f7fc;}.cls-13{fill:none;stroke:#60a1f1;stroke-miterlimit:10;stroke-width:2px;}</style></defs><g id="Layer_2" data-name="Layer 2"><g id="Layer_1-2" data-name="Layer 1"><path class="cls-1" d="M159.36,187.27l-93.88.06q-30.42,0-60.83,0c-4.45,0-5.54-1.63-4-5.85l33.6-91c1.44-3.9,1.73-4.07,5.95-4.06H84V73.45H81.29c-16.28,0-32.57,0-48.85,0a5.68,5.68,0,0,1-4.76-2.16C24.88,68,21.85,65,19.16,61.59a5.56,5.56,0,0,1-1.05-4c.35-1.78,2.15-2.08,3.86-2.08,7.35,0,14.69,0,22,0h3V52.76q0-24,0-48C47,.92,47.93,0,51.83,0h70.65c3.92,0,4.81.9,4.81,4.75V55.31c.85.06,1.53.15,2.21.15,7.59,0,15.17,0,22.76,0,1.81,0,3.65,0,4.46,2s-.28,3.26-1.44,4.72a27,27,0,0,1-12.29,9,30.92,30.92,0,0,1-11.26,2.32c-12.85-.16-25.7-.06-38.55-.06h-2.3V86.29h30.87a72.28,72.28,0,0,1-4.65,6c-.55.6-1.88.64-2.86.64-23.39,0-46.78.09-70.17,0-2.85,0-4.07.81-5,3.5C29,123.89,18.82,151.3,8.7,178.73c-.19.51-.3,1.05-.52,1.84.82.08,1.49.2,2.16.2l113.27,0c1,0,1.92.07,2.87,0,7.46-.43,14.66.12,21.64,3.44,3.36,1.6,7.38,1.79,11.11,2.62A1.12,1.12,0,0,0,159.36,187.27ZM53.73,6.74V55.39h66.94V6.74ZM146,62.25H28.75C30.64,65.81,33.29,67,37.31,67q50.26-.27,100.54,0C141.77,67,144.13,65.63,146,62.25Z"/><path class="cls-2" d="M113.76,155.52c.58.95,1,1.68,1.48,2.42,2.27,3.78,2.27,3.78-1,6.94-21.26,20.55-56.53,10.63-64.11-18a38.56,38.56,0,0,1,58.38-42.15c1.27.83,1.79,1.57,1.13,3.09a40,40,0,0,0-1.41,4.7c-10.22-7.92-21.39-9.74-33.29-5a30.84,30.84,0,0,0-16.56,15.88c-6.88,14.24-1.74,32,11.45,40.65C81.47,171.68,101.23,172.15,113.76,155.52Z"/><path class="cls-1" d="M105.56,121.16a20.36,20.36,0,0,1-1.82,2.9q-6.55,7.31-13.22,14.51c-2,2.12-3.75,2.36-5.36.85s-1.4-3.24.43-5.24q6.69-7.34,13.41-14.66c1.12-1.22,2.5-2,4-1.12C104,119,104.66,120.14,105.56,121.16Z"/><path class="cls-3" d="M159.36,187.27a1.12,1.12,0,0,1-.13-.44l12.55.61v.41Z"/><path class="cls-4" d="M110.73,20.31c1.2,1.7,2.33,2.62,2.51,3.7a2.21,2.21,0,0,1-2.6,2.6A3.72,3.72,0,0,1,108.26,24C108.18,23.06,109.51,22,110.73,20.31Z"/><path class="cls-5" d="M103.09,14.31c-1.62,1.29-2.5,2.52-3.55,2.7a2.26,2.26,0,0,1-2.67-2.55A3.7,3.7,0,0,1,99.37,12C100.28,11.9,101.37,13.17,103.09,14.31Z"/><path class="cls-6" d="M113.71,15c-1,.72-1.89,1.89-2.95,2a2.19,2.19,0,0,1-2.54-2.64A3.73,3.73,0,0,1,110.8,12c.91-.09,2,1.2,2.94,1.89Z"/><path class="cls-5" d="M189.23,156.38V116.49h8.57v39.89Z"/><path class="cls-7" d="M150,136.47a4.42,4.42,0,0,1-4.43-4.16,4.63,4.63,0,0,1,4.15-4.5,6,6,0,0,0,3.13-1.54c1.8-1.81,3.34-3.87,5-5.81,1.42-1.66,3-3.07,2.38-5.77-.42-2,1.53-3.72,3.63-4s4.5,1,4.7,3.15,1.46,2.8,2.91,3.61c.56.31,1.11.64,1.65,1,3.8,2.25,6.87,1.69,9.76-1.74,1.49-1.77,3-3.51,4.51-5.29,1.18-1.42,2.51-2.58,1.83-5-.58-2.06,1.83-4.25,4.12-4.37a4.59,4.59,0,0,1,4.59,4c.21,2.2-1.69,4.61-4,4.47-1.85-.11-2.74.79-3.72,2-2,2.4-4.09,4.7-6,7.18a5.17,5.17,0,0,0-.93,3.1c.11,2.61-1.3,4.69-3.72,5a4.55,4.55,0,0,1-5-3.78,4.38,4.38,0,0,0-1.4-2.17c-.83-.72-2.07-1-2.82-1.77-2.27-2.35-4.91-.66-7.36-.88-3,3.57-6.07,7.14-9,10.76-.18.21.23.88.32,1.35A4.36,4.36,0,0,1,150,136.47Zm43.66-32.17c-.74.93-1.45,1.46-1.52,2.06,0,.4.81,1.25,1.29,1.28s1.45-.69,1.46-1.1C194.93,106,194.29,105.33,193.68,104.3ZM166.48,115c-.93-.66-1.49-1.33-2.1-1.38-.4,0-1.32,1-1.23,1.26a2.3,2.3,0,0,0,1.42,1.39C165,116.34,165.59,115.61,166.48,115ZM181,123.55c-.87-.65-1.41-1.37-1.89-1.33s-1,.77-1.53,1.19c.5.52.93,1.28,1.53,1.45C179.45,125,180.08,124.2,181,123.55Zm-29,8.51c-.87-.58-1.53-1.32-1.94-1.2s-.92,1-1.37,1.52c.51.39,1,1.11,1.53,1.09S151.15,132.72,151.94,132.06Z"/><path class="cls-8" d="M160.26,156.42V125.1h8.37v31.32Z"/><path class="cls-8" d="M174.74,133.67h8.42v22.75h-8.42Z"/><path class="cls-6" d="M145.62,156.35v-14h8.56v14Z"/><path class="cls-9" d="M193.68,104.3c.61,1,1.25,1.65,1.23,2.24,0,.41-1,1.12-1.46,1.1s-1.33-.88-1.29-1.28C192.23,105.76,192.94,105.23,193.68,104.3Z"/><path class="cls-10" d="M166.48,115c-.89.63-1.49,1.36-1.91,1.27a2.3,2.3,0,0,1-1.42-1.39c-.09-.3.83-1.29,1.23-1.26C165,113.65,165.55,114.32,166.48,115Z"/><path class="cls-11" d="M181,123.55c-.88.65-1.51,1.42-1.89,1.31-.6-.17-1-.93-1.53-1.45.51-.42,1-1.15,1.53-1.19S180.09,122.9,181,123.55Z"/><path class="cls-12" d="M151.94,132.06c-.79.66-1.27,1.39-1.78,1.41s-1-.7-1.53-1.09c.45-.54.82-1.36,1.37-1.52S151.07,131.48,151.94,132.06Z"/><circle class="cls-13" cx="171.78" cy="129.21" r="49.72"/></g></g></svg>