<svg xmlns="http://www.w3.org/2000/svg" viewBox="0 0 226.96 175.28"><defs><style>.cls-1{fill:#2e8be2;}.cls-2{fill:#2c8ae1;}.cls-3{fill:#2d8ae1;}.cls-4{fill:#2f8be2;}.cls-5{fill:#2d8ae2;}</style></defs><g id="Layer_2" data-name="Layer 2"><g id="Layer_1-2" data-name="Layer 1"><path class="cls-1" d="M113.73,175.28H16c-8.07,0-15.48-7.3-15.55-15.4q-.17-20.15-.25-40.3C.12,101.18,0,82.79,0,64.4Q0,43.64.24,22.9A102.47,102.47,0,0,1,1,12.4C1.6,6.66,8.43.49,14.16.41c11-.17,22-.37,33-.38Q101.42,0,155.68,0C174.12,0,192.56.15,211,0c4.94,0,8.53,2.16,11.65,5.52a16.23,16.23,0,0,1,4.2,11.61c0,45.44.12,90.88.11,136.32a37.39,37.39,0,0,1-1.29,11.3c-2.17,6.67-8.25,10.51-15.18,10.51Zm57-166.76V166.75h7.55c10.62-.05,21.23-.07,31.85-.17,4.79-.05,8-3.51,8-8.38V17.07a8.54,8.54,0,0,0-8.62-8.55H170.71Zm-54.66.11V166.55h49.5V8.63Zm-5,158V8.72H61.78V166.63ZM56.8,8.79a1.87,1.87,0,0,0-.55-.21c-13.08,0-26.17,0-39.25.16a8,8,0,0,0-7.95,7.67q0,71.39,0,142.77c0,3.55,3.86,7.39,7.38,7.4q18.08.1,36.15.17c1.39,0,2.78.13,4.22.2Z"/><path class="cls-2" d="M210.63,37H181V18.15h29.62Z"/><path class="cls-3" d="M126.49,37.24V18H156v19.2Z"/><path class="cls-2" d="M126.5,65.87V46.65h29.35V65.87Z"/><path class="cls-4" d="M101.27,37.29H71.64V18.08h29.63Z"/><path class="cls-1" d="M71.55,75.19h29.72v19H71.55Z"/><path class="cls-5" d="M71.45,65.94c0-6.16,0-12,.08-17.79,0-.52,1.14-1.44,1.77-1.47,4.22-.18,8.45-.18,12.68-.2,5,0,10,0,15.24,0V65.94Z"/><path class="cls-4" d="M16.84,18H46.67V37.26c-.61.05-1.28.16-2,.16-8.53,0-17.06,0-25.58,0-1.77,0-2.36-.46-2.32-2.28C16.91,29.53,16.84,23.88,16.84,18Z"/><path class="cls-1" d="M17,94.16V75.26H46.67v18.9Z"/><path class="cls-5" d="M46.68,46.69V65.83H17V46.69Z"/></g></g></svg>