<svg xmlns="http://www.w3.org/2000/svg" viewBox="0 0 205.61 215.44"><defs><style>.cls-1{fill:#2c8ae1;}.cls-2{fill:#2d8ae1;}</style></defs><g id="Layer_2" data-name="Layer 2"><g id="Layer_1-2" data-name="Layer 1"><path class="cls-1" d="M153.63,198.4c-5.51-.77-12-1.56-18.46-2.61a7.43,7.43,0,0,0-6.93,2.22c-3.91,3.88-7.9,7.7-11.85,11.54-8.1,7.86-19.07,7.84-27.18,0-3.95-3.85-7.94-7.65-11.86-11.53a7.37,7.37,0,0,0-6.94-2.19q-8.73,1.46-17.52,2.51a18.6,18.6,0,0,1-20.42-15.21q-1.59-8.49-2.94-17A7.86,7.86,0,0,0,25,159.79c-4.85-2.44-9.6-5.07-14.38-7.63-9.87-5.29-13.29-15.63-8.47-25.7,2.41-5,4.83-10.09,7.33-15.09a7.61,7.61,0,0,0,0-7.32c-2.41-4.78-4.73-9.61-7-14.43-5.17-10.71-2-20.81,8.43-26.45,4.77-2.59,9.54-5.16,14.37-7.64a7.58,7.58,0,0,0,4.25-6c.94-5.68,1.93-11.34,2.93-17A18.57,18.57,0,0,1,53.37,17.25c5.77.83,11.53,1.62,17.29,2.46A7.16,7.16,0,0,0,77.2,17.6c4-4,8.12-7.93,12.21-11.87,7.94-7.64,18.87-7.64,26.82,0,3.92,3.77,7.84,7.54,11.66,11.41a8.14,8.14,0,0,0,7.8,2.45c5.81-1,11.66-1.8,17.52-2.51,9.34-1.13,18.23,5.8,20,15.49q1.54,8.47,2.92,17a7.59,7.59,0,0,0,4.26,6c5,2.6,10,5.28,15,8,9.41,5.11,12.78,15.54,8.15,25.25-2.43,5.13-4.88,10.24-7.42,15.31a7.61,7.61,0,0,0,0,7.32c2.48,4.92,4.85,9.9,7.25,14.86,4.89,10.16,1.49,20.6-8.44,25.93-4.85,2.6-9.69,5.23-14.59,7.74a7.53,7.53,0,0,0-4.23,6c-.92,5.75-1.89,11.51-3,17.24C171.47,192.15,163.73,198.46,153.63,198.4Zm.69-12.48c3.84.06,6.19-2.21,6.92-6.46.85-5,1.78-9.91,2.51-14.88,1.08-7.46,4.86-12.82,11.66-16.15,4.58-2.25,9-4.75,13.53-7.18,4.29-2.32,5.27-5.4,3.16-9.76-2.46-5.11-4.95-10.2-7.4-15.31a18.64,18.64,0,0,1,0-16.87c2.45-5.12,4.94-10.21,7.4-15.31,2.17-4.5,1.17-7.53-3.28-9.9-4.92-2.63-9.87-5.21-14.78-7.88a18.47,18.47,0,0,1-9.89-13.64c-1-6-2.05-12-3.22-17.92a6.11,6.11,0,0,0-7-5.12c-4.81.67-9.66,1.21-14.42,2.16-8.45,1.68-15.55-.24-21.44-6.77-3.21-3.55-6.84-6.72-10.29-10s-6.57-3.22-9.87,0C93.7,18.9,89.54,23,85.33,27A18.15,18.15,0,0,1,70,32.17c-5.78-.7-11.53-1.59-17.29-2.44-4.69-.69-7.47,1.33-8.27,6-.92,5.44-1.94,10.85-2.82,16.29A18.87,18.87,0,0,1,31.24,66.43c-4.87,2.56-9.72,5.16-14.58,7.76-4.29,2.3-5.27,5.29-3.15,9.75,2.45,5.11,5,10.19,7.42,15.3a18.78,18.78,0,0,1-.05,17.1c-2.47,5.1-5,10.18-7.45,15.29-2,4.26-1,7.32,3.14,9.58,5.13,2.76,10.3,5.44,15.41,8.23a18.32,18.32,0,0,1,9.56,13.62c1,5.66,1.93,11.33,3,17,.76,4.25,3.71,6.38,7.89,5.77,5-.72,10-1.32,14.89-2.23,7.89-1.46,14.43.68,19.93,6.55,3.38,3.61,7.07,6.94,10.64,10.37,3.4,3.28,6.61,3.25,10-.08,4.13-4,8.21-8.05,12.4-12a18.19,18.19,0,0,1,15.81-5.07C142.24,184.26,148.4,185.09,154.32,185.92Z"/><path class="cls-2" d="M149.88,67.83A25,25,0,0,1,147,72.14q-22.24,22.53-44.63,44.91Q84.65,134.81,67,152.56c-2.29,2.3-4.86,2.91-7.37,1.83-4.06-1.74-5-6.77-1.83-10.16,3.9-4.12,8-8.09,12-12.11q34.35-34.5,68.7-69c2.62-2.63,5.05-3.28,7.72-2C148.55,62.22,149.67,64.21,149.88,67.83Z"/><path class="cls-1" d="M127.47,118.11a22.78,22.78,0,1,1-22.65,22.73A22.7,22.7,0,0,1,127.47,118.11Zm.11,12.46a10.28,10.28,0,0,0-10.34,10.1,10.29,10.29,0,1,0,20.57.11A10.28,10.28,0,0,0,127.58,130.57Z"/><path class="cls-1" d="M55.42,74.46a22.7,22.7,0,0,1,45.39.17,22.7,22.7,0,1,1-45.39-.17ZM78.21,64.34a10.2,10.2,0,0,0-10.36,10A10.36,10.36,0,0,0,78,85,10.51,10.51,0,0,0,88.4,74.6,10.3,10.3,0,0,0,78.21,64.34Z"/></g></g></svg>