<svg xmlns="http://www.w3.org/2000/svg" viewBox="0 0 222.87 183.9"><defs><style>.cls-1{fill:#2c8ae1;}.cls-2{fill:#2d8ae2;}.cls-3{fill:#318ce2;}.cls-4{fill:#2f8be2;}</style></defs><g id="Layer_2" data-name="Layer 2"><g id="Layer_1-2" data-name="Layer 1"><path class="cls-1" d="M71.54,123.43c1.35,5.63,2.67,11.11,4,16.6,2.11,8.76,4.32,17.51,6.31,26.3A14.45,14.45,0,0,1,68,183.88c-3,0-6.07,0-9.1,0a14.1,14.1,0,0,1-13.6-10.45q-5.85-23.46-11.41-47c-.56-2.37-1.3-3.56-4-4C14.51,120.13,1.92,106.58.23,90.89A36.55,36.55,0,0,1,36.55,50c13.81-.07,27.63,0,41.44,0,23.45-.09,45.32-5.66,64.78-19.21a84.92,84.92,0,0,0,24.5-26.9A7.14,7.14,0,0,1,175.14.16a7.19,7.19,0,0,1,5.93,5.58,13.71,13.71,0,0,1,.26,3.33q0,26,0,52.07V63.8c7.06,1.33,12.7,4.8,16.42,11.12,2.77,4.72,3.08,9.85,2.71,15.09-.66,9.19-7.44,16.14-19.13,19.46v2.44c0,17.76,0,35.51,0,53.27,0,6.1-5.76,9.89-10.86,7.15a9.24,9.24,0,0,1-3.35-3.28c-13.63-22.94-34.2-36-59.57-42.33a126.6,126.6,0,0,0-34.41-3.47C72.68,123.26,72.22,123.35,71.54,123.43Zm9.75-9.26c37.3,2.17,69.12,14.64,91.2,46.67V12.36C150.28,44.49,118.42,57,81.29,59ZM72.41,59.06H32.74a4.17,4.17,0,0,0-.71.08,27.79,27.79,0,0,0,4.22,55.22c11.25,0,22.5,0,33.76,0,.77,0,1.54-.08,2.37-.12v-9.59H46.93c-3.81,0-5.88-1.58-5.87-4.43s2-4.28,5.94-4.28H72.41ZM42.12,123.24c.2,1,.31,1.72.48,2.41Q48,147.87,53.39,170.08c.82,3.38,2.79,5,6.24,5.11,2.55.06,5.11.08,7.67,0,4.43-.15,6.94-3.55,5.87-7.85-.23-.92-.49-1.85-.64-2.79-.25-1.63-.89-2.68-2.79-2.3a5.27,5.27,0,0,1-1.43,0,4.54,4.54,0,0,1-4.23-4.17,4.39,4.39,0,0,1,3.5-4.52c.67-.18,1.35-.28,2.14-.43-.72-2.92-1.4-5.68-2.09-8.46-3.46-.38-7.72,1-8.43-4.18a3.46,3.46,0,0,1,.86-2.83,34.93,34.93,0,0,1,5.27-2.56c-.65-2.71-1.56-5.77-2.08-8.9-.41-2.51-1.55-3.24-4-3-2.61.24-5.26.06-7.89.06Zm139.4-50.13v27.14c7.08-1.76,10.81-7.35,10.33-15.25C191.48,79.05,187,73.83,181.52,73.11Z"/><path class="cls-2" d="M219.28,128.21a18.31,18.31,0,0,1-2.82,3.5,3.53,3.53,0,0,1-4.65-.33c-4.41-3.92-8.78-7.89-13.06-12a4.17,4.17,0,0,1-.12-5.86,4.11,4.11,0,0,1,6-.5q6.56,5.77,12.87,11.81C218.23,125.57,218.52,126.74,219.28,128.21Z"/><path class="cls-2" d="M219.38,45c-.87,1.52-1.27,2.8-2.11,3.61-4,3.85-8.17,7.61-12.33,11.33a4.37,4.37,0,0,1-6.23-.15,4.28,4.28,0,0,1,.28-6.2c4.11-3.89,8.31-7.69,12.51-11.48,1.42-1.29,3.21-1.78,4.83-.64C217.5,42.27,218.28,43.66,219.38,45Z"/><path class="cls-3" d="M213.68,82.17c1.52,0,3,0,4.54,0a4.47,4.47,0,0,1,4.64,4.21A4.33,4.33,0,0,1,218.67,91a95.88,95.88,0,0,1-10,0,4.4,4.4,0,0,1-4.18-4.42,4.48,4.48,0,0,1,4.44-4.41C210.49,82.11,212.09,82.17,213.68,82.17Z"/><path class="cls-4" d="M27.59,104.63a4.41,4.41,0,0,1-4.45-4.35,4.37,4.37,0,0,1,8.73-.18A4.41,4.41,0,0,1,27.59,104.63Z"/></g></g></svg>