<svg xmlns="http://www.w3.org/2000/svg" viewBox="0 0 206.15 194.81"><defs><style>.cls-1{fill:#2c8ae1;}.cls-2{fill:#308ce2;}.cls-3{fill:#318ce2;}.cls-4{fill:#2b89e1;}.cls-5{fill:#2f8be2;}.cls-6{fill:#2f8ce2;}.cls-7{fill:#358fe3;}</style></defs><g id="Layer_2" data-name="Layer 2"><g id="Layer_1-2" data-name="Layer 1"><path class="cls-1" d="M168.78,99.68c3,2.7,5.95,5.13,8.66,7.79,8,7.83,15.89,15.74,23.83,23.62a15.48,15.48,0,0,1,4.17,16.07c-1.66,6-5.89,9.61-11.89,10.92a15,15,0,0,1-14.33-4.1q-14.11-13.84-28-27.88a43.19,43.19,0,0,1-3.9-5.35c-17.46,10-35.91,12.06-55,5.23-14.6-5.22-25.69-14.87-33.54-28.25C43.6,72,49.44,38.38,72.49,18.25a64.17,64.17,0,0,1,81.45-2.12A63.51,63.51,0,0,1,168.78,99.68ZM114.56,11.36a54.92,54.92,0,1,0,55,54.9A54.94,54.94,0,0,0,114.56,11.36Z"/><path class="cls-2" d="M65,18.33c-2.36,3-4.27,5.52-6.37,7.9A3.86,3.86,0,0,1,56.1,27c-7.82.06-15.64,0-23.47,0h-2.8V186H144.72V130.09c3.15,3,6,5.7,8.74,8.51.42.44.24,1.53.24,2.31q0,24,0,48c0,4.31-1.61,5.91-5.94,5.91H26.61c-4.17,0-5.85-1.66-5.85-5.77V24.2c0-4.13,1.69-5.86,5.77-5.87H65Z"/><path class="cls-1" d="M95.19.62a28.41,28.41,0,0,0-3.28,1C87.7,3.55,83.55,5.58,79.33,7.43a12,12,0,0,1-4.48,1.2c-20.91.07-41.82,0-62.73,0H8.87v159c1.41,0,2.74.05,4.06,0s2,.37,2,1.9c-.11,2.15,0,4.3,0,6.6-4,0-7.88.31-11.69-.11C.75,175.75,0,173.52,0,171.08Q.06,138.7,0,106.3,0,56.16.05,6c0-4.65,1.34-6,6-6H94.13c.31,0,.62,0,.93.06Z"/><path class="cls-1" d="M87.19,135.81h43.58c.56,0,1.25-.19,1.64.07.73.47,1.79,1.23,1.76,1.83a3.72,3.72,0,0,1-1.55,2.31c-.47.36-1.39.14-2.11.14H44.07c-.71,0-1.61.21-2.1-.14-.75-.52-1.69-1.47-1.67-2.2s1.15-1.41,1.9-2c.32-.23.93-.05,1.41-.05Z"/><path class="cls-3" d="M87.2,156.88q-21.44,0-42.86,0c-1.67,0-4,.51-4-2.1s2.26-2.17,4-2.17H131.2c1.56,0,3,.3,3,2.25s-1.47,2-2.93,2l-33.76,0H87.2Z"/><path class="cls-1" d="M87.17,169.41h43.56c.64,0,1.44-.18,1.87.13.7.5,1.59,1.35,1.59,2.05s-.87,1.58-1.58,2c-.52.33-1.39.15-2.11.15H43.86a4.4,4.4,0,0,1-2.11-.18c-.66-.4-1.5-1.26-1.46-1.87a3.39,3.39,0,0,1,1.46-2.13c.5-.35,1.39-.17,2.1-.17H87.17Z"/><path class="cls-1" d="M75.43,123.35c-11,0-21.94,0-32.9-.1a3.25,3.25,0,0,1-2.28-2.09c-.32-1.5.89-2.26,2.38-2.26,9,0,18-.23,27,.17,2.1.1,4.1,2.33,6.14,3.58Z"/><path class="cls-4" d="M138.86,56.34l17.54-8.68c5.76,14.25,5.4,28-2.19,41.1-8.28,14.3-21,21.75-37.81,23.14v-2.56c0-5,0-10.07,0-15.11,0-1.18.17-1.86,1.58-2.1,13.27-2.31,21.68-11.56,22.65-24.92a24.16,24.16,0,0,0-.37-5.49C140,60,139.39,58.34,138.86,56.34Z"/><path class="cls-5" d="M114.32,44.16a22.08,22.08,0,1,1-22.15,22.1A22.15,22.15,0,0,1,114.32,44.16ZM96.69,66a17.7,17.7,0,0,0,35.4.39A17.7,17.7,0,0,0,96.69,66Z"/><path class="cls-2" d="M154.49,44.16,150.84,46a17.94,17.94,0,0,1-1.15-1.47c-11-17.17-30.82-23.88-49.9-16.91-3.5,1.29-3.5,1.29-5.3-2.32C112.72,15.28,141.73,20.57,154.49,44.16Z"/><path class="cls-6" d="M112.4,107.66a15,15,0,0,0,.09,1.72c.36,2.15-.68,2.61-2.58,2.37C91.67,109.43,78.76,100,71.61,82.93c-1.34-3.19-2-6.68-3-10.34h4.54C77.81,93.54,91,105.19,112.4,107.66Z"/><path class="cls-5" d="M83.85,32.12l2.51,3.61A42.82,42.82,0,0,0,73.3,59.94c-.85,0-1.56.09-2.26.09s-1.24-.08-2.13-.14A45.75,45.75,0,0,1,83.85,32.12Z"/><path class="cls-7" d="M68.58,68.22V64.11H88v4.11Z"/><path class="cls-2" d="M87.05,29.47,90.72,27c3.67,5.45,7.21,10.72,10.92,16.22L98,45.74C94.3,40.27,90.72,35,87.05,29.47Z"/></g></g></svg>