<svg xmlns="http://www.w3.org/2000/svg" viewBox="0 0 191.06 158.27"><defs><style>.cls-1{fill:#318ce2;}.cls-2{fill:#338ee2;}.cls-3{fill:#358fe3;}.cls-4{fill:#328de2;}.cls-5{fill:#3a91e3;}.cls-6{fill:#edf5fc;}.cls-7{fill:#ecf4fc;}.cls-8{fill:#eef5fc;}.cls-9{fill:#eff6fc;}.cls-10{fill:#f3f8fc;}.cls-11{fill:none;stroke:#60a1f1;stroke-miterlimit:10;stroke-width:2px;}.cls-12{fill:#338de2;}.cls-13{fill:#4195e4;}.cls-14{fill:#509ee6;}</style></defs><g id="Layer_2" data-name="Layer 2"><g id="Layer_1-2" data-name="Layer 1"><path class="cls-1" d="M128.65,42.18V21.34c0-1.2,0-2.4,0-3.59-.26-4.65-2.88-7.83-8-7.81-30.17.13-60.35.06-90.53.06-.85,0-1.69.07-2.84.12a28.3,28.3,0,0,1,1.51,4.54,71.53,71.53,0,0,1,1,10q.11,57.72.06,115.44a19.29,19.29,0,0,0,.43,5,4.36,4.36,0,0,0,2.07,2.61c.59.27,1.91-.52,2.61-1.16,2.54-2.34,3.47-5.55,3.9-8.8a117.13,117.13,0,0,0,.92-12.41c0-2.13.74-2.7,2.8-2.7q26.82.06,53.65-.09a3.36,3.36,0,0,1,3.54,2.09c1.25,2.55,2.77,5,4.35,7.76-1.08,0-1.91.12-2.75.12-16.2,0-32.41.09-48.62,0-2.25,0-3.17.57-3.51,3a94.31,94.31,0,0,1-2.54,10.66c-.31,1.21-.1,1.88,1.26,1.87.56,0,1.12,0,1.68,0q34.12,0,68.26,0a9.6,9.6,0,0,1,4.55,1,65.51,65.51,0,0,0,17.73,7,2,2,0,0,1,1.27,1.12,90.93,90.93,0,0,1-9.41,1q-48.87.1-97.72,0c-7.6,0-13-4.69-14.06-12.3a44.08,44.08,0,0,1-.34-6q0-46.56,0-93.12c0-3.07,0-3.08-3-3.08-4.87,0-9.74-.06-14.61,0-1.7,0-2.22-.56-2.17-2.22.14-3.75-.4-7.61.25-11.26C1.91,21.52,3.44,12.51,10.46,5.91A19.87,19.87,0,0,1,24.63.06C56.73.15,88.82.3,120.91,0A16.94,16.94,0,0,1,138.4,16c.49,7.08.31,14.22.31,21.33a2.55,2.55,0,0,1-1.3,1.91C134.67,40.3,131.84,41.14,128.65,42.18ZM20.1,26.46l.52-.09c-.63-3.66-1-7.38-2-11C18,13,16.92,13,15.49,15,11.87,20.18,11,26.17,10.26,32.21c-.15,1.31.46,1.91,1.8,1.88q3.11-.08,6.21,0c1.33,0,1.87-.57,1.84-1.88C20.07,30.3,20.1,28.38,20.1,26.46Z"/><path class="cls-2" d="M60,25.2h1.44c3.22,0,3.33,0,3.22,3.3-.07,2.05.86,2.84,2.68,3.24,6.12,1.33,6.11,1.37,4.63,7.46-.13.54-.16,1.1-.29,1.65-.3,1.31-.85,1.68-2.38,1.32a59.75,59.75,0,0,0-9.6-1.41c-1-.07-2,1.1-3,1.71.73.84,1.3,2,2.22,2.48,2.78,1.36,5.78,2.27,8.54,3.67,7.08,3.57,9.52,11,5.37,17.21A14.32,14.32,0,0,1,67,70.34c-1.73.79-2.29,1.58-2.27,3.32,0,5,.7,4.59-4.6,4.59-4.7,0-4.76,0-4.84-4.7a2.27,2.27,0,0,0-2-2.49c-2.6-.72-5.14-1.61-7.7-2.46-1.13-.38-1.4-1-.86-2.22.76-1.66,1.34-3.41,1.94-5.15.52-1.54,1.25-1.72,2.89-1.24a67.32,67.32,0,0,0,10,2.06c1.47.2,3.48.21,3.93-1.84S62,57.33,60.53,56.66c-2.4-1.06-4.91-1.85-7.32-2.88-7.52-3.24-10.05-10.67-5.58-17.29,1.29-1.91,3.66-3.23,5.77-4.39,1.1-.61,1.79-.93,1.84-2.3C55.39,25.2,55.44,25.2,60,25.2Z"/><path class="cls-2" d="M93.05,96.29c.22,3.52.43,6.67.65,10.08-1,0-1.72.11-2.49.11H48.88c-3,0-3.15-.21-3.16-3.11,0-1.44.08-2.88,0-4.31-.16-2.1.73-2.84,2.79-2.81,6.53.08,13.07,0,19.61,0h25Z"/><path class="cls-3" d="M102.9,40.84c-4.39,0-8.78-.06-13.17,0-1.78,0-2.45-.62-2.33-2.39a40.45,40.45,0,0,0,0-5.28c-.12-1.83.68-2.35,2.39-2.34q13.17.07,26.34,0c1.73,0,2.25.69,2.18,2.3a50.64,50.64,0,0,0,0,5.51c.11,1.72-.63,2.24-2.25,2.21C111.68,40.79,107.29,40.84,102.9,40.84Z"/><path class="cls-4" d="M112.36,52.84c-2.88,3.4-5.39,6.44-8,9.39a3,3,0,0,1-2,.54c-4.14,0-8.29,0-12.43,0-1.85,0-2.61-.69-2.52-2.55s.06-3.67,0-5.51c0-1.29.47-1.93,1.8-1.93Z"/><path class="cls-5" d="M97.76,73.79c-1,3.26-1.83,6.09-2.82,8.86a2.43,2.43,0,0,1-1.63,1.28c-5.74.69-5.88.53-5.89-5.18,0-5.23-.42-5,4.88-5Z"/><path class="cls-6" d="M20.1,26.46c0,1.92,0,3.84,0,5.75,0,1.31-.51,1.9-1.84,1.88q-3.11-.08-6.21,0c-1.34,0-2-.57-1.8-1.88.7-6,1.61-12,5.23-17.18,1.43-2,2.52-2,3.16.39,1,3.57,1.34,7.29,2,11Z"/><path class="cls-7" d="M143.63,109.27c-1.71,1.35-2.8.49-3.73-1l.2-.81,3.7.89Z"/><path class="cls-8" d="M143.9,110.33l4.5.34c-1.8,2.55-3.18,1.66-4.57.61Z"/><path class="cls-9" d="M139.34,86.19l2.06-2,.72.18-.55,3.48-.8,0Z"/><path class="cls-10" d="M140.58,105.22c-2.24,1.83-2.6,1.66-3.59-1.37Z"/><path class="cls-11" d="M145.08,51.83A45.29,45.29,0,1,1,99.63,96.7,45.16,45.16,0,0,1,145.08,51.83Zm-44.24,45a44.11,44.11,0,0,0,88.21.51c.21-24.15-19.64-44.4-43.67-44.54A44.09,44.09,0,0,0,100.84,96.87Z"/><path class="cls-12" d="M167,111.55l-2-.33c-4.12-.7-6.64,2-5.56,6.06.39,1.44.09,2.3-1.31,2.82s-2.5,1-3.75,1.55c-3.58,1.45-3.58,1.45-6.22-1.41a4.6,4.6,0,0,0-7.41.62c-1.32,2.13-2.67,2.36-4.72,1.32a47.17,47.17,0,0,0-4.66-1.87c-1.45-.54-1.85-1.49-1.53-3,.92-4.34-1.82-7-6.09-5.89-1.67.44-2.55,0-3.17-1.53-.74-1.85-1.56-3.67-2.42-5.47-.65-1.37-.23-2.21,1-3,4.2-2.65,4.19-6.12,0-8.61-1.28-.75-1.65-1.59-1-2.93.5-1.09.9-2.22,1.37-3.32,1.6-3.72,1.6-3.72,5.47-3.47,3.56.23,5.93-2.61,4.84-6-.54-1.72-.26-2.71,1.5-3.33,2-.68,3.86-1.5,5.76-2.35,1.34-.6,2.19-.25,3,1,2.91,4.3,6.16,4.2,9.14,0a3.15,3.15,0,0,1,2.71-1,63.92,63.92,0,0,1,6.23,2.4c1.39.54,1.63,1.48,1.3,2.87-1.08,4.55,1.43,7.06,6.06,6,1.68-.37,2.77,0,3.37,1.71.37,1,.86,2.06,1.3,3.09,1.54,3.6,1.54,3.6-1.44,6.07a4.33,4.33,0,0,0,.73,7.38c2.09,1.1,2.29,2.33,1.32,4.23-.79,1.57-1.35,3.25-2.19,4.79A7.13,7.13,0,0,1,167,111.55Zm-.7-3.19a25.46,25.46,0,0,0,1.42-3.43,2.27,2.27,0,0,0-.5-1.9c-4.16-3.74-4.21-8.16-.07-11.91a2.25,2.25,0,0,0,.82-1.5c-.2-2.44-1.77-3.49-4.21-3.8a11.12,11.12,0,0,1-5-1.88c-2.64-1.92-3.19-4.79-2.33-7.88a26.42,26.42,0,0,0-3.73-1.5,2.47,2.47,0,0,0-2,.56c-4.19,4.23-8.27,4.26-12.39.07a2.39,2.39,0,0,0-2-.61,25.46,25.46,0,0,0-3.65,1.55c.9,6.07-2.36,10.14-8,9.69-2.41-.19-2.41,1.42-3.14,2.71s-.37,2.21.8,3.21c3.72,3.14,3.76,7.85,0,10.92-1.51,1.22-1.11,2.15-.47,3.41s.68,2.65,2.87,2.33a7.23,7.23,0,0,1,8.27,7.66c-.09,1.64.43,2.36,1.86,2.7s2.58,1.7,4.16-.23a7.24,7.24,0,0,1,11-.35c1.4,1.51,2.5,1.56,4.07.7.75-.41,1.57-.7,2.33-1C155.38,111.45,159.23,107.73,166.28,108.36Z"/><path class="cls-13" d="M140.69,81.72a4.49,4.49,0,0,0-1.08.83A6,6,0,0,0,139,84c.48.15,1,.52,1.42.4a15,15,0,0,1,9.59.41c.87.29,2-.12,3.66-.27l-4.33-2.58c4.64-.65,11.83,6.7,11.38,11.26l-3-1.8c.14,2.94.55,5.31.3,7.6a12.61,12.61,0,0,1-5.87,9.17,15.39,15.39,0,0,0-2.13,2.14l.62.85,5.19-2.71c-.35,3.27-8.43,5.93-14.63,4.71-6.95-1.37-13.62-7.89-12.84-12.22l2.77,1.57.53-.46a13.76,13.76,0,0,1,.74-11.58c.27-.47-.24-1.37-.55-2.83l-2.58,4.14-.78-.3a22.29,22.29,0,0,1,1.79-3.71c2.51-3.51,5.76-6,10.08-6.62Zm3.94,27.34C151.7,109,157,103.83,157,97s-5.51-12-12.53-12a12.12,12.12,0,0,0-12.4,12.15C132.11,103.89,137.55,109.08,144.63,109.06Zm13.56-18,.8-1.33L156,88l-.67,1.12Zm-9.47,18.47-3.2,2.15.55.83C146.9,111.37,149.34,112.89,148.72,109.51Zm7.41-21.92.36-1.33-3.56-.92-.33,1.16Zm-16.08,23.2.08-1.43-3.61-.18-.09,1.18Zm.72.12.15.87c1.29-.3,3.22,1.64,3.92-1.61ZM134.24,89l.76-3.43C133.14,86.13,131.78,86.8,134.24,89Zm-1,17.37-.44,1.35,3.23,1,.38-1.14Z"/><path class="cls-14" d="M149.41,97.11a4.86,4.86,0,1,1-4.78-4.92A4.86,4.86,0,0,1,149.41,97.11Zm-4.9-4a3.82,3.82,0,1,0,4,3.65A3.8,3.8,0,0,0,144.51,93.16Z"/></g></g></svg>