<svg xmlns="http://www.w3.org/2000/svg" viewBox="0 0 216.72 199.91"><defs><style>.cls-1{fill:#2b89e1;}.cls-2{fill:#2d8ae2;}</style></defs><g id="Layer_2" data-name="Layer 2"><g id="Layer_1-2" data-name="Layer 1"><path class="cls-1" d="M216.72,32c-4.3-1.78-7.69-3.33-11.19-4.6-13-4.7-26-5.68-39-.17A62.3,62.3,0,0,0,148.13,39.5c-12.3,11.57-21.31,25.6-29.78,40.29,2.42,1.44,4.73,2.82,7.05,4.18,6,3.52,12,7,18,10.51,2.16,1.25,3.65,2.86,3.43,5.54s-1.95,3.75-4.21,4.62Q107,118.35,71.41,132.17c-5.22,2-8.06.35-8.95-5.17Q56.28,88.42,50.07,49.85A5.07,5.07,0,0,1,52,44.54a4.92,4.92,0,0,1,5.83-.11q12,7,24,14L84,59.7c.58-1,1.15-1.86,1.69-2.79,6.93-11.83,14.63-23.09,24.13-33C117,16.38,125,9.94,134.43,5.5c14.82-6.94,29.9-7,45.15-1.61C192.87,8.58,204.42,16.23,215,25.42,216.24,26.53,216.07,29.33,216.72,32Z"/><path class="cls-2" d="M66.53.19V15.68H63.91c-10,0-20,0-29.94,0s-17.18,7.1-17.18,17.24q0,67.2,0,134.41c0,9.66,7.13,16.87,16.79,16.87q74.63,0,149.24,0a16.35,16.35,0,0,0,16.66-16.75q.06-40.57,0-81.13V83.51h16.65v2.22q0,40.22,0,80.41c0,16.81-11.28,30.29-27.78,33.26a38.23,38.23,0,0,1-6.68.49q-73.53,0-147.07,0C14.49,199.89,0,185.38,0,165.21Q0,99.67,0,34.15C0,17.4,11,3.91,27,.65A28.82,28.82,0,0,1,32.49,0C43.27,0,54.05,0,64.83,0A16.46,16.46,0,0,1,66.53.19Z"/></g></g></svg>