<svg xmlns="http://www.w3.org/2000/svg" viewBox="0 0 216.16 199.91"><defs><style>.cls-1{fill:#2b89e1;}.cls-2{fill:#2d8ae2;}</style></defs><g id="Layer_2" data-name="Layer 2"><g id="Layer_1-2" data-name="Layer 1"><path class="cls-1" d="M157.52,76.09c-5.1,8.78-9.77,17.44-15,25.71-6.81,10.72-15,20.29-25.43,27.76-15.78,11.33-33,14-51.63,8.83-13.42-3.74-25.27-10.57-36.5-18.61-2.26-1.61-1.1-4-1.64-6.37,3.79,1.26,7.15,2.49,10.57,3.48,11,3.19,22.15,3.87,33.2,0,9.76-3.39,17.63-9.58,24.42-17.19,10.86-12.16,18.62-26.3,25.62-40.9a2.74,2.74,0,0,0,.06-.65L102.58,49l-7.53-3.68c-2.16-1.07-3.63-2.61-3.54-5.2s1.59-3.77,3.72-4.78Q129.86,19,164.46,2.58c4.9-2.32,7.89-.89,9.15,4.44q9,38,18,76.05c.52,2.19.25,4.17-1.59,5.64s-4,1.32-6.07.31L159.43,77C158.73,76.64,158,76.32,157.52,76.09Z"/><path class="cls-2" d="M66.53.19V15.68H63.91c-10,0-20,0-29.94,0s-17.18,7.1-17.19,17.24q0,67.2,0,134.41c0,9.66,7.13,16.87,16.79,16.87q74.63,0,149.24,0a16.35,16.35,0,0,0,16.66-16.75q.06-40.57,0-81.13V83.51h16.65v2.22q0,40.22,0,80.41c0,16.81-11.28,30.29-27.78,33.26a38.23,38.23,0,0,1-6.68.49q-73.53,0-147.07,0C14.49,199.89,0,185.38,0,165.21Q0,99.67,0,34.15C0,17.4,11,3.91,27,.65A28.73,28.73,0,0,1,32.49,0C43.27,0,54.05,0,64.82,0A16.35,16.35,0,0,1,66.53.19Z"/></g></g></svg>