<svg xmlns="http://www.w3.org/2000/svg" viewBox="0 0 226.31 224.17"><defs><style>.cls-1{fill:#f9f9f9;}.cls-2{fill:#eb5038;}.cls-3{fill:#4a94ef;}.cls-4{fill:#e9533c;}</style></defs><g id="Layer_2" data-name="Layer 2"><g id="Layer_1-2" data-name="Layer 1"><path class="cls-1" d="M7.46,144.94c-1.46-6.82-3.12-13.6-4.31-20.47a65.68,65.68,0,0,1-1-12.83C2.6,96.16,5.42,81.19,11.7,66.89a112.75,112.75,0,0,1,28.68-39.3A108.41,108.41,0,0,1,75.62,6.48c8.18-3,16.54-5.35,25.16-6.05a198.76,198.76,0,0,1,24.53-.1c9.91.44,19.41,3,28.67,6.57a112.61,112.61,0,0,1,64.36,63.37,94.35,94.35,0,0,1,7,28.39c.43,5.87,1.12,11.78.86,17.64A109.41,109.41,0,0,1,217.71,155a110.84,110.84,0,0,1-16.52,27.61,112.94,112.94,0,0,1-59.79,38.19A109,109,0,0,1,107.59,224a110.29,110.29,0,0,1-48.87-14.72,106.79,106.79,0,0,1-27.22-22c-5.2-6-9.5-12.73-14.12-19.2A15.72,15.72,0,0,1,16,164.56c4.52,2.2,6.83,6.51,9.78,10.23,2.65,3.35,4.55,7.42,8.67,9.43-.7,4.19,2,6.6,4.74,8.94A124.82,124.82,0,0,0,64,209.41c23.15,11.83,47.38,15.47,72.82,9.3,17.65-4.28,33.4-12.58,47.65-23.65,11.08-8.61,9.79-4.37,9.28-19.72-.62-18.53-9-33-25-42.71-2.07-1.26-4.1-2.06-6.51-1.62a68.47,68.47,0,0,0-20.56-5.79,3,3,0,0,0-3.15,1.43c-4.86,6.71-10.36,12.68-18.63,15.46l13.47-1.52c-6,10.88-11.92,21.77-18.12,33.11L94.81,140l17.13,2.15a34,34,0,0,1-13.21-9,69.68,69.68,0,0,1-5.45-6.66,2.59,2.59,0,0,0-3-1.27c-5.54,1.38-11.22,2.37-16.61,4.2-13.12,4.45-26.41,6.68-40.2,4.45C22.64,132.14,14,135.36,7.81,144.63A1.5,1.5,0,0,1,7.46,144.94ZM69.2,81.87a45,45,0,1,0,90.07-.3c0-24.53-20.3-44.77-44.94-44.8A45.11,45.11,0,0,0,69.2,81.87Z"/><path class="cls-2" d="M34.46,184.22c-4.12-2-6-6.08-8.67-9.43-2.95-3.72-5.26-8-9.78-10.23-5-2.95-8.42-2.56-16,2a56.66,56.66,0,0,1,7.46-21.58,1.5,1.5,0,0,0,.35-.31c6.18-9.27,14.83-12.49,25.66-10.73,13.79,2.23,27.08,0,40.2-4.45,5.39-1.83,11.07-2.82,16.61-4.2a2.59,2.59,0,0,1,3,1.27,69.68,69.68,0,0,0,5.45,6.66,34,34,0,0,0,13.21,9L94.81,140c-1.06-1.68-2.26-3.29-3.16-5.06a4.35,4.35,0,0,0-4.13-2.64c-6.27,0-12.64-.7-18.8.14-14.31,2-24.72,9.59-30.21,23.31C34.85,164.91,34.15,174.49,34.46,184.22Z"/><path class="cls-3" d="M34.46,184.22c-.31-9.73.39-19.31,4-28.46C44,142,54.41,134.41,68.72,132.45c6.16-.84,12.53-.15,18.8-.14A4.35,4.35,0,0,1,91.65,135c.9,1.77,2.1,3.38,3.16,5.06l20.38,33.69c6.2-11.34,12.16-22.23,18.12-33.11,1.14-2,2.37-4,3.4-6a3,3,0,0,1,2.91-1.9c7.52-.48,15-1.1,22.56-1.67,2.41-.44,4.44.36,6.51,1.62,16,9.75,24.39,24.18,25,42.71.51,15.35,1.8,11.11-9.28,19.72-14.25,11.07-30,19.37-47.65,23.65-25.44,6.17-49.67,2.53-72.82-9.3A124.82,124.82,0,0,1,39.2,193.16C36.46,190.82,33.76,188.41,34.46,184.22Z"/><path class="cls-3" d="M69.2,81.87a45.11,45.11,0,0,1,45.13-45.1c24.64,0,44.94,20.27,44.94,44.8a45,45,0,1,1-90.07.3Z"/><path class="cls-4" d="M162.18,131c-7.52.57-15,1.19-22.56,1.67a3,3,0,0,0-2.91,1.9c-1,2-2.26,4-3.4,6l-13.47,1.52c8.27-2.78,13.77-8.75,18.63-15.46a3,3,0,0,1,3.15-1.43A68.47,68.47,0,0,1,162.18,131Z"/></g></g></svg>