<svg xmlns="http://www.w3.org/2000/svg" viewBox="0 0 224.2 224.21"><defs><style>.cls-1{fill:#f9f9f9;}.cls-2{fill:#4a94ef;}.cls-3{fill:#f0f3f7;}.cls-4{fill:#5399f0;}.cls-5{fill:#4f96ef;}.cls-6{fill:#5097ef;}.cls-7{fill:#5097f0;}.cls-8{fill:#67a4f1;}.cls-9{fill:#67a5f1;}.cls-10{fill:#d0e1f7;}.cls-11{fill:#4a93ef;}.cls-12{fill:#c4daf6;}.cls-13{fill:#6ea8f1;}.cls-14{fill:#cadef6;}.cls-15{fill:#61a1f0;}.cls-16{fill:#c3daf6;}.cls-17{fill:#63a2f1;}.cls-18{fill:#c2d9f6;}.cls-19{fill:#549af0;}.cls-20{fill:#559af0;}.cls-21{fill:#84b5f2;}.cls-22{fill:#edf2f8;}.cls-23{fill:#5b9ef0;}.cls-24{fill:#4e96ef;}.cls-25{fill:none;stroke:#60a1f1;stroke-miterlimit:10;stroke-width:2px;}</style></defs><g id="Layer_2" data-name="Layer 2"><g id="Layer_1-2" data-name="Layer 1"><path class="cls-1" d="M15.69,167.4a25.23,25.23,0,0,1-3.11-4A101.82,101.82,0,0,1,1.87,131.66,127.89,127.89,0,0,1,0,111,112.87,112.87,0,0,1,9.4,67,114.13,114.13,0,0,1,38.06,27.68a108.22,108.22,0,0,1,34.75-21c8.3-3.09,16.82-5.52,25.6-6.24A180.89,180.89,0,0,1,122.94.36c14.58.81,28.21,5.32,41.09,12.1a113.12,113.12,0,0,1,23.85,17A110.65,110.65,0,0,1,208.5,54.94a109.69,109.69,0,0,1,13.69,36.28,107.6,107.6,0,0,1,1.88,25.19,112.71,112.71,0,0,1-8.63,38.68,109.86,109.86,0,0,1-16,27.06,116.76,116.76,0,0,1-28.31,25.09,113.91,113.91,0,0,1-32,13.57,107.08,107.08,0,0,1-33.8,3.17,110.29,110.29,0,0,1-48.86-14.72,117.29,117.29,0,0,1-26.77-21.4,37.47,37.47,0,0,1-3.44-5.2c4.3,3.71,8.5,7.55,12.93,11.11a150.11,150.11,0,0,0,32.55,19.74c.21.31.36.77.65.89,2.71,1.12,5.43,2.21,8.17,3.23.33.12.83-.2,1.25-.31.46.11.93.2,1.38.33,9,2.68,18.18,4.9,27.72,4.6,5.64-.17,11.35.08,16.89-.75a108.36,108.36,0,0,0,36.13-12.45c3.87-2.11,4.5-3.7,3-8.14-18.33,2.42-34.08-2.81-45.9-17.29s-13.78-31.09-7.63-48.8c-1,0-1.84.05-2.63,0-2.83-.25-4.55.86-6,3.48-6.38,11.36-13,22.56-19.59,33.81-.54.93-1.15,1.81-1.93,3-.66-1.11-1.1-1.84-1.53-2.58Q71.1,154.2,60.49,135.83c-.76-1.31-1.45-2-3.15-1.66-3.11.66-6.31.92-9.42,1.58-8.62,1.84-17,4.29-24.34,9.5-5.79,4.13-9.52,9.45-8.82,17C14.92,164,15.37,165.68,15.69,167.4ZM130.68,86c.15-24.71-19.86-45.19-44.36-45.38-25-.2-45.55,19.77-45.71,44.5-.17,25.09,19.75,45.58,44.47,45.75A45.09,45.09,0,0,0,130.68,86Zm28.19,27.57A39.16,39.16,0,1,0,197.78,153,39,39,0,0,0,158.87,113.6Z"/><path class="cls-2" d="M15.69,167.4c-.32-1.72-.77-3.43-.93-5.17-.7-7.53,3-12.85,8.82-17,7.3-5.21,15.72-7.66,24.34-9.5,3.11-.66,6.31-.92,9.42-1.58,1.7-.37,2.39.35,3.15,1.66q10.58,18.39,21.24,36.73c.43.74.87,1.47,1.53,2.58.78-1.23,1.39-2.11,1.93-3,6.56-11.25,13.21-22.45,19.59-33.81,1.47-2.62,3.19-3.73,6-3.48.79.06,1.59,0,2.63,0-6.15,17.71-4.23,34.27,7.63,48.8s27.57,19.71,45.9,17.29c1.48,4.44.85,6-3,8.14a108.36,108.36,0,0,1-36.13,12.45c-5.54.83-11.25.58-16.89.75-9.54.3-18.67-1.92-27.72-4.6-.45-.13-.92-.22-1.38-.33l-10.07-3.81A150.11,150.11,0,0,1,39.2,193.77c-4.43-3.56-8.63-7.4-12.93-11.11C21.76,178.26,17.86,173.43,15.69,167.4Z"/><path class="cls-2" d="M130.68,86a45.09,45.09,0,0,1-45.6,44.87c-24.72-.17-44.64-20.66-44.47-45.75.16-24.73,20.68-44.7,45.71-44.5C110.82,40.84,130.83,61.32,130.68,86Z"/><path class="cls-3" d="M71.75,213.51l10.07,3.81c-.42.11-.92.43-1.25.31-2.74-1-5.46-2.11-8.17-3.23C72.11,214.28,72,213.82,71.75,213.51Z"/><path class="cls-4" d="M142.18,143.92l-2.62-1.69c2.3-1.19,4-2.06,5.66-2.91,3.91-2,7.8-4,11.77-5.87a4.1,4.1,0,0,1,3.06,0c5.11,2.43,10.15,5,15.17,7.63.59.3.94,1.07,1.4,1.62l-1.83,1.09v.06c-5.14-2.66-10.26-5.35-15.43-7.93a2.94,2.94,0,0,0-2.21.24c-4.85,2.4-9.65,4.88-14.47,7.34Z"/><path class="cls-5" d="M152.61,162.08c.16-3.5.48-7,.38-10.5,0-1.28-1.07-2.53-1.65-3.8,1.72,0,3.45-.12,5.17,0,.51,0,1,.6,1.49.93a2.85,2.85,0,0,0-1.55,3.11c.29,2.59.41,5.2.51,7.8a13.56,13.56,0,0,1-.36,2.51Z"/><path class="cls-5" d="M145,162.08c.17-3.34.31-6.68.51-10,.08-1.32.14-2.53-1.29-3.27-.19-.09-.11-.74-.15-1.13l5.45-.43h.31a5.86,5.86,0,0,1,.14,1.8c-.25,1-1,1.89-1,2.84,0,2.53.3,5,.4,7.58a11.47,11.47,0,0,1-.34,2.23Z"/><path class="cls-5" d="M168,161.6c0-2.52-.08-5.06.19-7.55a8.75,8.75,0,0,0-1.49-6.31l5.82-.51.3,0c.16.42.58,1.1.45,1.23-3,3.09-.75,6.75-1.12,10.11a21,21,0,0,0,.06,3.07Z"/><path class="cls-6" d="M160.13,161.62c.11-3.34.33-6.69.25-10,0-1-.91-2-1.39-2.95.49-.32,1-.87,1.49-.9,1.71-.1,3.43,0,5.15,0-3.28,3.7-.84,8-1.25,12-.06.6,0,1.22,0,1.84Z"/><path class="cls-7" d="M141,168.09H176v.49H141Z"/><path class="cls-8" d="M174.25,166.19,176,167c-1.33.17-1.92.32-2.51.32-10.09,0-20.18,0-30.27,0-.46,0-2.14.73-1.06-1,7.77,0,15.54.11,23.31.12C168.4,166.39,171.33,166.26,174.25,166.19Z"/><path class="cls-9" d="M142.63,165.53c.32-.32.64-.92,1-.93q14.91-.07,29.81,0c.3,0,.6.62.91.94Z"/><path class="cls-10" d="M142.63,165.53h31.68l-.06.65c-2.92.07-5.85.2-8.77.2-7.77,0-15.54-.07-23.31-.12Z"/><path class="cls-11" d="M172.78,147.21l-.3,0-5.84-.06-1,0-14.35,0-1.5,0h-.31l-5.37,0-1.48-1,31.67,0Z"/><path class="cls-12" d="M142.18,143.92l.51-.42a1,1,0,0,1-.05.3,7.52,7.52,0,0,0,1.91.51c4.35,0,8.7,0,13,0h.32l2,.09v.81l-17.49.09Z"/><path class="cls-13" d="M142.42,145.31l17.49-.09c4,0,8,0,12,.1a15.26,15.26,0,0,1,2.46.48v0H142.64Z"/><path class="cls-14" d="M142.64,145.82h31.67c0,.13,0,.27,0,.4l-31.67,0C142.63,146.06,142.64,145.94,142.64,145.82Z"/><path class="cls-15" d="M160.13,161.62h4.21c.34.63.69,1.25,1,1.88a12.37,12.37,0,0,1-1.91.53,11.23,11.23,0,0,1-2.39,0,14.94,14.94,0,0,1-1.94-.5Z"/><path class="cls-16" d="M174.32,145.8a15.26,15.26,0,0,0-2.46-.48c-4-.07-8-.07-12-.1v-.81c3.57,0,7.14,0,10.71-.09a32,32,0,0,0,3.64-.44l.54,0v-.06C174.63,144.46,174.48,145.13,174.32,145.8Z"/><path class="cls-17" d="M168,161.6l4.21,0,1,2.42c-1.83,0-3.21.08-4.58,0a7.74,7.74,0,0,1-1.94-.72Z"/><path class="cls-18" d="M151.29,147.18l14.35,0v.56c-1.72,0-3.44-.11-5.15,0-.51,0-1,.58-1.49.9l-1,0c-.5-.33-1-.9-1.49-.93-1.72-.09-3.45,0-5.17,0Z"/><path class="cls-19" d="M145,162.08l4-.41,1.29,1.59a7.34,7.34,0,0,1-1.93.73c-1.33.11-2.67,0-4.69,0Z"/><path class="cls-20" d="M152.61,162.08l4,0,1.31,1.15c-.41.26-.8.71-1.23.73-1.56.09-3.14,0-5.4,0Z"/><path class="cls-21" d="M166.64,147.17l5.84.06-5.82.51C166.65,147.55,166.65,147.36,166.64,147.17Z"/><path class="cls-21" d="M144.11,147.2l5.37,0-5.45.43C144.05,147.51,144.08,147.35,144.11,147.2Z"/><path class="cls-22" d="M174.8,143.85l-.54,0-31.62-.08a1,1,0,0,0,.05-.3c4.82-2.46,9.62-4.94,14.47-7.34a2.94,2.94,0,0,1,2.21-.24C164.54,138.5,169.66,141.19,174.8,143.85Zm-5.79-1,.08-.36c-3.14-1.66-6.29-3.33-9.45-5-.4-.21-1-.46-1.32-.31-3.42,1.69-6.8,3.45-10.19,5.19l.2.44Z"/><path class="cls-23" d="M142.64,143.8l31.62.08a32,32,0,0,1-3.64.44c-3.57.08-7.14.07-10.71.09l-2-.09h-.32c-4.35,0-8.7,0-13,0A7.52,7.52,0,0,1,142.64,143.8Z"/><path class="cls-13" d="M157.6,144.32h0Z"/><path class="cls-24" d="M169,142.85H148.33l-.2-.44c3.39-1.74,6.77-3.5,10.19-5.19.32-.15.92.1,1.32.31,3.16,1.63,6.31,3.3,9.45,5Z"/><circle class="cls-25" cx="159.14" cy="152.75" r="39.4"/></g></g></svg>