<svg xmlns="http://www.w3.org/2000/svg" viewBox="0 0 224.16 224.13"><defs><style>.cls-1{fill:#f9f9f9;}.cls-2{fill:#4a94ef;}.cls-3{fill:#f0f3f7;}.cls-4{fill:#4f96ef;}.cls-5{fill:#5097ef;}.cls-6{fill:#5399f0;}.cls-7{fill:#5298f0;}.cls-8{fill:#4e96ef;}.cls-9{fill:#569bf0;}.cls-10{fill:#559af0;}.cls-11{fill:#5a9df0;}.cls-12{fill:#62a1f0;}.cls-13{fill:#60a1f0;}.cls-14{fill:none;stroke:#60a1f1;stroke-miterlimit:10;stroke-width:2px;}</style></defs><g id="Layer_2" data-name="Layer 2"><g id="Layer_1-2" data-name="Layer 1"><path class="cls-1" d="M15.69,167.34a26.33,26.33,0,0,1-3.12-3.94,102.14,102.14,0,0,1-10.7-31.79A127.77,127.77,0,0,1,0,111,112.77,112.77,0,0,1,9.4,67,114,114,0,0,1,38.05,27.67a108.19,108.19,0,0,1,34.75-21C81.1,3.62,89.62,1.19,98.39.47A180.89,180.89,0,0,1,122.92.36c14.58.81,28.2,5.32,41.08,12.1a112.76,112.76,0,0,1,23.84,17,112.55,112.55,0,0,1,34.31,61.78A107.48,107.48,0,0,1,224,116.37c-.75,13.34-3.3,26.3-8.63,38.66a109,109,0,0,1-16,27.05,116.53,116.53,0,0,1-28.3,25.09,114.44,114.44,0,0,1-31.94,13.57,107.37,107.37,0,0,1-33.8,3.16,110.08,110.08,0,0,1-48.85-14.72A116.94,116.94,0,0,1,29.71,187.8a36.3,36.3,0,0,1-3.44-5.2c4.3,3.71,8.5,7.54,12.92,11.11a150.46,150.46,0,0,0,32.55,19.73c.21.3.36.76.65.88,2.7,1.12,5.42,2.21,8.17,3.23.33.13.83-.19,1.24-.31.47.11.93.2,1.39.34,9,2.68,18.18,4.89,27.71,4.6,5.64-.18,11.34.08,16.89-.75A108.58,108.58,0,0,0,163.92,209c3.86-2.11,4.49-3.71,3-8.14C148.6,203.26,132.86,198,121,183.56s-13.77-31.09-7.63-48.79c-1,0-1.84.06-2.63,0-2.83-.24-4.55.86-6,3.49-6.37,11.35-13,22.54-19.59,33.79-.54.93-1.14,1.81-1.92,3-.66-1.11-1.1-1.84-1.53-2.58q-10.64-18.36-21.24-36.72c-.76-1.31-1.45-2-3.15-1.66-3.11.67-6.31.92-9.42,1.58-8.62,1.84-17,4.29-24.34,9.5-5.78,4.13-9.51,9.45-8.82,17C14.91,163.91,15.37,165.62,15.69,167.34ZM130.66,86c.15-24.7-19.86-45.17-44.35-45.37-25-.2-45.54,19.77-45.71,44.49-.17,25.08,19.75,45.56,44.47,45.74A45.1,45.1,0,0,0,130.66,86Zm67.09,66.78a39.07,39.07,0,1,0-39.21,39.06A39,39,0,0,0,197.75,152.78Z"/><path class="cls-2" d="M71.74,213.44a150.46,150.46,0,0,1-32.55-19.73c-4.42-3.57-8.62-7.4-12.92-11.11-4.51-4.4-8.41-9.23-10.58-15.26-.32-1.72-.78-3.43-.94-5.16-.69-7.53,3-12.85,8.82-17,7.3-5.21,15.72-7.66,24.34-9.5,3.11-.66,6.31-.91,9.42-1.58,1.7-.37,2.39.35,3.15,1.66q10.58,18.39,21.24,36.72c.43.74.87,1.47,1.53,2.58.78-1.23,1.38-2.11,1.92-3,6.56-11.25,13.22-22.44,19.59-33.79,1.47-2.63,3.19-3.73,6-3.49.79.07,1.59,0,2.63,0-6.14,17.7-4.23,34.26,7.63,48.79s27.56,19.7,45.89,17.28c1.48,4.43.85,6-3,8.14a108.58,108.58,0,0,1-36.13,12.45c-5.55.83-11.25.57-16.89.75-9.53.29-18.66-1.92-27.71-4.6-.46-.14-.92-.23-1.39-.34Z"/><path class="cls-2" d="M130.66,86a45.1,45.1,0,0,1-45.59,44.86c-24.72-.18-44.64-20.66-44.47-45.74.17-24.72,20.68-44.69,45.71-44.49C110.8,40.83,130.81,61.3,130.66,86Z"/><path class="cls-3" d="M71.74,213.44l10.06,3.8c-.41.12-.91.44-1.24.31-2.75-1-5.47-2.11-8.17-3.23C72.1,214.2,72,213.74,71.74,213.44Z"/><path class="cls-4" d="M162.7,167.79c.1-1.72.33-3-1.64-3.64A10.14,10.14,0,0,1,153.75,154c-.05-5.36,1.9-9.79,6.79-12.59,1.92,3.31,1.88,3.89-.35,6.59a8.74,8.74,0,0,0-1,9.45c1.4,2.48,4.64,3.65,8.46,3.07.94-.14,1.88-.33,2.83-.38,1.41-.06,2.83,0,4.94,0-1.35,1.24-2.12,2.34-3.18,2.83-2.09,1-2.75,2.42-2.11,4.85.71,0,1.55.1,2.39.1,1.45,0,2.2.61,2.22,2.16s-.72,2.11-2.2,2.1c-3.91,0-7.82,0-11.73,0-1.35,0-2.36-.22-2.4-1.9s.65-2.38,2.27-2.35C161.32,167.91,161.94,167.83,162.7,167.79Z"/><path class="cls-5" d="M163.57,134.65a5.09,5.09,0,0,1,1.17,1.41c1.74,4.61,3.41,9.24,5.08,13.88.5,1.39,0,2.23-1.41,2.74s-2.09-.1-2.53-1.32c-1.68-4.63-3.39-9.25-5-13.89C160.25,135.79,161.29,134.54,163.57,134.65Z"/><path class="cls-6" d="M144.12,148.05c-1.09-.65-2.21-1.24-3.25-2-3.38-2.38-4.25-6.63-1.63-9.49.2,1,.42,1.8.5,2.59a7.28,7.28,0,0,0,3.84,5.95,56.34,56.34,0,0,1,6.37,4.18c2.36,1.86,2.64,4.48,1.72,7.17s-2,5.08-5.23,5.56l0,0a20.84,20.84,0,0,1,1.54-3.5c2.15-3.15,2.3-5.65,0-7.91A24.88,24.88,0,0,0,144.12,148.05Z"/><path class="cls-7" d="M147.92,165.9c-1.9-1.24-3.87-2.41-5.7-3.76a7.89,7.89,0,0,1-.48-12.68,8,8,0,0,1,2.33-1c-.19.8-.14,1.79-.61,2.38-3.83,4.82-2.77,8.87,3,11.23l0,0c1,.61,2,1.23,3,1.82a7,7,0,0,1,3.67,7c0,.81-.59,1.6-1.17,3.06-1.36-3.27-.58-6.81-4-8Z"/><path class="cls-8" d="M172.62,156.31c2.15,0,4.31-.06,6.45.05.51,0,1,.64,1.47,1-.51.33-1,.94-1.53.95q-6.33.12-12.66,0c-.53,0-1.06-.59-1.59-.9.55-.36,1.08-1,1.65-1C168.47,156.24,170.55,156.31,172.62,156.31Z"/><path class="cls-9" d="M144.48,164.89c-3.45,2.12-4,5.38-4.1,8.87-2.23-1.35-2.42-3.88-.84-6.81C140.91,164.41,142.18,163.74,144.48,164.89Z"/><path class="cls-10" d="M150.37,136c2.37,2.08,2.32,5.29.47,8-1.49,2.17-2.34,2.5-4.44,1.42C149.65,143.29,150.64,140.08,150.37,136Z"/><path class="cls-11" d="M149.85,170.48c-1.79,1.85-5.18,2.07-7.73.5C143.69,169,147.45,168.7,149.85,170.48Z"/><path class="cls-11" d="M141.76,139.05c2.33-1.48,4.63-1.93,7-.73l0,.73Z"/><path class="cls-12" d="M142.83,141.45h4.86v.89h-4.86Z"/><path class="cls-13" d="M147.9,165.89c-.32.69-.5,1.85-1,2a8.16,8.16,0,0,1-2.88-.18l0-1.22,3.92-.58Z"/><path class="cls-6" d="M148.63,155.91l-6.37.35c1.43-2.19,3.85-2.39,6.36-1.21Z"/><circle class="cls-14" cx="157.82" cy="152.7" r="39.4"/></g></g></svg>