<svg xmlns="http://www.w3.org/2000/svg" viewBox="0 0 224.17 224.25"><defs><style>.cls-1{fill:#f9f9f9;}.cls-2{fill:#4a94ef;}.cls-3{fill:#f0f3f7;}.cls-4{fill:#4d95ef;}.cls-5{fill:none;stroke:#60a1f1;stroke-miterlimit:10;stroke-width:2px;}</style></defs><g id="Layer_2" data-name="Layer 2"><g id="Layer_1-2" data-name="Layer 1"><path class="cls-1" d="M15.69,167.43a25.71,25.71,0,0,1-3.11-4,102,102,0,0,1-10.71-31.8A127.89,127.89,0,0,1,0,111.06,112.42,112.42,0,0,1,38.06,27.69a108.13,108.13,0,0,1,34.74-21C81.1,3.62,89.62,1.19,98.4.47A180.89,180.89,0,0,1,122.93.36c14.58.81,28.2,5.32,41.08,12.1a112.91,112.91,0,0,1,23.85,17,112.67,112.67,0,0,1,34.31,61.8A107.6,107.6,0,0,1,224,116.42a112.65,112.65,0,0,1-8.62,38.69,109.64,109.64,0,0,1-16,27.07,116.74,116.74,0,0,1-28.3,25.09,114.17,114.17,0,0,1-31.94,13.58,107.37,107.37,0,0,1-33.8,3.16,110.08,110.08,0,0,1-48.85-14.72,116.86,116.86,0,0,1-26.77-21.4,36.3,36.3,0,0,1-3.44-5.2c4.3,3.71,8.5,7.55,12.92,11.11a150.54,150.54,0,0,0,32.55,19.75c.22.3.36.76.65.88,2.71,1.12,5.43,2.21,8.18,3.23.33.13.82-.19,1.24-.31.46.11.93.2,1.38.34,9,2.68,18.18,4.89,27.72,4.6,5.63-.18,11.34.08,16.89-.75a108.8,108.8,0,0,0,36.13-12.45c3.87-2.12,4.5-3.71,3-8.15-18.33,2.43-34.07-2.81-45.89-17.29s-13.78-31.1-7.63-48.81c-1,0-1.84,0-2.63,0-2.83-.25-4.55.86-6,3.48-6.38,11.36-13,22.56-19.59,33.82-.54.92-1.14,1.81-1.92,3-.66-1.11-1.11-1.85-1.54-2.59q-10.64-18.36-21.24-36.73c-.75-1.31-1.45-2-3.15-1.66-3.11.66-6.31.92-9.42,1.58-8.62,1.84-17,4.29-24.33,9.5-5.79,4.14-9.52,9.45-8.83,17C14.91,164,15.37,165.7,15.69,167.43Zm69.75-36.5A45.14,45.14,0,1,0,40.6,85.53,45.11,45.11,0,0,0,85.44,130.93Zm112.32,21.93a39.07,39.07,0,1,0-39.21,39.08A39,39,0,0,0,197.76,152.86Z"/><path class="cls-2" d="M71.74,213.55A150.54,150.54,0,0,1,39.19,193.8c-4.42-3.56-8.62-7.4-12.92-11.11-4.51-4.4-8.41-9.23-10.58-15.26-.32-1.73-.78-3.44-.94-5.17-.69-7.54,3-12.85,8.83-17,7.3-5.21,15.71-7.66,24.33-9.5,3.11-.66,6.31-.92,9.42-1.58,1.7-.37,2.4.35,3.15,1.66q10.58,18.39,21.24,36.73c.43.74.88,1.48,1.54,2.59.78-1.23,1.38-2.12,1.92-3,6.56-11.26,13.21-22.46,19.59-33.82,1.47-2.62,3.19-3.73,6-3.48.79.06,1.59,0,2.63,0-6.15,17.71-4.23,34.28,7.63,48.81s27.56,19.72,45.89,17.29c1.49,4.44.86,6-3,8.15a108.8,108.8,0,0,1-36.13,12.45c-5.55.83-11.26.57-16.89.75-9.54.29-18.67-1.92-27.72-4.6-.45-.14-.92-.23-1.38-.34Z"/><path class="cls-2" d="M85.44,130.93a45.14,45.14,0,1,1,45.23-45.25A45.13,45.13,0,0,1,85.44,130.93Z"/><path class="cls-3" d="M71.74,213.55l10.07,3.8c-.42.12-.91.44-1.24.31-2.75-1-5.47-2.11-8.18-3.23C72.1,214.31,72,213.85,71.74,213.55Z"/><path class="cls-4" d="M161.78,178.52c-4.26.61-4.26.61-4.75-4.24L145.86,171l1.59-6.11a69,69,0,0,0,7.8,3.64,9.41,9.41,0,0,0,4.9-.17,4.66,4.66,0,0,0,3.58-4.33,4.75,4.75,0,0,0-2.67-5.17c-2.63-1.34-5.32-2.56-7.93-3.93-5.39-2.84-7.34-6.5-6.68-12.3.52-4.54,4-8.3,9.14-9.64,1.34-.35,1.65-.94,1.58-2.13-.06-.86,0-1.72,0-2.72h4.54v3.8c2.58.66,4.86,1.28,7.17,1.81,1.89.43,2.51,1.39,1.72,3.27a24.07,24.07,0,0,0-.87,3.29,17.76,17.76,0,0,0-3.42-1.77,28.71,28.71,0,0,0-6.87-1.29,3.94,3.94,0,0,0-3.78,3.46,4.22,4.22,0,0,0,2.27,4.86c2.54,1.34,5.19,2.46,7.76,3.75,8.23,4.13,10.27,13.14,4.26,19.88a14.77,14.77,0,0,1-6,3.7c-1.83.64-2.43,1.4-2.2,3.18A20.56,20.56,0,0,1,161.78,178.52Z"/><circle class="cls-5" cx="159.63" cy="153.44" r="39.4"/></g></g></svg>