<svg xmlns="http://www.w3.org/2000/svg" viewBox="0 0 223.32 224.49"><defs><style>.cls-1{fill:#f9f9f9;}.cls-2{fill:#4a94ef;}.cls-3{fill:#a2c7f4;}</style></defs><g id="Layer_2" data-name="Layer 2"><g id="Layer_1-2" data-name="Layer 1"><circle class="cls-1" cx="111.66" cy="111.66" r="111.66"/><path class="cls-2" d="M114.58,187.39l10.28-18.59c2-3.71,4-7.47,6.19-11.1a4.1,4.1,0,0,1,2.68-1.76c6-.57,12.08-1,18.13-1.33a5.66,5.66,0,0,1,2.91.74c12.9,7.28,19.68,18.56,20.29,33.18.51,12.06,1.25,8.95-7.55,15.73-12,9.23-25.25,15.89-40.19,18.79-16.59,3.22-32.54.95-47.89-5.94A90.41,90.41,0,0,1,54.17,200.4a6,6,0,0,1-1.63-3.67c-.39-7.13-.11-14.21,2.24-21.09C59,163.42,67.71,156.93,80.23,155.5c4.3-.49,8.72.06,13.09.14a3.57,3.57,0,0,1,3.16,2.1c5.36,8.9,10.8,17.75,16.22,26.61Z"/><path class="cls-2" d="M79.22,116.77a34.62,34.62,0,1,1,34.4,34.78A34.71,34.71,0,0,1,79.22,116.77Z"/><path class="cls-3" d="M43,104.26c2.47-4.41,4.84-8.44,7-12.59a3.33,3.33,0,0,1,3.54-2.11,15,15,0,0,0,3.78-.35c4.36-.9,7.14,1.63,9.59,4.54,3.46,4.11,4.59,9,4.24,14.31a3.52,3.52,0,0,1-1.19,2.19c-6.17,5.09-13,9.08-20.91,10.53a37.57,37.57,0,0,1-27.84-5.69l-1-.65c-6.4-4.26-7.27-6.89-5.24-14.4,2.42-9,10.48-11.8,18.32-10.36.79.15,1.56,1.24,2.07,2C37.85,95.76,40.3,99.84,43,104.26Z"/><path class="cls-3" d="M185.79,104.29c2.54-4.59,4.79-8.81,7.24-12.9a4.63,4.63,0,0,1,2.7-1.72c1.53-.38,3.17-.25,4.73-.51,4.4-.74,7,2,9.44,4.9,3.29,4,4.33,8.81,4,13.91a3.43,3.43,0,0,1-1.12,2.21c-6.15,5.12-12.94,9.12-20.89,10.58A37.47,37.47,0,0,1,163.85,115c-.27-.17-.54-.33-.81-.51-6.51-4.32-7.32-6.28-5.48-13.9,2.41-9.92,11-12.3,18.62-10.89.73.13,1.41,1.18,1.89,2C180.59,95.7,183.05,99.79,185.79,104.29Z"/><path class="cls-3" d="M42.86,55.5a16.1,16.1,0,1,1-16.23,16A16,16,0,0,1,42.86,55.5Z"/><path class="cls-3" d="M185.4,87.69a16.1,16.1,0,1,1,16.13-15.83A16,16,0,0,1,185.4,87.69Z"/></g></g></svg>