<svg xmlns="http://www.w3.org/2000/svg" viewBox="0 0 224.16 224.13"><defs><style>.cls-1{fill:#f9f9f9;}.cls-2{fill:#4a94ef;}.cls-3{fill:#f0f3f7;}.cls-4{fill:#328de2;}.cls-5{fill:#f4f7f8;}.cls-6{fill:#eff4f8;}.cls-7{fill:#368fe3;}.cls-8{fill:#3e93e3;}.cls-9{fill:#3b92e3;}.cls-10{fill:#f0f4f8;}.cls-11{fill:none;stroke:#60a1f1;stroke-miterlimit:10;stroke-width:2px;}</style></defs><g id="Layer_2" data-name="Layer 2"><g id="Layer_1-2" data-name="Layer 1"><path class="cls-1" d="M15.69,167.34a26.33,26.33,0,0,1-3.12-3.94,102.14,102.14,0,0,1-10.7-31.79A127.77,127.77,0,0,1,0,111,112.77,112.77,0,0,1,9.4,67,114,114,0,0,1,38.05,27.67a108.19,108.19,0,0,1,34.75-21C81.1,3.62,89.62,1.19,98.39.47A180.89,180.89,0,0,1,122.92.36c14.58.81,28.2,5.32,41.08,12.1a112.76,112.76,0,0,1,23.84,17,112.55,112.55,0,0,1,34.31,61.78A107.48,107.48,0,0,1,224,116.37c-.75,13.34-3.3,26.3-8.63,38.66a109,109,0,0,1-16,27.05,116.53,116.53,0,0,1-28.3,25.09,114.44,114.44,0,0,1-31.94,13.57,107.37,107.37,0,0,1-33.8,3.16,110.08,110.08,0,0,1-48.85-14.72A116.94,116.94,0,0,1,29.71,187.8a36.3,36.3,0,0,1-3.44-5.2c4.3,3.71,8.5,7.54,12.92,11.11a150.46,150.46,0,0,0,32.55,19.73c.21.3.36.76.65.88,2.7,1.12,5.42,2.21,8.17,3.23.33.13.83-.19,1.24-.31.47.11.93.2,1.39.34,9,2.68,18.18,4.89,27.71,4.6,5.64-.18,11.34.08,16.89-.75A108.58,108.58,0,0,0,163.92,209c3.86-2.11,4.49-3.71,3-8.14C148.6,203.26,132.86,198,121,183.56s-13.77-31.09-7.63-48.79c-1,0-1.84.06-2.63,0-2.83-.24-4.55.86-6,3.49-6.37,11.35-13,22.54-19.59,33.79-.54.93-1.14,1.81-1.92,3-.66-1.11-1.1-1.84-1.53-2.58q-10.64-18.36-21.24-36.72c-.76-1.31-1.45-2-3.15-1.66-3.11.67-6.31.92-9.42,1.58-8.62,1.84-17,4.29-24.34,9.5-5.78,4.13-9.51,9.45-8.82,17C14.91,163.91,15.37,165.62,15.69,167.34ZM130.66,86c.15-24.7-19.86-45.17-44.35-45.37-25-.2-45.54,19.77-45.71,44.49-.17,25.08,19.75,45.56,44.47,45.74A45.1,45.1,0,0,0,130.66,86Zm28,27.56a39.14,39.14,0,1,0,39.09,39.18A39,39,0,0,0,158.66,113.56Z"/><path class="cls-2" d="M71.74,213.44a150.46,150.46,0,0,1-32.55-19.73c-4.42-3.57-8.62-7.4-12.92-11.11-4.51-4.4-8.41-9.23-10.58-15.26-.32-1.72-.78-3.43-.94-5.16-.69-7.53,3-12.85,8.82-17,7.3-5.21,15.72-7.66,24.34-9.5,3.11-.66,6.31-.91,9.42-1.58,1.7-.37,2.39.35,3.15,1.66q10.58,18.39,21.24,36.72c.43.74.87,1.47,1.53,2.58.78-1.23,1.38-2.11,1.92-3,6.56-11.25,13.22-22.44,19.59-33.79,1.47-2.63,3.19-3.73,6-3.49.79.07,1.59,0,2.63,0-6.14,17.7-4.23,34.26,7.63,48.79s27.56,19.7,45.89,17.28c1.48,4.43.85,6-3,8.14a108.58,108.58,0,0,1-36.13,12.45c-5.55.83-11.25.57-16.89.75-9.53.29-18.66-1.92-27.71-4.6-.46-.14-.92-.23-1.39-.34Z"/><path class="cls-2" d="M130.66,86a45.1,45.1,0,0,1-45.59,44.86c-24.72-.18-44.64-20.66-44.47-45.74.17-24.72,20.68-44.69,45.71-44.49C110.8,40.83,130.81,61.3,130.66,86Z"/><path class="cls-3" d="M71.74,213.44l10.06,3.8c-.41.12-.91.44-1.24.31-2.75-1-5.47-2.11-8.17-3.23C72.1,214.2,72,213.74,71.74,213.44Z"/><path class="cls-4" d="M154.65,134c-.55-.13-1.17-.09-1.39-.37-.6-.75-1.58-1.81-1.38-2.41a3.23,3.23,0,0,1,2.3-1.88,79.83,79.83,0,0,1,10.26.05c.75.06,2.11,1.54,2,2.07-.26,1.06-1.35,1.92-2.1,2.87l-.67-.37c0,2.78-.12,5.57.08,8.34,0,.62,1.09,1.38,1.84,1.71a17,17,0,0,1,6.48,26.32,16.53,16.53,0,0,1-17.88,5.41c-6.94-2.23-11.27-8.08-11.74-15.85a16.6,16.6,0,0,1,9.74-15.5c2.11-.87,2.7-2,2.51-4.05S154.65,136.17,154.65,134Zm3-.09c0,2.75-.17,5.38,0,8s-.41,4-3.25,4.9c-6.92,2.24-10.48,9.81-8.42,16.84a13.71,13.71,0,0,0,26.85-3.22,13.59,13.59,0,0,0-9.95-14.08c-1.93-.56-2.48-1.35-2.33-3.31.22-3,.06-6,.06-9.12Zm7.86-2.76H152.9C154.77,132.65,163.46,132.66,165.48,131.12Z"/><path class="cls-5" d="M157.62,133.88h3c0,3.11.16,6.13-.06,9.12-.15,2,.4,2.75,2.33,3.31a13.59,13.59,0,0,1,9.95,14.08A13.71,13.71,0,0,1,146,163.61c-2.06-7,1.5-14.6,8.42-16.84,2.84-.92,3.46-2.27,3.25-4.9S157.62,136.63,157.62,133.88Zm2.69,23.94a2.84,2.84,0,0,0,3.12,2.85,2.94,2.94,0,0,0-.17-5.87A2.83,2.83,0,0,0,160.31,157.82ZM162,164.5c-1.54-1.09-2.42-2.19-3.25-2.16s-2,1.35-2,2a3.07,3.07,0,0,0,2,2.25C159.44,166.72,160.39,165.57,162,164.5Zm-6.3-15.1c-3.47.17-7.5,4.84-6.83,7.84Z"/><path class="cls-6" d="M165.48,131.12c-2,1.54-10.71,1.53-12.58,0Z"/><path class="cls-7" d="M160.31,157.82a2.83,2.83,0,0,1,2.95-3,2.94,2.94,0,0,1,.17,5.87A2.84,2.84,0,0,1,160.31,157.82Zm2.7-2.09c-.59.91-1.3,1.54-1.19,1.94a2.41,2.41,0,0,0,1.46,1.42c.31.09,1.34-.88,1.28-1.25C164.46,157.21,163.75,156.68,163,155.73Z"/><path class="cls-8" d="M162,164.5c-1.56,1.07-2.51,2.22-3.27,2.11a3.07,3.07,0,0,1-2-2.25c-.06-.67,1.25-2,2-2S160.41,163.41,162,164.5Z"/><path class="cls-9" d="M155.65,149.4l-6.83,7.84C148.15,154.24,152.18,149.57,155.65,149.4Z"/><path class="cls-10" d="M163,155.73c.74,1,1.45,1.48,1.55,2.11.06.37-1,1.34-1.28,1.25a2.41,2.41,0,0,1-1.46-1.42C161.71,157.27,162.42,156.64,163,155.73Z"/><circle class="cls-11" cx="159.31" cy="153.44" r="39.4"/></g></g></svg>