<svg xmlns="http://www.w3.org/2000/svg" viewBox="0 0 214.03 170.77"><defs><style>.cls-1{fill:#2a89e1;}.cls-2{fill:#2b89e1;}</style></defs><g id="Layer_2" data-name="Layer 2"><g id="Layer_1-2" data-name="Layer 1"><path class="cls-1" d="M106.79,34.52c3.26,2.64,6.49,5.23,9.69,7.85Q149,68.94,181.64,95.48a4.69,4.69,0,0,1,2,4c.06,20,.22,39.92.3,59.88a16.1,16.1,0,0,1-.62,4.95c-1.15,3.57-4.39,5.63-8.56,5.65q-20.59.12-41.2.19h-9.18V119.51h-34v50.94H87.92l-46.71.32c-6.88,0-10.3-3.34-10.32-10.25-.09-20-.15-40.08-.29-60.12a4.7,4.7,0,0,1,1.84-4.09q36.29-30.15,72.5-60.4C105.49,35.46,106.07,35.06,106.79,34.52Z"/><path class="cls-2" d="M149.08,30.14V5.76c0-4.16,1.2-5.53,5.35-5.61C162.25,0,170.07,0,177.89,0c3.7,0,5.18,1.68,5.2,5.61.07,16.76.17,33.53.16,50.29a4.88,4.88,0,0,0,2.06,4.22q13,10.56,25.92,21.25c3.49,2.88,3.65,4.83.83,8.27-2.07,2.53-4.13,5.08-6.25,7.57-2.67,3.15-4.8,3.35-8,.73l-55.78-46Q125.16,38,108.23,24.06c-.48-.4-1-.75-1.63-1.22Q98.05,30,89.54,37.17l-68.82,58c-1.65,1.39-3.26,2.82-4.94,4.17-2.5,2-4.79,1.88-6.94-.52S4.37,93.65,2.17,91c-3.07-3.66-2.92-5.6.7-8.66L32.73,57.23,95.19,4.63c7.28-6.14,15.44-6.18,22.81-.09q14.49,12,28.95,24C147.55,29,148.18,29.45,149.08,30.14Z"/></g></g></svg>