<svg xmlns="http://www.w3.org/2000/svg" viewBox="0 0 224.2 224.21"><defs><style>.cls-1{fill:#f9f9f9;}.cls-2{fill:#4a94ef;}.cls-3{fill:#f0f3f7;}.cls-4{fill:#4e96ef;}.cls-5{fill:none;stroke:#60a1f1;stroke-miterlimit:10;stroke-width:2px;}</style></defs><g id="Layer_2" data-name="Layer 2"><g id="Layer_1-2" data-name="Layer 1"><path class="cls-1" d="M15.69,167.4a25.23,25.23,0,0,1-3.11-4A101.82,101.82,0,0,1,1.87,131.66,127.89,127.89,0,0,1,0,111,112.87,112.87,0,0,1,9.4,67,114.13,114.13,0,0,1,38.06,27.68a108.22,108.22,0,0,1,34.75-21c8.3-3.09,16.82-5.52,25.6-6.24A180.89,180.89,0,0,1,122.94.36c14.58.81,28.21,5.32,41.09,12.1a113.12,113.12,0,0,1,23.85,17A110.65,110.65,0,0,1,208.5,54.94a109.69,109.69,0,0,1,13.69,36.28,107.6,107.6,0,0,1,1.88,25.19,112.71,112.71,0,0,1-8.63,38.68,109.86,109.86,0,0,1-16,27.06,116.76,116.76,0,0,1-28.31,25.09,113.91,113.91,0,0,1-32,13.57,107.08,107.08,0,0,1-33.8,3.17,110.21,110.21,0,0,1-48.86-14.72,117.07,117.07,0,0,1-26.77-21.4,37.47,37.47,0,0,1-3.44-5.2c4.3,3.71,8.5,7.55,12.93,11.11a150.11,150.11,0,0,0,32.55,19.74c.21.31.36.77.65.88,2.71,1.13,5.43,2.22,8.17,3.24.33.12.83-.2,1.25-.31.46.11.93.2,1.38.33,9,2.68,18.18,4.9,27.72,4.6,5.64-.17,11.35.08,16.89-.75a108.36,108.36,0,0,0,36.13-12.45c3.87-2.11,4.5-3.7,3-8.14-18.33,2.42-34.08-2.81-45.9-17.29s-13.78-31.09-7.63-48.8c-1,0-1.84.05-2.63,0-2.83-.24-4.55.87-6,3.49-6.38,11.36-13,22.56-19.59,33.81-.54.93-1.15,1.81-1.93,3-.66-1.11-1.1-1.84-1.53-2.58Q71.1,154.2,60.49,135.83c-.76-1.31-1.45-2-3.15-1.66-3.11.66-6.31.92-9.42,1.58-8.62,1.84-17,4.29-24.34,9.5-5.79,4.13-9.52,9.45-8.82,17C14.92,164,15.37,165.68,15.69,167.4ZM40.61,85.69a45,45,0,1,0,45.18-45A45.12,45.12,0,0,0,40.61,85.69Zm157.17,67.25a39.07,39.07,0,1,0-39.32,39A39,39,0,0,0,197.78,152.94Z"/><path class="cls-2" d="M71.75,213.51A150.11,150.11,0,0,1,39.2,193.77c-4.43-3.56-8.63-7.4-12.93-11.11-4.51-4.4-8.41-9.23-10.58-15.26-.32-1.72-.77-3.43-.93-5.17-.7-7.53,3-12.85,8.82-17,7.3-5.21,15.72-7.66,24.34-9.5,3.11-.66,6.31-.92,9.42-1.58,1.7-.37,2.39.35,3.15,1.66q10.58,18.39,21.24,36.73c.43.74.87,1.47,1.53,2.58.78-1.23,1.39-2.11,1.93-3,6.56-11.25,13.21-22.45,19.59-33.81,1.47-2.62,3.19-3.73,6-3.49.79.07,1.59,0,2.63,0-6.15,17.71-4.23,34.27,7.63,48.8s27.57,19.71,45.9,17.29c1.48,4.44.85,6-3,8.14a108.36,108.36,0,0,1-36.13,12.45c-5.54.83-11.25.58-16.89.75-9.54.3-18.67-1.92-27.72-4.6-.45-.13-.92-.22-1.38-.33Z"/><path class="cls-2" d="M40.61,85.69a45,45,0,1,1,45,45.22A45.11,45.11,0,0,1,40.61,85.69Z"/><path class="cls-3" d="M71.75,213.51l10.07,3.81c-.42.11-.92.43-1.25.31-2.74-1-5.46-2.11-8.17-3.24C72.11,214.28,72,213.82,71.75,213.51Z"/><path class="cls-4" d="M159.87,151.93v-4h13.34v10.18H160l-.28-3.61h-9.68v14h9.64l.3-4.12h13.25v10.18H160l-.23-3.64H147.94V154.3c-3.56,0-6.88.06-10.2-.05-.69,0-1.37-.62-2.06-.95.69-.41,1.37-1.14,2.07-1.17,3.26-.12,6.53,0,10.07,0v-16.7h11.94c.08-1.53.14-2.92.21-4.43h13.22v10.11H160c-.09-1-.19-2.09-.3-3.31h-9.67v14.18Z"/><circle class="cls-5" cx="158.71" cy="152.72" r="39.19"/></g></g></svg>