<svg xmlns="http://www.w3.org/2000/svg" viewBox="0 0 224.21 224.23"><defs><style>.cls-1{fill:#f9f9f9;}.cls-2{fill:#4a94ef;}.cls-3{fill:#a2c7f4;}.cls-4{fill:#a2c6f4;}.cls-5{fill:#f0f3f7;}.cls-6{fill:#328de2;}.cls-7{fill:#f4f7f8;}.cls-8{fill:#eff4f8;}.cls-9{fill:#368fe3;}.cls-10{fill:#3e93e3;}.cls-11{fill:#3b92e3;}.cls-12{fill:#f0f4f8;}.cls-13{fill:none;stroke:#60a1f1;stroke-miterlimit:10;stroke-width:2px;}</style></defs><g id="Layer_2" data-name="Layer 2"><g id="Layer_1-2" data-name="Layer 1"><path class="cls-1" d="M15.69,167.42a25.23,25.23,0,0,1-3.11-3.95,102,102,0,0,1-10.71-31.8A127.79,127.79,0,0,1,0,111.05,112.87,112.87,0,0,1,9.4,67,114.16,114.16,0,0,1,38.06,27.69a108.35,108.35,0,0,1,34.75-21C81.12,3.62,89.64,1.19,98.41.47A180.9,180.9,0,0,1,122.94.36c14.59.81,28.21,5.32,41.09,12.1a113,113,0,0,1,23.86,17,110.34,110.34,0,0,1,20.62,25.51A109.31,109.31,0,0,1,222.2,91.23a108.14,108.14,0,0,1,1.88,25.19,112.44,112.44,0,0,1-37.55,79.26,106.24,106.24,0,0,1-21,14.82,113.22,113.22,0,0,1-26.37,10.34,108,108,0,0,1-33.8,3.16,110.08,110.08,0,0,1-48.86-14.72,116.86,116.86,0,0,1-26.77-21.4,36.64,36.64,0,0,1-3.45-5.2c3.44,3,6.79,6.15,10.32,9.06a149.7,149.7,0,0,0,36.6,22.35,8.4,8.4,0,0,0,7.19,2.78c.85.23,1.7.43,2.53.69,9,2.76,18.15,5,27.68,4.69a183,183,0,0,0,19.19-1.2c12.91-1.85,24.84-6.67,36.12-13.15.63-.35,1.44-1,1.51-1.6a45.51,45.51,0,0,0,.07-5.39c-18.79,2.43-34.62-2.76-46.47-17.34s-13.71-31.08-7.58-48.75a24.42,24.42,0,0,1-2.45,0c-3-.31-4.71.86-6.23,3.56-6.33,11.28-12.94,22.4-19.46,33.58-.58,1-1.23,1.93-2,3.2-.67-1.13-1.11-1.87-1.54-2.61q-10.63-18.36-21.25-36.71c-.67-1.16-1.19-2.06-2.91-1.68-3.18.71-6.47.94-9.65,1.62-8.62,1.84-17,4.29-24.33,9.5-5.79,4.14-9.51,9.45-8.81,17C14.92,164,15.37,165.7,15.69,167.42ZM128.13,70.19c-.26-.49-.56-1-.78-1.47-8.11-19.22-26.84-30.13-47.49-27.65A44.82,44.82,0,0,0,41.64,95c4,18.49,15.69,30.53,34.05,34.73s33.81-1.82,45.72-16.52c4.68-5.76,7.2-12.56,8.76-19.75a69.59,69.59,0,0,0,8.57,1.92c9.51,1,17.62-2.53,24.82-8.49.46-.38,1-.91,1.1-1.43.53-4.26-.13-8.33-2.83-11.78a9.36,9.36,0,0,0-9.26-3.92c-3,.36-4.55,1.29-5.74,3.83-1.27,2.71-2.85,5.27-4.48,8.23-2.26-3.68-4.24-7-6.36-10.25A3.47,3.47,0,0,0,133.83,70,45.37,45.37,0,0,0,128.13,70.19ZM190.76,102c-2.32-3.77-4.28-7-6.34-10.25-.43-.67-1.24-1.5-1.91-1.54a22,22,0,0,0-6.39.28c-5.49,1.36-8.47,6.06-8.58,12.57,0,1.81.58,2.55,2.25,2.89a46.71,46.71,0,0,1,18,8.46,6,6,0,0,0,3.25,1.11c8.35.09,15.1-3.86,21.39-8.85a2.27,2.27,0,0,0,.65-1.45,15.94,15.94,0,0,0-3.27-11.9c-2.57-3.27-5.79-3.8-9.74-3.34-2.22.26-3.45.94-4.39,2.84C194.23,95.78,192.56,98.66,190.76,102ZM129.23,55.46a12.77,12.77,0,0,0,12.81,13,13.28,13.28,0,0,0,13.05-13.19c0-6.79-6.1-12.73-13-12.72A12.71,12.71,0,0,0,129.23,55.46Zm48.39,20.08a12.78,12.78,0,0,0,12.72,13.1,13.28,13.28,0,0,0,13.14-13.1c.06-6.75-6-12.8-12.9-12.81A12.71,12.71,0,0,0,177.62,75.54Zm-19,116.39a39.16,39.16,0,1,0-39-39.3A39,39,0,0,0,158.64,191.93Z"/><path class="cls-2" d="M15.69,167.42c-.32-1.72-.77-3.43-.93-5.17-.7-7.53,3-12.84,8.81-17,7.3-5.21,15.71-7.66,24.33-9.5,3.18-.68,6.47-.91,9.65-1.62,1.72-.38,2.24.52,2.91,1.68q10.6,18.36,21.25,36.71c.43.74.87,1.48,1.54,2.61.81-1.27,1.46-2.21,2-3.2,6.52-11.18,13.13-22.3,19.46-33.58,1.52-2.7,3.28-3.87,6.23-3.56a24.42,24.42,0,0,0,2.45,0C107.3,152.49,109.2,169,121,183.57s27.68,19.77,46.47,17.34a45.51,45.51,0,0,1-.07,5.39c-.07.6-.88,1.25-1.51,1.6-11.28,6.48-23.21,11.3-36.12,13.15a183,183,0,0,1-19.19,1.2c-9.53.34-18.65-1.93-27.68-4.69-.83-.26-1.68-.46-2.53-.69l-7.19-2.78a149.7,149.7,0,0,1-36.6-22.35c-3.53-2.91-6.88-6-10.32-9.06C21.76,178.28,17.86,173.45,15.69,167.42Z"/><path class="cls-2" d="M130.17,93.41c-1.56,7.19-4.08,14-8.76,19.75-11.91,14.7-27.36,20.72-45.72,16.52s-30-16.24-34-34.73A44.82,44.82,0,0,1,79.86,41.07c20.65-2.48,39.38,8.43,47.49,27.65.22.51.52,1,.78,1.47A51.06,51.06,0,0,1,130.17,93.41Z"/><path class="cls-3" d="M190.76,102c1.8-3.32,3.47-6.2,5-9.18.94-1.9,2.17-2.58,4.39-2.84,4-.46,7.17.07,9.74,3.34a15.94,15.94,0,0,1,3.27,11.9,2.27,2.27,0,0,1-.65,1.45c-6.29,5-13,8.94-21.39,8.85a6,6,0,0,1-3.25-1.11,46.71,46.71,0,0,0-18-8.46c-1.67-.34-2.29-1.08-2.25-2.89.11-6.51,3.09-11.21,8.58-12.57a22,22,0,0,1,6.39-.28c.67,0,1.48.87,1.91,1.54C186.48,94.93,188.44,98.21,190.76,102Z"/><path class="cls-4" d="M130.17,93.41a51.06,51.06,0,0,0-2-23.22,45.37,45.37,0,0,1,5.7-.19A3.47,3.47,0,0,1,136,71.52c2.12,3.24,4.1,6.57,6.36,10.25,1.63-3,3.21-5.52,4.48-8.23,1.19-2.54,2.75-3.47,5.74-3.83a9.36,9.36,0,0,1,9.26,3.92c2.7,3.45,3.36,7.52,2.83,11.78-.06.52-.64,1-1.1,1.43-7.2,6-15.31,9.44-24.82,8.49A69.59,69.59,0,0,1,130.17,93.41Z"/><path class="cls-3" d="M129.23,55.46a12.71,12.71,0,0,1,12.87-12.9c6.89,0,13,5.93,13,12.72A13.28,13.28,0,0,1,142,68.47,12.77,12.77,0,0,1,129.23,55.46Z"/><path class="cls-3" d="M177.62,75.54a12.71,12.71,0,0,1,13-12.81c6.86,0,13,6.06,12.9,12.81a13.28,13.28,0,0,1-13.14,13.1A12.78,12.78,0,0,1,177.62,75.54Z"/><path class="cls-5" d="M73.19,214.09l7.19,2.78A8.4,8.4,0,0,1,73.19,214.09Z"/><path class="cls-6" d="M153.88,134.41c-.7-1-2-2.07-2-3.12,0-1.81,1.66-2,3.19-2,2.63,0,5.26.15,7.89.09,1.6,0,3.43-.12,3.48,1.86,0,1.08-1.32,2.19-2,3.28l-.71-.36a22.72,22.72,0,0,1,0,2.61c-.51,4,.19,6.72,4.48,9,6.78,3.54,9.23,11.82,6.94,19.16a16.75,16.75,0,1,1-22.53-20.62c1.65-.7,2.34-1.48,2.17-3.32-.19-2.21,0-4.46,0-6.7Zm3.77-.47c0,2.79-.17,5.51,0,8.18s-.55,3.82-3.21,4.69c-6.92,2.27-10.51,9.8-8.47,16.83a13.75,13.75,0,1,0,17.19-17.19c-2.05-.61-2.82-1.33-2.59-3.58.29-2.91.07-5.87.07-8.93Zm7.41-1.95,0-.77H153.31V132Z"/><path class="cls-7" d="M157.65,133.94h3c0,3.06.22,6-.07,8.93-.23,2.25.54,3,2.59,3.58a13.6,13.6,0,0,1,9.67,14.05A13.71,13.71,0,0,1,146,163.64c-2-7,1.55-14.56,8.47-16.83,2.66-.87,3.43-2.09,3.21-4.69S157.65,136.73,157.65,133.94ZM163,154.85a2.75,2.75,0,0,0-2.67,2.8,2.81,2.81,0,0,0,2.87,3.09,2.7,2.7,0,0,0,2.95-2.77A2.93,2.93,0,0,0,163,154.85Zm-1,9.76c-1.52-1.11-2.46-2.31-3.2-2.19a3.21,3.21,0,0,0-2,2.27c-.1.59,1.22,2,1.94,2S160.42,165.66,162,164.61Zm-6.37-15.08c-3.31-.09-7.74,5.12-6.65,7.68Z"/><path class="cls-8" d="M165.06,132H153.32v-.77H165Z"/><path class="cls-9" d="M163,154.85a2.93,2.93,0,0,1,3.15,3.12,2.7,2.7,0,0,1-2.95,2.77,2.81,2.81,0,0,1-2.87-3.09A2.75,2.75,0,0,1,163,154.85Zm.09,1c-.62.88-1.35,1.49-1.25,1.88a2.43,2.43,0,0,0,1.41,1.48c.32.1,1.37-.84,1.33-1.22C164.52,157.33,163.83,156.77,163.11,155.81Z"/><path class="cls-10" d="M162,164.61c-1.56,1-2.45,2.11-3.3,2.08s-2-1.41-1.94-2a3.21,3.21,0,0,1,2-2.27C159.52,162.3,160.46,163.5,162,164.61Z"/><path class="cls-11" d="M155.61,149.53,149,157.21C147.87,154.65,152.3,149.44,155.61,149.53Z"/><path class="cls-12" d="M163.11,155.81c.72,1,1.41,1.52,1.49,2.14,0,.38-1,1.32-1.33,1.22a2.43,2.43,0,0,1-1.41-1.48C161.76,157.3,162.49,156.69,163.11,155.81Z"/><circle class="cls-13" cx="158.72" cy="152.77" r="39.19"/></g></g></svg>