<svg xmlns="http://www.w3.org/2000/svg" viewBox="0 0 224.16 224.13"><defs><style>.cls-1{fill:#f9f9f9;}.cls-2{fill:#4a94ef;}.cls-3{fill:#f0f3f7;}.cls-4{fill:#2f8ce2;}.cls-5{fill:none;stroke:#60a1f1;stroke-miterlimit:10;stroke-width:2px;}</style></defs><g id="Layer_2" data-name="Layer 2"><g id="Layer_1-2" data-name="Layer 1"><path class="cls-1" d="M15.69,167.34a26.33,26.33,0,0,1-3.12-3.94,102.14,102.14,0,0,1-10.7-31.79A127.77,127.77,0,0,1,0,111,112.77,112.77,0,0,1,9.4,67,114,114,0,0,1,38.05,27.67a108.19,108.19,0,0,1,34.75-21C81.1,3.62,89.62,1.19,98.39.47A180.89,180.89,0,0,1,122.92.36c14.58.81,28.2,5.32,41.08,12.1a112.76,112.76,0,0,1,23.84,17,112.55,112.55,0,0,1,34.31,61.78A107.48,107.48,0,0,1,224,116.37c-.75,13.34-3.3,26.3-8.63,38.66a109,109,0,0,1-16,27.05,116.53,116.53,0,0,1-28.3,25.09,114.44,114.44,0,0,1-31.94,13.57,107.37,107.37,0,0,1-33.8,3.16,110.08,110.08,0,0,1-48.85-14.72A116.94,116.94,0,0,1,29.71,187.8a36.3,36.3,0,0,1-3.44-5.2c4.3,3.71,8.5,7.54,12.92,11.11a150.46,150.46,0,0,0,32.55,19.73c.21.3.36.76.65.88,2.7,1.12,5.42,2.21,8.17,3.23.33.13.83-.19,1.24-.31.47.11.93.2,1.39.34,9,2.68,18.18,4.89,27.71,4.6,5.64-.18,11.34.08,16.89-.75A108.58,108.58,0,0,0,163.92,209c3.86-2.11,4.49-3.71,3-8.14C148.6,203.26,132.86,198,121,183.56s-13.77-31.09-7.63-48.79c-1,0-1.84.06-2.63,0-2.83-.24-4.55.86-6,3.49-6.37,11.35-13,22.54-19.59,33.79-.54.93-1.14,1.81-1.92,3-.66-1.11-1.1-1.84-1.53-2.58q-10.64-18.36-21.24-36.72c-.76-1.31-1.45-2-3.15-1.66-3.11.67-6.31.92-9.42,1.58-8.62,1.84-17,4.29-24.34,9.5-5.78,4.13-9.51,9.45-8.82,17C14.91,163.91,15.37,165.62,15.69,167.34Zm115-81.42c.13-24.68-19.92-45.12-44.44-45.29-25-.18-45.48,19.83-45.62,44.58-.14,25.05,19.81,45.5,44.56,45.65A45.09,45.09,0,0,0,130.66,85.92Zm28.13,27.64a39.14,39.14,0,1,0,39,39.31A39,39,0,0,0,158.79,113.56Z"/><path class="cls-2" d="M71.74,213.44a150.46,150.46,0,0,1-32.55-19.73c-4.42-3.57-8.62-7.4-12.92-11.11-4.51-4.4-8.41-9.23-10.58-15.26-.32-1.72-.78-3.43-.94-5.16-.69-7.53,3-12.85,8.82-17,7.3-5.21,15.72-7.66,24.34-9.5,3.11-.66,6.31-.91,9.42-1.58,1.7-.37,2.39.35,3.15,1.66q10.58,18.39,21.24,36.72c.43.74.87,1.47,1.53,2.58.78-1.23,1.38-2.11,1.92-3,6.56-11.25,13.22-22.44,19.59-33.79,1.47-2.63,3.19-3.73,6-3.49.79.07,1.59,0,2.63,0-6.14,17.7-4.23,34.26,7.63,48.79s27.56,19.7,45.89,17.28c1.48,4.43.85,6-3,8.14a108.58,108.58,0,0,1-36.13,12.45c-5.55.83-11.25.57-16.89.75-9.53.29-18.66-1.92-27.71-4.6-.46-.14-.92-.23-1.39-.34Z"/><path class="cls-2" d="M130.66,85.92a45.09,45.09,0,0,1-45.5,44.94c-24.75-.15-44.7-20.6-44.56-45.65.14-24.75,20.62-44.76,45.62-44.58C110.74,40.8,130.79,61.24,130.66,85.92Z"/><path class="cls-3" d="M71.74,213.44l10.06,3.8c-.41.12-.91.44-1.24.31-2.75-1-5.47-2.11-8.17-3.23C72.1,214.2,72,213.74,71.74,213.44Z"/><path class="cls-4" d="M159.88,175.37h-2.5a5.58,5.58,0,0,1-.17-1.45c.43-2.5-.54-3.52-3.08-4.11-5.26-1.21-7.76-5.11-7.49-10.87H150c1.75,6.34,2.48,7.13,7.15,7.39,0-4.29.07-8.58-.1-12.86,0-.53-1.32-1.18-2.14-1.47-4.15-1.49-7.08-4-7.48-8.67-.47-5.52,2.09-9,7.49-10.25l2-.45.45-2.47,2.35-.17.41,2.57c3,.62,6.27,1.12,8,4.06,1,1.71,1.45,3.75,2.27,6h-4.07c-1-4.46-2.18-5.63-6.35-5.9,0,4,0,7.91.08,11.86,0,.42,1,1,1.7,1.19,3.18,1,6.2,2.16,7.93,5.29a10.3,10.3,0,0,1-6.93,15.11c-.85.18-1.71.32-2.7.51C160,172.24,160,173.72,159.88,175.37Zm.26-9c4.37.11,6.64-1.79,6.91-5.62.31-4.2-1.9-6.5-6.91-7.08Zm-2.95-17.77V136.8c-3.15-.11-5.54,1.58-5.93,4.08C150.61,145,152.1,147,157.19,148.56Z"/><circle class="cls-5" cx="158.83" cy="152.68" r="39.19"/></g></g></svg>