<svg xmlns="http://www.w3.org/2000/svg" viewBox="0 0 224.08 224.22"><defs><style>.cls-1{fill:#f9f9f9;}.cls-2{fill:#4a94ef;}.cls-3{fill:#a2c7f4;}.cls-4{fill:#6ab6fe;}</style></defs><g id="Layer_2" data-name="Layer 2"><g id="Layer_1-2" data-name="Layer 1"><path class="cls-1" d="M112,0C172.8-.88,225.63,50.51,224,115.21c-1.41,57.66-49.63,111.42-116.71,108.93A111.91,111.91,0,0,1,0,111.63C0,78.93,12.84,51.29,36.83,29,54.28,12.72,82.06-.71,112,0Zm.69,185.54c-.73-1.12-1.22-1.85-1.67-2.59-5.55-9.06-11.06-18.15-16.67-27.17a3.85,3.85,0,0,0-2.49-1.74c-4.51-.28-9.1-.82-13.55-.32-12.52,1.4-21.27,7.94-25.43,20.15-2.34,6.86-2.63,13.94-2.23,21.07a5.89,5.89,0,0,0,1.64,3.66,89.56,89.56,0,0,0,25.26,16.69c17.11,7.62,34.73,9.52,53,4.72C146,216,159.31,208,171.4,197.83a5.86,5.86,0,0,0,1.72-3.91,67.3,67.3,0,0,0-.36-11c-1.75-13.16-8.53-23-20.13-29.46a5.1,5.1,0,0,0-2.71-.61c-6,.36-11.92.88-17.89,1.22a3.09,3.09,0,0,0-3,1.84c-2,3.75-4,7.44-6.09,11.14Zm33.83-70.44a34.6,34.6,0,1,0-34.74,34.66A34.7,34.7,0,0,0,146.53,115.13ZM50.21,83.83c-2.75-4.52-5.21-8.62-7.74-12.67-.47-.76-1.17-1.79-1.9-1.92-7.63-1.33-15.95,1.06-18.46,10.48-1.93,7.29-1,10.08,5.21,14.2l1,.65a37.54,37.54,0,0,0,28.05,5.72C64.23,98.83,71,94.88,77.06,89.85a3.84,3.84,0,0,0,1.27-2.39c.33-5.1-.75-9.9-4-13.89-2.4-2.91-5.05-5.64-9.46-4.85a23.46,23.46,0,0,1-4.5.4,2.9,2.9,0,0,0-3,1.81C55.12,75.14,52.74,79.28,50.21,83.83Zm-.33-16.6a16.08,16.08,0,1,0-16-16.15A16,16,0,0,0,49.88,67.23Zm17.37,77.49c-8.61-2.44-16-5.6-21.51-12.3l1.65,6.47c-6.41-.52-12.19-1.7-17.16-5.39-6.59-4.88-7.4-13-1.92-19a33.94,33.94,0,0,1,3.27-2.8l-.33-.66c-3,1.18-6.18,2-9,3.61C16,118.14,13.8,125,17,131.06a27.34,27.34,0,0,0,5.68,7c4.73,4.3,10.52,6.89,16.39,9.23,2.7,1.08,5.47,2,8.3,3l-2.09,5.31C51.55,150.19,58.79,147.05,67.25,144.72ZM45.76,131.21l-.17-.38c-.05.06-.14.12-.13.17a2,2,0,0,0,.14.39Z"/><path class="cls-2" d="M112.7,185.57,123,167.05c2-3.7,4.13-7.39,6.09-11.14a3.09,3.09,0,0,1,3-1.84c6-.34,11.93-.86,17.89-1.22a5.1,5.1,0,0,1,2.71.61c11.6,6.45,18.38,16.3,20.13,29.46a67.3,67.3,0,0,1,.36,11,5.86,5.86,0,0,1-1.72,3.91C159.31,208,146,216,130.54,220c-18.25,4.8-35.87,2.9-53-4.72A89.56,89.56,0,0,1,52.3,198.63,5.89,5.89,0,0,1,50.66,195c-.4-7.13-.11-14.21,2.23-21.07,4.16-12.21,12.91-18.75,25.43-20.15,4.45-.5,9,0,13.55.32a3.85,3.85,0,0,1,2.49,1.74c5.61,9,11.12,18.11,16.67,27.17C111.48,183.72,112,184.45,112.7,185.57Z"/><path class="cls-2" d="M146.53,115.13A34.6,34.6,0,1,1,112,80.26,34.55,34.55,0,0,1,146.53,115.13Z"/><path class="cls-3" d="M50.21,83.83c2.53-4.55,4.91-8.69,7.14-12.9a2.9,2.9,0,0,1,3-1.81,23.46,23.46,0,0,0,4.5-.4c4.41-.79,7.06,1.94,9.46,4.85,3.29,4,4.37,8.79,4,13.89a3.84,3.84,0,0,1-1.27,2.39c-6.1,5-12.83,9-20.68,10.44a37.54,37.54,0,0,1-28.05-5.72l-1-.65c-6.18-4.12-7.14-6.91-5.21-14.2,2.51-9.42,10.83-11.81,18.46-10.48.73.13,1.43,1.16,1.9,1.92C45,75.21,47.46,79.31,50.21,83.83Z"/><path class="cls-3" d="M49.88,67.23A16.08,16.08,0,1,1,66,51.11,16,16,0,0,1,49.88,67.23Z"/><path class="cls-4" d="M67.25,144.72c-8.46,2.33-15.7,5.47-21.93,10.92l2.09-5.31c-2.83-1-5.6-2-8.3-3-5.87-2.34-11.66-4.93-16.39-9.23a27.34,27.34,0,0,1-5.68-7c-3.24-6-1-12.92,5.23-16.4,2.8-1.56,6-2.43,9-3.61l.33.66a33.94,33.94,0,0,0-3.27,2.8c-5.48,6-4.67,14.11,1.92,19,5,3.69,10.75,4.87,17.16,5.39l-1.65-6.47C51.22,139.12,58.64,142.28,67.25,144.72Z"/><path class="cls-4" d="M45.76,131.21l-.16.18a2,2,0,0,1-.14-.39c0-.05.08-.11.13-.17Z"/></g></g></svg>