<svg xmlns="http://www.w3.org/2000/svg" viewBox="0 0 224.1 224.33"><defs><style>.cls-1{fill:#f9f9f9;}.cls-2{fill:#4b94ef;}.cls-3{fill:#5d9ef0;}.cls-4{fill:#579bf0;}.cls-5{fill:#569bf0;}.cls-6{fill:#6da7f1;}.cls-7{fill:#73abf1;}.cls-8{fill:#f7f8f9;}.cls-9{fill:#f6f8f9;}</style></defs><g id="Layer_2" data-name="Layer 2"><g id="Layer_1-2" data-name="Layer 1"><path class="cls-1" d="M118.26,0c54.27-.81,107.61,50.32,105.8,115.71-1.58,57.13-49.7,111.19-117.09,108.51A112,112,0,0,1,0,111.14c.18-32.79,13-60.6,37.42-82.6C58.63,9.44,83.66-.12,118.26,0Zm27.23,173-32.09-.09q0-4.81-.05-9.65c1.75,0,3.5.08,5.25,0a5,5,0,0,0,5.14-5.16c.07-1.75.06-3.51,0-5.26-.12-3.12-2-5.11-5.11-5.18q-6.45-.15-12.9,0c-3.09.07-5,2.07-5.09,5.19-.07,1.75-.08,3.51,0,5.27a5,5,0,0,0,5.14,5.14c2.07.07,4.14,0,6.21,0,0,3.23,0,6.46,0,9.68l-34,.07c-1.45-.36-1.31.6-1.3,1.52,0,2.13,0,4.26,0,6.63-2,0-3.63-.07-5.28,0A4.92,4.92,0,0,0,66.49,186q-.13,2.88,0,5.75a4.73,4.73,0,0,0,4.6,4.89c4.53.17,9.08.17,13.62,0,3-.1,4.69-2.11,4.74-5.19,0-1.6,0-3.19,0-4.79,0-3.75-1.81-5.54-5.57-5.6-2,0-3.92,0-6,0v-7.26h34v7.26c-2.24,0-4.22,0-6.19,0a5,5,0,0,0-5.13,4.92,52.34,52.34,0,0,0,0,5.74,4.92,4.92,0,0,0,5.08,5q6.45.15,12.91,0c3.09-.06,5-2.06,5.13-5.17.07-1.75.08-3.51,0-5.27-.14-3.24-2.08-5.11-5.33-5.19-1.65,0-3.29,0-5,0v-7.24l32.1,0c.11,2.35.23,4.71.36,7.28-2.29,0-4.12-.09-5.94,0-3.21.18-4.93,2-5,5.23,0,1.68,0,3.36,0,5,0,3.21,1.75,5.21,4.91,5.31,4.38.14,8.78.13,13.16,0,3-.08,4.8-2.09,4.91-5.12,0-1.52,0-3,0-4.56,0-4-1.85-5.88-5.83-5.92-1.72,0-3.43,0-5.27,0,0-2.57.07-4.73-.06-6.88C146.72,173.79,145.93,173.38,145.49,173ZM112.65,104.1a10.73,10.73,0,0,1-.8-.92q-5-8.16-10-16.35c-5.63-9.27-5.64-9.39-16.43-8.42C78.3,79,72.1,81.75,67.78,87.75c-5.41,7.52-5.91,16.19-5.46,25a3.33,3.33,0,0,0,1.38,2.1c4.87,3.6,9.56,7.52,14.76,10.56A62.28,62.28,0,0,0,114,134.3c17.66-1,32.61-8.75,46-19.93a4.07,4.07,0,0,0,1.39-2.33c1.61-12.1-2.84-26-15.63-33.26a7,7,0,0,0-3.59-.87c-4.7.2-9.4.54-14.08,1a3.22,3.22,0,0,0-2.14,1.42c-1.73,2.87-3.29,5.85-4.91,8.79C118.23,94,115.49,99,112.65,104.1Zm-.76-85.19c-15.69.64-27.85,12.42-28,28.22A28.18,28.18,0,0,0,112,75.39c15.33,0,28.2-12.8,28.05-28.1C139.87,31.26,127.52,19.48,111.89,18.91Z"/><path class="cls-2" d="M112.65,104.1C115.49,99,118.23,94,121,89.1c1.62-2.94,3.18-5.92,4.91-8.79A3.22,3.22,0,0,1,128,78.89c4.68-.44,9.38-.78,14.08-1a7,7,0,0,1,3.59.87C158.47,86,162.92,99.94,161.31,112a4.07,4.07,0,0,1-1.39,2.33c-13.36,11.18-28.31,18.9-46,19.93a62.28,62.28,0,0,1-35.49-8.88c-5.2-3-9.89-7-14.76-10.56a3.33,3.33,0,0,1-1.38-2.1c-.45-8.82,0-17.49,5.46-25,4.32-6,10.52-8.71,17.63-9.34,10.79-1,10.8-.85,16.43,8.42q5,8.19,10,16.35A10.73,10.73,0,0,0,112.65,104.1Z"/><path class="cls-2" d="M111.89,18.91c15.63.57,28,12.35,28.14,28.38.15,15.3-12.72,28.09-28,28.1A28.18,28.18,0,0,1,83.85,47.13C84,31.33,96.2,19.55,111.89,18.91Z"/><path class="cls-3" d="M113.39,173.86v7.24c1.74,0,3.38,0,5,0,3.25.08,5.19,1.95,5.33,5.19.08,1.76.07,3.52,0,5.27-.12,3.11-2,5.11-5.13,5.17q-6.45.15-12.91,0a4.92,4.92,0,0,1-5.08-5,52.34,52.34,0,0,1,0-5.74,5,5,0,0,1,5.13-4.92c2-.06,3.95,0,6.19,0v-8.21c0-3.22,0-6.45,0-9.68h1.36q0,4.83.05,9.65Zm-1.28,20.74c2.16,0,4.31,0,6.46,0,1.93,0,3-.93,3-2.9s0-3.68,0-5.52a2.67,2.67,0,0,0-3-2.94c-4.31,0-8.61,0-12.92,0-2,0-2.91,1.08-2.92,3v5.28c0,2.09,1.09,3.06,3.13,3Z"/><path class="cls-4" d="M77.93,173.85v7.26c2,0,4,0,6,0,3.76.06,5.53,1.85,5.57,5.6,0,1.6,0,3.19,0,4.79,0,3.08-1.72,5.09-4.74,5.19-4.54.16-9.09.16-13.62,0a4.73,4.73,0,0,1-4.6-4.89q-.13-2.86,0-5.75a4.92,4.92,0,0,1,4.86-4.91c1.65-.09,3.31,0,5.28,0,0-2.37,0-4.5,0-6.63,0-.92-.15-1.88,1.3-1.52Zm-.13,20.76c2.23,0,4.47,0,6.7,0a2.74,2.74,0,0,0,3-3c.07-1.75,0-3.51,0-5.27a3,3,0,0,0-3.11-3.23c-4.22-.11-8.45-.09-12.68,0a3.09,3.09,0,0,0-3.3,3.34c0,1.67-.07,3.36,0,5,.12,2.05,1.15,3.22,3.37,3.15C73.81,194.56,75.81,194.61,77.8,194.61Z"/><path class="cls-5" d="M145.49,173c.44.42,1.23.83,1.26,1.27.13,2.15.06,4.31.06,6.88,1.84,0,3.55,0,5.27,0,4,0,5.8,1.88,5.83,5.92,0,1.52,0,3,0,4.56-.11,3-1.91,5-4.91,5.12-4.38.13-8.78.14-13.16,0-3.16-.1-4.87-2.1-4.91-5.31,0-1.67,0-3.35,0-5,.06-3.2,1.78-5.05,5-5.23,1.82-.11,3.65,0,5.94,0-.13-2.57-.25-4.93-.36-7.28Zm.92,21.66h2.16c7.31.06,7.54.78,7.39-8,0-2.24-1.22-3.46-3.39-3.5-4.14-.08-8.29-.1-12.44,0-2.16.05-3.34,1.28-3.28,3.56,0,1.52,0,3,0,4.55.06,2.4,1,3.34,3.32,3.4C142.27,194.65,144.34,194.62,146.41,194.62Z"/><path class="cls-5" d="M113.35,163.22H112c-2.07,0-4.14.09-6.21,0a5,5,0,0,1-5.14-5.14c-.08-1.76-.07-3.52,0-5.27.11-3.12,2-5.12,5.09-5.19q6.45-.15,12.9,0c3.1.07,5,2.06,5.11,5.18.06,1.75.07,3.51,0,5.26a5,5,0,0,1-5.14,5.16C116.85,163.3,115.1,163.23,113.35,163.22Zm-1.17-1.94h0c2,0,4,.06,6,0,2.54-.1,3.42-1,3.47-3.54,0-1.67,0-3.35,0-5s-.89-2.92-2.73-2.94q-6.69-.08-13.39,0c-1.84,0-2.73,1.12-2.75,2.93s0,3.51,0,5.27c-.07,2.26,1.21,3.2,3.22,3.29S110.11,161.28,112.18,161.28Z"/><path class="cls-6" d="M77.93,173.85V173l34-.07v1Z"/><path class="cls-7" d="M145.49,173v.88l-32.1,0v-1Z"/><path class="cls-8" d="M112.11,194.6h-6.22c-2,0-3.13-1-3.13-3v-5.28c0-1.94,1-3,2.92-3,4.31,0,8.61,0,12.92,0a2.67,2.67,0,0,1,3,2.94c0,1.84,0,3.68,0,5.52s-1.1,2.89-3,2.9C116.42,194.61,114.27,194.6,112.11,194.6Z"/><path class="cls-9" d="M77.8,194.61c-2,0-4-.05-6,0-2.22.07-3.25-1.1-3.37-3.15-.1-1.67-.07-3.36,0-5a3.09,3.09,0,0,1,3.3-3.34c4.23-.09,8.46-.11,12.68,0a3,3,0,0,1,3.11,3.23c0,1.76,0,3.52,0,5.27a2.74,2.74,0,0,1-3,3C82.27,194.62,80,194.61,77.8,194.61Z"/><path class="cls-9" d="M146.41,194.62c-2.07,0-4.14,0-6.22,0-2.34-.06-3.26-1-3.32-3.4,0-1.51,0-3,0-4.55-.06-2.28,1.12-3.51,3.28-3.56,4.15-.1,8.3-.08,12.44,0,2.17,0,3.35,1.26,3.39,3.5.15,8.8-.08,8.08-7.39,8Z"/><path class="cls-8" d="M112.18,161.28c-2.07,0-4.15.08-6.22,0s-3.29-1-3.22-3.29c.05-1.76,0-3.51,0-5.27s.91-2.91,2.75-2.93q6.69-.08,13.39,0c1.84,0,2.71,1.14,2.73,2.94s0,3.36,0,5c-.05,2.5-.93,3.44-3.47,3.54-2,.07-4,0-6,0Z"/></g></g></svg>