<svg xmlns="http://www.w3.org/2000/svg" viewBox="0 0 224.17 224.25"><defs><style>.cls-1{fill:#f9f9f9;}.cls-2{fill:#4a94ef;}.cls-3{fill:#f0f3f7;}.cls-4{fill:#5499f0;}.cls-5{fill:#5097ef;}.cls-6{fill:none;stroke:#60a1f1;stroke-miterlimit:10;stroke-width:2px;}</style></defs><g id="Layer_2" data-name="Layer 2"><g id="Layer_1-2" data-name="Layer 1"><path class="cls-1" d="M15.69,167.43a25.71,25.71,0,0,1-3.11-4,102,102,0,0,1-10.71-31.8A127.89,127.89,0,0,1,0,111.06,112.42,112.42,0,0,1,38.06,27.69a108.13,108.13,0,0,1,34.74-21C81.1,3.62,89.62,1.19,98.4.47A180.89,180.89,0,0,1,122.93.36c14.58.81,28.2,5.32,41.08,12.1a112.91,112.91,0,0,1,23.85,17,112.67,112.67,0,0,1,34.31,61.8A107.6,107.6,0,0,1,224,116.42a112.65,112.65,0,0,1-8.62,38.69,109.64,109.64,0,0,1-16,27.07,116.74,116.74,0,0,1-28.3,25.09,114.17,114.17,0,0,1-31.94,13.58,107.37,107.37,0,0,1-33.8,3.16,110.08,110.08,0,0,1-48.85-14.72,116.86,116.86,0,0,1-26.77-21.4,36.3,36.3,0,0,1-3.44-5.2c4.3,3.71,8.5,7.55,12.92,11.11a150.54,150.54,0,0,0,32.55,19.75,15.35,15.35,0,0,0,9.92,4s.1-.11.15-.17c.46.11.93.2,1.39.34,9,2.68,18.17,4.89,27.71,4.6,5.63-.18,11.34.08,16.89-.75a108.8,108.8,0,0,0,36.13-12.45c3.87-2.12,4.5-3.71,3-8.15-18.33,2.43-34.07-2.81-45.89-17.29s-13.78-31.1-7.63-48.81c-1,0-1.84,0-2.63,0-2.83-.25-4.55.86-6,3.48-6.38,11.36-13,22.56-19.59,33.82-.54.92-1.14,1.81-1.92,3-.67-1.12-1.11-1.85-1.54-2.59q-10.64-18.36-21.24-36.73c-.75-1.31-1.45-2-3.15-1.66-3.11.66-6.31.92-9.42,1.58-8.62,1.84-17,4.29-24.33,9.5-5.79,4.14-9.52,9.45-8.83,17C14.91,164,15.37,165.7,15.69,167.43Zm69.75-36.5A45.14,45.14,0,1,0,40.6,85.53,45.11,45.11,0,0,0,85.44,130.93Zm73.24-17.31a39.16,39.16,0,1,0,39.08,39.2A39,39,0,0,0,158.68,113.62Z"/><path class="cls-2" d="M71.74,213.55A150.54,150.54,0,0,1,39.19,193.8c-4.42-3.56-8.62-7.4-12.92-11.11-4.51-4.4-8.41-9.23-10.58-15.26-.32-1.73-.78-3.44-.94-5.17-.69-7.54,3-12.85,8.83-17,7.3-5.21,15.71-7.66,24.33-9.5,3.11-.66,6.31-.92,9.42-1.58,1.7-.37,2.4.35,3.15,1.66q10.58,18.39,21.24,36.73c.43.74.87,1.47,1.54,2.59.78-1.23,1.38-2.12,1.92-3,6.56-11.26,13.21-22.46,19.59-33.82,1.47-2.62,3.19-3.73,6-3.48.79.06,1.59,0,2.63,0-6.15,17.71-4.23,34.28,7.63,48.81s27.56,19.72,45.89,17.29c1.49,4.44.86,6-3,8.15a108.8,108.8,0,0,1-36.13,12.45c-5.55.83-11.26.57-16.89.75-9.54.29-18.67-1.92-27.71-4.6-.46-.14-.93-.23-1.39-.34Z"/><path class="cls-2" d="M85.44,130.93a45.14,45.14,0,1,1,45.23-45.25A45.13,45.13,0,0,1,85.44,130.93Z"/><path class="cls-3" d="M71.74,213.55l10.07,3.8c0,.06-.1.18-.15.17A15.35,15.35,0,0,1,71.74,213.55Z"/><path class="cls-4" d="M145.69,143.84v24.4H170v-2.53c0-4.72-.08-9.44.08-14.15,0-.83,1.1-1.61,1.69-2.41.64.67,1.82,1.33,1.84,2,.14,6.23.1,12.47,0,18.71,0,1.49-.82,2.28-2.44,2.28q-13.29-.06-26.56,0c-1.85,0-2.54-.79-2.53-2.62q.08-13.42,0-26.86c0-1.9.87-2.55,2.62-2.54,5.9,0,11.8,0,17.71,0,1.4,0,2.85.32,2.58,2-.12.71-1.65,1.65-2.56,1.68-4.54.17-9.09.08-13.64.07Z"/><path class="cls-5" d="M176.21,140.53l-15.82,15.66c-.45.45-.85,1.12-1.39,1.27-.75.2-1.88.29-2.32-.13a2.56,2.56,0,0,1-.08-2.28,7,7,0,0,1,1.73-1.94c5-5,10-9.88,14.79-15.43h-3.37c-1.25,0-2.45-.36-2.18-1.79a2.71,2.71,0,0,1,2.06-1.54c2.61-.19,5.25,0,7.88-.09,1.59,0,2.4.59,2.39,2.22,0,2.56.16,5.14-.1,7.67-.09.88-1.25,1.66-1.92,2.48a9.64,9.64,0,0,1-1.6-2.52A14.86,14.86,0,0,1,176.21,140.53Z"/><circle class="cls-6" cx="158.7" cy="152.78" r="39.07"/></g></g></svg>