<svg xmlns="http://www.w3.org/2000/svg" viewBox="0 0 216.74 151.3"><defs><style>.cls-1{fill:#4c94ef;}.cls-2{fill:#4c95ef;}.cls-3{fill:#fdfdfe;}</style></defs><g id="Layer_2" data-name="Layer 2"><g id="Layer_1-2" data-name="Layer 1"><path class="cls-1" d="M13.4,29.1V11.19c0-3.59.52-4.45,3.91-5.68A92.35,92.35,0,0,1,44.13.17,90.79,90.79,0,0,1,92.71,10.91,121.17,121.17,0,0,1,106,19.43c1.8,1.28,2.86,1.44,4.66,0A92.27,92.27,0,0,1,142.73,3.4a93.3,93.3,0,0,1,45.82-1c3.91.86,7.71,2.21,11.55,3.38,2.3.7,3.23,2.28,3.2,4.7-.08,6.07,0,12.14,0,18.66h7.91c4.4,0,5.45,1.07,5.46,5.53q0,44.13.09,88.27c0,7.84-.05,15.67-.09,23.51,0,3.13-1.51,4.8-4.64,4.83q-10.53.12-21.07,0c-4.78-.05-9.56-.44-14.34-.42q-68.46.16-136.93.42c-6.57,0-13.15-.37-19.73-.39-4.77,0-9.54.32-14.31.39-4.22.06-5.62-1.38-5.62-5.54V40.6c0-2.4,0-4.79,0-7.19,0-2.87,1.38-4.24,4.27-4.3S10.16,29.1,13.4,29.1ZM20.68,122c14.54-3.55,28.85-3.36,43.16-.62s27.56,8.06,40.7,15.34v-4.59c0-6.08,0-12.16,0-18.24,0-2.76,1.36-4.43,3.59-4.54,2.06-.11,3.62,1.64,3.82,4.33,0,.63,0,1.28,0,1.92q0,9.24,0,18.48v2.72c26.51-14.51,54-21.5,84-14.93V76q0-30.84,0-61.68c0-1.21.19-2.43-1.45-2.82-4.15-1-8.24-2.35-12.45-3a92.65,92.65,0,0,0-27.62-.14A85.22,85.22,0,0,0,113.26,26.7,4.16,4.16,0,0,0,112,29.55c-.14,4.47,0,9-.12,13.44-.08,2.75-1.64,4.33-3.82,4.25s-3.54-1.74-3.55-4.53c0-4.32-.09-8.64,0-13A4.16,4.16,0,0,0,102.7,26C90.5,16.61,77,10.42,61.67,8.3a90.4,90.4,0,0,0-39.19,3.1,2.21,2.21,0,0,0-1.84,2.54c.08,7.42,0,14.84,0,22.26V122Zm95.26,21.21.22.67h93.39V36.58H203.3v3.33q0,42.84,0,85.69c0,4.14-2,5.79-5.61,4.59-12.63-4.23-25.6-4.28-38.54-2.48-14.33,2-27.78,6.94-40.5,13.84C117.72,142.05,116.84,142.62,115.94,143.16Zm-15.43.72.14-.59a11.51,11.51,0,0,0-1.38-1.06c-16.71-9-34.25-15.08-53.47-15.41-9.39-.16-18.62.54-27.59,3.56-2.43.82-4.47-.65-4.76-3.2a19.41,19.41,0,0,1,0-2.16V36.58h-6v107.3Z"/><path class="cls-2" d="M85.23,76q0-12.72,0-25.45c0-4.21,2.64-5.81,6.28-3.72q22.41,12.87,44.78,25.82c3.07,1.78,3.11,5,0,6.84q-22.54,13.11-45.15,26.12c-3.14,1.81-5.92,0-5.93-3.68Q85.21,89,85.23,76Zm7.39,20.28,34.94-20.2L92.62,56Z"/><path class="cls-3" d="M92.62,96.31V56l34.94,20.12Z"/></g></g></svg>