<svg xmlns="http://www.w3.org/2000/svg" viewBox="0 0 193.22 207.22"><defs><style>.cls-1{fill:#308ce2;}.cls-2{fill:#2c8ae1;}.cls-3{fill:#2d8ae2;}.cls-4{fill:#348ee2;}</style></defs><g id="Layer_2" data-name="Layer 2"><g id="Layer_1-2" data-name="Layer 1"><path class="cls-1" d="M23.37,175.86a4.91,4.91,0,0,0,.2-.52c.63-7.49.63-7.48-6.79-7.48-4.16,0-8.31,0-12.46,0-3,0-4.26-1.24-4.28-4.22q-.06-11.4,0-22.8c0-3.39,1.28-4.54,4.73-4.55,5.59,0,11.18-.07,16.76,0,1.72,0,2.21-.56,2.16-2.2-.1-3.18,0-6.37,0-9.76-1-.06-1.75-.15-2.51-.16-5.43,0-10.86,0-16.29,0-3.28,0-4.54-1.22-4.55-4.43q0-18,0-36c0-3.1,1.28-4.41,4.35-4.43,5.35,0,10.7,0,16.05,0h3.21V70.5c0-2.48,0-5,0-7.44,0-3.41,1.19-4.57,4.64-4.57l61.8,0H92.7V44.94H52.39c-3.68,0-4.93-1.21-4.93-4.84q0-17.64,0-35.29C47.46,1.31,48.74,0,52.2,0h88.86c3.47,0,4.71,1.29,4.71,4.84q0,17.76,0,35.53c0,3.62-1.23,4.84-4.94,4.84q-19,0-38.08,0h-2.27V58.7h63.14c4.83,0,5.68.86,5.68,5.75V79.57h2.83c5.51,0,11,0,16.53,0,2.85,0,4.22,1.3,4.23,4q0,18.38,0,36.73c0,2.89-1.3,3.89-4.16,3.86-6.37-.07-12.74,0-19.27,0v12c.82.05,1.66.13,2.49.13h16.29c3.29,0,4.64,1.35,4.65,4.67q0,11.28,0,22.56c0,3.06-1.31,4.33-4.42,4.34-5.51,0-11,0-16.53,0h-2.48v8.06c5.42,0,10.74.14,16.06,0,7-.22,7.7.32,7.68,7.33,0,6.4,0,12.8,0,19.21,0,3.52-1.24,4.77-4.74,4.77H143.69c-3.9,0-5-1.07-5-5q0-11,0-22.09c0-3.11,1.31-4.28,4.42-4.25,6.29,0,12.57,0,19,0v-8.07H158.3c-5.11,0-10.22,0-15.33,0-3,0-4.25-1.24-4.26-4.21q0-11.52,0-23c0-3.11,1.28-4.3,4.43-4.31,5.51,0,11,0,16.53,0h2.46v-12c-.61,0-1.29-.13-2-.13-5.75,0-11.49,0-17.24,0-2.95,0-4.21-1.28-4.22-4.24q0-18.14,0-36.25c0-3.15,1.2-4.36,4.36-4.38,6.29,0,12.59,0,19.05,0V65.89H100.45V79.57c5.6,0,11.08,0,16.57,0,6.53,0,6.84.31,6.84,6.94q0,16.44,0,32.89c0,3.61-1.14,4.76-4.69,4.76H100.52v11.92c.53,0,1.14.16,1.74.17,5.67,0,11.34,0,17,0,3.22,0,4.56,1.3,4.58,4.48q0,11.4,0,22.81c0,3.05-1.3,4.27-4.46,4.28-6.22,0-12.44,0-18.87,0v8.08h17c.8,0,1.6-.09,2.39,0,2.68.17,3.94,1.41,4,4.09q.06,11.64,0,23.28c0,2.61-1.4,3.94-4.06,4q-23.12,0-46.23,0c-2.9,0-4.21-1.35-4.22-4.3q0-11.4,0-22.81c0-3,1.54-4.26,4.81-4.23,5.67.07,11.34.08,17,.12h1.57v-8.12H90.21c-5.43,0-10.86,0-16.29,0-3.42,0-4.56-1.18-4.56-4.66q0-11,0-22.09c0-3.69,1.17-4.82,4.91-4.82H92.68V124.34c-.49,0-1.09-.14-1.7-.14-5.74,0-11.49,0-17.24,0-3.13,0-4.38-1.24-4.38-4.34q0-18.13,0-36.25c0-3,1.26-4.26,4.24-4.28,6.3,0,12.6,0,19.11,0V65.9H31.11V79.43c.7,0,1.39.13,2.08.13,5.67,0,11.33,0,17,0,3,0,4.3,1.22,4.31,4.16q0,18.12,0,36.25c0,2.93-1.3,4.16-4.29,4.17-6.3,0-12.6,0-19.09,0V136.1c.58.05,1.18.15,1.79.16,5.67,0,11.33,0,17,0,3.24,0,4.58,1.28,4.59,4.44q0,11.4,0,22.81c0,3.12-1.23,4.3-4.4,4.31-5.43,0-10.86,0-16.29,0H31.09V176c3.78,0,7.49,0,11.21,0,2.47,0,5,0,7.42-.11,3.41-.09,4.77,1.11,4.78,4.44q0,11.28,0,22.57c0,3.13-1.22,4.32-4.36,4.32H4.62c-3.35,0-4.61-1.3-4.62-4.65V181.2c0-4.26,1.18-5.38,5.43-5.35C11.4,175.9,17.36,175.86,23.37,175.86ZM54.92,37.56h83.32V7.23H54.92Zm130.75,79.77V87H146v30.32ZM7.18,86.9V117H47.06V86.9ZM76.51,117H116.4V87H76.51Zm.09,66.74v16.9h40c0-5.32.05-10.43-.07-15.53,0-.47-1-1.26-1.65-1.31-2-.17-4-.06-6-.06Zm-29.35.13H7.2V200.7a8.37,8.37,0,0,0,1.06.17H33.37c4,0,8,.07,12-.05.65,0,1.83-.86,1.84-1.34C47.31,194.37,47.25,189.27,47.25,183.89ZM7.17,160.64H47.06V144H7.17ZM116.45,144H76.55v16.66h39.9Zm29.49,39.9v16.67h39.68V183.91Zm0-23.23h39.76V144H145.92Z"/><path class="cls-2" d="M96.11,25.79q-11.85,0-23.7,0c-2.81,0-4.55-1.38-4.49-3.49s1.69-3.39,4.35-3.39q24.06,0,48.11,0c3,0,4.78,1.7,4.26,4.08-.49,2.21-2.06,2.81-4.12,2.8-8.14,0-16.28,0-24.41,0Z"/><path class="cls-3" d="M165.19,105.58c-1.75,0-3.51.07-5.25,0a3.24,3.24,0,0,1-3.43-3.25,3.35,3.35,0,0,1,3.38-3.57c3.58-.09,7.17-.08,10.75,0a3.42,3.42,0,1,1,.05,6.84C168.86,105.64,167,105.59,165.19,105.58Z"/><path class="cls-4" d="M27.35,105.42c-1.67,0-3.34,0-5,0-2.4-.07-4-1.53-3.92-3.58a3.57,3.57,0,0,1,3.82-3.43c3.34-.07,6.68-.06,10,0,2.44,0,4,1.51,3.91,3.55s-1.61,3.41-4.05,3.47C30.53,105.45,28.94,105.42,27.35,105.42Z"/><path class="cls-4" d="M96.24,105.42c-1.76,0-3.51,0-5.27,0-2.29-.08-3.8-1.47-3.84-3.44a3.55,3.55,0,0,1,3.7-3.57c3.59-.07,7.18-.08,10.77,0a3.49,3.49,0,0,1,3.62,3.4,3.7,3.7,0,0,1-3.72,3.6c-.88.06-1.76,0-2.63,0Z"/></g></g></svg>