<svg xmlns="http://www.w3.org/2000/svg" viewBox="0 0 190.7 205.49"><defs><style>.cls-1{fill:#2b89e1;}.cls-2{fill:#2c8ae1;}.cls-3{fill:#2d8ae2;}.cls-4{fill:#2c89e1;}.cls-5{fill:#f9fbfd;}</style></defs><g id="Layer_2" data-name="Layer 2"><g id="Layer_1-2" data-name="Layer 1"><path class="cls-1" d="M135.41,94.68a55.36,55.36,0,0,1,55.29,55.39c0,30.41-24.85,55.38-55.12,55.42a55.41,55.41,0,0,1-.17-110.81Zm-10.25,70.87c-5.91-5.93-11.58-11.64-17.27-17.34-2.07-2.07-4.19-2.3-5.86-.71s-1.55,3.72.55,5.84q9.63,9.69,19.29,19.33c2.41,2.41,4.1,2.4,6.53,0q7.56-7.53,15.07-15.09,12.51-12.54,25-25.1c1.95-2,2-4.05.28-5.69-1.54-1.47-3.63-1.3-5.49.5-1.55,1.5-3.06,3-4.58,4.57Z"/><path class="cls-2" d="M175.78,91.58H161.26V88.71q0-35,0-70.07c0-3.9-.15-4.05-4-4.05H18.12c-3.41,0-3.67.24-3.67,3.68V171.74c.79-.58,1.29-.88,1.71-1.27,8.73-8,17.43-16,26.22-23.89a6.26,6.26,0,0,1,3.75-1.48C53.86,145,61.59,145,69.5,145v14.44c-5.21,0-10.38.19-15.53-.07a9.54,9.54,0,0,0-7.61,2.94Q32.83,175.06,19,187.4a15.61,15.61,0,0,1-6.6,3.59C6.19,192.37,1,188,.15,181.24A24.73,24.73,0,0,1,0,178.13q0-80,0-160C0,9.33,4.4,2.88,11.94.72A20.14,20.14,0,0,1,17.37.14C64.23.11,111.09.26,157.94,0,168-.06,175.83,7.28,175.8,17.9c-.06,17.6,0,35.2,0,52.79Z"/><path class="cls-3" d="M144.33,58V69.27H31.19V58Z"/><path class="cls-4" d="M31.17,41.72V30.55H144.23V41.72Z"/><path class="cls-3" d="M31.13,96.76V85.54h77.22V96.76Z"/><path class="cls-5" d="M125.16,165.55l33.55-33.7c1.52-1.53,3-3.07,4.58-4.57,1.86-1.8,4-2,5.49-.5,1.71,1.64,1.67,3.73-.28,5.69q-12.5,12.59-25,25.1-7.53,7.55-15.07,15.09c-2.43,2.41-4.12,2.42-6.53,0q-9.68-9.64-19.29-19.33c-2.1-2.12-2.27-4.19-.55-5.84s3.79-1.36,5.86.71C113.58,153.91,119.25,159.62,125.16,165.55Z"/></g></g></svg>