<svg xmlns="http://www.w3.org/2000/svg" viewBox="0 0 120.62 219.08"><defs><style>.cls-1{fill:#2b89e1;}.cls-2{fill:#2c8ae1;}.cls-3{fill:#2e8be2;}.cls-4{fill:#2d8ae2;}.cls-5{fill:#328de2;}.cls-6{fill:#2f8be2;}.cls-7{fill:#338de2;}</style></defs><g id="Layer_2" data-name="Layer 2"><g id="Layer_1-2" data-name="Layer 1"><path class="cls-1" d="M66.54,183.38c9.94,8.48,22,3.26,24.85-7.49a89.65,89.65,0,0,1,13.22,20c3.4,7.27,5.66,14.76,3.48,23.14h-2.67q-48.86,0-97.71.06c-2.3,0-3-.82-3.37-2.85a38,38,0,0,1,.5-14.53c.35-1.71,1.2-2.2,2.82-2,6.51.66,13,1.24,19.54,1.87s13,1.06,19.55-.19c9.43-1.81,15.86-7.09,19.11-16.19C66,184.64,66.25,184.13,66.54,183.38Z"/><path class="cls-2" d="M91.43,171.24A15.3,15.3,0,0,0,83,159.82c11.09-9.08,15.65-20.88,15.31-34.76s-6.43-25-16.43-34.19c12.52-7,15.44-11.34,16.14-24a2.65,2.65,0,0,1,.79.32c26.25,25,26.77,61.57,12.38,85C106.49,159.8,98.69,167.36,91.43,171.24Z"/><path class="cls-2" d="M52,68.94a21.81,21.81,0,0,0,6.24,15.38,2.49,2.49,0,0,1,.62,3.29c-3.53,7.61-6.94,15.28-10.44,22.91C46.85,114,45,114.59,41.51,113c-4.13-1.9-8.29-3.74-12.42-5.65-3.22-1.5-3.85-3.3-2.37-6.58Q44.36,61.65,62,22.54c1.85-4.11,3.48-4.69,7.5-2.84s8,3.59,12,5.45c3.36,1.56,4,3.34,2.46,6.75-1.77,3.94-3.65,7.83-5.29,11.81-.68,1.63-1.57,2-3.25,2A22.82,22.82,0,0,0,52,68.94Z"/><path class="cls-3" d="M45.5,143.93l-1.13,3,2,1c.64-1.28,1.2-2.4,1.89-3.76l6.93,3.16,6.94,3.17L54,168.9l8.59-.47c.33,4,.65,7.87,1,12-6.62.75-13.75.9-20.65-1.55-6.45-2.28-7.64-5.1-5.2-11.56-1.57-1-2.93-2.17-5.15-1.26a5,5,0,0,1-3.42-.42c-7.65-3.41-15.26-6.91-22.87-10.43-2.78-1.28-3.6-3.51-2.36-6s3.39-3.08,6.05-1.87c7.34,3.34,14.66,6.7,22,10a6.87,6.87,0,0,1,3.93,3.89c.44,1.08,2,1.69,3.42,2.76,1.78-4,3.37-7.52,5-11.22l-2-1.17-1.64,2.77C27.2,148.18,13.67,142,0,135.78l4.66-10.44Z"/><path class="cls-4" d="M75,49c11.06,0,19.51,8.67,19.5,19.93A19.59,19.59,0,1,1,75,49ZM64.73,68.54a10.24,10.24,0,1,0,20.48,0,10.24,10.24,0,0,0-20.48,0Z"/><path class="cls-5" d="M88.15,173.23A11.15,11.15,0,0,1,77,184.3a11.15,11.15,0,0,1,.16-22.3A11.13,11.13,0,0,1,88.15,173.23Zm-4.69-.2a6.47,6.47,0,0,0-6.56-6.26,6.41,6.41,0,0,0,.23,12.82A6.6,6.6,0,0,0,83.46,173Z"/><path class="cls-6" d="M26.39,107.81,43.8,116l-1.62,3.63c-2.67-.94-3.5.8-4.17,2.82-.59,1.74-1.27,3.44-2,5.49l-13.34-6.12c1.18-2.3,2.35-4.44,3.37-6.65.29-.63.49-1.9.17-2.14C23.69,111.12,26,109.75,26.39,107.81Z"/><path class="cls-6" d="M74.94,6.72,87.3,12.3,82.2,23.86,69.39,18.28Z"/><path class="cls-7" d="M74,0a10.85,10.85,0,0,1,1.59.44Q83.29,4,91,7.53a2.83,2.83,0,0,1,.43.2c1.25.73,2.38,1.67,1.69,3.23s-2.24,1.63-3.69,1c-5.17-2.3-10.32-4.64-15.47-7-.49-.23-1.13-.52-1.32-1a3.59,3.59,0,0,1-.38-2.39C72.54.9,73.49.44,74,0Z"/></g></g></svg>