<svg xmlns="http://www.w3.org/2000/svg" viewBox="0 0 226.5 184.73"><defs><style>.cls-1{fill:#2c8ae1;}.cls-2{fill:#2e8be2;}.cls-3{fill:#2b89e1;}.cls-4{fill:#2f8be2;}.cls-5{fill:#318ce2;}.cls-6{fill:#2d8ae2;}.cls-7{fill:#328de2;}.cls-8{fill:#3890e3;}.cls-9{fill:#3a91e3;}.cls-10{fill:#3e93e4;}.cls-11{fill:#358fe3;}.cls-12{fill:#f1f7fc;}.cls-13{fill:#f6f9fd;}.cls-14{fill:#f8fafd;}.cls-15{fill:#f0f6fc;}.cls-16{fill:#f3f8fd;}.cls-17{fill:#f7fafd;}.cls-18{fill:#2d8ae1;}.cls-19{fill:#2a89e1;}</style></defs><g id="Layer_2" data-name="Layer 2"><g id="Layer_1-2" data-name="Layer 1"><path class="cls-1" d="M69.41,78.5H82.75v6.62h6.57v-6.7h6.84V71.61h6.57V51.11H96.32v-21h13.27V23.3h20.56V37.12H103.3V43.9h6.62v6.68h6.62V44h7v6.73h6.61v7.09h-6.59v6.7L117,65v6.47h6.55v-7h6.72V78.39H137V85c0,.23,0,.45-.07.67h-6.63V92.3l-.24.23h-6.38v6.39h6.47l.09.68c.25,1.48-.2,2.14-1.88,2.09-3.82-.12-7.64,0-11.66,0V85.32h6.51V78.93H110v6.64h-6.8v6.79H96.36v9.14H89.42V92.62H82.85v8.84H75.74V92.63H69.15v8.87H55.64l-.54-2H49l-.4,2H41.82v-23h6.89v6.79H55.1l.43.3v6.55H62.2V85.71l0-.59H69V78.91Z"/><path class="cls-2" d="M30,66H22.52V0H204V65.88h-7.32V7.65H30Z"/><path class="cls-2" d="M196.51,118.76H204v66H22.51V118.85h7.33v58.23H196.51Z"/><path class="cls-3" d="M113.27,111.14q-47.31,0-94.61,0a3.62,3.62,0,0,0-3.36,1.59A8.33,8.33,0,0,1,2.87,114a8.75,8.75,0,0,1-.16-12.81,8.34,8.34,0,0,1,12.47.92,4,4,0,0,0,3.58,1.7q94.48,0,189,0a4,4,0,0,0,3.59-1.69,8.34,8.34,0,0,1,12.46-.94,8.74,8.74,0,0,1-.14,12.81,8.31,8.31,0,0,1-12.43-1.21,3.59,3.59,0,0,0-3.34-1.61Q160.56,111.17,113.27,111.14Z"/><path class="cls-4" d="M42.37,23.83H89.84V72H42.37ZM82.8,31.09H49.44V64.82H82.8Z"/><path class="cls-5" d="M89.86,113.35v48.1H42.38v-48.1ZM49.39,154.21H82.76V120.45H49.39Z"/><path class="cls-2" d="M137.12,23.22H184.3V71.4H137.12Zm7,7.2V64.27h33.25V30.42Z"/><path class="cls-1" d="M184.4,161H137.12V113.26H184.4Zm-7-41.06H144.25v33.75h33.18Z"/><path class="cls-6" d="M123.59,120.23V127H117v6.68h13.15v7.13H117v6.77h13.12v7.18H110v6.74h-7v-6.7H96.3v-7.12h13.22V133.92h-6.16l-.43-.27q0-6.72,0-13.42l.48-.36h6.17v-6.48h7.22v6.48h6.34Z"/><path class="cls-6" d="M130.27,99.6l-.09-.68-.09-6.39.24-.23H137V85.65c0-.22,0-.44.07-.67h13.49V78.54h13.77v6.58l0,.55h-6.68v6.67l-.12.12h-6.66V99.1l-.38.31h-6l-.65,2.13h-6.51l-.49-1.94Z"/><path class="cls-2" d="M164.27,85.67l0-.55,13.42.1.37.39v6.67h6.6v7H171.06V92.47H164.4l-.18-.16C164.24,90.1,164.25,87.89,164.27,85.67Z"/><path class="cls-7" d="M150.43,99.41l.38-.31h6.66V92.46l.12-.12,6.63,0,.18.16v9.15H150.71Z"/><path class="cls-8" d="M103.39,119.87l-.48.36H96.28v-7c1.91,0,3.88-.09,5.83.06.41,0,1,.87,1.09,1.38C103.38,116.36,103.34,118.12,103.39,119.87Z"/><path class="cls-9" d="M55.53,85.64l-.43-.3V78.55h7.14v6.57l0,.59Z"/><path class="cls-10" d="M178.08,85.61l-.37-.39V78.57h7v7Z"/><path class="cls-11" d="M102.93,133.65l.43.27v6.79H96.29v-7.06Z"/><path class="cls-8" d="M123.59,120.23l-.47-.36c0-1.67.15-3.34.11-5,0-1.2.35-1.76,1.63-1.71,1.73.06,3.47,0,5.32,0v7.07Z"/><path class="cls-11" d="M110,101.67h-7V99.23h6.77Z"/><path class="cls-9" d="M69.41,78.5l-.4.41Z"/><path class="cls-12" d="M123.52,64.5v7H117V65l6.58-.45Z"/><path class="cls-13" d="M55.53,85.64l6.67.07v6.48H55.53Z"/><path class="cls-14" d="M137,85.65V92.3h-6.63V85.65Z"/><path class="cls-15" d="M130.09,92.53l.09,6.39h-6.47V92.53Z"/><path class="cls-16" d="M157.47,92.46V99.1h-6.66V92.46Z"/><path class="cls-17" d="M164.22,92.31l-6.63,0V85.67h6.68C164.25,87.89,164.24,90.1,164.22,92.31Z"/><path class="cls-1" d="M76.17,58.26H56V37.63H76.17Z"/><path class="cls-2" d="M55.83,147.74V127.09H76.27v20.65Z"/><path class="cls-18" d="M150.56,36.92h20.28v20.7H150.56Z"/><path class="cls-19" d="M150.52,126.46h20.32V147.1H150.52Z"/></g></g></svg>