<svg xmlns="http://www.w3.org/2000/svg" viewBox="0 0 224.06 224.34"><defs><style>.cls-1{fill:#f8f9f9;}.cls-2{fill:#4b94ef;}</style></defs><g id="Layer_2" data-name="Layer 2"><g id="Layer_1-2" data-name="Layer 1"><path class="cls-1" d="M112.11,224.34A112,112,0,0,1,0,112C0,79.15,12.66,51.26,36.93,29.1,60.07,8,87.6-1.38,118.79.16,173.89,2.9,225.63,49.9,224,115.65,222.6,174,174.27,224.44,112.11,224.34Zm1.83-49c-.67-1-1.07-1.57-1.44-2.17C105.13,161.09,97.79,149,90.33,137a4.38,4.38,0,0,0-2.88-2c-5.94-.31-12-1-17.85-.35-15.72,1.78-26.74,10-32.08,25.29-3.17,9.07-3.58,18.47-3.06,27.93a6,6,0,0,0,1.64,3.69A113.74,113.74,0,0,0,63.87,211c23.59,11.8,48.14,15.23,73.84,8.21,19.8-5.4,36.84-15.8,52.34-29a3,3,0,0,0,.95-2c.06-5.26.53-10.58-.12-15.76-2.18-17.29-11.12-30.15-26.39-38.54a4.84,4.84,0,0,0-2.48-.43c-7.8.5-15.59,1.13-23.4,1.54a3.93,3.93,0,0,0-3.73,2.32c-3.71,6.89-7.53,13.72-11.32,20.58Zm-1-134.77a44.53,44.53,0,1,0,44.45,44.39C157.41,60.69,137.23,40.55,112.92,40.55Z"/><path class="cls-2" d="M113.94,175.32l9.62-17.42c3.79-6.86,7.61-13.69,11.32-20.58a3.93,3.93,0,0,1,3.73-2.32c7.81-.41,15.6-1,23.4-1.54a4.84,4.84,0,0,1,2.48.43c15.27,8.39,24.21,21.25,26.39,38.54.65,5.18.18,10.5.12,15.76a3,3,0,0,1-.95,2c-15.5,13.17-32.54,23.57-52.34,29-25.7,7-50.25,3.59-73.84-8.21A113.74,113.74,0,0,1,36.1,191.57a6,6,0,0,1-1.64-3.69c-.52-9.46-.11-18.86,3.06-27.93,5.34-15.25,16.36-23.51,32.08-25.29,5.87-.66,11.91,0,17.85.35a4.38,4.38,0,0,1,2.88,2c7.46,12,14.8,24.11,22.17,36.17C112.87,173.75,113.27,174.31,113.94,175.32Z"/><path class="cls-2" d="M112.92,40.55c24.31,0,44.49,20.14,44.45,44.39a44.41,44.41,0,1,1-44.45-44.39Z"/></g></g></svg>